G04 Layer_Physical_Order=4*
G04 Layer_Color=16711680*
%FSLAX25Y25*%
%MOIN*%
G70*
G01*
G75*
%ADD10R,0.04331X0.03937*%
%ADD12R,0.10236X0.07480*%
%ADD16R,0.13780X0.09843*%
%ADD17R,0.03937X0.07874*%
%ADD22R,0.03937X0.04331*%
%ADD23R,0.05906X0.05118*%
%ADD24R,0.07480X0.10630*%
%ADD30R,0.02953X0.08996*%
%ADD31R,0.39154X0.35492*%
%ADD32C,0.01181*%
%ADD33C,0.11811*%
%ADD34C,0.02756*%
%ADD35C,0.00984*%
%ADD36C,0.19685*%
%ADD38C,0.01575*%
%ADD45C,0.11811*%
%ADD46C,0.19685*%
%ADD47C,0.09843*%
%ADD48R,0.05906X0.05906*%
%ADD49C,0.05906*%
%ADD50C,0.07874*%
%ADD51C,0.02362*%
%ADD52C,0.02717*%
%ADD53C,0.03937*%
%ADD54R,0.10630X0.07480*%
%ADD55R,0.34449X0.20472*%
%ADD56O,0.02756X0.09843*%
%ADD57C,0.02480*%
%ADD58R,0.19685X0.07874*%
%ADD59R,0.12598X0.03740*%
%ADD60O,0.09843X0.02756*%
%ADD61R,0.55118X0.20079*%
%ADD62R,0.01181X0.06102*%
%ADD63R,0.07874X0.07874*%
%ADD64O,0.00984X0.02559*%
%ADD65O,0.02559X0.00984*%
%ADD66R,0.17716X0.17716*%
%ADD67C,0.01969*%
%ADD68C,0.00906*%
%ADD69R,0.18500X0.18000*%
%ADD70R,0.13500X0.13500*%
%ADD71R,0.13000X0.21000*%
%ADD72R,0.14500X0.05500*%
%ADD73R,0.48500X0.13000*%
G36*
X179024Y78905D02*
Y74004D01*
X179194D01*
Y72569D01*
X179092Y72055D01*
X179275Y71134D01*
X179680Y70528D01*
X179275Y69922D01*
X179092Y69000D01*
X178852Y68708D01*
X177327D01*
X177291Y68735D01*
X176668Y68993D01*
X176000Y69081D01*
X175594Y69028D01*
X173502Y71120D01*
X173698Y71631D01*
X174422Y71775D01*
X175203Y72297D01*
X175725Y73078D01*
X175909Y74000D01*
X175725Y74922D01*
X175365Y75461D01*
X175632Y75961D01*
X176650D01*
Y78479D01*
X177036Y78796D01*
X177250Y78754D01*
X178171Y78937D01*
X178524Y79172D01*
X179024Y78905D01*
D02*
G37*
G36*
X199322Y95372D02*
X199460Y94680D01*
X199694Y94330D01*
Y81055D01*
X199831Y80364D01*
X200223Y79778D01*
X200778Y79223D01*
X201364Y78831D01*
X202055Y78694D01*
X202746Y78831D01*
X202779Y78853D01*
X205238D01*
X205505Y78353D01*
X205311Y78063D01*
X205181Y77410D01*
Y75799D01*
X191168D01*
X191016Y76299D01*
X191169Y76401D01*
X191691Y77183D01*
X191875Y78104D01*
X191691Y79026D01*
X191169Y79807D01*
X190388Y80329D01*
X189466Y80513D01*
X189253Y80470D01*
X188866Y80787D01*
Y83166D01*
X189266Y83565D01*
X189810D01*
X190127Y83179D01*
X190092Y83000D01*
X190275Y82078D01*
X190797Y81297D01*
X191578Y80775D01*
X192500Y80591D01*
X193422Y80775D01*
X193691Y80955D01*
X193797Y80797D01*
X194578Y80275D01*
X195500Y80092D01*
X196422Y80275D01*
X197203Y80797D01*
X197725Y81578D01*
X197908Y82500D01*
X197725Y83422D01*
X197203Y84203D01*
X196422Y84725D01*
X195682Y84872D01*
X193906Y86649D01*
X193616Y86843D01*
X193645Y87424D01*
X194203Y87797D01*
X194725Y88578D01*
X194908Y89500D01*
X195222Y89882D01*
X195595D01*
Y100118D01*
X194151D01*
Y113307D01*
X199322D01*
Y95372D01*
D02*
G37*
G36*
X220677Y96732D02*
X217223Y93277D01*
X216831Y92691D01*
X216694Y92000D01*
Y81639D01*
X216232Y81447D01*
X215743Y81936D01*
X215157Y82328D01*
X214466Y82465D01*
X203306D01*
Y93194D01*
X209000D01*
X209691Y93331D01*
X210277Y93723D01*
X213748Y97194D01*
X220486D01*
X220677Y96732D01*
D02*
G37*
G36*
X47402Y65178D02*
X47169Y64829D01*
X47031Y64138D01*
X47169Y63446D01*
X47561Y62861D01*
X48147Y62469D01*
X48838Y62331D01*
X49194Y62039D01*
Y61394D01*
X45331Y57531D01*
X43849D01*
X43479Y57458D01*
X42979Y57830D01*
Y65678D01*
X47135D01*
X47402Y65178D01*
D02*
G37*
G36*
X30966Y66290D02*
X31201Y66081D01*
X31089Y65516D01*
X31218Y64863D01*
X31440Y64531D01*
X31218Y64200D01*
X31089Y63547D01*
X31218Y62894D01*
X31440Y62563D01*
X31218Y62232D01*
X31089Y61579D01*
X31218Y60926D01*
X31440Y60594D01*
X31218Y60263D01*
X31089Y59610D01*
X30873Y59348D01*
X29305D01*
X29000Y59408D01*
X28695Y59348D01*
X28642D01*
X27989Y59218D01*
X27435Y58848D01*
X27372Y58753D01*
X27297Y58703D01*
X26775Y57922D01*
X26592Y57000D01*
X26775Y56078D01*
X27297Y55297D01*
X27631Y55074D01*
X27479Y54574D01*
X8977D01*
X8324Y54444D01*
X7771Y54074D01*
X6324Y52627D01*
X5954Y52074D01*
X5824Y51421D01*
Y48902D01*
X5324Y48596D01*
X5000Y48661D01*
X4309Y48523D01*
X3723Y48132D01*
X3306Y47715D01*
X2981Y47792D01*
X2806Y47908D01*
Y59359D01*
X3709Y60261D01*
X3764Y60344D01*
X4332Y60109D01*
X5000Y60021D01*
X5668Y60109D01*
X6291Y60367D01*
X6303Y60376D01*
X6324Y60373D01*
X7771Y58926D01*
X8324Y58556D01*
X8977Y58426D01*
X22132D01*
X22785Y58556D01*
X23339Y58926D01*
X30789Y66376D01*
X30966Y66290D01*
D02*
G37*
G36*
X42904Y81683D02*
X48654Y75933D01*
X49208Y75563D01*
X49861Y75433D01*
X50513Y75563D01*
X51067Y75933D01*
X51428Y76294D01*
X54301D01*
X55078Y75775D01*
X56000Y75591D01*
X56922Y75775D01*
X57197Y75959D01*
X57516Y75571D01*
X50942Y68996D01*
X50707Y69153D01*
X50373Y69219D01*
X50307Y69554D01*
X49915Y70139D01*
X41980Y78075D01*
Y81327D01*
X42342Y81625D01*
X42873Y81730D01*
X42904Y81683D01*
D02*
G37*
G36*
X145233Y98150D02*
X139847D01*
Y91850D01*
X141487D01*
Y85769D01*
X141025Y85578D01*
X133773Y92830D01*
X134116Y93194D01*
X136500D01*
X137191Y93331D01*
X137777Y93723D01*
X138169Y94309D01*
X138306Y95000D01*
X138169Y95691D01*
X137777Y96277D01*
X137191Y96669D01*
X136500Y96806D01*
X134872D01*
X134681Y97268D01*
X136707Y99294D01*
X145233D01*
Y98150D01*
D02*
G37*
G36*
X64139Y113194D02*
X56871Y105925D01*
X56422Y106225D01*
X55500Y106409D01*
X54578Y106225D01*
X53797Y105703D01*
X53275Y104922D01*
X53092Y104000D01*
X53275Y103078D01*
X53797Y102297D01*
X54578Y101775D01*
X55500Y101592D01*
X55807Y101653D01*
X56194Y101335D01*
Y100499D01*
X49806D01*
Y103252D01*
X60248Y113694D01*
X64021D01*
X64139Y113194D01*
D02*
G37*
G36*
X190739Y111673D02*
Y100118D01*
X189295D01*
Y91717D01*
X188795Y91565D01*
X188703Y91703D01*
X187922Y92225D01*
X187000Y92409D01*
X186926Y92394D01*
X186539Y92711D01*
Y100118D01*
X185196D01*
Y107975D01*
X185696Y108251D01*
X186500Y108091D01*
X187422Y108275D01*
X188203Y108797D01*
X188725Y109578D01*
X188907Y110495D01*
X190277Y111864D01*
X190739Y111673D01*
D02*
G37*
G36*
X227727Y103781D02*
X224752Y100806D01*
X213000D01*
X212309Y100669D01*
X211723Y100277D01*
X208252Y96806D01*
X202935D01*
Y111810D01*
X203321Y112127D01*
X203500Y112092D01*
X204422Y112275D01*
X205203Y112797D01*
X205468Y113194D01*
X206004D01*
Y111689D01*
X218996D01*
Y121531D01*
X214306D01*
Y123252D01*
X215936Y124882D01*
X227727D01*
Y103781D01*
D02*
G37*
G36*
X232286Y66785D02*
X231786Y66549D01*
X230951Y67234D01*
X230329Y67567D01*
X230207Y68052D01*
X230225Y68078D01*
X230409Y69000D01*
X230225Y69922D01*
X229703Y70703D01*
X228922Y71225D01*
X228000Y71408D01*
X227078Y71225D01*
X226297Y70703D01*
X225775Y69922D01*
X225591Y69000D01*
X225705Y68431D01*
X225605Y68297D01*
X224482Y67957D01*
X224079Y69285D01*
X223421Y70516D01*
X222535Y71595D01*
X221642Y72328D01*
X221771Y72863D01*
X222324Y73233D01*
X222964Y73873D01*
X223334Y74426D01*
X223464Y75079D01*
Y76051D01*
X226066Y78654D01*
X230150D01*
Y85347D01*
X223850D01*
Y81263D01*
X220806Y78219D01*
X220306Y78426D01*
Y91252D01*
X224732Y95677D01*
X225194Y95486D01*
Y88693D01*
X225331Y88002D01*
X225723Y87416D01*
X226309Y87024D01*
X227000Y86887D01*
X227691Y87024D01*
X228277Y87416D01*
X228669Y88002D01*
X228806Y88693D01*
Y97500D01*
X228669Y98191D01*
X228277Y98777D01*
X228055Y99000D01*
X230810Y101756D01*
X231202Y102342D01*
X231339Y103033D01*
Y148430D01*
X231202Y149121D01*
X230810Y149707D01*
X229306Y151211D01*
Y184000D01*
X229169Y184691D01*
X228777Y185277D01*
X228191Y185669D01*
X227500Y185806D01*
X226809Y185669D01*
X226223Y185277D01*
X225831Y184691D01*
X225694Y184000D01*
Y180087D01*
X225618Y179618D01*
X217794D01*
X215206Y182206D01*
X214653Y182576D01*
X214000Y182706D01*
X201719D01*
X201567Y183206D01*
X201703Y183297D01*
X202225Y184078D01*
X202409Y185000D01*
X202225Y185922D01*
X202188Y185978D01*
X202423Y186419D01*
X214000D01*
X214668Y186507D01*
X215291Y186765D01*
X215825Y187175D01*
X225839Y197189D01*
X232286D01*
Y66785D01*
D02*
G37*
G36*
X13227Y205044D02*
X13224Y204949D01*
X12829Y203648D01*
X12693Y202259D01*
Y178542D01*
X12829Y177152D01*
X13235Y175817D01*
X13529Y175265D01*
X13735Y174588D01*
X14393Y173357D01*
X15278Y172278D01*
X16357Y171393D01*
X17506Y170779D01*
X33320Y154965D01*
X33320Y154965D01*
X34399Y154079D01*
X35323Y153585D01*
Y138500D01*
X35432Y137678D01*
X35749Y136912D01*
X36254Y136254D01*
X36912Y135749D01*
X37678Y135432D01*
X38500Y135323D01*
X39322Y135432D01*
X40088Y135749D01*
X40147Y135794D01*
X66079D01*
X66852Y135020D01*
X67405Y134651D01*
X68058Y134521D01*
X72227D01*
X72880Y134651D01*
X73433Y135020D01*
X75206Y136794D01*
X75576Y137347D01*
X75706Y138000D01*
X75576Y138653D01*
X75206Y139206D01*
X74653Y139576D01*
X74000Y139706D01*
X73347Y139576D01*
X72794Y139206D01*
X71876Y138289D01*
X71503Y138457D01*
X71404Y138524D01*
X71225Y139422D01*
X70703Y140203D01*
X69922Y140725D01*
X69000Y140909D01*
X68078Y140725D01*
X67297Y140203D01*
X66775Y139422D01*
X66732Y139206D01*
X61206D01*
Y140847D01*
X62650D01*
Y142487D01*
X70850D01*
Y141347D01*
X76622D01*
X76775Y140578D01*
X77297Y139797D01*
X78078Y139275D01*
X79000Y139092D01*
X79922Y139275D01*
X80703Y139797D01*
X80830Y139986D01*
X81431D01*
X81520Y139852D01*
X105186Y116186D01*
X121259Y100113D01*
X121196Y99470D01*
X120797Y99203D01*
X120275Y98422D01*
X120091Y97500D01*
X120220Y96853D01*
X119578Y96725D01*
X118797Y96203D01*
X118275Y95422D01*
X118091Y94500D01*
X118275Y93578D01*
X118797Y92797D01*
X119578Y92275D01*
X120500Y92092D01*
X121422Y92275D01*
X122203Y92797D01*
X122725Y93578D01*
X122908Y94500D01*
X122780Y95147D01*
X123422Y95275D01*
X123567Y95372D01*
X123739Y95114D01*
X128114Y90739D01*
X128668Y90369D01*
X129246Y90254D01*
X129092Y89476D01*
X129275Y88554D01*
X129797Y87773D01*
X130578Y87251D01*
X131120Y87143D01*
X131091Y87000D01*
X131275Y86078D01*
X131797Y85297D01*
X132578Y84775D01*
X133500Y84592D01*
X134422Y84775D01*
X135203Y85297D01*
X135496Y85735D01*
X135994Y85784D01*
X139021Y82757D01*
Y80058D01*
X139151Y79405D01*
X139521Y78852D01*
X140852Y77521D01*
X141405Y77151D01*
X141748Y77083D01*
X141912Y76540D01*
X140386Y75013D01*
X139150D01*
Y76653D01*
X137706D01*
Y80000D01*
X137576Y80653D01*
X137206Y81206D01*
X136653Y81576D01*
X136000Y81706D01*
X125146D01*
X124493Y81576D01*
X123939Y81206D01*
X122796Y80063D01*
X122368Y79777D01*
X121977Y79191D01*
X121839Y78500D01*
Y78102D01*
X121339Y77691D01*
X121116Y77736D01*
X110869D01*
X110444Y78236D01*
X110479Y78500D01*
X110391Y79168D01*
X110133Y79791D01*
X109723Y80325D01*
X109188Y80735D01*
X108566Y80993D01*
X107898Y81081D01*
X103982D01*
X103354Y81206D01*
X98150D01*
Y82846D01*
X86150D01*
Y83039D01*
X79850D01*
Y82316D01*
X79350Y81971D01*
X78693Y82101D01*
X77771Y81918D01*
X77708Y81875D01*
X77267Y82111D01*
Y92811D01*
X77137Y93463D01*
X76767Y94017D01*
X76127Y94657D01*
X75574Y95026D01*
X74921Y95156D01*
X67450D01*
X66798Y95026D01*
X66528Y94846D01*
X62350D01*
Y89780D01*
X61150D01*
Y95346D01*
X54850D01*
Y90206D01*
X54350Y89939D01*
X53922Y90225D01*
X53000Y90408D01*
X52078Y90225D01*
X51650Y89939D01*
X51150Y90206D01*
Y95846D01*
X45650D01*
X45150Y95846D01*
Y96873D01*
X45650Y97025D01*
X45723Y96916D01*
X46309Y96524D01*
X47000Y96386D01*
X47691Y96524D01*
X48277Y96916D01*
X48290Y96928D01*
X48500Y96886D01*
X57266D01*
X57809Y96524D01*
X58500Y96386D01*
X83059D01*
X85723Y93723D01*
X86309Y93331D01*
X87000Y93194D01*
X87691Y93331D01*
X88277Y93723D01*
X88669Y94309D01*
X88806Y95000D01*
X88669Y95691D01*
X88277Y96277D01*
X85084Y99470D01*
X84498Y99862D01*
X83807Y99999D01*
X72909D01*
X72758Y100499D01*
X73203Y100797D01*
X73725Y101578D01*
X73909Y102500D01*
X73761Y103243D01*
X73922Y103275D01*
X74703Y103797D01*
X75225Y104578D01*
X75409Y105500D01*
X75225Y106422D01*
X74703Y107203D01*
X73922Y107725D01*
X73000Y107908D01*
X72078Y107725D01*
X71297Y107203D01*
X70775Y106422D01*
X70591Y105500D01*
X70739Y104757D01*
X70578Y104725D01*
X69797Y104203D01*
X69275Y103422D01*
X69091Y102500D01*
X69275Y101578D01*
X69797Y100797D01*
X70242Y100499D01*
X70091Y99999D01*
X67306D01*
Y111252D01*
X70277Y114223D01*
X70669Y114809D01*
X70806Y115500D01*
X70669Y116191D01*
X70277Y116777D01*
X69691Y117169D01*
X69000Y117306D01*
X59500D01*
X58809Y117169D01*
X58223Y116777D01*
X46723Y105277D01*
X46331Y104691D01*
X46207Y104066D01*
X45962Y103921D01*
X45694Y103856D01*
X45153Y104218D01*
X44462Y104355D01*
X43662D01*
X43537Y104855D01*
X43956Y105079D01*
X45035Y105965D01*
X45921Y107044D01*
X46579Y108275D01*
X46984Y109611D01*
X47121Y111000D01*
X46984Y112389D01*
X46579Y113725D01*
X45921Y114956D01*
X45035Y116035D01*
X43956Y116921D01*
X42725Y117579D01*
X41389Y117984D01*
X40000Y118121D01*
X38611Y117984D01*
X37275Y117579D01*
X36044Y116921D01*
X34965Y116035D01*
X34079Y114956D01*
X33421Y113725D01*
X33016Y112389D01*
X32879Y111000D01*
X33016Y109611D01*
X33421Y108275D01*
X34079Y107044D01*
X34965Y105965D01*
X36044Y105079D01*
X37275Y104421D01*
X37426Y104375D01*
X37499Y103881D01*
X37418Y103826D01*
X32851Y99260D01*
X32460Y98674D01*
X32322Y97982D01*
Y96766D01*
X31555Y95999D01*
X15500D01*
X14809Y95862D01*
X14223Y95470D01*
X13831Y94884D01*
X13694Y94193D01*
X13831Y93502D01*
X14223Y92916D01*
X15830Y91308D01*
X15639Y90847D01*
X12350D01*
Y84696D01*
X12000Y84408D01*
X11078Y84225D01*
X10491Y83833D01*
X9991Y84077D01*
Y135449D01*
X15665D01*
Y141551D01*
X10766D01*
Y205449D01*
X12941D01*
X13227Y205044D01*
D02*
G37*
G36*
X124794Y120293D02*
Y104579D01*
X124332Y104387D01*
X116999Y111720D01*
Y120500D01*
Y127021D01*
X118067D01*
X124794Y120293D01*
D02*
G37*
G36*
X33709Y15589D02*
X33591Y15000D01*
X33775Y14078D01*
X34297Y13297D01*
X35078Y12775D01*
X35602Y12671D01*
X35767Y12128D01*
X34723Y11084D01*
X34331Y10498D01*
X34194Y9807D01*
Y7063D01*
X33744Y6613D01*
X28184D01*
X28169Y6691D01*
X27777Y7277D01*
X27214Y7654D01*
X27207Y7691D01*
X27378Y8153D01*
X29650D01*
Y12237D01*
X33248Y15835D01*
X33709Y15589D01*
D02*
G37*
G36*
X24694Y4898D02*
Y4807D01*
X24831Y4116D01*
X25071Y3757D01*
X24803Y3258D01*
X24038D01*
X23347Y3120D01*
X22761Y2729D01*
X22339Y2306D01*
X13912D01*
X13733Y2806D01*
X14535Y3465D01*
X15421Y4544D01*
X16079Y5775D01*
X16484Y7111D01*
X16621Y8500D01*
X16495Y9782D01*
X16695Y10047D01*
X16910Y10209D01*
X17500Y10091D01*
X18422Y10275D01*
X18958Y10633D01*
X24694Y4898D01*
D02*
G37*
G36*
X106895Y24439D02*
X107364Y24126D01*
X107464Y23518D01*
X106988Y23043D01*
X96000D01*
X95309Y22905D01*
X94723Y22513D01*
X92261Y20052D01*
X91799Y20243D01*
Y24921D01*
X83773D01*
X82999Y25696D01*
X83048Y26193D01*
X83203Y26297D01*
X83725Y27078D01*
X83908Y28000D01*
X83725Y28922D01*
X83203Y29703D01*
X82422Y30225D01*
X81500Y30408D01*
X80578Y30225D01*
X79797Y29703D01*
X79693Y29548D01*
X79196Y29499D01*
X77648Y31047D01*
X77095Y31416D01*
X76442Y31546D01*
X75411D01*
X72899Y34059D01*
X73090Y34521D01*
X78500D01*
X78701Y34561D01*
X79201Y34150D01*
Y32008D01*
X87867D01*
X92850Y27024D01*
Y24583D01*
X99150D01*
Y31276D01*
X93708D01*
X91799Y33184D01*
Y38881D01*
X92261Y39072D01*
X106895Y24439D01*
D02*
G37*
G36*
X55108Y3338D02*
X54917Y2876D01*
X49891D01*
X49452Y3169D01*
X48761Y3306D01*
X41924D01*
X41342Y3191D01*
X36137D01*
X35930Y3691D01*
X36748Y4509D01*
X53937D01*
X55108Y3338D01*
D02*
G37*
G36*
X218460Y17255D02*
X218939Y16539D01*
X219292Y16185D01*
Y9500D01*
X219460Y8655D01*
X219939Y7939D01*
X220655Y7460D01*
X221500Y7292D01*
X221935Y7379D01*
X222181Y6918D01*
X218569Y3306D01*
X216099D01*
X215771Y3806D01*
X215909Y4500D01*
X215725Y5422D01*
X215439Y5850D01*
X215706Y6350D01*
X218154D01*
Y12650D01*
X217015D01*
Y16200D01*
X217246Y16354D01*
X217781Y17155D01*
X217876Y17632D01*
X218385D01*
X218460Y17255D01*
D02*
G37*
G36*
X48504Y19189D02*
X57509D01*
X59749Y16949D01*
Y14489D01*
X59879Y13836D01*
X60249Y13282D01*
X60888Y12642D01*
X61350Y12334D01*
Y7153D01*
X67650D01*
Y12285D01*
X68111Y12476D01*
X69294Y11293D01*
Y7699D01*
X68775Y6922D01*
X68591Y6000D01*
X68627Y5821D01*
X68310Y5435D01*
X65253D01*
X65191Y5476D01*
X64500Y5613D01*
X57941D01*
X55962Y7592D01*
X55376Y7984D01*
X54685Y8121D01*
X37806D01*
Y9059D01*
X46777Y18030D01*
X47169Y18616D01*
X47306Y19307D01*
X47169Y19998D01*
X46777Y20584D01*
X46191Y20976D01*
X45500Y21113D01*
X44809Y20976D01*
X44223Y20584D01*
X42893Y19254D01*
X42496Y19565D01*
Y22654D01*
X48504D01*
Y19189D01*
D02*
G37*
G36*
X207689Y72442D02*
Y60004D01*
X210379D01*
Y58000D01*
X210507Y56704D01*
X210409Y56502D01*
X210117Y56204D01*
X209000D01*
X208539Y56113D01*
X208149Y55852D01*
X207887Y55461D01*
X207796Y55000D01*
Y41500D01*
X207887Y41039D01*
X208149Y40648D01*
X208539Y40387D01*
X209000Y40296D01*
X222500D01*
X222961Y40387D01*
X223352Y40648D01*
X223382Y40694D01*
X225850D01*
Y39654D01*
X225850Y39154D01*
X225850D01*
Y39154D01*
X225850D01*
Y35780D01*
X223537Y33467D01*
X223009Y33646D01*
X222993Y33768D01*
X222735Y34391D01*
X222325Y34925D01*
X221791Y35335D01*
X221168Y35593D01*
X220500Y35681D01*
X217616D01*
X217500Y35704D01*
X203204D01*
Y55000D01*
X203113Y55461D01*
X202852Y55852D01*
X202461Y56113D01*
X202000Y56204D01*
X197708D01*
Y64174D01*
X197735Y64209D01*
X197993Y64832D01*
X198081Y65500D01*
X197993Y66168D01*
X197735Y66791D01*
X197325Y67325D01*
X196325Y68325D01*
X195791Y68735D01*
X195168Y68993D01*
X194500Y69081D01*
X193832Y68993D01*
X193209Y68735D01*
X192828Y68442D01*
X191192D01*
X190875Y68829D01*
X190909Y69000D01*
X190725Y69922D01*
X190320Y70528D01*
X190725Y71134D01*
X190909Y72055D01*
X191181Y72387D01*
X206248D01*
X206901Y72517D01*
X207189Y72710D01*
X207689Y72442D01*
D02*
G37*
G36*
X167296Y53988D02*
Y40245D01*
X164996D01*
Y41421D01*
X161176D01*
X160793Y41921D01*
X160908Y42500D01*
X160725Y43422D01*
X160203Y44203D01*
X159422Y44725D01*
X158500Y44908D01*
X157578Y44725D01*
X156797Y44203D01*
X156551Y43834D01*
X155949D01*
X155703Y44203D01*
X154922Y44725D01*
X154000Y44908D01*
X153078Y44725D01*
X152297Y44203D01*
X151775Y43422D01*
X151592Y42500D01*
X151775Y41578D01*
X152004Y41236D01*
Y35092D01*
X151504Y34653D01*
X151162Y34698D01*
X146588D01*
X145766Y34590D01*
X145000Y34272D01*
X144342Y33768D01*
X141107Y30533D01*
X140603Y29875D01*
X140285Y29109D01*
X140266Y28967D01*
X139784Y28837D01*
X139698Y28948D01*
X138835Y29611D01*
X137829Y30027D01*
X136750Y30169D01*
X135671Y30027D01*
X134665Y29611D01*
X133802Y28948D01*
X133139Y28085D01*
X132723Y27079D01*
X132580Y26000D01*
X132723Y24921D01*
X133139Y23915D01*
X133802Y23052D01*
X134665Y22389D01*
X135671Y21973D01*
X136750Y21831D01*
X137829Y21973D01*
X138835Y22389D01*
X139677Y23035D01*
X139853Y23008D01*
X140177Y22898D01*
Y19177D01*
X139400D01*
X138835Y19611D01*
X137829Y20027D01*
X136750Y20169D01*
X135671Y20027D01*
X134665Y19611D01*
X134099Y19177D01*
X127276D01*
X126710Y19611D01*
X125704Y20027D01*
X124625Y20169D01*
X123546Y20027D01*
X122540Y19611D01*
X121975Y19177D01*
X115150D01*
X114585Y19611D01*
X113579Y20027D01*
X112500Y20169D01*
X111421Y20027D01*
X110415Y19611D01*
X109552Y18948D01*
X108889Y18085D01*
X108473Y17079D01*
X108331Y16000D01*
X108473Y14921D01*
X108889Y13915D01*
X109552Y13052D01*
X110415Y12389D01*
X111421Y11972D01*
X112500Y11830D01*
X113579Y11972D01*
X114585Y12389D01*
X115150Y12823D01*
X121975D01*
X122540Y12389D01*
X123546Y11972D01*
X124625Y11830D01*
X125704Y11972D01*
X126710Y12389D01*
X127276Y12823D01*
X134099D01*
X134665Y12389D01*
X135671Y11972D01*
X136750Y11830D01*
X137829Y11972D01*
X138835Y12389D01*
X139400Y12823D01*
X146224D01*
X146790Y12389D01*
X147796Y11972D01*
X148875Y11830D01*
X149954Y11972D01*
X150960Y12389D01*
X151525Y12823D01*
X158350D01*
X158915Y12389D01*
X159921Y11972D01*
X161000Y11830D01*
X162079Y11972D01*
X163085Y12389D01*
X163948Y13052D01*
X164611Y13915D01*
X165027Y14921D01*
X165170Y16000D01*
X165027Y17079D01*
X164611Y18085D01*
X163948Y18948D01*
X163292Y19452D01*
X163193Y20060D01*
X164389Y21256D01*
X165033Y21192D01*
X165297Y20797D01*
X166078Y20275D01*
X167000Y20091D01*
X167409Y20173D01*
X167796Y19856D01*
Y16500D01*
X167887Y16039D01*
X168149Y15649D01*
X168539Y15387D01*
X169000Y15296D01*
X179654D01*
X187275Y7675D01*
X187809Y7265D01*
X188432Y7007D01*
X189100Y6919D01*
X194000D01*
X194668Y7007D01*
X195291Y7265D01*
X195825Y7675D01*
X196235Y8209D01*
X196493Y8832D01*
X196581Y9500D01*
X196493Y10168D01*
X196235Y10791D01*
X195825Y11325D01*
X195291Y11735D01*
X194668Y11993D01*
X194000Y12081D01*
X190169D01*
X187193Y15057D01*
X187385Y15519D01*
X195500D01*
X196168Y15607D01*
X196791Y15865D01*
X197325Y16275D01*
X197665Y16718D01*
X198061Y16782D01*
X198252Y16766D01*
X198485Y16526D01*
Y12650D01*
X197346D01*
Y6350D01*
X204039D01*
Y12650D01*
X202901D01*
Y16732D01*
X203401Y16884D01*
X203754Y16354D01*
X204555Y15819D01*
X205500Y15631D01*
X206445Y15819D01*
X207246Y16354D01*
X207726Y17073D01*
X207994Y17118D01*
X208006D01*
X208274Y17073D01*
X208754Y16354D01*
X209555Y15819D01*
X210500Y15631D01*
X211445Y15819D01*
X212099Y16257D01*
X212599Y16052D01*
Y12650D01*
X211461D01*
Y6350D01*
X211461Y6350D01*
X211461D01*
X211561Y5850D01*
X211275Y5422D01*
X211091Y4500D01*
X211229Y3806D01*
X210901Y3306D01*
X86067D01*
X85909Y3500D01*
X85725Y4422D01*
X85203Y5203D01*
X84619Y5593D01*
X84499Y6181D01*
X89470Y11152D01*
X89862Y11738D01*
X89999Y12429D01*
Y12681D01*
X90581Y13263D01*
X91111D01*
X91803Y13400D01*
X92388Y13792D01*
X93086Y14489D01*
X93477Y15075D01*
X93615Y15767D01*
Y16297D01*
X96748Y19430D01*
X107736D01*
X108428Y19567D01*
X109013Y19959D01*
X112933Y23878D01*
X113345Y23960D01*
X114061Y24439D01*
X132561Y42939D01*
X142025Y52403D01*
X158500D01*
X159345Y52571D01*
X160061Y53049D01*
X160540Y53765D01*
X160708Y54610D01*
Y59101D01*
X160705Y59117D01*
X161022Y59504D01*
X161780D01*
X167296Y53988D01*
D02*
G37*
G36*
X118277Y61675D02*
X118812Y61265D01*
X119434Y61007D01*
X120102Y60919D01*
X127189D01*
X127857Y61007D01*
X128292Y61187D01*
X128792Y60924D01*
Y45415D01*
X111585Y28208D01*
X109370D01*
X93764Y43815D01*
X93047Y44293D01*
X92202Y44461D01*
X75514D01*
X75206Y44921D01*
X74436Y45692D01*
X74627Y46154D01*
X77150D01*
Y51999D01*
X91089D01*
X94153Y48934D01*
Y44850D01*
X97367D01*
X97684Y44464D01*
X97592Y44000D01*
X97775Y43078D01*
X98297Y42297D01*
X99078Y41775D01*
X100000Y41592D01*
X100922Y41775D01*
X101703Y42297D01*
X101897Y42587D01*
X102206Y42794D01*
X104263Y44850D01*
X107539D01*
Y50850D01*
Y54934D01*
X114400Y61794D01*
X118186D01*
X118277Y61675D01*
D02*
G37*
G36*
X166293Y69674D02*
X167010Y69195D01*
X167855Y69027D01*
X169351D01*
X173001Y65377D01*
X173007Y65332D01*
X173265Y64709D01*
X173675Y64175D01*
X174209Y63765D01*
X174832Y63507D01*
X175500Y63419D01*
X176168Y63507D01*
X176791Y63765D01*
X177325Y64175D01*
X177443Y64292D01*
X179364D01*
X179510Y64195D01*
X180355Y64027D01*
X182645D01*
X183250Y64147D01*
X183855Y64027D01*
X186145D01*
X186500Y64097D01*
X186855Y64027D01*
X193292D01*
Y56204D01*
X189000D01*
X188539Y56113D01*
X188148Y55852D01*
X187887Y55461D01*
X187461Y55613D01*
X187000Y55704D01*
X171824D01*
X162311Y65217D01*
Y70691D01*
X165276D01*
X166293Y69674D01*
D02*
G37*
G36*
X37654Y38512D02*
Y32350D01*
X40784D01*
X40976Y31888D01*
X40858Y31771D01*
X40488Y31217D01*
X40359Y30565D01*
Y29346D01*
X25253D01*
X25061Y29808D01*
X32139Y36886D01*
X32601Y36695D01*
Y35500D01*
X32731Y34847D01*
X33101Y34294D01*
X33654Y33924D01*
X34307Y33794D01*
X34960Y33924D01*
X35513Y34294D01*
X35883Y34847D01*
X36013Y35500D01*
Y37732D01*
X36474Y38040D01*
X37203Y38769D01*
X37654Y38512D01*
D02*
G37*
G36*
X7419Y43311D02*
X7507Y42643D01*
X7765Y42020D01*
X8175Y41486D01*
X8194Y41471D01*
Y40013D01*
X8091Y39500D01*
X8275Y38578D01*
X8797Y37797D01*
X9578Y37275D01*
X10500Y37091D01*
X11422Y37275D01*
X12000Y37661D01*
X12510Y37321D01*
X12519Y37042D01*
X12457Y36800D01*
X12078Y36725D01*
X11297Y36203D01*
X10775Y35422D01*
X10593Y34505D01*
X10334Y34247D01*
X8496D01*
X8150Y34178D01*
X7650Y34347D01*
Y34346D01*
X2806D01*
Y36139D01*
X2997Y36265D01*
X3306Y36360D01*
X3809Y36024D01*
X4500Y35886D01*
X5191Y36024D01*
X5777Y36416D01*
X6169Y37002D01*
X6306Y37693D01*
Y45148D01*
X7419D01*
Y43311D01*
D02*
G37*
G36*
X69067Y47735D02*
Y46942D01*
X69197Y46289D01*
X69567Y45735D01*
X71909Y43393D01*
X71792Y42807D01*
X71960Y41962D01*
X72344Y41387D01*
X72231Y40961D01*
X72141Y40837D01*
X71578Y40725D01*
X70797Y40203D01*
X70671Y40015D01*
X70070Y40015D01*
X69933Y40220D01*
X65701Y44452D01*
Y47221D01*
X65764Y47273D01*
X66417Y47403D01*
X66970Y47772D01*
X67265Y48067D01*
X68735D01*
X69067Y47735D01*
D02*
G37*
G36*
X109544Y154500D02*
X109681Y153809D01*
X110073Y153223D01*
X110659Y152831D01*
X111325Y152699D01*
Y152065D01*
X110321D01*
X110260Y152126D01*
X109674Y152518D01*
X108982Y152655D01*
X107650D01*
Y155654D01*
X101350D01*
Y149349D01*
X101000Y148908D01*
X100078Y148725D01*
X99297Y148203D01*
X99041Y147819D01*
X98397Y147756D01*
X96576Y149576D01*
X96023Y149946D01*
X95370Y150076D01*
X92870D01*
X92217Y149946D01*
X91664Y149577D01*
X90871Y148783D01*
X90578Y148725D01*
X89797Y148203D01*
X89275Y147422D01*
X89091Y146500D01*
X89275Y145578D01*
X89745Y144875D01*
X89356Y144556D01*
X82906Y151007D01*
Y153112D01*
X83925Y153421D01*
X85156Y154079D01*
X86235Y154965D01*
X87121Y156044D01*
X87779Y157275D01*
X88184Y158611D01*
X88321Y160000D01*
Y162143D01*
X99311D01*
X99455Y161643D01*
X98797Y161203D01*
X98275Y160422D01*
X98092Y159500D01*
X98275Y158578D01*
X98797Y157797D01*
X99578Y157275D01*
X100500Y157091D01*
X101422Y157275D01*
X102203Y157797D01*
X102403Y158096D01*
X102989Y158073D01*
X103223Y157723D01*
X103809Y157331D01*
X104500Y157194D01*
X105191Y157331D01*
X105777Y157723D01*
X106169Y158309D01*
X106306Y159000D01*
Y162143D01*
X109544D01*
Y154500D01*
D02*
G37*
G36*
X189355Y160000D02*
X189453Y159007D01*
X176223Y145777D01*
X175831Y145191D01*
X175694Y144500D01*
X175831Y143809D01*
X176223Y143223D01*
X176809Y142831D01*
X177500Y142694D01*
X183945D01*
X184527Y142112D01*
X184335Y141650D01*
X174193D01*
X174153Y142133D01*
Y147650D01*
X167893D01*
X167595Y147849D01*
X166942Y147979D01*
X165545D01*
X164237Y149287D01*
Y150268D01*
X166271D01*
Y151601D01*
X169350D01*
Y149961D01*
X175650D01*
Y156653D01*
X169350D01*
Y155013D01*
X166399D01*
X166271Y155141D01*
Y158732D01*
X113157D01*
Y162143D01*
X170694D01*
Y160000D01*
X170831Y159309D01*
X171223Y158723D01*
X171809Y158331D01*
X172500Y158194D01*
X173191Y158331D01*
X173777Y158723D01*
X174169Y159309D01*
X174306Y160000D01*
X174584Y160047D01*
X174806Y160031D01*
X175297Y159297D01*
X176078Y158775D01*
X177000Y158591D01*
X177922Y158775D01*
X178703Y159297D01*
X179225Y160078D01*
X179409Y161000D01*
X179281Y161643D01*
X179633Y162143D01*
X189355D01*
Y160000D01*
D02*
G37*
G36*
X115637Y176854D02*
X115654Y176771D01*
X115336Y176385D01*
X112519D01*
X111759Y176310D01*
X111000Y176385D01*
X70236D01*
X68847Y176248D01*
X67511Y175843D01*
X66280Y175185D01*
X65201Y174299D01*
X64315Y173220D01*
X63657Y171989D01*
X63252Y170653D01*
X63115Y169264D01*
X63252Y167875D01*
X63359Y167523D01*
X63061Y167121D01*
X41304D01*
X35883Y172542D01*
X36075Y173004D01*
X42031D01*
Y175478D01*
X42447Y175755D01*
X42625Y175682D01*
X43447Y175574D01*
X50861D01*
X51683Y175682D01*
X52449Y175999D01*
X53061Y176469D01*
X59996D01*
Y178213D01*
X108713D01*
X109535Y178321D01*
X110301Y178639D01*
X110959Y179143D01*
X111459Y179795D01*
X113122D01*
Y182032D01*
X113319Y182194D01*
X113457Y182221D01*
X115637D01*
Y176854D01*
D02*
G37*
G36*
X215382Y177206D02*
Y169382D01*
X223205D01*
X223823Y168764D01*
Y151677D01*
X218500D01*
X217847Y151547D01*
X217294Y151177D01*
X216924Y150624D01*
X216794Y149971D01*
Y149118D01*
X207476D01*
Y143268D01*
X207014Y143077D01*
X203885Y146206D01*
X203331Y146576D01*
X202678Y146706D01*
X199539D01*
Y148150D01*
X192847D01*
Y141850D01*
X198221D01*
X198275Y141578D01*
X198797Y140797D01*
X199137Y140570D01*
X199256Y139890D01*
X199195Y139806D01*
X198354D01*
X197663Y139669D01*
X197077Y139277D01*
X196981Y139287D01*
X196703Y139703D01*
X195922Y140225D01*
X195000Y140409D01*
X194078Y140225D01*
X193297Y139703D01*
X193042Y139321D01*
X192510Y139280D01*
X192435Y139313D01*
X190928Y140820D01*
X190342Y141211D01*
X189650Y141349D01*
X189162D01*
Y141837D01*
X189025Y142528D01*
X188971Y142609D01*
X189569Y143207D01*
X190191Y143331D01*
X190777Y143723D01*
X191169Y144309D01*
X191306Y145000D01*
Y152276D01*
X192904Y153874D01*
X193751Y153421D01*
X195086Y153016D01*
X196476Y152879D01*
X197865Y153016D01*
X199201Y153421D01*
X200140Y153923D01*
X200269Y153794D01*
X200823Y153424D01*
X201476Y153294D01*
X220500D01*
X221153Y153424D01*
X221706Y153794D01*
X222076Y154347D01*
X222206Y155000D01*
X222076Y155653D01*
X221706Y156206D01*
X221153Y156576D01*
X220500Y156706D01*
X203237D01*
X202980Y157135D01*
X203054Y157275D01*
X203460Y158611D01*
X203596Y160000D01*
Y162143D01*
X207764D01*
X209153Y162280D01*
X210489Y162685D01*
X211720Y163343D01*
X212799Y164228D01*
X213685Y165308D01*
X214343Y166539D01*
X214748Y167875D01*
X214885Y169264D01*
X214748Y170653D01*
X214343Y171989D01*
X213685Y173220D01*
X212799Y174299D01*
X211720Y175185D01*
X210489Y175843D01*
X209153Y176248D01*
X207764Y176385D01*
X196417D01*
X196262Y176885D01*
X196725Y177578D01*
X196908Y178500D01*
X196827Y178908D01*
X197145Y179294D01*
X213293D01*
X215382Y177206D01*
D02*
G37*
G36*
X56794Y150218D02*
X55233Y148657D01*
X54863Y148103D01*
X54733Y147450D01*
Y141575D01*
X54863Y140922D01*
X55233Y140369D01*
X55873Y139729D01*
X55907Y139706D01*
X55756Y139206D01*
X41677D01*
Y152879D01*
X56794D01*
Y150218D01*
D02*
G37*
G36*
X99000Y142327D02*
X99554Y141958D01*
X100207Y141828D01*
X112034D01*
X112687Y141958D01*
X112781Y142021D01*
X115942D01*
X116595Y142151D01*
X117000Y142421D01*
X117901Y141520D01*
X118454Y141151D01*
X119107Y141021D01*
X119487D01*
Y139650D01*
X108346D01*
Y138206D01*
X95707D01*
X89556Y144357D01*
X89875Y144745D01*
X90578Y144275D01*
X91500Y144091D01*
X92422Y144275D01*
X93203Y144797D01*
X93725Y145578D01*
X93909Y146500D01*
X94043Y146664D01*
X94664D01*
X99000Y142327D01*
D02*
G37*
G36*
X79494Y150300D02*
X79624Y149647D01*
X79862Y149291D01*
X79683Y148746D01*
X79578Y148725D01*
X78801Y148206D01*
X75807D01*
X75154Y148076D01*
X75099Y148039D01*
X70850D01*
Y145899D01*
X62650D01*
Y147539D01*
X59594D01*
X59403Y148001D01*
X59706Y148305D01*
X60076Y148858D01*
X60206Y149511D01*
Y152879D01*
X79494D01*
Y150300D01*
D02*
G37*
G36*
X166775Y180078D02*
X167297Y179297D01*
X168078Y178775D01*
X169000Y178592D01*
X169922Y178775D01*
X170699Y179294D01*
X177235D01*
X177553Y178908D01*
X177491Y178600D01*
X177675Y177678D01*
X178197Y176897D01*
X178247Y176863D01*
X178102Y176385D01*
X119744D01*
X119427Y176771D01*
X119443Y176854D01*
X119306Y177546D01*
X119250Y177630D01*
Y179795D01*
X166271D01*
Y180046D01*
X166771Y180095D01*
X166775Y180078D01*
D02*
G37*
G36*
X127178Y295817D02*
X127564Y295548D01*
X127442Y294000D01*
Y290214D01*
X126942Y289880D01*
X126668Y289993D01*
X126000Y290081D01*
X116157D01*
X115965Y290543D01*
X121116Y295694D01*
X126397D01*
X127088Y295831D01*
X127094Y295835D01*
X127178Y295817D01*
D02*
G37*
G36*
X183194Y309000D02*
X182864Y308746D01*
X176114Y301996D01*
X169189D01*
Y294182D01*
X165754Y290746D01*
X165429Y290323D01*
X165000Y290408D01*
X164078Y290225D01*
X163924Y290122D01*
X163703Y290453D01*
X162922Y290975D01*
X162000Y291158D01*
X161078Y290975D01*
X160297Y290453D01*
X159983Y289982D01*
X159619Y290225D01*
X158697Y290408D01*
X158366Y290342D01*
X157979Y290660D01*
Y295227D01*
X157849Y295880D01*
X157681Y296132D01*
X157669Y296191D01*
X157277Y296777D01*
X147744Y306310D01*
X147158Y306702D01*
X146467Y306839D01*
X133930D01*
X133239Y306702D01*
X132653Y306310D01*
X125649Y299306D01*
X120368D01*
X119676Y299169D01*
X119090Y298777D01*
X109190Y288877D01*
X108588Y288982D01*
X108325Y289325D01*
X107108Y290542D01*
X107300Y291004D01*
X107311D01*
Y303996D01*
X99544D01*
X95894Y307646D01*
X95360Y308056D01*
X94737Y308314D01*
X94069Y308402D01*
X77820D01*
X77152Y308314D01*
X76530Y308056D01*
X75995Y307646D01*
X72738Y304388D01*
X61040D01*
X60598Y305214D01*
X59836Y306143D01*
X58907Y306906D01*
X57847Y307472D01*
X56696Y307821D01*
X55500Y307939D01*
X54304Y307821D01*
X53153Y307472D01*
X52093Y306906D01*
X51164Y306143D01*
X50402Y305214D01*
X49835Y304154D01*
X49486Y303003D01*
X49368Y301807D01*
X49486Y300611D01*
X49835Y299461D01*
X50402Y298400D01*
X51164Y297471D01*
X52093Y296709D01*
X53153Y296142D01*
X54304Y295793D01*
X55500Y295675D01*
X56696Y295793D01*
X57847Y296142D01*
X58907Y296709D01*
X59836Y297471D01*
X60598Y298400D01*
X61040Y299226D01*
X73807D01*
X74475Y299314D01*
X74832Y299462D01*
X75173Y299062D01*
X75147Y299020D01*
X74484Y297417D01*
X74078Y295730D01*
X73942Y294000D01*
X73982Y293500D01*
X73942Y293000D01*
Y276589D01*
X65242D01*
Y241773D01*
X64856Y241456D01*
X64808Y241465D01*
X61194D01*
X60503Y241328D01*
X59917Y240936D01*
X59621Y240640D01*
X59121Y240847D01*
Y252050D01*
X60535Y253465D01*
X61421Y254544D01*
X62079Y255775D01*
X62484Y257111D01*
X62621Y258500D01*
X62484Y259889D01*
X62079Y261225D01*
X61421Y262456D01*
X60535Y263535D01*
X59456Y264421D01*
X58225Y265079D01*
X56889Y265484D01*
X55500Y265621D01*
X54111Y265484D01*
X52775Y265079D01*
X51544Y264421D01*
X50465Y263535D01*
X46965Y260035D01*
X46079Y258956D01*
X45421Y257725D01*
X45016Y256389D01*
X44879Y255000D01*
Y247621D01*
X36224D01*
X36099Y248121D01*
X36956Y248579D01*
X37934Y249382D01*
X44024D01*
Y259618D01*
X40121D01*
Y261412D01*
X40417Y261484D01*
X40533Y261532D01*
X40655Y261564D01*
X41334Y261863D01*
X42020Y262147D01*
X42127Y262213D01*
X42243Y262264D01*
X42867Y262666D01*
X43500Y263054D01*
X43595Y263136D01*
X43701Y263204D01*
X44254Y263699D01*
X44819Y264181D01*
X44901Y264277D01*
X44995Y264361D01*
X45464Y264936D01*
X45946Y265500D01*
X46012Y265608D01*
X46091Y265705D01*
X46465Y266347D01*
X46852Y266980D01*
X46901Y267096D01*
X46964Y267205D01*
X47232Y267897D01*
X47517Y268583D01*
X47546Y268705D01*
X47591Y268823D01*
X47748Y269548D01*
X47922Y270270D01*
X47932Y270396D01*
X47958Y270519D01*
X48000Y271260D01*
X48058Y272000D01*
X48048Y272126D01*
X48055Y272251D01*
X47628Y291046D01*
X47922Y292270D01*
X48058Y294000D01*
X47922Y295730D01*
X47517Y297417D01*
X46852Y299020D01*
X45946Y300500D01*
X44819Y301819D01*
X43500Y302946D01*
X42020Y303853D01*
X40417Y304517D01*
X38730Y304922D01*
X37000Y305058D01*
X36667Y305031D01*
X36249Y305055D01*
X34523Y304879D01*
X32845Y304436D01*
X31257Y303736D01*
X30745Y303405D01*
X26505Y307646D01*
X25970Y308056D01*
X25348Y308314D01*
X24679Y308402D01*
X10604D01*
X9936Y308314D01*
X9313Y308056D01*
X8779Y307646D01*
X1854Y300721D01*
X1444Y300187D01*
X1186Y299564D01*
X1098Y298896D01*
Y219820D01*
X1186Y219152D01*
X1444Y218530D01*
X1854Y217995D01*
X6104Y213746D01*
Y211551D01*
X1205D01*
Y205449D01*
X5604D01*
Y141551D01*
X705D01*
Y141551D01*
X214Y141574D01*
Y309500D01*
X183025D01*
X183194Y309000D01*
D02*
G37*
G36*
X27095Y299755D02*
X26536Y298795D01*
X25909Y297177D01*
X25732Y296358D01*
X25201Y296268D01*
X24446Y297500D01*
X23319Y298819D01*
X22000Y299946D01*
X20520Y300852D01*
X18917Y301517D01*
X17230Y301922D01*
X15500Y302058D01*
X13770Y301922D01*
X12083Y301517D01*
X10480Y300852D01*
X9223Y300082D01*
X8911Y300478D01*
X11673Y303239D01*
X23610D01*
X27095Y299755D01*
D02*
G37*
G36*
X154567Y294378D02*
Y290690D01*
X154181Y290372D01*
X154000Y290408D01*
X153078Y290225D01*
X152297Y289703D01*
X151775Y288922D01*
X151592Y288000D01*
X151775Y287078D01*
X152297Y286297D01*
X153078Y285775D01*
X154000Y285592D01*
X154525Y285696D01*
X154794Y285294D01*
X157294Y282794D01*
X157847Y282424D01*
X158500Y282294D01*
X162000D01*
X162653Y282424D01*
X163206Y282794D01*
X163576Y283347D01*
X163706Y284000D01*
X163576Y284653D01*
X163206Y285206D01*
X162653Y285576D01*
X162000Y285706D01*
X160416D01*
X160264Y286206D01*
X160400Y286297D01*
X160715Y286767D01*
X161078Y286525D01*
X162000Y286341D01*
X162922Y286525D01*
X163076Y286628D01*
X163297Y286297D01*
X164078Y285775D01*
X165000Y285592D01*
X165922Y285775D01*
X166165Y285938D01*
X166412Y285749D01*
X167178Y285432D01*
X168000Y285323D01*
X168822Y285432D01*
X169588Y285749D01*
X170246Y286254D01*
X172997Y289004D01*
X179032D01*
Y295929D01*
X180453Y297350D01*
X180907Y297097D01*
X180578Y295730D01*
X180442Y294000D01*
X180501Y293250D01*
X180442Y292500D01*
Y276589D01*
X170742D01*
Y238734D01*
X212258D01*
Y276589D01*
X207121D01*
X206804Y276975D01*
X206908Y277500D01*
X206725Y278422D01*
X206243Y279144D01*
X206352Y279637D01*
X206360Y279658D01*
X206392Y279679D01*
X207000Y279598D01*
X217020D01*
Y278399D01*
X217108Y277731D01*
X217366Y277109D01*
X217776Y276574D01*
X218175Y276175D01*
X218175Y276175D01*
X223919Y270431D01*
Y245540D01*
X223093Y245098D01*
X222164Y244336D01*
X221402Y243407D01*
X220835Y242347D01*
X220486Y241196D01*
X220368Y240000D01*
X220486Y238804D01*
X220835Y237653D01*
X221402Y236593D01*
X222164Y235664D01*
X223093Y234901D01*
X224153Y234335D01*
X224157Y234334D01*
X224265Y234074D01*
X224662Y233556D01*
X224636Y233307D01*
X224544Y233036D01*
X224164Y232986D01*
X222919Y232471D01*
X221850Y231650D01*
X221623Y231355D01*
X221150Y231516D01*
Y232539D01*
X215150D01*
Y232846D01*
X208850D01*
Y232179D01*
X205503D01*
X205502Y232182D01*
X205110Y232769D01*
X204524Y233160D01*
X204023Y233260D01*
X203277Y233569D01*
X202455Y233677D01*
X171500D01*
X170678Y233569D01*
X169912Y233251D01*
X169254Y232746D01*
X169150Y232611D01*
X168650Y232780D01*
Y236539D01*
X168650D01*
Y236961D01*
X168650D01*
Y243653D01*
X168650D01*
Y243654D01*
X168650D01*
Y250346D01*
X162350D01*
Y245530D01*
X161064Y244243D01*
X161064Y244243D01*
X160160Y243340D01*
X160008Y243111D01*
X159508Y243263D01*
Y260398D01*
X160008Y260656D01*
X160578Y260275D01*
X161500Y260091D01*
X162422Y260275D01*
X163203Y260797D01*
X163725Y261578D01*
X163909Y262500D01*
X163725Y263422D01*
X163203Y264203D01*
X162422Y264725D01*
X161500Y264909D01*
X160578Y264725D01*
X160008Y264344D01*
X159508Y264602D01*
Y276589D01*
X158621D01*
X158304Y276975D01*
X158408Y277500D01*
X158225Y278422D01*
X157703Y279203D01*
X156922Y279725D01*
X156000Y279908D01*
X155078Y279725D01*
X154297Y279203D01*
X153775Y278422D01*
X153592Y277500D01*
X153696Y276975D01*
X153379Y276589D01*
X149558D01*
Y294000D01*
X149422Y295730D01*
X149016Y297417D01*
X148353Y299020D01*
X147446Y300500D01*
X146319Y301819D01*
X145553Y302473D01*
X145700Y303006D01*
X145905Y303041D01*
X154567Y294378D01*
D02*
G37*
G36*
X50323Y222745D02*
Y220600D01*
X50432Y219777D01*
X50749Y219011D01*
X51254Y218353D01*
X55545Y214062D01*
X56203Y213558D01*
X56969Y213240D01*
X57791Y213132D01*
X58230D01*
Y191220D01*
X58301Y190683D01*
X53929Y186311D01*
X47004D01*
Y184584D01*
X46504Y184336D01*
X45922Y184725D01*
X45000Y184908D01*
X44078Y184725D01*
X43297Y184203D01*
X42775Y183422D01*
X42627Y182677D01*
X42031D01*
Y185996D01*
X32189D01*
Y184564D01*
X31802Y184247D01*
X31589Y184290D01*
X30667Y184106D01*
X30085Y183717D01*
X29725Y184078D01*
X29725Y184078D01*
X29908Y185000D01*
X29725Y185922D01*
X29203Y186703D01*
X28422Y187225D01*
X27500Y187408D01*
X27321Y187373D01*
X26934Y187690D01*
Y188688D01*
X27434Y188840D01*
X27797Y188297D01*
X28578Y187775D01*
X29500Y187592D01*
X30422Y187775D01*
X31203Y188297D01*
X31725Y189078D01*
X31909Y190000D01*
X31725Y190922D01*
X31203Y191703D01*
X30422Y192225D01*
X29500Y192409D01*
X28578Y192225D01*
X27797Y191703D01*
X27434Y191160D01*
X26934Y191312D01*
Y199399D01*
X27411Y199979D01*
X28069Y201210D01*
X28474Y202546D01*
X28524Y203054D01*
X29039Y203183D01*
X29297Y202797D01*
X30078Y202275D01*
X31000Y202092D01*
X31922Y202275D01*
X32703Y202797D01*
X33225Y203578D01*
X33408Y204500D01*
X33225Y205422D01*
X32703Y206203D01*
X32567Y206294D01*
X32719Y206794D01*
X51794D01*
Y199500D01*
X51924Y198847D01*
X52294Y198294D01*
X52847Y197924D01*
X53500Y197794D01*
X54153Y197924D01*
X54706Y198294D01*
X55076Y198847D01*
X55206Y199500D01*
Y209495D01*
X55306Y210000D01*
X55169Y210691D01*
X54777Y211277D01*
X49806Y216248D01*
Y222174D01*
X49765Y222382D01*
X50195Y222781D01*
X50323Y222745D01*
D02*
G37*
G36*
X25879Y266970D02*
Y259618D01*
X21976D01*
Y249382D01*
X28066D01*
X29044Y248579D01*
X30275Y247921D01*
X30802Y247761D01*
Y247239D01*
X30275Y247079D01*
X29044Y246421D01*
X28066Y245618D01*
X21976D01*
Y235382D01*
X28066D01*
X29044Y234579D01*
X30275Y233921D01*
X31196Y233642D01*
X31275Y233422D01*
X31091Y232500D01*
X31275Y231578D01*
X31797Y230797D01*
X32578Y230275D01*
X33500Y230092D01*
X34422Y230275D01*
X35203Y230797D01*
X35725Y231578D01*
X35908Y232500D01*
X35811Y232993D01*
X36128Y233379D01*
X45000D01*
X45295Y232879D01*
X45188Y232344D01*
Y223180D01*
X45326Y222488D01*
X45717Y221902D01*
X46194Y221426D01*
Y215500D01*
X46331Y214809D01*
X46723Y214223D01*
X50278Y210668D01*
X50086Y210206D01*
X28611D01*
Y213159D01*
X28474Y214548D01*
X28069Y215884D01*
X27411Y217115D01*
X26525Y218194D01*
X18684Y226035D01*
Y261427D01*
X18917Y261484D01*
X20520Y262147D01*
X22000Y263054D01*
X23319Y264181D01*
X24446Y265500D01*
X25352Y266980D01*
X25389Y267067D01*
X25879Y266970D01*
D02*
G37*
G36*
X162350Y230346D02*
X162350Y229847D01*
X162350D01*
Y229846D01*
X162350D01*
Y223153D01*
X163294D01*
Y220199D01*
X162775Y219422D01*
X162592Y218500D01*
X162775Y217578D01*
X163297Y216797D01*
X164078Y216275D01*
X165000Y216091D01*
X165922Y216275D01*
X166703Y216797D01*
X167225Y217578D01*
X167409Y218500D01*
X167225Y219422D01*
X166706Y220199D01*
Y223153D01*
X168323D01*
Y217303D01*
X168391Y216787D01*
X168078Y216725D01*
X167297Y216203D01*
X166775Y215422D01*
X166592Y214500D01*
X166690Y214007D01*
X166669Y213983D01*
X166259Y213610D01*
X164981Y213484D01*
X164817Y213434D01*
X161183D01*
X161019Y213484D01*
X159629Y213621D01*
X159371D01*
X159371Y213621D01*
X158730Y213558D01*
X158394Y213928D01*
X158408Y214000D01*
X158225Y214922D01*
X157703Y215703D01*
X156922Y216225D01*
X156000Y216408D01*
X155580Y216325D01*
X155422Y216775D01*
X155852Y217062D01*
X156250Y217272D01*
X156648Y217062D01*
X157078Y216775D01*
X158000Y216592D01*
X158922Y216775D01*
X159703Y217297D01*
X160225Y218078D01*
X160408Y219000D01*
X160225Y219922D01*
X159703Y220703D01*
X158922Y221225D01*
X158000Y221409D01*
X157078Y221225D01*
X156907Y221111D01*
X156407Y221378D01*
Y226745D01*
X161150Y231487D01*
X162350D01*
Y230346D01*
D02*
G37*
G36*
X153694Y126500D02*
X153831Y125809D01*
X154223Y125223D01*
Y124987D01*
X153797Y124703D01*
X153275Y123922D01*
X153092Y123000D01*
X153275Y122078D01*
X153797Y121297D01*
X154578Y120775D01*
X155500Y120591D01*
X156044Y120700D01*
X156544Y120301D01*
Y117740D01*
X151433D01*
Y124735D01*
X151479Y124782D01*
X151849Y125335D01*
X151979Y125988D01*
Y130227D01*
X151849Y130880D01*
X151480Y131433D01*
X151219Y131694D01*
X151426Y132194D01*
X153694D01*
Y126500D01*
D02*
G37*
G36*
X189387Y137252D02*
Y131500D01*
X189524Y130809D01*
X189916Y130223D01*
X194165Y125974D01*
X193973Y125512D01*
X185196D01*
Y125803D01*
X185059Y126494D01*
X184667Y127080D01*
X183859Y127889D01*
X184050Y128350D01*
X187847D01*
Y134650D01*
X183045D01*
X182925Y134850D01*
X183208Y135350D01*
X187346D01*
Y137728D01*
X187356Y137736D01*
X188902D01*
X189387Y137252D01*
D02*
G37*
G36*
X164309Y129831D02*
X165000Y129694D01*
X167654D01*
Y128350D01*
X170846D01*
Y122350D01*
X172820D01*
X172987Y122101D01*
X178257Y116831D01*
X178092Y116000D01*
X178275Y115078D01*
X178797Y114297D01*
X179578Y113775D01*
X180500Y113592D01*
X181083Y113708D01*
X181583Y113327D01*
Y100118D01*
X180240D01*
Y89882D01*
X181583D01*
Y86996D01*
X179024D01*
Y83419D01*
X178524Y83152D01*
X178171Y83387D01*
X177250Y83571D01*
X177036Y83528D01*
X176650Y83845D01*
Y89346D01*
X175306D01*
Y106267D01*
X175386Y106347D01*
X176154D01*
X176845Y106485D01*
X176953Y106557D01*
X177075Y106581D01*
X177857Y107103D01*
X178379Y107885D01*
X178562Y108806D01*
X178379Y109728D01*
X177857Y110509D01*
X177075Y111031D01*
X176154Y111215D01*
X175232Y111031D01*
X174451Y110509D01*
X173998Y109833D01*
X173947Y109822D01*
X173528Y109543D01*
X170650Y112421D01*
Y117740D01*
X165330D01*
X162935Y120136D01*
Y123912D01*
X163321Y124229D01*
X163500Y124194D01*
X166266D01*
X166809Y123831D01*
X167500Y123694D01*
X168191Y123831D01*
X168777Y124223D01*
X169169Y124809D01*
X169306Y125500D01*
X169169Y126191D01*
X168777Y126777D01*
X168277Y127277D01*
X167691Y127669D01*
X167000Y127806D01*
X163634D01*
Y129681D01*
X164134Y129948D01*
X164309Y129831D01*
D02*
G37*
G36*
X145500Y129909D02*
X145873Y129536D01*
X146258Y129279D01*
X146318Y128717D01*
X146297Y128703D01*
X145775Y127922D01*
X145591Y127000D01*
X145775Y126078D01*
X146297Y125297D01*
X147078Y124775D01*
X148000Y124592D01*
X148021Y124574D01*
Y117740D01*
X145866D01*
Y112279D01*
X144749Y111161D01*
X144379Y110608D01*
X144249Y109955D01*
Y103508D01*
X144309Y103206D01*
X143923Y102706D01*
X136000D01*
X135347Y102576D01*
X134794Y102206D01*
X131863Y99276D01*
X131321Y99441D01*
X131225Y99922D01*
X130703Y100703D01*
X129922Y101225D01*
X129000Y101409D01*
X128593Y101327D01*
X128206Y101645D01*
Y113281D01*
X128706Y113433D01*
X128797Y113297D01*
X129578Y112775D01*
X130500Y112592D01*
X131422Y112775D01*
X132203Y113297D01*
X132725Y114078D01*
X132908Y115000D01*
X132725Y115922D01*
X132203Y116703D01*
X131422Y117225D01*
X130500Y117409D01*
X129578Y117225D01*
X128797Y116703D01*
X128706Y116567D01*
X128206Y116719D01*
Y120151D01*
X128620Y120565D01*
X130310D01*
X130627Y120179D01*
X130591Y120000D01*
X130775Y119078D01*
X131297Y118297D01*
X132078Y117775D01*
X133000Y117592D01*
X133922Y117775D01*
X134703Y118297D01*
X135225Y119078D01*
X135408Y120000D01*
X135225Y120922D01*
X134942Y121345D01*
X136099Y122501D01*
X138000D01*
X138691Y122638D01*
X139277Y123030D01*
X139669Y123616D01*
X139806Y124307D01*
X139669Y124998D01*
X139309Y125537D01*
X139364Y125761D01*
X139501Y126037D01*
X140421D01*
X141074Y126166D01*
X141627Y126536D01*
X145000Y129909D01*
X145500Y129909D01*
D02*
G37*
G36*
X93794Y135294D02*
X94347Y134924D01*
X95000Y134794D01*
X106729D01*
Y134079D01*
X106793Y133761D01*
X106368Y133335D01*
X106000Y133408D01*
X105078Y133225D01*
X104500Y132839D01*
X103922Y133225D01*
X103000Y133408D01*
X102078Y133225D01*
X101500Y132839D01*
X100922Y133225D01*
X100000Y133408D01*
X99078Y133225D01*
X98500Y132839D01*
X97922Y133225D01*
X97000Y133408D01*
X96078Y133225D01*
X95297Y132703D01*
X94858Y132047D01*
X94299Y131899D01*
X85899Y140299D01*
X86047Y140858D01*
X86703Y141297D01*
X86920Y141621D01*
X87417Y141670D01*
X93794Y135294D01*
D02*
G37*
G36*
X206359Y138404D02*
X206999Y137765D01*
X207552Y137395D01*
X208205Y137265D01*
X208822D01*
X210507Y135580D01*
X210316Y135118D01*
X207476D01*
Y135018D01*
X207150Y134653D01*
X200850D01*
Y127961D01*
X207150D01*
X207476Y127596D01*
Y124882D01*
X210403D01*
X210770Y124382D01*
X210694Y124000D01*
Y121531D01*
X206004D01*
Y116806D01*
X204013D01*
X203500Y116909D01*
X203306Y117067D01*
Y123849D01*
X203169Y124540D01*
X202777Y125126D01*
X201105Y126799D01*
X200519Y127190D01*
X199828Y127328D01*
X197920D01*
X192999Y132248D01*
Y133623D01*
X193499Y133925D01*
X194018Y133822D01*
X195982D01*
X196674Y133959D01*
X197260Y134351D01*
X199102Y136194D01*
X204000D01*
X204691Y136331D01*
X205277Y136723D01*
X205669Y137309D01*
X205806Y138000D01*
X205713Y138472D01*
X206184Y138667D01*
X206359Y138404D01*
D02*
G37*
G36*
X112581Y127520D02*
X113135Y127151D01*
X113387Y127101D01*
Y120500D01*
Y113464D01*
X112925Y113273D01*
X109309Y116888D01*
X109501Y117350D01*
X111846D01*
Y123650D01*
X105154D01*
Y121698D01*
X104692Y121506D01*
X97899Y128299D01*
X98047Y128858D01*
X98500Y129161D01*
X99078Y128775D01*
X100000Y128592D01*
X100922Y128775D01*
X101500Y129161D01*
X102078Y128775D01*
X103000Y128592D01*
X103922Y128775D01*
X104500Y129161D01*
X105078Y128775D01*
X106000Y128592D01*
X106922Y128775D01*
X107703Y129297D01*
X108225Y130078D01*
X108406Y130989D01*
X108619Y131135D01*
X108845Y131257D01*
X112581Y127520D01*
D02*
G37*
%LPC*%
G36*
X208500Y92409D02*
X207578Y92225D01*
X206797Y91703D01*
X206275Y90922D01*
X206091Y90000D01*
X206275Y89078D01*
X206797Y88297D01*
X207578Y87775D01*
X208500Y87591D01*
X209422Y87775D01*
X210203Y88297D01*
X210725Y89078D01*
X210909Y90000D01*
X210725Y90922D01*
X210203Y91703D01*
X209422Y92225D01*
X208500Y92409D01*
D02*
G37*
G36*
X90500Y115409D02*
X89578Y115225D01*
X88797Y114703D01*
X88275Y113922D01*
X88091Y113000D01*
X88275Y112078D01*
X88797Y111297D01*
X89578Y110775D01*
X90500Y110591D01*
X91422Y110775D01*
X92203Y111297D01*
X92725Y112078D01*
X92909Y113000D01*
X92725Y113922D01*
X92203Y114703D01*
X91422Y115225D01*
X90500Y115409D01*
D02*
G37*
G36*
X95000Y122908D02*
X94078Y122725D01*
X93297Y122203D01*
X92775Y121422D01*
X92592Y120500D01*
X92775Y119578D01*
X93297Y118797D01*
X94078Y118275D01*
X95000Y118091D01*
X95922Y118275D01*
X96703Y118797D01*
X97225Y119578D01*
X97408Y120500D01*
X97225Y121422D01*
X96703Y122203D01*
X95922Y122725D01*
X95000Y122908D01*
D02*
G37*
G36*
X124962Y90060D02*
X124040Y89877D01*
X123259Y89354D01*
X123095Y89109D01*
X122922Y89225D01*
X122000Y89408D01*
X121078Y89225D01*
X120500Y88839D01*
X119922Y89225D01*
X119000Y89408D01*
X118078Y89225D01*
X117500Y88839D01*
X116922Y89225D01*
X116000Y89408D01*
X115078Y89225D01*
X114297Y88703D01*
X113775Y87922D01*
X113755Y87821D01*
X113245D01*
X113225Y87922D01*
X112703Y88703D01*
X111922Y89225D01*
X111000Y89408D01*
X110078Y89225D01*
X109297Y88703D01*
X109250Y88633D01*
X108750D01*
X108703Y88703D01*
X107922Y89225D01*
X107000Y89408D01*
X106078Y89225D01*
X105297Y88703D01*
X104775Y87922D01*
X104592Y87000D01*
X104775Y86078D01*
X105297Y85297D01*
X106078Y84775D01*
X107000Y84592D01*
X107922Y84775D01*
X108703Y85297D01*
X108750Y85367D01*
X109250D01*
X109297Y85297D01*
X110078Y84775D01*
X111000Y84592D01*
X111922Y84775D01*
X112703Y85297D01*
X113225Y86078D01*
X113245Y86179D01*
X113755D01*
X113775Y86078D01*
X114297Y85297D01*
X115078Y84775D01*
X116000Y84592D01*
X116922Y84775D01*
X117500Y85161D01*
X118078Y84775D01*
X119000Y84592D01*
X119922Y84775D01*
X120500Y85161D01*
X121078Y84775D01*
X122000Y84592D01*
X122922Y84775D01*
X123703Y85297D01*
X123867Y85542D01*
X124040Y85426D01*
X124962Y85243D01*
X125232Y85296D01*
X125275Y85078D01*
X125797Y84297D01*
X126578Y83775D01*
X127500Y83592D01*
X128422Y83775D01*
X129203Y84297D01*
X129725Y85078D01*
X129909Y86000D01*
X129725Y86922D01*
X129203Y87703D01*
X128422Y88225D01*
X127500Y88408D01*
X127231Y88355D01*
X127187Y88573D01*
X126665Y89354D01*
X125884Y89877D01*
X124962Y90060D01*
D02*
G37*
G36*
X99500Y91909D02*
X98578Y91725D01*
X97797Y91203D01*
X97275Y90422D01*
X97092Y89500D01*
X97119Y89360D01*
X96669Y89060D01*
X96422Y89225D01*
X95500Y89408D01*
X94578Y89225D01*
X93797Y88703D01*
X93275Y87922D01*
X93091Y87000D01*
X93275Y86078D01*
X93797Y85297D01*
X94578Y84775D01*
X95500Y84592D01*
X96422Y84775D01*
X97203Y85297D01*
X97725Y86078D01*
X97909Y87000D01*
X97881Y87140D01*
X98267Y87398D01*
X98706Y87171D01*
X98629Y86783D01*
X98813Y85862D01*
X99335Y85080D01*
X100116Y84558D01*
X101038Y84375D01*
X101960Y84558D01*
X102741Y85080D01*
X103263Y85862D01*
X103446Y86783D01*
X103263Y87705D01*
X102741Y88486D01*
X101960Y89009D01*
X101816Y89037D01*
X101909Y89500D01*
X101725Y90422D01*
X101203Y91203D01*
X100422Y91725D01*
X99500Y91909D01*
D02*
G37*
G36*
X90227Y102135D02*
X89305Y101952D01*
X88524Y101430D01*
X88002Y100648D01*
X87818Y99727D01*
X88002Y98805D01*
X88524Y98024D01*
X89305Y97502D01*
X90227Y97318D01*
X91149Y97502D01*
X91930Y98024D01*
X92452Y98805D01*
X92635Y99727D01*
X92452Y100648D01*
X91930Y101430D01*
X91149Y101952D01*
X90227Y102135D01*
D02*
G37*
G36*
X107500Y99909D02*
X106578Y99725D01*
X105797Y99203D01*
X105275Y98422D01*
X105092Y97500D01*
X105275Y96578D01*
X105797Y95797D01*
X106578Y95275D01*
X107500Y95091D01*
X108422Y95275D01*
X109203Y95797D01*
X109725Y96578D01*
X109908Y97500D01*
X109725Y98422D01*
X109203Y99203D01*
X108422Y99725D01*
X107500Y99909D01*
D02*
G37*
G36*
X124625Y30169D02*
X123546Y30027D01*
X122540Y29611D01*
X121677Y28948D01*
X121014Y28085D01*
X120598Y27079D01*
X120456Y26000D01*
X120598Y24921D01*
X121014Y23915D01*
X121677Y23052D01*
X122540Y22389D01*
X123546Y21973D01*
X124625Y21831D01*
X125704Y21973D01*
X126710Y22389D01*
X127573Y23052D01*
X128236Y23915D01*
X128652Y24921D01*
X128795Y26000D01*
X128652Y27079D01*
X128236Y28085D01*
X127573Y28948D01*
X126710Y29611D01*
X125704Y30027D01*
X124625Y30169D01*
D02*
G37*
G36*
X111500Y55409D02*
X110578Y55225D01*
X109797Y54703D01*
X109275Y53922D01*
X109091Y53000D01*
X109275Y52078D01*
X109797Y51297D01*
X110578Y50775D01*
X111500Y50591D01*
X112422Y50775D01*
X113203Y51297D01*
X113725Y52078D01*
X113909Y53000D01*
X113725Y53922D01*
X113203Y54703D01*
X112422Y55225D01*
X111500Y55409D01*
D02*
G37*
G36*
X52000Y195408D02*
X51078Y195225D01*
X50297Y194703D01*
X49775Y193922D01*
X49591Y193000D01*
X49775Y192078D01*
X50297Y191297D01*
X51078Y190775D01*
X52000Y190592D01*
X52922Y190775D01*
X53703Y191297D01*
X54225Y192078D01*
X54409Y193000D01*
X54225Y193922D01*
X53703Y194703D01*
X52922Y195225D01*
X52000Y195408D01*
D02*
G37*
G36*
X29500Y227409D02*
X28578Y227225D01*
X27797Y226703D01*
X27275Y225922D01*
X27092Y225000D01*
X27275Y224078D01*
X27797Y223297D01*
X28578Y222775D01*
X29500Y222591D01*
X30422Y222775D01*
X31203Y223297D01*
X31725Y224078D01*
X31909Y225000D01*
X31725Y225922D01*
X31203Y226703D01*
X30422Y227225D01*
X29500Y227409D01*
D02*
G37*
G36*
X34500Y229409D02*
X33578Y229225D01*
X32797Y228703D01*
X32275Y227922D01*
X32092Y227000D01*
X32275Y226078D01*
X32797Y225297D01*
X33578Y224775D01*
X34500Y224591D01*
X35422Y224775D01*
X36203Y225297D01*
X36725Y226078D01*
X36909Y227000D01*
X36725Y227922D01*
X36203Y228703D01*
X35422Y229225D01*
X34500Y229409D01*
D02*
G37*
G36*
X132500Y112408D02*
X131578Y112225D01*
X130797Y111703D01*
X130275Y110922D01*
X130092Y110000D01*
X130275Y109078D01*
X130797Y108297D01*
X131578Y107775D01*
X131836Y107724D01*
X131836Y107721D01*
X131888Y107203D01*
X131234Y106766D01*
X130712Y105985D01*
X130528Y105063D01*
X130712Y104141D01*
X131234Y103360D01*
X132015Y102838D01*
X132937Y102655D01*
X133859Y102838D01*
X134640Y103360D01*
X135162Y104141D01*
X135345Y105063D01*
X135162Y105985D01*
X134640Y106766D01*
X133859Y107288D01*
X133601Y107339D01*
X133600Y107342D01*
X133549Y107860D01*
X134203Y108297D01*
X134725Y109078D01*
X134908Y110000D01*
X134725Y110922D01*
X134203Y111703D01*
X133422Y112225D01*
X132500Y112408D01*
D02*
G37*
%LPD*%
D10*
X28500Y89000D02*
D03*
X21807D02*
D03*
X9500Y78000D02*
D03*
X16193D02*
D03*
X17807Y29480D02*
D03*
X11114D02*
D03*
X17500Y23500D02*
D03*
X10807D02*
D03*
Y17500D02*
D03*
X17500D02*
D03*
X97500Y54000D02*
D03*
X104193D02*
D03*
X97500Y48000D02*
D03*
X104193D02*
D03*
X171000Y131500D02*
D03*
X177693D02*
D03*
X184500D02*
D03*
X191193D02*
D03*
X170846Y138500D02*
D03*
X177539D02*
D03*
X125000Y136500D02*
D03*
X118307D02*
D03*
X221500Y9500D02*
D03*
X214807D02*
D03*
X194000D02*
D03*
X200693D02*
D03*
X41000Y35500D02*
D03*
X34307D02*
D03*
X81500Y12429D02*
D03*
X88193D02*
D03*
X108500Y120500D02*
D03*
X115193D02*
D03*
X167500Y125500D02*
D03*
X174193D02*
D03*
X133000Y137500D02*
D03*
X139693D02*
D03*
X177500Y144500D02*
D03*
X170807D02*
D03*
X190693Y138500D02*
D03*
X184000D02*
D03*
X105000Y136500D02*
D03*
X111693D02*
D03*
X218500Y77500D02*
D03*
X211807D02*
D03*
X136500Y95000D02*
D03*
X143193D02*
D03*
X189500Y145000D02*
D03*
X196193D02*
D03*
D12*
X85500Y36929D02*
D03*
Y20000D02*
D03*
D16*
X192445Y119409D02*
D03*
D17*
X201500Y95000D02*
D03*
X192445D02*
D03*
X183390D02*
D03*
D22*
X212000Y229500D02*
D03*
Y222807D02*
D03*
X218000Y222500D02*
D03*
Y229193D02*
D03*
X165500Y247000D02*
D03*
Y240307D02*
D03*
Y226500D02*
D03*
Y233193D02*
D03*
X112500Y240307D02*
D03*
Y247000D02*
D03*
Y226500D02*
D03*
Y233193D02*
D03*
X42000Y92500D02*
D03*
Y99193D02*
D03*
X48000D02*
D03*
Y92500D02*
D03*
X83000Y73000D02*
D03*
Y79693D02*
D03*
X45500Y26000D02*
D03*
Y19307D02*
D03*
X89000Y79500D02*
D03*
Y72807D02*
D03*
X95000Y79500D02*
D03*
Y72807D02*
D03*
X172500Y160000D02*
D03*
Y153307D02*
D03*
X155500Y134000D02*
D03*
Y140693D02*
D03*
X147000Y85500D02*
D03*
Y78807D02*
D03*
X154000Y85500D02*
D03*
Y78807D02*
D03*
X173500Y86000D02*
D03*
Y79307D02*
D03*
X149500Y134000D02*
D03*
Y140693D02*
D03*
X150000Y92000D02*
D03*
Y98693D02*
D03*
X158000Y92000D02*
D03*
Y98693D02*
D03*
X166500Y92000D02*
D03*
Y98693D02*
D03*
X229000Y42500D02*
D03*
Y35807D02*
D03*
X58000Y92000D02*
D03*
Y98693D02*
D03*
X15500Y87500D02*
D03*
Y94193D02*
D03*
X4500Y31000D02*
D03*
Y37693D02*
D03*
X65500Y91500D02*
D03*
Y98193D02*
D03*
X74000Y49500D02*
D03*
Y42807D02*
D03*
X72500Y83500D02*
D03*
Y90193D02*
D03*
X64500Y10500D02*
D03*
Y3807D02*
D03*
X26500Y11500D02*
D03*
Y4807D02*
D03*
X96000Y27929D02*
D03*
Y21236D02*
D03*
X104500Y159000D02*
D03*
Y152307D02*
D03*
X136000Y80000D02*
D03*
Y73307D02*
D03*
X74000Y138000D02*
D03*
Y144693D02*
D03*
X59500Y137500D02*
D03*
Y144193D02*
D03*
X227000Y82000D02*
D03*
Y88693D02*
D03*
X138000Y131000D02*
D03*
Y124307D02*
D03*
X204000Y138000D02*
D03*
Y131307D02*
D03*
D23*
X150000Y106520D02*
D03*
Y114000D02*
D03*
X158250Y106520D02*
D03*
Y114000D02*
D03*
X166516Y106520D02*
D03*
Y114000D02*
D03*
X65500Y17500D02*
D03*
Y24980D02*
D03*
X25500Y18126D02*
D03*
Y25606D02*
D03*
D24*
X174110Y295500D02*
D03*
X156000D02*
D03*
X37110Y179500D02*
D03*
X19000D02*
D03*
X102390Y297500D02*
D03*
X120500D02*
D03*
X183945Y80500D02*
D03*
X202055D02*
D03*
X157390Y66000D02*
D03*
X175500D02*
D03*
X212610Y66500D02*
D03*
X194500D02*
D03*
D30*
X101000Y226500D02*
D03*
X96000D02*
D03*
X91000D02*
D03*
X81000D02*
D03*
X76000D02*
D03*
X71000D02*
D03*
X153750D02*
D03*
X148750D02*
D03*
X143750D02*
D03*
X133750D02*
D03*
X128750D02*
D03*
X123750D02*
D03*
X206500D02*
D03*
X201500D02*
D03*
X196500D02*
D03*
X186500D02*
D03*
X181500D02*
D03*
X176500D02*
D03*
D31*
X86000Y257661D02*
D03*
X138750D02*
D03*
X191500D02*
D03*
D32*
X217500Y218000D02*
Y222000D01*
Y218000D02*
X218000Y218500D01*
X217500Y222000D02*
X218000Y222500D01*
X83500Y1500D02*
X219318D01*
X224856Y7038D01*
X51610Y179500D02*
X53500Y181390D01*
X106767Y239422D02*
Y283900D01*
X120368Y297500D01*
X120500D01*
X54939Y233404D02*
X61194Y239659D01*
X64808D01*
X65743Y238725D02*
X106070D01*
X64808Y239659D02*
X65743Y238725D01*
X225500Y99000D02*
X229533Y103033D01*
Y148430D01*
X227500Y150463D02*
X229533Y148430D01*
X227500Y150463D02*
Y184000D01*
X23087Y500D02*
X24038Y1451D01*
X1000Y500D02*
X23087D01*
X1000D02*
Y60107D01*
X226400Y48100D02*
X229000Y45500D01*
X226000Y48500D02*
X226400Y48100D01*
X133500Y68500D02*
X152065D01*
X123646D02*
X133500D01*
X139711Y54610D02*
X141110D01*
X126077Y66069D02*
X128253D01*
X123646Y68500D02*
X126077Y66069D01*
X63500Y75000D02*
X65093D01*
X59500D02*
X63500D01*
Y73000D02*
X64000Y72500D01*
X63500Y73000D02*
Y75000D01*
X189500Y153024D02*
X196476Y160000D01*
X189500Y145000D02*
Y153024D01*
X189650Y139543D02*
X190693Y138500D01*
X187356Y139543D02*
X189650D01*
X149500Y134000D02*
X155500D01*
X115193Y110972D02*
X126500Y99665D01*
X62038Y451D02*
X66962D01*
X61296Y1194D02*
X62038Y451D01*
X66962D02*
X67659Y1149D01*
X59500Y75000D02*
X62128Y77628D01*
X158624Y147867D02*
X161828Y144664D01*
X158624Y147867D02*
Y154470D01*
X116881Y149668D02*
Y150768D01*
X114508Y147295D02*
X116881Y149668D01*
X115100Y150405D02*
Y154313D01*
X113172Y148477D02*
X115100Y150405D01*
X38695Y102549D02*
X44462D01*
X34128Y97982D02*
X38695Y102549D01*
X34128Y96018D02*
Y97982D01*
Y96018D02*
X35128Y95018D01*
Y89811D02*
Y95018D01*
X36500Y97000D02*
X37500D01*
X39693Y99193D01*
X186500Y142693D02*
X187356Y141837D01*
X184693Y144500D02*
X186500Y142693D01*
X188807Y145000D01*
X189500D01*
X225500Y99000D02*
X227000Y97500D01*
Y88693D02*
Y97500D01*
X192628Y137018D02*
X194018Y135628D01*
X195982D01*
X198354Y138000D01*
X204000D01*
X218500Y92000D02*
X225500Y99000D01*
X218500Y77500D02*
Y92000D01*
X115193Y110972D02*
Y120500D01*
X126628Y97018D02*
Y99537D01*
Y97018D02*
X130018Y93628D01*
X131982D01*
X133354Y95000D01*
X136500D01*
X122000Y87000D02*
X122500D01*
X115193Y128420D02*
X115500Y128727D01*
X115193Y120500D02*
Y128420D01*
X163500Y126000D02*
X167000D01*
X167500Y125500D01*
X161128Y119387D02*
X166516Y114000D01*
X161128Y119387D02*
Y126982D01*
X161828Y127682D02*
Y144664D01*
X161128Y126982D02*
X161828Y127682D01*
X155500Y126500D02*
Y134000D01*
X32015Y39317D02*
X34500D01*
X20693Y89000D02*
X21807D01*
X15500Y94193D02*
X20693Y89000D01*
X58000Y98693D02*
X58500Y98193D01*
X65500D01*
X4500Y46354D02*
X5000Y46854D01*
X4500Y37693D02*
Y46354D01*
X67659Y1319D02*
X67840Y1500D01*
X67659Y1149D02*
Y1319D01*
X83500Y1500D02*
Y3500D01*
X67840Y1500D02*
X83500D01*
X60808Y1069D02*
X60932Y1194D01*
X49192Y1069D02*
X60808D01*
X48761Y1500D02*
X49192Y1069D01*
X60932Y1194D02*
X61296D01*
X29010Y1500D02*
X30076D01*
X28962Y1451D02*
X29010Y1500D01*
X24038Y1451D02*
X28962D01*
X41924Y1500D02*
X48761D01*
X41808Y1384D02*
X41924Y1500D01*
X30192Y1384D02*
X41808D01*
X30076Y1500D02*
X30192Y1384D01*
X48000Y99193D02*
X48500Y98693D01*
X58000D01*
X173500Y86000D02*
Y107016D01*
X202455Y227455D02*
X203833Y228833D01*
X201500Y226500D02*
X202455Y227455D01*
X107736Y21236D02*
X112500Y26000D01*
X96000Y21236D02*
X107736D01*
X142384Y200970D02*
X143872Y199482D01*
Y197518D02*
Y199482D01*
X140475Y194121D02*
X143872Y197518D01*
X140475Y188864D02*
Y194121D01*
X142384Y200970D02*
Y203884D01*
X132500Y190000D02*
X133004Y189496D01*
X130128Y188564D02*
Y190982D01*
Y188564D02*
X130848Y187844D01*
Y184215D02*
Y187844D01*
X117443Y176854D02*
Y183840D01*
X115287Y184028D02*
X117256D01*
X113347D02*
X115287D01*
X177500Y144500D02*
X193000Y160000D01*
X126270Y206500D02*
X129493Y203276D01*
X125750Y207020D02*
X126270Y206500D01*
X129493Y198546D02*
Y203276D01*
X110000Y146000D02*
X113538D01*
X108000Y148477D02*
X113172D01*
X112434Y150258D02*
X113131Y150956D01*
X109573Y150258D02*
X112434D01*
X108982Y150849D02*
X109573Y150258D01*
X107018Y150849D02*
X108982D01*
X106488Y150319D02*
X107018Y150849D01*
X106488Y150319D02*
X106488D01*
X104500Y152307D02*
X106488Y150319D01*
X113538Y146000D02*
X114508Y146971D01*
X113131Y150956D02*
Y154500D01*
X114508Y146971D02*
Y147295D01*
X25842Y85841D02*
X31195D01*
X35128Y89774D01*
Y89811D01*
X65093Y75000D02*
X67134Y77041D01*
X62128Y78982D02*
X63795Y80649D01*
Y84118D01*
X67134Y77041D02*
X68332D01*
X62128Y77628D02*
Y78982D01*
X68332Y77041D02*
X68618Y77327D01*
X10000Y40000D02*
X10500Y39500D01*
X122908Y72713D02*
X123646D01*
X19872Y12274D02*
Y13482D01*
X19692Y13874D02*
X20856Y15038D01*
X19692Y13663D02*
Y13874D01*
Y13663D02*
X19872Y13482D01*
X19500Y20659D02*
Y21500D01*
Y20659D02*
X20158D01*
X20856Y19962D01*
Y15038D02*
Y19962D01*
X17500Y23500D02*
X19500Y21500D01*
X79392Y3628D02*
X88193Y12429D01*
X64679Y3628D02*
X79392D01*
X64500Y3807D02*
X64679Y3628D01*
X21357Y28659D02*
X32015Y39317D01*
X21357Y27212D02*
Y28659D01*
X17644Y23500D02*
X21357Y27212D01*
X229000Y42500D02*
Y45500D01*
X224856Y7038D02*
Y27144D01*
X2431Y61538D02*
Y76749D01*
X8185Y82503D01*
Y138500D01*
X47000Y98193D02*
X48000Y99193D01*
X183390Y95000D02*
Y125803D01*
X201128Y95372D02*
Y115982D01*
Y95372D02*
X201500Y95000D01*
Y116354D02*
Y123849D01*
X201128Y115982D02*
X201500Y116354D01*
X177693Y131500D02*
X183390Y125803D01*
X175034Y134659D02*
X180351D01*
X181049Y133962D01*
Y131500D02*
Y133962D01*
X135350Y124307D02*
X138000D01*
X133415Y122372D02*
X135350Y124307D01*
X127872Y122372D02*
X133415D01*
X117069Y150956D02*
Y154313D01*
X116881Y150768D02*
X117069Y150956D01*
X201500Y95000D02*
X209000D01*
X212500Y98500D01*
X213000Y99000D01*
X225500D01*
X212500Y124000D02*
X218500Y130000D01*
X212500Y116610D02*
Y124000D01*
X115100Y154313D02*
X115287Y154500D01*
X187356Y139543D02*
Y141837D01*
X190693Y138500D02*
X191193Y138000D01*
Y131500D02*
Y138000D01*
X177500Y144500D02*
X184693D01*
X17500Y23500D02*
X17644D01*
X36000Y9807D02*
X45500Y19307D01*
X36000Y6315D02*
Y9807D01*
X123646Y63500D02*
Y65931D01*
X119038D02*
X123646D01*
X117534Y67436D02*
X119038Y65931D01*
X117534Y67436D02*
Y69564D01*
X119038Y71069D01*
X121865D01*
Y71669D01*
X122908Y72713D01*
X123646D02*
Y73500D01*
Y76069D02*
Y78500D01*
Y76069D02*
X128253D01*
X129757Y74564D01*
Y72436D02*
Y74564D01*
X128253Y70932D02*
X129757Y72436D01*
X123646Y70932D02*
X128253D01*
X123646Y68500D02*
Y70932D01*
X57890Y48882D02*
Y52000D01*
X48000Y215500D02*
X53500Y210000D01*
X48000Y215500D02*
Y222174D01*
X46995Y223180D02*
X48000Y222174D01*
X46995Y223180D02*
Y232344D01*
X48055Y233404D01*
X54939D01*
X106070Y238725D02*
X106767Y239422D01*
X109341Y239477D02*
Y242966D01*
X99031Y232189D02*
X102052D01*
X109341Y239477D01*
X146467Y305033D02*
X156000Y295500D01*
X133930Y305033D02*
X146467D01*
X126397Y297500D02*
X133930Y305033D01*
X120500Y297500D02*
X126397D01*
X191193Y131500D02*
X197172Y125521D01*
X199828D01*
X201500Y123849D01*
X126500Y121000D02*
X127872Y122372D01*
X101500Y206500D02*
X102000Y207000D01*
Y216000D01*
X10000Y40000D02*
Y46854D01*
X15000Y41000D02*
Y46854D01*
X39693Y99193D02*
X42000D01*
X111350Y154500D02*
Y168913D01*
X111000Y169264D02*
X111350Y168913D01*
X130000Y194000D02*
X130124Y193876D01*
X120000Y189646D02*
Y190000D01*
Y189646D02*
X121193Y188453D01*
Y184028D02*
Y188453D01*
X220500Y43100D02*
X221100Y42500D01*
X229000D01*
X201500Y81055D02*
X202055Y80500D01*
X201500Y81055D02*
Y95000D01*
X46079Y48882D02*
X48047D01*
X140475Y188864D02*
X140878Y188461D01*
X130128Y190982D02*
X131000Y191854D01*
X130124Y192730D02*
X131000Y191854D01*
X140878Y184028D02*
Y188461D01*
X130124Y192730D02*
Y193876D01*
X142384Y203884D02*
X145000Y206500D01*
X133004Y184028D02*
Y189496D01*
X130848Y184215D02*
X131035Y184028D01*
X117443Y176854D02*
X117637D01*
X117256Y184028D02*
X117443Y183840D01*
X113319Y184000D02*
X113347Y184028D01*
X98333Y231491D02*
X99031Y232189D01*
X98333Y228833D02*
Y231491D01*
X96000Y226500D02*
X98333Y228833D01*
X151780Y232189D02*
X152284D01*
X151083Y231491D02*
X151780Y232189D01*
X151083Y228833D02*
Y231491D01*
X148750Y226500D02*
X151083Y228833D01*
X203833D02*
Y231491D01*
X158594Y154500D02*
X158624Y154470D01*
X166516Y114000D02*
X173500Y107016D01*
X171000Y131500D02*
X174337D01*
Y133962D01*
X175034Y134659D01*
X181049Y131500D02*
X184500D01*
X163609Y132891D02*
Y132990D01*
Y132891D02*
X165000Y131500D01*
X171000D01*
X193000Y160000D02*
X196476D01*
X91809Y17045D02*
X96000Y21236D01*
X91809Y15767D02*
Y17045D01*
X91111Y15069D02*
X91809Y15767D01*
X89833Y15069D02*
X91111D01*
X88193Y13429D02*
X89833Y15069D01*
X88193Y12429D02*
Y13429D01*
X85500Y36929D02*
X94500Y27929D01*
X96000D01*
X81500Y16000D02*
X85500Y20000D01*
X81500Y12429D02*
Y16000D01*
X10807Y17500D02*
Y23500D01*
X11114Y23807D02*
Y29480D01*
X10807Y23500D02*
X11114Y23807D01*
X54685Y6315D02*
X55000Y6000D01*
X36000Y6315D02*
X54685D01*
X34492Y4807D02*
X36000Y6315D01*
X26500Y4807D02*
X34492D01*
X55000Y6000D02*
X57193Y3807D01*
X64500D01*
X172500Y160000D02*
Y169264D01*
X117069Y154313D02*
X117256Y154500D01*
X104500Y159000D02*
Y168764D01*
X104000Y169264D02*
X104500Y168764D01*
X113131Y154500D02*
X113319D01*
X111693Y136500D02*
X118307D01*
X176154Y108153D02*
Y108806D01*
X173500Y107016D02*
X174638Y108153D01*
X176154D01*
X128253Y66069D02*
X131411Y62911D01*
X139711Y54610D01*
X202055Y80500D02*
Y80659D01*
X214466D02*
X217625Y77500D01*
X218500D01*
X202055Y80659D02*
X214466D01*
X15500Y94193D02*
X32304D01*
X34128Y96018D01*
X39500Y67484D02*
Y76653D01*
X40173Y77327D01*
X33382Y67484D02*
X39500D01*
X46854Y56500D02*
X57890D01*
X46079Y55725D02*
X46854Y56500D01*
X57890Y55500D02*
X58500D01*
X61500Y58500D02*
Y69000D01*
X61000Y69500D02*
X61500Y69000D01*
X57890Y52000D02*
Y55500D01*
Y56500D01*
X61000Y69500D02*
X64000Y72500D01*
X58000Y98693D02*
Y104500D01*
X65500Y98193D02*
Y112000D01*
X69000Y115500D01*
X58000Y104500D02*
X65500Y112000D01*
X48000Y99193D02*
Y104000D01*
X59500Y115500D01*
X69000D01*
X65500Y98193D02*
X83807D01*
X87000Y95000D01*
X13500Y39500D02*
X15000Y41000D01*
X210890Y115000D02*
X212500Y116610D01*
X204000Y115000D02*
X210890D01*
X203500Y114500D02*
X204000Y115000D01*
X183390Y90000D02*
Y95000D01*
Y81055D02*
Y90000D01*
X192628Y85372D02*
X195500Y82500D01*
X188518Y85372D02*
X192628D01*
X183945Y80799D02*
X188518Y85372D01*
X183390Y81055D02*
X183945Y80500D01*
Y80799D01*
X181000Y77555D02*
X183945Y80500D01*
Y77555D02*
Y80411D01*
X181555Y72055D02*
X183945D01*
X183890Y72000D02*
X183945Y72055D01*
X181000Y72500D02*
Y77555D01*
X183890Y72000D02*
X183945D01*
X57890Y52000D02*
X60646D01*
X61018Y51628D01*
X61992D01*
X62268Y51352D01*
X64492D01*
X46854Y56500D02*
X51000Y60646D01*
X58000Y66500D02*
X61000Y69500D01*
X58500Y55500D02*
X61500Y58500D01*
X57890Y56500D02*
Y59610D01*
X51200Y66500D02*
X53562Y68862D01*
X51000Y66500D02*
X51200D01*
X58000D01*
X48838Y64138D02*
X51000Y66300D01*
X51100Y66400D01*
X51200Y66500D01*
X51000Y60646D02*
Y66300D01*
Y66500D01*
X59500Y75000D01*
X51000Y66500D02*
X51100Y66400D01*
X57890Y59610D01*
X50016Y67484D02*
X51000Y66500D01*
X39500Y67484D02*
X50016D01*
X40173Y77327D02*
Y85317D01*
X40087Y85403D02*
X40173Y85317D01*
X35128Y89811D02*
X36689D01*
X40087Y86413D01*
Y85403D02*
Y86413D01*
X46079Y48882D02*
Y55725D01*
X34500Y39317D02*
X35197D01*
X41856Y45976D01*
X43849Y55725D02*
X46079D01*
X43239Y55115D02*
X43849Y55725D01*
X43239Y55115D02*
X43372Y54982D01*
X41508D02*
X43372D01*
X181500Y68500D02*
X181675Y68675D01*
X184325D01*
X183945Y69055D02*
Y72000D01*
X184325Y68675D02*
X184675D01*
X183945Y69055D02*
X184325Y68675D01*
X183945Y72000D02*
X184000Y72055D01*
X188445D02*
Y73055D01*
X188000Y71610D02*
X188445Y72055D01*
X183945Y77555D02*
X188445Y73055D01*
X186000Y69000D02*
X188500D01*
X181000Y72500D02*
X181500Y72000D01*
X181555Y72055D01*
X181500Y68500D02*
Y69000D01*
Y72000D01*
X184000Y72055D02*
X188445D01*
X184675Y68675D02*
X185000Y69000D01*
X185500Y69500D01*
X183945Y72000D02*
Y72055D01*
X185500Y69500D02*
X186000Y69000D01*
X183945Y72055D02*
Y77555D01*
X188500Y69000D02*
Y72000D01*
X188445Y72055D02*
X188500Y72000D01*
X40173Y77327D02*
X48638Y68862D01*
X109341Y242966D02*
X112375Y246000D01*
X112500D01*
Y247000D01*
X165500Y246125D02*
Y247000D01*
X162341Y242966D02*
X165500Y246125D01*
X152284Y232189D02*
X161438Y241343D01*
Y242062D01*
X162341Y242966D01*
Y242966D01*
X23000Y88682D02*
X25842Y85841D01*
X23000Y88682D02*
Y89000D01*
X21807D02*
X23000D01*
X47000Y98193D02*
Y100011D01*
X44462Y102549D02*
X47000Y100011D01*
X1000Y60107D02*
X2431Y61538D01*
X19872Y12274D02*
X26146Y6000D01*
X26500D01*
Y4807D02*
Y6000D01*
D33*
X166184Y206313D02*
X166370Y206500D01*
X159816Y206313D02*
X166184D01*
X166370Y206500D02*
X176500D01*
Y211129D01*
X159629Y206500D02*
X159816Y206313D01*
X159371Y206500D02*
X159629D01*
X159184Y206313D02*
X159371Y206500D01*
X145187Y206313D02*
X159184D01*
X226994Y48200D02*
Y61313D01*
X223681Y58000D02*
X226994Y61313D01*
X217500Y58000D02*
X223681D01*
X217500D02*
Y66560D01*
X226400Y48100D02*
X226894D01*
X220500D02*
X226400D01*
X226894D02*
X226994Y48200D01*
X58500Y160000D02*
X81200D01*
X38355D02*
X58500D01*
X172500Y169264D02*
X196476D01*
X207764D01*
X81200D02*
X104000D01*
X186500Y212495D02*
Y226500D01*
X196476Y202520D02*
Y226476D01*
X136000Y206500D02*
X145000D01*
X126270D02*
X136000D01*
X143750Y207750D02*
Y226500D01*
X133937Y208563D02*
Y226687D01*
Y208563D02*
X136000Y206500D01*
X128750Y226500D02*
X133750D01*
X125750D02*
X128750D01*
X143750Y207750D02*
X145000Y206500D01*
X133937Y226687D02*
X143563D01*
X133750Y226500D02*
X133937Y226687D01*
X143563D02*
X143750Y226500D01*
X71000Y212720D02*
Y226500D01*
X76000Y222000D02*
X91000Y207000D01*
Y226500D01*
X33000Y254500D02*
Y268500D01*
X37000Y272000D01*
X19813Y178542D02*
Y202259D01*
X20313Y202759D01*
X19813Y178542D02*
X20313Y178042D01*
X18500Y272000D02*
Y274000D01*
X14500Y270000D02*
X18500Y274000D01*
X20313Y177313D02*
Y178042D01*
X176687Y211316D02*
Y226313D01*
X176500Y211129D02*
X176687Y211316D01*
X85180Y206500D02*
X101500D01*
X21490Y203935D02*
Y213159D01*
X81200Y202520D02*
X85180Y206500D01*
X145000D02*
X145187Y206313D01*
X137925Y169264D02*
X172500D01*
X71000Y212720D02*
X81200Y202520D01*
X91000Y226500D02*
X92000D01*
X81000D02*
X91000D01*
X76000D02*
X81000D01*
X71000D02*
X76000D01*
X196476Y160000D02*
Y169264D01*
X81200Y160000D02*
Y169264D01*
X143750Y226500D02*
X145768D01*
X176500D02*
X181500D01*
X186500D01*
X196500D01*
X198518D01*
X104000Y169264D02*
X111000D01*
X112519D02*
X137925D01*
X20313Y178042D02*
X38355Y160000D01*
X176500Y226500D02*
X176687Y226313D01*
X13000Y293500D02*
X15500Y291000D01*
X11563Y265063D02*
X18500Y272000D01*
X11563Y223086D02*
X21490Y213159D01*
X11563Y223086D02*
Y265063D01*
X70236Y169264D02*
X81200D01*
X125750Y221620D02*
Y226500D01*
X101500Y206500D02*
X116130D01*
X117316Y205313D01*
X123684D01*
X124871Y206500D01*
X126270D01*
X128187Y209456D02*
Y219184D01*
X125750Y207020D02*
X128187Y209456D01*
X125750Y221620D02*
X128187Y219184D01*
X33000Y240500D02*
X52000D01*
Y255000D01*
X55500Y258500D01*
D34*
X77820Y305820D02*
X94069D01*
X73807Y301807D02*
X77820Y305820D01*
X52000Y301807D02*
X73807D01*
X226500Y235365D02*
Y240000D01*
X220000Y278000D02*
X226500Y271500D01*
X219601Y278399D02*
X220000Y278000D01*
X219000Y281500D02*
X219601Y280899D01*
X218320Y282179D02*
X219000Y281500D01*
X226500Y240000D02*
Y271500D01*
X219601Y278399D02*
Y280899D01*
X214000Y282179D02*
X218320D01*
X210500D02*
X214000D01*
X177000Y189000D02*
X214000D01*
X224500Y199500D01*
X207000Y282179D02*
X210500D01*
X123000Y287500D02*
X126000D01*
X120000D02*
X123000D01*
X117000D02*
X120000D01*
X114000D02*
X117000D01*
X224500Y218635D02*
X231415Y225550D01*
X224500Y199500D02*
Y218635D01*
X226500Y235365D02*
X231415Y230450D01*
Y225550D02*
Y230450D01*
X159500Y182500D02*
Y191491D01*
X175000Y191000D02*
X177000Y189000D01*
X175000Y191000D02*
Y195500D01*
X173500Y197000D02*
X175000Y195500D01*
X165983Y197000D02*
X173500D01*
X160474Y191491D02*
X165983Y197000D01*
X159500Y191491D02*
X160474D01*
X159500D02*
X159980Y191972D01*
X3680Y219820D02*
X8685Y214815D01*
X3680Y219820D02*
Y298896D01*
X10604Y305820D01*
X8685Y208500D02*
Y214815D01*
X10604Y305820D02*
X24679D01*
X36500Y294000D01*
X102390Y291610D02*
X106500Y287500D01*
X102390Y291610D02*
Y297500D01*
X175500Y66000D02*
X176000Y66500D01*
X189100Y9500D02*
X194000D01*
X180500Y18100D02*
X189100Y9500D01*
X190500Y18100D02*
X195500D01*
X185500D02*
X190500D01*
X215500Y33100D02*
X220500D01*
X215500Y23100D02*
X220500D01*
X170500Y18100D02*
Y23100D01*
X175500Y18100D02*
X180500D01*
X170500D02*
X175500D01*
X8185Y138500D02*
Y208000D01*
X215500Y48100D02*
X220500D01*
Y53100D01*
Y43100D02*
Y48100D01*
X215500Y43100D02*
X220500D01*
X210600D02*
X215500D01*
Y53100D02*
X220500D01*
X210500D02*
X215500D01*
X210500Y48100D02*
Y53100D01*
Y43100D02*
Y48100D01*
X185500D02*
Y53100D01*
Y43100D02*
Y48100D01*
X180500D02*
X185500D01*
X175500Y43100D02*
X180500D01*
X175500Y48100D02*
X180500D01*
X175500Y43100D02*
Y48100D01*
X170500D02*
Y53100D01*
Y43100D02*
Y48100D01*
Y38100D02*
Y43100D01*
X180500Y53100D02*
X185500D01*
X175500D02*
X180500D01*
X170500D02*
X175500D01*
X180500Y38100D02*
X185400D01*
X175500D02*
X180500D01*
X170500D02*
X175500D01*
X94069Y305820D02*
X102390Y297500D01*
X194500Y66500D02*
X195500Y65500D01*
D35*
X217693Y229500D02*
X218000Y229193D01*
X212000Y229500D02*
X217693D01*
X209000Y226500D02*
X212000Y229500D01*
X206500Y226500D02*
X209000D01*
X158500Y284000D02*
X162000D01*
X156273Y287058D02*
Y295227D01*
X156000Y286785D02*
X156273Y287058D01*
X156000Y295500D02*
X156273Y295227D01*
X156000Y286500D02*
Y286785D01*
Y286500D02*
X158500Y284000D01*
X220500Y174500D02*
X225529Y169471D01*
Y150611D02*
Y169471D01*
X224889Y149971D02*
X225529Y150611D01*
X169000Y181000D02*
X214000D01*
X170000Y192785D02*
Y193500D01*
X167442Y190227D02*
X170000Y192785D01*
X166831Y190227D02*
X167442D01*
X164500Y187896D02*
X166831Y190227D01*
X165500Y192500D02*
X166500D01*
X162531Y189531D02*
X165500Y192500D01*
X156626Y192111D02*
X162678Y198162D01*
X162531Y184028D02*
Y189531D01*
X150942Y192471D02*
X156633Y198162D01*
X156626Y192089D02*
Y192111D01*
Y192089D02*
X156931Y191784D01*
Y189901D02*
Y191784D01*
X154657Y184028D02*
Y190843D01*
X165000Y218500D02*
Y226000D01*
X164500Y184028D02*
Y187896D01*
X133500Y68500D02*
Y69489D01*
X132939Y70050D02*
X133500Y69489D01*
X132939Y70050D02*
Y75925D01*
X133579Y76565D01*
X136000D01*
Y80000D01*
X58500Y149511D02*
Y160000D01*
X56439Y147450D02*
X58500Y149511D01*
X56439Y141575D02*
Y147450D01*
Y141575D02*
X57079Y140935D01*
X59500D01*
Y137500D02*
Y140935D01*
X147079Y130743D02*
X149758D01*
X146439Y131382D02*
X147079Y130743D01*
X146439Y131382D02*
Y136618D01*
X147079Y137258D02*
X157743D01*
X144535Y131856D02*
Y136953D01*
X140421Y127743D02*
X144535Y131856D01*
X142950Y135050D02*
Y140921D01*
X142340Y134439D02*
X142950Y135050D01*
X138061Y134439D02*
X142340D01*
X126500Y99665D02*
X126628Y99537D01*
X126500Y99665D02*
Y121000D01*
X90152Y66040D02*
X92612Y68500D01*
X89496Y67624D02*
X92061Y70189D01*
X79960Y69209D02*
X83000Y72249D01*
Y73000D01*
X79865Y67624D02*
X89496D01*
X80521Y66040D02*
X90152D01*
X75727Y61246D02*
X80521Y66040D01*
X73450Y61209D02*
X79865Y67624D01*
X79209Y69209D02*
X79960D01*
X71865Y61865D02*
X79209Y69209D01*
X80579Y76257D02*
X85550D01*
X78322Y74000D02*
X80579Y76257D01*
X71806Y67484D02*
X78322Y74000D01*
X192500Y89110D02*
Y89500D01*
X154223Y78584D02*
X172777D01*
X154000Y78807D02*
X154223Y78584D01*
X192445Y95000D02*
Y116445D01*
Y119409D01*
X186500Y110500D02*
X192445Y116445D01*
X180500Y116000D02*
Y117000D01*
X174193Y123307D02*
X180500Y117000D01*
X174193Y123307D02*
Y125500D01*
X146704Y145363D02*
X146783Y145283D01*
X143500Y143500D02*
X146307Y140693D01*
X143500Y143500D02*
Y146785D01*
X149000Y148000D02*
Y154252D01*
X150720Y149495D02*
Y154500D01*
Y149495D02*
X151273Y148942D01*
Y145727D02*
X151500Y145500D01*
X153773Y144558D02*
Y146442D01*
X152993Y143779D02*
X153773Y144558D01*
X152993Y143200D02*
Y143779D01*
Y143200D02*
X155500Y140693D01*
X155358Y146514D02*
X158561Y143311D01*
X155358Y146514D02*
Y147098D01*
X156942Y147170D02*
Y147754D01*
Y147170D02*
X160145Y143967D01*
X160563Y148308D02*
X163510Y145361D01*
X160563Y148308D02*
Y154500D01*
X162531Y148580D02*
X164838Y146273D01*
X162531Y148580D02*
Y154500D01*
X152857Y147357D02*
X153773Y146442D01*
X154657Y147798D02*
X155358Y147098D01*
X156626Y148070D02*
X156942Y147754D01*
X143500Y146785D02*
X145120Y148405D01*
X146307Y140693D02*
X149500D01*
X142846Y149346D02*
Y154500D01*
X134500Y145500D02*
X134857Y145858D01*
X132620Y150095D02*
X133273Y149442D01*
Y147558D02*
Y149442D01*
X131215Y145500D02*
X133273Y147558D01*
X131000Y148500D02*
X131035D01*
X128781Y150496D02*
Y154214D01*
X128727Y150442D02*
X128781Y150496D01*
X128727Y146558D02*
Y150442D01*
Y146558D02*
X128781Y146504D01*
Y146281D02*
Y146504D01*
X128000Y145500D02*
X128781Y146281D01*
X125526Y147500D02*
X125777D01*
X121732Y146947D02*
Y148759D01*
X120048Y145263D02*
X121732Y146947D01*
X120148Y147921D02*
Y149415D01*
X119500Y147273D02*
X120148Y147921D01*
X118564Y148971D02*
Y150071D01*
X118451Y148857D02*
X118564Y148971D01*
X145120Y148405D02*
Y150288D01*
X146704Y145363D02*
Y154420D01*
X209529Y138971D02*
X217193Y131307D01*
X208205Y138971D02*
X209529D01*
X207565Y139611D02*
X208205Y138971D01*
X207565Y139611D02*
Y140113D01*
X202678Y145000D02*
X207565Y140113D01*
X196193Y145000D02*
X202678D01*
X211807Y77500D02*
X214868Y74439D01*
X221118D01*
X221758Y75079D01*
X217193Y131307D02*
X218500Y130000D01*
X204000Y131307D02*
X217193D01*
X124946Y96321D02*
X129321Y91946D01*
X124946Y96321D02*
Y98839D01*
X106393Y117393D02*
X124946Y98839D01*
X106393Y117393D02*
Y117393D01*
X132245Y91946D02*
X140727Y83464D01*
X129321Y91946D02*
X132245D01*
X131000Y96000D02*
X136000Y101000D01*
X140727Y80058D02*
Y83464D01*
X136000Y101000D02*
X146439D01*
X146939Y100500D02*
Y102524D01*
Y85561D02*
Y100500D01*
X146439Y101000D02*
X146939Y100500D01*
X115500Y128727D02*
X118773D01*
X113788D02*
X115500D01*
X106393Y117393D02*
X108500Y119500D01*
Y120500D01*
X38500Y138500D02*
X39500Y137500D01*
X59500D01*
X72227Y136227D02*
X74000Y138000D01*
X68058Y136227D02*
X72227D01*
X66785Y137500D02*
X68058Y136227D01*
X59500Y137500D02*
X66785D01*
X74000Y144693D02*
X75807Y146500D01*
X73500Y144193D02*
X74000Y144693D01*
X59500Y144193D02*
X73500D01*
X123646Y78500D02*
X125146Y80000D01*
X136000D01*
X146592Y78807D02*
X147000D01*
X141092Y73307D02*
X146592Y78807D01*
X136000Y73307D02*
X141092D01*
X39857Y52643D02*
X41273Y54058D01*
X39857Y52643D02*
X41227Y51273D01*
Y51058D02*
Y51273D01*
Y51058D02*
X42142Y50143D01*
X34307Y39124D02*
X34500Y39317D01*
X34307Y35500D02*
Y39124D01*
X50016Y38516D02*
Y48882D01*
X42065Y30565D02*
X50016Y38516D01*
X42065Y27579D02*
Y30565D01*
X55921Y41921D02*
Y48882D01*
X45500Y31500D02*
X55921Y41921D01*
X45500Y26000D02*
Y31500D01*
X41425Y26939D02*
X42065Y27579D01*
X36189Y26939D02*
X41425D01*
X36000Y27129D02*
X36189Y26939D01*
X36000Y24425D02*
Y27129D01*
X68618Y81118D02*
X71000Y83500D01*
X72500D01*
X69871Y90193D02*
X72500D01*
X66168Y86490D02*
X69871Y90193D01*
X64490Y86490D02*
X66168D01*
X63795Y85795D02*
X64490Y86490D01*
X58074Y88074D02*
X65500D01*
X58000Y88000D02*
X58074Y88074D01*
X65500D02*
Y91500D01*
X63795Y84118D02*
Y85795D01*
X67175Y80879D02*
X68379D01*
X66246Y79952D02*
X67175Y80879D01*
X66488Y51736D02*
X71764D01*
X74000Y49500D01*
X15500Y87500D02*
X20500Y82500D01*
X7857Y31901D02*
X8496Y32541D01*
X7857Y31000D02*
Y31901D01*
X4500Y31000D02*
X7857D01*
X53000Y88000D02*
X58000D01*
Y92000D01*
X158000D02*
X165500D01*
X166500D01*
X139000Y198500D02*
X140947D01*
X140447Y199000D02*
X141500Y197947D01*
X135773Y195058D02*
Y198273D01*
X136000Y198500D01*
X133416Y195318D02*
X133799Y195701D01*
X147067Y198000D02*
X147500D01*
X150589Y197874D02*
Y198162D01*
X149357Y196643D02*
X150589Y197874D01*
X149357Y187851D02*
Y196643D01*
X145500Y188202D02*
Y192000D01*
X147453Y187915D02*
Y188187D01*
X147773Y188507D01*
Y192942D01*
X146783Y193931D02*
X147773Y192942D01*
X146783Y193931D02*
Y197717D01*
X147067Y198000D01*
X137539Y194961D02*
X138467Y195889D01*
X139442D01*
X137539Y192701D02*
Y194961D01*
X133500Y196000D02*
X133799Y195701D01*
X135000Y193000D02*
Y194285D01*
X135773Y195058D01*
X133799Y195701D02*
Y195701D01*
X133416Y192344D02*
Y195318D01*
Y192344D02*
X134972Y190787D01*
Y184028D02*
Y190787D01*
X135000Y193000D02*
X136941Y191059D01*
X137539Y192701D02*
X138624Y191617D01*
X136941Y184028D02*
Y191059D01*
X138624Y184313D02*
Y191617D01*
X128442Y187871D02*
Y192254D01*
Y187871D02*
X128781Y187531D01*
Y184313D02*
Y187531D01*
X126813Y184313D02*
Y187531D01*
X126428Y187915D02*
X126813Y187531D01*
X126428Y187915D02*
Y187973D01*
X126857Y188402D01*
Y191598D01*
X124598Y193858D02*
X126857Y191598D01*
X124844Y184313D02*
Y187531D01*
X124777Y187598D02*
X124844Y187531D01*
X124777Y187598D02*
Y188562D01*
X125273Y189058D01*
Y190942D01*
X123942Y192273D02*
X125273Y190942D01*
X123000Y190000D02*
X123161Y189839D01*
X108435Y134079D02*
X113788Y128727D01*
X108435Y134079D02*
Y136500D01*
X105000D02*
X108435D01*
X20000Y41000D02*
Y46854D01*
X13500Y34500D02*
X20000Y41000D01*
X192445Y89055D02*
Y95000D01*
X147000Y78807D02*
Y80000D01*
X146342Y80658D02*
X147000Y80000D01*
X145273Y80658D02*
X146342D01*
X145273Y80058D02*
Y80658D01*
X143942Y78727D02*
X145273Y80058D01*
X142058Y78727D02*
X143942D01*
X140727Y80058D02*
X142058Y78727D01*
X91500Y146500D02*
Y147000D01*
X92870Y148370D01*
X95370D01*
X95000Y136500D02*
X105000D01*
X81200Y150300D02*
Y160000D01*
X95370Y148370D02*
X100207Y143534D01*
X112034D01*
X112227Y143727D01*
X120048Y145000D02*
Y145263D01*
X172777Y78584D02*
X173500Y79307D01*
X169000Y74807D02*
X172777Y78584D01*
X169000Y74000D02*
Y74807D01*
X192445Y89055D02*
X192500Y89110D01*
X196476Y160000D02*
X201476Y155000D01*
X220500D01*
X218500Y149971D02*
X224889D01*
X218500Y144000D02*
Y149971D01*
X62965Y53035D02*
X65189D01*
X66488Y51736D01*
X41273Y54748D02*
X41508Y54982D01*
X41273Y54058D02*
Y54748D01*
X37980Y53980D02*
X39000Y55000D01*
X38919Y57273D02*
X39646Y58000D01*
X38058Y57273D02*
X38919D01*
X49000Y53638D02*
Y53909D01*
X53953Y53362D02*
X54500Y53909D01*
X53953Y48882D02*
Y53362D01*
X31000Y89000D02*
X32000Y90000D01*
X28500Y89000D02*
X31000D01*
X64500Y78000D02*
X65500D01*
X66246Y78746D01*
Y79952D01*
X68379Y80879D02*
X68618Y81118D01*
Y81264D01*
X44110Y82890D02*
X49861Y77139D01*
X44110Y82890D02*
Y84118D01*
X28642Y57642D02*
X33382D01*
X29000Y57000D02*
Y57284D01*
X28642Y57642D02*
X29000Y57284D01*
X104193Y47193D02*
Y48000D01*
X68618Y79295D02*
X74295D01*
X53953Y84118D02*
Y87047D01*
X53000Y88000D02*
X53953Y87047D01*
X85565Y76243D02*
X89000Y72807D01*
X121116Y76030D02*
X123646Y73500D01*
X99773Y76030D02*
X121116D01*
X99560Y76243D02*
X99773Y76030D01*
X85565Y76243D02*
X99560D01*
X85550Y76257D02*
X85565Y76243D01*
X68618Y67484D02*
X71806D01*
X113693Y63500D02*
X123646D01*
X104193Y54000D02*
X113693Y63500D01*
X104193Y48000D02*
Y54000D01*
X22500Y13000D02*
X23439Y13939D01*
Y14118D01*
X24079Y14758D01*
X24258D01*
X25500Y16000D01*
Y18126D01*
X71000Y6000D02*
Y12000D01*
X65500Y17500D02*
X71000Y12000D01*
X34648Y20863D02*
X35980Y22195D01*
X34648Y19648D02*
Y20863D01*
X26500Y11500D02*
X34648Y19648D01*
X17807Y29480D02*
X29327Y41000D01*
X75727Y58476D02*
Y61246D01*
X73450Y60022D02*
Y61209D01*
X71069Y57642D02*
X73450Y60022D01*
X68618Y57642D02*
X71069D01*
X71865Y60678D02*
Y61865D01*
X70687Y59500D02*
X71865Y60678D01*
X68728Y59500D02*
X70687D01*
X75727Y58476D02*
X77169Y57034D01*
Y56169D02*
Y57034D01*
X76673Y55673D02*
X95827D01*
X68618Y53705D02*
X91795D01*
X76673Y55673D02*
X77169Y56169D01*
X158500Y36500D02*
X165045Y29955D01*
Y24325D02*
Y29955D01*
X161000Y20280D02*
X165045Y24325D01*
X161000Y16000D02*
Y20280D01*
X177539Y138500D02*
X184000D01*
X164838Y146273D02*
X166942D01*
X168273Y144500D02*
X170807D01*
X168273D02*
Y144942D01*
X166942Y146273D02*
X168273Y144942D01*
X7530Y51421D02*
X8977Y52868D01*
X7530Y46854D02*
Y51421D01*
X5000Y46854D02*
X7530D01*
Y61579D02*
X8977Y60132D01*
X7530Y61579D02*
Y66146D01*
X125000Y136500D02*
X126822D01*
X135579Y127743D01*
X140421D01*
X144535Y136953D02*
X146423Y138842D01*
X147649D01*
X149500Y140693D01*
X140573Y143298D02*
X142950Y140921D01*
X146439Y136618D02*
X147079Y137258D01*
X158000Y130182D02*
X160145Y132327D01*
X158000Y130182D02*
X158250Y129932D01*
Y123000D02*
Y129932D01*
X123000Y145000D02*
X123500D01*
X120335Y150031D02*
X121193Y150889D01*
X120335Y149602D02*
Y150031D01*
X120148Y149415D02*
X120335Y149602D01*
X119107Y147273D02*
X119500D01*
X117775Y145942D02*
X119107Y147273D01*
X118939Y150875D02*
Y154214D01*
X118751Y150687D02*
X118939Y150875D01*
X118751Y150259D02*
Y150687D01*
X118564Y150071D02*
X118751Y150259D01*
X118451Y148857D02*
X118451D01*
X116191Y146598D02*
X118451Y148857D01*
X116191Y143976D02*
Y146598D01*
X121920Y148946D02*
Y149375D01*
X121732Y148759D02*
X121920Y148946D01*
X121193Y150889D02*
Y154500D01*
X117775Y144058D02*
Y145942D01*
X132620Y150095D02*
Y150898D01*
X136941Y144726D02*
Y154500D01*
X135442Y143227D02*
X136941Y144726D01*
X134227Y143227D02*
X135442D01*
X134000Y143000D02*
X134227Y143227D01*
X134000Y137500D02*
Y143000D01*
X140573Y143298D02*
Y150288D01*
X123504Y146281D02*
Y148290D01*
X123504Y148290D01*
Y148442D01*
X125130Y150067D01*
X125526Y147500D02*
X126813Y148787D01*
Y154214D01*
X125130Y150067D02*
Y154500D01*
X134500Y150810D02*
X134687Y150996D01*
X134500Y150455D02*
Y150810D01*
Y150455D02*
X134857Y150098D01*
Y145858D02*
Y150098D01*
X123000Y145000D02*
X123727Y145727D01*
Y146058D01*
X123504Y146281D02*
X123727Y146058D01*
X117775Y144058D02*
X119107Y142727D01*
X120990D01*
X115942Y143727D02*
X116191Y143976D01*
X112227Y143727D02*
X115942D01*
X123161Y150617D02*
Y154500D01*
X121920Y149375D02*
X123161Y150617D01*
X134687Y150996D02*
Y154214D01*
X131000Y145500D02*
X131215D01*
X131000Y147930D02*
X131035Y147965D01*
X131000Y147930D02*
X131035Y147894D01*
Y147965D01*
Y148500D02*
Y154500D01*
X118773Y128727D02*
X126500Y121000D01*
X132718Y150996D02*
Y154214D01*
X132620Y150898D02*
X132718Y150996D01*
X214000Y181000D02*
X220500Y174500D01*
X144815Y150593D02*
Y154500D01*
Y150593D02*
X145120Y150288D01*
X163510Y132990D02*
Y145361D01*
X120990Y142727D02*
X120990Y142727D01*
X121193D01*
Y136500D02*
Y142727D01*
X21490Y203935D02*
X26054Y208500D01*
X20313Y202759D02*
X21490Y203935D01*
X26054Y208500D02*
X39000D01*
X150273Y125988D02*
Y130227D01*
X149727Y125442D02*
X150273Y125988D01*
X149727Y114273D02*
Y125442D01*
Y114273D02*
X150000Y114000D01*
X174110Y294610D02*
Y295500D01*
X51984Y48882D02*
Y50653D01*
X49000Y53638D02*
X51984Y50653D01*
X46079Y84118D02*
Y87671D01*
X45000Y88750D02*
X46079Y87671D01*
X48000Y84165D02*
Y92500D01*
X76442Y29840D02*
X85500Y20782D01*
Y20000D02*
Y20782D01*
X33382Y75358D02*
X36642D01*
X39000Y58500D02*
X39146D01*
X39646Y58000D01*
X149758Y130743D02*
X150273Y130227D01*
X160145Y132327D02*
Y143967D01*
X156626Y148070D02*
Y154500D01*
X151273Y145727D02*
Y148942D01*
X152857Y147357D02*
Y154331D01*
X154657Y147798D02*
Y154500D01*
X140878Y150593D02*
Y154500D01*
X140573Y150288D02*
X140878Y150593D01*
X125254Y195442D02*
X128442Y192254D01*
X116785Y190000D02*
X119058Y192273D01*
X118299Y188171D02*
X119126Y187344D01*
X107329Y188171D02*
X118299D01*
X119126Y184126D02*
Y187344D01*
X119058Y192273D02*
X123942D01*
X118627Y193858D02*
X124598D01*
X42000Y92500D02*
X48000D01*
Y84165D02*
X48047Y84118D01*
X95000Y79500D02*
X103354D01*
X104354Y78500D01*
X36000Y22195D02*
Y24425D01*
X35980Y22195D02*
X36000D01*
X17500Y12500D02*
Y17500D01*
X112000Y226000D02*
X112500Y226500D01*
X122910Y195442D02*
X125254D01*
X142846Y184028D02*
Y189846D01*
X149038Y187531D02*
X149357Y187851D01*
X149038Y184313D02*
Y187531D01*
X150942Y184249D02*
Y192471D01*
X139442Y195889D02*
X141500Y197947D01*
X156626Y189596D02*
X156931Y189901D01*
X156626Y184028D02*
Y189596D01*
X152689Y184028D02*
X154657D01*
X150720D02*
X150942Y184249D01*
X147069Y187531D02*
X147453Y187915D01*
X148752Y184028D02*
X149038Y184313D01*
X147069D02*
Y187531D01*
X146783Y184028D02*
X147069Y184313D01*
X145101D02*
Y187803D01*
X145500Y188202D01*
X144815Y184028D02*
X145101Y184313D01*
X138624D02*
X138909Y184028D01*
X108500Y190000D02*
X116785D01*
X126813Y184313D02*
X127098Y184028D01*
X128781Y184313D02*
X129067Y184028D01*
X108278Y190222D02*
X108500Y190000D01*
X124844Y184313D02*
X125130Y184028D01*
X123161D02*
Y189839D01*
X119126Y184126D02*
X119224Y184028D01*
X102234Y193266D02*
X107329Y188171D01*
X102234Y193266D02*
Y198162D01*
X101000Y226500D02*
X107693Y233193D01*
X112500D01*
X153750Y226500D02*
X160443Y233193D01*
X165500D01*
Y240307D01*
X118307Y136500D02*
X121193D01*
X131035Y147965D02*
Y148500D01*
Y147965D02*
X131500Y148430D01*
X131035Y148500D02*
X131430D01*
X112500Y233193D02*
Y240307D01*
X147000Y78807D02*
X154000D01*
X146939Y85561D02*
X147000Y85500D01*
X158000Y106270D02*
X158250Y106520D01*
X158000Y98693D02*
Y106270D01*
X166500Y98693D02*
Y106504D01*
X157000Y112750D02*
X158250Y114000D01*
X157000Y110171D02*
Y112750D01*
X154845Y110171D02*
X157000D01*
X154205Y109531D02*
X154845Y110171D01*
X145955Y109955D02*
X150000Y114000D01*
X145955Y103508D02*
Y109955D01*
Y103508D02*
X146939Y102524D01*
X157743Y137258D02*
X158561Y138075D01*
Y143311D01*
X152689Y154500D02*
X152857Y154331D01*
X148752Y154500D02*
X149000Y154252D01*
X146704Y154420D02*
X146783Y154500D01*
X138000Y131000D02*
Y134379D01*
X138061Y134439D01*
X134687Y154214D02*
X134972Y154500D01*
X132718Y154214D02*
X133004Y154500D01*
X131430Y148500D02*
X131500Y148430D01*
X128781Y154214D02*
X129067Y154500D01*
X126813Y154214D02*
X127098Y154500D01*
X25500Y25606D02*
X26681Y24425D01*
X36000D01*
X55000Y24110D02*
X61455Y17655D01*
Y14489D02*
Y17655D01*
Y14489D02*
X62095Y13849D01*
X64500D01*
Y10500D02*
Y13849D01*
X55000Y24110D02*
X55870Y24980D01*
X65500D01*
X59858Y42858D02*
Y48882D01*
X55000Y38000D02*
X59858Y42858D01*
X55000Y24110D02*
Y38000D01*
X29327Y41000D02*
X34500D01*
X9500Y72500D02*
Y78000D01*
Y66646D02*
Y72500D01*
X12000D01*
X12500Y73000D01*
X104354Y60479D02*
Y63500D01*
X100935Y57061D02*
X104354Y60479D01*
X100935Y51435D02*
Y57061D01*
X97500Y48000D02*
X100935Y51435D01*
X91795Y53705D02*
X97500Y48000D01*
X68618Y55673D02*
X76673D01*
X95827D02*
X97500Y54000D01*
X92612Y68500D02*
X104354D01*
X92061Y70189D02*
Y72807D01*
X95000D01*
X16193Y78000D02*
X22000D01*
X23693Y79693D01*
X103661Y72807D02*
X104354Y73500D01*
X95000Y72807D02*
X103661D01*
X89000Y79500D02*
X95000D01*
X32998Y71037D02*
X33382Y71421D01*
X20000Y66146D02*
X25905D01*
X8977Y60132D02*
X22132D01*
X5000Y66146D02*
X7530D01*
X16193Y67339D02*
Y78000D01*
X15000Y66146D02*
X16193Y67339D01*
X9500Y66646D02*
X10000Y66146D01*
X118939Y154214D02*
X119224Y154500D01*
X170807Y138539D02*
X170846Y138500D01*
X170807Y138539D02*
Y144500D01*
X164500Y154500D02*
X165692Y153307D01*
X172500D01*
X53500Y199500D02*
Y210000D01*
X39000Y208500D02*
X52000D01*
X53500Y210000D01*
X154000Y85500D02*
X154205Y85705D01*
Y109531D01*
X150000Y98693D02*
Y106520D01*
X155500Y123000D02*
X158250D01*
Y114000D02*
Y123000D01*
X136750Y16000D02*
X138000D01*
X75807Y146500D02*
X80500D01*
X82727Y144273D01*
X81200Y150300D02*
X95000Y136500D01*
X82727Y141058D02*
Y144273D01*
Y141058D02*
X106393Y117393D01*
X41273Y54748D02*
Y65711D01*
X65500Y91500D02*
X67450Y93450D01*
X74921D01*
X75561Y92811D01*
X78693Y79693D02*
X83000D01*
X75000Y77322D02*
X78322Y74000D01*
X75561Y80561D02*
Y92811D01*
X75000Y77322D02*
Y80000D01*
X75561Y80561D01*
X8496Y32541D02*
X11041D01*
X13000Y34500D01*
X13500D01*
X22132Y60132D02*
X31453Y69453D01*
X33382D01*
X25905Y66146D02*
X30797Y71037D01*
X32998D01*
X20500Y82500D02*
X28000D01*
X31205Y79295D01*
X33382D01*
X112000Y217000D02*
Y226000D01*
X120852Y197500D02*
X122910Y195442D01*
X120000Y197500D02*
X120852D01*
X114985D02*
X118627Y193858D01*
X113500Y197500D02*
X114985D01*
X206887Y77410D02*
X206977Y77500D01*
X211807D01*
X206887Y74733D02*
Y77410D01*
X190263Y74093D02*
X206248D01*
X183390Y90000D02*
X187000D01*
X183945Y80411D02*
Y80500D01*
X206248Y74093D02*
X206887Y74733D01*
X183945Y80411D02*
X190263Y74093D01*
X162000Y95500D02*
X165500Y92000D01*
X150000D02*
X152415Y89585D01*
X158000Y85713D02*
Y92000D01*
X151587Y88757D02*
X152415Y89585D01*
X157061Y84773D02*
X158000Y85713D01*
X150939Y88118D02*
X151579Y88757D01*
X151587D01*
X157061Y82882D02*
Y84773D01*
X156421Y82243D02*
X157061Y82882D01*
X151579Y82243D02*
X156421D01*
X150939Y82882D02*
Y88118D01*
Y82882D02*
X151579Y82243D01*
X144243D02*
X151579D01*
X143193Y81193D02*
X144243Y82243D01*
X143193Y81193D02*
Y95000D01*
X143000Y81000D02*
X143193Y81193D01*
X39857Y52472D02*
Y52643D01*
X38205Y50819D02*
X39857Y52472D01*
X36396Y53491D02*
Y55611D01*
X38058Y57273D01*
X37980Y52835D02*
Y53980D01*
X33382Y51736D02*
X34641D01*
X36396Y53491D01*
X36236Y48882D02*
Y51091D01*
X37980Y52835D01*
X74000Y42807D02*
Y43715D01*
X64591Y51253D02*
X64652D01*
X65579Y50326D01*
Y50265D02*
Y50326D01*
Y50265D02*
X65764Y50080D01*
X62000Y54000D02*
X62965Y53035D01*
X64492Y51352D02*
X64591Y51253D01*
X65764Y48979D02*
Y50080D01*
Y48979D02*
X66558Y49773D01*
X69442D02*
X70773Y48442D01*
Y46942D02*
Y48442D01*
Y46942D02*
X74000Y43715D01*
X66558Y49773D02*
X69442D01*
X8977Y52868D02*
X29223D01*
X32317Y49773D01*
X33105D01*
X37092Y46510D02*
X38205Y47622D01*
Y50819D01*
X35780Y46510D02*
X37092D01*
X34652Y47638D02*
X35780Y46510D01*
X34652Y47638D02*
Y48226D01*
X33105Y49773D02*
X34652Y48226D01*
X100000Y44000D02*
X101000D01*
X104193Y47193D01*
X79202Y36929D02*
X85500D01*
X78500Y36227D02*
X79202Y36929D01*
X63870Y43870D02*
X63995Y43995D01*
Y48882D01*
X63870Y43870D02*
X68727Y39014D01*
Y38058D02*
Y39014D01*
X61827Y42718D02*
X74704Y29840D01*
X68727Y38058D02*
X70558Y36227D01*
X78500D01*
X61827Y42718D02*
Y48882D01*
X74704Y29840D02*
X76442D01*
X50721Y78000D02*
X56000D01*
X49861Y77139D02*
X50721Y78000D01*
X39500Y67484D02*
X41273Y65711D01*
X41000Y35500D02*
X44110Y38610D01*
X41856Y45976D02*
X42142Y46262D01*
Y50143D01*
X40373Y46873D02*
Y48882D01*
X34500Y41000D02*
X40373Y46873D01*
X43500Y52500D02*
X44110Y51890D01*
Y38610D02*
Y51890D01*
X108278Y190222D02*
Y198162D01*
X221758Y75079D02*
Y76758D01*
X227000Y82000D01*
D36*
X85000Y256661D02*
Y293000D01*
X191500Y257661D02*
Y292500D01*
Y254661D02*
Y257661D01*
X36500Y294000D02*
X37000Y272000D01*
X15500D02*
Y291000D01*
X138500Y257911D02*
X138750Y257661D01*
X138500Y257911D02*
Y294000D01*
D38*
X210500Y53100D02*
X212610Y55210D01*
Y66500D01*
D45*
X40000Y111000D02*
D03*
X221000Y302000D02*
D03*
X9500Y8500D02*
D03*
D46*
X37000Y272000D02*
D03*
Y294000D02*
D03*
X15500D02*
D03*
Y272000D02*
D03*
X85000Y294000D02*
D03*
X138500D02*
D03*
X191500D02*
D03*
D47*
X226500Y283307D02*
D03*
Y240000D02*
D03*
X55500Y301807D02*
D03*
Y258500D02*
D03*
D48*
X112500Y6000D02*
D03*
X124625D02*
D03*
X136750D02*
D03*
X148875D02*
D03*
X161000D02*
D03*
D49*
X112500Y16000D02*
D03*
Y26000D02*
D03*
X124625Y16000D02*
D03*
Y26000D02*
D03*
X136750Y16000D02*
D03*
Y26000D02*
D03*
X148875Y16000D02*
D03*
Y26000D02*
D03*
X161000Y16000D02*
D03*
Y26000D02*
D03*
D50*
X225500Y228000D02*
D03*
D51*
X220000Y278000D02*
D03*
X219000Y281500D02*
D03*
X214000Y282179D02*
D03*
X217500Y218000D02*
D03*
X45000Y182500D02*
D03*
X162000Y284000D02*
D03*
X158697Y288000D02*
D03*
X154000D02*
D03*
X162000Y288750D02*
D03*
X165000Y288000D02*
D03*
X60500Y228110D02*
D03*
X63500Y236500D02*
D03*
Y233000D02*
D03*
X207000Y282179D02*
D03*
X210500D02*
D03*
X126000Y287500D02*
D03*
X123000D02*
D03*
X120000D02*
D03*
X117000D02*
D03*
X114000D02*
D03*
X166500Y192500D02*
D03*
X162678Y198162D02*
D03*
X170000Y193500D02*
D03*
X156000Y214000D02*
D03*
X158000Y219000D02*
D03*
X156633Y198162D02*
D03*
X154657Y190843D02*
D03*
X169000Y214500D02*
D03*
X165000Y218500D02*
D03*
X226000Y48500D02*
D03*
X231500Y58500D02*
D03*
Y61500D02*
D03*
X229000Y60000D02*
D03*
Y57000D02*
D03*
Y48000D02*
D03*
X231500Y49500D02*
D03*
X229000Y51000D02*
D03*
Y54000D02*
D03*
X231500Y52500D02*
D03*
Y55500D02*
D03*
X148000Y127000D02*
D03*
X79018Y71482D02*
D03*
X64000Y72500D02*
D03*
X69000Y115500D02*
D03*
X177250Y81162D02*
D03*
X189466Y78104D02*
D03*
X192500Y89500D02*
D03*
X158250Y80857D02*
D03*
X145682Y74682D02*
D03*
X186500Y110500D02*
D03*
X180500Y116000D02*
D03*
X146783Y145283D02*
D03*
X149000Y148000D02*
D03*
X151500Y145500D02*
D03*
X142846Y149346D02*
D03*
X134500Y145500D02*
D03*
X131000Y148500D02*
D03*
X125777Y147500D02*
D03*
X116000Y87000D02*
D03*
X107000D02*
D03*
X111000D02*
D03*
X110000Y71000D02*
D03*
X36500Y97000D02*
D03*
X131000Y96000D02*
D03*
X133500Y87000D02*
D03*
X129000Y99000D02*
D03*
X122500Y97500D02*
D03*
X132937Y105063D02*
D03*
X131500Y89476D02*
D03*
X127500Y86000D02*
D03*
X124962Y87651D02*
D03*
X122000Y87000D02*
D03*
X119000D02*
D03*
X118500Y131000D02*
D03*
X163500Y126000D02*
D03*
X154500Y219000D02*
D03*
X204500Y277500D02*
D03*
X139000Y198500D02*
D03*
X136000D02*
D03*
X147500Y198000D02*
D03*
X150589Y198162D02*
D03*
X145500Y192000D02*
D03*
X133500Y196000D02*
D03*
X132500Y190000D02*
D03*
X123000D02*
D03*
X162000Y218000D02*
D03*
X161500Y262500D02*
D03*
X113000Y259000D02*
D03*
X116000Y267500D02*
D03*
X156000Y277500D02*
D03*
X111000Y265500D02*
D03*
X129493Y198546D02*
D03*
X29500Y48000D02*
D03*
X91500Y146500D02*
D03*
X101000D02*
D03*
X103962Y145807D02*
D03*
X110000Y146000D02*
D03*
X108000Y148477D02*
D03*
X120048Y145000D02*
D03*
X169000Y74000D02*
D03*
X187500Y93500D02*
D03*
X39000Y55000D02*
D03*
X49000Y53909D02*
D03*
X54500D02*
D03*
X32000Y90000D02*
D03*
X64500Y78000D02*
D03*
X98500Y190500D02*
D03*
X10500Y39500D02*
D03*
X29000Y57000D02*
D03*
X22500Y13000D02*
D03*
X71000Y6000D02*
D03*
X83500Y3500D02*
D03*
X78000Y59500D02*
D03*
X224856Y27144D02*
D03*
X177000Y161000D02*
D03*
X200000Y185000D02*
D03*
X166000Y144000D02*
D03*
X120500Y94500D02*
D03*
X95000Y120500D02*
D03*
X107500Y97500D02*
D03*
X27500Y185000D02*
D03*
X29500Y190000D02*
D03*
X121500Y131000D02*
D03*
X124500D02*
D03*
X129872Y126372D02*
D03*
X132432Y124743D02*
D03*
X133000Y120000D02*
D03*
X130500Y115000D02*
D03*
X127500Y131000D02*
D03*
X123500Y145000D02*
D03*
X128000Y145500D02*
D03*
X131000D02*
D03*
X33500Y232500D02*
D03*
X34500Y227000D02*
D03*
X31589Y181881D02*
D03*
X31000Y204500D02*
D03*
X100500Y159500D02*
D03*
X97000Y131000D02*
D03*
X103000D02*
D03*
X100000D02*
D03*
X99500Y89500D02*
D03*
X95500Y87000D02*
D03*
X101038Y86783D02*
D03*
X158500Y42500D02*
D03*
X154000D02*
D03*
X85000Y143000D02*
D03*
X55500Y104000D02*
D03*
X53000Y88000D02*
D03*
X213500Y4500D02*
D03*
X167000Y22500D02*
D03*
X90500Y113000D02*
D03*
X90227Y99727D02*
D03*
X87000Y115000D02*
D03*
Y95000D02*
D03*
X166500Y140500D02*
D03*
X200500Y142500D02*
D03*
X195000Y138000D02*
D03*
X197000Y108000D02*
D03*
X173000Y119000D02*
D03*
X63000Y230000D02*
D03*
X126500Y121000D02*
D03*
X155500Y126500D02*
D03*
X106500Y287500D02*
D03*
X194500Y178500D02*
D03*
X168000Y288500D02*
D03*
X102000Y216000D02*
D03*
X45000Y88750D02*
D03*
X75500Y27567D02*
D03*
X36642Y75358D02*
D03*
X81500Y28000D02*
D03*
X39000Y58500D02*
D03*
X169000Y181000D02*
D03*
X190000Y178500D02*
D03*
X184900Y178400D02*
D03*
X130000Y194000D02*
D03*
X120000Y190000D02*
D03*
X71500Y102500D02*
D03*
X73000Y105500D02*
D03*
X29500Y225000D02*
D03*
X69000Y138500D02*
D03*
X17500Y12500D02*
D03*
X36000Y15000D02*
D03*
X142846Y189846D02*
D03*
X102234Y198162D02*
D03*
X106000Y131000D02*
D03*
X12500Y73000D02*
D03*
X23693Y79693D02*
D03*
X176154Y108806D02*
D03*
X155500Y123000D02*
D03*
X132500Y110000D02*
D03*
X179900Y178600D02*
D03*
X79000Y141500D02*
D03*
X80500Y146500D02*
D03*
X78693Y79693D02*
D03*
X13500Y39500D02*
D03*
X13000Y34500D02*
D03*
X28000Y82500D02*
D03*
X29500Y73000D02*
D03*
X12000Y82000D02*
D03*
X112000Y217000D02*
D03*
X118000Y218500D02*
D03*
X118500Y215500D02*
D03*
X120500Y213000D02*
D03*
X120000Y197500D02*
D03*
X113500D02*
D03*
X203500Y114500D02*
D03*
X187000Y90000D02*
D03*
X195500Y82500D02*
D03*
X192500Y83000D02*
D03*
X185000Y72055D02*
D03*
X228000Y69000D02*
D03*
X173500Y74000D02*
D03*
X162000Y95500D02*
D03*
X143000Y81000D02*
D03*
X144500Y66000D02*
D03*
X111500Y53000D02*
D03*
X132991Y161500D02*
D03*
X153464D02*
D03*
X112519Y166618D02*
D03*
Y161500D02*
D03*
X117637D02*
D03*
X122755D02*
D03*
X127873D02*
D03*
X138109D02*
D03*
X143228D02*
D03*
X148346D02*
D03*
X158582D02*
D03*
X163700D02*
D03*
X117637Y166618D02*
D03*
X122755D02*
D03*
X127873D02*
D03*
X132991D02*
D03*
X138109D02*
D03*
X143228D02*
D03*
X148346D02*
D03*
X153464D02*
D03*
X158582D02*
D03*
X163700D02*
D03*
X112519Y171736D02*
D03*
X117637D02*
D03*
X122755D02*
D03*
X127873D02*
D03*
X132991D02*
D03*
X138109D02*
D03*
X143228D02*
D03*
X148346D02*
D03*
X153464D02*
D03*
X158582D02*
D03*
X163700D02*
D03*
X112519Y176854D02*
D03*
X117637D02*
D03*
X122755D02*
D03*
X127873D02*
D03*
X132991D02*
D03*
X138109D02*
D03*
X143228D02*
D03*
X148346D02*
D03*
X153464D02*
D03*
X158582D02*
D03*
X163700D02*
D03*
X52000Y193000D02*
D03*
X62000Y54000D02*
D03*
X208500Y90000D02*
D03*
X33000Y46000D02*
D03*
X100000Y44000D02*
D03*
X72500Y38500D02*
D03*
X56000Y78000D02*
D03*
X43500Y52500D02*
D03*
X108278Y198162D02*
D03*
X181500Y69000D02*
D03*
X185000D02*
D03*
X188500Y72055D02*
D03*
Y69000D02*
D03*
X181500Y72055D02*
D03*
D52*
X58287Y59413D02*
D03*
Y64138D02*
D03*
Y68862D02*
D03*
Y73587D02*
D03*
X53562Y59413D02*
D03*
Y64138D02*
D03*
Y68862D02*
D03*
Y73587D02*
D03*
X48838Y59413D02*
D03*
Y64138D02*
D03*
Y68862D02*
D03*
Y73587D02*
D03*
X44113Y59413D02*
D03*
Y64138D02*
D03*
Y68862D02*
D03*
Y73587D02*
D03*
D53*
X219628Y290179D02*
X226500Y283307D01*
X212872Y290179D02*
X219628D01*
X196641Y306411D02*
X212872Y290179D01*
X195589Y306411D02*
X196641D01*
X195500Y306500D02*
X195589Y306411D01*
X185110Y306500D02*
X195500D01*
X212000Y218044D02*
Y222807D01*
X201500Y207544D02*
X212000Y218044D01*
X196476Y202520D02*
X201500Y207544D01*
Y226500D01*
X174110Y295500D02*
X185110Y306500D01*
X158500Y37069D02*
X169468D01*
X158500Y36500D02*
Y37069D01*
X152791Y30791D02*
X154938Y32937D01*
X143000Y16000D02*
X148875D01*
X138000D02*
X143000D01*
X151892Y30791D02*
X152791D01*
X151162Y31521D02*
X151892Y30791D01*
X146588Y31521D02*
X151162D01*
X143354Y28287D02*
X146588Y31521D01*
X143354Y16354D02*
Y28287D01*
X143000Y16000D02*
X143354Y16354D01*
X154938Y16000D02*
X161000D01*
X148875D02*
X154938D01*
Y32937D02*
X158500Y36500D01*
X154938Y16000D02*
Y32937D01*
X124625Y16000D02*
X136750D01*
X112500D02*
X124625D01*
X43447Y178750D02*
X50861D01*
X51610Y179500D01*
X42697D02*
X43447Y178750D01*
X37110Y179500D02*
X42697D01*
X63500Y230984D02*
Y236500D01*
X62526Y230010D02*
X63500Y230984D01*
X62526Y229526D02*
Y230010D01*
X61110Y228110D02*
X62526Y229526D01*
X53500Y228110D02*
X61110D01*
X108713Y182580D02*
X110160Y184028D01*
X108713Y181390D02*
Y182580D01*
X53500Y181390D02*
X108713D01*
X59879Y216309D02*
X61407Y214780D01*
Y191220D02*
Y214780D01*
X53500Y220600D02*
X57791Y216309D01*
X59879D01*
X61407Y191220D02*
X61500Y191127D01*
Y189390D02*
Y191127D01*
X53500Y181390D02*
X61500Y189390D01*
X171500Y217303D02*
Y230500D01*
Y217303D02*
X172750Y216053D01*
X171500Y230500D02*
X202455D01*
X172750Y212947D02*
Y216053D01*
X202455Y227455D02*
Y230500D01*
X168000Y288500D02*
X174110Y294610D01*
X53500Y220600D02*
Y228110D01*
X38500Y138500D02*
Y159855D01*
X8185Y208000D02*
X8685Y208500D01*
D54*
X53500Y228110D02*
D03*
Y210000D02*
D03*
X55000Y24110D02*
D03*
Y6000D02*
D03*
X36000Y24425D02*
D03*
Y6315D02*
D03*
X212500Y116610D02*
D03*
Y98500D02*
D03*
X227500Y202110D02*
D03*
Y184000D02*
D03*
X53500Y181390D02*
D03*
Y199500D02*
D03*
X158500Y36500D02*
D03*
Y54610D02*
D03*
D55*
X81200Y202520D02*
D03*
Y160000D02*
D03*
X196476Y202520D02*
D03*
Y160000D02*
D03*
D56*
X5000Y66146D02*
D03*
X10000D02*
D03*
X15000D02*
D03*
X20000D02*
D03*
X5000Y46854D02*
D03*
X10000D02*
D03*
X15000D02*
D03*
X20000D02*
D03*
D57*
X170500Y33100D02*
D03*
Y28100D02*
D03*
Y23100D02*
D03*
Y18100D02*
D03*
Y53100D02*
D03*
X175500D02*
D03*
X180500D02*
D03*
X185500D02*
D03*
X190500D02*
D03*
X195500D02*
D03*
X200500D02*
D03*
X210500D02*
D03*
X215500D02*
D03*
X220500D02*
D03*
Y48100D02*
D03*
X215500D02*
D03*
X210500D02*
D03*
X200500D02*
D03*
X195500D02*
D03*
X190500D02*
D03*
X185500D02*
D03*
X180500D02*
D03*
X175500D02*
D03*
X170500D02*
D03*
X220500Y43100D02*
D03*
X215500D02*
D03*
X210500D02*
D03*
X200500D02*
D03*
X195500D02*
D03*
X190500D02*
D03*
X185500D02*
D03*
X180500D02*
D03*
X175500D02*
D03*
X170500D02*
D03*
X200500Y38100D02*
D03*
X195500D02*
D03*
X190500D02*
D03*
X185500D02*
D03*
X180500D02*
D03*
X175500D02*
D03*
X170500D02*
D03*
X220500Y33100D02*
D03*
X215500D02*
D03*
X210500D02*
D03*
X205500D02*
D03*
X200500D02*
D03*
X195500D02*
D03*
X190500D02*
D03*
X185500D02*
D03*
X180500D02*
D03*
X175500D02*
D03*
X220500Y28100D02*
D03*
X215500D02*
D03*
X210500D02*
D03*
X205500D02*
D03*
X200500D02*
D03*
X195500D02*
D03*
X190500D02*
D03*
X185500D02*
D03*
X180500D02*
D03*
X175500D02*
D03*
X220500Y23100D02*
D03*
X215500D02*
D03*
X210500D02*
D03*
X205500D02*
D03*
X200500D02*
D03*
X195500D02*
D03*
X190500D02*
D03*
X185500D02*
D03*
X180500D02*
D03*
X175500D02*
D03*
X220500Y18100D02*
D03*
X215500D02*
D03*
X210500D02*
D03*
X205500D02*
D03*
X200500D02*
D03*
X195500D02*
D03*
X190500D02*
D03*
X185500D02*
D03*
X180500D02*
D03*
X175500D02*
D03*
D58*
X218500Y144000D02*
D03*
Y130000D02*
D03*
X33000Y254500D02*
D03*
Y240500D02*
D03*
D59*
X8685Y208500D02*
D03*
X39000D02*
D03*
X8185Y138500D02*
D03*
X38500D02*
D03*
D60*
X123646Y78500D02*
D03*
Y73500D02*
D03*
Y68500D02*
D03*
Y63500D02*
D03*
X104354Y78500D02*
D03*
Y73500D02*
D03*
Y68500D02*
D03*
Y63500D02*
D03*
D61*
X137925Y169264D02*
D03*
D62*
X164500Y184028D02*
D03*
X162531D02*
D03*
X160563D02*
D03*
X158594D02*
D03*
X156626D02*
D03*
X154657D02*
D03*
X152689D02*
D03*
X150720D02*
D03*
X148752D02*
D03*
X146783D02*
D03*
X144815D02*
D03*
X142846D02*
D03*
X140878D02*
D03*
X138909D02*
D03*
X136941D02*
D03*
X134972D02*
D03*
X133004D02*
D03*
X131035D02*
D03*
X129067D02*
D03*
X127098D02*
D03*
X125130D02*
D03*
X123161D02*
D03*
X121193D02*
D03*
X119224D02*
D03*
X117256D02*
D03*
X115287D02*
D03*
X113319Y184000D02*
D03*
X111350Y184028D02*
D03*
Y154500D02*
D03*
X113319D02*
D03*
X115287D02*
D03*
X117256D02*
D03*
X119224D02*
D03*
X121193D02*
D03*
X123161D02*
D03*
X125130D02*
D03*
X127098D02*
D03*
X129067D02*
D03*
X131035D02*
D03*
X133004D02*
D03*
X134972D02*
D03*
X136941D02*
D03*
X138909D02*
D03*
X140878D02*
D03*
X142846D02*
D03*
X144815D02*
D03*
X146783D02*
D03*
X148752D02*
D03*
X150720D02*
D03*
X152689D02*
D03*
X154657D02*
D03*
X156626D02*
D03*
X158594D02*
D03*
X160563D02*
D03*
X162531D02*
D03*
X164500D02*
D03*
D63*
X220500Y155000D02*
D03*
Y174500D02*
D03*
D64*
X65964Y48882D02*
D03*
X63995D02*
D03*
X62027D02*
D03*
X60058D02*
D03*
X58090D02*
D03*
X56121D02*
D03*
X54153D02*
D03*
X52184D02*
D03*
X50216D02*
D03*
X48247D02*
D03*
X46279D02*
D03*
X44310D02*
D03*
X42342D02*
D03*
X40373D02*
D03*
X38405D02*
D03*
X36436D02*
D03*
Y84118D02*
D03*
X38405D02*
D03*
X40373D02*
D03*
X42342D02*
D03*
X44310D02*
D03*
X46279D02*
D03*
X48247D02*
D03*
X50216D02*
D03*
X52184D02*
D03*
X54153D02*
D03*
X56121D02*
D03*
X58090D02*
D03*
X60058D02*
D03*
X62027D02*
D03*
X63995D02*
D03*
X65964D02*
D03*
D65*
X33582Y51736D02*
D03*
Y53705D02*
D03*
Y55673D02*
D03*
Y57642D02*
D03*
Y59610D02*
D03*
Y61579D02*
D03*
Y63547D02*
D03*
Y65516D02*
D03*
Y67484D02*
D03*
Y69453D02*
D03*
Y71421D02*
D03*
Y73390D02*
D03*
Y75358D02*
D03*
Y77327D02*
D03*
Y79295D02*
D03*
Y81264D02*
D03*
X68818D02*
D03*
Y79295D02*
D03*
Y77327D02*
D03*
Y75358D02*
D03*
Y73390D02*
D03*
Y71421D02*
D03*
Y69453D02*
D03*
Y67484D02*
D03*
Y65516D02*
D03*
Y63547D02*
D03*
Y61579D02*
D03*
Y59610D02*
D03*
Y57642D02*
D03*
Y55673D02*
D03*
Y53705D02*
D03*
Y51736D02*
D03*
D66*
X51200Y66500D02*
D03*
D67*
X169468Y37069D02*
X170500Y38100D01*
X168900Y36500D02*
X169468Y37069D01*
X141110Y54610D02*
X158500D01*
X152993Y72899D02*
X166190D01*
X152065Y71971D02*
X152993Y72899D01*
X166190D02*
X167855Y71235D01*
X170265D01*
X175500Y66000D01*
X152065Y68500D02*
Y71971D01*
Y60029D02*
Y68500D01*
X152993Y59101D02*
X158500D01*
X152065Y60029D02*
X152993Y59101D01*
X158500Y54610D02*
Y59101D01*
X220500Y18100D02*
Y23100D01*
Y18100D02*
X221500Y17100D01*
Y9500D02*
Y17100D01*
X220500Y28100D02*
X221293D01*
X229000Y35807D01*
X170500Y53100D02*
Y53906D01*
X158406Y66000D02*
X170500Y53906D01*
X157390Y66000D02*
X158406D01*
X158500Y36500D02*
X168900D01*
X200500Y18100D02*
X200693Y17907D01*
Y9500D02*
Y17907D01*
X214807Y17407D02*
X215500Y18100D01*
X214807Y9500D02*
Y17407D01*
X195500Y53100D02*
Y65500D01*
X131000Y44500D02*
Y62500D01*
X131411Y62911D01*
X112500Y26000D02*
X131000Y44500D01*
X141110Y54610D01*
X108456Y26000D02*
X112500D01*
X92202Y42254D02*
X108456Y26000D01*
X74554Y42254D02*
X92202D01*
X74000Y42807D02*
X74554Y42254D01*
X176000Y66500D02*
X180089D01*
X186589D02*
X186855Y66235D01*
X194235D02*
X194500Y66500D01*
X186855Y66235D02*
X194235D01*
X180089Y66500D02*
X180355Y66235D01*
X182645D01*
X182911Y66500D01*
X183589D01*
X183855Y66235D01*
X186145D01*
X186411Y66500D01*
X186589D01*
D68*
X138909Y139284D02*
Y154500D01*
Y139284D02*
X140693Y137500D01*
D69*
X177750Y45500D02*
D03*
D70*
X215750Y48250D02*
D03*
D71*
X195500Y44500D02*
D03*
D72*
X176250Y19250D02*
D03*
D73*
X193250Y28000D02*
D03*
M02*
