G04 Layer_Physical_Order=3*
G04 Layer_Color=16440176*
%FSLAX25Y25*%
%MOIN*%
G70*
G01*
G75*
%ADD32C,0.01181*%
%ADD33C,0.11811*%
%ADD34C,0.02756*%
%ADD35C,0.00984*%
%ADD46C,0.19685*%
%ADD48R,0.05906X0.05906*%
%ADD49C,0.05906*%
%ADD50C,0.07874*%
%ADD51C,0.02362*%
%ADD52C,0.02717*%
%ADD53C,0.03937*%
G36*
X232286Y286488D02*
X231786Y286363D01*
X231598Y286714D01*
X230836Y287643D01*
X229907Y288406D01*
X228847Y288972D01*
X227696Y289321D01*
X226500Y289439D01*
X225304Y289321D01*
X224153Y288972D01*
X223093Y288406D01*
X222164Y287643D01*
X221402Y286714D01*
X220835Y285654D01*
X220486Y284503D01*
X220434Y283972D01*
X220001Y283717D01*
X219907Y283728D01*
X219000Y283909D01*
X218078Y283725D01*
X217297Y283203D01*
X217008Y282770D01*
X216603Y282831D01*
X216480Y282880D01*
X216235Y283470D01*
X215825Y284005D01*
X215291Y284415D01*
X214668Y284673D01*
X214000Y284761D01*
X207000D01*
X206332Y284673D01*
X205709Y284415D01*
X205175Y284005D01*
X204765Y283470D01*
X204507Y282848D01*
X204419Y282179D01*
X204507Y281511D01*
X204765Y280889D01*
X205175Y280354D01*
X205299Y280259D01*
X205087Y279792D01*
X204500Y279908D01*
X203578Y279725D01*
X202797Y279203D01*
X202275Y278422D01*
X202092Y277500D01*
X202275Y276578D01*
X202797Y275797D01*
X203578Y275275D01*
X204500Y275092D01*
X205422Y275275D01*
X206203Y275797D01*
X206725Y276578D01*
X206908Y277500D01*
X206725Y278422D01*
X206243Y279144D01*
X206352Y279637D01*
X206360Y279658D01*
X206392Y279679D01*
X207000Y279598D01*
X214000D01*
X214668Y279686D01*
X215291Y279944D01*
X215825Y280354D01*
X216210Y280856D01*
X216352Y280865D01*
X216734Y280785D01*
X216775Y280578D01*
X217297Y279797D01*
X218032Y279306D01*
X217775Y278922D01*
X217592Y278000D01*
X217775Y277078D01*
X218297Y276297D01*
X219078Y275775D01*
X220000Y275591D01*
X220922Y275775D01*
X221703Y276297D01*
X222225Y277078D01*
X222409Y278000D01*
X222370Y278193D01*
X222799Y278450D01*
X223093Y278209D01*
X224153Y277642D01*
X225304Y277293D01*
X226500Y277175D01*
X227696Y277293D01*
X228847Y277642D01*
X229907Y278209D01*
X230836Y278971D01*
X231598Y279900D01*
X231786Y280251D01*
X232286Y280126D01*
Y243181D01*
X231786Y243056D01*
X231598Y243407D01*
X230836Y244336D01*
X229907Y245098D01*
X228847Y245665D01*
X227696Y246014D01*
X226500Y246132D01*
X225304Y246014D01*
X224153Y245665D01*
X223093Y245098D01*
X222164Y244336D01*
X221402Y243407D01*
X220835Y242347D01*
X220486Y241196D01*
X220368Y240000D01*
X220486Y238804D01*
X220835Y237653D01*
X221402Y236593D01*
X222164Y235664D01*
X222830Y235118D01*
X222790Y234729D01*
X222728Y234554D01*
X221544Y233921D01*
X220465Y233035D01*
X219579Y231956D01*
X218921Y230725D01*
X218516Y229389D01*
X218379Y228000D01*
Y220628D01*
X217993Y220310D01*
X217500Y220409D01*
X216578Y220225D01*
X215952Y219806D01*
X188500D01*
X187809Y219669D01*
X187223Y219277D01*
X170189Y202244D01*
X169704Y202340D01*
X167739D01*
X167048Y202203D01*
X166462Y201811D01*
X165073Y200422D01*
X165051Y200389D01*
X164561Y200302D01*
X164530Y200817D01*
X170206Y206493D01*
X170576Y207047D01*
X170706Y207699D01*
Y212801D01*
X171225Y213578D01*
X171408Y214500D01*
X171225Y215422D01*
X170703Y216203D01*
X169922Y216725D01*
X169000Y216909D01*
X168078Y216725D01*
X167297Y216203D01*
X166775Y215422D01*
X166592Y214500D01*
X166775Y213578D01*
X167294Y212801D01*
Y208406D01*
X159198Y200310D01*
X158919Y199893D01*
X158369Y199816D01*
X158336Y199865D01*
X157555Y200387D01*
X156633Y200571D01*
X155711Y200387D01*
X154930Y199865D01*
X154408Y199084D01*
X154225Y198162D01*
X154408Y197240D01*
X154930Y196459D01*
X155711Y195937D01*
X156479Y195784D01*
X156697Y195295D01*
X154652Y193250D01*
X153736Y193068D01*
X152954Y192546D01*
X152432Y191764D01*
X152249Y190843D01*
X152432Y189921D01*
X152565Y189722D01*
X152329Y189281D01*
X146502D01*
X146422Y189775D01*
X147203Y190297D01*
X147725Y191078D01*
X147908Y192000D01*
X147725Y192922D01*
X147206Y193699D01*
Y195350D01*
X147500Y195591D01*
X148422Y195775D01*
X149166Y196272D01*
X149667Y195937D01*
X150589Y195754D01*
X151510Y195937D01*
X152292Y196459D01*
X152814Y197240D01*
X152997Y198162D01*
X152814Y199084D01*
X152292Y199865D01*
X151510Y200387D01*
X150589Y200571D01*
X149667Y200387D01*
X148923Y199890D01*
X148422Y200225D01*
X147500Y200409D01*
X146578Y200225D01*
X146374Y200089D01*
X145933Y200324D01*
Y201520D01*
X156005Y211593D01*
X156922Y211775D01*
X157703Y212297D01*
X158225Y213078D01*
X158408Y214000D01*
X158225Y214922D01*
X157703Y215703D01*
X156922Y216225D01*
X156000Y216408D01*
X155580Y216325D01*
X155422Y216775D01*
X155852Y217062D01*
X156250Y217272D01*
X156648Y217062D01*
X157078Y216775D01*
X158000Y216592D01*
X158922Y216775D01*
X159703Y217297D01*
X159873Y217552D01*
X160404Y217446D01*
X160424Y217347D01*
X160794Y216794D01*
X161347Y216424D01*
X162000Y216294D01*
X162653Y216424D01*
X162855Y216559D01*
X163297Y216797D01*
X164078Y216275D01*
X165000Y216091D01*
X165922Y216275D01*
X166703Y216797D01*
X167225Y217578D01*
X167409Y218500D01*
X167225Y219422D01*
X166703Y220203D01*
X165922Y220725D01*
X165000Y220908D01*
X164206Y220751D01*
X163706Y221032D01*
Y235914D01*
X164980Y237187D01*
X165349Y237741D01*
X165479Y238394D01*
Y282227D01*
X165349Y282880D01*
X164980Y283433D01*
X164051Y284361D01*
X164243Y284823D01*
X167500D01*
X168322Y284931D01*
X169088Y285249D01*
X169746Y285754D01*
X170251Y286412D01*
X170569Y287178D01*
X170677Y288000D01*
X170569Y288822D01*
X170251Y289588D01*
X169746Y290246D01*
X169088Y290751D01*
X168322Y291069D01*
X167500Y291177D01*
X164564D01*
X164141Y291501D01*
X163375Y291818D01*
X162553Y291926D01*
X159447D01*
X158625Y291818D01*
X157859Y291501D01*
X157436Y291177D01*
X152000D01*
X151178Y291069D01*
X150412Y290751D01*
X149754Y290246D01*
X149181Y289674D01*
X148757Y289957D01*
X149016Y290583D01*
X149422Y292270D01*
X149558Y294000D01*
X149422Y295730D01*
X149016Y297417D01*
X148353Y299020D01*
X147446Y300500D01*
X146319Y301819D01*
X145000Y302946D01*
X143520Y303853D01*
X141917Y304517D01*
X140230Y304922D01*
X138500Y305058D01*
X136770Y304922D01*
X135083Y304517D01*
X133480Y303853D01*
X132000Y302946D01*
X130681Y301819D01*
X129554Y300500D01*
X128647Y299020D01*
X127983Y297417D01*
X127578Y295730D01*
X127442Y294000D01*
X127578Y292270D01*
X127983Y290583D01*
X128480Y289384D01*
X128228Y288993D01*
X128125Y288934D01*
X127825Y289325D01*
X127291Y289735D01*
X126668Y289993D01*
X126000Y290081D01*
X106500D01*
X105832Y289993D01*
X105209Y289735D01*
X104675Y289325D01*
X104265Y288791D01*
X104007Y288168D01*
X103919Y287500D01*
X104007Y286832D01*
X104265Y286209D01*
X104675Y285675D01*
X105209Y285265D01*
X105832Y285007D01*
X106500Y284919D01*
X126000D01*
X126668Y285007D01*
X127291Y285265D01*
X127825Y285675D01*
X128235Y286209D01*
X128493Y286832D01*
X128581Y287500D01*
X128509Y288049D01*
X128493Y288168D01*
X128359Y288499D01*
X128467Y288554D01*
X128936Y288509D01*
X129554Y287500D01*
X130681Y286181D01*
X132000Y285054D01*
X132647Y284658D01*
X132511Y284177D01*
X106000D01*
X105178Y284068D01*
X104412Y283751D01*
X103754Y283246D01*
X60754Y240246D01*
X60249Y239588D01*
X59931Y238822D01*
X59823Y238000D01*
Y230384D01*
X59578Y230335D01*
X58797Y229813D01*
X58275Y229032D01*
X58091Y228110D01*
X58275Y227188D01*
X58797Y226407D01*
X59578Y225885D01*
X60500Y225702D01*
X61422Y225885D01*
X62203Y226407D01*
X62523Y226886D01*
X63000Y226823D01*
X63822Y226932D01*
X64588Y227249D01*
X65246Y227754D01*
X65751Y228412D01*
X66069Y229178D01*
X66177Y230000D01*
Y236684D01*
X107316Y277823D01*
X145000D01*
X145822Y277931D01*
X146588Y278249D01*
X147246Y278754D01*
X153316Y284823D01*
X158697D01*
X159520Y284931D01*
X160196Y285212D01*
X160434Y285019D01*
X160550Y284841D01*
X160424Y284653D01*
X160294Y284000D01*
X160424Y283347D01*
X160794Y282794D01*
X162067Y281520D01*
Y265190D01*
X161681Y264873D01*
X161500Y264909D01*
X160578Y264725D01*
X159797Y264203D01*
X159275Y263422D01*
X159091Y262500D01*
X159275Y261578D01*
X159694Y260952D01*
Y239248D01*
X140826Y220381D01*
X140435Y219795D01*
X140297Y219104D01*
Y215896D01*
X140398Y215392D01*
Y203722D01*
X139898Y203515D01*
X126706Y216706D01*
X126153Y217076D01*
X125500Y217206D01*
X120578D01*
X120465Y217325D01*
X120250Y217706D01*
X120408Y218500D01*
X120225Y219422D01*
X119806Y220048D01*
Y238752D01*
X156182Y275128D01*
X156922Y275275D01*
X157703Y275797D01*
X158225Y276578D01*
X158408Y277500D01*
X158225Y278422D01*
X157703Y279203D01*
X156922Y279725D01*
X156000Y279908D01*
X155078Y279725D01*
X154297Y279203D01*
X153775Y278422D01*
X153628Y277682D01*
X117897Y241951D01*
X117435Y242143D01*
Y265618D01*
X117703Y265797D01*
X118225Y266578D01*
X118409Y267500D01*
X118225Y268422D01*
X117703Y269203D01*
X116922Y269725D01*
X116000Y269908D01*
X115078Y269725D01*
X114297Y269203D01*
X113775Y268422D01*
X113592Y267500D01*
X113775Y266578D01*
X113822Y266508D01*
Y265984D01*
X113322Y265935D01*
X113225Y266422D01*
X112703Y267203D01*
X111922Y267725D01*
X111000Y267909D01*
X110078Y267725D01*
X109297Y267203D01*
X108775Y266422D01*
X108591Y265500D01*
X108775Y264578D01*
X109297Y263797D01*
X110078Y263275D01*
X111000Y263091D01*
X111922Y263275D01*
X112703Y263797D01*
X113225Y264578D01*
X113322Y265065D01*
X113822Y265016D01*
Y261639D01*
X113435Y261322D01*
X113000Y261408D01*
X112078Y261225D01*
X111297Y260703D01*
X110775Y259922D01*
X110591Y259000D01*
X110775Y258078D01*
X111297Y257297D01*
X112078Y256775D01*
X113000Y256592D01*
X113435Y256678D01*
X113822Y256361D01*
Y219225D01*
X113322Y218958D01*
X112922Y219225D01*
X112000Y219408D01*
X111078Y219225D01*
X110297Y218703D01*
X109775Y217922D01*
X109591Y217000D01*
X109775Y216078D01*
X110297Y215297D01*
X111078Y214775D01*
X112000Y214592D01*
X112922Y214775D01*
X113703Y215297D01*
X113715Y215315D01*
X114194Y215170D01*
Y213000D01*
Y206632D01*
X108096Y200534D01*
X107357Y200387D01*
X106575Y199865D01*
X106053Y199084D01*
X105870Y198162D01*
X106053Y197240D01*
X106575Y196459D01*
X107357Y195937D01*
X108278Y195754D01*
X109200Y195937D01*
X109981Y196459D01*
X110503Y197240D01*
X110558Y197514D01*
X110613Y197540D01*
X110649Y197537D01*
X111144Y197238D01*
X111275Y196578D01*
X111797Y195797D01*
X112578Y195275D01*
X113500Y195091D01*
X114422Y195275D01*
X115203Y195797D01*
X115725Y196578D01*
X115909Y197500D01*
X115725Y198422D01*
X115203Y199203D01*
X114422Y199725D01*
X113500Y199908D01*
X113233Y199855D01*
X112987Y200316D01*
X117277Y204607D01*
X117669Y205193D01*
X117806Y205884D01*
Y211194D01*
X118952D01*
X119578Y210775D01*
X120500Y210592D01*
X121422Y210775D01*
X122203Y211297D01*
X122725Y212078D01*
X122908Y213000D01*
X122827Y213407D01*
X123145Y213794D01*
X124793D01*
X137112Y201475D01*
X137074Y201119D01*
X136599Y200789D01*
X136000Y200908D01*
X135078Y200725D01*
X134297Y200203D01*
X133775Y199422D01*
X133591Y198500D01*
X133500Y198408D01*
X132578Y198225D01*
X132313Y198047D01*
X131862Y198348D01*
X131902Y198546D01*
X131719Y199468D01*
X131196Y200250D01*
X130415Y200772D01*
X129493Y200955D01*
X128572Y200772D01*
X127790Y200250D01*
X127268Y199468D01*
X127085Y198546D01*
X127268Y197625D01*
X127790Y196843D01*
X128194Y196574D01*
Y195806D01*
X123646D01*
X122955Y195669D01*
X122369Y195277D01*
X119376Y192284D01*
X119078Y192225D01*
X118297Y191703D01*
X117775Y190922D01*
X117592Y190000D01*
X117775Y189078D01*
X118297Y188297D01*
X119078Y187775D01*
X120000Y187592D01*
X120922Y187775D01*
X121500Y188161D01*
X122078Y187775D01*
X123000Y187592D01*
X123922Y187775D01*
X123962Y187802D01*
X124000Y187794D01*
X124653Y187924D01*
X125206Y188294D01*
X125576Y188847D01*
X125706Y189500D01*
X125576Y190153D01*
X125294Y190575D01*
X125225Y190922D01*
X124703Y191703D01*
X124869Y192194D01*
X128452D01*
X129078Y191775D01*
X130000Y191592D01*
X130140Y191619D01*
X130440Y191169D01*
X130275Y190922D01*
X130092Y190000D01*
X130275Y189078D01*
X130797Y188297D01*
X131578Y187775D01*
X132500Y187592D01*
X133422Y187775D01*
X134048Y188194D01*
X138252D01*
X140248Y186197D01*
X140834Y185806D01*
X141525Y185668D01*
X155344D01*
X156035Y185806D01*
X156622Y186197D01*
X163745Y193321D01*
X164206Y193075D01*
X164092Y192500D01*
X164275Y191578D01*
X164797Y190797D01*
X165578Y190275D01*
X166500Y190092D01*
X167422Y190275D01*
X168203Y190797D01*
X168694Y191532D01*
X169078Y191275D01*
X170000Y191092D01*
X170922Y191275D01*
X171703Y191797D01*
X172225Y192578D01*
X172408Y193500D01*
X172225Y194422D01*
X171703Y195203D01*
X170922Y195725D01*
X170000Y195908D01*
X169078Y195725D01*
X168297Y195203D01*
X167806Y194468D01*
X167422Y194725D01*
X166500Y194908D01*
X165925Y194794D01*
X165679Y195255D01*
X167628Y197204D01*
X168019Y197790D01*
X168136Y198375D01*
X168488Y198727D01*
X168956D01*
X169092Y198592D01*
X169678Y198200D01*
X170369Y198063D01*
X171060Y198200D01*
X171646Y198592D01*
X189248Y216194D01*
X215952D01*
X216578Y215775D01*
X217500Y215592D01*
X217993Y215689D01*
X218379Y215372D01*
Y80360D01*
X218383Y80324D01*
X215278Y77219D01*
X214393Y76140D01*
X213735Y74909D01*
X213329Y73573D01*
X213193Y72184D01*
Y65816D01*
X213329Y64427D01*
X213735Y63091D01*
X214393Y61860D01*
X215278Y60781D01*
X219874Y56185D01*
Y47495D01*
Y27000D01*
X220010Y25611D01*
X220416Y24275D01*
X221074Y23044D01*
X221959Y21965D01*
X223038Y21079D01*
X224269Y20421D01*
X225605Y20016D01*
X226994Y19879D01*
X228384Y20016D01*
X229719Y20421D01*
X230951Y21079D01*
X231786Y21765D01*
X232286Y21528D01*
Y214D01*
X86495D01*
X86303Y676D01*
X87421Y1794D01*
X87791Y2347D01*
X87921Y3000D01*
Y42294D01*
X98301D01*
X99078Y41775D01*
X100000Y41592D01*
X100922Y41775D01*
X101703Y42297D01*
X102225Y43078D01*
X102409Y44000D01*
X102225Y44922D01*
X101703Y45703D01*
X100922Y46225D01*
X100000Y46409D01*
X99078Y46225D01*
X98301Y45706D01*
X87100D01*
X86868Y45861D01*
X86215Y45991D01*
X85562Y45861D01*
X85009Y45491D01*
X84639Y44938D01*
X84509Y44285D01*
Y6218D01*
X84009Y5807D01*
X83682Y5872D01*
X79306Y10248D01*
Y25543D01*
X79528Y25875D01*
X79545Y25895D01*
X80092Y26100D01*
X80578Y25775D01*
X81500Y25591D01*
X82422Y25775D01*
X83203Y26297D01*
X83725Y27078D01*
X83908Y28000D01*
X83725Y28922D01*
X83203Y29703D01*
X82422Y30225D01*
X81500Y30408D01*
X80578Y30225D01*
X79822Y29720D01*
X79791Y29705D01*
X79306Y29869D01*
Y57532D01*
X79703Y57797D01*
X80225Y58578D01*
X80409Y59500D01*
X80225Y60422D01*
X79703Y61203D01*
X78922Y61725D01*
X78000Y61909D01*
X77078Y61725D01*
X76297Y61203D01*
X75775Y60422D01*
X75591Y59500D01*
X75694Y58987D01*
Y30134D01*
X75500Y29975D01*
X74578Y29792D01*
X73797Y29270D01*
X73275Y28489D01*
X73092Y27567D01*
X73275Y26645D01*
X73797Y25864D01*
X74578Y25342D01*
X75500Y25159D01*
X75694Y24999D01*
Y9500D01*
X75831Y8809D01*
X76223Y8223D01*
X76278Y8168D01*
X76086Y7706D01*
X72699D01*
X71922Y8225D01*
X71000Y8409D01*
X70078Y8225D01*
X69301Y7706D01*
X24206D01*
Y11301D01*
X24725Y12078D01*
X24908Y13000D01*
X24725Y13922D01*
X24203Y14703D01*
X23422Y15225D01*
X22505Y15407D01*
X14706Y23207D01*
Y32801D01*
X15225Y33578D01*
X15407Y34495D01*
X16707Y35794D01*
X18000D01*
X18653Y35924D01*
X19206Y36294D01*
X19576Y36847D01*
X19706Y37500D01*
Y45293D01*
X27774Y53361D01*
X28236Y53170D01*
Y49996D01*
X27797Y49703D01*
X27275Y48922D01*
X27092Y48000D01*
X27275Y47078D01*
X27797Y46297D01*
X28578Y45775D01*
X29500Y45592D01*
X30138Y45718D01*
X30709Y45411D01*
X30775Y45078D01*
X31297Y44297D01*
X32078Y43775D01*
X33000Y43591D01*
X33922Y43775D01*
X34703Y44297D01*
X35225Y45078D01*
X35408Y46000D01*
X35225Y46922D01*
X34994Y47268D01*
X35261Y47768D01*
X62819D01*
X66294Y44293D01*
Y44000D01*
X66424Y43347D01*
X66794Y42794D01*
X70257Y39331D01*
X70091Y38500D01*
X70275Y37578D01*
X70797Y36797D01*
X71578Y36275D01*
X72500Y36092D01*
X73422Y36275D01*
X74203Y36797D01*
X74725Y37578D01*
X74909Y38500D01*
X74725Y39422D01*
X74203Y40203D01*
X73913Y40397D01*
X73706Y40706D01*
X69706Y44707D01*
Y45000D01*
X69576Y45653D01*
X69206Y46206D01*
X64732Y50680D01*
X64179Y51050D01*
X63526Y51180D01*
X62493D01*
X62444Y51680D01*
X62922Y51775D01*
X63703Y52297D01*
X64225Y53078D01*
X64408Y54000D01*
X64225Y54922D01*
X63703Y55703D01*
X62922Y56225D01*
X62000Y56409D01*
X61078Y56225D01*
X60301Y55706D01*
X58331D01*
X56648Y57389D01*
X56094Y57758D01*
X55442Y57888D01*
X47682D01*
X47029Y57758D01*
X46476Y57389D01*
X43914Y54826D01*
X43500Y54909D01*
X43206Y55150D01*
Y75925D01*
X54853D01*
X55078Y75775D01*
X56000Y75591D01*
X56922Y75775D01*
X57699Y76294D01*
X62801D01*
X63578Y75775D01*
X64500Y75591D01*
X65422Y75775D01*
X66203Y76297D01*
X66725Y77078D01*
X66909Y78000D01*
X66873Y78181D01*
X67190Y78567D01*
X76604D01*
X76990Y77990D01*
X77771Y77468D01*
X78693Y77284D01*
X79615Y77468D01*
X80396Y77990D01*
X80918Y78771D01*
X81101Y79693D01*
X80918Y80615D01*
X80396Y81396D01*
X79615Y81918D01*
X78693Y82101D01*
X78079Y81979D01*
X50045D01*
X49854Y82441D01*
X53005Y85593D01*
X53922Y85775D01*
X54703Y86297D01*
X55225Y87078D01*
X55409Y88000D01*
X55225Y88922D01*
X54703Y89703D01*
X53922Y90225D01*
X53000Y90408D01*
X52078Y90225D01*
X51297Y89703D01*
X50775Y88922D01*
X50592Y88005D01*
X46793Y84206D01*
X29699D01*
X29379Y84420D01*
X29330Y84917D01*
X32005Y87593D01*
X32922Y87775D01*
X33703Y88297D01*
X34225Y89078D01*
X34409Y90000D01*
X34225Y90922D01*
X33703Y91703D01*
X32922Y92225D01*
X32000Y92409D01*
X31078Y92225D01*
X30297Y91703D01*
X29775Y90922D01*
X29593Y90005D01*
X23259Y83672D01*
X22751D01*
X22098Y83542D01*
X21545Y83173D01*
X20213Y81841D01*
X19843Y81287D01*
X19714Y80634D01*
Y78751D01*
X19843Y78098D01*
X20200Y77564D01*
X20157Y77345D01*
X20041Y77064D01*
X13706D01*
Y80301D01*
X14225Y81078D01*
X14409Y82000D01*
X14225Y82922D01*
X13703Y83703D01*
X12922Y84225D01*
X12000Y84408D01*
X11078Y84225D01*
X10297Y83703D01*
X9775Y82922D01*
X9591Y82000D01*
X9775Y81078D01*
X10294Y80301D01*
Y76947D01*
X9020Y75674D01*
X8651Y75120D01*
X8521Y74467D01*
Y72058D01*
X8651Y71406D01*
X9020Y70852D01*
X21806Y58067D01*
X22359Y57697D01*
X23012Y57567D01*
X26310D01*
X26627Y57181D01*
X26592Y57005D01*
X16794Y47206D01*
X16424Y46653D01*
X16294Y46000D01*
Y40125D01*
X15794Y40075D01*
X15725Y40422D01*
X15203Y41203D01*
X14422Y41725D01*
X13500Y41908D01*
X12578Y41725D01*
X12000Y41339D01*
X11422Y41725D01*
X10500Y41908D01*
X9578Y41725D01*
X8797Y41203D01*
X8275Y40422D01*
X8091Y39500D01*
X8275Y38578D01*
X8797Y37797D01*
X9578Y37275D01*
X10500Y37091D01*
X11422Y37275D01*
X12000Y37661D01*
X12510Y37321D01*
X12519Y37042D01*
X12457Y36800D01*
X12078Y36725D01*
X11297Y36203D01*
X10775Y35422D01*
X10592Y34500D01*
X10775Y33578D01*
X11294Y32801D01*
Y22500D01*
X11424Y21847D01*
X11794Y21294D01*
X17739Y15349D01*
X17597Y15085D01*
X17476Y14904D01*
X16578Y14725D01*
X15797Y14203D01*
X15275Y13422D01*
X15263Y13361D01*
X14778Y13240D01*
X14535Y13535D01*
X13456Y14421D01*
X12225Y15079D01*
X10889Y15484D01*
X9500Y15621D01*
X8111Y15484D01*
X6775Y15079D01*
X5544Y14421D01*
X4465Y13535D01*
X3579Y12456D01*
X2921Y11225D01*
X2516Y9889D01*
X2379Y8500D01*
X2516Y7111D01*
X2921Y5775D01*
X3579Y4544D01*
X4465Y3465D01*
X5544Y2579D01*
X6775Y1921D01*
X8111Y1516D01*
X9500Y1379D01*
X10889Y1516D01*
X12225Y1921D01*
X13456Y2579D01*
X14535Y3465D01*
X15421Y4544D01*
X16079Y5775D01*
X16484Y7111D01*
X16621Y8500D01*
X16495Y9782D01*
X16695Y10047D01*
X16910Y10209D01*
X17500Y10091D01*
X18422Y10275D01*
X19203Y10797D01*
X19725Y11578D01*
X19800Y11957D01*
X20042Y12019D01*
X20321Y12010D01*
X20794Y11301D01*
Y6000D01*
X20924Y5347D01*
X21294Y4794D01*
X21847Y4424D01*
X22500Y4294D01*
X69301D01*
X70078Y3775D01*
X71000Y3591D01*
X71922Y3775D01*
X72699Y4294D01*
X77078D01*
X80697Y676D01*
X80505Y214D01*
X214D01*
Y309500D01*
X219748D01*
X219773Y309000D01*
X219611Y308984D01*
X218275Y308579D01*
X217044Y307921D01*
X215965Y307035D01*
X215079Y305956D01*
X214421Y304725D01*
X214016Y303389D01*
X213879Y302000D01*
X214016Y300611D01*
X214421Y299275D01*
X215079Y298044D01*
X215965Y296965D01*
X217044Y296079D01*
X218275Y295421D01*
X219611Y295016D01*
X221000Y294879D01*
X222389Y295016D01*
X223725Y295421D01*
X224956Y296079D01*
X226035Y296965D01*
X226921Y298044D01*
X227579Y299275D01*
X227984Y300611D01*
X228121Y302000D01*
X227984Y303389D01*
X227579Y304725D01*
X226921Y305956D01*
X226035Y307035D01*
X224956Y307921D01*
X223725Y308579D01*
X222389Y308984D01*
X222228Y309000D01*
X222252Y309500D01*
X232286D01*
Y286488D01*
D02*
G37*
%LPC*%
G36*
X203500Y116909D02*
X202578Y116725D01*
X201797Y116203D01*
X201275Y115422D01*
X201092Y114500D01*
X201275Y113578D01*
X201797Y112797D01*
X202578Y112275D01*
X203318Y112128D01*
X206694Y108752D01*
Y96248D01*
X195318Y84872D01*
X194578Y84725D01*
X194309Y84545D01*
X194203Y84703D01*
X193422Y85225D01*
X192500Y85409D01*
X191578Y85225D01*
X190797Y84703D01*
X190275Y83922D01*
X190092Y83000D01*
X190275Y82078D01*
X190797Y81297D01*
X191578Y80775D01*
X192500Y80591D01*
X193422Y80775D01*
X193691Y80955D01*
X193797Y80797D01*
X194578Y80275D01*
X195500Y80092D01*
X196422Y80275D01*
X197203Y80797D01*
X197725Y81578D01*
X197872Y82318D01*
X205637Y90082D01*
X206120Y89858D01*
X206275Y89078D01*
X206797Y88297D01*
X207578Y87775D01*
X208500Y87591D01*
X209422Y87775D01*
X210203Y88297D01*
X210725Y89078D01*
X210909Y90000D01*
X210725Y90922D01*
X210203Y91703D01*
X209422Y92225D01*
X208642Y92380D01*
X208418Y92863D01*
X209777Y94223D01*
X210169Y94809D01*
X210306Y95500D01*
Y109500D01*
X210169Y110191D01*
X209777Y110777D01*
X205872Y114682D01*
X205725Y115422D01*
X205203Y116203D01*
X204422Y116725D01*
X203500Y116909D01*
D02*
G37*
G36*
X36500Y99409D02*
X35578Y99225D01*
X34797Y98703D01*
X34275Y97922D01*
X34091Y97000D01*
X34275Y96078D01*
X34797Y95297D01*
X35578Y94775D01*
X36500Y94591D01*
X37422Y94775D01*
X38203Y95297D01*
X38725Y96078D01*
X38908Y97000D01*
X38725Y97922D01*
X38203Y98703D01*
X37422Y99225D01*
X36500Y99409D01*
D02*
G37*
G36*
X45000Y91158D02*
X44078Y90975D01*
X43297Y90453D01*
X42775Y89671D01*
X42592Y88750D01*
X42775Y87828D01*
X43297Y87047D01*
X44078Y86524D01*
X45000Y86341D01*
X45922Y86524D01*
X46703Y87047D01*
X47225Y87828D01*
X47409Y88750D01*
X47225Y89671D01*
X46703Y90453D01*
X45922Y90975D01*
X45000Y91158D01*
D02*
G37*
G36*
X162000Y97909D02*
X161078Y97725D01*
X160297Y97203D01*
X159775Y96422D01*
X159591Y95500D01*
X159775Y94578D01*
X160297Y93797D01*
X161078Y93275D01*
X162000Y93091D01*
X162922Y93275D01*
X163699Y93794D01*
X170793D01*
X175794Y88794D01*
X176347Y88424D01*
X177000Y88294D01*
X185301D01*
X185621Y88080D01*
X185670Y87583D01*
X179965Y81878D01*
X179487Y82023D01*
X179475Y82084D01*
X178953Y82865D01*
X178171Y83387D01*
X177250Y83571D01*
X176328Y83387D01*
X175547Y82865D01*
X175024Y82084D01*
X174841Y81162D01*
X175024Y80240D01*
X175547Y79459D01*
X176328Y78937D01*
X176389Y78925D01*
X176534Y78447D01*
X175599Y77512D01*
X175094Y77849D01*
X174442Y77979D01*
X172558D01*
X171906Y77849D01*
X171352Y77479D01*
X170027Y76155D01*
X169922Y76225D01*
X169000Y76408D01*
X168078Y76225D01*
X167297Y75703D01*
X166775Y74922D01*
X166592Y74000D01*
X166775Y73078D01*
X167297Y72297D01*
X168078Y71775D01*
X169000Y71592D01*
X169922Y71775D01*
X170703Y72297D01*
X170765Y72389D01*
X170938Y72424D01*
X171473Y72781D01*
X171797Y72297D01*
X172578Y71775D01*
X173500Y71592D01*
X174422Y71775D01*
X174775Y72011D01*
X178934D01*
X179141Y71804D01*
X179275Y71134D01*
X179680Y70528D01*
X179275Y69922D01*
X179092Y69000D01*
X179275Y68078D01*
X179797Y67297D01*
X180578Y66775D01*
X181500Y66592D01*
X182422Y66775D01*
X182562Y66868D01*
X183938D01*
X184078Y66775D01*
X185000Y66592D01*
X185922Y66775D01*
X185927Y66779D01*
X186191Y66831D01*
X186734Y67194D01*
X186952D01*
X187578Y66775D01*
X188500Y66592D01*
X189422Y66775D01*
X190203Y67297D01*
X190725Y68078D01*
X190909Y69000D01*
X190725Y69922D01*
X190320Y70528D01*
X190725Y71134D01*
X190909Y72055D01*
X190725Y72977D01*
X190203Y73758D01*
X189422Y74280D01*
X188500Y74464D01*
X187578Y74280D01*
X186952Y73861D01*
X186548D01*
X185922Y74280D01*
X185000Y74464D01*
X184078Y74280D01*
X183369Y73806D01*
X183131D01*
X182422Y74280D01*
X181614Y74441D01*
X180960Y75095D01*
X180374Y75486D01*
X179683Y75624D01*
X179190D01*
X178998Y76086D01*
X190707Y87794D01*
X190801D01*
X191578Y87275D01*
X192500Y87091D01*
X193422Y87275D01*
X194203Y87797D01*
X194725Y88578D01*
X194908Y89500D01*
X194725Y90422D01*
X194203Y91203D01*
X193422Y91725D01*
X192500Y91909D01*
X191578Y91725D01*
X190801Y91206D01*
X190000D01*
X189347Y91076D01*
X189191Y90972D01*
X188703Y91703D01*
X187922Y92225D01*
X187000Y92409D01*
X186078Y92225D01*
X185301Y91706D01*
X177707D01*
X172706Y96706D01*
X172153Y97076D01*
X171500Y97206D01*
X163699D01*
X162922Y97725D01*
X162000Y97909D01*
D02*
G37*
G36*
X73000Y107908D02*
X72078Y107725D01*
X71297Y107203D01*
X70775Y106422D01*
X70591Y105500D01*
X70739Y104757D01*
X70578Y104725D01*
X69797Y104203D01*
X69275Y103422D01*
X69091Y102500D01*
X69275Y101578D01*
X69797Y100797D01*
X70578Y100275D01*
X71500Y100092D01*
X72422Y100275D01*
X73203Y100797D01*
X73725Y101578D01*
X73909Y102500D01*
X73761Y103243D01*
X73922Y103275D01*
X74703Y103797D01*
X75225Y104578D01*
X75409Y105500D01*
X75225Y106422D01*
X74703Y107203D01*
X73922Y107725D01*
X73000Y107908D01*
D02*
G37*
G36*
X180500Y118409D02*
X179578Y118225D01*
X178797Y117703D01*
X178275Y116922D01*
X178092Y116000D01*
X178275Y115078D01*
X178797Y114297D01*
X179578Y113775D01*
X180495Y113593D01*
X184217Y109871D01*
X184275Y109578D01*
X184797Y108797D01*
X185578Y108275D01*
X186500Y108091D01*
X187422Y108275D01*
X188203Y108797D01*
X188725Y109578D01*
X188909Y110500D01*
X188725Y111422D01*
X188203Y112203D01*
X187422Y112725D01*
X186500Y112908D01*
X186086Y112826D01*
X182907Y116005D01*
X182725Y116922D01*
X182203Y117703D01*
X181422Y118225D01*
X180500Y118409D01*
D02*
G37*
G36*
X112500Y20169D02*
X111421Y20027D01*
X110415Y19611D01*
X109552Y18948D01*
X108889Y18085D01*
X108473Y17079D01*
X108331Y16000D01*
X108473Y14921D01*
X108889Y13915D01*
X109552Y13052D01*
X110415Y12389D01*
X111421Y11972D01*
X112500Y11830D01*
X113579Y11972D01*
X114585Y12389D01*
X115448Y13052D01*
X116111Y13915D01*
X116527Y14921D01*
X116669Y16000D01*
X116527Y17079D01*
X116111Y18085D01*
X115448Y18948D01*
X114585Y19611D01*
X113579Y20027D01*
X112500Y20169D01*
D02*
G37*
G36*
X55500Y106409D02*
X54578Y106225D01*
X53797Y105703D01*
X53275Y104922D01*
X53092Y104000D01*
X53275Y103078D01*
X53797Y102297D01*
X54578Y101775D01*
X55500Y101592D01*
X56422Y101775D01*
X57203Y102297D01*
X57725Y103078D01*
X57908Y104000D01*
X57725Y104922D01*
X57203Y105703D01*
X56422Y106225D01*
X55500Y106409D01*
D02*
G37*
G36*
X40000Y118121D02*
X38611Y117984D01*
X37275Y117579D01*
X36044Y116921D01*
X34965Y116035D01*
X34079Y114956D01*
X33421Y113725D01*
X33016Y112389D01*
X32879Y111000D01*
X33016Y109611D01*
X33421Y108275D01*
X34079Y107044D01*
X34965Y105965D01*
X36044Y105079D01*
X37275Y104421D01*
X38611Y104016D01*
X40000Y103879D01*
X41389Y104016D01*
X42725Y104421D01*
X43956Y105079D01*
X45035Y105965D01*
X45921Y107044D01*
X46579Y108275D01*
X46984Y109611D01*
X47121Y111000D01*
X46984Y112389D01*
X46579Y113725D01*
X45921Y114956D01*
X45035Y116035D01*
X43956Y116921D01*
X42725Y117579D01*
X41389Y117984D01*
X40000Y118121D01*
D02*
G37*
G36*
X148875Y20169D02*
X147796Y20027D01*
X146790Y19611D01*
X145927Y18948D01*
X145264Y18085D01*
X144848Y17079D01*
X144705Y16000D01*
X144848Y14921D01*
X145264Y13915D01*
X145927Y13052D01*
X146790Y12389D01*
X147796Y11972D01*
X148875Y11830D01*
X149954Y11972D01*
X150960Y12389D01*
X151823Y13052D01*
X152486Y13915D01*
X152902Y14921D01*
X153044Y16000D01*
X152902Y17079D01*
X152486Y18085D01*
X151823Y18948D01*
X150960Y19611D01*
X149954Y20027D01*
X148875Y20169D01*
D02*
G37*
G36*
X161000D02*
X159921Y20027D01*
X158915Y19611D01*
X158052Y18948D01*
X157389Y18085D01*
X156973Y17079D01*
X156831Y16000D01*
X156973Y14921D01*
X157389Y13915D01*
X158052Y13052D01*
X158915Y12389D01*
X159921Y11972D01*
X161000Y11830D01*
X162079Y11972D01*
X163085Y12389D01*
X163948Y13052D01*
X164611Y13915D01*
X165027Y14921D01*
X165170Y16000D01*
X165027Y17079D01*
X164611Y18085D01*
X163948Y18948D01*
X163085Y19611D01*
X162079Y20027D01*
X161000Y20169D01*
D02*
G37*
G36*
X124625D02*
X123546Y20027D01*
X122540Y19611D01*
X121677Y18948D01*
X121014Y18085D01*
X120598Y17079D01*
X120456Y16000D01*
X120598Y14921D01*
X121014Y13915D01*
X121677Y13052D01*
X122540Y12389D01*
X123546Y11972D01*
X124625Y11830D01*
X125704Y11972D01*
X126710Y12389D01*
X127573Y13052D01*
X128236Y13915D01*
X128652Y14921D01*
X128795Y16000D01*
X128652Y17079D01*
X128236Y18085D01*
X127573Y18948D01*
X126710Y19611D01*
X125704Y20027D01*
X124625Y20169D01*
D02*
G37*
G36*
X136750D02*
X135671Y20027D01*
X134665Y19611D01*
X133802Y18948D01*
X133139Y18085D01*
X132723Y17079D01*
X132580Y16000D01*
X132723Y14921D01*
X133139Y13915D01*
X133802Y13052D01*
X134665Y12389D01*
X135671Y11972D01*
X136750Y11830D01*
X137829Y11972D01*
X138835Y12389D01*
X139698Y13052D01*
X140361Y13915D01*
X140777Y14921D01*
X140919Y16000D01*
X140777Y17079D01*
X140361Y18085D01*
X139698Y18948D01*
X138835Y19611D01*
X137829Y20027D01*
X136750Y20169D01*
D02*
G37*
G36*
X36000Y17409D02*
X35078Y17225D01*
X34297Y16703D01*
X33775Y15922D01*
X33591Y15000D01*
X33775Y14078D01*
X34297Y13297D01*
X35078Y12775D01*
X36000Y12592D01*
X36922Y12775D01*
X37703Y13297D01*
X38225Y14078D01*
X38408Y15000D01*
X38225Y15922D01*
X37703Y16703D01*
X36922Y17225D01*
X36000Y17409D01*
D02*
G37*
G36*
X189466Y80513D02*
X188544Y80329D01*
X187763Y79807D01*
X187241Y79026D01*
X187058Y78104D01*
X187241Y77183D01*
X187763Y76401D01*
X188544Y75879D01*
X189466Y75696D01*
X190388Y75879D01*
X191169Y76401D01*
X191691Y77183D01*
X191875Y78104D01*
X191691Y79026D01*
X191169Y79807D01*
X190388Y80329D01*
X189466Y80513D01*
D02*
G37*
G36*
X158250Y83266D02*
X157329Y83082D01*
X156547Y82560D01*
X156025Y81779D01*
X155842Y80857D01*
X156025Y79935D01*
X156547Y79154D01*
X157329Y78632D01*
X158250Y78449D01*
X159172Y78632D01*
X159953Y79154D01*
X160476Y79935D01*
X160659Y80857D01*
X160476Y81779D01*
X159953Y82560D01*
X159172Y83082D01*
X158250Y83266D01*
D02*
G37*
G36*
X158500Y44908D02*
X157578Y44725D01*
X156797Y44203D01*
X156551Y43834D01*
X155949D01*
X155703Y44203D01*
X154922Y44725D01*
X154000Y44908D01*
X153078Y44725D01*
X152297Y44203D01*
X151775Y43422D01*
X151592Y42500D01*
X151775Y41578D01*
X152297Y40797D01*
X153078Y40275D01*
X154000Y40091D01*
X154922Y40275D01*
X155703Y40797D01*
X155949Y41166D01*
X156551D01*
X156797Y40797D01*
X157578Y40275D01*
X158500Y40091D01*
X159422Y40275D01*
X160203Y40797D01*
X160725Y41578D01*
X160908Y42500D01*
X160725Y43422D01*
X160203Y44203D01*
X159422Y44725D01*
X158500Y44908D01*
D02*
G37*
G36*
X143000Y83408D02*
X142078Y83225D01*
X141297Y82703D01*
X140775Y81922D01*
X140592Y81000D01*
X140775Y80078D01*
X141297Y79297D01*
X141703Y79026D01*
Y73741D01*
X141833Y73088D01*
X142203Y72534D01*
X142794Y71943D01*
Y67699D01*
X142275Y66922D01*
X142092Y66000D01*
X142275Y65078D01*
X142797Y64297D01*
X143578Y63775D01*
X144500Y63591D01*
X145422Y63775D01*
X146203Y64297D01*
X146725Y65078D01*
X146908Y66000D01*
X146725Y66922D01*
X146206Y67699D01*
Y72378D01*
X146604Y72457D01*
X147385Y72979D01*
X147907Y73761D01*
X148091Y74682D01*
X147907Y75604D01*
X147385Y76385D01*
X146604Y76907D01*
X145682Y77091D01*
X145501Y77055D01*
X145115Y77372D01*
Y79914D01*
X145225Y80078D01*
X145408Y81000D01*
X145225Y81922D01*
X144703Y82703D01*
X143922Y83225D01*
X143000Y83408D01*
D02*
G37*
G36*
X213500Y6909D02*
X212578Y6725D01*
X211797Y6203D01*
X211275Y5422D01*
X211091Y4500D01*
X211275Y3578D01*
X211797Y2797D01*
X212578Y2275D01*
X213500Y2091D01*
X214422Y2275D01*
X215203Y2797D01*
X215725Y3578D01*
X215909Y4500D01*
X215725Y5422D01*
X215203Y6203D01*
X214422Y6725D01*
X213500Y6909D01*
D02*
G37*
G36*
X34500Y229409D02*
X33578Y229225D01*
X32797Y228703D01*
X32275Y227922D01*
X32092Y227000D01*
X32275Y226078D01*
X32797Y225297D01*
X33578Y224775D01*
X34500Y224591D01*
X35422Y224775D01*
X36203Y225297D01*
X36725Y226078D01*
X36909Y227000D01*
X36725Y227922D01*
X36203Y228703D01*
X35422Y229225D01*
X34500Y229409D01*
D02*
G37*
G36*
X33500Y234909D02*
X32578Y234725D01*
X31797Y234203D01*
X31275Y233422D01*
X31091Y232500D01*
X31275Y231578D01*
X31797Y230797D01*
X32578Y230275D01*
X33500Y230092D01*
X34422Y230275D01*
X35203Y230797D01*
X35725Y231578D01*
X35908Y232500D01*
X35725Y233422D01*
X35203Y234203D01*
X34422Y234725D01*
X33500Y234909D01*
D02*
G37*
G36*
X102000Y218408D02*
X101078Y218225D01*
X100297Y217703D01*
X99775Y216922D01*
X99591Y216000D01*
X99775Y215078D01*
X100297Y214297D01*
X101078Y213775D01*
X102000Y213592D01*
X102922Y213775D01*
X103703Y214297D01*
X104225Y215078D01*
X104409Y216000D01*
X104225Y216922D01*
X103703Y217703D01*
X102922Y218225D01*
X102000Y218408D01*
D02*
G37*
G36*
X29500Y227409D02*
X28578Y227225D01*
X27797Y226703D01*
X27275Y225922D01*
X27092Y225000D01*
X27275Y224078D01*
X27797Y223297D01*
X28578Y222775D01*
X29500Y222591D01*
X30422Y222775D01*
X31203Y223297D01*
X31725Y224078D01*
X31909Y225000D01*
X31725Y225922D01*
X31203Y226703D01*
X30422Y227225D01*
X29500Y227409D01*
D02*
G37*
G36*
X55500Y264632D02*
X54304Y264514D01*
X53153Y264165D01*
X52093Y263598D01*
X51164Y262836D01*
X50402Y261907D01*
X49835Y260847D01*
X49486Y259696D01*
X49368Y258500D01*
X49486Y257304D01*
X49835Y256153D01*
X50402Y255093D01*
X51164Y254164D01*
X52093Y253401D01*
X53153Y252835D01*
X54304Y252486D01*
X55500Y252368D01*
X56696Y252486D01*
X57847Y252835D01*
X58907Y253401D01*
X59836Y254164D01*
X60598Y255093D01*
X61165Y256153D01*
X61514Y257304D01*
X61632Y258500D01*
X61514Y259696D01*
X61165Y260847D01*
X60598Y261907D01*
X59836Y262836D01*
X58907Y263598D01*
X57847Y264165D01*
X56696Y264514D01*
X55500Y264632D01*
D02*
G37*
G36*
X191500Y305058D02*
X189770Y304922D01*
X188083Y304517D01*
X186480Y303853D01*
X185000Y302946D01*
X183681Y301819D01*
X182554Y300500D01*
X181648Y299020D01*
X180983Y297417D01*
X180578Y295730D01*
X180442Y294000D01*
X180578Y292270D01*
X180983Y290583D01*
X181648Y288980D01*
X182554Y287500D01*
X183681Y286181D01*
X185000Y285054D01*
X186480Y284148D01*
X188083Y283484D01*
X189770Y283078D01*
X191500Y282942D01*
X193230Y283078D01*
X194917Y283484D01*
X196520Y284148D01*
X198000Y285054D01*
X199319Y286181D01*
X200446Y287500D01*
X201353Y288980D01*
X202016Y290583D01*
X202422Y292270D01*
X202558Y294000D01*
X202422Y295730D01*
X202016Y297417D01*
X201353Y299020D01*
X200446Y300500D01*
X199319Y301819D01*
X198000Y302946D01*
X196520Y303853D01*
X194917Y304517D01*
X193230Y304922D01*
X191500Y305058D01*
D02*
G37*
G36*
X55500Y307939D02*
X54304Y307821D01*
X53153Y307472D01*
X52093Y306906D01*
X51164Y306143D01*
X50402Y305214D01*
X49835Y304154D01*
X49486Y303003D01*
X49368Y301807D01*
X49486Y300611D01*
X49835Y299461D01*
X50402Y298400D01*
X51164Y297471D01*
X52093Y296709D01*
X53153Y296142D01*
X54304Y295793D01*
X55500Y295675D01*
X56696Y295793D01*
X57847Y296142D01*
X58907Y296709D01*
X59836Y297471D01*
X60598Y298400D01*
X61165Y299461D01*
X61514Y300611D01*
X61632Y301807D01*
X61514Y303003D01*
X61165Y304154D01*
X60598Y305214D01*
X59836Y306143D01*
X58907Y306906D01*
X57847Y307472D01*
X56696Y307821D01*
X55500Y307939D01*
D02*
G37*
G36*
X37000Y305058D02*
X35270Y304922D01*
X33583Y304517D01*
X31980Y303853D01*
X30500Y302946D01*
X29181Y301819D01*
X28054Y300500D01*
X27147Y299020D01*
X26484Y297417D01*
X26078Y295730D01*
X25942Y294000D01*
X26078Y292270D01*
X26484Y290583D01*
X27147Y288980D01*
X28054Y287500D01*
X29181Y286181D01*
X30500Y285054D01*
X31980Y284148D01*
X33583Y283484D01*
X34526Y283257D01*
Y282743D01*
X33583Y282517D01*
X31980Y281853D01*
X30500Y280946D01*
X29181Y279819D01*
X28054Y278500D01*
X27147Y277020D01*
X26484Y275417D01*
X26078Y273730D01*
X25942Y272000D01*
X26078Y270270D01*
X26484Y268583D01*
X27147Y266980D01*
X28054Y265500D01*
X29181Y264181D01*
X30500Y263054D01*
X31980Y262147D01*
X33583Y261484D01*
X35270Y261078D01*
X37000Y260942D01*
X38730Y261078D01*
X40417Y261484D01*
X42020Y262147D01*
X43500Y263054D01*
X44819Y264181D01*
X45946Y265500D01*
X46852Y266980D01*
X47517Y268583D01*
X47922Y270270D01*
X48058Y272000D01*
X47922Y273730D01*
X47517Y275417D01*
X46852Y277020D01*
X45946Y278500D01*
X44819Y279819D01*
X43500Y280946D01*
X42020Y281853D01*
X40417Y282517D01*
X39474Y282743D01*
Y283257D01*
X40417Y283484D01*
X42020Y284148D01*
X43500Y285054D01*
X44819Y286181D01*
X45946Y287500D01*
X46852Y288980D01*
X47517Y290583D01*
X47922Y292270D01*
X48058Y294000D01*
X47922Y295730D01*
X47517Y297417D01*
X46852Y299020D01*
X45946Y300500D01*
X44819Y301819D01*
X43500Y302946D01*
X42020Y303853D01*
X40417Y304517D01*
X38730Y304922D01*
X37000Y305058D01*
D02*
G37*
G36*
X85000D02*
X83270Y304922D01*
X81583Y304517D01*
X79980Y303853D01*
X78500Y302946D01*
X77181Y301819D01*
X76054Y300500D01*
X75147Y299020D01*
X74484Y297417D01*
X74078Y295730D01*
X73942Y294000D01*
X74078Y292270D01*
X74484Y290583D01*
X75147Y288980D01*
X76054Y287500D01*
X77181Y286181D01*
X78500Y285054D01*
X79980Y284148D01*
X81583Y283484D01*
X83270Y283078D01*
X85000Y282942D01*
X86730Y283078D01*
X88417Y283484D01*
X90020Y284148D01*
X91500Y285054D01*
X92819Y286181D01*
X93946Y287500D01*
X94853Y288980D01*
X95517Y290583D01*
X95922Y292270D01*
X96058Y294000D01*
X95922Y295730D01*
X95517Y297417D01*
X94853Y299020D01*
X93946Y300500D01*
X92819Y301819D01*
X91500Y302946D01*
X90020Y303853D01*
X88417Y304517D01*
X86730Y304922D01*
X85000Y305058D01*
D02*
G37*
G36*
X177000Y163409D02*
X176078Y163225D01*
X175297Y162703D01*
X174775Y161922D01*
X174592Y161000D01*
X174775Y160078D01*
X175297Y159297D01*
X176078Y158775D01*
X177000Y158591D01*
X177922Y158775D01*
X178703Y159297D01*
X179225Y160078D01*
X179409Y161000D01*
X179225Y161922D01*
X178703Y162703D01*
X177922Y163225D01*
X177000Y163409D01*
D02*
G37*
G36*
X169000Y183408D02*
X168078Y183225D01*
X167297Y182703D01*
X166775Y181922D01*
X166592Y181000D01*
X166775Y180078D01*
X167297Y179297D01*
X168078Y178775D01*
X169000Y178592D01*
X169922Y178775D01*
X170703Y179297D01*
X171225Y180078D01*
X171408Y181000D01*
X171225Y181922D01*
X170703Y182703D01*
X169922Y183225D01*
X169000Y183408D01*
D02*
G37*
G36*
X200500Y144908D02*
X199578Y144725D01*
X198797Y144203D01*
X198275Y143422D01*
X198091Y142500D01*
X198275Y141578D01*
X198797Y140797D01*
X199578Y140275D01*
X200500Y140092D01*
X201422Y140275D01*
X202203Y140797D01*
X202725Y141578D01*
X202908Y142500D01*
X202725Y143422D01*
X202203Y144203D01*
X201422Y144725D01*
X200500Y144908D01*
D02*
G37*
G36*
X100500Y161908D02*
X99578Y161725D01*
X98797Y161203D01*
X98275Y160422D01*
X98092Y159500D01*
X98275Y158578D01*
X98797Y157797D01*
X99578Y157275D01*
X100500Y157091D01*
X101422Y157275D01*
X102203Y157797D01*
X102725Y158578D01*
X102909Y159500D01*
X102725Y160422D01*
X102203Y161203D01*
X101422Y161725D01*
X100500Y161908D01*
D02*
G37*
G36*
X45000Y184908D02*
X44078Y184725D01*
X43297Y184203D01*
X42775Y183422D01*
X42592Y182500D01*
X42775Y181578D01*
X43297Y180797D01*
X44078Y180275D01*
X45000Y180092D01*
X45922Y180275D01*
X46703Y180797D01*
X47225Y181578D01*
X47409Y182500D01*
X47225Y183422D01*
X46703Y184203D01*
X45922Y184725D01*
X45000Y184908D01*
D02*
G37*
G36*
X120000Y199908D02*
X119078Y199725D01*
X118297Y199203D01*
X117775Y198422D01*
X117592Y197500D01*
X117775Y196578D01*
X118297Y195797D01*
X119078Y195275D01*
X120000Y195091D01*
X120922Y195275D01*
X121703Y195797D01*
X122225Y196578D01*
X122408Y197500D01*
X122225Y198422D01*
X121703Y199203D01*
X120922Y199725D01*
X120000Y199908D01*
D02*
G37*
G36*
X102234Y200571D02*
X101312Y200387D01*
X100531Y199865D01*
X100009Y199084D01*
X99825Y198162D01*
X100009Y197240D01*
X100531Y196459D01*
X101312Y195937D01*
X102234Y195754D01*
X103156Y195937D01*
X103937Y196459D01*
X104459Y197240D01*
X104642Y198162D01*
X104459Y199084D01*
X103937Y199865D01*
X103156Y200387D01*
X102234Y200571D01*
D02*
G37*
G36*
X200000Y187408D02*
X199078Y187225D01*
X198297Y186703D01*
X197775Y185922D01*
X197591Y185000D01*
X197775Y184078D01*
X198297Y183297D01*
X199078Y182775D01*
X200000Y182591D01*
X200922Y182775D01*
X201703Y183297D01*
X202225Y184078D01*
X202409Y185000D01*
X202225Y185922D01*
X201703Y186703D01*
X200922Y187225D01*
X200000Y187408D01*
D02*
G37*
G36*
X31000Y206908D02*
X30078Y206725D01*
X29297Y206203D01*
X28775Y205422D01*
X28591Y204500D01*
X28775Y203578D01*
X29297Y202797D01*
X30067Y202282D01*
Y192690D01*
X29681Y192373D01*
X29500Y192409D01*
X28578Y192225D01*
X27797Y191703D01*
X27275Y190922D01*
X27092Y190000D01*
X27275Y189078D01*
X27797Y188297D01*
X28008Y188156D01*
X28021Y187700D01*
X27639Y187381D01*
X27500Y187408D01*
X26578Y187225D01*
X25797Y186703D01*
X25275Y185922D01*
X25091Y185000D01*
X25275Y184078D01*
X25797Y183297D01*
X26578Y182775D01*
X27411Y182609D01*
Y180899D01*
X27549Y180207D01*
X27940Y179621D01*
X67302Y140259D01*
X67297Y140203D01*
X66775Y139422D01*
X66592Y138500D01*
X66775Y137578D01*
X67297Y136797D01*
X68078Y136275D01*
X69000Y136091D01*
X69922Y136275D01*
X70703Y136797D01*
X71225Y137578D01*
X71408Y138500D01*
X71271Y139194D01*
X71599Y139694D01*
X77452D01*
X78078Y139275D01*
X79000Y139092D01*
X79922Y139275D01*
X80703Y139797D01*
X81225Y140578D01*
X81409Y141500D01*
X81225Y142422D01*
X80703Y143203D01*
X79922Y143725D01*
X80080Y144175D01*
X80500Y144091D01*
X81422Y144275D01*
X82199Y144794D01*
X82756D01*
X83024Y144294D01*
X82775Y143922D01*
X82591Y143000D01*
X82775Y142078D01*
X83297Y141297D01*
X83536Y141137D01*
X83585Y140640D01*
X77223Y134277D01*
X76831Y133691D01*
X76694Y133000D01*
Y90262D01*
X76831Y89571D01*
X77223Y88985D01*
X85485Y80723D01*
X86071Y80331D01*
X86762Y80194D01*
X108511D01*
X108705Y79694D01*
X108424Y79273D01*
X108294Y78620D01*
Y72699D01*
X107775Y71922D01*
X107591Y71000D01*
X107775Y70078D01*
X108297Y69297D01*
X109078Y68775D01*
X110000Y68591D01*
X110922Y68775D01*
X111703Y69297D01*
X112225Y70078D01*
X112408Y71000D01*
X112225Y71922D01*
X111706Y72699D01*
Y77914D01*
X113732Y79939D01*
X114194Y79748D01*
Y54305D01*
X114110Y54244D01*
X113430Y54363D01*
X113203Y54703D01*
X112422Y55225D01*
X111500Y55409D01*
X110578Y55225D01*
X109797Y54703D01*
X109275Y53922D01*
X109091Y53000D01*
X109275Y52078D01*
X109797Y51297D01*
X110578Y50775D01*
X111500Y50591D01*
X112422Y50775D01*
X113203Y51297D01*
X113430Y51637D01*
X114110Y51756D01*
X114194Y51695D01*
Y32498D01*
X113723Y32027D01*
X113331Y31441D01*
X113194Y30750D01*
X113331Y30059D01*
X113723Y29473D01*
X118473Y24723D01*
X119059Y24331D01*
X119750Y24194D01*
X120899D01*
X121014Y23915D01*
X121677Y23052D01*
X122540Y22389D01*
X123546Y21973D01*
X124625Y21831D01*
X125704Y21973D01*
X126710Y22389D01*
X127573Y23052D01*
X128236Y23915D01*
X128652Y24921D01*
X128788Y25950D01*
X129040Y26121D01*
X129230Y26215D01*
X130723Y24723D01*
X131309Y24331D01*
X132000Y24194D01*
X133024D01*
X133139Y23915D01*
X133802Y23052D01*
X134665Y22389D01*
X135671Y21973D01*
X136750Y21831D01*
X137829Y21973D01*
X138835Y22389D01*
X139698Y23052D01*
X140361Y23915D01*
X140777Y24921D01*
X140919Y26000D01*
X140777Y27079D01*
X140361Y28085D01*
X139698Y28948D01*
X138835Y29611D01*
X137829Y30027D01*
X136750Y30169D01*
X135671Y30027D01*
X134665Y29611D01*
X133802Y28948D01*
X133139Y28085D01*
X133136Y28077D01*
X132562Y27993D01*
X120806Y39748D01*
Y50821D01*
X120981Y50937D01*
X121306Y51014D01*
X144963Y27358D01*
X144848Y27079D01*
X144705Y26000D01*
X144848Y24921D01*
X145264Y23915D01*
X145927Y23052D01*
X146790Y22389D01*
X147796Y21973D01*
X148875Y21831D01*
X149954Y21973D01*
X150960Y22389D01*
X151823Y23052D01*
X152486Y23915D01*
X152902Y24921D01*
X153044Y26000D01*
X152902Y27079D01*
X152486Y28085D01*
X151823Y28948D01*
X150960Y29611D01*
X149954Y30027D01*
X148875Y30169D01*
X147796Y30027D01*
X147518Y29912D01*
X124306Y53123D01*
Y84979D01*
X124693Y85296D01*
X124962Y85243D01*
X125232Y85296D01*
X125275Y85078D01*
X125797Y84297D01*
X126578Y83775D01*
X126714Y83748D01*
X126694Y83646D01*
Y58500D01*
X126831Y57809D01*
X127223Y57223D01*
X157088Y27358D01*
X156973Y27079D01*
X156831Y26000D01*
X156973Y24921D01*
X157389Y23915D01*
X158052Y23052D01*
X158915Y22389D01*
X159921Y21973D01*
X161000Y21831D01*
X162079Y21973D01*
X163085Y22389D01*
X163948Y23052D01*
X164277Y23480D01*
X164744Y23268D01*
X164592Y22500D01*
X164775Y21578D01*
X165297Y20797D01*
X166078Y20275D01*
X167000Y20091D01*
X167922Y20275D01*
X168703Y20797D01*
X169225Y21578D01*
X169409Y22500D01*
X169225Y23422D01*
X168703Y24203D01*
X167922Y24725D01*
X167000Y24908D01*
X166078Y24725D01*
X165297Y24203D01*
X165229Y24102D01*
X164786Y24339D01*
X165027Y24921D01*
X165170Y26000D01*
X165027Y27079D01*
X164611Y28085D01*
X163948Y28948D01*
X163085Y29611D01*
X162079Y30027D01*
X161000Y30169D01*
X159921Y30027D01*
X159643Y29912D01*
X130306Y59248D01*
Y82898D01*
X131649Y84240D01*
X131905Y84623D01*
X132510Y84820D01*
X132578Y84775D01*
X133500Y84592D01*
X134422Y84775D01*
X135203Y85297D01*
X135725Y86078D01*
X135908Y87000D01*
X135725Y87922D01*
X135203Y88703D01*
X134422Y89225D01*
X133880Y89333D01*
X133908Y89476D01*
X133725Y90397D01*
X133203Y91179D01*
X132422Y91701D01*
X131500Y91884D01*
X130578Y91701D01*
X129797Y91179D01*
X129696Y91027D01*
X129198Y90978D01*
X128435Y91742D01*
Y94687D01*
X128935Y94839D01*
X129297Y94297D01*
X130078Y93775D01*
X131000Y93591D01*
X131922Y93775D01*
X132703Y94297D01*
X133225Y95078D01*
X133408Y96000D01*
X133225Y96922D01*
X132703Y97703D01*
X131922Y98225D01*
X131280Y98353D01*
X131409Y99000D01*
X131225Y99922D01*
X130703Y100703D01*
X129922Y101225D01*
X129000Y101409D01*
X128821Y101373D01*
X128435Y101690D01*
Y106734D01*
X130198Y108498D01*
X130696Y108449D01*
X130797Y108297D01*
X131578Y107775D01*
X131836Y107724D01*
X131836Y107721D01*
X131888Y107203D01*
X131234Y106766D01*
X130712Y105985D01*
X130528Y105063D01*
X130712Y104141D01*
X131234Y103360D01*
X132015Y102838D01*
X132937Y102655D01*
X133859Y102838D01*
X134485Y103257D01*
X175937D01*
X176628Y103394D01*
X177214Y103786D01*
X177431Y104002D01*
X177822Y104588D01*
X177960Y105280D01*
Y107258D01*
X178379Y107885D01*
X178562Y108806D01*
X178379Y109728D01*
X177857Y110509D01*
X177075Y111031D01*
X176154Y111215D01*
X175232Y111031D01*
X174451Y110509D01*
X173928Y109728D01*
X173745Y108806D01*
X173928Y107885D01*
X174273Y107369D01*
X174097Y106869D01*
X142471D01*
X142346Y107070D01*
X142282Y107369D01*
X155505Y120593D01*
X156422Y120775D01*
X157203Y121297D01*
X157725Y122078D01*
X157908Y123000D01*
X157771Y123694D01*
X158099Y124194D01*
X163500D01*
X164191Y124331D01*
X164777Y124723D01*
X165169Y125309D01*
X165306Y126000D01*
X165169Y126691D01*
X164777Y127277D01*
X164191Y127669D01*
X163500Y127806D01*
X156734D01*
X156191Y128169D01*
X155500Y128306D01*
X150854D01*
X150163Y128169D01*
X150092Y128121D01*
X149703Y128703D01*
X149551Y128804D01*
X149503Y129302D01*
X156394Y136194D01*
X193452D01*
X194078Y135775D01*
X195000Y135591D01*
X195922Y135775D01*
X196703Y136297D01*
X197225Y137078D01*
X197408Y138000D01*
X197225Y138922D01*
X196703Y139703D01*
X195922Y140225D01*
X195000Y140409D01*
X194078Y140225D01*
X193452Y139806D01*
X169165D01*
X168847Y140193D01*
X168909Y140500D01*
X168725Y141422D01*
X168203Y142203D01*
X167422Y142725D01*
X166500Y142909D01*
X165578Y142725D01*
X164797Y142203D01*
X164275Y141422D01*
X164092Y140500D01*
X164153Y140193D01*
X163835Y139806D01*
X155646D01*
X154955Y139669D01*
X154369Y139277D01*
X144351Y129260D01*
X143959Y128674D01*
X143920Y128474D01*
X139380Y123935D01*
X135190D01*
X134775Y124411D01*
X134841Y124743D01*
X134658Y125665D01*
X134239Y126292D01*
Y131758D01*
X143666D01*
X144357Y131896D01*
X144943Y132287D01*
X162606Y149950D01*
X162997Y150536D01*
X163135Y151227D01*
Y161734D01*
X163466Y162065D01*
X165172D01*
X165863Y162203D01*
X166449Y162594D01*
X180082Y176228D01*
X180822Y176375D01*
X181603Y176897D01*
X182125Y177678D01*
X182125Y177679D01*
X182635D01*
X182675Y177478D01*
X183197Y176697D01*
X183978Y176175D01*
X184900Y175991D01*
X185822Y176175D01*
X186603Y176697D01*
X187125Y177478D01*
X187205Y177880D01*
X187715D01*
X187775Y177578D01*
X188297Y176797D01*
X189078Y176275D01*
X190000Y176092D01*
X190922Y176275D01*
X191703Y176797D01*
X191949Y177165D01*
X192551D01*
X192797Y176797D01*
X193578Y176275D01*
X194500Y176092D01*
X195422Y176275D01*
X196203Y176797D01*
X196725Y177578D01*
X196908Y178500D01*
X196725Y179422D01*
X196203Y180203D01*
X195422Y180725D01*
X194500Y180909D01*
X193578Y180725D01*
X192797Y180203D01*
X192551Y179834D01*
X191949D01*
X191703Y180203D01*
X190922Y180725D01*
X190000Y180909D01*
X189078Y180725D01*
X188297Y180203D01*
X187775Y179422D01*
X187695Y179020D01*
X187185D01*
X187125Y179322D01*
X186603Y180103D01*
X185822Y180625D01*
X184900Y180808D01*
X183978Y180625D01*
X183197Y180103D01*
X182675Y179322D01*
X182675Y179321D01*
X182165D01*
X182125Y179522D01*
X181603Y180303D01*
X180822Y180825D01*
X179900Y181009D01*
X178978Y180825D01*
X178197Y180303D01*
X177675Y179522D01*
X177528Y178782D01*
X164423Y165678D01*
X162718D01*
X162026Y165541D01*
X161440Y165149D01*
X160051Y163760D01*
X159660Y163174D01*
X159522Y162482D01*
Y151976D01*
X154158Y146612D01*
X153539Y146700D01*
X153203Y147203D01*
X152422Y147725D01*
X151500Y147908D01*
X151409Y148000D01*
X151225Y148922D01*
X150703Y149703D01*
X149922Y150225D01*
X149000Y150408D01*
X148078Y150225D01*
X147297Y149703D01*
X146775Y148922D01*
X146591Y148000D01*
X146658Y147667D01*
X145861Y147508D01*
X145080Y146986D01*
X145052Y146944D01*
X144552Y147096D01*
Y147648D01*
X145071Y148424D01*
X145255Y149346D01*
X145071Y150268D01*
X144549Y151049D01*
X143768Y151571D01*
X142846Y151755D01*
X141925Y151571D01*
X141143Y151049D01*
X140621Y150268D01*
X140438Y149346D01*
X140621Y148424D01*
X141140Y147648D01*
Y142553D01*
X140293Y141706D01*
X127272D01*
X127081Y142168D01*
X128005Y143093D01*
X128922Y143275D01*
X129500Y143661D01*
X130078Y143275D01*
X131000Y143091D01*
X131922Y143275D01*
X132352Y143562D01*
X132750Y143772D01*
X133148Y143562D01*
X133578Y143275D01*
X134500Y143091D01*
X135422Y143275D01*
X136203Y143797D01*
X136725Y144578D01*
X136908Y145500D01*
X136725Y146422D01*
X136203Y147203D01*
X135422Y147725D01*
X134979Y147813D01*
Y149442D01*
X134849Y150094D01*
X134479Y150648D01*
X132564Y152564D01*
X132010Y152934D01*
X131357Y153063D01*
X124179D01*
X123526Y152934D01*
X122973Y152564D01*
X122784Y152374D01*
X111971D01*
X110804Y153541D01*
X110251Y153911D01*
X109598Y154041D01*
X106402D01*
X105749Y153911D01*
X105196Y153541D01*
X100455Y148800D01*
X100078Y148725D01*
X99297Y148203D01*
X98775Y147422D01*
X98592Y146500D01*
X98775Y145578D01*
X99297Y144797D01*
X99315Y144785D01*
X99170Y144306D01*
X93330D01*
X93185Y144785D01*
X93203Y144797D01*
X93725Y145578D01*
X93909Y146500D01*
X93725Y147422D01*
X93203Y148203D01*
X92422Y148725D01*
X91500Y148908D01*
X90578Y148725D01*
X89801Y148206D01*
X82199D01*
X81422Y148725D01*
X80500Y148908D01*
X79578Y148725D01*
X78797Y148203D01*
X78275Y147422D01*
X78092Y146500D01*
X78275Y145578D01*
X78797Y144797D01*
X79578Y144275D01*
X79420Y143825D01*
X79000Y143909D01*
X78078Y143725D01*
X77452Y143306D01*
X69364D01*
X33092Y179579D01*
X33141Y180077D01*
X33292Y180178D01*
X33814Y180959D01*
X33996Y181876D01*
X40915Y188794D01*
X48691D01*
X48906Y188651D01*
X49558Y188521D01*
X97210D01*
X97578Y188275D01*
X98500Y188092D01*
X99422Y188275D01*
X100203Y188797D01*
X100725Y189578D01*
X100909Y190500D01*
X100725Y191422D01*
X100203Y192203D01*
X99422Y192725D01*
X98500Y192909D01*
X97578Y192725D01*
X96797Y192203D01*
X96616Y191933D01*
X54684D01*
X54296Y192433D01*
X54409Y193000D01*
X54225Y193922D01*
X53703Y194703D01*
X52922Y195225D01*
X52000Y195408D01*
X51078Y195225D01*
X50297Y194703D01*
X49775Y193922D01*
X49591Y193000D01*
X49681Y192551D01*
X49387Y192257D01*
X49240Y192206D01*
X40208D01*
X39555Y192076D01*
X39002Y191706D01*
X33941Y186646D01*
X33479Y186837D01*
Y203727D01*
X33367Y204291D01*
X33408Y204500D01*
X33225Y205422D01*
X32703Y206203D01*
X31922Y206725D01*
X31000Y206908D01*
D02*
G37*
%LPD*%
G36*
X114521Y133192D02*
Y130058D01*
X114651Y129405D01*
X115021Y128852D01*
X116352Y127521D01*
X116905Y127151D01*
X117558Y127021D01*
X122794D01*
Y122809D01*
X122651Y122594D01*
X122521Y121942D01*
Y112687D01*
X122059Y112496D01*
X112777Y121777D01*
X112191Y122169D01*
X111500Y122306D01*
X96548D01*
X95922Y122725D01*
X95000Y122908D01*
X94078Y122725D01*
X93297Y122203D01*
X92775Y121422D01*
X92592Y120500D01*
X92775Y119578D01*
X93297Y118797D01*
X94078Y118275D01*
X95000Y118091D01*
X95922Y118275D01*
X96548Y118694D01*
X110752D01*
X120194Y109252D01*
Y98013D01*
X120091Y97500D01*
X120220Y96853D01*
X119578Y96725D01*
X118797Y96203D01*
X118275Y95422D01*
X118091Y94500D01*
X118275Y93578D01*
X118797Y92797D01*
X119578Y92275D01*
X120500Y92092D01*
X121422Y92275D01*
X122021Y92675D01*
X122521Y92441D01*
Y89699D01*
X122134Y89382D01*
X122000Y89408D01*
X121078Y89225D01*
X120500Y88839D01*
X119922Y89225D01*
X119000Y89408D01*
X118078Y89225D01*
X117500Y88839D01*
X116922Y89225D01*
X116000Y89408D01*
X115078Y89225D01*
X114852Y89074D01*
X114480Y89148D01*
X108741Y94887D01*
X108804Y95530D01*
X109203Y95797D01*
X109725Y96578D01*
X109908Y97500D01*
X109725Y98422D01*
X109203Y99203D01*
X108422Y99725D01*
X107500Y99909D01*
X106578Y99725D01*
X105797Y99203D01*
X105530Y98804D01*
X104887Y98741D01*
X102694Y100933D01*
X102141Y101303D01*
X101488Y101433D01*
X91925D01*
X91149Y101952D01*
X90227Y102135D01*
X89305Y101952D01*
X88524Y101430D01*
X88002Y100648D01*
X87818Y99727D01*
X88002Y98805D01*
X88524Y98024D01*
X89305Y97502D01*
X90227Y97318D01*
X91149Y97502D01*
X91925Y98021D01*
X100781D01*
X109499Y89303D01*
X109450Y88805D01*
X109297Y88703D01*
X109250Y88633D01*
X108750D01*
X108703Y88703D01*
X107922Y89225D01*
X107000Y89408D01*
X106078Y89225D01*
X105297Y88703D01*
X104775Y87922D01*
X104592Y87000D01*
X104775Y86078D01*
X104941Y85830D01*
X104705Y85389D01*
X103522D01*
X103266Y85801D01*
X103268Y85889D01*
X103446Y86783D01*
X103263Y87705D01*
X102741Y88486D01*
X101960Y89009D01*
X101816Y89037D01*
X101909Y89500D01*
X101725Y90422D01*
X101203Y91203D01*
X100422Y91725D01*
X99500Y91909D01*
X98578Y91725D01*
X97797Y91203D01*
X97417Y90634D01*
X97095Y90849D01*
X96442Y90979D01*
X94558D01*
X93906Y90849D01*
X93352Y90479D01*
X92020Y89148D01*
X91651Y88595D01*
X91521Y87942D01*
Y87170D01*
X88904D01*
X83943Y92130D01*
Y127021D01*
X106990D01*
X107643Y127151D01*
X108196Y127521D01*
X114059Y133383D01*
X114521Y133192D01*
D02*
G37*
%LPC*%
G36*
X90500Y115409D02*
X89578Y115225D01*
X88797Y114703D01*
X88275Y113922D01*
X88091Y113000D01*
X88275Y112078D01*
X88797Y111297D01*
X89578Y110775D01*
X90500Y110591D01*
X91422Y110775D01*
X92203Y111297D01*
X92725Y112078D01*
X92909Y113000D01*
X92725Y113922D01*
X92203Y114703D01*
X91422Y115225D01*
X90500Y115409D01*
D02*
G37*
%LPD*%
D32*
X188500Y218000D02*
X217500D01*
X155344Y187475D02*
X166350Y198481D01*
X226000Y48489D02*
X226994Y47495D01*
X226000Y48489D02*
Y48500D01*
X224856Y45356D02*
X226994Y47495D01*
X141982Y117628D02*
X150854Y126500D01*
X145628Y127628D02*
Y127982D01*
X140128Y122128D02*
X145628Y127628D01*
X143666Y133565D02*
X161328Y151227D01*
X132500Y133565D02*
X143666D01*
X161328Y151227D02*
Y162482D01*
X116000Y31750D02*
Y87000D01*
X115000Y30750D02*
X116000Y31750D01*
X111000Y82000D02*
Y87000D01*
X128500Y83646D02*
X130372Y85518D01*
Y87250D01*
X126628Y90993D02*
Y107482D01*
X122000Y98000D02*
X122500Y97500D01*
X132937Y105063D02*
X175937D01*
X126628Y90993D02*
X130372Y87250D01*
X128500Y58500D02*
Y83646D01*
X122500Y52375D02*
Y86500D01*
X122000Y87000D02*
X122500Y86500D01*
X119000Y39000D02*
Y87000D01*
X155500Y126500D02*
X156000Y126000D01*
X163500D01*
X142104Y219104D02*
X161500Y238500D01*
X142104Y215896D02*
Y219104D01*
X132500Y190000D02*
X139000D01*
X120000Y190354D02*
X123646Y194000D01*
X161500Y238500D02*
Y262500D01*
X115628Y267128D02*
X116000Y267500D01*
X118000Y239500D02*
X156000Y277500D01*
X123646Y194000D02*
X130000D01*
X120000Y190000D02*
Y190354D01*
X129493Y198546D02*
X130000Y198040D01*
Y194000D02*
Y198040D01*
X119000Y39000D02*
X132000Y26000D01*
X109781Y145781D02*
X110000Y146000D01*
X107628Y148106D02*
X108000Y148477D01*
X107628Y145018D02*
Y148106D01*
Y145018D02*
X108000Y144646D01*
Y142500D02*
Y144646D01*
X109781Y141762D02*
Y145781D01*
X77500Y28921D02*
Y59500D01*
Y9500D02*
X83500Y3500D01*
X77500Y9500D02*
Y26213D01*
X77872Y26585D01*
Y28549D01*
X77500Y28921D02*
X77872Y28549D01*
X77500Y59500D02*
X78000D01*
X224856Y27144D02*
Y45356D01*
X126628Y107482D02*
X130500Y111354D01*
X122000Y98000D02*
Y110000D01*
X111500Y120500D02*
X122000Y110000D01*
X95000Y120500D02*
X111500D01*
X29217Y180899D02*
X68616Y141500D01*
X29217Y180899D02*
Y182863D01*
X29872Y183518D01*
Y189628D01*
X29500Y190000D02*
X29872Y189628D01*
X129872Y126372D02*
X130000Y126500D01*
X129872Y123525D02*
Y126372D01*
X132432Y124743D02*
Y132634D01*
X132018Y117628D02*
X141982D01*
X130262Y119384D02*
X132018Y117628D01*
X130500Y111354D02*
Y115000D01*
X131268Y122128D02*
X131774D01*
X132018Y122372D01*
X133982D01*
X134226Y122128D01*
X140128D01*
X129872Y123525D02*
X131268Y122128D01*
X132250Y132816D02*
X132432Y132634D01*
X130262Y119384D02*
Y120616D01*
X129877Y121000D02*
X130262Y120616D01*
X126500Y121000D02*
X129877D01*
X95500Y83781D02*
Y87000D01*
X86762Y82000D02*
X111000D01*
X145628Y127982D02*
X155646Y138000D01*
X195000D01*
X150854Y126500D02*
X155500D01*
X166350Y198481D02*
Y199144D01*
X167739Y200534D01*
X128500Y58500D02*
X161000Y26000D01*
X132250Y133315D02*
X132500Y133565D01*
X132250Y133315D02*
X132500Y133065D01*
X132250Y132816D02*
X132500Y133065D01*
X161328Y162482D02*
X162718Y163872D01*
X165172D01*
X108738Y140719D02*
X109781Y141762D01*
X122500Y52375D02*
X148875Y26000D01*
X132000D02*
X136750D01*
X119750D02*
X124625D01*
X115000Y30750D02*
X119750Y26000D01*
X78500Y90262D02*
X86762Y82000D01*
X170369Y199869D02*
X188500Y218000D01*
X170369Y199869D02*
X170369D01*
X169704Y200534D02*
X170369Y199869D01*
X141525Y187475D02*
X155344D01*
X139000Y190000D02*
X141525Y187475D01*
X80281Y91000D02*
Y132262D01*
X78500Y90262D02*
Y133000D01*
X87500Y83781D02*
X95500D01*
X80281Y91000D02*
X87500Y83781D01*
X167739Y200534D02*
X169704D01*
X176154Y105280D02*
Y108806D01*
X175937Y105063D02*
X176154Y105280D01*
X165172Y163872D02*
X179900Y178600D01*
X68616Y141500D02*
X79000D01*
X80281Y132262D02*
X88738Y140719D01*
X108738D01*
X78500Y133000D02*
X88000Y142500D01*
X108000D01*
X115628Y217518D02*
X116000Y217146D01*
X115628Y217518D02*
Y267128D01*
X118000Y218500D02*
Y239500D01*
X120500Y213000D02*
Y213489D01*
X116000Y213000D02*
X119525D01*
X116000Y205884D02*
Y213000D01*
Y217146D01*
X208500Y95500D02*
Y109500D01*
X203500Y114500D02*
X208500Y109500D01*
X195500Y82500D02*
X208500Y95500D01*
X183890Y72000D02*
X183945Y72055D01*
X173683Y73817D02*
X179683D01*
X173500Y74000D02*
X173683Y73817D01*
X108278Y198162D02*
X116000Y205884D01*
X183945Y69055D02*
X184325Y68675D01*
X181500Y68500D02*
X181675Y68675D01*
X184325D01*
X185325D02*
X185500Y68500D01*
X188000Y71610D02*
X188445Y72055D01*
X186000Y69000D02*
X188500D01*
X181500Y68500D02*
Y69000D01*
Y72000D01*
X179683Y73817D02*
X181500Y72000D01*
X183945Y72055D02*
X188445D01*
X181500Y72000D02*
X183890D01*
X183945Y69055D02*
Y72055D01*
X184325Y68675D02*
X185325D01*
X185500Y68500D02*
X186000Y69000D01*
X188500D02*
Y72000D01*
X188445Y72055D02*
X188500Y72000D01*
D33*
X225500Y80360D02*
Y228000D01*
Y80360D02*
X226994Y78865D01*
Y47495D02*
Y59135D01*
Y27000D02*
Y47495D01*
X220313Y65816D02*
X226994Y59135D01*
X220313Y65816D02*
Y72184D01*
X226994Y78865D01*
D34*
X210500Y282179D02*
X214000D01*
X207000D02*
X210500D01*
X123000Y287500D02*
X126000D01*
X120000D02*
X123000D01*
X117000D02*
X120000D01*
X114000D02*
X117000D01*
X106500D02*
X114000D01*
D35*
X162000Y284000D02*
X163773Y282227D01*
X160404Y199104D02*
X169000Y207699D01*
X160404Y196590D02*
Y199104D01*
X144227Y202227D02*
X156000Y214000D01*
X154657Y190843D02*
X160404Y196590D01*
X169000Y207699D02*
Y214500D01*
X28988Y80273D02*
X78113D01*
X190000Y89500D02*
X192500D01*
X176000Y75500D02*
X190000Y89500D01*
X186000Y110500D02*
X186500D01*
X180500Y116000D02*
X186000Y110500D01*
X144430Y142930D02*
X146783Y145283D01*
X148500Y147500D02*
X149000Y148000D01*
X149056Y147944D01*
X150641Y144641D02*
X151500Y145500D01*
X142846Y141846D02*
Y149346D01*
X133273Y146727D02*
X134500Y145500D01*
X127992Y148500D02*
X131000D01*
X117898Y147500D02*
X125777D01*
X124146Y149084D02*
X124836Y149773D01*
X110608Y149084D02*
X124146D01*
X123490Y150669D02*
X124179Y151357D01*
X111264Y150669D02*
X123490D01*
X124836Y149773D02*
X126719D01*
X124179Y151357D02*
X131357D01*
X144430Y141190D02*
Y142930D01*
X90227Y99727D02*
X101488D01*
X113273Y87942D01*
Y81894D02*
Y87942D01*
X110000Y78620D02*
X113273Y81894D01*
X110000Y71000D02*
Y78620D01*
X107000Y83683D02*
Y87000D01*
X124227Y98988D02*
Y121942D01*
Y98988D02*
X124773Y98442D01*
X124227Y121942D02*
X124500Y122215D01*
X124773Y96558D02*
Y98442D01*
X124849Y87651D02*
X124962D01*
X118500Y131000D02*
Y135312D01*
X142104Y195889D02*
Y215896D01*
X163773Y238394D02*
Y282227D01*
X162000Y236620D02*
X163773Y238394D01*
X162000Y218000D02*
Y236620D01*
X139000Y198500D02*
Y202000D01*
X133611Y195889D02*
X142104D01*
X133500Y196000D02*
X133611Y195889D01*
X144227Y198656D02*
Y202227D01*
Y198656D02*
X145013Y197870D01*
Y196272D02*
Y197870D01*
Y196272D02*
X145500Y195785D01*
Y192000D02*
Y195785D01*
X123000Y190000D02*
X123500D01*
X29588Y48088D02*
X29942Y48442D01*
X29500Y48000D02*
X29588Y48088D01*
X29942Y48442D02*
Y54727D01*
X31273Y56058D01*
Y57942D01*
X29942Y59273D02*
X31273Y57942D01*
X23012Y59273D02*
X29942D01*
X10227Y72058D02*
X23012Y59273D01*
X10227Y72058D02*
Y74467D01*
X12000Y76240D01*
X47500Y82500D02*
X53000Y88000D01*
X27012Y80273D02*
X27058Y80227D01*
X24273Y80273D02*
X27012D01*
X101000Y146500D02*
Y146932D01*
X103962Y147462D02*
X105727Y149227D01*
X103962Y145807D02*
Y147462D01*
X108942Y150750D02*
X110608Y149084D01*
X107058Y150750D02*
X108942D01*
X105727Y149419D02*
X107058Y150750D01*
X109598Y152335D02*
X111264Y150669D01*
X106402Y152335D02*
X109598D01*
X101000Y146932D02*
X106402Y152335D01*
X107983Y137584D02*
X117898Y147500D01*
X118217Y143168D02*
X120048Y145000D01*
X117188Y143168D02*
X118217D01*
X110019Y136000D02*
X117188Y143168D01*
X106990Y128727D02*
X123263Y145000D01*
X116227Y135280D02*
X122531Y141584D01*
X124084D01*
X123188Y140000D02*
X141000D01*
X118500Y135312D02*
X123188Y140000D01*
X123844Y138416D02*
X141656D01*
X121500Y136072D02*
X123844Y138416D01*
X124500Y136831D02*
X142312D01*
X124500Y131000D02*
Y136831D01*
X169000Y74000D02*
X170285D01*
X172558Y76273D01*
X174442D01*
X175215Y75500D01*
X176000D01*
X47682Y56182D02*
X55442D01*
X57624Y54000D01*
X41500D02*
Y77631D01*
X24634Y77420D02*
X24846Y77631D01*
X22751Y77420D02*
X24634D01*
X21420Y78751D02*
X22751Y77420D01*
X21420Y78751D02*
Y80634D01*
X22751Y81966D01*
X23966D01*
X23693Y79693D02*
X24273Y80273D01*
X31773Y182065D02*
X40208Y190500D01*
X31589Y181881D02*
X31773Y182065D01*
X16000Y37500D02*
X18000D01*
Y46000D01*
X29000Y57000D01*
X86215Y3000D02*
Y44285D01*
X84442Y1227D02*
X86215Y3000D01*
X82558Y1227D02*
X84442D01*
X77785Y6000D02*
X82558Y1227D01*
X71000Y6000D02*
X77785D01*
X13000Y22500D02*
X22500Y13000D01*
Y6000D02*
Y13000D01*
Y6000D02*
X71000D01*
X124227Y88273D02*
X124849Y87651D01*
X124227Y96012D02*
X124773Y96558D01*
X124227Y88273D02*
Y96012D01*
X31773Y182065D02*
Y203727D01*
X31000Y204500D02*
X31773Y203727D01*
X121500Y131000D02*
Y136072D01*
X117558Y128727D02*
X124500D01*
Y122215D02*
Y128727D01*
X127500Y131000D02*
Y134994D01*
X127247Y135247D02*
X142969D01*
X127247D02*
X127500Y134994D01*
X116227Y130058D02*
X117558Y128727D01*
X123263Y145000D02*
X123500D01*
X126719Y149773D02*
X127992Y148500D01*
X124084Y141584D02*
X128000Y145500D01*
X133273Y146727D02*
Y149442D01*
X131357Y151357D02*
X133273Y149442D01*
X105727Y149227D02*
Y149419D01*
X116227Y130058D02*
Y135280D01*
X103000Y131000D02*
Y136000D01*
X82237Y128727D02*
X106990D01*
X100000Y131000D02*
Y133000D01*
X101416Y134416D02*
Y136656D01*
X100000Y133000D02*
X101416Y134416D01*
X97773Y86058D02*
Y87942D01*
X96442Y89273D02*
X97773Y87942D01*
X93227Y86058D02*
Y87942D01*
Y86058D02*
X93500Y85785D01*
Y85464D02*
Y85785D01*
X88197Y85464D02*
X93500D01*
X93227Y87942D02*
X94558Y89273D01*
X96442D01*
X97817Y83683D02*
X107000D01*
X97183Y84317D02*
X97817Y83683D01*
X97183Y84317D02*
Y85468D01*
X97773Y86058D01*
X167500Y288000D02*
X168000Y288500D01*
X150641Y142919D02*
Y144641D01*
X142969Y135247D02*
X150641Y142919D01*
X149056Y143576D02*
Y147944D01*
X142312Y136831D02*
X149056Y143576D01*
X141000Y140000D02*
X142846Y141846D01*
X141656Y138416D02*
X144430Y141190D01*
X123500Y190000D02*
X124000Y189500D01*
X103000Y136000D02*
X110019D01*
X82237Y91424D02*
X88197Y85464D01*
X82237Y91424D02*
Y128727D01*
X101416Y136656D02*
X102344Y137584D01*
X107983D01*
X12500Y73000D02*
Y74500D01*
X13358Y75358D01*
X141000Y108500D02*
X155500Y123000D01*
X139500Y110000D02*
X141000Y108500D01*
X132500Y110000D02*
X139500D01*
X80500Y146500D02*
X91500D01*
X78113Y80273D02*
X78693Y79693D01*
X13000Y22500D02*
Y34500D01*
X16000Y37500D01*
X23966Y81966D02*
X32000Y90000D01*
X28000Y82500D02*
X47500D01*
X27058Y80227D02*
X28942D01*
X28988Y80273D01*
X13358Y75358D02*
X36642D01*
X24846Y77631D02*
X41500D01*
X12000Y76240D02*
Y82000D01*
X125500Y215500D02*
X139000Y202000D01*
X118500Y215500D02*
X125500D01*
X177000Y90000D02*
X187000D01*
X162000Y95500D02*
X171500D01*
X177000Y90000D01*
X143000Y81000D02*
X143409Y80591D01*
Y73741D02*
Y80591D01*
X144500Y66000D02*
Y72650D01*
X143409Y73741D02*
X144500Y72650D01*
X40208Y190500D02*
X49285D01*
X98227Y190227D02*
X98500Y190500D01*
X49285D02*
X49558Y190227D01*
X98227D01*
X57624Y54000D02*
X62000D01*
X68000Y44000D02*
Y45000D01*
X29588Y48088D02*
X30135D01*
X63526Y49474D02*
X68000Y45000D01*
X30135Y48088D02*
X31521Y49474D01*
X63526D01*
X86215Y44285D02*
X86500Y44000D01*
X100000D01*
X68000D02*
X72500Y39500D01*
Y38500D02*
Y39500D01*
X56000Y78000D02*
X64500D01*
X55632Y77631D02*
X56000Y78000D01*
X41500Y77631D02*
X55632D01*
X44000Y52500D02*
X47682Y56182D01*
X43500Y52500D02*
X44000D01*
X41500Y54000D02*
X43000Y52500D01*
X43500D01*
D46*
X15500Y294000D02*
D03*
Y272000D02*
D03*
D48*
X112500Y6000D02*
D03*
X124625D02*
D03*
X136750D02*
D03*
X148875D02*
D03*
X161000D02*
D03*
D49*
X112500Y26000D02*
D03*
X124625D02*
D03*
X136750D02*
D03*
X148875D02*
D03*
X161000D02*
D03*
D50*
X225500Y228000D02*
D03*
D51*
X214000Y282179D02*
D03*
X217500Y218000D02*
D03*
X162000Y284000D02*
D03*
X158697Y288000D02*
D03*
X154000D02*
D03*
X162000Y288750D02*
D03*
X165000Y288000D02*
D03*
X60500Y228110D02*
D03*
X63500Y236500D02*
D03*
Y233000D02*
D03*
X207000Y282179D02*
D03*
X210500D02*
D03*
X126000Y287500D02*
D03*
X123000D02*
D03*
X120000D02*
D03*
X117000D02*
D03*
X114000D02*
D03*
X156000Y214000D02*
D03*
X154657Y190843D02*
D03*
X169000Y214500D02*
D03*
X226000Y48500D02*
D03*
X231500Y58500D02*
D03*
Y61500D02*
D03*
X229000Y60000D02*
D03*
Y57000D02*
D03*
Y48000D02*
D03*
X231500Y49500D02*
D03*
X229000Y51000D02*
D03*
Y54000D02*
D03*
X231500Y52500D02*
D03*
Y55500D02*
D03*
X79018Y71482D02*
D03*
X64000Y72500D02*
D03*
X69000Y115500D02*
D03*
X192500Y89500D02*
D03*
X186500Y110500D02*
D03*
X180500Y116000D02*
D03*
X146783Y145283D02*
D03*
X149000Y148000D02*
D03*
X151500Y145500D02*
D03*
X142846Y149346D02*
D03*
X134500Y145500D02*
D03*
X131000Y148500D02*
D03*
X125777Y147500D02*
D03*
X116000Y87000D02*
D03*
X107000D02*
D03*
X111000D02*
D03*
X110000Y71000D02*
D03*
X122500Y97500D02*
D03*
X132937Y105063D02*
D03*
X124962Y87651D02*
D03*
X122000Y87000D02*
D03*
X119000D02*
D03*
X118500Y131000D02*
D03*
X163500Y126000D02*
D03*
X139000Y198500D02*
D03*
X145500Y192000D02*
D03*
X133500Y196000D02*
D03*
X132500Y190000D02*
D03*
X123000D02*
D03*
X162000Y218000D02*
D03*
X161500Y262500D02*
D03*
X116000Y267500D02*
D03*
X156000Y277500D02*
D03*
X129493Y198546D02*
D03*
X29500Y48000D02*
D03*
X91500Y146500D02*
D03*
X101000D02*
D03*
X103962Y145807D02*
D03*
X110000Y146000D02*
D03*
X108000Y148477D02*
D03*
X120048Y145000D02*
D03*
X169000Y74000D02*
D03*
X187500Y93500D02*
D03*
X32000Y90000D02*
D03*
X64500Y78000D02*
D03*
X98500Y190500D02*
D03*
X29000Y57000D02*
D03*
X22500Y13000D02*
D03*
X71000Y6000D02*
D03*
X83500Y3500D02*
D03*
X78000Y59500D02*
D03*
X224856Y27144D02*
D03*
X166000Y144000D02*
D03*
X95000Y120500D02*
D03*
X29500Y190000D02*
D03*
X121500Y131000D02*
D03*
X124500D02*
D03*
X129872Y126372D02*
D03*
X132432Y124743D02*
D03*
X130500Y115000D02*
D03*
X127500Y131000D02*
D03*
X123500Y145000D02*
D03*
X128000Y145500D02*
D03*
X31589Y181881D02*
D03*
X31000Y204500D02*
D03*
X103000Y131000D02*
D03*
X100000D02*
D03*
X95500Y87000D02*
D03*
X53000Y88000D02*
D03*
X90227Y99727D02*
D03*
X87000Y115000D02*
D03*
Y95000D02*
D03*
X195000Y138000D02*
D03*
X197000Y108000D02*
D03*
X173000Y119000D02*
D03*
X63000Y230000D02*
D03*
X126500Y121000D02*
D03*
X155500Y126500D02*
D03*
X106500Y287500D02*
D03*
X168000Y288500D02*
D03*
X36642Y75358D02*
D03*
X130000Y194000D02*
D03*
X120000Y190000D02*
D03*
X12500Y73000D02*
D03*
X23693Y79693D02*
D03*
X176154Y108806D02*
D03*
X155500Y123000D02*
D03*
X132500Y110000D02*
D03*
X179900Y178600D02*
D03*
X79000Y141500D02*
D03*
X80500Y146500D02*
D03*
X78693Y79693D02*
D03*
X13000Y34500D02*
D03*
X28000Y82500D02*
D03*
X12000Y82000D02*
D03*
X118000Y218500D02*
D03*
X118500Y215500D02*
D03*
X120500Y213000D02*
D03*
X203500Y114500D02*
D03*
X187000Y90000D02*
D03*
X195500Y82500D02*
D03*
X185000Y72055D02*
D03*
X173500Y74000D02*
D03*
X162000Y95500D02*
D03*
X143000Y81000D02*
D03*
X144500Y66000D02*
D03*
X132991Y161500D02*
D03*
X153464D02*
D03*
X112519Y166618D02*
D03*
Y161500D02*
D03*
X117637D02*
D03*
X122755D02*
D03*
X127873D02*
D03*
X138109D02*
D03*
X143228D02*
D03*
X148346D02*
D03*
X158582D02*
D03*
X163700D02*
D03*
X117637Y166618D02*
D03*
X122755D02*
D03*
X127873D02*
D03*
X132991D02*
D03*
X138109D02*
D03*
X143228D02*
D03*
X148346D02*
D03*
X153464D02*
D03*
X158582D02*
D03*
X163700D02*
D03*
X112519Y171736D02*
D03*
X117637D02*
D03*
X122755D02*
D03*
X127873D02*
D03*
X132991D02*
D03*
X138109D02*
D03*
X143228D02*
D03*
X148346D02*
D03*
X153464D02*
D03*
X158582D02*
D03*
X163700D02*
D03*
X112519Y176854D02*
D03*
X117637D02*
D03*
X122755D02*
D03*
X127873D02*
D03*
X132991D02*
D03*
X138109D02*
D03*
X143228D02*
D03*
X148346D02*
D03*
X153464D02*
D03*
X158582D02*
D03*
X163700D02*
D03*
X62000Y54000D02*
D03*
X100000Y44000D02*
D03*
X72500Y38500D02*
D03*
X56000Y78000D02*
D03*
X43500Y52500D02*
D03*
X108278Y198162D02*
D03*
X181500Y69000D02*
D03*
X185000D02*
D03*
X188500Y72055D02*
D03*
Y69000D02*
D03*
X181500Y72055D02*
D03*
D52*
X58287Y59413D02*
D03*
Y64138D02*
D03*
Y68862D02*
D03*
Y73587D02*
D03*
X53562Y59413D02*
D03*
Y64138D02*
D03*
Y68862D02*
D03*
Y73587D02*
D03*
X48838Y59413D02*
D03*
Y64138D02*
D03*
Y68862D02*
D03*
Y73587D02*
D03*
X44113Y59413D02*
D03*
Y64138D02*
D03*
Y68862D02*
D03*
Y73587D02*
D03*
D53*
X163303Y288000D02*
X167500D01*
X162553Y288750D02*
X163303Y288000D01*
X159447Y288750D02*
X162553D01*
X145000Y281000D02*
X152000Y288000D01*
X106000Y281000D02*
X145000D01*
X63000Y238000D02*
X106000Y281000D01*
X158697Y288000D02*
X159447Y288750D01*
X152000Y288000D02*
X158697D01*
X63000Y230000D02*
Y238000D01*
M02*
