G04 Layer_Color=32896*
%FSLAX25Y25*%
%MOIN*%
G70*
G01*
G75*
%ADD32C,0.01181*%
%ADD35C,0.00984*%
%ADD75C,0.01000*%
%ADD76C,0.00394*%
%ADD77C,0.00787*%
%ADD78C,0.00591*%
%ADD128R,0.10236X0.07437*%
%ADD129R,0.09449X0.03150*%
D32*
X204650Y101000D02*
Y112200D01*
X179059Y101000D02*
X204650D01*
X179059Y112200D02*
X204650D01*
X179059Y101000D02*
Y112200D01*
D35*
X1949Y66146D02*
G03*
X1949Y66146I-492J0D01*
G01*
X104847Y59957D02*
G03*
X104847Y59957I-492J0D01*
G01*
X69605Y45831D02*
G03*
X69605Y45831I-492J0D01*
G01*
D75*
X208076Y137584D02*
G03*
X208101Y136073I10424J-585D01*
G01*
X228882Y135902D02*
G03*
X228917Y137701I-10382J1098D01*
G01*
X22576Y248084D02*
G03*
X22601Y246573I10424J-585D01*
G01*
X43382Y246402D02*
G03*
X43417Y248201I-10382J1098D01*
G01*
X63900Y172800D02*
Y189800D01*
X98100Y172700D02*
Y189700D01*
X166300Y13700D02*
X224700D01*
Y57900D01*
X166300Y13700D02*
Y57900D01*
X224700D01*
X179176Y172800D02*
Y189800D01*
X213376Y172700D02*
Y189700D01*
X45299Y216374D02*
Y228776D01*
Y188224D02*
Y200626D01*
X2386Y228776D02*
X45299D01*
X2299Y216374D02*
Y228776D01*
X2186Y188076D02*
X45099D01*
X2199Y188224D02*
Y200626D01*
X44799Y146374D02*
Y158776D01*
Y118224D02*
Y130626D01*
X1886Y158776D02*
X44799D01*
X1799Y146374D02*
Y158776D01*
X1686Y118076D02*
X44599D01*
X1699Y118224D02*
Y130626D01*
D76*
X92200Y16529D02*
Y40129D01*
X78400Y16507D02*
Y40129D01*
X26188Y93140D02*
X26516Y93468D01*
X27172D01*
X27500Y93140D01*
Y91828D01*
X27172Y91500D01*
X26516D01*
X26188Y91828D01*
X24220Y93468D02*
X24876Y93140D01*
X25532Y92484D01*
Y91828D01*
X25204Y91500D01*
X24548D01*
X24220Y91828D01*
Y92156D01*
X24548Y92484D01*
X25532D01*
X23564Y91500D02*
X22908D01*
X23236D01*
Y93468D01*
X23564Y93140D01*
X170000Y186968D02*
Y185328D01*
X169672Y185000D01*
X169016D01*
X168688Y185328D01*
Y186968D01*
X166720Y185000D02*
X168032D01*
X166720Y186312D01*
Y186640D01*
X167048Y186968D01*
X167704D01*
X168032Y186640D01*
X60360Y221688D02*
X60032Y222016D01*
Y222672D01*
X60360Y223000D01*
X61672D01*
X62000Y222672D01*
Y222016D01*
X61672Y221688D01*
X62000Y220048D02*
X60032D01*
X61016Y221032D01*
Y219720D01*
X61672Y219064D02*
X62000Y218736D01*
Y218080D01*
X61672Y217752D01*
X60360D01*
X60032Y218080D01*
Y218736D01*
X60360Y219064D01*
X60688D01*
X61016Y218736D01*
Y217752D01*
X99500Y179000D02*
X101468D01*
Y179984D01*
X101140Y180312D01*
X100484D01*
X100156Y179984D01*
Y179000D01*
Y179656D02*
X99500Y180312D01*
X101140Y180968D02*
X101468Y181296D01*
Y181952D01*
X101140Y182280D01*
X100812D01*
X100484Y181952D01*
X100156Y182280D01*
X99828D01*
X99500Y181952D01*
Y181296D01*
X99828Y180968D01*
X100156D01*
X100484Y181296D01*
X100812Y180968D01*
X101140D01*
X100484Y181296D02*
Y181952D01*
X101468Y184248D02*
X101140Y183592D01*
X100484Y182936D01*
X99828D01*
X99500Y183264D01*
Y183920D01*
X99828Y184248D01*
X100156D01*
X100484Y183920D01*
Y182936D01*
X90000Y43468D02*
X88688Y41500D01*
Y43468D02*
X90000Y41500D01*
X88032Y43140D02*
X87704Y43468D01*
X87048D01*
X86720Y43140D01*
Y42812D01*
X87048Y42484D01*
X87376D01*
X87048D01*
X86720Y42156D01*
Y41828D01*
X87048Y41500D01*
X87704D01*
X88032Y41828D01*
X24000Y73968D02*
Y72328D01*
X23672Y72000D01*
X23016D01*
X22688Y72328D01*
Y73968D01*
X22032Y73640D02*
X21704Y73968D01*
X21048D01*
X20720Y73640D01*
Y73312D01*
X21048Y72984D01*
X20720Y72656D01*
Y72328D01*
X21048Y72000D01*
X21704D01*
X22032Y72328D01*
Y72656D01*
X21704Y72984D01*
X22032Y73312D01*
Y73640D01*
X21704Y72984D02*
X21048D01*
X69000Y88468D02*
Y86828D01*
X68672Y86500D01*
X68016D01*
X67688Y86828D01*
Y88468D01*
X67032D02*
X65720D01*
Y88140D01*
X67032Y86828D01*
Y86500D01*
X122500Y82968D02*
Y81328D01*
X122172Y81000D01*
X121516D01*
X121188Y81328D01*
Y82968D01*
X119220D02*
X119876Y82640D01*
X120532Y81984D01*
Y81328D01*
X120204Y81000D01*
X119548D01*
X119220Y81328D01*
Y81656D01*
X119548Y81984D01*
X120532D01*
X199828Y127489D02*
Y125849D01*
X199500Y125521D01*
X198844D01*
X198516Y125849D01*
Y127489D01*
X196548D02*
X197860D01*
Y126505D01*
X197204Y126833D01*
X196876D01*
X196548Y126505D01*
Y125849D01*
X196876Y125521D01*
X197532D01*
X197860Y125849D01*
X223500Y61468D02*
Y59828D01*
X223172Y59500D01*
X222516D01*
X222188Y59828D01*
Y61468D01*
X220548Y59500D02*
Y61468D01*
X221532Y60484D01*
X220220D01*
X214000Y233500D02*
Y235468D01*
X213016D01*
X212688Y235140D01*
Y234484D01*
X213016Y234156D01*
X214000D01*
X213344D02*
X212688Y233500D01*
X212032Y235140D02*
X211704Y235468D01*
X211048D01*
X210720Y235140D01*
Y234812D01*
X211048Y234484D01*
X210720Y234156D01*
Y233828D01*
X211048Y233500D01*
X211704D01*
X212032Y233828D01*
Y234156D01*
X211704Y234484D01*
X212032Y234812D01*
Y235140D01*
X211704Y234484D02*
X211048D01*
X208752Y233500D02*
X210064D01*
X208752Y234812D01*
Y235140D01*
X209080Y235468D01*
X209736D01*
X210064Y235140D01*
X225500Y228000D02*
X223532D01*
Y227016D01*
X223860Y226688D01*
X224516D01*
X224844Y227016D01*
Y228000D01*
Y227344D02*
X225500Y226688D01*
X223860Y226032D02*
X223532Y225704D01*
Y225048D01*
X223860Y224720D01*
X224188D01*
X224516Y225048D01*
X224844Y224720D01*
X225172D01*
X225500Y225048D01*
Y225704D01*
X225172Y226032D01*
X224844D01*
X224516Y225704D01*
X224188Y226032D01*
X223860D01*
X224516Y225704D02*
Y225048D01*
X223860Y224064D02*
X223532Y223736D01*
Y223080D01*
X223860Y222752D01*
X225172D01*
X225500Y223080D01*
Y223736D01*
X225172Y224064D01*
X223860D01*
X177000Y189500D02*
X175032D01*
Y188516D01*
X175360Y188188D01*
X176016D01*
X176344Y188516D01*
Y189500D01*
Y188844D02*
X177000Y188188D01*
X175032Y187532D02*
Y186220D01*
X175360D01*
X176672Y187532D01*
X177000D01*
X176672Y185564D02*
X177000Y185236D01*
Y184580D01*
X176672Y184252D01*
X175360D01*
X175032Y184580D01*
Y185236D01*
X175360Y185564D01*
X175688D01*
X176016Y185236D01*
Y184252D01*
X168500Y250500D02*
Y252468D01*
X167516D01*
X167188Y252140D01*
Y251484D01*
X167516Y251156D01*
X168500D01*
X167844D02*
X167188Y250500D01*
X166532Y252468D02*
X165220D01*
Y252140D01*
X166532Y250828D01*
Y250500D01*
X163252Y252468D02*
X163908Y252140D01*
X164564Y251484D01*
Y250828D01*
X164236Y250500D01*
X163580D01*
X163252Y250828D01*
Y251156D01*
X163580Y251484D01*
X164564D01*
X168500Y220500D02*
Y222468D01*
X167516D01*
X167188Y222140D01*
Y221484D01*
X167516Y221156D01*
X168500D01*
X167844D02*
X167188Y220500D01*
X166532Y222468D02*
X165220D01*
Y222140D01*
X166532Y220828D01*
Y220500D01*
X163252Y222468D02*
X164564D01*
Y221484D01*
X163908Y221812D01*
X163580D01*
X163252Y221484D01*
Y220828D01*
X163580Y220500D01*
X164236D01*
X164564Y220828D01*
X115000Y250000D02*
Y251968D01*
X114016D01*
X113688Y251640D01*
Y250984D01*
X114016Y250656D01*
X115000D01*
X114344D02*
X113688Y250000D01*
X113032Y251968D02*
X111720D01*
Y251640D01*
X113032Y250328D01*
Y250000D01*
X111064Y251640D02*
X110736Y251968D01*
X110080D01*
X109752Y251640D01*
Y251312D01*
X110080Y250984D01*
X110408D01*
X110080D01*
X109752Y250656D01*
Y250328D01*
X110080Y250000D01*
X110736D01*
X111064Y250328D01*
X115500Y220000D02*
Y221968D01*
X114516D01*
X114188Y221640D01*
Y220984D01*
X114516Y220656D01*
X115500D01*
X114844D02*
X114188Y220000D01*
X113532Y221968D02*
X112220D01*
Y221640D01*
X113532Y220328D01*
Y220000D01*
X111564D02*
X110908D01*
X111236D01*
Y221968D01*
X111564Y221640D01*
X38000Y100500D02*
Y102468D01*
X37016D01*
X36688Y102140D01*
Y101484D01*
X37016Y101156D01*
X38000D01*
X37344D02*
X36688Y100500D01*
X34720Y102468D02*
X35376Y102140D01*
X36032Y101484D01*
Y100828D01*
X35704Y100500D01*
X35048D01*
X34720Y100828D01*
Y101156D01*
X35048Y101484D01*
X36032D01*
X34064Y102140D02*
X33736Y102468D01*
X33080D01*
X32752Y102140D01*
Y101812D01*
X33080Y101484D01*
X32752Y101156D01*
Y100828D01*
X33080Y100500D01*
X33736D01*
X34064Y100828D01*
Y101156D01*
X33736Y101484D01*
X34064Y101812D01*
Y102140D01*
X33736Y101484D02*
X33080D01*
X51500Y102500D02*
Y104468D01*
X50516D01*
X50188Y104140D01*
Y103484D01*
X50516Y103156D01*
X51500D01*
X50844D02*
X50188Y102500D01*
X48220Y104468D02*
X48876Y104140D01*
X49532Y103484D01*
Y102828D01*
X49204Y102500D01*
X48548D01*
X48220Y102828D01*
Y103156D01*
X48548Y103484D01*
X49532D01*
X47564Y104468D02*
X46252D01*
Y104140D01*
X47564Y102828D01*
Y102500D01*
X19000Y81000D02*
Y82968D01*
X18016D01*
X17688Y82640D01*
Y81984D01*
X18016Y81656D01*
X19000D01*
X18344D02*
X17688Y81000D01*
X15720Y82968D02*
X16376Y82640D01*
X17032Y81984D01*
Y81328D01*
X16704Y81000D01*
X16048D01*
X15720Y81328D01*
Y81656D01*
X16048Y81984D01*
X17032D01*
X13752Y82968D02*
X14408Y82640D01*
X15064Y81984D01*
Y81328D01*
X14736Y81000D01*
X14080D01*
X13752Y81328D01*
Y81656D01*
X14080Y81984D01*
X15064D01*
X84000Y83000D02*
Y84968D01*
X83016D01*
X82688Y84640D01*
Y83984D01*
X83016Y83656D01*
X84000D01*
X83344D02*
X82688Y83000D01*
X80720Y84968D02*
X81376Y84640D01*
X82032Y83984D01*
Y83328D01*
X81704Y83000D01*
X81048D01*
X80720Y83328D01*
Y83656D01*
X81048Y83984D01*
X82032D01*
X78752Y84968D02*
X80064D01*
Y83984D01*
X79408Y84312D01*
X79080D01*
X78752Y83984D01*
Y83328D01*
X79080Y83000D01*
X79736D01*
X80064Y83328D01*
X48500Y29500D02*
Y31468D01*
X47516D01*
X47188Y31140D01*
Y30484D01*
X47516Y30156D01*
X48500D01*
X47844D02*
X47188Y29500D01*
X45220Y31468D02*
X45876Y31140D01*
X46532Y30484D01*
Y29828D01*
X46204Y29500D01*
X45548D01*
X45220Y29828D01*
Y30156D01*
X45548Y30484D01*
X46532D01*
X43580Y29500D02*
Y31468D01*
X44564Y30484D01*
X43252D01*
X22000Y32500D02*
Y34468D01*
X21016D01*
X20688Y34140D01*
Y33484D01*
X21016Y33156D01*
X22000D01*
X21344D02*
X20688Y32500D01*
X18720Y34468D02*
X19376Y34140D01*
X20032Y33484D01*
Y32828D01*
X19704Y32500D01*
X19048D01*
X18720Y32828D01*
Y33156D01*
X19048Y33484D01*
X20032D01*
X18064Y34140D02*
X17736Y34468D01*
X17080D01*
X16752Y34140D01*
Y33812D01*
X17080Y33484D01*
X17408D01*
X17080D01*
X16752Y33156D01*
Y32828D01*
X17080Y32500D01*
X17736D01*
X18064Y32828D01*
X7000Y26500D02*
X5032D01*
Y25516D01*
X5360Y25188D01*
X6016D01*
X6344Y25516D01*
Y26500D01*
Y25844D02*
X7000Y25188D01*
X5032Y23220D02*
X5360Y23876D01*
X6016Y24532D01*
X6672D01*
X7000Y24204D01*
Y23548D01*
X6672Y23220D01*
X6344D01*
X6016Y23548D01*
Y24532D01*
X7000Y21252D02*
Y22564D01*
X5688Y21252D01*
X5360D01*
X5032Y21580D01*
Y22236D01*
X5360Y22564D01*
X4500Y20500D02*
X2532D01*
Y19516D01*
X2860Y19188D01*
X3516D01*
X3844Y19516D01*
Y20500D01*
Y19844D02*
X4500Y19188D01*
X2532Y17220D02*
X2860Y17876D01*
X3516Y18532D01*
X4172D01*
X4500Y18204D01*
Y17548D01*
X4172Y17220D01*
X3844D01*
X3516Y17548D01*
Y18532D01*
X4500Y16564D02*
Y15908D01*
Y16236D01*
X2532D01*
X2860Y16564D01*
X98000Y57000D02*
Y58968D01*
X97016D01*
X96688Y58640D01*
Y57984D01*
X97016Y57656D01*
X98000D01*
X97344D02*
X96688Y57000D01*
X94720Y58968D02*
X95376Y58640D01*
X96032Y57984D01*
Y57328D01*
X95704Y57000D01*
X95048D01*
X94720Y57328D01*
Y57656D01*
X95048Y57984D01*
X96032D01*
X94064Y58640D02*
X93736Y58968D01*
X93080D01*
X92752Y58640D01*
Y57328D01*
X93080Y57000D01*
X93736D01*
X94064Y57328D01*
Y58640D01*
X108000Y43000D02*
Y44968D01*
X107016D01*
X106688Y44640D01*
Y43984D01*
X107016Y43656D01*
X108000D01*
X107344D02*
X106688Y43000D01*
X104720Y44968D02*
X106032D01*
Y43984D01*
X105376Y44312D01*
X105048D01*
X104720Y43984D01*
Y43328D01*
X105048Y43000D01*
X105704D01*
X106032Y43328D01*
X104064D02*
X103736Y43000D01*
X103080D01*
X102752Y43328D01*
Y44640D01*
X103080Y44968D01*
X103736D01*
X104064Y44640D01*
Y44312D01*
X103736Y43984D01*
X102752D01*
X93000Y83000D02*
Y84968D01*
X92016D01*
X91688Y84640D01*
Y83984D01*
X92016Y83656D01*
X93000D01*
X92344D02*
X91688Y83000D01*
X89720Y84968D02*
X91032D01*
Y83984D01*
X90376Y84312D01*
X90048D01*
X89720Y83984D01*
Y83328D01*
X90048Y83000D01*
X90704D01*
X91032Y83328D01*
X89064Y84640D02*
X88736Y84968D01*
X88080D01*
X87752Y84640D01*
Y84312D01*
X88080Y83984D01*
X87752Y83656D01*
Y83328D01*
X88080Y83000D01*
X88736D01*
X89064Y83328D01*
Y83656D01*
X88736Y83984D01*
X89064Y84312D01*
Y84640D01*
X88736Y83984D02*
X88080D01*
X101500Y83000D02*
Y84968D01*
X100516D01*
X100188Y84640D01*
Y83984D01*
X100516Y83656D01*
X101500D01*
X100844D02*
X100188Y83000D01*
X98220Y84968D02*
X99532D01*
Y83984D01*
X98876Y84312D01*
X98548D01*
X98220Y83984D01*
Y83328D01*
X98548Y83000D01*
X99204D01*
X99532Y83328D01*
X97564Y84968D02*
X96252D01*
Y84640D01*
X97564Y83328D01*
Y83000D01*
X177500Y128000D02*
Y126032D01*
X178484D01*
X178812Y126360D01*
Y127016D01*
X178484Y127344D01*
X177500D01*
X178156D02*
X178812Y128000D01*
X180780Y126032D02*
X179468D01*
Y127016D01*
X180124Y126688D01*
X180452D01*
X180780Y127016D01*
Y127672D01*
X180452Y128000D01*
X179796D01*
X179468Y127672D01*
X181436Y126360D02*
X181764Y126032D01*
X182420D01*
X182748Y126360D01*
Y126688D01*
X182420Y127016D01*
X182092D01*
X182420D01*
X182748Y127344D01*
Y127672D01*
X182420Y128000D01*
X181764D01*
X181436Y127672D01*
X192500Y126500D02*
Y128468D01*
X191516D01*
X191188Y128140D01*
Y127484D01*
X191516Y127156D01*
X192500D01*
X191844D02*
X191188Y126500D01*
X189220Y128468D02*
X190532D01*
Y127484D01*
X189876Y127812D01*
X189548D01*
X189220Y127484D01*
Y126828D01*
X189548Y126500D01*
X190204D01*
X190532Y126828D01*
X187252Y126500D02*
X188564D01*
X187252Y127812D01*
Y128140D01*
X187580Y128468D01*
X188236D01*
X188564Y128140D01*
X175500Y152500D02*
X177468D01*
Y153484D01*
X177140Y153812D01*
X176484D01*
X176156Y153484D01*
Y152500D01*
Y153156D02*
X175500Y153812D01*
X177468Y155780D02*
Y154468D01*
X176484D01*
X176812Y155124D01*
Y155452D01*
X176484Y155780D01*
X175828D01*
X175500Y155452D01*
Y154796D01*
X175828Y154468D01*
X175500Y156436D02*
Y157092D01*
Y156764D01*
X177468D01*
X177140Y156436D01*
X158500Y134000D02*
X160468D01*
Y134984D01*
X160140Y135312D01*
X159484D01*
X159156Y134984D01*
Y134000D01*
Y134656D02*
X158500Y135312D01*
X160468Y137280D02*
Y135968D01*
X159484D01*
X159812Y136624D01*
Y136952D01*
X159484Y137280D01*
X158828D01*
X158500Y136952D01*
Y136296D01*
X158828Y135968D01*
X160140Y137936D02*
X160468Y138264D01*
Y138920D01*
X160140Y139248D01*
X158828D01*
X158500Y138920D01*
Y138264D01*
X158828Y137936D01*
X160140D01*
X163510Y135000D02*
X165478D01*
Y135984D01*
X165150Y136312D01*
X164494D01*
X164166Y135984D01*
Y135000D01*
Y135656D02*
X163510Y136312D01*
Y137952D02*
X165478D01*
X164494Y136968D01*
Y138280D01*
X163838Y138936D02*
X163510Y139264D01*
Y139920D01*
X163838Y140248D01*
X165150D01*
X165478Y139920D01*
Y139264D01*
X165150Y138936D01*
X164822D01*
X164494Y139264D01*
Y140248D01*
X144000Y85500D02*
Y87468D01*
X143016D01*
X142688Y87140D01*
Y86484D01*
X143016Y86156D01*
X144000D01*
X143344D02*
X142688Y85500D01*
X141048D02*
Y87468D01*
X142032Y86484D01*
X140720D01*
X140064Y87140D02*
X139736Y87468D01*
X139080D01*
X138752Y87140D01*
Y86812D01*
X139080Y86484D01*
X138752Y86156D01*
Y85828D01*
X139080Y85500D01*
X139736D01*
X140064Y85828D01*
Y86156D01*
X139736Y86484D01*
X140064Y86812D01*
Y87140D01*
X139736Y86484D02*
X139080D01*
X124000Y139500D02*
Y141468D01*
X123016D01*
X122688Y141140D01*
Y140484D01*
X123016Y140156D01*
X124000D01*
X123344D02*
X122688Y139500D01*
X121048D02*
Y141468D01*
X122032Y140484D01*
X120720D01*
X120064Y141468D02*
X118752D01*
Y141140D01*
X120064Y139828D01*
Y139500D01*
X160500Y77000D02*
X162468D01*
Y77984D01*
X162140Y78312D01*
X161484D01*
X161156Y77984D01*
Y77000D01*
Y77656D02*
X160500Y78312D01*
Y79952D02*
X162468D01*
X161484Y78968D01*
Y80280D01*
X162468Y82248D02*
X162140Y81592D01*
X161484Y80936D01*
X160828D01*
X160500Y81264D01*
Y81920D01*
X160828Y82248D01*
X161156D01*
X161484Y81920D01*
Y80936D01*
X170000Y88500D02*
X168032D01*
Y87516D01*
X168360Y87188D01*
X169016D01*
X169344Y87516D01*
Y88500D01*
Y87844D02*
X170000Y87188D01*
Y85548D02*
X168032D01*
X169016Y86532D01*
Y85220D01*
X168032Y83252D02*
Y84564D01*
X169016D01*
X168688Y83908D01*
Y83580D01*
X169016Y83252D01*
X169672D01*
X170000Y83580D01*
Y84236D01*
X169672Y84564D01*
X146439Y136618D02*
X144472D01*
Y135634D01*
X144799Y135306D01*
X145455D01*
X145783Y135634D01*
Y136618D01*
Y135962D02*
X146439Y135306D01*
Y133666D02*
X144472D01*
X145455Y134650D01*
Y133338D01*
X146439Y131698D02*
X144472D01*
X145455Y132682D01*
Y131370D01*
X145500Y100000D02*
Y101968D01*
X144516D01*
X144188Y101640D01*
Y100984D01*
X144516Y100656D01*
X145500D01*
X144844D02*
X144188Y100000D01*
X142548D02*
Y101968D01*
X143532Y100984D01*
X142220D01*
X141564Y101640D02*
X141236Y101968D01*
X140580D01*
X140252Y101640D01*
Y101312D01*
X140580Y100984D01*
X140908D01*
X140580D01*
X140252Y100656D01*
Y100328D01*
X140580Y100000D01*
X141236D01*
X141564Y100328D01*
X165000Y86500D02*
Y88468D01*
X164016D01*
X163688Y88140D01*
Y87484D01*
X164016Y87156D01*
X165000D01*
X164344D02*
X163688Y86500D01*
X162048D02*
Y88468D01*
X163032Y87484D01*
X161720D01*
X159752Y86500D02*
X161064D01*
X159752Y87812D01*
Y88140D01*
X160080Y88468D01*
X160736D01*
X161064Y88140D01*
X173000Y98000D02*
X171032D01*
Y97016D01*
X171360Y96688D01*
X172016D01*
X172344Y97016D01*
Y98000D01*
Y97344D02*
X173000Y96688D01*
Y95048D02*
X171032D01*
X172016Y96032D01*
Y94720D01*
X173000Y94064D02*
Y93408D01*
Y93736D01*
X171032D01*
X171360Y94064D01*
X225500Y4500D02*
Y6468D01*
X224516D01*
X224188Y6140D01*
Y5484D01*
X224516Y5156D01*
X225500D01*
X224844D02*
X224188Y4500D01*
X222548D02*
Y6468D01*
X223532Y5484D01*
X222220D01*
X221564Y6140D02*
X221236Y6468D01*
X220580D01*
X220252Y6140D01*
Y4828D01*
X220580Y4500D01*
X221236D01*
X221564Y4828D01*
Y6140D01*
X198000Y4000D02*
Y5968D01*
X197016D01*
X196688Y5640D01*
Y4984D01*
X197016Y4656D01*
X198000D01*
X197344D02*
X196688Y4000D01*
X196032Y5640D02*
X195704Y5968D01*
X195048D01*
X194720Y5640D01*
Y5312D01*
X195048Y4984D01*
X195376D01*
X195048D01*
X194720Y4656D01*
Y4328D01*
X195048Y4000D01*
X195704D01*
X196032Y4328D01*
X194064D02*
X193736Y4000D01*
X193080D01*
X192752Y4328D01*
Y5640D01*
X193080Y5968D01*
X193736D01*
X194064Y5640D01*
Y5312D01*
X193736Y4984D01*
X192752D01*
X230500Y56500D02*
X228532D01*
Y55516D01*
X228860Y55188D01*
X229516D01*
X229844Y55516D01*
Y56500D01*
Y55844D02*
X230500Y55188D01*
X228860Y54532D02*
X228532Y54204D01*
Y53548D01*
X228860Y53220D01*
X229188D01*
X229516Y53548D01*
Y53876D01*
Y53548D01*
X229844Y53220D01*
X230172D01*
X230500Y53548D01*
Y54204D01*
X230172Y54532D01*
X228860Y52564D02*
X228532Y52236D01*
Y51580D01*
X228860Y51252D01*
X229188D01*
X229516Y51580D01*
X229844Y51252D01*
X230172D01*
X230500Y51580D01*
Y52236D01*
X230172Y52564D01*
X229844D01*
X229516Y52236D01*
X229188Y52564D01*
X228860D01*
X229516Y52236D02*
Y51580D01*
X206188Y284828D02*
Y286140D01*
X206516Y286468D01*
X207172D01*
X207500Y286140D01*
Y284828D01*
X207172Y284500D01*
X206516D01*
X206844Y285156D02*
X206188Y284500D01*
X206516D02*
X206188Y284828D01*
X204220Y286468D02*
X204876Y286140D01*
X205532Y285484D01*
Y284828D01*
X205204Y284500D01*
X204548D01*
X204220Y284828D01*
Y285156D01*
X204548Y285484D01*
X205532D01*
X153188Y284828D02*
Y286140D01*
X153516Y286468D01*
X154172D01*
X154500Y286140D01*
Y284828D01*
X154172Y284500D01*
X153516D01*
X153844Y285156D02*
X153188Y284500D01*
X153516D02*
X153188Y284828D01*
X151548Y284500D02*
Y286468D01*
X152532Y285484D01*
X151220D01*
X99688Y285828D02*
Y287140D01*
X100016Y287468D01*
X100672D01*
X101000Y287140D01*
Y285828D01*
X100672Y285500D01*
X100016D01*
X100344Y286156D02*
X99688Y285500D01*
X100016D02*
X99688Y285828D01*
X97720Y285500D02*
X99032D01*
X97720Y286812D01*
Y287140D01*
X98048Y287468D01*
X98704D01*
X99032Y287140D01*
X153500Y119468D02*
Y117500D01*
X152188D01*
X150220Y119468D02*
X151532D01*
Y117500D01*
X150220D01*
X151532Y118484D02*
X150876D01*
X149564Y119468D02*
Y117500D01*
X148580D01*
X148252Y117828D01*
Y119140D01*
X148580Y119468D01*
X149564D01*
X146284D02*
X147596D01*
Y118484D01*
X146941Y118812D01*
X146613D01*
X146284Y118484D01*
Y117828D01*
X146613Y117500D01*
X147268D01*
X147596Y117828D01*
X162500Y119468D02*
Y117500D01*
X161188D01*
X159220Y119468D02*
X160532D01*
Y117500D01*
X159220D01*
X160532Y118484D02*
X159876D01*
X158564Y119468D02*
Y117500D01*
X157580D01*
X157252Y117828D01*
Y119140D01*
X157580Y119468D01*
X158564D01*
X155613Y117500D02*
Y119468D01*
X156596Y118484D01*
X155285D01*
X171500Y119468D02*
Y117500D01*
X170188D01*
X168220Y119468D02*
X169532D01*
Y117500D01*
X168220D01*
X169532Y118484D02*
X168876D01*
X167564Y119468D02*
Y117500D01*
X166580D01*
X166252Y117828D01*
Y119140D01*
X166580Y119468D01*
X167564D01*
X165596Y119140D02*
X165268Y119468D01*
X164612D01*
X164285Y119140D01*
Y118812D01*
X164612Y118484D01*
X164941D01*
X164612D01*
X164285Y118156D01*
Y117828D01*
X164612Y117500D01*
X165268D01*
X165596Y117828D01*
X73500Y23468D02*
Y21500D01*
X72188D01*
X70220Y23468D02*
X70876Y23140D01*
X71532Y22484D01*
Y21828D01*
X71204Y21500D01*
X70548D01*
X70220Y21828D01*
Y22156D01*
X70548Y22484D01*
X71532D01*
X29000Y30968D02*
Y29000D01*
X27688D01*
X25720Y30968D02*
X27032D01*
Y29984D01*
X26376Y30312D01*
X26048D01*
X25720Y29984D01*
Y29328D01*
X26048Y29000D01*
X26704D01*
X27032Y29328D01*
X229000Y152668D02*
Y150700D01*
X227688D01*
X226048D02*
Y152668D01*
X227032Y151684D01*
X225720D01*
X45000Y261468D02*
Y259500D01*
X43688D01*
X43032Y261140D02*
X42704Y261468D01*
X42048D01*
X41720Y261140D01*
Y260812D01*
X42048Y260484D01*
X42376D01*
X42048D01*
X41720Y260156D01*
Y259828D01*
X42048Y259500D01*
X42704D01*
X43032Y259828D01*
X236000Y274468D02*
Y272500D01*
X235016D01*
X234688Y272828D01*
Y274140D01*
X235016Y274468D01*
X236000D01*
X234032Y274140D02*
X233704Y274468D01*
X233048D01*
X232720Y274140D01*
Y273812D01*
X233048Y273484D01*
X233376D01*
X233048D01*
X232720Y273156D01*
Y272828D01*
X233048Y272500D01*
X233704D01*
X234032Y272828D01*
X220500Y181468D02*
Y179500D01*
X219516D01*
X219188Y179828D01*
Y181140D01*
X219516Y181468D01*
X220500D01*
X217220Y179500D02*
X218532D01*
X217220Y180812D01*
Y181140D01*
X217548Y181468D01*
X218204D01*
X218532Y181140D01*
X63500Y296968D02*
Y295000D01*
X62516D01*
X62188Y295328D01*
Y296640D01*
X62516Y296968D01*
X63500D01*
X61532Y295000D02*
X60876D01*
X61204D01*
Y296968D01*
X61532Y296640D01*
X59688Y103640D02*
X60016Y103968D01*
X60672D01*
X61000Y103640D01*
Y102328D01*
X60672Y102000D01*
X60016D01*
X59688Y102328D01*
X59032Y103968D02*
X57720D01*
Y103640D01*
X59032Y102328D01*
Y102000D01*
X57064D02*
X56408D01*
X56736D01*
Y103968D01*
X57064Y103640D01*
X16188Y98640D02*
X16516Y98968D01*
X17172D01*
X17500Y98640D01*
Y97328D01*
X17172Y97000D01*
X16516D01*
X16188Y97328D01*
X15532Y98968D02*
X14220D01*
Y98640D01*
X15532Y97328D01*
Y97000D01*
X13564Y98640D02*
X13236Y98968D01*
X12580D01*
X12252Y98640D01*
Y97328D01*
X12580Y97000D01*
X13236D01*
X13564Y97328D01*
Y98640D01*
X9640Y34812D02*
X9968Y34484D01*
Y33828D01*
X9640Y33500D01*
X8328D01*
X8000Y33828D01*
Y34484D01*
X8328Y34812D01*
X9968Y36780D02*
X9640Y36124D01*
X8984Y35468D01*
X8328D01*
X8000Y35796D01*
Y36452D01*
X8328Y36780D01*
X8656D01*
X8984Y36452D01*
Y35468D01*
X8328Y37436D02*
X8000Y37764D01*
Y38420D01*
X8328Y38748D01*
X9640D01*
X9968Y38420D01*
Y37764D01*
X9640Y37436D01*
X9312D01*
X8984Y37764D01*
Y38748D01*
X69188Y102640D02*
X69516Y102968D01*
X70172D01*
X70500Y102640D01*
Y101328D01*
X70172Y101000D01*
X69516D01*
X69188Y101328D01*
X67220Y102968D02*
X67876Y102640D01*
X68532Y101984D01*
Y101328D01*
X68204Y101000D01*
X67548D01*
X67220Y101328D01*
Y101656D01*
X67548Y101984D01*
X68532D01*
X66564Y102640D02*
X66236Y102968D01*
X65580D01*
X65252Y102640D01*
Y102312D01*
X65580Y101984D01*
X65252Y101656D01*
Y101328D01*
X65580Y101000D01*
X66236D01*
X66564Y101328D01*
Y101656D01*
X66236Y101984D01*
X66564Y102312D01*
Y102640D01*
X66236Y101984D02*
X65580D01*
X78640Y44812D02*
X78968Y44484D01*
Y43828D01*
X78640Y43500D01*
X77328D01*
X77000Y43828D01*
Y44484D01*
X77328Y44812D01*
X78968Y46780D02*
X78640Y46124D01*
X77984Y45468D01*
X77328D01*
X77000Y45796D01*
Y46452D01*
X77328Y46780D01*
X77656D01*
X77984Y46452D01*
Y45468D01*
X78968Y47436D02*
Y48748D01*
X78640D01*
X77328Y47436D01*
X77000D01*
X40688Y40140D02*
X41016Y40468D01*
X41672D01*
X42000Y40140D01*
Y38828D01*
X41672Y38500D01*
X41016D01*
X40688Y38828D01*
X38720Y40468D02*
X39376Y40140D01*
X40032Y39484D01*
Y38828D01*
X39704Y38500D01*
X39048D01*
X38720Y38828D01*
Y39156D01*
X39048Y39484D01*
X40032D01*
X36752Y40468D02*
X37408Y40140D01*
X38064Y39484D01*
Y38828D01*
X37736Y38500D01*
X37080D01*
X36752Y38828D01*
Y39156D01*
X37080Y39484D01*
X38064D01*
X77688Y96140D02*
X78016Y96468D01*
X78672D01*
X79000Y96140D01*
Y94828D01*
X78672Y94500D01*
X78016D01*
X77688Y94828D01*
X75720Y96468D02*
X76376Y96140D01*
X77032Y95484D01*
Y94828D01*
X76704Y94500D01*
X76048D01*
X75720Y94828D01*
Y95156D01*
X76048Y95484D01*
X77032D01*
X73752Y96468D02*
X75064D01*
Y95484D01*
X74408Y95812D01*
X74080D01*
X73752Y95484D01*
Y94828D01*
X74080Y94500D01*
X74736D01*
X75064Y94828D01*
X67360Y9188D02*
X67032Y9516D01*
Y10172D01*
X67360Y10500D01*
X68672D01*
X69000Y10172D01*
Y9516D01*
X68672Y9188D01*
X67032Y7220D02*
X67360Y7876D01*
X68016Y8532D01*
X68672D01*
X69000Y8204D01*
Y7548D01*
X68672Y7220D01*
X68344D01*
X68016Y7548D01*
Y8532D01*
X69000Y5580D02*
X67032D01*
X68016Y6564D01*
Y5252D01*
X21188Y4640D02*
X21516Y4968D01*
X22172D01*
X22500Y4640D01*
Y3328D01*
X22172Y3000D01*
X21516D01*
X21188Y3328D01*
X19220Y4968D02*
X19876Y4640D01*
X20532Y3984D01*
Y3328D01*
X20204Y3000D01*
X19548D01*
X19220Y3328D01*
Y3656D01*
X19548Y3984D01*
X20532D01*
X18564Y4640D02*
X18236Y4968D01*
X17580D01*
X17252Y4640D01*
Y4312D01*
X17580Y3984D01*
X17908D01*
X17580D01*
X17252Y3656D01*
Y3328D01*
X17580Y3000D01*
X18236D01*
X18564Y3328D01*
X88188Y8640D02*
X88516Y8968D01*
X89172D01*
X89500Y8640D01*
Y7328D01*
X89172Y7000D01*
X88516D01*
X88188Y7328D01*
X86220Y8968D02*
X86876Y8640D01*
X87532Y7984D01*
Y7328D01*
X87204Y7000D01*
X86548D01*
X86220Y7328D01*
Y7656D01*
X86548Y7984D01*
X87532D01*
X84252Y7000D02*
X85564D01*
X84252Y8312D01*
Y8640D01*
X84580Y8968D01*
X85236D01*
X85564Y8640D01*
X56188Y31140D02*
X56516Y31468D01*
X57172D01*
X57500Y31140D01*
Y29828D01*
X57172Y29500D01*
X56516D01*
X56188Y29828D01*
X54220Y31468D02*
X54876Y31140D01*
X55532Y30484D01*
Y29828D01*
X55204Y29500D01*
X54548D01*
X54220Y29828D01*
Y30156D01*
X54548Y30484D01*
X55532D01*
X53564Y31140D02*
X53236Y31468D01*
X52580D01*
X52252Y31140D01*
Y29828D01*
X52580Y29500D01*
X53236D01*
X53564Y29828D01*
Y31140D01*
X100640Y26312D02*
X100968Y25984D01*
Y25328D01*
X100640Y25000D01*
X99328D01*
X99000Y25328D01*
Y25984D01*
X99328Y26312D01*
X100968Y28280D02*
Y26968D01*
X99984D01*
X100312Y27624D01*
Y27952D01*
X99984Y28280D01*
X99328D01*
X99000Y27952D01*
Y27296D01*
X99328Y26968D01*
Y28936D02*
X99000Y29264D01*
Y29920D01*
X99328Y30248D01*
X100640D01*
X100968Y29920D01*
Y29264D01*
X100640Y28936D01*
X100312D01*
X99984Y29264D01*
Y30248D01*
X37188Y30640D02*
X37516Y30968D01*
X38172D01*
X38500Y30640D01*
Y29328D01*
X38172Y29000D01*
X37516D01*
X37188Y29328D01*
X35220Y30968D02*
X36532D01*
Y29984D01*
X35876Y30312D01*
X35548D01*
X35220Y29984D01*
Y29328D01*
X35548Y29000D01*
X36204D01*
X36532Y29328D01*
X34564Y30640D02*
X34236Y30968D01*
X33580D01*
X33252Y30640D01*
Y30312D01*
X33580Y29984D01*
X33252Y29656D01*
Y29328D01*
X33580Y29000D01*
X34236D01*
X34564Y29328D01*
Y29656D01*
X34236Y29984D01*
X34564Y30312D01*
Y30640D01*
X34236Y29984D02*
X33580D01*
X209688Y122640D02*
X210016Y122968D01*
X210672D01*
X211000Y122640D01*
Y121328D01*
X210672Y121000D01*
X210016D01*
X209688Y121328D01*
X207720Y122968D02*
X209032D01*
Y121984D01*
X208376Y122312D01*
X208048D01*
X207720Y121984D01*
Y121328D01*
X208048Y121000D01*
X208704D01*
X209032Y121328D01*
X207064Y122968D02*
X205752D01*
Y122640D01*
X207064Y121328D01*
Y121000D01*
X167688Y304140D02*
X168016Y304468D01*
X168672D01*
X169000Y304140D01*
Y302828D01*
X168672Y302500D01*
X168016D01*
X167688Y302828D01*
X165720Y304468D02*
X167032D01*
Y303484D01*
X166376Y303812D01*
X166048D01*
X165720Y303484D01*
Y302828D01*
X166048Y302500D01*
X166704D01*
X167032Y302828D01*
X163752Y304468D02*
X165064D01*
Y303484D01*
X164408Y303812D01*
X164080D01*
X163752Y303484D01*
Y302828D01*
X164080Y302500D01*
X164736D01*
X165064Y302828D01*
X226188Y208316D02*
X226516Y208644D01*
X227172D01*
X227500Y208316D01*
Y207004D01*
X227172Y206676D01*
X226516D01*
X226188Y207004D01*
X224220Y208644D02*
X225532D01*
Y207660D01*
X224876Y207988D01*
X224548D01*
X224220Y207660D01*
Y207004D01*
X224548Y206676D01*
X225204D01*
X225532Y207004D01*
X222580Y206676D02*
Y208644D01*
X223564Y207660D01*
X222252D01*
X53312Y174360D02*
X52984Y174032D01*
X52328D01*
X52000Y174360D01*
Y175672D01*
X52328Y176000D01*
X52984D01*
X53312Y175672D01*
X55280Y174032D02*
X53968D01*
Y175016D01*
X54624Y174688D01*
X54952D01*
X55280Y175016D01*
Y175672D01*
X54952Y176000D01*
X54296D01*
X53968Y175672D01*
X55936Y174360D02*
X56264Y174032D01*
X56920D01*
X57248Y174360D01*
Y175672D01*
X56920Y176000D01*
X56264D01*
X55936Y175672D01*
Y174360D01*
X110188Y124640D02*
X110516Y124968D01*
X111172D01*
X111500Y124640D01*
Y123328D01*
X111172Y123000D01*
X110516D01*
X110188Y123328D01*
X108548Y123000D02*
Y124968D01*
X109532Y123984D01*
X108220D01*
X107564Y124640D02*
X107236Y124968D01*
X106580D01*
X106252Y124640D01*
Y124312D01*
X106580Y123984D01*
X106252Y123656D01*
Y123328D01*
X106580Y123000D01*
X107236D01*
X107564Y123328D01*
Y123656D01*
X107236Y123984D01*
X107564Y124312D01*
Y124640D01*
X107236Y123984D02*
X106580D01*
X39688Y172140D02*
X40016Y172468D01*
X40672D01*
X41000Y172140D01*
Y170828D01*
X40672Y170500D01*
X40016D01*
X39688Y170828D01*
X38048Y170500D02*
Y172468D01*
X39032Y171484D01*
X37720D01*
X37064Y172468D02*
X35752D01*
Y172140D01*
X37064Y170828D01*
Y170500D01*
X101140Y151812D02*
X101468Y151484D01*
Y150828D01*
X101140Y150500D01*
X99828D01*
X99500Y150828D01*
Y151484D01*
X99828Y151812D01*
X99500Y153452D02*
X101468D01*
X100484Y152468D01*
Y153780D01*
X101468Y155748D02*
X101140Y155092D01*
X100484Y154436D01*
X99828D01*
X99500Y154764D01*
Y155420D01*
X99828Y155748D01*
X100156D01*
X100484Y155420D01*
Y154436D01*
X176188Y122640D02*
X176516Y122968D01*
X177172D01*
X177500Y122640D01*
Y121328D01*
X177172Y121000D01*
X176516D01*
X176188Y121328D01*
X174548Y121000D02*
Y122968D01*
X175532Y121984D01*
X174220D01*
X172252Y122968D02*
X173564D01*
Y121984D01*
X172908Y122312D01*
X172580D01*
X172252Y121984D01*
Y121328D01*
X172580Y121000D01*
X173236D01*
X173564Y121328D01*
X138188Y70140D02*
X138516Y70468D01*
X139172D01*
X139500Y70140D01*
Y68828D01*
X139172Y68500D01*
X138516D01*
X138188Y68828D01*
X136548Y68500D02*
Y70468D01*
X137532Y69484D01*
X136220D01*
X134252Y68500D02*
X135564D01*
X134252Y69812D01*
Y70140D01*
X134580Y70468D01*
X135236D01*
X135564Y70140D01*
X74541Y133565D02*
X74869Y133893D01*
X75525D01*
X75853Y133565D01*
Y132253D01*
X75525Y131925D01*
X74869D01*
X74541Y132253D01*
X72901Y131925D02*
Y133893D01*
X73885Y132909D01*
X72573D01*
X71917Y131925D02*
X71261D01*
X71589D01*
Y133893D01*
X71917Y133565D01*
X114188Y305640D02*
X114516Y305968D01*
X115172D01*
X115500Y305640D01*
Y304328D01*
X115172Y304000D01*
X114516D01*
X114188Y304328D01*
X112548Y304000D02*
Y305968D01*
X113532Y304984D01*
X112220D01*
X111564Y305640D02*
X111236Y305968D01*
X110580D01*
X110252Y305640D01*
Y304328D01*
X110580Y304000D01*
X111236D01*
X111564Y304328D01*
Y305640D01*
X59188Y133640D02*
X59516Y133968D01*
X60172D01*
X60500Y133640D01*
Y132328D01*
X60172Y132000D01*
X59516D01*
X59188Y132328D01*
X58532Y133640D02*
X58204Y133968D01*
X57548D01*
X57220Y133640D01*
Y133312D01*
X57548Y132984D01*
X57876D01*
X57548D01*
X57220Y132656D01*
Y132328D01*
X57548Y132000D01*
X58204D01*
X58532Y132328D01*
X56564D02*
X56236Y132000D01*
X55580D01*
X55252Y132328D01*
Y133640D01*
X55580Y133968D01*
X56236D01*
X56564Y133640D01*
Y133312D01*
X56236Y132984D01*
X55252D01*
X139688Y142140D02*
X140016Y142468D01*
X140672D01*
X141000Y142140D01*
Y140828D01*
X140672Y140500D01*
X140016D01*
X139688Y140828D01*
X139032Y142140D02*
X138704Y142468D01*
X138048D01*
X137720Y142140D01*
Y141812D01*
X138048Y141484D01*
X138376D01*
X138048D01*
X137720Y141156D01*
Y140828D01*
X138048Y140500D01*
X138704D01*
X139032Y140828D01*
X137064Y142140D02*
X136736Y142468D01*
X136080D01*
X135752Y142140D01*
Y141812D01*
X136080Y141484D01*
X135752Y141156D01*
Y140828D01*
X136080Y140500D01*
X136736D01*
X137064Y140828D01*
Y141156D01*
X136736Y141484D01*
X137064Y141812D01*
Y142140D01*
X136736Y141484D02*
X136080D01*
X174188Y149140D02*
X174516Y149468D01*
X175172D01*
X175500Y149140D01*
Y147828D01*
X175172Y147500D01*
X174516D01*
X174188Y147828D01*
X173532Y149140D02*
X173204Y149468D01*
X172548D01*
X172220Y149140D01*
Y148812D01*
X172548Y148484D01*
X172876D01*
X172548D01*
X172220Y148156D01*
Y147828D01*
X172548Y147500D01*
X173204D01*
X173532Y147828D01*
X170252Y149468D02*
X170908Y149140D01*
X171564Y148484D01*
Y147828D01*
X171236Y147500D01*
X170580D01*
X170252Y147828D01*
Y148156D01*
X170580Y148484D01*
X171564D01*
X222360Y89188D02*
X222032Y89516D01*
Y90172D01*
X222360Y90500D01*
X223672D01*
X224000Y90172D01*
Y89516D01*
X223672Y89188D01*
X222360Y88532D02*
X222032Y88204D01*
Y87548D01*
X222360Y87220D01*
X222688D01*
X223016Y87548D01*
Y87876D01*
Y87548D01*
X223344Y87220D01*
X223672D01*
X224000Y87548D01*
Y88204D01*
X223672Y88532D01*
X222032Y85252D02*
Y86564D01*
X223016D01*
X222688Y85908D01*
Y85580D01*
X223016Y85252D01*
X223672D01*
X224000Y85580D01*
Y86236D01*
X223672Y86564D01*
X137140Y114812D02*
X137468Y114484D01*
Y113828D01*
X137140Y113500D01*
X135828D01*
X135500Y113828D01*
Y114484D01*
X135828Y114812D01*
X137140Y115468D02*
X137468Y115796D01*
Y116452D01*
X137140Y116780D01*
X136812D01*
X136484Y116452D01*
Y116124D01*
Y116452D01*
X136156Y116780D01*
X135828D01*
X135500Y116452D01*
Y115796D01*
X135828Y115468D01*
X135500Y118420D02*
X137468D01*
X136484Y117436D01*
Y118748D01*
X185688Y142640D02*
X186016Y142968D01*
X186672D01*
X187000Y142640D01*
Y141328D01*
X186672Y141000D01*
X186016D01*
X185688Y141328D01*
X185032Y142640D02*
X184704Y142968D01*
X184048D01*
X183720Y142640D01*
Y142312D01*
X184048Y141984D01*
X184376D01*
X184048D01*
X183720Y141656D01*
Y141328D01*
X184048Y141000D01*
X184704D01*
X185032Y141328D01*
X183064Y142640D02*
X182736Y142968D01*
X182080D01*
X181752Y142640D01*
Y142312D01*
X182080Y141984D01*
X182408D01*
X182080D01*
X181752Y141656D01*
Y141328D01*
X182080Y141000D01*
X182736D01*
X183064Y141328D01*
X199360Y134688D02*
X199032Y135016D01*
Y135672D01*
X199360Y136000D01*
X200672D01*
X201000Y135672D01*
Y135016D01*
X200672Y134688D01*
X199360Y134032D02*
X199032Y133704D01*
Y133048D01*
X199360Y132720D01*
X199688D01*
X200016Y133048D01*
Y133376D01*
Y133048D01*
X200344Y132720D01*
X200672D01*
X201000Y133048D01*
Y133704D01*
X200672Y134032D01*
X201000Y130752D02*
Y132064D01*
X199688Y130752D01*
X199360D01*
X199032Y131080D01*
Y131736D01*
X199360Y132064D01*
X25688Y232140D02*
X26016Y232468D01*
X26672D01*
X27000Y232140D01*
Y230828D01*
X26672Y230500D01*
X26016D01*
X25688Y230828D01*
X25032Y232140D02*
X24704Y232468D01*
X24048D01*
X23720Y232140D01*
Y231812D01*
X24048Y231484D01*
X24376D01*
X24048D01*
X23720Y231156D01*
Y230828D01*
X24048Y230500D01*
X24704D01*
X25032Y230828D01*
X23064Y230500D02*
X22408D01*
X22736D01*
Y232468D01*
X23064Y232140D01*
X106688Y141640D02*
X107016Y141968D01*
X107672D01*
X108000Y141640D01*
Y140328D01*
X107672Y140000D01*
X107016D01*
X106688Y140328D01*
X106032Y141640D02*
X105704Y141968D01*
X105048D01*
X104720Y141640D01*
Y141312D01*
X105048Y140984D01*
X105376D01*
X105048D01*
X104720Y140656D01*
Y140328D01*
X105048Y140000D01*
X105704D01*
X106032Y140328D01*
X104064Y141640D02*
X103736Y141968D01*
X103080D01*
X102752Y141640D01*
Y140328D01*
X103080Y140000D01*
X103736D01*
X104064Y140328D01*
Y141640D01*
X214188Y82640D02*
X214516Y82968D01*
X215172D01*
X215500Y82640D01*
Y81328D01*
X215172Y81000D01*
X214516D01*
X214188Y81328D01*
X212220Y81000D02*
X213532D01*
X212220Y82312D01*
Y82640D01*
X212548Y82968D01*
X213204D01*
X213532Y82640D01*
X211564Y81328D02*
X211236Y81000D01*
X210580D01*
X210252Y81328D01*
Y82640D01*
X210580Y82968D01*
X211236D01*
X211564Y82640D01*
Y82312D01*
X211236Y81984D01*
X210252D01*
X15688Y161640D02*
X16016Y161968D01*
X16672D01*
X17000Y161640D01*
Y160328D01*
X16672Y160000D01*
X16016D01*
X15688Y160328D01*
X13720Y160000D02*
X15032D01*
X13720Y161312D01*
Y161640D01*
X14048Y161968D01*
X14704D01*
X15032Y161640D01*
X13064D02*
X12736Y161968D01*
X12080D01*
X11752Y161640D01*
Y161312D01*
X12080Y160984D01*
X11752Y160656D01*
Y160328D01*
X12080Y160000D01*
X12736D01*
X13064Y160328D01*
Y160656D01*
X12736Y160984D01*
X13064Y161312D01*
Y161640D01*
X12736Y160984D02*
X12080D01*
X197188Y88140D02*
X197516Y88468D01*
X198172D01*
X198500Y88140D01*
Y86828D01*
X198172Y86500D01*
X197516D01*
X197188Y86828D01*
X195220Y86500D02*
X196532D01*
X195220Y87812D01*
Y88140D01*
X195548Y88468D01*
X196204D01*
X196532Y88140D01*
X194564Y88468D02*
X193252D01*
Y88140D01*
X194564Y86828D01*
Y86500D01*
X141881Y90640D02*
X142209Y90968D01*
X142865D01*
X143193Y90640D01*
Y89328D01*
X142865Y89000D01*
X142209D01*
X141881Y89328D01*
X139913Y89000D02*
X141225D01*
X139913Y90312D01*
Y90640D01*
X140241Y90968D01*
X140897D01*
X141225Y90640D01*
X137945Y90968D02*
X138601Y90640D01*
X139257Y89984D01*
Y89328D01*
X138929Y89000D01*
X138273D01*
X137945Y89328D01*
Y89656D01*
X138273Y89984D01*
X139257D01*
X203688Y148140D02*
X204016Y148468D01*
X204672D01*
X205000Y148140D01*
Y146828D01*
X204672Y146500D01*
X204016D01*
X203688Y146828D01*
X201720Y146500D02*
X203032D01*
X201720Y147812D01*
Y148140D01*
X202048Y148468D01*
X202704D01*
X203032Y148140D01*
X199752Y148468D02*
X201064D01*
Y147484D01*
X200408Y147812D01*
X200080D01*
X199752Y147484D01*
Y146828D01*
X200080Y146500D01*
X200736D01*
X201064Y146828D01*
X150360Y45188D02*
X150032Y45516D01*
Y46172D01*
X150360Y46500D01*
X151672D01*
X152000Y46172D01*
Y45516D01*
X151672Y45188D01*
X152000Y43220D02*
Y44532D01*
X150688Y43220D01*
X150360D01*
X150032Y43548D01*
Y44204D01*
X150360Y44532D01*
X152000Y41580D02*
X150032D01*
X151016Y42564D01*
Y41252D01*
X185188Y65640D02*
X185516Y65968D01*
X186172D01*
X186500Y65640D01*
Y64328D01*
X186172Y64000D01*
X185516D01*
X185188Y64328D01*
X183220Y64000D02*
X184532D01*
X183220Y65312D01*
Y65640D01*
X183548Y65968D01*
X184204D01*
X184532Y65640D01*
X182564D02*
X182236Y65968D01*
X181580D01*
X181252Y65640D01*
Y65312D01*
X181580Y64984D01*
X181908D01*
X181580D01*
X181252Y64656D01*
Y64328D01*
X181580Y64000D01*
X182236D01*
X182564Y64328D01*
X218640Y65812D02*
X218968Y65484D01*
Y64828D01*
X218640Y64500D01*
X217328D01*
X217000Y64828D01*
Y65484D01*
X217328Y65812D01*
X217000Y66468D02*
Y67124D01*
Y66796D01*
X218968D01*
X218640Y66468D01*
Y68108D02*
X218968Y68436D01*
Y69092D01*
X218640Y69420D01*
X218312D01*
X217984Y69092D01*
X217656Y69420D01*
X217328D01*
X217000Y69092D01*
Y68436D01*
X217328Y68108D01*
X217656D01*
X217984Y68436D01*
X218312Y68108D01*
X218640D01*
X217984Y68436D02*
Y69092D01*
D77*
X48382Y215118D02*
Y222992D01*
X58618Y215118D02*
Y222992D01*
X2657Y59650D02*
X22343D01*
X2657Y53350D02*
X22343D01*
X2657D02*
Y59650D01*
X22343Y53350D02*
Y59650D01*
X222000Y248000D02*
Y271622D01*
X232000Y248000D02*
Y271622D01*
X222000Y248000D02*
X231842D01*
X51000Y266500D02*
Y290122D01*
X61000Y266500D02*
Y290122D01*
X51000Y266500D02*
X60843D01*
X49882Y11118D02*
Y18992D01*
X60118Y11118D02*
Y18992D01*
X30882Y11433D02*
Y19307D01*
X41118Y11433D02*
Y19307D01*
X207382Y103618D02*
Y111492D01*
X217618Y103618D02*
Y111492D01*
X161118Y300618D02*
X168992D01*
X161118Y290382D02*
X168992D01*
X222382Y189118D02*
Y196992D01*
X232618Y189118D02*
Y196992D01*
X58618Y186508D02*
Y194382D01*
X48382Y186508D02*
Y194382D01*
X24118Y184618D02*
X31992D01*
X24118Y174382D02*
X31992D01*
X107508Y292382D02*
X115382D01*
X107508Y302618D02*
X115382D01*
X189063Y85618D02*
X196937D01*
X189063Y75382D02*
X196937D01*
X163618Y41618D02*
Y49492D01*
X153382Y41618D02*
Y49492D01*
X162508Y60882D02*
X170382D01*
X162508Y71118D02*
X170382D01*
X199618Y71618D02*
X207492D01*
X199618Y61382D02*
X207492D01*
X110850Y80843D02*
X117150D01*
X110850Y61158D02*
X117150D01*
Y80843D01*
X110850Y61158D02*
Y80843D01*
X216169Y161000D02*
X224831D01*
Y168500D01*
X216169Y161000D02*
Y168500D01*
X68031Y47996D02*
X69704D01*
Y49669D01*
X32696Y47996D02*
X34369D01*
X32696D02*
Y49669D01*
Y83331D02*
Y85004D01*
X34369D01*
X68031D02*
X69704D01*
Y83331D02*
Y85004D01*
D78*
X57900Y232800D02*
Y234400D01*
X57100Y233600D02*
X58700D01*
X59400Y28800D02*
Y30400D01*
X58600Y29600D02*
X60200D01*
X40400Y29115D02*
Y30715D01*
X39600Y29915D02*
X41200D01*
X216900Y121300D02*
Y122900D01*
X216100Y122100D02*
X217700D01*
X178800Y291100D02*
X180400D01*
X179600Y290300D02*
Y291900D01*
X231900Y206800D02*
Y208400D01*
X231100Y207600D02*
X232700D01*
X49100Y175100D02*
Y176700D01*
X48300Y175900D02*
X49900D01*
X41800Y175100D02*
X43400D01*
X42600Y174300D02*
Y175900D01*
X96100Y301900D02*
X97700D01*
X96900Y301100D02*
Y302700D01*
X4200Y230400D02*
Y233000D01*
X2900Y231700D02*
X5500D01*
X3700Y160400D02*
Y163000D01*
X2400Y161700D02*
X5000D01*
X178455Y84100D02*
Y85700D01*
X177655Y84900D02*
X179255D01*
X154100Y30210D02*
Y31810D01*
X153300Y31010D02*
X154900D01*
X151100Y70400D02*
X152700D01*
X151900Y69600D02*
Y71200D01*
X217300Y62100D02*
X218900D01*
X218100Y61300D02*
Y62900D01*
D128*
X226882Y271781D02*
D03*
X55882Y290281D02*
D03*
D129*
X220500Y167585D02*
D03*
M02*
