G04 Layer_Color=8388736*
%FSLAX25Y25*%
%MOIN*%
G70*
G01*
G75*
%ADD32C,0.01181*%
%ADD33C,0.11811*%
%ADD36C,0.19685*%
%ADD40C,0.15748*%
%ADD79C,0.13780*%
%ADD80R,0.12600X0.09100*%
%ADD81R,0.09100X0.12600*%
%ADD82R,0.09800X0.06700*%
%ADD83R,0.06700X0.09800*%
%ADD84R,0.05131X0.04737*%
%ADD85R,0.05918X0.06706*%
%ADD86R,0.11036X0.08280*%
%ADD87R,0.11036X0.11430*%
%ADD88R,0.03950X0.02178*%
%ADD89R,0.02178X0.03950*%
%ADD90R,0.14579X0.10642*%
%ADD91R,0.04737X0.08674*%
%ADD92O,0.01981X0.09068*%
%ADD93O,0.09068X0.01981*%
%ADD94R,0.03950X0.04737*%
%ADD95R,0.06902X0.05918*%
%ADD96R,0.04737X0.05131*%
%ADD97R,0.06706X0.05918*%
%ADD98R,0.08280X0.11430*%
%ADD99R,0.03950X0.10249*%
%ADD100R,0.05918X0.03950*%
%ADD101R,0.03950X0.05918*%
%ADD102R,0.16548X0.03950*%
%ADD103R,0.03950X0.16548*%
%ADD104R,0.03753X0.09796*%
%ADD105R,0.39954X0.36292*%
%ADD106C,0.12611*%
%ADD107C,0.20485*%
%ADD108C,0.10642*%
%ADD109R,0.06706X0.06706*%
%ADD110C,0.06706*%
%ADD111C,0.08674*%
%ADD112C,0.03162*%
D32*
X121500Y273000D02*
Y277000D01*
D33*
X190000D02*
X192018D01*
X180000D02*
X190000D01*
X175000D02*
X180000D01*
X170000D02*
X175000D01*
X142509Y278009D02*
X143518Y277000D01*
X131500D02*
X141500D01*
X138500Y282018D02*
Y285000D01*
X126500Y277000D02*
X131500D01*
X121500D02*
X126500D01*
X85000Y283500D02*
X85750Y282750D01*
X95000Y277000D02*
X97018D01*
X85000D02*
X91500D01*
X80000D02*
X85000D01*
X76955D02*
X80000D01*
X75978Y277978D02*
X76955Y277000D01*
D36*
X88000Y242500D02*
X179000D01*
X181500Y245000D01*
X188081Y282581D02*
Y285823D01*
X191500Y289242D01*
Y294000D01*
X138500Y285000D02*
Y294000D01*
X85000Y283500D02*
Y294000D01*
X43772Y272000D02*
Y273864D01*
X37000Y272000D02*
X43772D01*
X36500Y294000D02*
X37000Y272000D01*
X43772Y273864D02*
X56136D01*
D40*
X58105Y271895D01*
X61049D01*
X68895Y264049D01*
Y261105D02*
Y264049D01*
Y261105D02*
X84161Y245839D01*
D79*
X79000Y253500D02*
X80000D01*
D80*
X7500Y223950D02*
D03*
Y253950D02*
D03*
Y183450D02*
D03*
Y213450D02*
D03*
Y142950D02*
D03*
Y172950D02*
D03*
Y101950D02*
D03*
Y131950D02*
D03*
Y60950D02*
D03*
Y90950D02*
D03*
Y19950D02*
D03*
Y49950D02*
D03*
X223000Y193550D02*
D03*
Y163550D02*
D03*
X73000Y213850D02*
D03*
Y179050D02*
D03*
X225000Y86150D02*
D03*
Y120950D02*
D03*
X36000Y39850D02*
D03*
Y5050D02*
D03*
X181900Y5550D02*
D03*
Y50250D02*
D03*
D81*
X61150Y34000D02*
D03*
X95950D02*
D03*
X106650Y42000D02*
D03*
X141450D02*
D03*
D82*
X39500Y207550D02*
D03*
Y252950D02*
D03*
D83*
X101450Y12695D02*
D03*
X56050D02*
D03*
D84*
X177500Y146500D02*
D03*
X184193D02*
D03*
X192000D02*
D03*
X198693D02*
D03*
X206000Y137500D02*
D03*
X199307D02*
D03*
X205000Y125500D02*
D03*
X198307D02*
D03*
X151193Y215500D02*
D03*
X144500D02*
D03*
X45000Y186000D02*
D03*
X38307D02*
D03*
X179500Y99500D02*
D03*
X172807D02*
D03*
X179500Y105500D02*
D03*
X172807D02*
D03*
X91500Y150500D02*
D03*
X98193D02*
D03*
X66500Y102000D02*
D03*
X59807D02*
D03*
X75500Y51500D02*
D03*
X68807D02*
D03*
X88500D02*
D03*
X95193D02*
D03*
X205000Y131500D02*
D03*
X198307D02*
D03*
X136500Y60500D02*
D03*
X143193D02*
D03*
X114500Y187000D02*
D03*
X107807D02*
D03*
X179000Y93500D02*
D03*
X172307D02*
D03*
X202000Y118500D02*
D03*
X195307D02*
D03*
X36000Y85000D02*
D03*
X42693D02*
D03*
X36000Y92500D02*
D03*
X42693D02*
D03*
X133500Y71000D02*
D03*
X140193D02*
D03*
X63500Y61000D02*
D03*
X70193D02*
D03*
X125000Y183000D02*
D03*
X131693D02*
D03*
D85*
X50500Y144000D02*
D03*
X57980D02*
D03*
X70500Y68000D02*
D03*
X63020D02*
D03*
X57500Y83500D02*
D03*
X50020D02*
D03*
X57500Y91500D02*
D03*
X50020D02*
D03*
D86*
X64000Y126618D02*
D03*
Y109689D02*
D03*
D87*
X181626Y130374D02*
D03*
D88*
X189500Y135295D02*
D03*
Y133327D02*
D03*
Y131358D02*
D03*
Y129390D02*
D03*
Y127421D02*
D03*
Y125453D02*
D03*
X173752Y125453D02*
D03*
Y127421D02*
D03*
Y129390D02*
D03*
Y131358D02*
D03*
Y133327D02*
D03*
Y135295D02*
D03*
D89*
X176705Y138248D02*
D03*
X178673D02*
D03*
X180642D02*
D03*
X182610D02*
D03*
X184579D02*
D03*
X186547D02*
D03*
X186547Y122500D02*
D03*
X184579D02*
D03*
X182610D02*
D03*
X180642D02*
D03*
X178673D02*
D03*
X176705D02*
D03*
D90*
X215055Y43909D02*
D03*
D91*
X224110Y19500D02*
D03*
X206000D02*
D03*
X215055D02*
D03*
D92*
X87378Y138921D02*
D03*
X89346D02*
D03*
X91315D02*
D03*
X93283D02*
D03*
X95252D02*
D03*
X97220D02*
D03*
X99189D02*
D03*
X101157D02*
D03*
X103126D02*
D03*
X105095D02*
D03*
X107063D02*
D03*
X109031D02*
D03*
X111000D02*
D03*
X112969D02*
D03*
X114937D02*
D03*
X116905D02*
D03*
X118874D02*
D03*
X120843D02*
D03*
X122811D02*
D03*
X124779D02*
D03*
X126748D02*
D03*
X128717D02*
D03*
X130685D02*
D03*
X132653D02*
D03*
X134622D02*
D03*
Y79079D02*
D03*
X132653D02*
D03*
X130685D02*
D03*
X128717D02*
D03*
X126748D02*
D03*
X124779D02*
D03*
X122811D02*
D03*
X120843D02*
D03*
X118874D02*
D03*
X116905D02*
D03*
X114937D02*
D03*
X112969D02*
D03*
X111000D02*
D03*
X109031D02*
D03*
X107063D02*
D03*
X105095D02*
D03*
X103126D02*
D03*
X101157D02*
D03*
X99189D02*
D03*
X97220D02*
D03*
X95252D02*
D03*
X93283D02*
D03*
X91315D02*
D03*
X89346D02*
D03*
X87378D02*
D03*
D93*
X140921Y132622D02*
D03*
Y130654D02*
D03*
Y128685D02*
D03*
Y126716D02*
D03*
Y124748D02*
D03*
Y122780D02*
D03*
Y120811D02*
D03*
Y118842D02*
D03*
Y116874D02*
D03*
Y114906D02*
D03*
Y112937D02*
D03*
Y110968D02*
D03*
Y109000D02*
D03*
Y107032D02*
D03*
Y105063D02*
D03*
Y103094D02*
D03*
Y101126D02*
D03*
Y99158D02*
D03*
Y97189D02*
D03*
Y95221D02*
D03*
Y93252D02*
D03*
Y91284D02*
D03*
Y89315D02*
D03*
Y87347D02*
D03*
Y85378D02*
D03*
X81079D02*
D03*
Y87347D02*
D03*
Y89315D02*
D03*
Y91284D02*
D03*
Y93252D02*
D03*
Y95221D02*
D03*
Y97189D02*
D03*
Y99158D02*
D03*
Y101126D02*
D03*
Y103094D02*
D03*
Y105063D02*
D03*
Y107032D02*
D03*
Y109000D02*
D03*
Y110968D02*
D03*
Y112937D02*
D03*
Y114906D02*
D03*
Y116874D02*
D03*
Y118842D02*
D03*
Y120811D02*
D03*
Y122780D02*
D03*
Y124748D02*
D03*
Y126716D02*
D03*
Y128685D02*
D03*
Y130654D02*
D03*
Y132622D02*
D03*
D94*
X177000Y152500D02*
D03*
X184480D02*
D03*
X180740Y162343D02*
D03*
X191500Y152500D02*
D03*
X198980D02*
D03*
X195240Y162343D02*
D03*
D95*
X190701Y59000D02*
D03*
Y76717D02*
D03*
X222000D02*
D03*
Y59000D02*
D03*
D96*
X126411Y202807D02*
D03*
Y209500D02*
D03*
X138500Y202807D02*
D03*
Y209500D02*
D03*
X108278Y202807D02*
D03*
Y209500D02*
D03*
X114322Y202807D02*
D03*
Y209500D02*
D03*
X144544Y202807D02*
D03*
Y209500D02*
D03*
X163000Y35000D02*
D03*
Y41693D02*
D03*
X102234Y209500D02*
D03*
Y202807D02*
D03*
X156633Y209500D02*
D03*
Y202807D02*
D03*
X168722Y209500D02*
D03*
Y202807D02*
D03*
X149500Y80000D02*
D03*
Y86693D02*
D03*
X161000Y120000D02*
D03*
Y113307D02*
D03*
X180000Y80000D02*
D03*
Y86693D02*
D03*
X167500Y120000D02*
D03*
Y113307D02*
D03*
X38000Y200000D02*
D03*
Y193307D02*
D03*
X25000Y42000D02*
D03*
Y48693D02*
D03*
Y35000D02*
D03*
Y28307D02*
D03*
X67000Y150500D02*
D03*
Y143807D02*
D03*
X74000Y150500D02*
D03*
Y143807D02*
D03*
X32000Y193500D02*
D03*
Y200193D02*
D03*
X174000Y86693D02*
D03*
Y80000D02*
D03*
X156000Y86693D02*
D03*
Y80000D02*
D03*
X24500Y62500D02*
D03*
Y55807D02*
D03*
Y68638D02*
D03*
Y75331D02*
D03*
Y144500D02*
D03*
Y137807D02*
D03*
Y185000D02*
D03*
Y178307D02*
D03*
Y191138D02*
D03*
Y197831D02*
D03*
Y225000D02*
D03*
Y218307D02*
D03*
Y231500D02*
D03*
Y238193D02*
D03*
X105500Y59500D02*
D03*
Y66193D02*
D03*
X99500Y59500D02*
D03*
Y66193D02*
D03*
X87500Y66000D02*
D03*
Y59307D02*
D03*
X107000Y170000D02*
D03*
Y163307D02*
D03*
X160500Y137500D02*
D03*
Y130807D02*
D03*
X138500Y147500D02*
D03*
Y140807D02*
D03*
X96189Y202614D02*
D03*
Y209307D02*
D03*
X120367Y202807D02*
D03*
Y209500D02*
D03*
X132456Y202807D02*
D03*
Y209500D02*
D03*
X150589D02*
D03*
Y202807D02*
D03*
X162678Y209500D02*
D03*
Y202807D02*
D03*
X174766D02*
D03*
Y209500D02*
D03*
X45000Y200000D02*
D03*
Y193307D02*
D03*
X162000Y80000D02*
D03*
Y86693D02*
D03*
X168000Y80000D02*
D03*
Y86693D02*
D03*
X50000Y152000D02*
D03*
Y158693D02*
D03*
X58000Y152000D02*
D03*
Y158693D02*
D03*
X112500Y63000D02*
D03*
Y69693D02*
D03*
X124000Y61500D02*
D03*
Y68193D02*
D03*
X93500Y66000D02*
D03*
Y59307D02*
D03*
X168500Y155500D02*
D03*
Y162193D02*
D03*
X154500Y130807D02*
D03*
Y137500D02*
D03*
X53500Y121500D02*
D03*
Y128193D02*
D03*
X24500Y150638D02*
D03*
Y157331D02*
D03*
X25000Y131000D02*
D03*
Y124307D02*
D03*
X81500Y66000D02*
D03*
Y59307D02*
D03*
X24500Y109638D02*
D03*
Y116331D02*
D03*
X53500Y114807D02*
D03*
Y108114D02*
D03*
X24500Y103000D02*
D03*
Y96307D02*
D03*
D97*
X65500Y157500D02*
D03*
Y164980D02*
D03*
X73500Y157500D02*
D03*
Y164980D02*
D03*
D98*
X224110Y7000D02*
D03*
X206000D02*
D03*
D99*
X174900Y171800D02*
D03*
Y187800D02*
D03*
X179900Y171800D02*
D03*
Y187800D02*
D03*
X184900Y171800D02*
D03*
Y187800D02*
D03*
X189900Y171800D02*
D03*
Y188000D02*
D03*
X194900Y171800D02*
D03*
Y187800D02*
D03*
D100*
X18000Y243843D02*
D03*
Y238921D02*
D03*
Y234000D02*
D03*
Y203343D02*
D03*
Y198421D02*
D03*
Y193500D02*
D03*
Y162843D02*
D03*
Y157921D02*
D03*
Y153000D02*
D03*
Y121843D02*
D03*
Y116921D02*
D03*
Y112000D02*
D03*
Y80843D02*
D03*
Y75921D02*
D03*
Y71000D02*
D03*
Y39843D02*
D03*
Y34921D02*
D03*
Y30000D02*
D03*
X212500Y173658D02*
D03*
Y178579D02*
D03*
Y183500D02*
D03*
X83500Y193921D02*
D03*
Y189000D02*
D03*
Y198821D02*
D03*
Y203743D02*
D03*
X214500Y106079D02*
D03*
Y111000D02*
D03*
Y101179D02*
D03*
Y96258D02*
D03*
X46500Y19921D02*
D03*
Y15000D02*
D03*
Y24821D02*
D03*
Y29743D02*
D03*
X171400Y30379D02*
D03*
Y25458D02*
D03*
Y15615D02*
D03*
Y20515D02*
D03*
Y40200D02*
D03*
Y35279D02*
D03*
D101*
X81079Y44500D02*
D03*
X86000D02*
D03*
X76179D02*
D03*
X71258D02*
D03*
X126579Y52500D02*
D03*
X131500D02*
D03*
X121679D02*
D03*
X116758D02*
D03*
D102*
X44500Y215500D02*
D03*
Y221406D02*
D03*
Y227311D02*
D03*
Y233217D02*
D03*
Y239122D02*
D03*
Y245028D02*
D03*
D103*
X93500Y17695D02*
D03*
X87594D02*
D03*
X81689D02*
D03*
X75783D02*
D03*
X69878D02*
D03*
X63973D02*
D03*
D104*
X105000Y277000D02*
D03*
X100000D02*
D03*
X95000D02*
D03*
X85000D02*
D03*
X80000D02*
D03*
X75000D02*
D03*
X151500D02*
D03*
X146500D02*
D03*
X141500D02*
D03*
X131500D02*
D03*
X126500D02*
D03*
X121500D02*
D03*
X200000D02*
D03*
X195000D02*
D03*
X190000D02*
D03*
X180000D02*
D03*
X175000D02*
D03*
X170000D02*
D03*
D105*
X90000Y245839D02*
D03*
X136500D02*
D03*
X185000D02*
D03*
D106*
X40000Y111000D02*
D03*
X221000Y302000D02*
D03*
X9500Y8500D02*
D03*
D107*
X37000Y272000D02*
D03*
Y294000D02*
D03*
X15500D02*
D03*
Y272000D02*
D03*
X85000Y294000D02*
D03*
X138500D02*
D03*
X191500D02*
D03*
D108*
X226500Y283307D02*
D03*
Y240000D02*
D03*
X55500Y301807D02*
D03*
Y258500D02*
D03*
D109*
X112500Y6000D02*
D03*
X124625D02*
D03*
X136750D02*
D03*
X148875D02*
D03*
X161000D02*
D03*
D110*
X112500Y16000D02*
D03*
Y26000D02*
D03*
X124625Y16000D02*
D03*
Y26000D02*
D03*
X136750Y16000D02*
D03*
Y26000D02*
D03*
X148875Y16000D02*
D03*
Y26000D02*
D03*
X161000Y16000D02*
D03*
Y26000D02*
D03*
D111*
X225500Y228000D02*
D03*
D112*
X220000Y278000D02*
D03*
X219000Y281500D02*
D03*
X214000Y282179D02*
D03*
X217500Y218000D02*
D03*
X45000Y182500D02*
D03*
X162000Y284000D02*
D03*
X158697Y288000D02*
D03*
X154000D02*
D03*
X162000Y288750D02*
D03*
X165000Y288000D02*
D03*
X60500Y228110D02*
D03*
X63500Y236500D02*
D03*
Y233000D02*
D03*
X207000Y282179D02*
D03*
X210500D02*
D03*
X126000Y287500D02*
D03*
X123000D02*
D03*
X120000D02*
D03*
X117000D02*
D03*
X114000D02*
D03*
X166500Y192500D02*
D03*
X162678Y198162D02*
D03*
X170000Y193500D02*
D03*
X156000Y214000D02*
D03*
X158000Y219000D02*
D03*
X156633Y198162D02*
D03*
X154657Y190843D02*
D03*
X169000Y214500D02*
D03*
X165000Y218500D02*
D03*
X226000Y48500D02*
D03*
X231500Y58500D02*
D03*
Y61500D02*
D03*
X229000Y60000D02*
D03*
Y57000D02*
D03*
Y48000D02*
D03*
X231500Y49500D02*
D03*
X229000Y51000D02*
D03*
Y54000D02*
D03*
X231500Y52500D02*
D03*
Y55500D02*
D03*
X148000Y127000D02*
D03*
X79018Y71482D02*
D03*
X64000Y72500D02*
D03*
X69000Y115500D02*
D03*
X177250Y81162D02*
D03*
X189466Y78104D02*
D03*
X192500Y89500D02*
D03*
X158250Y80857D02*
D03*
X145682Y74682D02*
D03*
X186500Y110500D02*
D03*
X180500Y116000D02*
D03*
X146783Y145283D02*
D03*
X149000Y148000D02*
D03*
X151500Y145500D02*
D03*
X142846Y149346D02*
D03*
X134500Y145500D02*
D03*
X131000Y148500D02*
D03*
X125777Y147500D02*
D03*
X116000Y87000D02*
D03*
X107000D02*
D03*
X111000D02*
D03*
X110000Y71000D02*
D03*
X36500Y97000D02*
D03*
X131000Y96000D02*
D03*
X133500Y87000D02*
D03*
X129000Y99000D02*
D03*
X122500Y97500D02*
D03*
X132937Y105063D02*
D03*
X131500Y89476D02*
D03*
X127500Y86000D02*
D03*
X124962Y87651D02*
D03*
X122000Y87000D02*
D03*
X119000D02*
D03*
X118500Y131000D02*
D03*
X163500Y126000D02*
D03*
X154500Y219000D02*
D03*
X204500Y277500D02*
D03*
X139000Y198500D02*
D03*
X136000D02*
D03*
X147500Y198000D02*
D03*
X150589Y198162D02*
D03*
X145500Y192000D02*
D03*
X133500Y196000D02*
D03*
X132500Y190000D02*
D03*
X123000D02*
D03*
X162000Y218000D02*
D03*
X161500Y262500D02*
D03*
X113000Y259000D02*
D03*
X116000Y267500D02*
D03*
X156000Y277500D02*
D03*
X111000Y265500D02*
D03*
X129493Y198546D02*
D03*
X29500Y48000D02*
D03*
X91500Y146500D02*
D03*
X101000D02*
D03*
X103962Y145807D02*
D03*
X110000Y146000D02*
D03*
X108000Y148477D02*
D03*
X120048Y145000D02*
D03*
X169000Y74000D02*
D03*
X187500Y93500D02*
D03*
X39000Y55000D02*
D03*
X49000Y53909D02*
D03*
X54500D02*
D03*
X32000Y90000D02*
D03*
X64500Y78000D02*
D03*
X98500Y190500D02*
D03*
X10500Y39500D02*
D03*
X29000Y57000D02*
D03*
X22500Y13000D02*
D03*
X71000Y6000D02*
D03*
X83500Y3500D02*
D03*
X78000Y59500D02*
D03*
X224856Y27144D02*
D03*
X177000Y161000D02*
D03*
X200000Y185000D02*
D03*
X166000Y144000D02*
D03*
X120500Y94500D02*
D03*
X95000Y120500D02*
D03*
X107500Y97500D02*
D03*
X27500Y185000D02*
D03*
X29500Y190000D02*
D03*
X121500Y131000D02*
D03*
X124500D02*
D03*
X129872Y126372D02*
D03*
X132432Y124743D02*
D03*
X133000Y120000D02*
D03*
X130500Y115000D02*
D03*
X127500Y131000D02*
D03*
X123500Y145000D02*
D03*
X128000Y145500D02*
D03*
X131000D02*
D03*
X33500Y232500D02*
D03*
X34500Y227000D02*
D03*
X31589Y181881D02*
D03*
X31000Y204500D02*
D03*
X100500Y159500D02*
D03*
X97000Y131000D02*
D03*
X103000D02*
D03*
X100000D02*
D03*
X99500Y89500D02*
D03*
X95500Y87000D02*
D03*
X101038Y86783D02*
D03*
X158500Y42500D02*
D03*
X154000D02*
D03*
X85000Y143000D02*
D03*
X55500Y104000D02*
D03*
X53000Y88000D02*
D03*
X213500Y4500D02*
D03*
X167000Y22500D02*
D03*
X90500Y113000D02*
D03*
X90227Y99727D02*
D03*
X87000Y115000D02*
D03*
Y95000D02*
D03*
X166500Y140500D02*
D03*
X200500Y142500D02*
D03*
X195000Y138000D02*
D03*
X197000Y108000D02*
D03*
X173000Y119000D02*
D03*
X63000Y230000D02*
D03*
X126500Y121000D02*
D03*
X155500Y126500D02*
D03*
X106500Y287500D02*
D03*
X194500Y178500D02*
D03*
X168000Y288500D02*
D03*
X102000Y216000D02*
D03*
X45000Y88750D02*
D03*
X75500Y27567D02*
D03*
X36642Y75358D02*
D03*
X81500Y28000D02*
D03*
X39000Y58500D02*
D03*
X169000Y181000D02*
D03*
X190000Y178500D02*
D03*
X184900Y178400D02*
D03*
X130000Y194000D02*
D03*
X120000Y190000D02*
D03*
X71500Y102500D02*
D03*
X73000Y105500D02*
D03*
X29500Y225000D02*
D03*
X69000Y138500D02*
D03*
X17500Y12500D02*
D03*
X36000Y15000D02*
D03*
X142846Y189846D02*
D03*
X102234Y198162D02*
D03*
X106000Y131000D02*
D03*
X12500Y73000D02*
D03*
X23693Y79693D02*
D03*
X176154Y108806D02*
D03*
X155500Y123000D02*
D03*
X132500Y110000D02*
D03*
X179900Y178600D02*
D03*
X79000Y141500D02*
D03*
X80500Y146500D02*
D03*
X78693Y79693D02*
D03*
X13500Y39500D02*
D03*
X13000Y34500D02*
D03*
X28000Y82500D02*
D03*
X29500Y73000D02*
D03*
X12000Y82000D02*
D03*
X112000Y217000D02*
D03*
X118000Y218500D02*
D03*
X118500Y215500D02*
D03*
X120500Y213000D02*
D03*
X120000Y197500D02*
D03*
X113500D02*
D03*
X203500Y114500D02*
D03*
X187000Y90000D02*
D03*
X195500Y82500D02*
D03*
X192500Y83000D02*
D03*
X185000Y72055D02*
D03*
X228000Y69000D02*
D03*
X173500Y74000D02*
D03*
X162000Y95500D02*
D03*
X143000Y81000D02*
D03*
X144500Y66000D02*
D03*
X111500Y53000D02*
D03*
X132991Y161500D02*
D03*
X153464D02*
D03*
X112519Y166618D02*
D03*
Y161500D02*
D03*
X117637D02*
D03*
X122755D02*
D03*
X127873D02*
D03*
X138109D02*
D03*
X143228D02*
D03*
X148346D02*
D03*
X158582D02*
D03*
X163700D02*
D03*
X117637Y166618D02*
D03*
X122755D02*
D03*
X127873D02*
D03*
X132991D02*
D03*
X138109D02*
D03*
X143228D02*
D03*
X148346D02*
D03*
X153464D02*
D03*
X158582D02*
D03*
X163700D02*
D03*
X112519Y171736D02*
D03*
X117637D02*
D03*
X122755D02*
D03*
X127873D02*
D03*
X132991D02*
D03*
X138109D02*
D03*
X143228D02*
D03*
X148346D02*
D03*
X153464D02*
D03*
X158582D02*
D03*
X163700D02*
D03*
X112519Y176854D02*
D03*
X117637D02*
D03*
X122755D02*
D03*
X127873D02*
D03*
X132991D02*
D03*
X138109D02*
D03*
X143228D02*
D03*
X148346D02*
D03*
X153464D02*
D03*
X158582D02*
D03*
X163700D02*
D03*
X52000Y193000D02*
D03*
X62000Y54000D02*
D03*
X208500Y90000D02*
D03*
X33000Y46000D02*
D03*
X100000Y44000D02*
D03*
X72500Y38500D02*
D03*
X56000Y78000D02*
D03*
X43500Y52500D02*
D03*
X108278Y198162D02*
D03*
X181500Y69000D02*
D03*
X185000D02*
D03*
X188500Y72055D02*
D03*
Y69000D02*
D03*
X181500Y72055D02*
D03*
M02*
