G04 Layer_Color=8421504*
%FSLAX25Y25*%
%MOIN*%
G70*
G01*
G75*
%ADD10R,0.04331X0.03937*%
%ADD11R,0.05118X0.05906*%
%ADD12R,0.10236X0.07480*%
%ADD13R,0.10236X0.10630*%
%ADD14R,0.03150X0.01378*%
%ADD15R,0.01378X0.03150*%
%ADD16R,0.13780X0.09843*%
%ADD17R,0.03937X0.07874*%
%ADD18O,0.01181X0.08268*%
%ADD19O,0.08268X0.01181*%
%ADD20R,0.03150X0.03937*%
%ADD21R,0.06102X0.05118*%
%ADD22R,0.03937X0.04331*%
%ADD23R,0.05906X0.05118*%
%ADD24R,0.07480X0.10630*%
%ADD25R,0.03150X0.09449*%
%ADD26R,0.05118X0.03150*%
%ADD27R,0.03150X0.05118*%
%ADD28R,0.15748X0.03150*%
%ADD29R,0.03150X0.15748*%
%ADD30R,0.02953X0.08996*%
%ADD31R,0.39154X0.35492*%
%ADD41R,0.11811X0.08268*%
%ADD42R,0.08268X0.11811*%
%ADD43R,0.09055X0.05906*%
%ADD44R,0.05906X0.09055*%
D10*
X177500Y146500D02*
D03*
X184193D02*
D03*
X192000D02*
D03*
X198693D02*
D03*
X206000Y137500D02*
D03*
X199307D02*
D03*
X205000Y125500D02*
D03*
X198307D02*
D03*
X151193Y215500D02*
D03*
X144500D02*
D03*
X45000Y186000D02*
D03*
X38307D02*
D03*
X179500Y99500D02*
D03*
X172807D02*
D03*
X179500Y105500D02*
D03*
X172807D02*
D03*
X91500Y150500D02*
D03*
X98193D02*
D03*
X66500Y102000D02*
D03*
X59807D02*
D03*
X75500Y51500D02*
D03*
X68807D02*
D03*
X88500D02*
D03*
X95193D02*
D03*
X205000Y131500D02*
D03*
X198307D02*
D03*
X136500Y60500D02*
D03*
X143193D02*
D03*
X114500Y187000D02*
D03*
X107807D02*
D03*
X179000Y93500D02*
D03*
X172307D02*
D03*
X202000Y118500D02*
D03*
X195307D02*
D03*
X36000Y85000D02*
D03*
X42693D02*
D03*
X36000Y92500D02*
D03*
X42693D02*
D03*
X133500Y71000D02*
D03*
X140193D02*
D03*
X63500Y61000D02*
D03*
X70193D02*
D03*
X125000Y183000D02*
D03*
X131693D02*
D03*
D11*
X50500Y144000D02*
D03*
X57980D02*
D03*
X70500Y68000D02*
D03*
X63020D02*
D03*
X57500Y83500D02*
D03*
X50020D02*
D03*
X57500Y91500D02*
D03*
X50020D02*
D03*
D12*
X64000Y126618D02*
D03*
Y109689D02*
D03*
D13*
X181626Y130374D02*
D03*
D14*
X189500Y135295D02*
D03*
Y133327D02*
D03*
Y131358D02*
D03*
Y129390D02*
D03*
Y127421D02*
D03*
Y125453D02*
D03*
X173752Y125453D02*
D03*
Y127421D02*
D03*
Y129390D02*
D03*
Y131358D02*
D03*
Y133327D02*
D03*
Y135295D02*
D03*
D15*
X176705Y138248D02*
D03*
X178673D02*
D03*
X180642D02*
D03*
X182610D02*
D03*
X184579D02*
D03*
X186547D02*
D03*
X186547Y122500D02*
D03*
X184579D02*
D03*
X182610D02*
D03*
X180642D02*
D03*
X178673D02*
D03*
X176705D02*
D03*
D16*
X215055Y43909D02*
D03*
D17*
X224110Y19500D02*
D03*
X206000D02*
D03*
X215055D02*
D03*
D18*
X87378Y138921D02*
D03*
X89346D02*
D03*
X91315D02*
D03*
X93283D02*
D03*
X95252D02*
D03*
X97220D02*
D03*
X99189D02*
D03*
X101157D02*
D03*
X103126D02*
D03*
X105095D02*
D03*
X107063D02*
D03*
X109031D02*
D03*
X111000D02*
D03*
X112969D02*
D03*
X114937D02*
D03*
X116905D02*
D03*
X118874D02*
D03*
X120843D02*
D03*
X122811D02*
D03*
X124779D02*
D03*
X126748D02*
D03*
X128717D02*
D03*
X130685D02*
D03*
X132653D02*
D03*
X134622D02*
D03*
Y79079D02*
D03*
X132653D02*
D03*
X130685D02*
D03*
X128717D02*
D03*
X126748D02*
D03*
X124779D02*
D03*
X122811D02*
D03*
X120843D02*
D03*
X118874D02*
D03*
X116905D02*
D03*
X114937D02*
D03*
X112969D02*
D03*
X111000D02*
D03*
X109031D02*
D03*
X107063D02*
D03*
X105095D02*
D03*
X103126D02*
D03*
X101157D02*
D03*
X99189D02*
D03*
X97220D02*
D03*
X95252D02*
D03*
X93283D02*
D03*
X91315D02*
D03*
X89346D02*
D03*
X87378D02*
D03*
D19*
X140921Y132622D02*
D03*
Y130654D02*
D03*
Y128685D02*
D03*
Y126716D02*
D03*
Y124748D02*
D03*
Y122780D02*
D03*
Y120811D02*
D03*
Y118842D02*
D03*
Y116874D02*
D03*
Y114906D02*
D03*
Y112937D02*
D03*
Y110968D02*
D03*
Y109000D02*
D03*
Y107032D02*
D03*
Y105063D02*
D03*
Y103094D02*
D03*
Y101126D02*
D03*
Y99158D02*
D03*
Y97189D02*
D03*
Y95221D02*
D03*
Y93252D02*
D03*
Y91284D02*
D03*
Y89315D02*
D03*
Y87347D02*
D03*
Y85378D02*
D03*
X81079D02*
D03*
Y87347D02*
D03*
Y89315D02*
D03*
Y91284D02*
D03*
Y93252D02*
D03*
Y95221D02*
D03*
Y97189D02*
D03*
Y99158D02*
D03*
Y101126D02*
D03*
Y103094D02*
D03*
Y105063D02*
D03*
Y107032D02*
D03*
Y109000D02*
D03*
Y110968D02*
D03*
Y112937D02*
D03*
Y114906D02*
D03*
Y116874D02*
D03*
Y118842D02*
D03*
Y120811D02*
D03*
Y122780D02*
D03*
Y124748D02*
D03*
Y126716D02*
D03*
Y128685D02*
D03*
Y130654D02*
D03*
Y132622D02*
D03*
D20*
X177000Y152500D02*
D03*
X184480D02*
D03*
X180740Y162343D02*
D03*
X191500Y152500D02*
D03*
X198980D02*
D03*
X195240Y162343D02*
D03*
D21*
X190701Y59000D02*
D03*
Y76717D02*
D03*
X222000D02*
D03*
Y59000D02*
D03*
D22*
X126411Y202807D02*
D03*
Y209500D02*
D03*
X138500Y202807D02*
D03*
Y209500D02*
D03*
X108278Y202807D02*
D03*
Y209500D02*
D03*
X114322Y202807D02*
D03*
Y209500D02*
D03*
X144544Y202807D02*
D03*
Y209500D02*
D03*
X163000Y35000D02*
D03*
Y41693D02*
D03*
X102234Y209500D02*
D03*
Y202807D02*
D03*
X156633Y209500D02*
D03*
Y202807D02*
D03*
X168722Y209500D02*
D03*
Y202807D02*
D03*
X149500Y80000D02*
D03*
Y86693D02*
D03*
X161000Y120000D02*
D03*
Y113307D02*
D03*
X180000Y80000D02*
D03*
Y86693D02*
D03*
X167500Y120000D02*
D03*
Y113307D02*
D03*
X38000Y200000D02*
D03*
Y193307D02*
D03*
X25000Y42000D02*
D03*
Y48693D02*
D03*
Y35000D02*
D03*
Y28307D02*
D03*
X67000Y150500D02*
D03*
Y143807D02*
D03*
X74000Y150500D02*
D03*
Y143807D02*
D03*
X32000Y193500D02*
D03*
Y200193D02*
D03*
X174000Y86693D02*
D03*
Y80000D02*
D03*
X156000Y86693D02*
D03*
Y80000D02*
D03*
X24500Y62500D02*
D03*
Y55807D02*
D03*
Y68638D02*
D03*
Y75331D02*
D03*
Y144500D02*
D03*
Y137807D02*
D03*
Y185000D02*
D03*
Y178307D02*
D03*
Y191138D02*
D03*
Y197831D02*
D03*
Y225000D02*
D03*
Y218307D02*
D03*
Y231500D02*
D03*
Y238193D02*
D03*
X105500Y59500D02*
D03*
Y66193D02*
D03*
X99500Y59500D02*
D03*
Y66193D02*
D03*
X87500Y66000D02*
D03*
Y59307D02*
D03*
X107000Y170000D02*
D03*
Y163307D02*
D03*
X160500Y137500D02*
D03*
Y130807D02*
D03*
X138500Y147500D02*
D03*
Y140807D02*
D03*
X96189Y202614D02*
D03*
Y209307D02*
D03*
X120367Y202807D02*
D03*
Y209500D02*
D03*
X132456Y202807D02*
D03*
Y209500D02*
D03*
X150589D02*
D03*
Y202807D02*
D03*
X162678Y209500D02*
D03*
Y202807D02*
D03*
X174766D02*
D03*
Y209500D02*
D03*
X45000Y200000D02*
D03*
Y193307D02*
D03*
X162000Y80000D02*
D03*
Y86693D02*
D03*
X168000Y80000D02*
D03*
Y86693D02*
D03*
X50000Y152000D02*
D03*
Y158693D02*
D03*
X58000Y152000D02*
D03*
Y158693D02*
D03*
X112500Y63000D02*
D03*
Y69693D02*
D03*
X124000Y61500D02*
D03*
Y68193D02*
D03*
X93500Y66000D02*
D03*
Y59307D02*
D03*
X168500Y155500D02*
D03*
Y162193D02*
D03*
X154500Y130807D02*
D03*
Y137500D02*
D03*
X53500Y121500D02*
D03*
Y128193D02*
D03*
X24500Y150638D02*
D03*
Y157331D02*
D03*
X25000Y131000D02*
D03*
Y124307D02*
D03*
X81500Y66000D02*
D03*
Y59307D02*
D03*
X24500Y109638D02*
D03*
Y116331D02*
D03*
X53500Y114807D02*
D03*
Y108114D02*
D03*
X24500Y103000D02*
D03*
Y96307D02*
D03*
D23*
X65500Y157500D02*
D03*
Y164980D02*
D03*
X73500Y157500D02*
D03*
Y164980D02*
D03*
D24*
X224110Y7000D02*
D03*
X206000D02*
D03*
D25*
X174900Y171800D02*
D03*
Y187800D02*
D03*
X179900Y171800D02*
D03*
Y187800D02*
D03*
X184900Y171800D02*
D03*
Y187800D02*
D03*
X189900Y171800D02*
D03*
Y188000D02*
D03*
X194900Y171800D02*
D03*
Y187800D02*
D03*
D26*
X18000Y243843D02*
D03*
Y238921D02*
D03*
Y234000D02*
D03*
Y203343D02*
D03*
Y198421D02*
D03*
Y193500D02*
D03*
Y162843D02*
D03*
Y157921D02*
D03*
Y153000D02*
D03*
Y121843D02*
D03*
Y116921D02*
D03*
Y112000D02*
D03*
Y80843D02*
D03*
Y75921D02*
D03*
Y71000D02*
D03*
Y39843D02*
D03*
Y34921D02*
D03*
Y30000D02*
D03*
X212500Y173658D02*
D03*
Y178579D02*
D03*
Y183500D02*
D03*
X83500Y193921D02*
D03*
Y189000D02*
D03*
Y198821D02*
D03*
Y203743D02*
D03*
X214500Y106079D02*
D03*
Y111000D02*
D03*
Y101179D02*
D03*
Y96258D02*
D03*
X46500Y19921D02*
D03*
Y15000D02*
D03*
Y24821D02*
D03*
Y29743D02*
D03*
X171400Y30379D02*
D03*
Y25458D02*
D03*
Y15615D02*
D03*
Y20515D02*
D03*
Y40200D02*
D03*
Y35279D02*
D03*
D27*
X81079Y44500D02*
D03*
X86000D02*
D03*
X76179D02*
D03*
X71258D02*
D03*
X126579Y52500D02*
D03*
X131500D02*
D03*
X121679D02*
D03*
X116758D02*
D03*
D28*
X44500Y215500D02*
D03*
Y221406D02*
D03*
Y227311D02*
D03*
Y233217D02*
D03*
Y239122D02*
D03*
Y245028D02*
D03*
D29*
X93500Y17695D02*
D03*
X87594D02*
D03*
X81689D02*
D03*
X75783D02*
D03*
X69878D02*
D03*
X63973D02*
D03*
D30*
X105000Y277000D02*
D03*
X100000D02*
D03*
X95000D02*
D03*
X85000D02*
D03*
X80000D02*
D03*
X75000D02*
D03*
X151500D02*
D03*
X146500D02*
D03*
X141500D02*
D03*
X131500D02*
D03*
X126500D02*
D03*
X121500D02*
D03*
X200000D02*
D03*
X195000D02*
D03*
X190000D02*
D03*
X180000D02*
D03*
X175000D02*
D03*
X170000D02*
D03*
D31*
X90000Y245839D02*
D03*
X136500D02*
D03*
X185000D02*
D03*
D41*
X7506Y224034D02*
D03*
X7506Y254034D02*
D03*
X7506Y183534D02*
D03*
X7506Y213534D02*
D03*
X7506Y143034D02*
D03*
X7506Y173034D02*
D03*
X7506Y102034D02*
D03*
X7506Y132034D02*
D03*
X7506Y61034D02*
D03*
X7506Y91034D02*
D03*
X7506Y20034D02*
D03*
X7506Y50034D02*
D03*
X222994Y193466D02*
D03*
Y163466D02*
D03*
X73006Y213934D02*
D03*
X73006Y179134D02*
D03*
X224994Y86066D02*
D03*
Y120866D02*
D03*
X36006Y39934D02*
D03*
X36006Y5134D02*
D03*
X181895Y5466D02*
D03*
Y50166D02*
D03*
D42*
X61066Y34005D02*
D03*
X95866D02*
D03*
X106566Y42006D02*
D03*
X141366D02*
D03*
D43*
X39472Y207553D02*
D03*
Y252953D02*
D03*
D44*
X101447Y12667D02*
D03*
X56047D02*
D03*
M02*
