G04 Layer_Physical_Order=1*
G04 Layer_Color=255*
%FSLAX25Y25*%
%MOIN*%
G70*
G01*
G75*
%ADD10R,0.04331X0.03937*%
%ADD11R,0.05118X0.05906*%
%ADD12R,0.10236X0.07480*%
%ADD13R,0.10236X0.10630*%
%ADD14R,0.03150X0.01378*%
%ADD15R,0.01378X0.03150*%
%ADD16R,0.13780X0.09843*%
%ADD17R,0.03937X0.07874*%
%ADD18O,0.01181X0.08268*%
%ADD19O,0.08268X0.01181*%
%ADD20R,0.03150X0.03937*%
%ADD21R,0.06102X0.05118*%
%ADD22R,0.03937X0.04331*%
%ADD23R,0.05906X0.05118*%
%ADD24R,0.07480X0.10630*%
%ADD25R,0.03150X0.09449*%
%ADD26R,0.05118X0.03150*%
%ADD27R,0.03150X0.05118*%
%ADD28R,0.15748X0.03150*%
%ADD29R,0.03150X0.15748*%
%ADD30R,0.02953X0.08996*%
%ADD31R,0.39154X0.35492*%
%ADD32C,0.01181*%
%ADD33C,0.11811*%
%ADD34C,0.02756*%
%ADD35C,0.00984*%
%ADD36C,0.19685*%
%ADD37C,0.01500*%
%ADD38C,0.01575*%
%ADD39C,0.17716*%
%ADD40C,0.15748*%
%ADD41R,0.11811X0.08268*%
%ADD42R,0.08268X0.11811*%
%ADD43R,0.09055X0.05906*%
%ADD44R,0.05906X0.09055*%
%ADD45C,0.11811*%
%ADD46C,0.19685*%
%ADD47C,0.09843*%
%ADD48R,0.05906X0.05906*%
%ADD49C,0.05906*%
%ADD50C,0.07874*%
%ADD51C,0.02362*%
%ADD52C,0.02717*%
G36*
X20254Y152367D02*
X21350D01*
Y147291D01*
Y141154D01*
X25292D01*
X48535Y117911D01*
Y105456D01*
X48672Y104764D01*
X49064Y104178D01*
X49974Y103268D01*
X49782Y102806D01*
X27650D01*
Y106291D01*
Y111548D01*
X28127Y111867D01*
X30706Y114446D01*
X31076Y114999D01*
X31206Y115652D01*
Y129996D01*
X31306Y130500D01*
X31206Y131005D01*
Y132807D01*
X31076Y133460D01*
X30706Y134013D01*
X26063Y138657D01*
X25777Y139084D01*
X25191Y139476D01*
X24500Y139613D01*
X21441D01*
X19306Y141748D01*
Y151766D01*
X19669Y152309D01*
X19702Y152477D01*
X20254Y152367D01*
D02*
G37*
G36*
X208294Y119793D02*
Y113206D01*
X206062D01*
X205728Y113706D01*
X205801Y113883D01*
X205883Y114500D01*
X205801Y115117D01*
X205563Y115691D01*
X205185Y116185D01*
X204691Y116563D01*
X204117Y116801D01*
X203597Y116870D01*
X203565Y116905D01*
X203432Y117151D01*
X203376Y117371D01*
X203669Y117809D01*
X203806Y118500D01*
Y120387D01*
X204524Y121105D01*
X204916Y121691D01*
X205044Y122336D01*
X205180Y122420D01*
X205554Y122534D01*
X208294Y119793D01*
D02*
G37*
G36*
X207864Y97686D02*
X208010Y97322D01*
X203344Y92656D01*
X199187Y88499D01*
X195113D01*
X194817Y88999D01*
X194883Y89500D01*
X194801Y90117D01*
X194563Y90691D01*
X194185Y91185D01*
X193691Y91563D01*
X193117Y91801D01*
X192500Y91883D01*
X191883Y91801D01*
X191309Y91563D01*
X190815Y91185D01*
X190437Y90691D01*
X190199Y90117D01*
X190117Y89500D01*
X189722Y89078D01*
X189716Y89078D01*
X189608Y89157D01*
X189326Y89574D01*
X189383Y90000D01*
X189301Y90617D01*
X189063Y91191D01*
X188688Y91680D01*
X188624Y91769D01*
X188679Y92276D01*
X188706Y92294D01*
X189076Y92847D01*
X189206Y93500D01*
X189076Y94153D01*
X188706Y94706D01*
X188153Y95076D01*
X187500Y95206D01*
X179000D01*
X178347Y95076D01*
X177794Y94706D01*
X177424Y94153D01*
X177294Y93500D01*
X177424Y92847D01*
X177794Y92294D01*
X178347Y91924D01*
X179000Y91794D01*
X184769D01*
X185015Y91294D01*
X184937Y91191D01*
X184699Y90617D01*
X184617Y90000D01*
X184699Y89383D01*
X184749Y89262D01*
X184415Y88762D01*
X183150D01*
Y90039D01*
X176025D01*
X175654Y90350D01*
Y96350D01*
X176154D01*
Y96350D01*
X176154D01*
Y96350D01*
X182846D01*
Y97794D01*
X207775D01*
X207864Y97686D01*
D02*
G37*
G36*
X14837Y97008D02*
X15111Y96597D01*
X16294Y95414D01*
Y83598D01*
X14260D01*
X14260Y83598D01*
Y83598D01*
X13760Y83587D01*
X13685Y83685D01*
X13191Y84063D01*
X12617Y84301D01*
X12000Y84383D01*
X11383Y84301D01*
X10809Y84063D01*
X10315Y83685D01*
X9937Y83191D01*
X9699Y82617D01*
X9617Y82000D01*
X9699Y81383D01*
X9937Y80809D01*
X10315Y80315D01*
X10809Y79937D01*
X11383Y79699D01*
X11974Y79621D01*
X12505Y79266D01*
X13158Y79137D01*
X14260D01*
Y75257D01*
X13760Y75011D01*
X13691Y75063D01*
X13117Y75301D01*
X12500Y75383D01*
X11883Y75301D01*
X11309Y75063D01*
X10815Y74685D01*
X10437Y74191D01*
X10199Y73617D01*
X10117Y73000D01*
X10199Y72383D01*
X10437Y71809D01*
X10815Y71315D01*
X11309Y70937D01*
X11883Y70699D01*
X12500Y70617D01*
X13117Y70699D01*
X13691Y70937D01*
X14185Y71315D01*
X14563Y71809D01*
X14801Y72383D01*
X14883Y73000D01*
X15028Y73165D01*
X17242D01*
X17309Y72669D01*
X16723Y72277D01*
X16331Y71691D01*
X16194Y71000D01*
Y62307D01*
X16331Y61616D01*
X16723Y61030D01*
X23194Y54559D01*
Y50499D01*
X17916D01*
X17225Y50362D01*
X16639Y49970D01*
X15077Y48409D01*
X14615Y48600D01*
Y54168D01*
X14524Y54628D01*
X14263Y55019D01*
X13875Y55278D01*
X13872Y55294D01*
X13872Y55774D01*
X13875Y55790D01*
X14263Y56049D01*
X14524Y56439D01*
X14615Y56900D01*
Y65168D01*
X14524Y65629D01*
X14263Y66019D01*
X13872Y66280D01*
X13411Y66372D01*
X1600D01*
X1139Y66280D01*
X748Y66019D01*
X714Y65968D01*
X214Y66119D01*
Y85948D01*
X714Y86100D01*
X749Y86049D01*
X1139Y85787D01*
X1600Y85696D01*
X13411D01*
X13872Y85787D01*
X14263Y86049D01*
X14524Y86439D01*
X14615Y86900D01*
Y95168D01*
X14524Y95628D01*
X14263Y96019D01*
X13875Y96278D01*
X13872Y96294D01*
X13872Y96774D01*
X13875Y96789D01*
X14263Y97048D01*
X14364Y97070D01*
X14837Y97008D01*
D02*
G37*
G36*
X20254Y111367D02*
X21350D01*
Y106291D01*
Y99654D01*
X25326D01*
X25809Y99331D01*
X26500Y99194D01*
X34657D01*
X34827Y98694D01*
X34815Y98685D01*
X34437Y98191D01*
X34199Y97617D01*
X34117Y97000D01*
X34199Y96383D01*
X34437Y95809D01*
X34815Y95315D01*
X35309Y94937D01*
X35623Y94806D01*
X35524Y94306D01*
X29055D01*
X25777Y97584D01*
X25191Y97976D01*
X24500Y98114D01*
X20941D01*
X19806Y99248D01*
Y111062D01*
X20193Y111379D01*
X20254Y111367D01*
D02*
G37*
G36*
X20693Y136001D02*
X23894D01*
X26626Y133268D01*
X26435Y132806D01*
X25000D01*
X24309Y132669D01*
X23723Y132277D01*
X23331Y131691D01*
X23194Y131000D01*
X23331Y130309D01*
X23723Y129723D01*
X24309Y129331D01*
X25000Y129194D01*
X27794D01*
Y127654D01*
X21850D01*
Y126013D01*
X20465D01*
X20206Y125962D01*
X19706Y126368D01*
Y135780D01*
X20206Y136098D01*
X20693Y136001D01*
D02*
G37*
G36*
X114246Y133709D02*
X114937Y133572D01*
X115628Y133709D01*
X115921Y133905D01*
X116214Y133709D01*
X116905Y133572D01*
X117097Y133415D01*
X117091Y132897D01*
X116815Y132685D01*
X116437Y132191D01*
X116199Y131617D01*
X116117Y131000D01*
X116199Y130383D01*
X116437Y129809D01*
X116815Y129315D01*
X117309Y128937D01*
X117883Y128699D01*
X118500Y128617D01*
X119117Y128699D01*
X119691Y128937D01*
X120000Y129174D01*
X120309Y128937D01*
X120883Y128699D01*
X121500Y128617D01*
X122117Y128699D01*
X122691Y128937D01*
X123000Y129174D01*
X123309Y128937D01*
X123883Y128699D01*
X124500Y128617D01*
X125117Y128699D01*
X125691Y128937D01*
X126000Y129174D01*
X126309Y128937D01*
X126883Y128699D01*
X127500Y128617D01*
X127689Y128642D01*
X128065Y128313D01*
Y127898D01*
X127808Y127563D01*
X127570Y126988D01*
X127489Y126372D01*
X127570Y125755D01*
X127808Y125180D01*
X128187Y124687D01*
X128680Y124308D01*
X129255Y124070D01*
X129872Y123989D01*
X130172Y124029D01*
X130369Y123552D01*
X130748Y123058D01*
X131241Y122680D01*
X131368Y122627D01*
X131403Y122593D01*
X131546Y122012D01*
X131339Y121703D01*
X131315Y121685D01*
X130937Y121191D01*
X130699Y120617D01*
X130617Y120000D01*
X130699Y119383D01*
X130937Y118809D01*
X131315Y118315D01*
X131467Y118199D01*
X131500Y117700D01*
X131103Y117303D01*
X130500Y117383D01*
X129883Y117301D01*
X129309Y117063D01*
X128815Y116685D01*
X128437Y116191D01*
X128199Y115617D01*
X128117Y115000D01*
X128199Y114383D01*
X128437Y113809D01*
X128815Y113315D01*
X129309Y112937D01*
X129883Y112699D01*
X130500Y112617D01*
X131117Y112699D01*
X131691Y112937D01*
X132185Y113315D01*
X132357Y113539D01*
X132631Y113723D01*
X135103Y116195D01*
X135623Y116057D01*
X135755Y115665D01*
X135709Y115597D01*
X135572Y114906D01*
X135709Y114214D01*
X135905Y113921D01*
X135709Y113628D01*
X135572Y112937D01*
X135709Y112246D01*
X135905Y111953D01*
X135709Y111660D01*
X135572Y110968D01*
X135709Y110277D01*
X135905Y109984D01*
X135709Y109691D01*
X135572Y109000D01*
X135506Y108920D01*
X135101Y108929D01*
X134799Y109377D01*
X134801Y109383D01*
X134883Y110000D01*
X134801Y110617D01*
X134563Y111191D01*
X134185Y111685D01*
X133691Y112063D01*
X133117Y112301D01*
X132500Y112383D01*
X131883Y112301D01*
X131309Y112063D01*
X130815Y111685D01*
X130437Y111191D01*
X130199Y110617D01*
X130117Y110000D01*
X130199Y109383D01*
X130437Y108809D01*
X130794Y108343D01*
Y107500D01*
X130924Y106847D01*
X131112Y106565D01*
X130874Y106254D01*
X130636Y105680D01*
X130554Y105063D01*
X130636Y104446D01*
X130874Y103872D01*
X131252Y103378D01*
X131746Y103000D01*
X132320Y102762D01*
X132937Y102680D01*
X133554Y102762D01*
X134128Y103000D01*
X134463Y103257D01*
X135439D01*
X135572Y103094D01*
X135709Y102403D01*
X135905Y102110D01*
X135709Y101817D01*
X135572Y101126D01*
X135439Y100964D01*
X131945D01*
X131631Y101277D01*
X131045Y101669D01*
X130354Y101806D01*
X129663Y101669D01*
X129196Y101357D01*
X129000Y101383D01*
X128383Y101301D01*
X127809Y101063D01*
X127315Y100685D01*
X126937Y100191D01*
X126699Y99617D01*
X126617Y99000D01*
X126699Y98383D01*
X126937Y97809D01*
X127315Y97315D01*
X127809Y96937D01*
X128383Y96699D01*
X128639Y96161D01*
X128617Y96000D01*
X128699Y95383D01*
X128937Y94809D01*
X129315Y94315D01*
X129809Y93937D01*
X130383Y93699D01*
X131000Y93617D01*
X131617Y93699D01*
X132191Y93937D01*
X132449Y94134D01*
X133790Y92794D01*
X133802Y92786D01*
X134256Y92331D01*
X134809Y91962D01*
X135182Y91887D01*
X135592Y91387D01*
X135572Y91284D01*
X135709Y90592D01*
X135905Y90299D01*
X135709Y90006D01*
X135572Y89315D01*
X135656Y88892D01*
X135188Y88680D01*
X135185Y88685D01*
X134691Y89063D01*
X134117Y89301D01*
X133864Y89335D01*
X133883Y89476D01*
X133801Y90092D01*
X133563Y90667D01*
X133185Y91160D01*
X132691Y91539D01*
X132117Y91777D01*
X131500Y91858D01*
X130883Y91777D01*
X130309Y91539D01*
X129815Y91160D01*
X129437Y90667D01*
X129199Y90092D01*
X129179Y89943D01*
X129109Y89838D01*
X128979Y89185D01*
Y88429D01*
X128479Y88151D01*
X128117Y88301D01*
X127500Y88383D01*
X127231Y88347D01*
X127026Y88843D01*
X126647Y89336D01*
X126154Y89715D01*
X125579Y89953D01*
X124962Y90034D01*
X124346Y89953D01*
X123771Y89715D01*
X123277Y89336D01*
X123098Y89102D01*
X122617Y89301D01*
X122000Y89383D01*
X121383Y89301D01*
X120809Y89063D01*
X120500Y88827D01*
X120191Y89063D01*
X119617Y89301D01*
X119000Y89383D01*
X118383Y89301D01*
X117809Y89063D01*
X117500Y88827D01*
X117191Y89063D01*
X116617Y89301D01*
X116000Y89383D01*
X115383Y89301D01*
X114809Y89063D01*
X114315Y88685D01*
X114297Y88661D01*
X113723Y88277D01*
X113660Y88214D01*
X113580Y88095D01*
X113083Y88144D01*
X113063Y88191D01*
X112685Y88685D01*
X112191Y89063D01*
X111617Y89301D01*
X111000Y89383D01*
X110383Y89301D01*
X109809Y89063D01*
X109315Y88685D01*
X109250Y88600D01*
X108750D01*
X108685Y88685D01*
X108532Y88802D01*
X108499Y89301D01*
X108706Y89508D01*
X109076Y90062D01*
X109206Y90715D01*
Y95843D01*
X109563Y96309D01*
X109801Y96883D01*
X109883Y97500D01*
X109858Y97689D01*
X110187Y98065D01*
X114380D01*
X118143Y94302D01*
X118199Y93883D01*
X118437Y93309D01*
X118815Y92815D01*
X119309Y92437D01*
X119883Y92199D01*
X120500Y92117D01*
X121117Y92199D01*
X121691Y92437D01*
X122185Y92815D01*
X122563Y93309D01*
X122801Y93883D01*
X122883Y94500D01*
X122861Y94661D01*
X123117Y95199D01*
X123691Y95437D01*
X124185Y95815D01*
X124563Y96309D01*
X124801Y96883D01*
X124883Y97500D01*
X124801Y98117D01*
X124563Y98691D01*
X124185Y99185D01*
X123691Y99563D01*
X123117Y99801D01*
X122500Y99883D01*
X121883Y99801D01*
X121309Y99563D01*
X120815Y99185D01*
X120437Y98691D01*
X120199Y98117D01*
X120192Y98069D01*
X119665Y97890D01*
X116406Y101149D01*
X115820Y101541D01*
X115128Y101678D01*
X106518D01*
X105826Y101541D01*
X105240Y101149D01*
X103851Y99760D01*
X103460Y99174D01*
X103322Y98482D01*
Y96731D01*
X101351Y94760D01*
X101300Y94755D01*
X87777Y108277D01*
X87191Y108669D01*
X86884Y108730D01*
X86428Y109000D01*
X86291Y109691D01*
X86095Y109984D01*
X86291Y110277D01*
X86428Y110968D01*
X86471Y111021D01*
X89199D01*
X89309Y110937D01*
X89883Y110699D01*
X90500Y110617D01*
X91117Y110699D01*
X91691Y110937D01*
X92185Y111315D01*
X92563Y111809D01*
X92801Y112383D01*
X92883Y113000D01*
X92801Y113617D01*
X92563Y114191D01*
X92185Y114685D01*
X91691Y115063D01*
X91117Y115301D01*
X90500Y115383D01*
X89883Y115301D01*
X89309Y115063D01*
X89306Y115062D01*
X88806Y115308D01*
Y121618D01*
X90436Y123248D01*
X90828Y123834D01*
X90965Y124526D01*
Y133285D01*
X91315Y133572D01*
X92006Y133709D01*
X92299Y133905D01*
X92592Y133709D01*
X93283Y133572D01*
X93975Y133709D01*
X94268Y133905D01*
X94561Y133709D01*
X95252Y133572D01*
X95294Y133537D01*
Y132657D01*
X94937Y132191D01*
X94699Y131617D01*
X94617Y131000D01*
X94699Y130383D01*
X94937Y129809D01*
X95315Y129315D01*
X95809Y128937D01*
X96383Y128699D01*
X97000Y128617D01*
X97617Y128699D01*
X98191Y128937D01*
X98500Y129174D01*
X98809Y128937D01*
X99383Y128699D01*
X100000Y128617D01*
X100617Y128699D01*
X101191Y128937D01*
X101500Y129174D01*
X101809Y128937D01*
X102383Y128699D01*
X103000Y128617D01*
X103617Y128699D01*
X104191Y128937D01*
X104500Y129174D01*
X104809Y128937D01*
X105383Y128699D01*
X106000Y128617D01*
X106617Y128699D01*
X107191Y128937D01*
X107685Y129315D01*
X108063Y129809D01*
X108301Y130383D01*
X108383Y131000D01*
X108301Y131617D01*
X108063Y132191D01*
X107685Y132685D01*
X107191Y133063D01*
X107137Y133086D01*
X107203Y133599D01*
X107754Y133709D01*
X108047Y133905D01*
X108340Y133709D01*
X109031Y133572D01*
X109723Y133709D01*
X110016Y133905D01*
X110309Y133709D01*
X111000Y133572D01*
X111691Y133709D01*
X111984Y133905D01*
X112277Y133709D01*
X112969Y133572D01*
X113660Y133709D01*
X113953Y133905D01*
X114246Y133709D01*
D02*
G37*
G36*
X171677Y129040D02*
X168916D01*
X168225Y128903D01*
X167639Y128511D01*
X162474Y123346D01*
X157850D01*
X157850Y123346D01*
X157825Y123487D01*
X157801Y123617D01*
X157729Y123792D01*
X157563Y124191D01*
X157185Y124685D01*
X156691Y125063D01*
X156117Y125301D01*
X155500Y125383D01*
X154883Y125301D01*
X154309Y125063D01*
X153815Y124685D01*
X153437Y124191D01*
X153199Y123617D01*
X153117Y123000D01*
X153199Y122383D01*
X153231Y122306D01*
X152896Y121806D01*
X148141D01*
X147450Y121669D01*
X146864Y121277D01*
X146717Y121131D01*
X146175Y121295D01*
X146133Y121502D01*
X145938Y121795D01*
X146133Y122088D01*
X146271Y122780D01*
X146133Y123471D01*
X145938Y123764D01*
X146133Y124057D01*
X146271Y124748D01*
X146731Y124996D01*
X146809Y124937D01*
X147383Y124699D01*
X148000Y124617D01*
X148617Y124699D01*
X149191Y124937D01*
X149685Y125315D01*
X150063Y125809D01*
X150301Y126383D01*
X150367Y126879D01*
X152378D01*
X153069Y127016D01*
X153655Y127408D01*
X153708Y127461D01*
X163650D01*
Y131402D01*
X163768Y131520D01*
X171677D01*
Y129040D01*
D02*
G37*
G36*
X200194Y120267D02*
Y118500D01*
X200331Y117809D01*
X200723Y117223D01*
X201309Y116831D01*
X201728Y116748D01*
X201852Y116213D01*
X201815Y116185D01*
X201437Y115691D01*
X201199Y115117D01*
X201117Y114500D01*
X201199Y113883D01*
X201272Y113706D01*
X200938Y113206D01*
X200500D01*
X199847Y113076D01*
X199294Y112706D01*
X195794Y109206D01*
X195424Y108653D01*
X195294Y108000D01*
X195352Y107706D01*
X194963Y107206D01*
X182846D01*
Y108650D01*
X178674D01*
X178536Y108806D01*
X178455Y109423D01*
X178217Y109998D01*
X177838Y110491D01*
X177345Y110870D01*
X176770Y111108D01*
X176154Y111189D01*
X175537Y111108D01*
X174962Y110870D01*
X174469Y110491D01*
X174090Y109998D01*
X173852Y109423D01*
X173771Y108806D01*
X173634Y108650D01*
X169461D01*
Y107206D01*
X158500D01*
X157847Y107076D01*
X157294Y106706D01*
X155388Y104800D01*
X146486D01*
X146271Y105063D01*
X146133Y105754D01*
X145938Y106047D01*
X146133Y106340D01*
X146271Y107032D01*
X146133Y107723D01*
X145938Y108016D01*
X146133Y108309D01*
X146271Y109000D01*
X146133Y109691D01*
X145938Y109984D01*
X146133Y110277D01*
X146271Y110968D01*
X146133Y111660D01*
X145938Y111953D01*
X146133Y112246D01*
X146271Y112937D01*
X146404Y113099D01*
X153905D01*
X154410Y113199D01*
X156920D01*
X157350Y113285D01*
X157850Y112959D01*
Y109961D01*
X164150D01*
Y109961D01*
X164350D01*
Y109961D01*
X170650D01*
Y111501D01*
X173286D01*
X173978Y111638D01*
X174564Y112030D01*
X177737Y115203D01*
X178323Y115082D01*
X178437Y114809D01*
X178815Y114315D01*
X179309Y113937D01*
X179883Y113699D01*
X180500Y113617D01*
X181117Y113699D01*
X181691Y113937D01*
X182185Y114315D01*
X182563Y114809D01*
X182801Y115383D01*
X182883Y116000D01*
X182801Y116617D01*
X182563Y117191D01*
X182305Y117528D01*
X182514Y118028D01*
X187082D01*
X187816Y117294D01*
X188370Y116924D01*
X189023Y116794D01*
X191961D01*
Y115350D01*
X198653D01*
Y119434D01*
X199694Y120474D01*
X200194Y120267D01*
D02*
G37*
G36*
X57701Y121697D02*
X66367D01*
X69565Y118498D01*
Y117588D01*
X69179Y117271D01*
X69000Y117306D01*
X55306D01*
Y121500D01*
X55169Y122191D01*
X54777Y122777D01*
X53170Y124384D01*
X53361Y124846D01*
X56650D01*
Y126387D01*
X57701D01*
Y121697D01*
D02*
G37*
G36*
X20193Y94501D02*
X23752D01*
X27030Y91223D01*
X27616Y90831D01*
X28307Y90694D01*
X29210D01*
X29643Y90194D01*
X29617Y90000D01*
X29699Y89383D01*
X29937Y88809D01*
X30315Y88315D01*
X30809Y87937D01*
X31383Y87699D01*
X32000Y87617D01*
X32617Y87699D01*
X33191Y87937D01*
X33685Y88315D01*
X33694Y88327D01*
X34194Y88157D01*
Y85748D01*
X30878Y82433D01*
X30689Y82458D01*
X30366Y82627D01*
X30301Y83117D01*
X30063Y83691D01*
X29685Y84185D01*
X29191Y84563D01*
X28617Y84801D01*
X28000Y84883D01*
X27383Y84801D01*
X26809Y84563D01*
X26315Y84185D01*
X25937Y83691D01*
X25699Y83117D01*
X25617Y82500D01*
X25699Y81883D01*
X25791Y81660D01*
X25378Y81378D01*
X24884Y81756D01*
X24310Y81994D01*
X23693Y82076D01*
X23076Y81994D01*
X22502Y81756D01*
X22240Y81556D01*
X21740Y81802D01*
Y83598D01*
X19706D01*
Y94204D01*
X20092Y94521D01*
X20193Y94501D01*
D02*
G37*
G36*
X129335Y48760D02*
X129694Y48419D01*
Y45748D01*
X111223Y27277D01*
X104752Y20806D01*
X94806D01*
X94114Y20669D01*
X93528Y20277D01*
X92223Y18972D01*
X91831Y18386D01*
X91694Y17695D01*
Y10306D01*
X90350D01*
Y26750D01*
X89301D01*
Y27406D01*
X89171Y28059D01*
X88801Y28612D01*
X81839Y35574D01*
X85407Y39143D01*
X88027D01*
X88680Y39273D01*
X89233Y39643D01*
X90000Y40409D01*
X90114Y40395D01*
X90528Y39911D01*
Y28100D01*
X90620Y27639D01*
X90881Y27248D01*
X91271Y26987D01*
X91732Y26896D01*
X100000D01*
X100461Y26987D01*
X100851Y27248D01*
X101112Y27639D01*
X101204Y28100D01*
Y34945D01*
X101287Y35012D01*
X101704Y35166D01*
X101971Y34987D01*
X102432Y34896D01*
X110700D01*
X111161Y34987D01*
X111552Y35249D01*
X111813Y35639D01*
X111904Y36100D01*
Y47694D01*
X113758D01*
X114449Y47831D01*
X115035Y48223D01*
X115572Y48760D01*
X129335D01*
D02*
G37*
G36*
X52773Y97950D02*
X52566Y97450D01*
X46968D01*
X46276Y97312D01*
X45690Y96921D01*
X44993Y96223D01*
X44609Y95650D01*
X39347D01*
Y89350D01*
X42317D01*
X42647Y88974D01*
X42617Y88750D01*
X42647Y88525D01*
X42317Y88150D01*
X39347D01*
Y81850D01*
X43473D01*
X43502Y81831D01*
X44193Y81694D01*
X44464D01*
Y80054D01*
X44601Y79363D01*
X44993Y78777D01*
X45690Y78079D01*
X46276Y77688D01*
X46968Y77550D01*
X53072D01*
X53380Y77612D01*
X53699Y77383D01*
X53937Y76809D01*
X54315Y76315D01*
X54809Y75937D01*
X55383Y75699D01*
X56000Y75617D01*
X56617Y75699D01*
X57191Y75937D01*
X57685Y76315D01*
X58063Y76809D01*
X58301Y77383D01*
X58383Y78000D01*
X58301Y78617D01*
X58198Y78866D01*
X58532Y79366D01*
X61240D01*
Y84686D01*
X65277Y88723D01*
X65669Y89309D01*
X65702Y89477D01*
X68894D01*
X69212Y89091D01*
X69194Y89000D01*
Y75696D01*
X69331Y75005D01*
X69723Y74419D01*
X71546Y72596D01*
X71354Y72134D01*
X66760D01*
Y64150D01*
X60154D01*
Y60208D01*
X58223Y58277D01*
X57831Y57691D01*
X57694Y57000D01*
Y45569D01*
X55521Y43396D01*
X55059Y43587D01*
Y51600D01*
X55117Y51608D01*
X55691Y51846D01*
X56185Y52224D01*
X56563Y52718D01*
X56801Y53292D01*
X56883Y53909D01*
X56801Y54526D01*
X56563Y55100D01*
X56185Y55594D01*
X55691Y55972D01*
X55117Y56211D01*
X54500Y56292D01*
X53883Y56211D01*
X53309Y55972D01*
X52815Y55594D01*
X52437Y55100D01*
X52199Y54526D01*
X52178Y54372D01*
X51750Y53944D01*
X51322Y54372D01*
X51301Y54526D01*
X51063Y55100D01*
X50685Y55594D01*
X50191Y55972D01*
X49617Y56211D01*
X49000Y56292D01*
X48383Y56211D01*
X47809Y55972D01*
X47315Y55594D01*
X46937Y55100D01*
X46699Y54526D01*
X46617Y53909D01*
X46699Y53292D01*
X46937Y52718D01*
X47315Y52224D01*
X47809Y51846D01*
X48383Y51608D01*
X48440Y51600D01*
Y30928D01*
X47940Y30776D01*
X47777Y31020D01*
X47191Y31411D01*
X46500Y31549D01*
X32253D01*
X31562Y31411D01*
X30976Y31020D01*
X28611Y28656D01*
X28150Y28847D01*
Y31154D01*
X28150Y31653D01*
X28150D01*
Y31654D01*
X28150D01*
Y38346D01*
X28150D01*
Y38654D01*
X28150D01*
Y41557D01*
X28438Y41693D01*
X28896Y41377D01*
Y35800D01*
X28988Y35339D01*
X29249Y34949D01*
X29639Y34687D01*
X30100Y34596D01*
X41911D01*
X42372Y34687D01*
X42763Y34949D01*
X43024Y35339D01*
X43115Y35800D01*
Y44068D01*
X43024Y44529D01*
X42763Y44919D01*
X42372Y45180D01*
X41911Y45272D01*
X35770D01*
X35353Y45772D01*
X35383Y46000D01*
X35301Y46617D01*
X35063Y47191D01*
X34685Y47685D01*
X34191Y48063D01*
X33617Y48301D01*
X33000Y48383D01*
X32383Y48301D01*
X32250Y48246D01*
X31817Y48496D01*
X31801Y48617D01*
X31563Y49191D01*
X31185Y49685D01*
X30691Y50063D01*
X30117Y50301D01*
X29500Y50383D01*
X28883Y50301D01*
X28309Y50063D01*
X27815Y49685D01*
X27437Y49191D01*
X27306Y48877D01*
X26806Y48976D01*
Y55157D01*
X27289Y55350D01*
X27315Y55315D01*
X27809Y54937D01*
X28383Y54699D01*
X29000Y54617D01*
X29617Y54699D01*
X30191Y54937D01*
X30685Y55315D01*
X31063Y55809D01*
X31301Y56383D01*
X31383Y57000D01*
X31301Y57617D01*
X31063Y58191D01*
X30685Y58685D01*
X30191Y59063D01*
X30073Y59113D01*
X29975Y59603D01*
X33149Y62777D01*
X33540Y63363D01*
X33678Y64054D01*
Y80123D01*
X37277Y83723D01*
X37669Y84309D01*
X37806Y85000D01*
Y92500D01*
X37669Y93191D01*
X37277Y93777D01*
X36729Y94143D01*
X36716Y94287D01*
X36794Y94656D01*
X37117Y94699D01*
X37691Y94937D01*
X38185Y95315D01*
X38563Y95809D01*
X38801Y96383D01*
X38883Y97000D01*
X38801Y97617D01*
X38563Y98191D01*
X38185Y98685D01*
X38173Y98694D01*
X38343Y99194D01*
X51530D01*
X52773Y97950D01*
D02*
G37*
G36*
X217177Y56732D02*
X212273Y51828D01*
X207672D01*
X206981Y51690D01*
X206395Y51299D01*
X204723Y49626D01*
X204331Y49040D01*
X204194Y48349D01*
Y19500D01*
Y8806D01*
X192871D01*
X189576Y12102D01*
X188990Y12493D01*
X188299Y12631D01*
X176939D01*
X174088Y15481D01*
X174280Y15943D01*
X174452D01*
X175144Y16081D01*
X175730Y16472D01*
X176427Y17170D01*
X176819Y17756D01*
X176956Y18447D01*
Y28223D01*
X176819Y28914D01*
X176427Y29500D01*
X175841Y29892D01*
X175150Y30029D01*
X174619D01*
X174370Y30529D01*
X174504Y30707D01*
X176513D01*
X177205Y30845D01*
X177791Y31236D01*
X191978Y45423D01*
X192370Y46009D01*
X192507Y46701D01*
Y57194D01*
X216986D01*
X217177Y56732D01*
D02*
G37*
G36*
X222304Y30501D02*
X221207Y29404D01*
X220815Y28818D01*
X220678Y28126D01*
Y26162D01*
X220815Y25471D01*
X221051Y25118D01*
X220961Y24618D01*
X220961D01*
X220961Y24618D01*
Y14382D01*
X222304D01*
Y13496D01*
X219189D01*
Y504D01*
X218809Y214D01*
X189075D01*
X188807Y714D01*
X188913Y871D01*
X189004Y1332D01*
Y6911D01*
X189466Y7102D01*
X190846Y5723D01*
X191432Y5331D01*
X192123Y5194D01*
X206000D01*
X206691Y5331D01*
X207277Y5723D01*
X207669Y6309D01*
X207806Y7000D01*
Y19500D01*
Y37807D01*
X213349D01*
Y24618D01*
X211906D01*
Y18506D01*
X211794Y17945D01*
Y6157D01*
X211437Y5691D01*
X211199Y5117D01*
X211117Y4500D01*
X211199Y3883D01*
X211437Y3309D01*
X211815Y2815D01*
X212309Y2437D01*
X212883Y2199D01*
X213500Y2117D01*
X214117Y2199D01*
X214691Y2437D01*
X215185Y2815D01*
X215563Y3309D01*
X215801Y3883D01*
X215883Y4500D01*
X215801Y5117D01*
X215563Y5691D01*
X215206Y6157D01*
Y14382D01*
X218205D01*
Y24618D01*
X216761D01*
Y37807D01*
X222304D01*
Y30501D01*
D02*
G37*
G36*
X174797Y9663D02*
X174785Y9600D01*
Y1332D01*
X174876Y871D01*
X174982Y714D01*
X174714Y214D01*
X43362D01*
X43058Y714D01*
X43115Y1000D01*
Y7677D01*
X43577Y7868D01*
X45809Y5636D01*
X46395Y5244D01*
X47087Y5107D01*
X61163D01*
X61854Y5244D01*
X62440Y5636D01*
X63497Y6694D01*
X68210D01*
X68643Y6194D01*
X68617Y6000D01*
X68699Y5383D01*
X68937Y4809D01*
X69315Y4315D01*
X69809Y3937D01*
X70383Y3699D01*
X71000Y3617D01*
X71617Y3699D01*
X72191Y3937D01*
X72685Y4315D01*
X73063Y4809D01*
X73301Y5383D01*
X73383Y6000D01*
X73357Y6194D01*
X73790Y6694D01*
X91752D01*
X93723Y4723D01*
X94309Y4331D01*
X95000Y4194D01*
X161000D01*
X161691Y4331D01*
X162277Y4723D01*
X171008Y13453D01*
X174797Y9663D01*
D02*
G37*
G36*
X137378Y83572D02*
X138822D01*
Y76382D01*
X138960Y75691D01*
X139351Y75105D01*
X142271Y72184D01*
X142271Y72184D01*
X143605Y70851D01*
X144191Y70460D01*
X144819Y70335D01*
X145065Y70088D01*
Y68687D01*
X144689Y68358D01*
X144500Y68383D01*
X143883Y68301D01*
X143309Y68063D01*
X142815Y67685D01*
X142437Y67191D01*
X142199Y66617D01*
X142122Y66035D01*
X141987Y65899D01*
X141617Y65346D01*
X141487Y64693D01*
Y63650D01*
X139847D01*
Y57350D01*
X145018D01*
Y49115D01*
X137232D01*
X136771Y49024D01*
X136381Y48763D01*
X136120Y48372D01*
X136028Y47911D01*
Y36100D01*
X136120Y35639D01*
X136381Y35249D01*
X136771Y34987D01*
X137232Y34896D01*
X145500D01*
X145961Y34987D01*
X146351Y35249D01*
X146613Y35639D01*
X146704Y36100D01*
Y42270D01*
X147166Y42462D01*
X159376Y30252D01*
X159279Y29761D01*
X158915Y29611D01*
X158052Y28948D01*
X157389Y28085D01*
X156973Y27079D01*
X156831Y26000D01*
X156973Y24921D01*
X157389Y23915D01*
X158052Y23052D01*
X158915Y22389D01*
X159921Y21973D01*
X161000Y21831D01*
X162079Y21973D01*
X162406Y22108D01*
X162822Y21830D01*
Y21518D01*
X162960Y20826D01*
X163351Y20240D01*
X164226Y19366D01*
X163895Y18989D01*
X163623Y19198D01*
X163085Y19611D01*
X162079Y20027D01*
X161000Y20169D01*
X159921Y20027D01*
X158915Y19611D01*
X158052Y18948D01*
X157389Y18085D01*
X157232Y17706D01*
X152643D01*
X152486Y18085D01*
X151823Y18948D01*
X150960Y19611D01*
X149954Y20027D01*
X148875Y20169D01*
X147796Y20027D01*
X146790Y19611D01*
X145927Y18948D01*
X145264Y18085D01*
X145107Y17706D01*
X140518D01*
X140361Y18085D01*
X139698Y18948D01*
X138835Y19611D01*
X137829Y20027D01*
X136750Y20169D01*
X135671Y20027D01*
X134665Y19611D01*
X133802Y18948D01*
X133139Y18085D01*
X132982Y17706D01*
X128393D01*
X128236Y18085D01*
X127573Y18948D01*
X126710Y19611D01*
X125704Y20027D01*
X124625Y20169D01*
X123546Y20027D01*
X122540Y19611D01*
X121677Y18948D01*
X121014Y18085D01*
X120857Y17706D01*
X116268D01*
X116111Y18085D01*
X115448Y18948D01*
X114585Y19611D01*
X113579Y20027D01*
X112500Y20169D01*
X111421Y20027D01*
X110415Y19611D01*
X109552Y18948D01*
X108889Y18085D01*
X108473Y17079D01*
X108331Y16000D01*
X108473Y14921D01*
X108889Y13915D01*
X109552Y13052D01*
X110415Y12389D01*
X111421Y11972D01*
X112500Y11830D01*
X113579Y11972D01*
X114585Y12389D01*
X115448Y13052D01*
X116111Y13915D01*
X116268Y14294D01*
X120857D01*
X121014Y13915D01*
X121677Y13052D01*
X122540Y12389D01*
X123546Y11972D01*
X124625Y11830D01*
X125704Y11972D01*
X126710Y12389D01*
X127573Y13052D01*
X128236Y13915D01*
X128393Y14294D01*
X132982D01*
X133139Y13915D01*
X133802Y13052D01*
X134665Y12389D01*
X135671Y11972D01*
X136750Y11830D01*
X137829Y11972D01*
X138835Y12389D01*
X139698Y13052D01*
X140361Y13915D01*
X140518Y14294D01*
X145107D01*
X145264Y13915D01*
X145927Y13052D01*
X146790Y12389D01*
X147796Y11972D01*
X148875Y11830D01*
X149954Y11972D01*
X150960Y12389D01*
X151823Y13052D01*
X152486Y13915D01*
X152643Y14294D01*
X157232D01*
X157389Y13915D01*
X158052Y13052D01*
X158915Y12389D01*
X159921Y11972D01*
X161000Y11830D01*
X162079Y11972D01*
X163085Y12389D01*
X163948Y13052D01*
X164611Y13915D01*
X165027Y14921D01*
X165170Y16000D01*
X165027Y17079D01*
X164611Y18085D01*
X164198Y18623D01*
X163989Y18895D01*
X164366Y19226D01*
X164740Y18851D01*
X165326Y18460D01*
X166018Y18322D01*
X167660D01*
Y17759D01*
X169586D01*
X169594Y17750D01*
Y17063D01*
X169338Y16892D01*
X160252Y7806D01*
X105877D01*
X105604Y8139D01*
Y17195D01*
X105620Y17217D01*
X106191Y17331D01*
X106777Y17723D01*
X113777Y24723D01*
X132777Y43723D01*
X133169Y44309D01*
X133306Y45000D01*
Y52500D01*
Y54752D01*
X137777Y59223D01*
X138169Y59809D01*
X138306Y60500D01*
X138169Y61191D01*
X137777Y61777D01*
X137191Y62169D01*
X136500Y62306D01*
X134707D01*
X134516Y62768D01*
X136198Y64450D01*
X136815D01*
X137506Y64588D01*
X138092Y64979D01*
X139717Y66605D01*
X140109Y67191D01*
X140246Y67882D01*
Y68499D01*
X141470Y69723D01*
X141862Y70309D01*
X141999Y71000D01*
X141862Y71691D01*
X141470Y72277D01*
X140884Y72669D01*
X140193Y72806D01*
X139502Y72669D01*
X138963Y72309D01*
X138656Y72385D01*
X138463Y72465D01*
Y73421D01*
X138334Y74074D01*
X137964Y74627D01*
X137324Y75267D01*
X136771Y75637D01*
X136428Y75705D01*
Y82622D01*
X136328Y83127D01*
Y83393D01*
X136828Y83681D01*
X137378Y83572D01*
D02*
G37*
G36*
X128025Y73867D02*
X128717Y73729D01*
X129408Y73867D01*
X129701Y74062D01*
X129994Y73867D01*
X130154Y73835D01*
Y69645D01*
X127150D01*
Y71539D01*
X120850D01*
Y64846D01*
X127150D01*
Y66233D01*
X132218D01*
X132410Y65771D01*
X130223Y63584D01*
X130037Y63306D01*
X114748D01*
X113777Y64277D01*
X113191Y64669D01*
X112500Y64806D01*
X111809Y64669D01*
X111501Y64464D01*
X108650D01*
Y68136D01*
X109150Y68436D01*
X109350Y68328D01*
Y66347D01*
X115650D01*
Y73039D01*
X111223D01*
X111191Y73063D01*
X111021Y73134D01*
X110959Y73701D01*
X111000Y73729D01*
X111691Y73867D01*
X111984Y74062D01*
X112277Y73867D01*
X112969Y73729D01*
X113660Y73867D01*
X113953Y74062D01*
X114246Y73867D01*
X114937Y73729D01*
X115628Y73867D01*
X115921Y74062D01*
X116214Y73867D01*
X116905Y73729D01*
X117597Y73867D01*
X117890Y74062D01*
X118183Y73867D01*
X118874Y73729D01*
X119565Y73867D01*
X119858Y74062D01*
X120151Y73867D01*
X120843Y73729D01*
X121534Y73867D01*
X121827Y74062D01*
X122120Y73867D01*
X122811Y73729D01*
X123502Y73867D01*
X123795Y74062D01*
X124088Y73867D01*
X124779Y73729D01*
X125471Y73867D01*
X125764Y74062D01*
X126057Y73867D01*
X126748Y73729D01*
X127439Y73867D01*
X127732Y74062D01*
X128025Y73867D01*
D02*
G37*
G36*
X217768Y72976D02*
X222988D01*
X223180Y72514D01*
X220794Y70128D01*
X220424Y69575D01*
X220294Y68922D01*
Y60806D01*
X190701D01*
X190009Y60669D01*
X189424Y60277D01*
X189032Y59691D01*
X188894Y59000D01*
Y55590D01*
X188394Y55323D01*
X188261Y55413D01*
X187800Y55504D01*
X175989D01*
X175528Y55413D01*
X175137Y55151D01*
X174876Y54761D01*
X174785Y54300D01*
Y46032D01*
X174876Y45571D01*
X175137Y45181D01*
X175528Y44920D01*
X175989Y44828D01*
X185620D01*
X185811Y44366D01*
X175765Y34320D01*
X175140D01*
Y37444D01*
Y42956D01*
X167660D01*
Y42806D01*
X166150D01*
Y45039D01*
X159850D01*
Y45039D01*
X159350Y44705D01*
X159117Y44801D01*
X158500Y44883D01*
X157883Y44801D01*
X157309Y44563D01*
X156815Y44185D01*
X156546Y43833D01*
X156407Y43793D01*
X156093D01*
X155954Y43833D01*
X155685Y44185D01*
X155191Y44563D01*
X154617Y44801D01*
X154000Y44883D01*
X153383Y44801D01*
X152809Y44563D01*
X152315Y44185D01*
X151937Y43691D01*
X151883Y43561D01*
X151293Y43444D01*
X148631Y46106D01*
Y64780D01*
X148678Y65018D01*
Y70836D01*
X148540Y71527D01*
X148149Y72114D01*
X147361Y72902D01*
X147367Y72997D01*
X147746Y73491D01*
X147984Y74066D01*
X148065Y74682D01*
X148201Y74838D01*
X166293D01*
X166662Y74338D01*
X166617Y74000D01*
X166699Y73383D01*
X166937Y72809D01*
X167315Y72315D01*
X167809Y71937D01*
X168383Y71699D01*
X169000Y71617D01*
X169617Y71699D01*
X170191Y71937D01*
X170685Y72315D01*
X170954Y72667D01*
X171092Y72707D01*
X171407D01*
X171546Y72667D01*
X171815Y72315D01*
X172309Y71937D01*
X172883Y71699D01*
X173500Y71617D01*
X174117Y71699D01*
X174691Y71937D01*
X175185Y72315D01*
X175563Y72809D01*
X175801Y73383D01*
X175883Y74000D01*
X175838Y74338D01*
X176207Y74838D01*
X180793D01*
X180883Y74357D01*
X180309Y74119D01*
X179815Y73740D01*
X179437Y73246D01*
X179199Y72672D01*
X179117Y72055D01*
X179199Y71438D01*
X179437Y70864D01*
X179694Y70529D01*
Y70526D01*
X179437Y70191D01*
X179199Y69617D01*
X179117Y69000D01*
X179199Y68383D01*
X179437Y67809D01*
X179815Y67315D01*
X180309Y66937D01*
X180883Y66699D01*
X181500Y66617D01*
X182117Y66699D01*
X182691Y66937D01*
X183098Y67249D01*
X183402D01*
X183809Y66937D01*
X184383Y66699D01*
X185000Y66617D01*
X185617Y66699D01*
X186191Y66937D01*
X186598Y67249D01*
X186902D01*
X187309Y66937D01*
X187883Y66699D01*
X188500Y66617D01*
X189117Y66699D01*
X189691Y66937D01*
X190185Y67315D01*
X190563Y67809D01*
X190801Y68383D01*
X190883Y69000D01*
X190801Y69617D01*
X190563Y70191D01*
X190305Y70528D01*
X190563Y70864D01*
X190801Y71438D01*
X190883Y72055D01*
X190827Y72476D01*
X191159Y72976D01*
X194933D01*
Y74910D01*
X217768D01*
Y72976D01*
D02*
G37*
G36*
X225478Y69280D02*
X225492Y69046D01*
X224964Y68519D01*
X224573Y67933D01*
X224435Y67242D01*
Y56696D01*
X222351Y54612D01*
X221959Y54026D01*
X221822Y53334D01*
Y50012D01*
X216220D01*
X216028Y50474D01*
X223277Y57723D01*
X223669Y58309D01*
X223806Y59000D01*
X223706Y59504D01*
Y68215D01*
X224966Y69475D01*
X225478Y69280D01*
D02*
G37*
G36*
X66846Y57850D02*
D01*
X66847D01*
X67189Y57492D01*
X67265Y57350D01*
X67138Y57160D01*
X67001Y56469D01*
Y54650D01*
X65461D01*
Y48350D01*
X68047D01*
X68502Y48240D01*
Y40760D01*
X70728D01*
X70752Y40735D01*
X70913Y40260D01*
X70815Y40185D01*
X70437Y39691D01*
X70199Y39117D01*
X70117Y38500D01*
X70199Y37883D01*
X70437Y37309D01*
X70815Y36815D01*
X71309Y36437D01*
X71883Y36199D01*
X72500Y36117D01*
X73117Y36199D01*
X73691Y36437D01*
X74185Y36815D01*
X74563Y37309D01*
X74601Y37399D01*
X75091Y37497D01*
X78220Y34368D01*
X78220Y34368D01*
X81731Y30856D01*
X81500Y30383D01*
X80883Y30301D01*
X80309Y30063D01*
X79815Y29685D01*
X79437Y29191D01*
X79199Y28617D01*
X79117Y28000D01*
X79199Y27383D01*
X79254Y27250D01*
X78992Y26842D01*
X78539Y26750D01*
X78103Y26903D01*
X77841Y27250D01*
X77883Y27567D01*
X77801Y28184D01*
X77563Y28758D01*
X77185Y29252D01*
X76691Y29630D01*
X76117Y29868D01*
X75500Y29950D01*
X74883Y29868D01*
X74309Y29630D01*
X73815Y29252D01*
X73437Y28758D01*
X73199Y28184D01*
X73117Y27567D01*
X73159Y27250D01*
X73028Y26750D01*
X73028D01*
Y10306D01*
X71748D01*
X71684Y10370D01*
Y17695D01*
X71547Y18386D01*
X71155Y18972D01*
X70569Y19363D01*
X69878Y19501D01*
X69187Y19363D01*
X68601Y18972D01*
X68209Y18386D01*
X68072Y17695D01*
Y10306D01*
X66728D01*
Y26750D01*
X66205D01*
X66052Y27248D01*
X66313Y27639D01*
X66404Y28100D01*
Y39911D01*
X66313Y40372D01*
X66052Y40762D01*
X65661Y41024D01*
X65200Y41115D01*
X59003D01*
X58811Y41577D01*
X60777Y43543D01*
X61169Y44129D01*
X61306Y44820D01*
Y51210D01*
X61806Y51643D01*
X62000Y51617D01*
X62617Y51699D01*
X63191Y51937D01*
X63685Y52315D01*
X64063Y52809D01*
X64301Y53383D01*
X64383Y54000D01*
X64301Y54617D01*
X64063Y55191D01*
X63685Y55685D01*
X63191Y56063D01*
X62617Y56301D01*
X62128Y56366D01*
X61958Y56689D01*
X61933Y56878D01*
X62905Y57850D01*
X66347D01*
X66846Y57850D01*
D02*
G37*
G36*
X42617Y182500D02*
X42699Y181883D01*
X42937Y181309D01*
X43315Y180815D01*
X43809Y180437D01*
X44383Y180199D01*
X45000Y180117D01*
X45617Y180199D01*
X46191Y180437D01*
X46685Y180815D01*
X47063Y181309D01*
X47194Y181623D01*
X47694Y181524D01*
Y180980D01*
X47831Y180289D01*
X48223Y179703D01*
X62945Y164980D01*
X58464Y160499D01*
X50000D01*
X49496Y160399D01*
X31541D01*
X30888Y160269D01*
X30334Y159899D01*
X28111Y157676D01*
X27650Y157868D01*
Y160677D01*
X21740D01*
Y165598D01*
X20536D01*
X20344Y166060D01*
X28767Y174483D01*
X29137Y175037D01*
X29267Y175689D01*
Y177146D01*
X31624Y179503D01*
X32206Y179580D01*
X32780Y179818D01*
X33246Y180175D01*
X34188D01*
X34841Y180305D01*
X35394Y180675D01*
X37570Y182850D01*
X41653D01*
Y182850D01*
X41654D01*
Y182850D01*
X42310D01*
X42617Y182500D01*
D02*
G37*
G36*
X51758Y203495D02*
X47072Y198809D01*
X46949Y198827D01*
X46699Y199258D01*
X46681Y199372D01*
X46806Y200000D01*
X46669Y200691D01*
X46306Y201234D01*
Y202651D01*
X47777Y204122D01*
X48169Y204708D01*
X48306Y205399D01*
Y213500D01*
X48169Y214191D01*
X47777Y214777D01*
X45777Y216777D01*
X45191Y217169D01*
X44500Y217306D01*
X43809Y217169D01*
X43223Y216777D01*
X42831Y216191D01*
X42694Y215500D01*
X42831Y214809D01*
X43223Y214223D01*
X44694Y212752D01*
Y212018D01*
X44194Y211671D01*
X44000Y211710D01*
X35525D01*
Y215103D01*
X36881Y216459D01*
X41360D01*
X42051Y216597D01*
X42637Y216988D01*
X44299Y218650D01*
X51758D01*
Y203495D01*
D02*
G37*
G36*
X749Y208548D02*
X1139Y208287D01*
X1600Y208196D01*
X12331D01*
X12444Y208057D01*
Y196353D01*
X12582Y195662D01*
X12973Y195076D01*
X15694Y192356D01*
Y183000D01*
X15831Y182309D01*
X16223Y181723D01*
X20916Y177030D01*
X21502Y176638D01*
X22193Y176501D01*
X24500D01*
X24959Y176592D01*
X25456Y176323D01*
X25515Y176253D01*
X25540Y176081D01*
X16794Y167335D01*
X16424Y166782D01*
X16294Y166129D01*
Y165598D01*
X14260D01*
Y162272D01*
X13142Y161155D01*
X12773Y160601D01*
X12643Y159948D01*
Y150973D01*
X12773Y150320D01*
X13142Y149767D01*
X13824Y149085D01*
X13796Y148764D01*
X13411Y148372D01*
X1600D01*
X1139Y148280D01*
X748Y148019D01*
X714Y147968D01*
X214Y148119D01*
Y167948D01*
X714Y168100D01*
X749Y168049D01*
X1139Y167787D01*
X1600Y167696D01*
X13411D01*
X13872Y167787D01*
X14263Y168049D01*
X14524Y168439D01*
X14615Y168900D01*
Y177168D01*
X14524Y177629D01*
X14263Y178019D01*
X14263Y178549D01*
X14524Y178939D01*
X14615Y179400D01*
Y187668D01*
X14524Y188129D01*
X14263Y188519D01*
X13872Y188780D01*
X13411Y188872D01*
X1600D01*
X1139Y188780D01*
X748Y188519D01*
X714Y188468D01*
X214Y188619D01*
Y208449D01*
X714Y208600D01*
X749Y208548D01*
D02*
G37*
G36*
X21350Y194984D02*
X21350Y194484D01*
X21350D01*
Y194484D01*
X21350D01*
Y187791D01*
Y182358D01*
X20888Y182166D01*
X19306Y183748D01*
Y192266D01*
X19669Y192809D01*
X19806Y193500D01*
X19669Y194191D01*
X19277Y194777D01*
X18691Y195169D01*
X18758Y195665D01*
X21350D01*
Y194984D01*
D02*
G37*
G36*
X749Y249048D02*
X1139Y248787D01*
X1600Y248696D01*
X13077D01*
X13284Y248196D01*
X12973Y247885D01*
X12582Y247299D01*
X12444Y246608D01*
Y236853D01*
X12582Y236162D01*
X12973Y235576D01*
X15826Y232723D01*
X16412Y232331D01*
X17104Y232194D01*
X17252D01*
X17501Y231945D01*
Y223500D01*
X17638Y222809D01*
X18030Y222223D01*
X21945Y218307D01*
X15077Y211439D01*
X14615Y211630D01*
Y217668D01*
X14524Y218128D01*
X14263Y218519D01*
X14263Y219049D01*
X14524Y219439D01*
X14615Y219900D01*
Y228168D01*
X14524Y228629D01*
X14263Y229019D01*
X13872Y229280D01*
X13411Y229372D01*
X1600D01*
X1139Y229280D01*
X748Y229019D01*
X714Y228968D01*
X214Y229119D01*
Y248949D01*
X714Y249100D01*
X749Y249048D01*
D02*
G37*
G36*
X232286Y286488D02*
X231786Y286363D01*
X231598Y286714D01*
X230836Y287643D01*
X229907Y288406D01*
X228847Y288972D01*
X227696Y289321D01*
X226500Y289439D01*
X225304Y289321D01*
X224153Y288972D01*
X223093Y288406D01*
X222164Y287643D01*
X221402Y286714D01*
X220835Y285654D01*
X220486Y284503D01*
X220434Y283974D01*
X219903Y283683D01*
X219617Y283801D01*
X219000Y283883D01*
X218383Y283801D01*
X217809Y283563D01*
X217315Y283185D01*
X217006Y282782D01*
X216641Y282816D01*
X216477Y282885D01*
X216235Y283470D01*
X215825Y284005D01*
X215291Y284415D01*
X214668Y284673D01*
X214000Y284761D01*
X207000D01*
X206332Y284673D01*
X205709Y284415D01*
X205175Y284005D01*
X204765Y283470D01*
X204507Y282848D01*
X204419Y282179D01*
X204507Y281511D01*
X204765Y280889D01*
X205175Y280354D01*
X205099Y279837D01*
X205065Y279808D01*
X204500Y279883D01*
X203883Y279801D01*
X203309Y279563D01*
X203157Y279447D01*
X202658Y279694D01*
Y282679D01*
X200993D01*
X200713Y283179D01*
X201353Y284222D01*
X202016Y285825D01*
X202422Y287513D01*
X202558Y289242D01*
Y294000D01*
X202422Y295730D01*
X202016Y297417D01*
X201353Y299020D01*
X200446Y300500D01*
X199319Y301819D01*
X198000Y302946D01*
X196520Y303853D01*
X194917Y304517D01*
X193230Y304922D01*
X191500Y305058D01*
X189770Y304922D01*
X188083Y304517D01*
X186480Y303853D01*
X185000Y302946D01*
X183681Y301819D01*
X182554Y300500D01*
X181648Y299020D01*
X180983Y297417D01*
X180578Y295730D01*
X180442Y294000D01*
Y293823D01*
X180262Y293642D01*
X179135Y292323D01*
X178229Y290844D01*
X177565Y289241D01*
X177160Y287553D01*
X177023Y285823D01*
Y284121D01*
X170000D01*
X168611Y283984D01*
X167275Y283579D01*
X166044Y282921D01*
X164965Y282035D01*
X164079Y280956D01*
X163421Y279725D01*
X163016Y278389D01*
X162879Y277000D01*
X163016Y275611D01*
X163421Y274275D01*
X163874Y273428D01*
X160223Y269777D01*
X159831Y269191D01*
X159694Y268500D01*
Y264026D01*
X159437Y263691D01*
X159199Y263117D01*
X159117Y262500D01*
X159199Y261883D01*
X159437Y261309D01*
X159815Y260815D01*
X160309Y260437D01*
X160883Y260199D01*
X161500Y260117D01*
X162117Y260199D01*
X162691Y260437D01*
X163185Y260815D01*
X163563Y261309D01*
X163742Y261740D01*
X164242Y261641D01*
Y256896D01*
X157258D01*
Y264766D01*
X116878D01*
X116779Y265266D01*
X117191Y265437D01*
X117685Y265815D01*
X118063Y266309D01*
X118301Y266883D01*
X118357Y267302D01*
X120984Y269930D01*
X121500Y269879D01*
X141500D01*
X142509Y269978D01*
X143518Y269879D01*
X144907Y270016D01*
X146243Y270421D01*
X147474Y271079D01*
X147769Y271321D01*
X154157D01*
Y275194D01*
X155421D01*
X156000Y275117D01*
X156617Y275199D01*
X157191Y275437D01*
X157685Y275815D01*
X158063Y276309D01*
X158301Y276883D01*
X158383Y277500D01*
X158301Y278117D01*
X158063Y278691D01*
X157685Y279185D01*
X157191Y279563D01*
X156617Y279801D01*
X156000Y279883D01*
X155383Y279801D01*
X154809Y279563D01*
X154657Y279447D01*
X154157Y279694D01*
Y282679D01*
X149683D01*
X149374Y283072D01*
X149422Y283270D01*
X149558Y285000D01*
Y294000D01*
X149422Y295730D01*
X149016Y297417D01*
X148353Y299020D01*
X147446Y300500D01*
X146319Y301819D01*
X145000Y302946D01*
X143520Y303853D01*
X141917Y304517D01*
X140230Y304922D01*
X138500Y305058D01*
X136770Y304922D01*
X135083Y304517D01*
X133480Y303853D01*
X132000Y302946D01*
X130681Y301819D01*
X129554Y300500D01*
X128647Y299020D01*
X127983Y297417D01*
X127578Y295730D01*
X127442Y294000D01*
Y290214D01*
X126942Y289880D01*
X126668Y289993D01*
X126000Y290081D01*
X106500D01*
X105832Y289993D01*
X105209Y289735D01*
X104675Y289325D01*
X104265Y288791D01*
X104007Y288168D01*
X103919Y287500D01*
X104007Y286832D01*
X104265Y286209D01*
X104675Y285675D01*
X105209Y285265D01*
X105832Y285007D01*
X106500Y284919D01*
X126000D01*
X126668Y285007D01*
X126875Y285093D01*
X127309Y284834D01*
X127333Y284542D01*
X126945Y284121D01*
X121500D01*
X120111Y283984D01*
X118775Y283579D01*
X117544Y282921D01*
X116465Y282035D01*
X115579Y280956D01*
X114921Y279725D01*
X114516Y278389D01*
X114379Y277000D01*
X114516Y275611D01*
X114921Y274275D01*
X115579Y273044D01*
X116465Y271965D01*
X116971Y271549D01*
X116995Y271050D01*
X115802Y269857D01*
X115383Y269801D01*
X114809Y269563D01*
X114716Y269579D01*
X114479Y269933D01*
X107658Y276755D01*
Y282679D01*
X101269D01*
X100974Y282921D01*
X99743Y283579D01*
X98407Y283984D01*
X97018Y284121D01*
X96058D01*
Y294000D01*
X95922Y295730D01*
X95517Y297417D01*
X94853Y299020D01*
X93946Y300500D01*
X92819Y301819D01*
X91500Y302946D01*
X90020Y303853D01*
X88417Y304517D01*
X86730Y304922D01*
X85000Y305058D01*
X83270Y304922D01*
X81583Y304517D01*
X79980Y303853D01*
X78500Y302946D01*
X77181Y301819D01*
X76054Y300500D01*
X75147Y299020D01*
X74484Y297417D01*
X74078Y295730D01*
X73942Y294000D01*
Y284766D01*
X73253Y284557D01*
X72022Y283898D01*
X70942Y283013D01*
X70057Y281934D01*
X69399Y280703D01*
X68994Y279367D01*
X68857Y277978D01*
X68898Y277557D01*
X68446Y277343D01*
X67471Y278318D01*
X66387Y279244D01*
X65396Y279851D01*
X65082Y280363D01*
X63955Y281683D01*
X62636Y282810D01*
X61156Y283716D01*
X59553Y284380D01*
X57866Y284785D01*
X56136Y284922D01*
X47767D01*
X47628Y291046D01*
X47922Y292270D01*
X48058Y294000D01*
X47922Y295730D01*
X47517Y297417D01*
X46852Y299020D01*
X45946Y300500D01*
X44819Y301819D01*
X43500Y302946D01*
X42020Y303853D01*
X40417Y304517D01*
X38730Y304922D01*
X37000Y305058D01*
X36667Y305031D01*
X36249Y305055D01*
X34523Y304879D01*
X32845Y304436D01*
X31257Y303736D01*
X29799Y302796D01*
X28505Y301639D01*
X27409Y300295D01*
X26536Y298795D01*
X26252Y298062D01*
X25752Y298056D01*
X25352Y299020D01*
X24446Y300500D01*
X23319Y301819D01*
X22000Y302946D01*
X20520Y303853D01*
X18917Y304517D01*
X17230Y304922D01*
X15500Y305058D01*
X13770Y304922D01*
X12083Y304517D01*
X10480Y303853D01*
X9000Y302946D01*
X7681Y301819D01*
X6554Y300500D01*
X5647Y299020D01*
X4984Y297417D01*
X4578Y295730D01*
X4442Y294000D01*
Y272000D01*
X4578Y270270D01*
X4984Y268583D01*
X5647Y266980D01*
X6554Y265500D01*
X7681Y264181D01*
X9000Y263054D01*
X10480Y262147D01*
X12083Y261484D01*
X13694Y261097D01*
Y259604D01*
X13411Y259372D01*
X1600D01*
X1139Y259280D01*
X749Y259019D01*
X714Y258968D01*
X214Y259119D01*
Y309500D01*
X219748D01*
X219773Y309000D01*
X219611Y308984D01*
X218275Y308579D01*
X217044Y307921D01*
X215965Y307035D01*
X215079Y305956D01*
X214421Y304725D01*
X214016Y303389D01*
X213879Y302000D01*
X214016Y300611D01*
X214421Y299275D01*
X215079Y298044D01*
X215965Y296965D01*
X217044Y296079D01*
X218275Y295421D01*
X219611Y295016D01*
X221000Y294879D01*
X222389Y295016D01*
X223725Y295421D01*
X224956Y296079D01*
X226035Y296965D01*
X226921Y298044D01*
X227579Y299275D01*
X227984Y300611D01*
X228121Y302000D01*
X227984Y303389D01*
X227579Y304725D01*
X226921Y305956D01*
X226035Y307035D01*
X224956Y307921D01*
X223725Y308579D01*
X222389Y308984D01*
X222228Y309000D01*
X222252Y309500D01*
X232286D01*
Y286488D01*
D02*
G37*
G36*
X28309Y222937D02*
X28883Y222699D01*
X29294Y222644D01*
Y206157D01*
X28937Y205691D01*
X28715Y205156D01*
X21740D01*
Y206098D01*
X16057D01*
Y207309D01*
X25777Y217030D01*
X26169Y217616D01*
X26306Y218307D01*
X26169Y218998D01*
X25777Y219584D01*
X24170Y221192D01*
X24361Y221654D01*
X27650D01*
Y222831D01*
X28150Y223059D01*
X28309Y222937D01*
D02*
G37*
G36*
X26513Y268511D02*
X26532Y268467D01*
X26564Y268345D01*
X26864Y267666D01*
X27147Y266980D01*
X27213Y266873D01*
X27264Y266757D01*
X27666Y266133D01*
X28054Y265500D01*
X28136Y265405D01*
X28204Y265299D01*
X28699Y264746D01*
X29181Y264181D01*
X29277Y264099D01*
X29361Y264005D01*
X29936Y263536D01*
X30500Y263054D01*
X30608Y262988D01*
X30705Y262909D01*
X31347Y262535D01*
X31980Y262147D01*
X32096Y262099D01*
X32205Y262036D01*
X32897Y261768D01*
X33583Y261484D01*
X33705Y261454D01*
X33823Y261409D01*
X34548Y261252D01*
X35270Y261078D01*
X35396Y261069D01*
X35519Y261042D01*
X36260Y261001D01*
X37000Y260942D01*
X43772D01*
X45502Y261078D01*
X47189Y261484D01*
X48792Y262147D01*
X49867Y262806D01*
X50555D01*
X50769Y262354D01*
X50402Y261907D01*
X49835Y260847D01*
X49486Y259696D01*
X49368Y258500D01*
X49486Y257304D01*
X49835Y256153D01*
X50402Y255093D01*
X51164Y254164D01*
X52093Y253401D01*
X53153Y252835D01*
X54304Y252486D01*
X55500Y252368D01*
X56696Y252486D01*
X57847Y252835D01*
X58907Y253401D01*
X59836Y254164D01*
X60598Y255093D01*
X60959Y255768D01*
X61535Y255785D01*
X61547Y255766D01*
X62473Y254682D01*
X69242Y247912D01*
Y226911D01*
X110758D01*
Y234781D01*
X115742D01*
Y226911D01*
X157258D01*
Y234781D01*
X164242D01*
Y226911D01*
X193857D01*
X197303Y223465D01*
X197303Y223465D01*
X198382Y222579D01*
X199613Y221921D01*
X200949Y221516D01*
X202339Y221379D01*
X222914D01*
X224111Y221016D01*
X225500Y220879D01*
X226495D01*
X227884Y221016D01*
X229220Y221421D01*
X230451Y222079D01*
X231530Y222965D01*
X231755Y223239D01*
X231786Y223265D01*
X232286Y223028D01*
Y125952D01*
X231786Y125800D01*
X231751Y125851D01*
X231361Y126112D01*
X230900Y126204D01*
X219089D01*
X218628Y126112D01*
X218237Y125851D01*
X217976Y125461D01*
X217885Y125000D01*
Y116732D01*
X217976Y116271D01*
X218237Y115881D01*
X218628Y115620D01*
X219089Y115528D01*
X230900D01*
X231361Y115620D01*
X231751Y115881D01*
X231786Y115932D01*
X232286Y115780D01*
Y93236D01*
X231786Y92912D01*
X231352Y92998D01*
X219857D01*
Y108106D01*
X219727Y108759D01*
X219357Y109312D01*
X216463Y112206D01*
X215910Y112576D01*
X215257Y112706D01*
X211706D01*
Y120500D01*
X211576Y121153D01*
X211206Y121706D01*
X206706Y126207D01*
Y131500D01*
Y135793D01*
X207206Y136294D01*
X207576Y136847D01*
X207706Y137500D01*
Y145480D01*
X207576Y146133D01*
X207206Y146687D01*
X200787Y153106D01*
Y153572D01*
X215576Y168361D01*
X215976Y168061D01*
X215885Y167600D01*
Y159332D01*
X215976Y158871D01*
X216237Y158481D01*
X216628Y158220D01*
X217089Y158128D01*
X228900D01*
X229361Y158220D01*
X229751Y158481D01*
X230013Y158871D01*
X230104Y159332D01*
Y167600D01*
X230013Y168061D01*
X229751Y168451D01*
X229361Y168713D01*
X228900Y168804D01*
X217089D01*
X216628Y168713D01*
X216328Y169113D01*
X217527Y170312D01*
X217918Y170898D01*
X218056Y171590D01*
Y180647D01*
X217918Y181338D01*
X217527Y181924D01*
X214674Y184777D01*
X214088Y185169D01*
X213396Y185306D01*
X211604D01*
X210912Y185169D01*
X210326Y184777D01*
X208527Y182978D01*
X202025D01*
X201810Y183478D01*
X202063Y183809D01*
X202301Y184383D01*
X202383Y185000D01*
X202301Y185617D01*
X202063Y186191D01*
X201685Y186685D01*
X201191Y187063D01*
X200617Y187301D01*
X200035Y187378D01*
X198406Y189006D01*
X197853Y189376D01*
X197656Y189415D01*
Y193705D01*
X192144D01*
Y182978D01*
X191506D01*
Y187800D01*
X191369Y188491D01*
X190977Y189077D01*
X190391Y189469D01*
X189700Y189606D01*
X184900D01*
X184209Y189469D01*
X183623Y189077D01*
X183156Y188610D01*
X182656Y188818D01*
Y193705D01*
X172355D01*
X172301Y194117D01*
X172063Y194691D01*
X171706Y195157D01*
Y197334D01*
X173832Y199461D01*
X177916D01*
Y206153D01*
X166327D01*
X165827Y206154D01*
Y212794D01*
X167343D01*
X167809Y212437D01*
X168383Y212199D01*
X169000Y212117D01*
X169617Y212199D01*
X169754Y212255D01*
X170054Y211806D01*
X170010Y211587D01*
X169894Y211306D01*
X168722D01*
X168031Y211169D01*
X167445Y210777D01*
X167053Y210191D01*
X166916Y209500D01*
X167053Y208809D01*
X167445Y208223D01*
X168031Y207831D01*
X168722Y207694D01*
X174766D01*
X175458Y207831D01*
X176043Y208223D01*
X176435Y208809D01*
X176573Y209500D01*
X176435Y210191D01*
X176043Y210777D01*
X175616Y211063D01*
X172979Y213700D01*
Y215442D01*
X172849Y216094D01*
X172479Y216648D01*
X172064Y217064D01*
X172064Y217064D01*
X172064Y217064D01*
X171148Y217980D01*
X170595Y218349D01*
X169942Y218479D01*
X168058D01*
X167876Y218443D01*
X167829Y218448D01*
X167337Y218846D01*
X167301Y219117D01*
X167063Y219691D01*
X166685Y220185D01*
X166191Y220563D01*
X165617Y220801D01*
X165000Y220883D01*
X164383Y220801D01*
X163809Y220563D01*
X163315Y220185D01*
X163243Y220091D01*
X162580Y220048D01*
X158564Y224064D01*
X158010Y224434D01*
X157357Y224564D01*
X105643D01*
X104990Y224434D01*
X104436Y224064D01*
X98520Y218148D01*
X98151Y217595D01*
X98021Y216942D01*
Y213551D01*
X94983Y210513D01*
X94613Y209960D01*
X94483Y209307D01*
X94613Y208654D01*
X94983Y208101D01*
X95537Y207731D01*
X96189Y207601D01*
X96842Y207731D01*
X97396Y208101D01*
X98622Y209327D01*
X99084Y209136D01*
Y206154D01*
X98664Y205961D01*
X93040D01*
Y199268D01*
X99339D01*
Y199268D01*
X99641Y199247D01*
X99934Y198784D01*
X99932Y198779D01*
X99851Y198162D01*
X99932Y197545D01*
X100170Y196971D01*
X100549Y196477D01*
X101042Y196099D01*
X101186Y196039D01*
X101581Y195775D01*
X102234Y195645D01*
X102887Y195775D01*
X103282Y196039D01*
X103425Y196099D01*
X103919Y196477D01*
X104297Y196971D01*
X104535Y197545D01*
X104616Y198162D01*
X104535Y198779D01*
X104460Y198961D01*
X104794Y199461D01*
X105718D01*
X106052Y198961D01*
X105977Y198779D01*
X105896Y198162D01*
X105977Y197545D01*
X106215Y196971D01*
X106593Y196477D01*
X107087Y196099D01*
X107405Y195967D01*
X107625Y195820D01*
X108278Y195690D01*
X108931Y195820D01*
X109151Y195967D01*
X109469Y196099D01*
X109963Y196477D01*
X110342Y196971D01*
X110580Y197545D01*
X110661Y198162D01*
X110580Y198779D01*
X110504Y198961D01*
X110838Y199461D01*
X111397D01*
X111643Y198961D01*
X111437Y198691D01*
X111199Y198117D01*
X111117Y197500D01*
X111199Y196883D01*
X111437Y196309D01*
X111815Y195815D01*
X112309Y195437D01*
X112883Y195199D01*
X113500Y195117D01*
X114117Y195199D01*
X114691Y195437D01*
X115185Y195815D01*
X115563Y196309D01*
X115793Y196863D01*
X115899Y197021D01*
X116028Y197674D01*
X115899Y198327D01*
X115529Y198880D01*
X115561Y199401D01*
X115603Y199461D01*
X117897D01*
X118143Y198961D01*
X117937Y198691D01*
X117699Y198117D01*
X117617Y197500D01*
X117699Y196883D01*
X117937Y196309D01*
X118315Y195815D01*
X118809Y195437D01*
X119383Y195199D01*
X120000Y195117D01*
X120617Y195199D01*
X121191Y195437D01*
X121685Y195815D01*
X122063Y196309D01*
X122301Y196883D01*
X122383Y197500D01*
X122301Y198117D01*
X122063Y198691D01*
X121857Y198961D01*
X122103Y199461D01*
X126830D01*
X127165Y198961D01*
X127111Y198546D01*
X127192Y197930D01*
X127430Y197355D01*
X127809Y196862D01*
X128302Y196483D01*
X128453Y196421D01*
X128528Y195848D01*
X128315Y195685D01*
X127937Y195191D01*
X127699Y194617D01*
X127617Y194000D01*
X127699Y193383D01*
X127937Y192809D01*
X128315Y192315D01*
X128809Y191937D01*
X129383Y191699D01*
X130000Y191617D01*
X130148Y191637D01*
X130393Y191259D01*
X130428Y191169D01*
X130199Y190617D01*
X130117Y190000D01*
X130199Y189383D01*
X130230Y189306D01*
X129896Y188806D01*
X125604D01*
X125269Y189306D01*
X125301Y189383D01*
X125383Y190000D01*
X125301Y190617D01*
X125063Y191191D01*
X124685Y191685D01*
X124191Y192063D01*
X123617Y192301D01*
X123000Y192383D01*
X122383Y192301D01*
X121809Y192063D01*
X121500Y191826D01*
X121191Y192063D01*
X120617Y192301D01*
X120000Y192383D01*
X119383Y192301D01*
X118809Y192063D01*
X118315Y191685D01*
X117937Y191191D01*
X117699Y190617D01*
X117617Y190000D01*
X117699Y189383D01*
X117730Y189306D01*
X117396Y188806D01*
X114500D01*
X113809Y188669D01*
X113223Y188277D01*
X112831Y187691D01*
X112694Y187000D01*
X112831Y186309D01*
X113167Y185806D01*
X113072Y185497D01*
X112946Y185306D01*
X111153D01*
Y190150D01*
X104461D01*
Y188706D01*
X102707D01*
X100878Y190535D01*
X100801Y191117D01*
X100563Y191691D01*
X100185Y192185D01*
X99691Y192563D01*
X99117Y192801D01*
X98500Y192883D01*
X97883Y192801D01*
X97691Y192722D01*
X87240Y203172D01*
Y206498D01*
X79760D01*
Y200987D01*
Y196065D01*
Y191165D01*
X79343Y190965D01*
X54003D01*
X53800Y191465D01*
X54063Y191809D01*
X54301Y192383D01*
X54383Y193000D01*
X54301Y193617D01*
X54063Y194191D01*
X53685Y194685D01*
X53191Y195063D01*
X52617Y195301D01*
X52000Y195383D01*
X51383Y195301D01*
X50809Y195063D01*
X50474Y194806D01*
X48800D01*
X48649Y195306D01*
X48739Y195367D01*
X54842Y201470D01*
X55233Y202056D01*
X55371Y202747D01*
Y236935D01*
X55233Y237627D01*
X54842Y238213D01*
X53555Y239499D01*
Y241878D01*
X53555D01*
Y242272D01*
X53555D01*
Y247783D01*
X35445D01*
Y246834D01*
X19185D01*
X18494Y246696D01*
X18347Y246598D01*
X17320D01*
X17084Y247039D01*
X17169Y247166D01*
X17306Y247857D01*
Y261097D01*
X18917Y261484D01*
X20520Y262147D01*
X22000Y263054D01*
X23319Y264181D01*
X24446Y265500D01*
X25352Y266980D01*
X25987Y268511D01*
X26250Y268561D01*
X26513Y268511D01*
D02*
G37*
G36*
X164482Y142964D02*
X164275Y142464D01*
X152079D01*
X151426Y142334D01*
X150873Y141964D01*
X150233Y141324D01*
X149863Y140771D01*
X149733Y140118D01*
Y139120D01*
X144946Y134333D01*
X144465Y134428D01*
X141527D01*
X140206Y135750D01*
Y137461D01*
X141650D01*
Y144153D01*
X137040D01*
X136706Y144653D01*
X136801Y144883D01*
X136883Y145500D01*
X136826Y145932D01*
X136976Y146043D01*
X137302Y146143D01*
X137748Y145697D01*
X138334Y145306D01*
X139025Y145168D01*
X144416D01*
X144482Y144667D01*
X144720Y144092D01*
X145098Y143598D01*
X145592Y143220D01*
X146167Y142982D01*
X146783Y142901D01*
X147400Y142982D01*
X147975Y143220D01*
X148468Y143598D01*
X148847Y144092D01*
X148916Y144259D01*
X149298Y144296D01*
X149463Y144274D01*
X149815Y143815D01*
X150309Y143437D01*
X150883Y143199D01*
X151500Y143117D01*
X152117Y143199D01*
X152691Y143437D01*
X153185Y143815D01*
X153563Y144309D01*
X153801Y144883D01*
X153883Y145500D01*
X153801Y146117D01*
X153716Y146322D01*
X154050Y146822D01*
X160623D01*
X164482Y142964D01*
D02*
G37*
G36*
X61366Y157639D02*
Y155757D01*
X61150Y155347D01*
X54850D01*
Y148653D01*
X56194D01*
Y148134D01*
X54240D01*
Y148134D01*
X53740Y148134D01*
X52007D01*
Y148653D01*
X53150D01*
Y155347D01*
X46850D01*
Y148653D01*
X47993D01*
Y148134D01*
X46760D01*
Y139866D01*
X52079D01*
X59944Y132001D01*
X59753Y131539D01*
X57701D01*
Y129999D01*
X56650D01*
Y131539D01*
X50350D01*
Y127857D01*
X49889Y127666D01*
X29465Y148089D01*
Y153335D01*
X29328Y154026D01*
X29311Y154051D01*
X32247Y156987D01*
X49496D01*
X50000Y156887D01*
X59213D01*
X59904Y157024D01*
X60490Y157416D01*
X60904Y157830D01*
X61366Y157639D01*
D02*
G37*
G36*
X121653Y179850D02*
X127847D01*
X128346Y179850D01*
Y179850D01*
X128347D01*
Y179850D01*
X135039D01*
Y181194D01*
X161182D01*
X165938Y176438D01*
X166524Y176046D01*
X167215Y175909D01*
X172144D01*
Y171599D01*
X167223Y166677D01*
X166831Y166091D01*
X166721Y165539D01*
X165350D01*
Y158846D01*
X171650D01*
Y165539D01*
X171650D01*
X171640Y165562D01*
X172023Y165945D01*
X172144Y165894D01*
Y165894D01*
X173094D01*
Y162600D01*
X173231Y161909D01*
X173623Y161323D01*
X174795Y160150D01*
X174937Y159809D01*
X175137Y159548D01*
X174890Y159048D01*
X173780D01*
X173127Y158918D01*
X172573Y158548D01*
X171231Y157206D01*
X168500D01*
X167847Y157076D01*
X167294Y156706D01*
X166924Y156153D01*
X166794Y155500D01*
X166924Y154847D01*
X166962Y154790D01*
X166731Y154236D01*
X166538Y154199D01*
X165460Y155277D01*
X164874Y155669D01*
X164182Y155806D01*
X136011D01*
X135319Y155669D01*
X134733Y155277D01*
X134603Y155147D01*
X120341D01*
X119650Y155010D01*
X119064Y154618D01*
X113660Y149214D01*
X113268Y148628D01*
X113131Y147937D01*
Y144404D01*
X112969Y144271D01*
X112443Y144167D01*
X112262Y144256D01*
X112063Y144809D01*
X112301Y145383D01*
X112383Y146000D01*
X112301Y146617D01*
X112063Y147191D01*
X111685Y147685D01*
X111191Y148063D01*
X110617Y148301D01*
X110364Y148335D01*
X110383Y148477D01*
X110301Y149094D01*
X110063Y149669D01*
X109685Y150162D01*
X109191Y150540D01*
X108782Y150710D01*
X108806Y150831D01*
Y159961D01*
X110150D01*
Y166654D01*
X110150D01*
Y166654D01*
X110150D01*
Y173346D01*
X107526D01*
X99678Y181194D01*
X99886Y181694D01*
X121653D01*
Y179850D01*
D02*
G37*
G36*
X211956Y170558D02*
X212121Y170015D01*
X197999Y155894D01*
X197126Y156767D01*
X196572Y157137D01*
X195920Y157267D01*
X189473D01*
X188820Y157137D01*
X188267Y156767D01*
X187627Y156127D01*
X187257Y155574D01*
X187127Y154921D01*
Y154332D01*
X185187D01*
X180971Y158548D01*
X180754Y158693D01*
X180906Y159193D01*
X183496D01*
Y160536D01*
X190013D01*
X190704Y160674D01*
X191290Y161065D01*
X192022Y161797D01*
X192484Y161606D01*
Y159193D01*
X197996D01*
Y160536D01*
X201185D01*
X201876Y160674D01*
X202462Y161065D01*
X211955Y170558D01*
X211956Y170558D01*
D02*
G37*
G36*
X103850Y171913D02*
Y166654D01*
X103850D01*
Y166654D01*
X103850D01*
Y165023D01*
X103616Y164976D01*
X103030Y164584D01*
X100302Y161856D01*
X99883Y161801D01*
X99309Y161563D01*
X98815Y161185D01*
X98437Y160691D01*
X98199Y160117D01*
X98117Y159500D01*
X98199Y158883D01*
X98437Y158309D01*
X98815Y157815D01*
X99309Y157437D01*
X99883Y157199D01*
X100500Y157117D01*
X101117Y157199D01*
X101691Y157437D01*
X102185Y157815D01*
X102563Y158309D01*
X102801Y158883D01*
X102857Y159302D01*
X103382Y159827D01*
X103850Y159961D01*
Y159961D01*
X103850Y159961D01*
X105194D01*
Y151579D01*
X104351Y150737D01*
X103960Y150151D01*
X103822Y149460D01*
Y148171D01*
X103346Y148108D01*
X102889Y147919D01*
X102685Y148185D01*
X102191Y148563D01*
X101617Y148801D01*
X101539Y148812D01*
Y153650D01*
X94846D01*
Y147350D01*
X96822D01*
Y145518D01*
X96960Y144826D01*
X97017Y144740D01*
X96787Y144185D01*
X96529Y144133D01*
X96236Y143938D01*
X95943Y144133D01*
X95252Y144271D01*
X94561Y144133D01*
X94268Y143938D01*
X93975Y144133D01*
X93294Y144269D01*
X93268Y144310D01*
X93089Y144742D01*
X93185Y144815D01*
X93563Y145309D01*
X93801Y145883D01*
X93883Y146500D01*
X93801Y147117D01*
X93563Y147691D01*
X93185Y148185D01*
X92767Y148505D01*
X92597Y149042D01*
X92777Y149223D01*
X93169Y149809D01*
X93306Y150500D01*
X93169Y151191D01*
X92777Y151777D01*
X92191Y152169D01*
X91500Y152306D01*
X88728D01*
X75306Y165728D01*
Y170579D01*
X76596Y171869D01*
X79399D01*
X80090Y172007D01*
X80676Y172398D01*
X81777Y173500D01*
X82169Y174086D01*
X82306Y174777D01*
Y185570D01*
X84618Y187882D01*
X85010Y188468D01*
X85147Y189159D01*
X85010Y189850D01*
X84686Y190334D01*
X84763Y190730D01*
X84841Y190889D01*
X84868Y190895D01*
X103850Y171913D01*
D02*
G37*
G36*
X78800Y186853D02*
X78694Y186318D01*
Y184472D01*
X67100D01*
X66639Y184380D01*
X66249Y184119D01*
X65987Y183729D01*
X65896Y183268D01*
Y175000D01*
X65987Y174539D01*
X66249Y174149D01*
X66639Y173888D01*
X67100Y173796D01*
X72761D01*
X72952Y173334D01*
X72223Y172605D01*
X71831Y172019D01*
X71694Y171327D01*
Y166787D01*
X66248D01*
X51306Y181728D01*
Y187353D01*
X78505D01*
X78800Y186853D01*
D02*
G37*
%LPC*%
G36*
X40000Y118121D02*
X38611Y117984D01*
X37275Y117579D01*
X36044Y116921D01*
X34965Y116035D01*
X34079Y114956D01*
X33421Y113725D01*
X33016Y112389D01*
X32879Y111000D01*
X33016Y109611D01*
X33421Y108275D01*
X34079Y107044D01*
X34965Y105965D01*
X36044Y105079D01*
X37275Y104421D01*
X38611Y104016D01*
X40000Y103879D01*
X41389Y104016D01*
X42725Y104421D01*
X43956Y105079D01*
X45035Y105965D01*
X45921Y107044D01*
X46579Y108275D01*
X46984Y109611D01*
X47121Y111000D01*
X46984Y112389D01*
X46579Y113725D01*
X45921Y114956D01*
X45035Y116035D01*
X43956Y116921D01*
X42725Y117579D01*
X41389Y117984D01*
X40000Y118121D01*
D02*
G37*
G36*
X95000Y122883D02*
X94383Y122801D01*
X93809Y122563D01*
X93315Y122185D01*
X92937Y121691D01*
X92699Y121117D01*
X92617Y120500D01*
X92699Y119883D01*
X92937Y119309D01*
X93315Y118815D01*
X93809Y118437D01*
X94383Y118199D01*
X95000Y118117D01*
X95617Y118199D01*
X96191Y118437D01*
X96685Y118815D01*
X97063Y119309D01*
X97301Y119883D01*
X97383Y120500D01*
X97301Y121117D01*
X97063Y121691D01*
X96685Y122185D01*
X96191Y122563D01*
X95617Y122801D01*
X95000Y122883D01*
D02*
G37*
G36*
X186500Y112883D02*
X185883Y112801D01*
X185309Y112563D01*
X184815Y112185D01*
X184437Y111691D01*
X184199Y111117D01*
X184117Y110500D01*
X184199Y109883D01*
X184437Y109309D01*
X184815Y108815D01*
X185309Y108437D01*
X185883Y108199D01*
X186500Y108117D01*
X187117Y108199D01*
X187691Y108437D01*
X188185Y108815D01*
X188563Y109309D01*
X188801Y109883D01*
X188883Y110500D01*
X188801Y111117D01*
X188563Y111691D01*
X188185Y112185D01*
X187691Y112563D01*
X187117Y112801D01*
X186500Y112883D01*
D02*
G37*
G36*
X64500Y80383D02*
X63883Y80301D01*
X63309Y80063D01*
X62815Y79685D01*
X62437Y79191D01*
X62199Y78617D01*
X62117Y78000D01*
X62199Y77383D01*
X62437Y76809D01*
X62815Y76315D01*
X63309Y75937D01*
X63883Y75699D01*
X64500Y75617D01*
X65117Y75699D01*
X65691Y75937D01*
X66185Y76315D01*
X66563Y76809D01*
X66801Y77383D01*
X66883Y78000D01*
X66801Y78617D01*
X66563Y79191D01*
X66185Y79685D01*
X65691Y80063D01*
X65117Y80301D01*
X64500Y80383D01*
D02*
G37*
G36*
X39000Y60883D02*
X38383Y60801D01*
X37809Y60563D01*
X37315Y60185D01*
X36937Y59691D01*
X36699Y59117D01*
X36617Y58500D01*
X36699Y57883D01*
X36937Y57309D01*
X37074Y57130D01*
X37280Y56750D01*
X37074Y56370D01*
X36937Y56191D01*
X36699Y55617D01*
X36617Y55000D01*
X36699Y54383D01*
X36937Y53809D01*
X37315Y53315D01*
X37809Y52937D01*
X38383Y52699D01*
X39000Y52617D01*
X39617Y52699D01*
X40191Y52937D01*
X40685Y53315D01*
X40804Y53471D01*
X41241Y53219D01*
X41199Y53117D01*
X41117Y52500D01*
X41199Y51883D01*
X41437Y51309D01*
X41815Y50815D01*
X42309Y50437D01*
X42883Y50199D01*
X43500Y50117D01*
X44117Y50199D01*
X44691Y50437D01*
X45185Y50815D01*
X45563Y51309D01*
X45801Y51883D01*
X45883Y52500D01*
X45801Y53117D01*
X45563Y53691D01*
X45185Y54185D01*
X44691Y54563D01*
X44117Y54801D01*
X43500Y54883D01*
X42883Y54801D01*
X42309Y54563D01*
X41815Y54185D01*
X41696Y54029D01*
X41259Y54281D01*
X41301Y54383D01*
X41383Y55000D01*
X41301Y55617D01*
X41063Y56191D01*
X40926Y56370D01*
X40720Y56750D01*
X40926Y57130D01*
X41063Y57309D01*
X41301Y57883D01*
X41383Y58500D01*
X41301Y59117D01*
X41063Y59691D01*
X40685Y60185D01*
X40191Y60563D01*
X39617Y60801D01*
X39000Y60883D01*
D02*
G37*
G36*
X36642Y77741D02*
X36025Y77660D01*
X35450Y77422D01*
X34957Y77043D01*
X34578Y76550D01*
X34340Y75975D01*
X34259Y75358D01*
X34340Y74742D01*
X34578Y74167D01*
X34957Y73673D01*
X35450Y73295D01*
X36025Y73057D01*
X36642Y72976D01*
X37258Y73057D01*
X37833Y73295D01*
X38326Y73673D01*
X38705Y74167D01*
X38943Y74742D01*
X39024Y75358D01*
X38943Y75975D01*
X38705Y76550D01*
X38326Y77043D01*
X37833Y77422D01*
X37258Y77660D01*
X36642Y77741D01*
D02*
G37*
G36*
X64000Y74206D02*
X63347Y74076D01*
X62794Y73706D01*
X61813Y72726D01*
X61444Y72173D01*
X61314Y71520D01*
Y69706D01*
X59655D01*
X59293Y70069D01*
X58740Y70438D01*
X58087Y70568D01*
X57434Y70438D01*
X56880Y70069D01*
X56511Y69515D01*
X56381Y68862D01*
X56511Y68209D01*
X56880Y67656D01*
X57743Y66794D01*
X58296Y66424D01*
X58949Y66294D01*
X63020D01*
X63673Y66424D01*
X64226Y66794D01*
X64596Y67347D01*
X64726Y68000D01*
Y70813D01*
X65206Y71294D01*
X65576Y71847D01*
X65706Y72500D01*
X65576Y73153D01*
X65206Y73706D01*
X64653Y74076D01*
X64000Y74206D01*
D02*
G37*
G36*
X83500Y5883D02*
X82883Y5801D01*
X82309Y5563D01*
X81815Y5185D01*
X81437Y4691D01*
X81199Y4117D01*
X81117Y3500D01*
X81199Y2883D01*
X81437Y2309D01*
X81815Y1815D01*
X82309Y1437D01*
X82883Y1199D01*
X83500Y1117D01*
X84117Y1199D01*
X84691Y1437D01*
X85185Y1815D01*
X85563Y2309D01*
X85801Y2883D01*
X85883Y3500D01*
X85801Y4117D01*
X85563Y4691D01*
X85185Y5185D01*
X84691Y5563D01*
X84117Y5801D01*
X83500Y5883D01*
D02*
G37*
G36*
X148875Y30169D02*
X147796Y30027D01*
X146790Y29611D01*
X145927Y28948D01*
X145264Y28085D01*
X144848Y27079D01*
X144705Y26000D01*
X144848Y24921D01*
X145264Y23915D01*
X145927Y23052D01*
X146790Y22389D01*
X147796Y21973D01*
X148875Y21831D01*
X149954Y21973D01*
X150960Y22389D01*
X151823Y23052D01*
X152486Y23915D01*
X152902Y24921D01*
X153044Y26000D01*
X152902Y27079D01*
X152486Y28085D01*
X151823Y28948D01*
X150960Y29611D01*
X149954Y30027D01*
X148875Y30169D01*
D02*
G37*
G36*
X136750D02*
X135671Y30027D01*
X134665Y29611D01*
X133802Y28948D01*
X133139Y28085D01*
X132723Y27079D01*
X132580Y26000D01*
X132723Y24921D01*
X133139Y23915D01*
X133802Y23052D01*
X134665Y22389D01*
X135671Y21973D01*
X136750Y21831D01*
X137829Y21973D01*
X138835Y22389D01*
X139698Y23052D01*
X140361Y23915D01*
X140777Y24921D01*
X140919Y26000D01*
X140777Y27079D01*
X140361Y28085D01*
X139698Y28948D01*
X138835Y29611D01*
X137829Y30027D01*
X136750Y30169D01*
D02*
G37*
G36*
X124625D02*
X123546Y30027D01*
X122540Y29611D01*
X121677Y28948D01*
X121014Y28085D01*
X120598Y27079D01*
X120456Y26000D01*
X120598Y24921D01*
X121014Y23915D01*
X121677Y23052D01*
X122540Y22389D01*
X123546Y21973D01*
X124625Y21831D01*
X125704Y21973D01*
X126710Y22389D01*
X127573Y23052D01*
X128236Y23915D01*
X128652Y24921D01*
X128795Y26000D01*
X128652Y27079D01*
X128236Y28085D01*
X127573Y28948D01*
X126710Y29611D01*
X125704Y30027D01*
X124625Y30169D01*
D02*
G37*
G36*
X55500Y307939D02*
X54304Y307821D01*
X53153Y307472D01*
X52093Y306906D01*
X51164Y306143D01*
X50402Y305214D01*
X49835Y304154D01*
X49486Y303003D01*
X49368Y301807D01*
X49486Y300611D01*
X49835Y299461D01*
X50402Y298400D01*
X51164Y297471D01*
X52093Y296709D01*
X53153Y296142D01*
X54304Y295793D01*
X55500Y295675D01*
X56696Y295793D01*
X57847Y296142D01*
X58907Y296709D01*
X59836Y297471D01*
X60598Y298400D01*
X61165Y299461D01*
X61514Y300611D01*
X61632Y301807D01*
X61514Y303003D01*
X61165Y304154D01*
X60598Y305214D01*
X59836Y306143D01*
X58907Y306906D01*
X57847Y307472D01*
X56696Y307821D01*
X55500Y307939D01*
D02*
G37*
G36*
X162000Y291132D02*
X161383Y291051D01*
X160809Y290813D01*
X160315Y290434D01*
X159978Y289995D01*
X159889Y290063D01*
X159314Y290301D01*
X158697Y290383D01*
X158081Y290301D01*
X157506Y290063D01*
X157012Y289685D01*
X156634Y289191D01*
X156619Y289156D01*
X156078D01*
X156063Y289191D01*
X155685Y289685D01*
X155191Y290063D01*
X154617Y290301D01*
X154000Y290383D01*
X153383Y290301D01*
X152809Y290063D01*
X152315Y289685D01*
X151937Y289191D01*
X151699Y288617D01*
X151617Y288000D01*
X151699Y287383D01*
X151937Y286809D01*
X152315Y286315D01*
X152809Y285937D01*
X153383Y285699D01*
X154000Y285617D01*
X154617Y285699D01*
X155191Y285937D01*
X155685Y286315D01*
X156063Y286809D01*
X156078Y286844D01*
X156619D01*
X156634Y286809D01*
X157012Y286315D01*
X157506Y285937D01*
X158081Y285699D01*
X158697Y285617D01*
X159314Y285699D01*
X159889Y285937D01*
X160382Y286315D01*
X160719Y286755D01*
X160809Y286686D01*
X161383Y286448D01*
X162000Y286367D01*
X162617Y286448D01*
X163069Y286636D01*
X163315Y286315D01*
X163809Y285937D01*
X164383Y285699D01*
X165000Y285617D01*
X165617Y285699D01*
X166191Y285937D01*
X166685Y286315D01*
X166789Y286452D01*
X166809Y286437D01*
X167383Y286199D01*
X168000Y286117D01*
X168617Y286199D01*
X169191Y286437D01*
X169685Y286815D01*
X170063Y287309D01*
X170301Y287883D01*
X170383Y288500D01*
X170301Y289117D01*
X170063Y289691D01*
X169685Y290185D01*
X169191Y290563D01*
X168617Y290801D01*
X168000Y290883D01*
X167383Y290801D01*
X166809Y290563D01*
X166315Y290185D01*
X166211Y290049D01*
X166191Y290063D01*
X165617Y290301D01*
X165000Y290383D01*
X164383Y290301D01*
X163931Y290114D01*
X163685Y290434D01*
X163191Y290813D01*
X162617Y291051D01*
X162000Y291132D01*
D02*
G37*
G36*
X63500Y238883D02*
X62883Y238801D01*
X62309Y238563D01*
X61815Y238185D01*
X61437Y237691D01*
X61199Y237117D01*
X61117Y236500D01*
X61199Y235883D01*
X61437Y235309D01*
X61574Y235130D01*
X61780Y234750D01*
X61574Y234370D01*
X61437Y234191D01*
X61199Y233617D01*
X61117Y233000D01*
X61199Y232383D01*
X61437Y231809D01*
X61452Y231789D01*
X61315Y231685D01*
X60937Y231191D01*
X60699Y230617D01*
X60679Y230469D01*
X60500Y230493D01*
X59883Y230412D01*
X59309Y230174D01*
X58815Y229795D01*
X58437Y229302D01*
X58199Y228727D01*
X58117Y228110D01*
X58199Y227494D01*
X58437Y226919D01*
X58815Y226426D01*
X59309Y226047D01*
X59883Y225809D01*
X60500Y225728D01*
X61117Y225809D01*
X61691Y226047D01*
X62185Y226426D01*
X62563Y226919D01*
X62801Y227494D01*
X62821Y227641D01*
X63000Y227617D01*
X63617Y227699D01*
X64191Y227937D01*
X64685Y228315D01*
X65063Y228809D01*
X65301Y229383D01*
X65383Y230000D01*
X65301Y230617D01*
X65063Y231191D01*
X65048Y231211D01*
X65185Y231315D01*
X65563Y231809D01*
X65801Y232383D01*
X65883Y233000D01*
X65801Y233617D01*
X65563Y234191D01*
X65426Y234370D01*
X65220Y234750D01*
X65426Y235130D01*
X65563Y235309D01*
X65801Y235883D01*
X65883Y236500D01*
X65801Y237117D01*
X65563Y237691D01*
X65185Y238185D01*
X64691Y238563D01*
X64117Y238801D01*
X63500Y238883D01*
D02*
G37*
G36*
X44000Y257110D02*
X34945D01*
X34484Y257018D01*
X34093Y256757D01*
X33832Y256366D01*
X33741Y255905D01*
Y250000D01*
X33832Y249539D01*
X34093Y249148D01*
X34484Y248887D01*
X34945Y248796D01*
X44000D01*
X44461Y248887D01*
X44851Y249148D01*
X45113Y249539D01*
X45204Y250000D01*
Y255905D01*
X45113Y256366D01*
X44851Y256757D01*
X44461Y257018D01*
X44000Y257110D01*
D02*
G37*
G36*
X217500Y220383D02*
X216883Y220301D01*
X216309Y220063D01*
X215815Y219685D01*
X215437Y219191D01*
X215199Y218617D01*
X215117Y218000D01*
X215199Y217383D01*
X215437Y216809D01*
X215815Y216315D01*
X216309Y215937D01*
X216883Y215699D01*
X217500Y215617D01*
X218117Y215699D01*
X218691Y215937D01*
X219185Y216315D01*
X219563Y216809D01*
X219801Y217383D01*
X219883Y218000D01*
X219801Y218617D01*
X219563Y219191D01*
X219185Y219685D01*
X218691Y220063D01*
X218117Y220301D01*
X217500Y220383D01*
D02*
G37*
G36*
X228900Y198804D02*
X217089D01*
X216628Y198713D01*
X216237Y198451D01*
X215976Y198061D01*
X215885Y197600D01*
Y189332D01*
X215976Y188871D01*
X216237Y188481D01*
X216628Y188220D01*
X217089Y188128D01*
X228900D01*
X229361Y188220D01*
X229751Y188481D01*
X230013Y188871D01*
X230104Y189332D01*
Y197600D01*
X230013Y198061D01*
X229751Y198451D01*
X229361Y198713D01*
X228900Y198804D01*
D02*
G37*
G36*
X78911Y219272D02*
X67100D01*
X66639Y219180D01*
X66249Y218919D01*
X65987Y218529D01*
X65896Y218068D01*
Y209800D01*
X65987Y209339D01*
X66249Y208948D01*
X66639Y208687D01*
X67100Y208596D01*
X78911D01*
X79372Y208687D01*
X79763Y208948D01*
X80024Y209339D01*
X80115Y209800D01*
Y218068D01*
X80024Y218529D01*
X79763Y218919D01*
X79372Y219180D01*
X78911Y219272D01*
D02*
G37*
%LPD*%
D10*
X177500Y146500D02*
D03*
X184193D02*
D03*
X192000D02*
D03*
X198693D02*
D03*
X206000Y137500D02*
D03*
X199307D02*
D03*
X205000Y125500D02*
D03*
X198307D02*
D03*
X151193Y215500D02*
D03*
X144500D02*
D03*
X45000Y186000D02*
D03*
X38307D02*
D03*
X179500Y99500D02*
D03*
X172807D02*
D03*
X179500Y105500D02*
D03*
X172807D02*
D03*
X91500Y150500D02*
D03*
X98193D02*
D03*
X66500Y102000D02*
D03*
X59807D02*
D03*
X75500Y51500D02*
D03*
X68807D02*
D03*
X88500D02*
D03*
X95193D02*
D03*
X205000Y131500D02*
D03*
X198307D02*
D03*
X136500Y60500D02*
D03*
X143193D02*
D03*
X114500Y187000D02*
D03*
X107807D02*
D03*
X179000Y93500D02*
D03*
X172307D02*
D03*
X202000Y118500D02*
D03*
X195307D02*
D03*
X36000Y85000D02*
D03*
X42693D02*
D03*
X36000Y92500D02*
D03*
X42693D02*
D03*
X133500Y71000D02*
D03*
X140193D02*
D03*
X63500Y61000D02*
D03*
X70193D02*
D03*
X125000Y183000D02*
D03*
X131693D02*
D03*
D11*
X50500Y144000D02*
D03*
X57980D02*
D03*
X70500Y68000D02*
D03*
X63020D02*
D03*
X57500Y83500D02*
D03*
X50020D02*
D03*
X57500Y91500D02*
D03*
X50020D02*
D03*
D12*
X64000Y126618D02*
D03*
Y109689D02*
D03*
D13*
X181626Y130374D02*
D03*
D14*
X189500Y135295D02*
D03*
Y133327D02*
D03*
Y131358D02*
D03*
Y129390D02*
D03*
Y127421D02*
D03*
Y125453D02*
D03*
X173752Y125453D02*
D03*
Y127421D02*
D03*
Y129390D02*
D03*
Y131358D02*
D03*
Y133327D02*
D03*
Y135295D02*
D03*
D15*
X176705Y138248D02*
D03*
X178673D02*
D03*
X180642D02*
D03*
X182610D02*
D03*
X184579D02*
D03*
X186547D02*
D03*
X186547Y122500D02*
D03*
X184579D02*
D03*
X182610D02*
D03*
X180642D02*
D03*
X178673D02*
D03*
X176705D02*
D03*
D16*
X215055Y43909D02*
D03*
D17*
X224110Y19500D02*
D03*
X206000D02*
D03*
X215055D02*
D03*
D18*
X87378Y138921D02*
D03*
X89346D02*
D03*
X91315D02*
D03*
X93283D02*
D03*
X95252D02*
D03*
X97220D02*
D03*
X99189D02*
D03*
X101157D02*
D03*
X103126D02*
D03*
X105095D02*
D03*
X107063D02*
D03*
X109031D02*
D03*
X111000D02*
D03*
X112969D02*
D03*
X114937D02*
D03*
X116905D02*
D03*
X118874D02*
D03*
X120843D02*
D03*
X122811D02*
D03*
X124779D02*
D03*
X126748D02*
D03*
X128717D02*
D03*
X130685D02*
D03*
X132653D02*
D03*
X134622D02*
D03*
Y79079D02*
D03*
X132653D02*
D03*
X130685D02*
D03*
X128717D02*
D03*
X126748D02*
D03*
X124779D02*
D03*
X122811D02*
D03*
X120843D02*
D03*
X118874D02*
D03*
X116905D02*
D03*
X114937D02*
D03*
X112969D02*
D03*
X111000D02*
D03*
X109031D02*
D03*
X107063D02*
D03*
X105095D02*
D03*
X103126D02*
D03*
X101157D02*
D03*
X99189D02*
D03*
X97220D02*
D03*
X95252D02*
D03*
X93283D02*
D03*
X91315D02*
D03*
X89346D02*
D03*
X87378D02*
D03*
D19*
X140921Y132622D02*
D03*
Y130654D02*
D03*
Y128685D02*
D03*
Y126716D02*
D03*
Y124748D02*
D03*
Y122780D02*
D03*
Y120811D02*
D03*
Y118842D02*
D03*
Y116874D02*
D03*
Y114906D02*
D03*
Y112937D02*
D03*
Y110968D02*
D03*
Y109000D02*
D03*
Y107032D02*
D03*
Y105063D02*
D03*
Y103094D02*
D03*
Y101126D02*
D03*
Y99158D02*
D03*
Y97189D02*
D03*
Y95221D02*
D03*
Y93252D02*
D03*
Y91284D02*
D03*
Y89315D02*
D03*
Y87347D02*
D03*
Y85378D02*
D03*
X81079D02*
D03*
Y87347D02*
D03*
Y89315D02*
D03*
Y91284D02*
D03*
Y93252D02*
D03*
Y95221D02*
D03*
Y97189D02*
D03*
Y99158D02*
D03*
Y101126D02*
D03*
Y103094D02*
D03*
Y105063D02*
D03*
Y107032D02*
D03*
Y109000D02*
D03*
Y110968D02*
D03*
Y112937D02*
D03*
Y114906D02*
D03*
Y116874D02*
D03*
Y118842D02*
D03*
Y120811D02*
D03*
Y122780D02*
D03*
Y124748D02*
D03*
Y126716D02*
D03*
Y128685D02*
D03*
Y130654D02*
D03*
Y132622D02*
D03*
D20*
X177000Y152500D02*
D03*
X184480D02*
D03*
X180740Y162343D02*
D03*
X191500Y152500D02*
D03*
X198980D02*
D03*
X195240Y162343D02*
D03*
D21*
X190701Y59000D02*
D03*
Y76717D02*
D03*
X222000D02*
D03*
Y59000D02*
D03*
D22*
X126411Y202807D02*
D03*
Y209500D02*
D03*
X138500Y202807D02*
D03*
Y209500D02*
D03*
X108278Y202807D02*
D03*
Y209500D02*
D03*
X114322Y202807D02*
D03*
Y209500D02*
D03*
X144544Y202807D02*
D03*
Y209500D02*
D03*
X163000Y35000D02*
D03*
Y41693D02*
D03*
X102234Y209500D02*
D03*
Y202807D02*
D03*
X156633Y209500D02*
D03*
Y202807D02*
D03*
X168722Y209500D02*
D03*
Y202807D02*
D03*
X149500Y80000D02*
D03*
Y86693D02*
D03*
X161000Y120000D02*
D03*
Y113307D02*
D03*
X180000Y80000D02*
D03*
Y86693D02*
D03*
X167500Y120000D02*
D03*
Y113307D02*
D03*
X38000Y200000D02*
D03*
Y193307D02*
D03*
X25000Y42000D02*
D03*
Y48693D02*
D03*
Y35000D02*
D03*
Y28307D02*
D03*
X67000Y150500D02*
D03*
Y143807D02*
D03*
X74000Y150500D02*
D03*
Y143807D02*
D03*
X32000Y193500D02*
D03*
Y200193D02*
D03*
X174000Y86693D02*
D03*
Y80000D02*
D03*
X156000Y86693D02*
D03*
Y80000D02*
D03*
X24500Y62500D02*
D03*
Y55807D02*
D03*
Y68638D02*
D03*
Y75331D02*
D03*
Y144500D02*
D03*
Y137807D02*
D03*
Y185000D02*
D03*
Y178307D02*
D03*
Y191138D02*
D03*
Y197831D02*
D03*
Y225000D02*
D03*
Y218307D02*
D03*
Y231500D02*
D03*
Y238193D02*
D03*
X105500Y59500D02*
D03*
Y66193D02*
D03*
X99500Y59500D02*
D03*
Y66193D02*
D03*
X87500Y66000D02*
D03*
Y59307D02*
D03*
X107000Y170000D02*
D03*
Y163307D02*
D03*
X160500Y137500D02*
D03*
Y130807D02*
D03*
X138500Y147500D02*
D03*
Y140807D02*
D03*
X96189Y202614D02*
D03*
Y209307D02*
D03*
X120367Y202807D02*
D03*
Y209500D02*
D03*
X132456Y202807D02*
D03*
Y209500D02*
D03*
X150589D02*
D03*
Y202807D02*
D03*
X162678Y209500D02*
D03*
Y202807D02*
D03*
X174766D02*
D03*
Y209500D02*
D03*
X45000Y200000D02*
D03*
Y193307D02*
D03*
X162000Y80000D02*
D03*
Y86693D02*
D03*
X168000Y80000D02*
D03*
Y86693D02*
D03*
X50000Y152000D02*
D03*
Y158693D02*
D03*
X58000Y152000D02*
D03*
Y158693D02*
D03*
X112500Y63000D02*
D03*
Y69693D02*
D03*
X124000Y61500D02*
D03*
Y68193D02*
D03*
X93500Y66000D02*
D03*
Y59307D02*
D03*
X168500Y155500D02*
D03*
Y162193D02*
D03*
X154500Y130807D02*
D03*
Y137500D02*
D03*
X53500Y121500D02*
D03*
Y128193D02*
D03*
X24500Y150638D02*
D03*
Y157331D02*
D03*
X25000Y131000D02*
D03*
Y124307D02*
D03*
X81500Y66000D02*
D03*
Y59307D02*
D03*
X24500Y109638D02*
D03*
Y116331D02*
D03*
X53500Y114807D02*
D03*
Y108114D02*
D03*
X24500Y103000D02*
D03*
Y96307D02*
D03*
D23*
X65500Y157500D02*
D03*
Y164980D02*
D03*
X73500Y157500D02*
D03*
Y164980D02*
D03*
D24*
X224110Y7000D02*
D03*
X206000D02*
D03*
D25*
X174900Y171800D02*
D03*
Y187800D02*
D03*
X179900Y171800D02*
D03*
Y187800D02*
D03*
X184900Y171800D02*
D03*
Y187800D02*
D03*
X189900Y171800D02*
D03*
Y188000D02*
D03*
X194900Y171800D02*
D03*
Y187800D02*
D03*
D26*
X18000Y243843D02*
D03*
Y238921D02*
D03*
Y234000D02*
D03*
Y203343D02*
D03*
Y198421D02*
D03*
Y193500D02*
D03*
Y162843D02*
D03*
Y157921D02*
D03*
Y153000D02*
D03*
Y121843D02*
D03*
Y116921D02*
D03*
Y112000D02*
D03*
Y80843D02*
D03*
Y75921D02*
D03*
Y71000D02*
D03*
Y39843D02*
D03*
Y34921D02*
D03*
Y30000D02*
D03*
X212500Y173658D02*
D03*
Y178579D02*
D03*
Y183500D02*
D03*
X83500Y193921D02*
D03*
Y189000D02*
D03*
Y198821D02*
D03*
Y203743D02*
D03*
X214500Y106079D02*
D03*
Y111000D02*
D03*
Y101179D02*
D03*
Y96258D02*
D03*
X46500Y19921D02*
D03*
Y15000D02*
D03*
Y24821D02*
D03*
Y29743D02*
D03*
X171400Y30379D02*
D03*
Y25458D02*
D03*
Y15615D02*
D03*
Y20515D02*
D03*
Y40200D02*
D03*
Y35279D02*
D03*
D27*
X81079Y44500D02*
D03*
X86000D02*
D03*
X76179D02*
D03*
X71258D02*
D03*
X126579Y52500D02*
D03*
X131500D02*
D03*
X121679D02*
D03*
X116758D02*
D03*
D28*
X44500Y215500D02*
D03*
Y221406D02*
D03*
Y227311D02*
D03*
Y233217D02*
D03*
Y239122D02*
D03*
Y245028D02*
D03*
D29*
X93500Y17695D02*
D03*
X87594D02*
D03*
X81689D02*
D03*
X75783D02*
D03*
X69878D02*
D03*
X63973D02*
D03*
D30*
X105000Y277000D02*
D03*
X100000D02*
D03*
X95000D02*
D03*
X85000D02*
D03*
X80000D02*
D03*
X75000D02*
D03*
X151500D02*
D03*
X146500D02*
D03*
X141500D02*
D03*
X131500D02*
D03*
X126500D02*
D03*
X121500D02*
D03*
X200000D02*
D03*
X195000D02*
D03*
X190000D02*
D03*
X180000D02*
D03*
X175000D02*
D03*
X170000D02*
D03*
D31*
X90000Y245839D02*
D03*
X136500D02*
D03*
X185000D02*
D03*
D32*
X52278Y101000D02*
X56218Y97060D01*
X26500Y101000D02*
X52278D01*
X24500Y103000D02*
X26500Y101000D01*
X45000Y182500D02*
Y186000D01*
X223628Y53334D02*
X226242Y55948D01*
X223628Y46518D02*
Y53334D01*
Y46518D02*
X224110Y46036D01*
Y29752D02*
Y46036D01*
X226242Y55948D02*
Y67242D01*
X148000Y126904D02*
Y127000D01*
X71000Y75696D02*
X74651Y72045D01*
Y64595D02*
Y72045D01*
X71000Y75696D02*
Y89000D01*
X53500Y114807D02*
X54193Y115500D01*
X69000D01*
X64000Y126618D02*
X71372Y119246D01*
Y115520D02*
Y119246D01*
Y115520D02*
X75892Y111000D01*
X189466Y77879D02*
X190701Y76644D01*
X175662Y81162D02*
X177250D01*
X174500Y80000D02*
X175662Y81162D01*
X189466Y77879D02*
Y78104D01*
X147144Y76644D02*
X190701D01*
X157393Y80000D02*
X158250Y80857D01*
X156000Y80000D02*
X157393D01*
X145682Y75182D02*
X147144Y76644D01*
X140628Y76382D02*
X143549Y73462D01*
X140628Y76382D02*
Y85085D01*
X145682Y74682D02*
Y75182D01*
X145580Y72128D02*
X146872Y70836D01*
X144882Y72128D02*
X145580D01*
X29000Y131000D02*
X29500Y130500D01*
X25000Y131000D02*
X29000D01*
X184100Y187000D02*
X184900Y187800D01*
X172832Y181885D02*
X181968D01*
X167717Y187000D02*
X172832Y181885D01*
X114500Y187000D02*
X167717D01*
X161372Y148628D02*
X166000Y144000D01*
X151372Y148628D02*
X161372D01*
X151372D02*
Y148982D01*
X149982Y150372D02*
X151372Y148982D01*
X148018Y150372D02*
X149982D01*
X144621Y146975D02*
X148018Y150372D01*
X139025Y146975D02*
X144621D01*
X138500Y147500D02*
X139025Y146975D01*
X136011Y154000D02*
X164182D01*
X135351Y153341D02*
X136011Y154000D01*
X164182D02*
X166038Y152144D01*
X137219Y152219D02*
X163445D01*
X136560Y151560D02*
X137219Y152219D01*
X121079Y151560D02*
X136560D01*
X114000Y61500D02*
X124000D01*
X112500Y63000D02*
X114000Y61500D01*
X115000Y87000D02*
X116000D01*
X114937Y86937D02*
X115000Y87000D01*
X111000Y79079D02*
Y87000D01*
X46968Y95643D02*
X53072D01*
X53769Y94946D01*
Y91500D02*
Y94946D01*
X56402Y97022D02*
X72022D01*
X56402D02*
X56440Y97060D01*
X56218D02*
X56440D01*
X56956Y98841D02*
X71195D01*
X50341Y105456D02*
X56956Y98841D01*
X131196Y99158D02*
X140921D01*
X128717Y79079D02*
Y85783D01*
X128500Y86000D02*
X128717Y85783D01*
X129000Y99000D02*
X129354D01*
X130354Y100000D02*
X131196Y99158D01*
X127500Y86000D02*
X128500D01*
X122811Y79079D02*
Y86189D01*
X122000Y87000D02*
X122811Y86189D01*
X118874Y86874D02*
X119000Y87000D01*
X162716Y30143D02*
X165143Y27716D01*
X162039Y30143D02*
X162716D01*
X146824Y45358D02*
X162039Y30143D01*
X165143Y24284D02*
Y27716D01*
X164628Y23769D02*
X165143Y24284D01*
X146824Y45358D02*
Y64970D01*
X164628Y21518D02*
Y23769D01*
Y21518D02*
X166018Y20128D01*
X160500Y35000D02*
X163000D01*
X154000Y41500D02*
X160500Y35000D01*
X154000Y41500D02*
Y42500D01*
X161500Y262500D02*
Y268500D01*
X170000Y277000D01*
X116000Y267500D02*
X121500Y273000D01*
X155500Y277000D02*
X156000Y277500D01*
X151500Y277000D02*
X155500D01*
X121500Y273000D02*
Y277000D01*
X105189Y271311D02*
X111000Y265500D01*
X103031Y271311D02*
X105189D01*
X18896Y34921D02*
X25000Y28818D01*
X50020Y91500D02*
X53500Y88020D01*
X89128Y148128D02*
X91500Y150500D01*
X89128Y145518D02*
Y148128D01*
Y145518D02*
X89346Y145299D01*
Y138921D02*
Y145299D01*
X107000Y145646D02*
X108844Y143802D01*
X107000Y145646D02*
Y146123D01*
X105628Y147495D02*
X107000Y146123D01*
X105628Y149460D02*
X107000Y150831D01*
Y163307D01*
X114937Y138921D02*
Y147937D01*
X116905Y138921D02*
Y147387D01*
X121079Y151560D01*
X8128Y40482D02*
X12322Y44676D01*
X26962Y59144D02*
X31872Y64054D01*
X24500Y59144D02*
X26962D01*
X14146Y30000D02*
X18000D01*
X146872Y65018D02*
Y70836D01*
X146824Y64970D02*
X146872Y65018D01*
X26991Y154004D02*
X27659Y153335D01*
Y147341D02*
Y153335D01*
Y147341D02*
X53500Y121500D01*
X78000Y59500D02*
X81307D01*
X81500Y59307D01*
X73549Y58538D02*
Y63493D01*
X72851Y57841D02*
X73549Y58538D01*
X70179Y57841D02*
X72851D01*
X190701Y76717D02*
X222000D01*
X176500Y161000D02*
X177000D01*
X174900Y162600D02*
X176500Y161000D01*
X174900Y162600D02*
Y171800D01*
X168228Y137500D02*
X175957D01*
X160500D02*
X168228D01*
X166000Y144000D02*
X167128Y142872D01*
X167482D01*
X168872Y141482D01*
Y138143D02*
Y141482D01*
X168228Y137500D02*
X168872Y138143D01*
X198980Y152500D02*
Y154320D01*
X216250Y171590D01*
Y180647D01*
X73500Y164980D02*
X87980Y150500D01*
X91500D01*
X75848Y173676D02*
X79399D01*
X73500Y171327D02*
X75848Y173676D01*
X73500Y164980D02*
Y171327D01*
X24500Y96307D02*
X28307Y92500D01*
X36000D01*
X31872Y80872D02*
X36000Y85000D01*
X24500Y55807D02*
Y59144D01*
X12322Y44676D02*
X13899D01*
X17916Y48693D01*
X174000Y80000D02*
X174500D01*
X129354Y99000D02*
X130354Y100000D01*
X115128Y99872D02*
X120500Y94500D01*
X102628Y93482D02*
X105128Y95982D01*
X106518Y99872D02*
X115128D01*
X105128Y95982D02*
Y98482D01*
X106518Y99872D01*
X29500Y190000D02*
X32000Y192500D01*
Y193500D01*
X129872Y126372D02*
Y134014D01*
X132432Y124743D02*
Y125916D01*
X133000Y120000D02*
Y121000D01*
X130500Y115000D02*
X131354D01*
X135372Y119018D01*
X134804Y122804D02*
Y138739D01*
X133000Y121000D02*
X134804Y122804D01*
X132250Y126597D02*
X132653Y127000D01*
X132250Y126597D02*
X132500Y126347D01*
X132250Y126098D02*
X132500Y126347D01*
X132250Y126098D02*
X132432Y125916D01*
X135372Y119018D02*
Y119872D01*
X134622Y138921D02*
X134804Y138739D01*
X114937Y147937D02*
X120341Y153341D01*
X135351D01*
X108844Y139109D02*
Y143802D01*
X105628Y147495D02*
Y149460D01*
X99189Y148043D02*
Y149504D01*
X98628Y147482D02*
X99189Y148043D01*
X98628Y145518D02*
Y147482D01*
Y145518D02*
X99189Y144957D01*
Y138921D02*
Y144957D01*
X33500Y232500D02*
Y232933D01*
X33784Y233217D01*
X44500D01*
X34500Y227000D02*
X34811Y227311D01*
X44500D01*
X171400Y15615D02*
X176191Y10824D01*
X188299D01*
X192123Y7000D01*
X206000D01*
X36305Y189951D02*
X40462D01*
X30372Y184018D02*
X36305Y189951D01*
X27998Y181644D02*
X30372Y184018D01*
Y184018D01*
X26644Y181644D02*
X27998D01*
X24500Y179500D02*
X26644Y181644D01*
X33719Y204054D02*
Y215851D01*
Y204054D02*
X34416Y203357D01*
X40462Y189951D02*
X41254Y189159D01*
X93901Y59307D02*
X96341Y56867D01*
Y56841D02*
Y56867D01*
Y56841D02*
X97038Y56144D01*
X97064D01*
X98549Y54659D01*
Y49038D02*
Y54659D01*
X97851Y48341D02*
X98549Y49038D01*
X89841Y48341D02*
X97851D01*
X86000Y44500D02*
X89841Y48341D01*
X17916Y48693D02*
X25000D01*
X42750Y25993D02*
Y27587D01*
X33628Y16871D02*
X42750Y25993D01*
X33628Y14018D02*
Y16871D01*
Y14018D02*
X35018Y12628D01*
X18000Y30000D02*
X18258Y29743D01*
X22538Y24951D02*
X27462D01*
X32253Y29743D01*
X46500D01*
X136311Y120811D02*
X140921D01*
X135372Y119872D02*
X136311Y120811D01*
X100500Y159500D02*
X104307Y163307D01*
X102628Y91518D02*
X103100Y91046D01*
Y90643D02*
Y91046D01*
X102628Y91518D02*
Y93482D01*
X102978Y90522D02*
X103100Y90643D01*
X102978Y90522D02*
X102978D01*
X86500Y107000D02*
X102978Y90522D01*
X74854Y107000D02*
X86500D01*
X99500Y88600D02*
Y89500D01*
X95252Y86752D02*
X95500Y87000D01*
X101038Y86582D02*
Y86783D01*
X101254Y87000D01*
X101157Y79079D02*
Y83944D01*
X100690Y84412D02*
X101157Y83944D01*
X100055Y84412D02*
X100690D01*
X98666Y85801D02*
X100055Y84412D01*
X98666Y85801D02*
Y87766D01*
X99500Y88600D01*
X101038Y86582D02*
X103126Y84494D01*
X158500Y41886D02*
Y42500D01*
X57807Y104000D02*
X59807Y102000D01*
X55500Y104000D02*
X57807D01*
X53000Y88000D02*
X53480D01*
X53500Y88020D01*
X213021Y50021D02*
X222000Y59000D01*
X207672Y50021D02*
X213021D01*
X206000Y48349D02*
X207672Y50021D01*
X206000Y19500D02*
Y48349D01*
X166018Y20128D02*
X171013D01*
X171400Y20515D01*
X87500Y59307D02*
X93500D01*
X87000Y95000D02*
X89346Y92654D01*
X86779Y95221D02*
X87000Y95000D01*
X89346Y79079D02*
Y92654D01*
X89159Y138734D02*
X89346Y138921D01*
X89159Y124526D02*
Y138734D01*
X87000Y122367D02*
X89159Y124526D01*
X87000Y115000D02*
Y122367D01*
X81079Y114906D02*
X81173Y115000D01*
X87000D01*
X81079Y95221D02*
X86779D01*
X92500Y8500D02*
X95000Y6000D01*
X112500D01*
X170615Y15615D02*
X171400D01*
X161000Y6000D02*
X170615Y15615D01*
X15500Y247857D02*
Y272000D01*
X14250Y246608D02*
X15500Y247857D01*
X14250Y236853D02*
Y246608D01*
Y236853D02*
X17104Y234000D01*
X18000D01*
X14250Y208057D02*
X24500Y218307D01*
X14250Y196353D02*
Y208057D01*
X24500Y178307D02*
Y179500D01*
X40462Y189951D02*
X41159Y190649D01*
Y196159D01*
X45000Y200000D01*
X47462Y196644D02*
X53565Y202747D01*
X45000Y196644D02*
X47462D01*
X45000Y193307D02*
Y196644D01*
X36133Y218265D02*
X41360D01*
X33719Y215851D02*
X36133Y218265D01*
X194417Y129390D02*
X198307Y125500D01*
X189500Y129390D02*
X194417D01*
X198165Y131358D02*
X198307Y131500D01*
X189500Y131358D02*
X198165D01*
X192295Y135295D02*
X195000Y138000D01*
X189500Y135295D02*
X192295D01*
X194134Y133327D02*
X198307Y137500D01*
X189500Y133327D02*
X194134D01*
X174144Y144038D02*
X174841Y143341D01*
X174144Y144038D02*
Y149356D01*
X172418Y151082D02*
X174144Y149356D01*
X180831Y120474D02*
Y120851D01*
X173286Y113307D02*
X180831Y120851D01*
Y120474D02*
X181470Y119835D01*
X187688D01*
X192019Y124165D01*
X192165D01*
X173565Y127234D02*
X173752Y127421D01*
X168916Y127234D02*
X173565D01*
X140628Y85085D02*
X140921Y85378D01*
X167500Y113307D02*
X173286D01*
X140921Y114906D02*
X153905D01*
X168299Y120000D02*
X173752Y125453D01*
X167500Y120000D02*
X168299D01*
X168722Y209500D02*
X174766D01*
X211604Y183500D02*
X212500D01*
X209275Y181172D02*
X211604Y183500D01*
X189700Y181172D02*
X209275D01*
X189700D02*
Y187800D01*
X194500Y172200D02*
Y178500D01*
X184900Y187800D02*
X189700D01*
X102000Y216000D02*
X102234Y215766D01*
Y209500D02*
Y215766D01*
X59500Y57000D02*
X63500Y61000D01*
X143549Y73462D02*
X144882Y72128D01*
X143549Y73462D02*
Y73462D01*
X190701Y76644D02*
Y76717D01*
Y59000D02*
X222000D01*
X171400Y28223D02*
X175150D01*
Y18447D02*
Y28223D01*
X174452Y17750D02*
X175150Y18447D01*
X171400Y17750D02*
X174452D01*
X171400Y28223D02*
Y30379D01*
X158500Y41886D02*
X158693Y41693D01*
X163000D01*
X171400Y15615D02*
Y17750D01*
X171121Y35000D02*
X171400Y35279D01*
X163000Y35000D02*
X171121D01*
X18000Y62307D02*
X24500Y55807D01*
X18000Y62307D02*
Y71000D01*
X23910Y75921D02*
X24500Y75331D01*
X18000Y75921D02*
X23910D01*
X24500Y55807D02*
X25000Y55307D01*
Y48693D02*
Y55307D01*
Y28307D02*
Y28818D01*
X18000Y34921D02*
X18896D01*
X93500Y9500D02*
Y17695D01*
X92500Y8500D02*
X93500Y9500D01*
X71000Y8500D02*
X92500D01*
X69878Y9622D02*
X71000Y8500D01*
X69878Y9622D02*
Y17695D01*
X43693Y91500D02*
X46270D01*
X42693Y92500D02*
X43693Y91500D01*
X75500Y27567D02*
X75783Y27283D01*
Y17695D02*
Y27283D01*
X81500Y28000D02*
X81689Y27811D01*
Y17695D02*
Y27811D01*
X141109Y126904D02*
X148000D01*
X194500Y172200D02*
X194900Y171800D01*
X149669Y128685D02*
X152378D01*
X148982Y129372D02*
X149669Y128685D01*
X147018Y129372D02*
X148982D01*
X146331Y128685D02*
X147018Y129372D01*
X140921Y128685D02*
X146331D01*
X140921Y126716D02*
X141109Y126904D01*
X189900Y178400D02*
X190000Y178500D01*
X189900Y171800D02*
Y178400D01*
X152378Y128685D02*
X154500Y130807D01*
X163445Y152219D02*
X165301Y150363D01*
X132653Y127000D02*
Y138921D01*
X129872Y134014D02*
X130179Y134321D01*
X130685Y133815D01*
Y138921D01*
X172418Y151082D02*
X172418D01*
X171699Y150363D02*
X172418Y151082D01*
X165301Y150363D02*
X171699D01*
X170962Y152144D02*
X174477Y155659D01*
X179068D01*
X179765Y150927D02*
X184193Y146500D01*
X179765Y150927D02*
Y154962D01*
X179068Y155659D02*
X179765Y154962D01*
X166038Y152144D02*
X170962D01*
X104307Y163307D02*
X107000D01*
X184900Y171800D02*
Y178400D01*
X168500Y165400D02*
X174900Y171800D01*
X168500Y162193D02*
Y165400D01*
X200000Y164124D02*
X208750Y172874D01*
X198686Y164124D02*
X200000D01*
X197308Y165502D02*
X198686Y164124D01*
X193172Y165502D02*
X197308D01*
X190013Y162343D02*
X193172Y165502D01*
X180740Y162343D02*
X190013D01*
X201185D02*
X212500Y173658D01*
X195240Y162343D02*
X201185D01*
X191500Y147000D02*
Y152500D01*
Y147000D02*
X192000Y146500D01*
X177000Y152500D02*
X177500Y152000D01*
Y146500D02*
Y152000D01*
X108844Y139109D02*
X109031Y138921D01*
X167215Y177715D02*
X176968D01*
X107000Y170000D02*
Y171318D01*
X84396Y193921D02*
X107000Y171318D01*
X83500Y193921D02*
X84396D01*
X98193Y150500D02*
X99189Y149504D01*
X70500Y61307D02*
Y68000D01*
X70193Y61000D02*
X70500Y61307D01*
X192165Y124165D02*
Y126593D01*
X191526Y127232D02*
X192165Y126593D01*
X189689Y127232D02*
X191526D01*
X189500Y127421D02*
X189689Y127232D01*
X176705Y138248D02*
X178673D01*
X175957Y137500D02*
X176705Y138248D01*
X154500Y137500D02*
X160500D01*
X163020Y133327D02*
X173752D01*
X160500Y130807D02*
X163020Y133327D01*
X172953Y125453D02*
X173752D01*
X148141Y120000D02*
X161000D01*
Y113307D02*
X167500D01*
X145015Y116874D02*
X148141Y120000D01*
X140921Y116874D02*
X145015D01*
X149500Y80000D02*
X156000D01*
X162000D02*
X168000D01*
X103126Y79079D02*
Y84494D01*
X132653Y71846D02*
X133500Y71000D01*
X132653Y71846D02*
Y79079D01*
X114937D02*
Y86937D01*
X118874Y79079D02*
Y86874D01*
X95252Y79079D02*
Y86752D01*
X24500Y68638D02*
X25138D01*
X24500Y62500D02*
Y68638D01*
X25000Y35000D02*
Y42000D01*
X99189Y69549D02*
Y79079D01*
Y69549D02*
X102144D01*
X105500Y66193D01*
X97220Y68472D02*
Y79079D01*
Y68472D02*
X99500Y66193D01*
X68807Y56469D02*
X70179Y57841D01*
X68807Y51500D02*
Y56469D01*
X71315Y89315D02*
X81079D01*
X71000Y89000D02*
X71315Y89315D01*
X73549Y63493D02*
X74651Y64595D01*
X57500Y83500D02*
X64000Y90000D01*
X53769Y83500D02*
X57500D01*
X53769Y80054D02*
Y83500D01*
X50020D02*
Y91500D01*
X81500Y66000D02*
X87500D01*
X93500D01*
X93283Y66216D02*
Y79079D01*
Y66216D02*
X93500Y66000D01*
X36000Y85000D02*
Y92500D01*
X46270Y91500D02*
Y94946D01*
X46968Y95643D01*
X53769Y91500D02*
X57500D01*
X42693Y85000D02*
X44193Y83500D01*
X46270D01*
Y80054D02*
Y83500D01*
Y80054D02*
X46968Y79357D01*
X64000Y91284D02*
X81079D01*
X64000Y90000D02*
Y91284D01*
X59252Y93252D02*
X81079D01*
X57500Y91500D02*
X59252Y93252D01*
X74532Y99158D02*
X81079D01*
X74345Y99345D02*
X74532Y99158D01*
X72022Y97022D02*
X74345Y99345D01*
X18000Y234000D02*
X19307Y232693D01*
Y223500D02*
Y232693D01*
Y223500D02*
X24500Y218307D01*
X17500Y193000D02*
X18000Y193500D01*
X17500Y183000D02*
Y193000D01*
Y183000D02*
X22193Y178307D01*
X24500D01*
X17500Y152500D02*
X18000Y153000D01*
X17500Y141000D02*
Y152500D01*
Y141000D02*
X20693Y137807D01*
X24500D01*
Y103000D02*
Y109638D01*
X73480Y101126D02*
X81079D01*
X71195Y98841D02*
X73480Y101126D01*
X50341Y105456D02*
Y118659D01*
X24500Y144500D02*
X50341Y118659D01*
X75186Y109187D02*
X80891D01*
X74720Y109653D02*
X75186Y109187D01*
X64465Y109653D02*
X74720D01*
X75892Y111000D02*
X81047D01*
X72018Y107872D02*
X73982D01*
X70309Y106163D02*
X72018Y107872D01*
X70309Y105456D02*
Y106163D01*
X69611Y104758D02*
X70309Y105456D01*
X68758Y104758D02*
X69611D01*
X66500Y102500D02*
X68758Y104758D01*
X71500Y102500D02*
X72128Y103128D01*
X18000Y157921D02*
X18590Y157331D01*
X24500D01*
Y144500D02*
Y150638D01*
X81045Y103128D02*
X81079Y103094D01*
X72128Y103128D02*
X81045D01*
X73000Y105000D02*
X81016D01*
X73000D02*
Y105500D01*
X73982Y107872D02*
X74854Y107000D01*
X81016Y105000D02*
X81079Y105063D01*
X62927Y108114D02*
X64465Y109653D01*
X24500Y225000D02*
X29500D01*
X66500Y102000D02*
Y102500D01*
X80891Y117061D02*
X81079Y116874D01*
X75204Y117061D02*
X80891D01*
X73973Y118292D02*
X75204Y117061D01*
X73973Y118292D02*
Y120527D01*
X70309Y124191D02*
X73973Y120527D01*
X70309Y124191D02*
Y130851D01*
X69611Y131549D02*
X70309Y130851D01*
X62951Y131549D02*
X69611D01*
X50500Y144000D02*
X62951Y131549D01*
X58000Y144020D02*
Y152000D01*
X57980Y144000D02*
X58000Y144020D01*
X74170Y131228D02*
X75754Y129644D01*
X74170Y131228D02*
Y133330D01*
X75754Y119030D02*
X81079D01*
Y118842D02*
Y119030D01*
X75754Y124935D02*
X81079D01*
Y124748D02*
Y124935D01*
X75754D02*
Y129644D01*
X69000Y138500D02*
X74170Y133330D01*
X44500Y200500D02*
X45000Y200000D01*
X44500Y200500D02*
Y203399D01*
Y239122D02*
X45000Y238622D01*
X37807Y200193D02*
X38000Y200000D01*
X32000Y200193D02*
X37807D01*
X34416Y203357D02*
X38000D01*
X41360Y218265D02*
X44500Y221406D01*
X38000Y200000D02*
Y203357D01*
X59213Y158693D02*
X65500Y164980D01*
X58000Y158693D02*
X59213D01*
X50000D02*
X58000D01*
X65500Y164980D02*
X73500D01*
X224110Y7000D02*
Y19500D01*
X206000Y7000D02*
Y19500D01*
X24500Y225000D02*
Y231500D01*
X18728Y238193D02*
X24500D01*
X53500Y114807D02*
Y121500D01*
Y108114D02*
X62927D01*
X53500Y128193D02*
X62425D01*
X81047Y111000D02*
X81079Y110968D01*
X80891Y109187D02*
X81079Y109000D01*
X148875Y6000D02*
X161000D01*
X136750D02*
X148875D01*
X124625D02*
X136750D01*
X112500D02*
X124625D01*
X102041Y202614D02*
X102234Y202807D01*
X96189Y202614D02*
X102041D01*
X20193Y96307D02*
X24500D01*
X18000Y98500D02*
X20193Y96307D01*
X18000Y98500D02*
Y112000D01*
X18590Y116331D02*
X24500D01*
X18000Y116921D02*
X18590Y116331D01*
X179900Y171800D02*
Y178600D01*
X57980Y139039D02*
Y144000D01*
Y139039D02*
X63689Y133330D01*
X70349D01*
X72389Y124630D02*
X75754Y121265D01*
Y119030D02*
Y121265D01*
X70349Y133330D02*
X72389Y131290D01*
Y124630D02*
Y131290D01*
X8128Y36018D02*
X14146Y30000D01*
X8128Y36018D02*
Y40482D01*
X31872Y64054D02*
Y80872D01*
X25138Y68638D02*
X29500Y73000D01*
X49500Y180980D02*
X65500Y164980D01*
X49500Y180980D02*
Y189159D01*
X41254D02*
X49500D01*
X83341D01*
X171400Y30379D02*
X173535Y32513D01*
X116128Y214518D02*
Y216482D01*
X118000Y218354D01*
Y218500D01*
X114322Y209500D02*
X116882Y212059D01*
Y213764D01*
X116128Y214518D02*
X116882Y213764D01*
X120367Y212867D02*
X120500Y213000D01*
X120367Y209500D02*
Y212867D01*
X132937Y105063D02*
X140921D01*
X202000Y118500D02*
Y121135D01*
X203247Y122382D01*
Y123747D01*
X205000Y125500D01*
X209500Y96258D02*
X214500D01*
X204621Y91379D02*
X209500Y96258D01*
X199935Y86693D02*
X204621Y91379D01*
X206000Y90000D01*
X180263Y86956D02*
X192237D01*
X192500Y86693D02*
X199935D01*
X192237Y86956D02*
X192500Y86693D01*
Y83000D02*
Y86693D01*
X180000D02*
X180263Y86956D01*
X226242Y67242D02*
X228000Y69000D01*
X222484Y26162D02*
X224110Y24536D01*
X222484Y28126D02*
X224110Y29752D01*
X222484Y26162D02*
Y28126D01*
X224110Y19500D02*
Y24536D01*
X149193Y86693D02*
X149500D01*
X143500Y81000D02*
X149193Y86693D01*
X143000Y81000D02*
X143500D01*
X138440Y69247D02*
X140193Y71000D01*
X138440Y67882D02*
Y69247D01*
X135450Y66257D02*
X136815D01*
X138440Y67882D01*
X131500Y62307D02*
X135450Y66257D01*
X131500Y60500D02*
X136500D01*
X131500Y61500D02*
Y62307D01*
Y60500D02*
Y61500D01*
X124000D02*
X131500D01*
X105500Y59500D02*
X119579D01*
X112500Y26000D02*
X131500Y45000D01*
Y52500D01*
Y55500D01*
X136500Y60500D01*
X119579Y59500D02*
X122829Y56250D01*
X123747D01*
X126579Y53418D01*
Y52500D02*
Y53418D01*
X113758Y49500D02*
X116758Y52500D01*
X101390Y49500D02*
X113758D01*
X103038Y56144D02*
X107962D01*
X108659Y56841D01*
Y57500D01*
X118856D01*
X45000Y186000D02*
Y187000D01*
Y193307D02*
X45807Y192500D01*
X46307Y193000D01*
X52000D01*
X59500Y44820D02*
Y57000D01*
X208500Y90000D02*
Y90258D01*
X206000Y90000D02*
X208500D01*
X55031Y26636D02*
X63973Y17695D01*
X55031Y26636D02*
Y40351D01*
X59500Y44820D01*
X33000Y45755D02*
Y46000D01*
X79399Y173676D02*
X80500Y174777D01*
Y186318D01*
X83341Y189159D01*
X35018Y12628D02*
X41372D01*
X47087Y6913D01*
X173535Y32513D02*
X176513D01*
X190701Y46701D01*
Y59000D01*
X93500Y17695D02*
X94806Y19000D01*
X105500D01*
X112500Y26000D01*
X47087Y6913D02*
X61163D01*
X62749Y8500D01*
X71000D01*
X44500Y203399D02*
X46500Y205399D01*
Y213500D01*
X44500Y215500D02*
X46500Y213500D01*
X46968Y79357D02*
X53072D01*
X53769Y80054D01*
X32874Y45628D02*
X33000Y45755D01*
X25000Y42000D02*
X26753Y43753D01*
X29994Y45628D02*
X32874D01*
X26753Y43753D02*
X28118D01*
X188445Y69055D02*
Y72055D01*
X184972D02*
X188445D01*
X184972D02*
X185000Y72028D01*
Y69000D02*
Y69055D01*
Y72028D01*
X181555Y69055D02*
X185000D01*
X188445D01*
X181500Y69000D02*
Y72055D01*
X184972D01*
X181968Y181885D02*
X185500Y185417D01*
Y187000D01*
X184100D02*
X185500D01*
X208750Y172874D02*
Y178500D01*
X210624D01*
X211500Y177624D01*
Y177579D02*
Y177624D01*
Y177579D02*
X212500Y178579D01*
Y183500D02*
X213396D01*
X216250Y180647D01*
X83500Y198821D02*
X84418D01*
X87250Y195989D01*
Y195750D02*
Y195989D01*
Y195750D02*
X99500Y183500D01*
X124500D01*
X125000Y183000D01*
X131693D02*
X161930D01*
X167215Y177715D01*
X45000Y238622D02*
X51878D01*
X53565Y236935D01*
Y202747D02*
Y236935D01*
X18000Y243843D02*
X19185Y245028D01*
X44500D01*
X99000Y275342D02*
X103031Y271311D01*
X99000Y275342D02*
Y276000D01*
X100000Y277000D01*
X14250Y196353D02*
X17104Y193500D01*
X18000D01*
X42750Y27587D02*
X44906Y29743D01*
X46500D01*
X19652Y27838D02*
X22538Y24951D01*
X18258Y29743D02*
X19652D01*
Y27838D02*
Y29743D01*
X100500Y58682D02*
X103038Y56144D01*
X100500Y58682D02*
Y59500D01*
X99500D02*
X100500D01*
X121000Y53179D02*
X121679Y52500D01*
X121000Y53179D02*
Y55356D01*
X118856Y57500D02*
X121000Y55356D01*
X161000Y120000D02*
X162000D01*
Y120318D01*
X168916Y127234D01*
X174841Y143341D02*
X194659D01*
X197818Y146500D01*
X198693D01*
X179000Y172700D02*
X179900Y171800D01*
X179000Y172700D02*
Y175683D01*
X176968Y177715D02*
X179000Y175683D01*
X163000Y41693D02*
X163693Y41000D01*
X170600D01*
X171400Y40200D01*
D33*
X225500Y228000D02*
X226495D01*
X202339Y228500D02*
X226994D01*
X185000Y245839D02*
X202339Y228500D01*
X85000Y283500D02*
X85750Y282750D01*
X95000Y277000D02*
X97018D01*
X142509Y278009D02*
X143518Y277000D01*
X131500D02*
X141500D01*
X190000D02*
X192018D01*
X180000D02*
X190000D01*
X175000D02*
X180000D01*
X170000D02*
X175000D01*
X138500Y282018D02*
Y285000D01*
X126500Y277000D02*
X131500D01*
X121500D02*
X126500D01*
X85000D02*
X91500D01*
X80000D02*
X85000D01*
X76955D02*
X80000D01*
X75978Y277978D02*
X76955Y277000D01*
D34*
X210500Y282179D02*
X214000D01*
X207000D02*
X210500D01*
X123000Y287500D02*
X126000D01*
X120000D02*
X123000D01*
X117000D02*
X120000D01*
X114000D02*
X117000D01*
X106500D02*
X114000D01*
D35*
X166000Y193000D02*
Y200085D01*
Y193000D02*
X166500Y192500D01*
X162678Y198162D02*
Y202807D01*
Y197795D02*
Y198162D01*
X170000Y198041D02*
X174766Y202807D01*
X170000Y193500D02*
X170382D01*
X170000D02*
Y198041D01*
X166000Y200085D02*
X168722Y202807D01*
X152693Y214000D02*
X156000D01*
X157715Y219000D02*
X158000D01*
X157357Y222857D02*
X162000Y218215D01*
X156633Y197863D02*
Y198162D01*
Y202807D01*
X163500Y214500D02*
X169000D01*
X170857Y215857D02*
X171273Y215442D01*
X170857Y215857D02*
Y215857D01*
X170857D02*
X170857D01*
X169942Y216773D02*
X170857Y215857D01*
X168058Y216773D02*
X169942D01*
X167369Y216084D02*
X168058Y216773D01*
X162844Y216084D02*
X167369D01*
X184480Y152626D02*
X188833D01*
X79018Y69197D02*
X79079Y69257D01*
X78439Y68618D02*
X79018Y69197D01*
Y71482D01*
X72683Y76393D02*
X76334Y72742D01*
Y63898D02*
Y72742D01*
X63020Y71520D02*
X64000Y72500D01*
X63020Y68000D02*
Y71520D01*
X72683Y76393D02*
X73000Y76710D01*
Y87500D01*
X190227Y80558D02*
Y83500D01*
X190162Y83435D02*
X190227Y83500D01*
X177579Y83435D02*
X190162D01*
X162000Y80000D02*
Y82871D01*
X162565Y83435D01*
X176421D01*
X197089Y80874D02*
X217363D01*
X196442Y80227D02*
X197089Y80874D01*
X194345Y80227D02*
X196442D01*
X194204Y80368D02*
X194345Y80227D01*
X190417Y80368D02*
X194204D01*
X190227Y80558D02*
X190417Y80368D01*
X177579Y83435D02*
X177579Y83435D01*
X176421Y83435D02*
X177579D01*
X176421Y83435D02*
X176421Y83435D01*
X136118Y74061D02*
X136758Y73421D01*
Y68579D02*
Y73421D01*
X136118Y67939D02*
X136758Y68579D01*
X29500Y130500D02*
Y132807D01*
Y115652D02*
Y130500D01*
X18000Y121843D02*
X20465Y124307D01*
X25000D01*
X24500Y137807D02*
X29500Y132807D01*
X26921Y113073D02*
X29500Y115652D01*
X98500Y190500D02*
X102000Y187000D01*
X107807D01*
X138500Y135043D02*
X140921Y132622D01*
X138500Y135043D02*
Y140807D01*
X109500Y71000D02*
X110807Y69693D01*
X107000Y79142D02*
Y87000D01*
X109500Y71000D02*
X110000D01*
X110807Y69693D02*
X112500D01*
X124000Y68193D02*
X124253Y67939D01*
X136118D01*
X134622Y74061D02*
X136118D01*
X134622D02*
Y79079D01*
X131000Y96000D02*
X132000Y97000D01*
X131000Y96000D02*
Y96004D01*
X135462Y93538D02*
X140635D01*
X132000Y97000D02*
X135462Y93538D01*
X133500Y87000D02*
X134622Y85878D01*
X130685Y79079D02*
Y89185D01*
X134183Y107032D02*
X140921D01*
X133879Y107336D02*
X134183Y107032D01*
X132664Y107336D02*
X133879D01*
X132500Y107500D02*
X132664Y107336D01*
X132500Y107500D02*
Y110000D01*
X130976Y89476D02*
X131500D01*
X124779Y79079D02*
Y87469D01*
X124962Y87651D01*
X118500Y131000D02*
X118874Y131374D01*
X27561Y234282D02*
Y240811D01*
Y234282D02*
X31773Y230069D01*
Y224058D02*
Y230069D01*
X31000Y223285D02*
X31773Y224058D01*
X31000Y204500D02*
Y223285D01*
X154571Y97189D02*
X160117Y91642D01*
X154842Y99158D02*
X160773Y93227D01*
X172034D01*
X172307Y93500D01*
X160117Y91642D02*
X162729D01*
X141273Y221273D02*
X155442D01*
X157715Y219000D01*
X162000Y218000D02*
Y218215D01*
X137773Y217773D02*
X141273Y221273D01*
X99727Y216942D02*
X105643Y222857D01*
X148575Y218561D02*
X153811D01*
X154371Y219000D02*
X154500D01*
X153871Y218500D02*
X154371Y219000D01*
X153811Y218561D02*
X153871Y218500D01*
X134558Y217773D02*
X137773D01*
X134558Y213227D02*
X136273D01*
X138500Y211000D01*
X133227Y214558D02*
X134558Y213227D01*
X133227Y216442D02*
X134558Y217773D01*
X133227Y214558D02*
Y216442D01*
X132456Y209500D02*
Y212956D01*
X99727Y212844D02*
Y216942D01*
X96189Y209307D02*
X99727Y212844D01*
X138500Y209500D02*
Y211000D01*
X151193Y210104D02*
Y215500D01*
X204000Y277000D02*
X204500Y277500D01*
X200000Y277000D02*
X204000D01*
X136000Y198500D02*
Y200307D01*
X138500Y202807D01*
X147500Y198000D02*
Y199852D01*
X150589Y197908D02*
Y198162D01*
Y202807D01*
X144544D02*
X147500Y199852D01*
X132456Y202807D02*
X133500Y201763D01*
Y196000D02*
Y201763D01*
X162000Y218000D02*
X162844Y217156D01*
X113000Y259000D02*
X113273Y259273D01*
Y268727D01*
X105000Y277000D02*
X113273Y268727D01*
X206000Y137500D02*
Y145480D01*
X198980Y152500D02*
X206000Y145480D01*
X13158Y80843D02*
X18000D01*
X28061Y46561D02*
X29500Y48000D01*
X21939Y44618D02*
X22757Y45435D01*
X21939Y40439D02*
Y44618D01*
X21342Y39843D02*
X21939Y40439D01*
X18000Y39843D02*
X21342D01*
X179000Y93500D02*
X187500D01*
X97500Y190500D02*
X98500D01*
X84257Y203743D02*
X97500Y190500D01*
X83500Y203743D02*
X84257D01*
X85151Y48151D02*
X88500Y51500D01*
X83973Y48151D02*
X85151D01*
X83333Y47511D02*
X83973Y48151D01*
X83333Y46333D02*
Y47511D01*
X81500Y44500D02*
X83333Y46333D01*
X75500Y45179D02*
Y51500D01*
X26921Y154073D02*
X31541Y158693D01*
X75231Y57841D02*
Y62796D01*
X73548Y56158D02*
X75231Y57841D01*
Y62796D02*
X76334Y63898D01*
X72683Y56158D02*
X73548D01*
X72683Y54561D02*
Y56158D01*
Y54561D02*
X91118D01*
X197200Y187800D02*
X200000Y185000D01*
X194900Y187800D02*
X197200D01*
X222000Y59000D02*
Y68922D01*
X226143Y73065D01*
X179500Y105500D02*
X208921D01*
X209500Y106079D01*
X31541Y158693D02*
X50000D01*
X20254Y154073D02*
X26921D01*
X20254Y113073D02*
X26921D01*
X130685Y89185D02*
X130976Y89476D01*
X131000Y96004D02*
X131996Y97000D01*
X104727Y87942D02*
X107500Y90715D01*
Y97500D01*
X120843Y131658D02*
X121500Y131000D01*
X124500D02*
Y131215D01*
X122811Y132904D02*
X124500Y131215D01*
X120843Y131658D02*
Y138921D01*
X127500Y131000D02*
Y131215D01*
X124779Y133935D02*
X127500Y131215D01*
X122811Y132904D02*
Y138921D01*
X124779Y133935D02*
Y138921D01*
X14349Y109973D02*
Y118948D01*
Y109973D02*
X16317Y108004D01*
Y97803D02*
Y108004D01*
Y97803D02*
X18000Y96120D01*
Y80843D02*
Y96120D01*
X17243Y162843D02*
X18000D01*
X14349Y159948D02*
X17243Y162843D01*
X14349Y150973D02*
Y159948D01*
Y150973D02*
X15817Y149504D01*
Y140303D02*
Y149504D01*
Y140303D02*
X18000Y138120D01*
Y121843D02*
Y138120D01*
X27561Y177853D02*
X31589Y181881D01*
X27561Y175689D02*
Y177853D01*
X18000Y166129D02*
X27561Y175689D01*
X18000Y162843D02*
Y166129D01*
X34188Y181881D02*
X38307Y186000D01*
X31589Y181881D02*
X34188D01*
X18000Y203450D02*
X30450D01*
X18000Y203343D02*
X24667D01*
X28939Y199070D01*
Y197575D02*
Y199070D01*
Y197575D02*
X29579Y196935D01*
X34372D01*
X38000Y193307D01*
X187688Y119835D02*
X189023Y118500D01*
X195307D01*
X97000Y131000D02*
Y138701D01*
X103000Y131000D02*
X103126Y131126D01*
X100000Y131000D02*
Y132938D01*
X134622Y79079D02*
Y85878D01*
X131996Y97000D02*
X134996Y94000D01*
X104000Y86000D02*
X104727Y86727D01*
Y87942D01*
X85000Y143000D02*
X87378Y140622D01*
Y138921D02*
Y140622D01*
X215055Y19500D02*
Y43909D01*
X213500Y17945D02*
X215055Y19500D01*
X213500Y4500D02*
Y17945D01*
X167000Y22500D02*
Y24915D01*
X167543Y25458D01*
X171400D01*
X58949Y68000D02*
X63020D01*
X89061Y78793D02*
X89346Y79079D01*
X89061Y74839D02*
Y78793D01*
X83480Y69257D02*
X89061Y74839D01*
X79079Y69257D02*
X83480D01*
X78439Y63382D02*
Y68618D01*
Y63382D02*
X79079Y62743D01*
X87500D01*
Y59307D02*
Y62743D01*
X87378Y125124D02*
Y138921D01*
X85319Y123065D02*
X87378Y125124D01*
X81365Y123065D02*
X85319D01*
X81079Y122780D02*
X81365Y123065D01*
X90227Y112727D02*
X90500Y113000D01*
X81289Y112727D02*
X90227D01*
Y97273D02*
Y99727D01*
Y97273D02*
X91315Y96185D01*
X86058Y97273D02*
X90227D01*
X85785Y97000D02*
X86058Y97273D01*
X81268Y97000D02*
X85785D01*
X81079Y97189D02*
X81268Y97000D01*
X91315Y79079D02*
Y96185D01*
X166243Y140758D02*
X166500Y140500D01*
X152079Y140758D02*
X166243D01*
X151439Y140118D02*
X152079Y140758D01*
X151439Y138414D02*
Y140118D01*
X145648Y132622D02*
X151439Y138414D01*
X140921Y132622D02*
X145648D01*
X200000Y143000D02*
X200500Y142500D01*
X195920Y155561D02*
X198980Y152500D01*
X189473Y155561D02*
X195920D01*
X188833Y154921D02*
X189473Y155561D01*
X188833Y152626D02*
Y154921D01*
X179765Y157342D02*
X184480Y152626D01*
X173780Y157342D02*
X179765D01*
X171938Y155500D02*
X173780Y157342D01*
X168500Y155500D02*
X171938D01*
X210000Y111500D02*
X210500Y111000D01*
X214500D01*
X209500Y106079D02*
X214500D01*
X209500Y101179D02*
X214500D01*
X205000Y125500D02*
X210000Y120500D01*
Y111500D02*
Y120500D01*
X205000Y136500D02*
X206000Y137500D01*
X205000Y131500D02*
Y136500D01*
Y125500D02*
Y131500D01*
X194346Y140561D02*
X197561D01*
X192033Y138248D02*
X194346Y140561D01*
X186547Y138248D02*
X192033D01*
X182323D02*
Y140234D01*
X178961Y138248D02*
Y140815D01*
X182323Y138248D02*
X182610D01*
X181742Y140815D02*
X182323Y140234D01*
X178961Y140815D02*
X181742D01*
X178673Y138248D02*
X178961D01*
X200500Y111500D02*
X210000D01*
X197000Y108000D02*
X200500Y111500D01*
X179500Y99500D02*
X207821D01*
X209500Y101179D01*
X173000Y119000D02*
X176500Y122500D01*
X176705D01*
X164065Y116565D02*
X167500Y120000D01*
X158579Y116565D02*
X164065D01*
X148054Y131054D02*
X154500Y137500D01*
X146321Y131054D02*
X148054D01*
X145920Y130654D02*
X146321Y131054D01*
X140921Y130654D02*
X145920D01*
X171273Y212993D02*
Y215442D01*
X162678Y213678D02*
X163500Y214500D01*
X162844Y216084D02*
Y217156D01*
X162678Y209500D02*
Y213678D01*
X171273Y212993D02*
X174766Y209500D01*
X159617Y212857D02*
X162844Y216084D01*
X159617Y209500D02*
Y212857D01*
X156633Y209500D02*
X159617D01*
X140635Y93538D02*
X140921Y93252D01*
X154504Y97189D02*
X154571D01*
X140921Y95221D02*
X147472D01*
X156000Y86693D01*
X157500Y99500D02*
X172807D01*
X155874Y101126D02*
X157500Y99500D01*
X168000Y86693D02*
X174000D01*
X140921Y97189D02*
X154504D01*
X156000Y86693D02*
X162000D01*
X104000Y86000D02*
X105095Y84905D01*
Y79079D02*
Y84905D01*
X80925Y87500D02*
X81079Y87347D01*
X73000Y87500D02*
X80925D01*
X81079Y44500D02*
X81500D01*
X75500Y51500D02*
X76179Y50821D01*
X67000Y143807D02*
X67193D01*
X75853Y131925D02*
Y135147D01*
X65500Y157500D02*
X67000Y156000D01*
Y150500D02*
Y156000D01*
X73500Y157500D02*
X74000Y157000D01*
Y150500D02*
Y157000D01*
X75853Y131925D02*
X76838Y130939D01*
X80793D01*
X81079Y130654D01*
X108278Y209500D02*
X114322D01*
X138500Y208985D02*
Y209500D01*
X135758Y206242D02*
X138500Y208985D01*
X130035Y206242D02*
X135758D01*
X129395Y206882D02*
X130035Y206242D01*
X129395Y206882D02*
Y209500D01*
X126411D02*
X129395D01*
X118874Y131374D02*
Y138921D01*
X105273Y131727D02*
X106000Y131000D01*
X105273Y131727D02*
Y138742D01*
X105095Y138921D02*
X105273Y138742D01*
X103126Y131126D02*
Y138921D01*
X100000Y132938D02*
X100872Y133809D01*
Y138635D01*
X101157Y138921D01*
X97000Y138701D02*
X97220Y138921D01*
X107000Y79142D02*
X107063Y79079D01*
X148875Y16000D02*
X161000D01*
X136750D02*
X148875D01*
X124625D02*
X136750D01*
X112500D02*
X124625D01*
X144500Y209544D02*
Y215500D01*
X151193D02*
X152693Y214000D01*
X102234Y198162D02*
Y202807D01*
Y197352D02*
Y198162D01*
X151193Y215500D02*
X151215D01*
X140921Y99158D02*
X154842D01*
X140921Y101126D02*
X155874D01*
X140921Y103094D02*
X156095D01*
X158500Y105500D01*
X172807D01*
X36000Y15000D02*
X46500D01*
X81079Y132622D02*
Y132622D01*
X72600Y141100D02*
Y142408D01*
X74000Y143807D01*
X97079Y62757D02*
X112258D01*
X112500Y63000D01*
X93500Y59307D02*
X93901D01*
X12000Y82000D02*
X13158Y80843D01*
X67193Y143807D02*
X75853Y135147D01*
X72600Y141100D02*
X81079Y132622D01*
X129911Y215500D02*
X132456Y212956D01*
X105643Y222857D02*
X157357D01*
X118500Y215500D02*
X129911D01*
X120000Y197500D02*
Y202440D01*
Y197618D02*
X120189Y197807D01*
X120000Y197500D02*
Y197618D01*
X113500Y201985D02*
X114322Y202807D01*
X113500Y197500D02*
Y201985D01*
X114148Y197500D02*
X114322Y197674D01*
X113500Y197500D02*
X114148D01*
X120000Y202440D02*
X120367Y202807D01*
X126411D02*
X132456D01*
X195307Y118500D02*
X199247Y122439D01*
X200925D01*
X201565Y123079D01*
Y124758D01*
X201743Y124935D01*
Y134257D01*
X202565Y135079D01*
Y140435D01*
X200500Y142500D02*
X202565Y140435D01*
X197561Y140561D02*
X200000Y143000D01*
X143193Y64693D02*
X144500Y66000D01*
X143193Y60500D02*
Y64693D01*
X98548Y46658D02*
X101390Y49500D01*
X93837Y46658D02*
X98548D01*
X88027Y40849D02*
X93837Y46658D01*
X84700Y40849D02*
X88027D01*
X87594Y17695D02*
Y27406D01*
X71258Y43743D02*
Y44500D01*
X79426Y35574D02*
X84700Y40849D01*
X79426Y35574D02*
X87594Y27406D01*
X111500Y53000D02*
X116258D01*
X116758Y52500D01*
X73000Y39000D02*
X74500Y40500D01*
X71258Y43743D02*
X74500Y40500D01*
X79426Y35574D01*
X218151Y91649D02*
Y108106D01*
X226143Y73065D02*
Y78891D01*
X231992Y79198D02*
Y90652D01*
X231352Y91292D02*
X231992Y90652D01*
X218295Y91292D02*
X231352D01*
X217363Y80874D02*
Y90360D01*
X218295Y91292D01*
X226143Y78891D02*
X231685D01*
X231992Y79198D01*
X72500Y39500D02*
X72500Y39500D01*
X72500Y38500D02*
Y39500D01*
X72500Y39500D02*
X73000Y39000D01*
X58087Y68862D02*
X58949Y68000D01*
X22757Y45435D02*
X27421D01*
X28061Y46075D01*
Y46561D01*
X28118Y43753D02*
X29994Y45628D01*
X108278Y198162D02*
Y202807D01*
Y197396D02*
Y198162D01*
X214500Y111000D02*
X215257D01*
X218151Y108106D01*
X14349Y118948D02*
X17243Y121843D01*
X18000D01*
X144500Y215500D02*
X145500D01*
Y215486D02*
Y215500D01*
Y215486D02*
X148575Y218561D01*
X18000Y243843D02*
X18843Y243000D01*
X25371D01*
X27561Y240811D01*
X95193Y50485D02*
Y51500D01*
X91118Y54561D02*
X95193Y50485D01*
X93901Y59307D02*
Y59579D01*
X97079Y62757D01*
X166500Y86693D02*
X168000D01*
X166500D02*
Y87871D01*
X162729Y91642D02*
X166500Y87871D01*
X153905Y114906D02*
X156920D01*
X158579Y116565D01*
D36*
X90000Y245839D02*
X136500D01*
X185000D01*
X188081Y282581D02*
Y285823D01*
X191500Y289242D01*
Y294000D01*
X138500Y285000D02*
Y294000D01*
X85000Y283500D02*
Y294000D01*
X43772Y272000D02*
Y273864D01*
X37000Y272000D02*
X43772D01*
X36500Y294000D02*
X37000Y272000D01*
X15500D02*
Y294000D01*
X43772Y273864D02*
X56136D01*
D37*
X49000Y53909D02*
X50409Y52500D01*
X53091D02*
X54500Y53909D01*
X50409Y27608D02*
Y52500D01*
X53090Y25368D02*
Y52500D01*
X49618Y21896D02*
X53090Y25368D01*
X49618Y26818D02*
X50409Y27608D01*
X47250Y26818D02*
X49618D01*
X47250Y25571D02*
Y26818D01*
X46500Y24821D02*
X47250Y25571D01*
Y21896D02*
X49618D01*
X47250Y20671D02*
Y21896D01*
X46500Y19921D02*
X47250Y20671D01*
D38*
X24500Y185000D02*
X27500D01*
X50000Y144500D02*
X50500Y144000D01*
X50000Y144500D02*
Y152000D01*
X18000Y198421D02*
X23910D01*
X24500Y197831D01*
Y185000D02*
Y191138D01*
D39*
X84161Y245839D02*
X90000D01*
D40*
X56136Y273864D02*
X58105Y271895D01*
X61049D01*
X68895Y264049D01*
Y261105D02*
Y264049D01*
Y261105D02*
X84161Y245839D01*
D41*
X7506Y224034D02*
D03*
X7506Y254034D02*
D03*
X7506Y183534D02*
D03*
X7506Y213534D02*
D03*
X7506Y143034D02*
D03*
X7506Y173034D02*
D03*
X7506Y102034D02*
D03*
X7506Y132034D02*
D03*
X7506Y61034D02*
D03*
X7506Y91034D02*
D03*
X7506Y20034D02*
D03*
X7506Y50034D02*
D03*
X222994Y193466D02*
D03*
Y163466D02*
D03*
X73006Y213934D02*
D03*
X73006Y179134D02*
D03*
X224994Y86066D02*
D03*
Y120866D02*
D03*
X36006Y39934D02*
D03*
X36006Y5134D02*
D03*
X181895Y5466D02*
D03*
Y50166D02*
D03*
D42*
X61066Y34005D02*
D03*
X95866D02*
D03*
X106566Y42006D02*
D03*
X141366D02*
D03*
D43*
X39472Y207553D02*
D03*
Y252953D02*
D03*
D44*
X101447Y12667D02*
D03*
X56047D02*
D03*
D45*
X40000Y111000D02*
D03*
X221000Y302000D02*
D03*
X9500Y8500D02*
D03*
D46*
X37000Y272000D02*
D03*
Y294000D02*
D03*
X15500D02*
D03*
Y272000D02*
D03*
X85000Y294000D02*
D03*
X138500D02*
D03*
X191500D02*
D03*
D47*
X226500Y283307D02*
D03*
Y240000D02*
D03*
X55500Y301807D02*
D03*
Y258500D02*
D03*
D48*
X112500Y6000D02*
D03*
X124625D02*
D03*
X136750D02*
D03*
X148875D02*
D03*
X161000D02*
D03*
D49*
X112500Y16000D02*
D03*
Y26000D02*
D03*
X124625Y16000D02*
D03*
Y26000D02*
D03*
X136750Y16000D02*
D03*
Y26000D02*
D03*
X148875Y16000D02*
D03*
Y26000D02*
D03*
X161000Y16000D02*
D03*
Y26000D02*
D03*
D50*
X225500Y228000D02*
D03*
D51*
X220000Y278000D02*
D03*
X219000Y281500D02*
D03*
X214000Y282179D02*
D03*
X217500Y218000D02*
D03*
X45000Y182500D02*
D03*
X162000Y284000D02*
D03*
X158697Y288000D02*
D03*
X154000D02*
D03*
X162000Y288750D02*
D03*
X165000Y288000D02*
D03*
X60500Y228110D02*
D03*
X63500Y236500D02*
D03*
Y233000D02*
D03*
X207000Y282179D02*
D03*
X210500D02*
D03*
X126000Y287500D02*
D03*
X123000D02*
D03*
X120000D02*
D03*
X117000D02*
D03*
X114000D02*
D03*
X166500Y192500D02*
D03*
X162678Y198162D02*
D03*
X170000Y193500D02*
D03*
X156000Y214000D02*
D03*
X158000Y219000D02*
D03*
X156633Y198162D02*
D03*
X154657Y190843D02*
D03*
X169000Y214500D02*
D03*
X165000Y218500D02*
D03*
X226000Y48500D02*
D03*
X231500Y58500D02*
D03*
Y61500D02*
D03*
X229000Y60000D02*
D03*
Y57000D02*
D03*
Y48000D02*
D03*
X231500Y49500D02*
D03*
X229000Y51000D02*
D03*
Y54000D02*
D03*
X231500Y52500D02*
D03*
Y55500D02*
D03*
X148000Y127000D02*
D03*
X79018Y71482D02*
D03*
X64000Y72500D02*
D03*
X69000Y115500D02*
D03*
X177250Y81162D02*
D03*
X189466Y78104D02*
D03*
X192500Y89500D02*
D03*
X158250Y80857D02*
D03*
X145682Y74682D02*
D03*
X186500Y110500D02*
D03*
X180500Y116000D02*
D03*
X146783Y145283D02*
D03*
X149000Y148000D02*
D03*
X151500Y145500D02*
D03*
X142846Y149346D02*
D03*
X134500Y145500D02*
D03*
X131000Y148500D02*
D03*
X125777Y147500D02*
D03*
X116000Y87000D02*
D03*
X107000D02*
D03*
X111000D02*
D03*
X110000Y71000D02*
D03*
X36500Y97000D02*
D03*
X131000Y96000D02*
D03*
X133500Y87000D02*
D03*
X129000Y99000D02*
D03*
X122500Y97500D02*
D03*
X132937Y105063D02*
D03*
X131500Y89476D02*
D03*
X127500Y86000D02*
D03*
X124962Y87651D02*
D03*
X122000Y87000D02*
D03*
X119000D02*
D03*
X118500Y131000D02*
D03*
X163500Y126000D02*
D03*
X154500Y219000D02*
D03*
X204500Y277500D02*
D03*
X139000Y198500D02*
D03*
X136000D02*
D03*
X147500Y198000D02*
D03*
X150589Y198162D02*
D03*
X145500Y192000D02*
D03*
X133500Y196000D02*
D03*
X132500Y190000D02*
D03*
X123000D02*
D03*
X162000Y218000D02*
D03*
X161500Y262500D02*
D03*
X113000Y259000D02*
D03*
X116000Y267500D02*
D03*
X156000Y277500D02*
D03*
X111000Y265500D02*
D03*
X129493Y198546D02*
D03*
X29500Y48000D02*
D03*
X91500Y146500D02*
D03*
X101000D02*
D03*
X103962Y145807D02*
D03*
X110000Y146000D02*
D03*
X108000Y148477D02*
D03*
X120048Y145000D02*
D03*
X169000Y74000D02*
D03*
X187500Y93500D02*
D03*
X39000Y55000D02*
D03*
X49000Y53909D02*
D03*
X54500D02*
D03*
X32000Y90000D02*
D03*
X64500Y78000D02*
D03*
X98500Y190500D02*
D03*
X10500Y39500D02*
D03*
X29000Y57000D02*
D03*
X22500Y13000D02*
D03*
X71000Y6000D02*
D03*
X83500Y3500D02*
D03*
X78000Y59500D02*
D03*
X224856Y27144D02*
D03*
X177000Y161000D02*
D03*
X200000Y185000D02*
D03*
X166000Y144000D02*
D03*
X120500Y94500D02*
D03*
X95000Y120500D02*
D03*
X107500Y97500D02*
D03*
X27500Y185000D02*
D03*
X29500Y190000D02*
D03*
X121500Y131000D02*
D03*
X124500D02*
D03*
X129872Y126372D02*
D03*
X132432Y124743D02*
D03*
X133000Y120000D02*
D03*
X130500Y115000D02*
D03*
X127500Y131000D02*
D03*
X123500Y145000D02*
D03*
X128000Y145500D02*
D03*
X131000D02*
D03*
X33500Y232500D02*
D03*
X34500Y227000D02*
D03*
X31589Y181881D02*
D03*
X31000Y204500D02*
D03*
X100500Y159500D02*
D03*
X97000Y131000D02*
D03*
X103000D02*
D03*
X100000D02*
D03*
X99500Y89500D02*
D03*
X95500Y87000D02*
D03*
X101038Y86783D02*
D03*
X158500Y42500D02*
D03*
X154000D02*
D03*
X85000Y143000D02*
D03*
X55500Y104000D02*
D03*
X53000Y88000D02*
D03*
X213500Y4500D02*
D03*
X167000Y22500D02*
D03*
X90500Y113000D02*
D03*
X90227Y99727D02*
D03*
X87000Y115000D02*
D03*
Y95000D02*
D03*
X166500Y140500D02*
D03*
X200500Y142500D02*
D03*
X195000Y138000D02*
D03*
X197000Y108000D02*
D03*
X173000Y119000D02*
D03*
X63000Y230000D02*
D03*
X126500Y121000D02*
D03*
X155500Y126500D02*
D03*
X106500Y287500D02*
D03*
X194500Y178500D02*
D03*
X168000Y288500D02*
D03*
X102000Y216000D02*
D03*
X45000Y88750D02*
D03*
X75500Y27567D02*
D03*
X36642Y75358D02*
D03*
X81500Y28000D02*
D03*
X39000Y58500D02*
D03*
X169000Y181000D02*
D03*
X190000Y178500D02*
D03*
X184900Y178400D02*
D03*
X130000Y194000D02*
D03*
X120000Y190000D02*
D03*
X71500Y102500D02*
D03*
X73000Y105500D02*
D03*
X29500Y225000D02*
D03*
X69000Y138500D02*
D03*
X17500Y12500D02*
D03*
X36000Y15000D02*
D03*
X142846Y189846D02*
D03*
X102234Y198162D02*
D03*
X106000Y131000D02*
D03*
X12500Y73000D02*
D03*
X23693Y79693D02*
D03*
X176154Y108806D02*
D03*
X155500Y123000D02*
D03*
X132500Y110000D02*
D03*
X179900Y178600D02*
D03*
X79000Y141500D02*
D03*
X80500Y146500D02*
D03*
X78693Y79693D02*
D03*
X13500Y39500D02*
D03*
X13000Y34500D02*
D03*
X28000Y82500D02*
D03*
X29500Y73000D02*
D03*
X12000Y82000D02*
D03*
X112000Y217000D02*
D03*
X118000Y218500D02*
D03*
X118500Y215500D02*
D03*
X120500Y213000D02*
D03*
X120000Y197500D02*
D03*
X113500D02*
D03*
X203500Y114500D02*
D03*
X187000Y90000D02*
D03*
X195500Y82500D02*
D03*
X192500Y83000D02*
D03*
X185000Y72055D02*
D03*
X228000Y69000D02*
D03*
X173500Y74000D02*
D03*
X162000Y95500D02*
D03*
X143000Y81000D02*
D03*
X144500Y66000D02*
D03*
X111500Y53000D02*
D03*
X132991Y161500D02*
D03*
X153464D02*
D03*
X112519Y166618D02*
D03*
Y161500D02*
D03*
X117637D02*
D03*
X122755D02*
D03*
X127873D02*
D03*
X138109D02*
D03*
X143228D02*
D03*
X148346D02*
D03*
X158582D02*
D03*
X163700D02*
D03*
X117637Y166618D02*
D03*
X122755D02*
D03*
X127873D02*
D03*
X132991D02*
D03*
X138109D02*
D03*
X143228D02*
D03*
X148346D02*
D03*
X153464D02*
D03*
X158582D02*
D03*
X163700D02*
D03*
X112519Y171736D02*
D03*
X117637D02*
D03*
X122755D02*
D03*
X127873D02*
D03*
X132991D02*
D03*
X138109D02*
D03*
X143228D02*
D03*
X148346D02*
D03*
X153464D02*
D03*
X158582D02*
D03*
X163700D02*
D03*
X112519Y176854D02*
D03*
X117637D02*
D03*
X122755D02*
D03*
X127873D02*
D03*
X132991D02*
D03*
X138109D02*
D03*
X143228D02*
D03*
X148346D02*
D03*
X153464D02*
D03*
X158582D02*
D03*
X163700D02*
D03*
X52000Y193000D02*
D03*
X62000Y54000D02*
D03*
X208500Y90000D02*
D03*
X33000Y46000D02*
D03*
X100000Y44000D02*
D03*
X72500Y38500D02*
D03*
X56000Y78000D02*
D03*
X43500Y52500D02*
D03*
X108278Y198162D02*
D03*
X181500Y69000D02*
D03*
X185000D02*
D03*
X188500Y72055D02*
D03*
Y69000D02*
D03*
X181500Y72055D02*
D03*
D52*
X58287Y59413D02*
D03*
Y64138D02*
D03*
Y68862D02*
D03*
Y73587D02*
D03*
X53562Y59413D02*
D03*
Y64138D02*
D03*
Y68862D02*
D03*
Y73587D02*
D03*
X48838Y59413D02*
D03*
Y64138D02*
D03*
Y68862D02*
D03*
Y73587D02*
D03*
X44113Y59413D02*
D03*
Y64138D02*
D03*
Y68862D02*
D03*
Y73587D02*
D03*
M02*
