M48
;Layer_Color=9474304
;FILE_FORMAT=4:4
METRIC,LZ
;TYPE=PLATED
T1F00S00C0.3810
T2F00S00C0.4000
T3F00S00C0.9000
T4F00S00C1.0000
T5F00S00C1.5000
T6F00S00C2.0000
T7F00S00C2.9000
%
T01
X00148048Y0015091
Y0016291
Y0017491
Y0018691
X00136048
X00124048
Y0017491
X00136048
Y0016291
X00124048
Y0015091
X00136048
X00112048
Y0016291
Y0017491
Y0018691
T02
X0004445Y0003175
X0005715Y0003302
X0009144Y000381
X0008382Y0011684
X0007493Y0012192
X0009906Y001397
X0011049Y0013335
X0012446Y00136929
X0013843
X0003429Y0010033
X0002667
X0003302Y0008763
X0018415Y0009779
X0019177Y0007002
X0020701Y0007112
X0021209Y0000889
X0018034Y0001524
X0015748Y0013716
X00254Y0011176
X0028321Y0013462
X0039116Y0010795
X0040259
X0042418Y0005715
X00571134Y00068946
X0057404Y0012319
X0058166Y0012192
Y0012954
Y0013716
X0058801Y0013335
Y0012573
Y0014097
X0054229Y0001143
X0058166Y0014478
Y001524
X0058801Y0014859
Y0015621
X0057912Y0017526
X0047879
Y0018302
X004699
Y0017526
X0046101
Y0018302
X0044069Y0018796
X0042926
X00450214Y00206152
X00481244Y00198385
X0048895Y0021082
X0049657Y0020955
X0048895Y0022733
X0047498Y002286
X0047625Y0023749
X0047371Y0028067
X0045847Y0029464
X0043942Y0030226
X0044743Y00276368
X0050038Y0027432
X0051689Y0029083
X0052959Y002286
X0041148Y0024257
X00401956Y00205377
X0036322Y0020574
X00370033Y00189693
X0036703Y0016764
X0033909Y0022098
X0033401Y00227268
X0033274Y0024384
X0032766Y0025146
X0031115Y0024765
X0030607Y0024003
X0030988Y0022098
X0030226
X0029464
X0028194
X0027178
X00256636Y0022043
X0025273Y0022733
X0024257Y0022098
X0022098Y002413
X00229176Y00253306
X0022987Y0028702
X0022098Y002921
X002413Y0030607
X0024638Y0033274
X00254
X0026162
X0026924
X0030099
X0030861
X0031623
X0032385
X00329874Y00320984
X00336378Y00316848
X0033782Y003048
X0033147Y002921
X0033655Y002794
X0033766Y0026686
X0032131Y0030734
X0032512Y0036957
X0033274
Y0037719
X00319474Y0037465
X0031369Y003683
X00304923Y003683
X002794Y0037084
X0027432Y00377132
X00264064Y0037035
X0025654Y0037211
X0023241
X002159Y0036322
X0020066Y0035941
X0020447Y0037211
X0017526Y0035179
Y0029337
X0018542Y0026797
X0018161Y0026035
X0019988Y0020242
X00200706Y00181564
X0019812Y0015113
X0016256Y0018415
X0016383Y0019812
X002794Y0018034
X0027305Y0024765
X00317404Y00222634
X0032385Y0021844
X0037592Y0032258
X0039497Y0032131
Y0031242
X0041529Y0032004
X0042291Y0035687
X0042164Y0036576
X0038481Y0036957
X00372829Y00369019
X0037846Y0037592
X00362829Y00379339
X0034163Y0036957
X00337798Y0041021
X00324798
X00311798
X00298798
X00285798
Y0042321
X00298798
X00311798
X00324798
X00337798
X00350798
Y0041021
X00363798
X00376798
X00389798
X00402798
X00415798
Y0042321
X00402798
X00389798
X00376798
X00363798
Y0043621
X00350798
X00337798
X00324798
X00311798
X00298798
X00285798
Y0044921
X00298798
X00311798
X00324798
X00337798
X00350798
X00363798
X00376798
Y0043621
X00389798
X00402798
X00415798
Y0044921
X00402798
X00389798
X0039283Y0048474
X00397848Y00503332
X00413201
X0042291Y0048895
X004318Y0049149
X0042926Y0045974
X00456946Y00453644
X00469646Y00453136
X004826Y0045339
X0049403
X00508Y004699
X0050927Y0036195
X004953Y0035052
X0044958Y0040894
X0036957Y0048768
X0036283Y0048221
X0033655Y004826
X003302Y0049276
X00328913Y00504308
X0034544Y0050419
X0035306
X0033909Y0049784
X003048Y0050165
X0028829
X00275026Y00503332
X00259674
X0025019Y0048387
X003048Y004826
X0031242
X0037465Y0050292
X00382495Y00503332
X0025527Y0040513
X001143Y0046355
X00080236Y00461978
X0006985Y004699
X0007493Y004826
X0007874Y0051943
X0013208Y0049022
X0014097Y0026416
X0013462Y0022352
X001143Y00225424
X0008128Y002286
X0009271Y0024638
X0009307Y0019141
X0007493Y0018542
X0007112Y0020955
X0006018Y0020242
X0003048Y0020828
X0003175Y0018542
X0007366Y0014478
X0009906Y0014859
X0014224Y0019812
X0008763Y0057658
X0008509Y0059055
X0007493Y005715
X0015367Y005794
X0016002Y005842
X0016129Y0059182
Y0060071
X0025908Y0054864
X0028448Y0055118
X0029972Y0055499
X0030099Y0054737
X0030607Y0054102
X0039624Y0054356
X0039243Y0055626
X0040132
X0041148Y0055372
X004191Y0055499
X0042926Y0054483
X0041021Y0066675
X0039624Y0070485
X0041148Y0072136
Y00733424
X004191Y0073152
X0042672Y0073279
X00403091Y0073152
X0039116
X0032004Y0073025
X0031242
X003048
X0029718
X0028956
X0027051
X0028194Y0067437
X0029464Y0067945
X0028702Y0065786
X0051943Y0070485
X0052578Y00716736
X0053467
X0054356
X0055626Y0071501
X005588Y0070612
X0055245Y0055372
T03
X0028575Y0001524
Y0004064
Y0006604
X00316548
Y0004064
Y0001524
X00347345
Y0004064
Y0006604
X00378143
Y0004064
Y0001524
X0040894
Y0004064
Y0006604
T04
X0057277Y0057912
T05
X0014097Y0065659
Y0076659
X0057531Y007196
Y006096
T06
X0002413Y0002159
X001016Y0028194
X0056134Y0076708
T07
X0003937Y0069088
X0009398
Y0074676
X0003937
X002159
X0035179
X0048641
M30
