%FSTAX23Y23*%
%MOIN*%
%SFA1B1*%

%IPPOS*%
%ADD10R,0.043310X0.039370*%
%ADD12R,0.102360X0.074800*%
%ADD16R,0.137800X0.098430*%
%ADD17R,0.039370X0.078740*%
%ADD22R,0.039370X0.043310*%
%ADD23R,0.059060X0.051180*%
%ADD24R,0.074800X0.106300*%
%ADD30R,0.029530X0.089960*%
%ADD31R,0.391540X0.354920*%
%ADD32C,0.011810*%
%ADD33C,0.118110*%
%ADD34C,0.027560*%
%ADD35C,0.009840*%
%ADD36C,0.196850*%
%ADD38C,0.015750*%
%ADD45C,0.118110*%
%ADD46C,0.196850*%
%ADD47C,0.098430*%
%ADD48R,0.059060X0.059060*%
%ADD49C,0.059060*%
%ADD50C,0.078740*%
%ADD51C,0.023620*%
%ADD52C,0.027170*%
%ADD53C,0.039370*%
%ADD54R,0.106300X0.074800*%
%ADD55R,0.344490X0.204720*%
%ADD56O,0.027560X0.098430*%
%ADD57C,0.024800*%
%ADD58R,0.196850X0.078740*%
%ADD59R,0.125980X0.037400*%
%ADD60O,0.098430X0.027560*%
%ADD61R,0.551180X0.200790*%
%ADD62R,0.011810X0.061020*%
%ADD63R,0.078740X0.078740*%
%ADD64O,0.009840X0.025590*%
%ADD65O,0.025590X0.009840*%
%ADD66R,0.177160X0.177160*%
%ADD67C,0.019690*%
%ADD68C,0.009060*%
%ADD69R,0.185000X0.180000*%
%ADD70R,0.135000X0.135000*%
%ADD71R,0.130000X0.210000*%
%ADD72R,0.145000X0.055000*%
%ADD73R,0.485000X0.130000*%
%LNninja_3_2_pcb-1*%
%LPD*%
G36*
X0179Y00789D02*
Y0074D01*
X01791*
Y00725*
X0179Y0072*
X01792Y00711*
X01796Y00705*
X01792Y00699*
X0179Y0069*
X01788Y00687*
X01773*
X01772Y00687*
X01766Y00689*
X0176Y0069*
X01755Y0069*
X01735Y00711*
X01736Y00716*
X01744Y00717*
X01752Y00722*
X01757Y0073*
X01759Y0074*
X01757Y00749*
X01753Y00754*
X01756Y00759*
X01766*
Y00784*
X0177Y00787*
X01772Y00787*
X01781Y00789*
X01785Y00791*
X0179Y00789*
G37*
G36*
X01993Y00953D02*
X01994Y00946D01*
X01996Y00943*
Y0081*
X01998Y00803*
X02002Y00797*
X02007Y00792*
X02013Y00788*
X0202Y00786*
X02027Y00788*
X02027Y00788*
X02052*
X02055Y00783*
X02053Y0078*
X02051Y00774*
Y00757*
X01911*
X0191Y00762*
X01911Y00764*
X01916Y00771*
X01918Y00781*
X01916Y0079*
X01911Y00798*
X01903Y00803*
X01894Y00805*
X01892Y00804*
X01888Y00807*
Y00831*
X01892Y00835*
X01898*
X01901Y00831*
X019Y0083*
X01902Y0082*
X01907Y00812*
X01915Y00807*
X01925Y00805*
X01934Y00807*
X01936Y00809*
X01937Y00807*
X01945Y00802*
X01955Y008*
X01964Y00802*
X01972Y00807*
X01977Y00815*
X01979Y00825*
X01977Y00834*
X01972Y00842*
X01964Y00847*
X01956Y00848*
X01939Y00866*
X01936Y00868*
X01936Y00874*
X01942Y00877*
X01947Y00885*
X01949Y00895*
X01952Y00898*
X01955*
Y01001*
X01941*
Y01133*
X01993*
Y00953*
G37*
G36*
X02206Y00967D02*
X02172Y00932D01*
X02168Y00926*
X02166Y0092*
Y00816*
X02162Y00814*
X02157Y00819*
X02151Y00823*
X02144Y00824*
X02033*
Y00931*
X0209*
X02096Y00933*
X02102Y00937*
X02137Y00971*
X02204*
X02206Y00967*
G37*
G36*
X00474Y00651D02*
X00471Y00648D01*
X0047Y00641*
X00471Y00634*
X00475Y00628*
X00481Y00624*
X00488Y00623*
X00491Y0062*
Y00613*
X00453Y00575*
X00438*
X00434Y00574*
X00429Y00578*
Y00656*
X00471*
X00474Y00651*
G37*
G36*
X00309Y00662D02*
X00312Y0066D01*
X0031Y00655*
X00312Y00648*
X00314Y00645*
X00312Y00642*
X0031Y00635*
X00312Y00628*
X00314Y00625*
X00312Y00622*
X0031Y00615*
X00312Y00609*
X00314Y00605*
X00312Y00602*
X0031Y00596*
X00308Y00593*
X00293*
X0029Y00594*
X00286Y00593*
X00286*
X00279Y00592*
X00274Y00588*
X00273Y00587*
X00272Y00587*
X00267Y00579*
X00265Y0057*
X00267Y0056*
X00272Y00552*
X00276Y0055*
X00274Y00545*
X00089*
X00083Y00544*
X00077Y0054*
X00063Y00526*
X00059Y0052*
X00058Y00514*
Y00489*
X00053Y00485*
X0005Y00486*
X00043Y00485*
X00037Y00481*
X00033Y00477*
X00029Y00477*
X00028Y00479*
Y00593*
X00037Y00602*
X00037Y00603*
X00043Y00601*
X0005Y006*
X00056Y00601*
X00062Y00603*
X00063Y00603*
X00063Y00603*
X00077Y00589*
X00083Y00585*
X00089Y00584*
X00221*
X00227Y00585*
X00233Y00589*
X00307Y00663*
X00309Y00662*
G37*
G36*
X00429Y00816D02*
X00486Y00759D01*
X00492Y00755*
X00498Y00754*
X00505Y00755*
X0051Y00759*
X00514Y00762*
X00543*
X0055Y00757*
X0056Y00755*
X00569Y00757*
X00571Y00759*
X00575Y00755*
X00509Y00689*
X00507Y00691*
X00503Y00692*
X00503Y00695*
X00499Y00701*
X00419Y0078*
Y00813*
X00423Y00816*
X00428Y00817*
X00429Y00816*
G37*
G36*
X01452Y00981D02*
X01398D01*
Y00918*
X01414*
Y00857*
X0141Y00855*
X01337Y00928*
X01341Y00931*
X01365*
X01371Y00933*
X01377Y00937*
X01381Y00943*
X01383Y0095*
X01381Y00956*
X01377Y00962*
X01371Y00966*
X01365Y00968*
X01348*
X01346Y00972*
X01367Y00992*
X01452*
Y00981*
G37*
G36*
X00641Y01131D02*
X00568Y01059D01*
X00564Y01062*
X00555Y01064*
X00545Y01062*
X00537Y01057*
X00532Y01049*
X0053Y0104*
X00532Y0103*
X00537Y01022*
X00545Y01017*
X00555Y01015*
X00558Y01016*
X00561Y01013*
Y01004*
X00498*
Y01032*
X00602Y01136*
X0064*
X00641Y01131*
G37*
G36*
X01907Y01116D02*
Y01001D01*
X01892*
Y00917*
X01887Y00915*
X01887Y00917*
X01879Y00922*
X0187Y00924*
X01869Y00923*
X01865Y00927*
Y01001*
X01851*
Y01079*
X01856Y01082*
X01865Y0108*
X01874Y01082*
X01882Y01087*
X01887Y01095*
X01889Y01104*
X01902Y01118*
X01907Y01116*
G37*
G36*
X02277Y01037D02*
X02247Y01008D01*
X0213*
X02123Y01006*
X02117Y01002*
X02082Y00968*
X02029*
Y01118*
X02033Y01121*
X02035Y0112*
X02044Y01122*
X02052Y01127*
X02054Y01131*
X0206*
Y01116*
X02189*
Y01215*
X02143*
Y01232*
X02159Y01248*
X02277*
Y01037*
G37*
G36*
X02322Y00667D02*
X02317Y00665D01*
X02309Y00672*
X02303Y00675*
X02302Y0068*
X02302Y0068*
X02304Y0069*
X02302Y00699*
X02297Y00707*
X02289Y00712*
X0228Y00714*
X0227Y00712*
X02262Y00707*
X02257Y00699*
X02255Y0069*
X02257Y00684*
X02256Y00682*
X02244Y00679*
X0224Y00692*
X02234Y00705*
X02225Y00715*
X02216Y00723*
X02217Y00728*
X02223Y00732*
X02229Y00738*
X02233Y00744*
X02234Y0075*
Y0076*
X0226Y00786*
X02301*
Y00853*
X02238*
Y00812*
X02208Y00782*
X02203Y00784*
Y00912*
X02247Y00956*
X02251Y00954*
Y00886*
X02253Y0088*
X02257Y00874*
X02263Y0087*
X0227Y00868*
X02276Y0087*
X02282Y00874*
X02286Y0088*
X02288Y00886*
Y00975*
X02286Y00981*
X02282Y00987*
X0228Y0099*
X02308Y01017*
X02312Y01023*
X02313Y0103*
Y01484*
X02312Y01491*
X02308Y01497*
X02293Y01512*
Y0184*
X02291Y01846*
X02287Y01852*
X02281Y01856*
X02275Y01858*
X02268Y01856*
X02262Y01852*
X02258Y01846*
X02256Y0184*
Y018*
X02256Y01796*
X02177*
X02152Y01822*
X02146Y01825*
X0214Y01827*
X02017*
X02015Y01832*
X02017Y01832*
X02022Y0184*
X02024Y0185*
X02022Y01859*
X02021Y01859*
X02024Y01864*
X0214*
X02146Y01865*
X02152Y01867*
X02158Y01871*
X02258Y01971*
X02322*
Y00667*
G37*
G36*
X00132Y0205D02*
X00132Y02049D01*
X00128Y02036*
X00126Y02022*
Y01785*
X00128Y01771*
X00132Y01758*
X00135Y01752*
X00137Y01745*
X00143Y01733*
X00152Y01722*
X00163Y01713*
X00175Y01707*
X00333Y01549*
X00343Y0154*
X00353Y01535*
Y01385*
X00354Y01376*
X00357Y01369*
X00362Y01362*
X00369Y01357*
X00376Y01354*
X00385Y01353*
X00393Y01354*
X004Y01357*
X00401Y01357*
X0066*
X00668Y0135*
X00674Y01346*
X0068Y01345*
X00722*
X00728Y01346*
X00734Y0135*
X00752Y01367*
X00755Y01373*
X00757Y0138*
X00755Y01386*
X00752Y01392*
X00746Y01395*
X0074Y01397*
X00733Y01395*
X00727Y01392*
X00718Y01382*
X00715Y01384*
X00714Y01385*
X00712Y01394*
X00707Y01402*
X00699Y01407*
X0069Y01409*
X0068Y01407*
X00672Y01402*
X00667Y01394*
X00667Y01392*
X00612*
Y01408*
X00626*
Y01424*
X00708*
Y01413*
X00766*
X00767Y01405*
X00772Y01397*
X0078Y01392*
X0079Y0139*
X00799Y01392*
X00807Y01397*
X00808Y01399*
X00814*
X00815Y01398*
X01051Y01161*
X01212Y01001*
X01211Y00994*
X01207Y00992*
X01202Y00984*
X012Y00975*
X01202Y00968*
X01195Y00967*
X01187Y00962*
X01182Y00954*
X0118Y00945*
X01182Y00935*
X01187Y00927*
X01195Y00922*
X01205Y0092*
X01214Y00922*
X01222Y00927*
X01227Y00935*
X01229Y00945*
X01227Y00951*
X01234Y00952*
X01235Y00953*
X01237Y00951*
X01281Y00907*
X01286Y00903*
X01292Y00902*
X0129Y00894*
X01292Y00885*
X01297Y00877*
X01305Y00872*
X01311Y00871*
X0131Y0087*
X01312Y0086*
X01317Y00852*
X01325Y00847*
X01335Y00845*
X01344Y00847*
X01352Y00852*
X01354Y00857*
X01359Y00857*
X0139Y00827*
Y008*
X01391Y00794*
X01395Y00788*
X01408Y00775*
X01414Y00771*
X01417Y0077*
X01419Y00765*
X01403Y0075*
X01391*
Y00766*
X01377*
Y008*
X01375Y00806*
X01372Y00812*
X01366Y00815*
X0136Y00817*
X01251*
X01244Y00815*
X01239Y00812*
X01227Y008*
X01223Y00797*
X01219Y00791*
X01218Y00785*
Y00781*
X01213Y00776*
X01211Y00777*
X01108*
X01104Y00782*
X01104Y00785*
X01103Y00791*
X01101Y00797*
X01097Y00803*
X01091Y00807*
X01085Y00809*
X01078Y0081*
X01039*
X01033Y00812*
X00981*
Y00828*
X00861*
Y0083*
X00798*
Y00823*
X00793Y00819*
X00786Y00821*
X00777Y00819*
X00777Y00818*
X00772Y00821*
Y00928*
X00771Y00934*
X00767Y0094*
X00761Y00946*
X00755Y0095*
X00749Y00951*
X00674*
X00667Y0095*
X00665Y00948*
X00623*
Y00897*
X00611*
Y00953*
X00548*
Y00902*
X00543Y00899*
X00539Y00902*
X0053Y00904*
X0052Y00902*
X00516Y00899*
X00511Y00902*
Y00958*
X00456*
X00451*
Y00968*
X00456Y0097*
X00457Y00969*
X00463Y00965*
X0047Y00963*
X00476Y00965*
X00482Y00969*
X00482Y00969*
X00485Y00968*
X00572*
X00578Y00965*
X00585Y00963*
X0083*
X00857Y00937*
X00863Y00933*
X0087Y00931*
X00876Y00933*
X00882Y00937*
X00886Y00943*
X00888Y0095*
X00886Y00956*
X00882Y00962*
X0085Y00994*
X00844Y00998*
X00838Y00999*
X00729*
X00727Y01004*
X00732Y01007*
X00737Y01015*
X00739Y01025*
X00737Y01032*
X00739Y01032*
X00747Y01037*
X00752Y01045*
X00754Y01055*
X00752Y01064*
X00747Y01072*
X00739Y01077*
X0073Y01079*
X0072Y01077*
X00712Y01072*
X00707Y01064*
X00705Y01055*
X00707Y01047*
X00705Y01047*
X00697Y01042*
X00692Y01034*
X0069Y01025*
X00692Y01015*
X00697Y01007*
X00702Y01004*
X007Y00999*
X00673*
Y01112*
X00702Y01142*
X00706Y01148*
X00708Y01155*
X00706Y01161*
X00702Y01167*
X00696Y01171*
X0069Y01173*
X00595*
X00588Y01171*
X00582Y01167*
X00467Y01052*
X00463Y01046*
X00462Y0104*
X00459Y01039*
X00456Y01038*
X00451Y01042*
X00444Y01043*
X00436*
X00435Y01048*
X00439Y0105*
X0045Y01059*
X00459Y0107*
X00465Y01082*
X00469Y01096*
X00471Y0111*
X00469Y01123*
X00465Y01137*
X00459Y01149*
X0045Y0116*
X00439Y01169*
X00427Y01175*
X00413Y01179*
X004Y01181*
X00386Y01179*
X00372Y01175*
X0036Y01169*
X00349Y0116*
X0034Y01149*
X00334Y01137*
X0033Y01123*
X00328Y0111*
X0033Y01096*
X00334Y01082*
X0034Y0107*
X00349Y01059*
X0036Y0105*
X00372Y01044*
X00374Y01043*
X00374Y01038*
X00374Y01038*
X00328Y00992*
X00324Y00986*
X00323Y00979*
Y00967*
X00315Y00959*
X00155*
X00148Y00958*
X00142Y00954*
X00138Y00948*
X00136Y00941*
X00138Y00935*
X00142Y00929*
X00158Y00913*
X00156Y00908*
X00123*
Y00846*
X0012Y00844*
X0011Y00842*
X00104Y00838*
X00099Y0084*
Y01354*
X00156*
Y01415*
X00107*
Y02054*
X00129*
X00132Y0205*
G37*
G36*
X01247Y01202D02*
Y01045D01*
X01243Y01043*
X01169Y01117*
Y01205*
Y0127*
X0118*
X01247Y01202*
G37*
G36*
X00337Y00155D02*
X00335Y0015D01*
X00337Y0014*
X00342Y00132*
X0035Y00127*
X00356Y00126*
X00357Y00121*
X00347Y0011*
X00343Y00104*
X00341Y00098*
Y0007*
X00337Y00066*
X00281*
X00281Y00066*
X00277Y00072*
X00272Y00076*
X00272Y00076*
X00273Y00081*
X00296*
Y00122*
X00332Y00158*
X00337Y00155*
G37*
G36*
X00246Y00048D02*
Y00048D01*
X00248Y00041*
X0025Y00037*
X00248Y00032*
X0024*
X00233Y00031*
X00227Y00027*
X00223Y00023*
X00139*
X00137Y00028*
X00145Y00034*
X00154Y00045*
X0016Y00057*
X00164Y00071*
X00166Y00085*
X00164Y00097*
X00166Y001*
X00169Y00102*
X00175Y001*
X00184Y00102*
X00189Y00106*
X00246Y00048*
G37*
G36*
X01068Y00244D02*
X01073Y00241D01*
X01074Y00235*
X01069Y0023*
X0096*
X00953Y00229*
X00947Y00225*
X00922Y002*
X00917Y00202*
Y00249*
X00837*
X00829Y00256*
X0083Y00261*
X00832Y00262*
X00837Y0027*
X00839Y0028*
X00837Y00289*
X00832Y00297*
X00824Y00302*
X00815Y00304*
X00805Y00302*
X00797Y00297*
X00796Y00295*
X00791Y00294*
X00776Y0031*
X0077Y00314*
X00764Y00315*
X00754*
X00728Y0034*
X0073Y00345*
X00785*
X00787Y00345*
X00792Y00341*
Y0032*
X00878*
X00928Y0027*
Y00245*
X00991*
Y00312*
X00937*
X00917Y00331*
Y00388*
X00922Y0039*
X01068Y00244*
G37*
G36*
X00551Y00033D02*
X00549Y00028D01*
X00498*
X00494Y00031*
X00487Y00033*
X00419*
X00413Y00031*
X00361*
X00359Y00036*
X00367Y00045*
X00539*
X00551Y00033*
G37*
G36*
X02184Y00172D02*
X02189Y00165D01*
X02192Y00161*
Y00095*
X02194Y00086*
X02199Y00079*
X02206Y00074*
X02215Y00072*
X02219Y00073*
X02221Y00069*
X02185Y00033*
X0216*
X02157Y00038*
X02159Y00045*
X02157Y00054*
X02154Y00058*
X02157Y00063*
X02181*
Y00126*
X0217*
Y00162*
X02172Y00163*
X02177Y00171*
X02178Y00176*
X02183*
X02184Y00172*
G37*
G36*
X00485Y00191D02*
X00575D01*
X00597Y00169*
Y00144*
X00598Y00138*
X00602Y00132*
X00608Y00126*
X00613Y00123*
Y00071*
X00676*
Y00122*
X00681Y00124*
X00692Y00112*
Y00076*
X00687Y00069*
X00685Y0006*
X00686Y00058*
X00683Y00054*
X00652*
X00651Y00054*
X00645Y00056*
X00579*
X00559Y00075*
X00553Y00079*
X00546Y00081*
X00378*
Y0009*
X00467Y0018*
X00471Y00186*
X00473Y00193*
X00471Y00199*
X00467Y00205*
X00461Y00209*
X00455Y00211*
X00448Y00209*
X00442Y00205*
X00428Y00192*
X00424Y00195*
Y00226*
X00485*
Y00191*
G37*
G36*
X02076Y00724D02*
Y006D01*
X02103*
Y0058*
X02105Y00567*
X02104Y00565*
X02101Y00562*
X0209*
X02085Y00561*
X02081Y00558*
X02078Y00554*
X02077Y0055*
Y00415*
X02078Y0041*
X02081Y00406*
X02085Y00403*
X0209Y00402*
X02225*
X02229Y00403*
X02233Y00406*
X02233Y00406*
X02258*
Y00396*
Y00391*
Y00357*
X02235Y00334*
X0223Y00336*
X02229Y00337*
X02227Y00343*
X02223Y00349*
X02217Y00353*
X02211Y00355*
X02205Y00356*
X02176*
X02175Y00357*
X02032*
Y0055*
X02031Y00554*
X02028Y00558*
X02024Y00561*
X0202Y00562*
X01977*
Y00641*
X01977Y00642*
X01979Y00648*
X0198Y00655*
X01979Y00661*
X01977Y00667*
X01973Y00673*
X01963Y00683*
X01957Y00687*
X01951Y00689*
X01945Y0069*
X01938Y00689*
X01932Y00687*
X01928Y00684*
X01911*
X01908Y00688*
X01909Y0069*
X01907Y00699*
X01903Y00705*
X01907Y00711*
X01909Y0072*
X01911Y00723*
X02062*
X02069Y00725*
X02071Y00727*
X02076Y00724*
G37*
G36*
X01672Y00539D02*
Y00402D01*
X01649*
Y00414*
X01611*
X01607Y00419*
X01609Y00425*
X01607Y00434*
X01602Y00442*
X01594Y00447*
X01585Y00449*
X01575Y00447*
X01567Y00442*
X01565Y00438*
X01559*
X01557Y00442*
X01549Y00447*
X0154Y00449*
X0153Y00447*
X01522Y00442*
X01517Y00434*
X01515Y00425*
X01517Y00415*
X0152Y00412*
Y0035*
X01515Y00346*
X01511Y00346*
X01465*
X01457Y00345*
X0145Y00342*
X01443Y00337*
X01411Y00305*
X01406Y00298*
X01402Y00291*
X01402Y00289*
X01397Y00288*
X01396Y00289*
X01388Y00296*
X01378Y003*
X01367Y00301*
X01356Y003*
X01346Y00296*
X01338Y00289*
X01331Y0028*
X01327Y0027*
X01325Y0026*
X01327Y00249*
X01331Y00239*
X01338Y0023*
X01346Y00223*
X01356Y00219*
X01367Y00218*
X01378Y00219*
X01388Y00223*
X01396Y0023*
X01398Y0023*
X01401Y00228*
Y00191*
X01394*
X01388Y00196*
X01378Y002*
X01367Y00201*
X01356Y002*
X01346Y00196*
X0134Y00191*
X01272*
X01267Y00196*
X01257Y002*
X01246Y00201*
X01235Y002*
X01225Y00196*
X01219Y00191*
X01151*
X01145Y00196*
X01135Y002*
X01125Y00201*
X01114Y002*
X01104Y00196*
X01095Y00189*
X01088Y0018*
X01084Y0017*
X01083Y0016*
X01084Y00149*
X01088Y00139*
X01095Y0013*
X01104Y00123*
X01114Y00119*
X01125Y00118*
X01135Y00119*
X01145Y00123*
X01151Y00128*
X01219*
X01225Y00123*
X01235Y00119*
X01246Y00118*
X01257Y00119*
X01267Y00123*
X01272Y00128*
X0134*
X01346Y00123*
X01356Y00119*
X01367Y00118*
X01378Y00119*
X01388Y00123*
X01394Y00128*
X01462*
X01467Y00123*
X01477Y00119*
X01488Y00118*
X01499Y00119*
X01509Y00123*
X01515Y00128*
X01583*
X01589Y00123*
X01599Y00119*
X0161Y00118*
X0162Y00119*
X0163Y00123*
X01639Y0013*
X01646Y00139*
X0165Y00149*
X01651Y0016*
X0165Y0017*
X01646Y0018*
X01639Y00189*
X01632Y00194*
X01631Y002*
X01643Y00212*
X0165Y00211*
X01652Y00207*
X0166Y00202*
X0167Y002*
X01674Y00201*
X01677Y00198*
Y00165*
X01678Y0016*
X01681Y00156*
X01685Y00153*
X0169Y00152*
X01796*
X01872Y00076*
X01878Y00072*
X01884Y0007*
X01891Y00069*
X0194*
X01946Y0007*
X01952Y00072*
X01958Y00076*
X01962Y00082*
X01964Y00088*
X01965Y00095*
X01964Y00101*
X01962Y00107*
X01958Y00113*
X01952Y00117*
X01946Y00119*
X0194Y0012*
X01901*
X01871Y0015*
X01873Y00155*
X01955*
X01961Y00156*
X01967Y00158*
X01973Y00162*
X01976Y00167*
X0198Y00167*
X01982Y00167*
X01984Y00165*
Y00126*
X01973*
Y00063*
X0204*
Y00126*
X02029*
Y00167*
X02034Y00168*
X02037Y00163*
X02045Y00158*
X02055Y00156*
X02064Y00158*
X02072Y00163*
X02077Y0017*
X02079Y00171*
X0208*
X02082Y0017*
X02087Y00163*
X02095Y00158*
X02105Y00156*
X02114Y00158*
X0212Y00162*
X02125Y0016*
Y00126*
X02114*
Y00063*
X02115Y00058*
X02112Y00054*
X0211Y00045*
X02112Y00038*
X02109Y00033*
X0086*
X00859Y00035*
X00857Y00044*
X00852Y00052*
X00846Y00055*
X00844Y00061*
X00894Y00111*
X00898Y00117*
X00899Y00124*
Y00126*
X00905Y00132*
X00911*
X00918Y00134*
X00923Y00137*
X0093Y00144*
X00934Y0015*
X00936Y00157*
Y00162*
X00967Y00194*
X01077*
X01084Y00195*
X0109Y00199*
X01129Y00238*
X01133Y00239*
X0114Y00244*
X01325Y00429*
X0142Y00524*
X01585*
X01593Y00525*
X016Y0053*
X01605Y00537*
X01607Y00546*
Y00591*
X01607Y00591*
X0161Y00595*
X01617*
X01672Y00539*
G37*
G36*
X01182Y00616D02*
X01188Y00612D01*
X01194Y0061*
X01201Y00609*
X01271*
X01278Y0061*
X01282Y00611*
X01287Y00609*
Y00454*
X01115Y00282*
X01093*
X00937Y00438*
X0093Y00442*
X00922Y00444*
X00755*
X00752Y00449*
X00744Y00456*
X00746Y00461*
X00771*
Y00519*
X0091*
X00941Y00489*
Y00448*
X00973*
X00976Y00444*
X00975Y0044*
X00977Y0043*
X00982Y00422*
X0099Y00417*
X01Y00415*
X01009Y00417*
X01017Y00422*
X01018Y00425*
X01022Y00427*
X01042Y00448*
X01075*
Y00508*
Y00549*
X01144Y00617*
X01181*
X01182Y00616*
G37*
G36*
X01662Y00696D02*
X0167Y00691D01*
X01678Y0069*
X01693*
X0173Y00653*
X0173Y00653*
X01732Y00647*
X01736Y00641*
X01742Y00637*
X01748Y00635*
X01755Y00634*
X01761Y00635*
X01767Y00637*
X01773Y00641*
X01774Y00642*
X01793*
X01795Y00641*
X01803Y0064*
X01826*
X01832Y00641*
X01838Y0064*
X01861*
X01865Y0064*
X01868Y0064*
X01932*
Y00562*
X0189*
X01885Y00561*
X01881Y00558*
X01878Y00554*
X01874Y00556*
X0187Y00557*
X01718*
X01623Y00652*
Y00706*
X01652*
X01662Y00696*
G37*
G36*
X00376Y00385D02*
Y00323D01*
X00407*
X00409Y00318*
X00408Y00317*
X00404Y00312*
X00403Y00305*
Y00293*
X00252*
X0025Y00298*
X00321Y00368*
X00326Y00366*
Y00355*
X00327Y00348*
X00331Y00342*
X00336Y00339*
X00343Y00337*
X00349Y00339*
X00355Y00342*
X00358Y00348*
X0036Y00355*
Y00377*
X00364Y0038*
X00372Y00387*
X00376Y00385*
G37*
G36*
X00074Y00433D02*
X00075Y00426D01*
X00077Y0042*
X00081Y00414*
X00081Y00414*
Y004*
X0008Y00395*
X00082Y00385*
X00087Y00377*
X00095Y00372*
X00105Y0037*
X00114Y00372*
X0012Y00376*
X00125Y00373*
X00125Y0037*
X00124Y00368*
X0012Y00367*
X00112Y00362*
X00107Y00354*
X00105Y00345*
X00103Y00342*
X00084*
X00081Y00341*
X00076Y00343*
Y00343*
X00028*
Y00361*
X00029Y00362*
X00033Y00363*
X00038Y0036*
X00045Y00358*
X00051Y0036*
X00057Y00364*
X00061Y0037*
X00063Y00376*
Y00451*
X00074*
Y00433*
G37*
G36*
X0069Y00477D02*
Y00469D01*
X00691Y00462*
X00695Y00457*
X00719Y00433*
X00717Y00428*
X00719Y00419*
X00723Y00413*
X00722Y00409*
X00721Y00408*
X00715Y00407*
X00707Y00402*
X00706Y004*
X007*
X00699Y00402*
X00657Y00444*
Y00472*
X00657Y00472*
X00664Y00474*
X00669Y00477*
X00672Y0048*
X00687*
X0069Y00477*
G37*
G36*
X01095Y01545D02*
X01096Y01538D01*
X011Y01532*
X01106Y01528*
X01113Y01526*
Y0152*
X01103*
X01102Y01521*
X01096Y01525*
X01089Y01526*
X01076*
Y01556*
X01013*
Y01493*
X0101Y01489*
X01Y01487*
X00992Y01482*
X0099Y01478*
X00983Y01477*
X00965Y01495*
X0096Y01499*
X00953Y015*
X00928*
X00922Y01499*
X00916Y01495*
X00908Y01487*
X00905Y01487*
X00897Y01482*
X00892Y01474*
X0089Y01465*
X00892Y01455*
X00897Y01448*
X00893Y01445*
X00829Y0151*
Y01531*
X00839Y01534*
X00851Y0154*
X00862Y01549*
X00871Y0156*
X00877Y01572*
X00881Y01586*
X00883Y016*
Y01621*
X00993*
X00994Y01616*
X00987Y01612*
X00982Y01604*
X0098Y01595*
X00982Y01585*
X00987Y01577*
X00995Y01572*
X01005Y0157*
X01014Y01572*
X01022Y01577*
X01024Y0158*
X01029Y0158*
X01032Y01577*
X01038Y01573*
X01045Y01571*
X01051Y01573*
X01057Y01577*
X01061Y01583*
X01063Y0159*
Y01621*
X01095*
Y01545*
G37*
G36*
X01893Y016D02*
X01894Y0159D01*
X01762Y01457*
X01758Y01451*
X01756Y01445*
X01758Y01438*
X01762Y01432*
X01768Y01428*
X01775Y01426*
X01839*
X01845Y01421*
X01843Y01416*
X01741*
X01741Y01421*
Y01476*
X01678*
X01675Y01478*
X01669Y01479*
X01655*
X01642Y01492*
Y01502*
X01662*
Y01516*
X01693*
Y01499*
X01756*
Y01566*
X01693*
Y0155*
X01663*
X01662Y01551*
Y01587*
X01131*
Y01621*
X01706*
Y016*
X01708Y01593*
X01712Y01587*
X01718Y01583*
X01725Y01581*
X01731Y01583*
X01737Y01587*
X01741Y01593*
X01743Y016*
X01745Y016*
X01748Y016*
X01752Y01592*
X0176Y01587*
X0177Y01585*
X01779Y01587*
X01787Y01592*
X01792Y016*
X01794Y0161*
X01792Y01616*
X01796Y01621*
X01893*
Y016*
G37*
G36*
X01156Y01768D02*
X01156Y01767D01*
X01153Y01763*
X01125*
X01117Y01763*
X0111Y01763*
X00702*
X00688Y01762*
X00675Y01758*
X00662Y01751*
X00652Y01742*
X00643Y01732*
X00636Y01719*
X00632Y01706*
X00631Y01692*
X00632Y01678*
X00633Y01675*
X0063Y01671*
X00413*
X00358Y01725*
X0036Y0173*
X0042*
Y01754*
X00424Y01757*
X00426Y01756*
X00434Y01755*
X00508*
X00516Y01756*
X00524Y01759*
X0053Y01764*
X00599*
Y01782*
X01087*
X01095Y01783*
X01103Y01786*
X01109Y01791*
X01114Y01797*
X01131*
Y0182*
X01133Y01821*
X01134Y01822*
X01156*
Y01768*
G37*
G36*
X02153Y01772D02*
Y01693D01*
X02232*
X02238Y01687*
Y01516*
X02185*
X02178Y01515*
X02172Y01511*
X02169Y01506*
X02167Y01499*
Y01491*
X02074*
Y01432*
X0207Y0143*
X02038Y01462*
X02033Y01465*
X02026Y01467*
X01995*
Y01481*
X01928*
Y01418*
X01982*
X01982Y01415*
X01987Y01407*
X01991Y01405*
X01992Y01398*
X01991Y01398*
X01983*
X01976Y01396*
X0197Y01392*
X01969Y01392*
X01967Y01397*
X01959Y01402*
X0195Y01404*
X0194Y01402*
X01932Y01397*
X0193Y01393*
X01925Y01392*
X01924Y01393*
X01909Y01408*
X01903Y01412*
X01896Y01413*
X01891*
Y01418*
X0189Y01425*
X01889Y01426*
X01895Y01432*
X01901Y01433*
X01907Y01437*
X01911Y01443*
X01913Y0145*
Y01522*
X01929Y01538*
X01937Y01534*
X0195Y0153*
X01964Y01528*
X01978Y0153*
X01992Y01534*
X02001Y01539*
X02002Y01537*
X02008Y01534*
X02014Y01532*
X02205*
X02211Y01534*
X02217Y01537*
X0222Y01543*
X02222Y0155*
X0222Y01556*
X02217Y01562*
X02211Y01565*
X02205Y01567*
X02032*
X02029Y01571*
X0203Y01572*
X02034Y01586*
X02035Y016*
Y01621*
X02077*
X02091Y01622*
X02104Y01626*
X02117Y01633*
X02127Y01642*
X02136Y01653*
X02143Y01665*
X02147Y01678*
X02148Y01692*
X02147Y01706*
X02143Y01719*
X02136Y01732*
X02127Y01742*
X02117Y01751*
X02104Y01758*
X02091Y01762*
X02077Y01763*
X01964*
X01962Y01768*
X01967Y01775*
X01969Y01785*
X01968Y01789*
X01971Y01792*
X02132*
X02153Y01772*
G37*
G36*
X00567Y01502D02*
X00552Y01486D01*
X00548Y01481*
X00547Y01474*
Y01415*
X00548Y01409*
X00552Y01403*
X00558Y01397*
X00559Y01397*
X00557Y01392*
X00416*
Y01528*
X00567*
Y01502*
G37*
G36*
X0099Y01423D02*
X00995Y01419D01*
X01002Y01418*
X0112*
X01126Y01419*
X01127Y0142*
X01159*
X01165Y01421*
X0117Y01424*
X01179Y01415*
X01184Y01411*
X01191Y0141*
X01194*
Y01396*
X01083*
Y01382*
X00957*
X00895Y01443*
X00898Y01447*
X00905Y01442*
X00915Y0144*
X00924Y01442*
X00932Y01447*
X00937Y01455*
X00939Y01465*
X0094Y01466*
X00946*
X0099Y01423*
G37*
G36*
X00794Y01503D02*
X00796Y01496D01*
X00798Y01492*
X00796Y01487*
X00795Y01487*
X00788Y01482*
X00758*
X00751Y0148*
X0075Y0148*
X00708*
Y01458*
X00626*
Y01475*
X00595*
X00594Y0148*
X00597Y01483*
X006Y01488*
X00602Y01495*
Y01528*
X00794*
Y01503*
G37*
G36*
X01667Y018D02*
X01672Y01792D01*
X0168Y01787*
X0169Y01785*
X01699Y01787*
X01706Y01792*
X01772*
X01775Y01789*
X01774Y01786*
X01776Y01776*
X01781Y01768*
X01782Y01768*
X01781Y01763*
X01197*
X01194Y01767*
X01194Y01768*
X01193Y01775*
X01192Y01776*
Y01797*
X01662*
Y018*
X01667Y018*
X01667Y018*
G37*
G36*
X01271Y02958D02*
X01275Y02955D01*
X01274Y0294*
Y02902*
X01269Y02898*
X01266Y02899*
X0126Y029*
X01161*
X01159Y02905*
X01211Y02956*
X01263*
X0127Y02958*
X0127Y02958*
X01271Y02958*
G37*
G36*
X01831Y0309D02*
X01828Y03087D01*
X01761Y03019*
X01691*
Y02941*
X01657Y02907*
X01654Y02903*
X0165Y02904*
X0164Y02902*
X01639Y02901*
X01637Y02904*
X01629Y02909*
X0162Y02911*
X0161Y02909*
X01602Y02904*
X01599Y02899*
X01596Y02902*
X01586Y02904*
X01583Y02903*
X01579Y02906*
Y02952*
X01578Y02958*
X01576Y02961*
X01576Y02961*
X01572Y02967*
X01477Y03063*
X01471Y03067*
X01464Y03068*
X01339*
X01332Y03067*
X01326Y03063*
X01256Y02993*
X01203*
X01196Y02991*
X0119Y02987*
X01091Y02888*
X01085Y02889*
X01083Y02893*
X01071Y02905*
X01073Y0291*
X01073*
Y03039*
X00995*
X00958Y03076*
X00953Y0308*
X00947Y03083*
X0094Y03084*
X00778*
X00771Y03083*
X00765Y0308*
X00759Y03076*
X00727Y03043*
X0061*
X00605Y03052*
X00598Y03061*
X00589Y03069*
X00578Y03074*
X00566Y03078*
X00555Y03079*
X00543Y03078*
X00531Y03074*
X0052Y03069*
X00511Y03061*
X00504Y03052*
X00498Y03041*
X00494Y0303*
X00493Y03018*
X00494Y03006*
X00498Y02994*
X00504Y02984*
X00511Y02974*
X0052Y02967*
X00531Y02961*
X00543Y02957*
X00555Y02956*
X00566Y02957*
X00578Y02961*
X00589Y02967*
X00598Y02974*
X00605Y02984*
X0061Y02992*
X00738*
X00744Y02993*
X00748Y02994*
X00751Y0299*
X00751Y0299*
X00744Y02974*
X0074Y02957*
X00739Y0294*
X00739Y02935*
X00739Y0293*
Y02765*
X00652*
Y02417*
X00648Y02414*
X00648Y02414*
X00611*
X00605Y02413*
X00599Y02409*
X00596Y02406*
X00591Y02408*
Y0252*
X00605Y02534*
X00614Y02545*
X0062Y02557*
X00624Y02571*
X00626Y02585*
X00624Y02598*
X0062Y02612*
X00614Y02624*
X00605Y02635*
X00594Y02644*
X00582Y0265*
X00568Y02654*
X00555Y02656*
X00541Y02654*
X00527Y0265*
X00515Y02644*
X00504Y02635*
X00469Y026*
X0046Y02589*
X00454Y02577*
X0045Y02563*
X00448Y0255*
Y02476*
X00362*
X0036Y02481*
X00369Y02485*
X00379Y02493*
X0044*
Y02596*
X00401*
Y02614*
X00404Y02614*
X00405Y02615*
X00406Y02615*
X00413Y02618*
X0042Y02621*
X00421Y02622*
X00422Y02622*
X00428Y02626*
X00435Y0263*
X00435Y02631*
X00437Y02632*
X00442Y02636*
X00448Y02641*
X00449Y02642*
X00449Y02643*
X00454Y02649*
X00459Y02655*
X0046Y02656*
X0046Y02657*
X00464Y02663*
X00468Y02669*
X00469Y0267*
X00469Y02672*
X00472Y02678*
X00475Y02685*
X00475Y02687*
X00475Y02688*
X00477Y02695*
X00479Y02702*
X00479Y02703*
X00479Y02705*
X0048Y02712*
X0048Y0272*
X0048Y02721*
X0048Y02722*
X00476Y0291*
X00479Y02922*
X0048Y0294*
X00479Y02957*
X00475Y02974*
X00468Y0299*
X00459Y03005*
X00448Y03018*
X00435Y03029*
X0042Y03038*
X00404Y03045*
X00387Y03049*
X0037Y0305*
X00366Y0305*
X00362Y0305*
X00345Y03048*
X00328Y03044*
X00312Y03037*
X00307Y03034*
X00265Y03076*
X00259Y0308*
X00253Y03083*
X00246Y03084*
X00106*
X00099Y03083*
X00093Y0308*
X00087Y03076*
X00018Y03007*
X00014Y03001*
X00011Y02995*
X0001Y02988*
Y02198*
X00011Y02191*
X00014Y02185*
X00018Y02179*
X00061Y02137*
Y02115*
X00012*
Y02054*
X00056*
Y01415*
X00007*
X00002Y01415*
Y03095*
X0183*
X01831Y0309*
G37*
G36*
X0027Y02997D02*
X00265Y02987D01*
X00259Y02971*
X00257Y02963*
X00252Y02962*
X00244Y02975*
X00233Y02988*
X0022Y02999*
X00205Y03008*
X00189Y03015*
X00172Y03019*
X00155Y0302*
X00137Y03019*
X0012Y03015*
X00104Y03008*
X00092Y03*
X00089Y03004*
X00116Y03032*
X00236*
X0027Y02997*
G37*
G36*
X01545Y02943D02*
Y02906D01*
X01541Y02903*
X0154Y02904*
X0153Y02902*
X01522Y02897*
X01517Y02889*
X01515Y0288*
X01517Y0287*
X01522Y02862*
X0153Y02857*
X0154Y02855*
X01545Y02856*
X01547Y02852*
X01572Y02827*
X01578Y02824*
X01585Y02822*
X0162*
X01626Y02824*
X01632Y02827*
X01635Y02833*
X01637Y0284*
X01635Y02846*
X01632Y02852*
X01626Y02855*
X0162Y02857*
X01604*
X01602Y02862*
X01604Y02862*
X01607Y02867*
X0161Y02865*
X0162Y02863*
X01629Y02865*
X0163Y02866*
X01632Y02862*
X0164Y02857*
X0165Y02855*
X01659Y02857*
X01661Y02859*
X01664Y02857*
X01671Y02854*
X0168Y02853*
X01688Y02854*
X01695Y02857*
X01702Y02862*
X01729Y0289*
X0179*
Y02959*
X01804Y02973*
X01809Y0297*
X01805Y02957*
X01804Y0294*
X01805Y02932*
X01804Y02925*
Y02765*
X01707*
Y02387*
X02122*
Y02765*
X02071*
X02068Y02769*
X02069Y02775*
X02067Y02784*
X02062Y02791*
X02063Y02796*
X02063Y02796*
X02063Y02796*
X0207Y02795*
X0217*
Y02783*
X02171Y02777*
X02173Y02771*
X02177Y02765*
X02181Y02761*
X02239Y02704*
Y02455*
X0223Y0245*
X02221Y02443*
X02214Y02434*
X02208Y02423*
X02204Y02411*
X02203Y024*
X02204Y02388*
X02208Y02376*
X02214Y02365*
X02221Y02356*
X0223Y02349*
X02241Y02343*
X02241Y02343*
X02242Y0234*
X02246Y02335*
X02246Y02333*
X02245Y0233*
X02241Y02329*
X02229Y02324*
X02218Y02316*
X02216Y02313*
X02211Y02315*
Y02325*
X02151*
Y02328*
X02088*
Y02321*
X02055*
X02055Y02321*
X02051Y02327*
X02045Y02331*
X0204Y02332*
X02032Y02335*
X02024Y02336*
X01715*
X01706Y02335*
X01699Y02332*
X01692Y02327*
X01691Y02326*
X01686Y02327*
Y02365*
Y02369*
Y02436*
Y02436*
Y02503*
X01623*
Y02455*
X0161Y02442*
X01601Y02433*
X016Y02431*
X01595Y02432*
Y02603*
X016Y02606*
X01605Y02602*
X01615Y026*
X01624Y02602*
X01632Y02607*
X01637Y02615*
X01639Y02625*
X01637Y02634*
X01632Y02642*
X01624Y02647*
X01615Y02649*
X01605Y02647*
X016Y02643*
X01595Y02646*
Y02765*
X01586*
X01583Y02769*
X01584Y02775*
X01582Y02784*
X01577Y02792*
X01569Y02797*
X0156Y02799*
X0155Y02797*
X01542Y02792*
X01537Y02784*
X01535Y02775*
X01536Y02769*
X01533Y02765*
X01495*
Y0294*
X01494Y02957*
X0149Y02974*
X01483Y0299*
X01474Y03005*
X01463Y03018*
X01455Y03024*
X01457Y0303*
X01459Y0303*
X01545Y02943*
G37*
G36*
X00503Y02227D02*
Y02206D01*
X00504Y02197*
X00507Y0219*
X00512Y02183*
X00555Y0214*
X00562Y02135*
X00569Y02132*
X00577Y02131*
X00582*
Y01912*
X00583Y01906*
X00539Y01863*
X0047*
Y01845*
X00465Y01843*
X00459Y01847*
X0045Y01849*
X0044Y01847*
X00432Y01842*
X00427Y01834*
X00426Y01826*
X0042*
Y01859*
X00321*
Y01845*
X00318Y01842*
X00315Y01842*
X00306Y01841*
X003Y01837*
X00297Y0184*
X00299Y0185*
X00297Y01859*
X00292Y01867*
X00284Y01872*
X00275Y01874*
X00273Y01873*
X00269Y01876*
Y01886*
X00274Y01888*
X00277Y01882*
X00285Y01877*
X00295Y01875*
X00304Y01877*
X00312Y01882*
X00317Y0189*
X00319Y019*
X00317Y01909*
X00312Y01917*
X00304Y01922*
X00295Y01924*
X00285Y01922*
X00277Y01917*
X00274Y01911*
X00269Y01913*
Y01993*
X00274Y01999*
X0028Y02012*
X00284Y02025*
X00285Y0203*
X0029Y02031*
X00292Y02027*
X003Y02022*
X0031Y0202*
X00319Y02022*
X00327Y02027*
X00332Y02035*
X00334Y02045*
X00332Y02054*
X00327Y02062*
X00325Y02062*
X00327Y02067*
X00517*
Y01995*
X00519Y01988*
X00522Y01982*
X00528Y01979*
X00535Y01977*
X00541Y01979*
X00547Y01982*
X0055Y01988*
X00552Y01995*
Y02094*
X00553Y021*
X00551Y02106*
X00547Y02112*
X00498Y02162*
Y02221*
X00497Y02223*
X00501Y02227*
X00503Y02227*
G37*
G36*
X00258Y02669D02*
Y02596D01*
X00219*
Y02493*
X0028*
X0029Y02485*
X00302Y02479*
X00308Y02477*
Y02472*
X00302Y0247*
X0029Y02464*
X0028Y02456*
X00219*
Y02353*
X0028*
X0029Y02345*
X00302Y02339*
X00311Y02336*
X00312Y02334*
X0031Y02325*
X00312Y02315*
X00317Y02307*
X00325Y02302*
X00335Y023*
X00344Y02302*
X00352Y02307*
X00357Y02315*
X00359Y02325*
X00358Y02329*
X00361Y02333*
X0045*
X00452Y02328*
X00451Y02323*
Y02231*
X00453Y02224*
X00457Y02219*
X00461Y02214*
Y02155*
X00463Y02148*
X00467Y02142*
X00502Y02106*
X005Y02102*
X00286*
Y02131*
X00284Y02145*
X0028Y02158*
X00274Y02171*
X00265Y02181*
X00186Y0226*
Y02614*
X00189Y02614*
X00205Y02621*
X0022Y0263*
X00233Y02641*
X00244Y02655*
X00253Y02669*
X00253Y0267*
X00258Y02669*
G37*
G36*
X01623Y02303D02*
Y02298D01*
Y02298*
Y02231*
X01632*
Y02201*
X01627Y02194*
X01625Y02185*
X01627Y02175*
X01632Y02167*
X0164Y02162*
X0165Y0216*
X01659Y02162*
X01667Y02167*
X01672Y02175*
X01674Y02185*
X01672Y02194*
X01667Y02201*
Y02231*
X01683*
Y02173*
X01683Y02167*
X0168Y02167*
X01672Y02162*
X01667Y02154*
X01665Y02145*
X01666Y0214*
X01666Y02139*
X01662Y02136*
X01649Y02134*
X01648Y02134*
X01611*
X0161Y02134*
X01596Y02136*
X01593*
X01587Y02135*
X01583Y02139*
X01584Y0214*
X01582Y02149*
X01577Y02157*
X01569Y02162*
X0156Y02164*
X01555Y02163*
X01554Y02167*
X01558Y0217*
X01562Y02172*
X01566Y0217*
X0157Y02167*
X0158Y02165*
X01589Y02167*
X01597Y02172*
X01602Y0218*
X01604Y0219*
X01602Y02199*
X01597Y02207*
X01589Y02212*
X0158Y02214*
X0157Y02212*
X01569Y02211*
X01564Y02213*
Y02267*
X01611Y02314*
X01623*
Y02303*
G37*
G36*
X01536Y01265D02*
X01538Y01258D01*
X01542Y01252*
Y01249*
X01537Y01247*
X01532Y01239*
X0153Y0123*
X01532Y0122*
X01537Y01212*
X01545Y01207*
X01555Y01205*
X0156Y01207*
X01565Y01203*
Y01177*
X01514*
Y01247*
X01514Y01247*
X01518Y01253*
X01519Y01259*
Y01302*
X01518Y01308*
X01514Y01314*
X01512Y01316*
X01514Y01321*
X01536*
Y01265*
G37*
G36*
X01893Y01372D02*
Y01315D01*
X01895Y01308*
X01899Y01302*
X01941Y01259*
X01939Y01255*
X01851*
Y01258*
X0185Y01264*
X01846Y0127*
X01838Y01278*
X0184Y01283*
X01878*
Y01346*
X0183*
X01829Y01348*
X01832Y01353*
X01873*
Y01377*
X01873Y01377*
X01889*
X01893Y01372*
G37*
G36*
X01643Y01298D02*
X0165Y01296D01*
X01676*
Y01283*
X01708*
Y01223*
X01728*
X01729Y01221*
X01782Y01168*
X0178Y0116*
X01782Y0115*
X01787Y01142*
X01795Y01137*
X01805Y01135*
X0181Y01137*
X01815Y01133*
Y01001*
X01802*
Y00898*
X01815*
Y00869*
X0179*
Y00834*
X01785Y00831*
X01781Y00833*
X01772Y00835*
X0177Y00835*
X01766Y00838*
Y00893*
X01753*
Y01062*
X01753Y01063*
X01761*
X01768Y01064*
X01769Y01065*
X0177Y01065*
X01778Y01071*
X01783Y01078*
X01785Y01088*
X01783Y01097*
X01778Y01105*
X0177Y0111*
X01761Y01112*
X01752Y0111*
X01744Y01105*
X01739Y01098*
X01739Y01098*
X01735Y01095*
X01706Y01124*
Y01177*
X01653*
X01629Y01201*
Y01239*
X01633Y01242*
X01635Y01241*
X01662*
X01668Y01238*
X01675Y01236*
X01681Y01238*
X01687Y01242*
X01691Y01248*
X01693Y01255*
X01691Y01261*
X01687Y01267*
X01682Y01272*
X01676Y01276*
X0167Y01278*
X01636*
Y01296*
X01641Y01299*
X01643Y01298*
G37*
G36*
X01455Y01299D02*
X01458Y01295D01*
X01462Y01292*
X01463Y01287*
X01462Y01287*
X01457Y01279*
X01455Y0127*
X01457Y0126*
X01462Y01252*
X0147Y01247*
X0148Y01245*
X0148Y01245*
Y01177*
X01458*
Y01122*
X01447Y01111*
X01443Y01106*
X01442Y01099*
Y01035*
X01443Y01032*
X01439Y01027*
X0136*
X01353Y01025*
X01347Y01022*
X01318Y00992*
X01313Y00994*
X01312Y00999*
X01307Y01007*
X01299Y01012*
X0129Y01014*
X01285Y01013*
X01282Y01016*
Y01132*
X01287Y01134*
X01287Y01132*
X01295Y01127*
X01305Y01125*
X01314Y01127*
X01322Y01132*
X01327Y0114*
X01329Y0115*
X01327Y01159*
X01322Y01167*
X01314Y01172*
X01305Y01174*
X01295Y01172*
X01287Y01167*
X01287Y01165*
X01282Y01167*
Y01201*
X01286Y01205*
X01303*
X01306Y01201*
X01305Y012*
X01307Y0119*
X01312Y01182*
X0132Y01177*
X0133Y01175*
X01339Y01177*
X01347Y01182*
X01352Y0119*
X01354Y012*
X01352Y01209*
X01349Y01213*
X0136Y01225*
X0138*
X01386Y01226*
X01392Y0123*
X01396Y01236*
X01398Y01243*
X01396Y01249*
X01393Y01255*
X01393Y01257*
X01395Y0126*
X01404*
X0141Y01261*
X01416Y01265*
X0145Y01299*
X01455*
G37*
G36*
X00937Y01352D02*
X00943Y01349D01*
X0095Y01347*
X01067*
Y0134*
X01067Y01337*
X01063Y01333*
X0106Y01334*
X0105Y01332*
X01045Y01328*
X01039Y01332*
X0103Y01334*
X0102Y01332*
X01015Y01328*
X01009Y01332*
X01Y01334*
X0099Y01332*
X00985Y01328*
X00979Y01332*
X0097Y01334*
X0096Y01332*
X00952Y01327*
X00948Y0132*
X00942Y01318*
X00858Y01402*
X0086Y01408*
X00867Y01412*
X00869Y01416*
X00874Y01416*
X00937Y01352*
G37*
G36*
X02063Y01384D02*
X02069Y01377D01*
X02075Y01373*
X02082Y01372*
X02088*
X02105Y01355*
X02103Y01351*
X02074*
Y0135*
X02071Y01346*
X02008*
Y01279*
X02071*
X02074Y01275*
Y01248*
X02104*
X02107Y01243*
X02106Y0124*
Y01215*
X0206*
Y01168*
X0204*
X02035Y01169*
X02033Y0117*
Y01238*
X02031Y01245*
X02027Y01251*
X02011Y01267*
X02005Y01271*
X01998Y01273*
X01979*
X01929Y01322*
Y01336*
X01934Y01339*
X0194Y01338*
X01959*
X01966Y01339*
X01972Y01343*
X01991Y01361*
X0204*
X02046Y01363*
X02052Y01367*
X02056Y01373*
X02058Y0138*
X02057Y01384*
X02061Y01386*
X02063Y01384*
G37*
G36*
X01125Y01275D02*
X01131Y01271D01*
X01133Y01271*
Y01205*
Y01134*
X01129Y01132*
X01093Y01168*
X01095Y01173*
X01118*
Y01236*
X01051*
Y01216*
X01046Y01215*
X00978Y01282*
X0098Y01288*
X00985Y01291*
X0099Y01287*
X01Y01285*
X01009Y01287*
X01015Y01291*
X0102Y01287*
X0103Y01285*
X01039Y01287*
X01045Y01291*
X0105Y01287*
X0106Y01285*
X01069Y01287*
X01077Y01292*
X01082Y013*
X01084Y01309*
X01086Y01311*
X01088Y01312*
X01125Y01275*
G37*
%LNninja_3_2_pcb-2*%
%LPC*%
G36*
X02085Y00924D02*
X02075Y00922D01*
X02067Y00917*
X02062Y00909*
X0206Y009*
X02062Y0089*
X02067Y00882*
X02075Y00877*
X02085Y00875*
X02094Y00877*
X02102Y00882*
X02107Y0089*
X02109Y009*
X02107Y00909*
X02102Y00917*
X02094Y00922*
X02085Y00924*
G37*
G36*
X00905Y01154D02*
X00895Y01152D01*
X00887Y01147*
X00882Y01139*
X0088Y0113*
X00882Y0112*
X00887Y01112*
X00895Y01107*
X00905Y01105*
X00914Y01107*
X00922Y01112*
X00927Y0112*
X00929Y0113*
X00927Y01139*
X00922Y01147*
X00914Y01152*
X00905Y01154*
G37*
G36*
X0095Y01229D02*
X0094Y01227D01*
X00932Y01222*
X00927Y01214*
X00925Y01205*
X00927Y01195*
X00932Y01187*
X0094Y01182*
X0095Y0118*
X00959Y01182*
X00967Y01187*
X00972Y01195*
X00974Y01205*
X00972Y01214*
X00967Y01222*
X00959Y01227*
X0095Y01229*
G37*
G36*
X01249Y009D02*
X0124Y00898D01*
X01232Y00893*
X0123Y00891*
X01229Y00892*
X0122Y00894*
X0121Y00892*
X01205Y00888*
X01199Y00892*
X0119Y00894*
X0118Y00892*
X01175Y00888*
X01169Y00892*
X0116Y00894*
X0115Y00892*
X01142Y00887*
X01137Y00879*
X01137Y00878*
X01132*
X01132Y00879*
X01127Y00887*
X01119Y00892*
X0111Y00894*
X011Y00892*
X01092Y00887*
X01092Y00886*
X01087*
X01087Y00887*
X01079Y00892*
X0107Y00894*
X0106Y00892*
X01052Y00887*
X01047Y00879*
X01045Y0087*
X01047Y0086*
X01052Y00852*
X0106Y00847*
X0107Y00845*
X01079Y00847*
X01087Y00852*
X01087Y00853*
X01092*
X01092Y00852*
X011Y00847*
X0111Y00845*
X01119Y00847*
X01127Y00852*
X01132Y0086*
X01132Y00861*
X01137*
X01137Y0086*
X01142Y00852*
X0115Y00847*
X0116Y00845*
X01169Y00847*
X01175Y00851*
X0118Y00847*
X0119Y00845*
X01199Y00847*
X01205Y00851*
X0121Y00847*
X0122Y00845*
X01229Y00847*
X01237Y00852*
X01238Y00855*
X0124Y00854*
X01249Y00852*
X01252Y00852*
X01252Y0085*
X01257Y00842*
X01265Y00837*
X01275Y00835*
X01284Y00837*
X01292Y00842*
X01297Y0085*
X01299Y0086*
X01297Y00869*
X01292Y00877*
X01284Y00882*
X01275Y00884*
X01272Y00883*
X01271Y00885*
X01266Y00893*
X01258Y00898*
X01249Y009*
G37*
G36*
X00995Y00919D02*
X00985Y00917D01*
X00977Y00912*
X00972Y00904*
X0097Y00895*
X00971Y00893*
X00966Y0089*
X00964Y00892*
X00955Y00894*
X00945Y00892*
X00937Y00887*
X00932Y00879*
X0093Y0087*
X00932Y0086*
X00937Y00852*
X00945Y00847*
X00955Y00845*
X00964Y00847*
X00972Y00852*
X00977Y0086*
X00979Y0087*
X00978Y00871*
X00982Y00873*
X00987Y00871*
X00986Y00867*
X00988Y00858*
X00993Y0085*
X01001Y00845*
X0101Y00843*
X01019Y00845*
X01027Y0085*
X01032Y00858*
X01034Y00867*
X01032Y00877*
X01027Y00884*
X01019Y0089*
X01018Y0089*
X01019Y00895*
X01017Y00904*
X01012Y00912*
X01004Y00917*
X00995Y00919*
G37*
G36*
X00902Y01021D02*
X00893Y01019D01*
X00885Y01014*
X0088Y01006*
X00878Y00997*
X0088Y00988*
X00885Y0098*
X00893Y00975*
X00902Y00973*
X00911Y00975*
X00919Y0098*
X00924Y00988*
X00926Y00997*
X00924Y01006*
X00919Y01014*
X00911Y01019*
X00902Y01021*
G37*
G36*
X01075Y00999D02*
X01065Y00997D01*
X01057Y00992*
X01052Y00984*
X0105Y00975*
X01052Y00965*
X01057Y00957*
X01065Y00952*
X01075Y0095*
X01084Y00952*
X01092Y00957*
X01097Y00965*
X01099Y00975*
X01097Y00984*
X01092Y00992*
X01084Y00997*
X01075Y00999*
G37*
G36*
X01246Y00301D02*
X01235Y003D01*
X01225Y00296*
X01216Y00289*
X0121Y0028*
X01205Y0027*
X01204Y0026*
X01205Y00249*
X0121Y00239*
X01216Y0023*
X01225Y00223*
X01235Y00219*
X01246Y00218*
X01257Y00219*
X01267Y00223*
X01275Y0023*
X01282Y00239*
X01286Y00249*
X01287Y0026*
X01286Y0027*
X01282Y0028*
X01275Y00289*
X01267Y00296*
X01257Y003*
X01246Y00301*
G37*
G36*
X01115Y00554D02*
X01105Y00552D01*
X01097Y00547*
X01092Y00539*
X0109Y0053*
X01092Y0052*
X01097Y00512*
X01105Y00507*
X01115Y00505*
X01124Y00507*
X01132Y00512*
X01137Y0052*
X01139Y0053*
X01137Y00539*
X01132Y00547*
X01124Y00552*
X01115Y00554*
G37*
G36*
X0052Y01954D02*
X0051Y01952D01*
X00502Y01947*
X00497Y01939*
X00495Y0193*
X00497Y0192*
X00502Y01912*
X0051Y01907*
X0052Y01905*
X00529Y01907*
X00537Y01912*
X00542Y0192*
X00544Y0193*
X00542Y01939*
X00537Y01947*
X00529Y01952*
X0052Y01954*
G37*
G36*
X00295Y02274D02*
X00285Y02272D01*
X00277Y02267*
X00272Y02259*
X0027Y0225*
X00272Y0224*
X00277Y02232*
X00285Y02227*
X00295Y02225*
X00304Y02227*
X00312Y02232*
X00317Y0224*
X00319Y0225*
X00317Y02259*
X00312Y02267*
X00304Y02272*
X00295Y02274*
G37*
G36*
X00345Y02294D02*
X00335Y02292D01*
X00327Y02287*
X00322Y02279*
X0032Y0227*
X00322Y0226*
X00327Y02252*
X00335Y02247*
X00345Y02245*
X00354Y02247*
X00362Y02252*
X00367Y0226*
X00369Y0227*
X00367Y02279*
X00362Y02287*
X00354Y02292*
X00345Y02294*
G37*
G36*
X01325Y01124D02*
X01315Y01122D01*
X01307Y01117*
X01302Y01109*
X013Y011*
X01302Y0109*
X01307Y01082*
X01315Y01077*
X01318Y01077*
Y01077*
X01318Y01072*
X01312Y01067*
X01307Y01059*
X01305Y0105*
X01307Y01041*
X01312Y01033*
X0132Y01028*
X01329Y01026*
X01338Y01028*
X01346Y01033*
X01351Y01041*
X01353Y0105*
X01351Y01059*
X01346Y01067*
X01338Y01072*
X01336Y01073*
X01336Y01073*
X01335Y01078*
X01342Y01082*
X01347Y0109*
X01349Y011*
X01347Y01109*
X01342Y01117*
X01334Y01122*
X01325Y01124*
G37*
%LNninja_3_2_pcb-3*%
%LPD*%
G54D10*
X00285Y0089D03*
X00218D03*
X00095Y0078D03*
X00161D03*
X00178Y00294D03*
X00111D03*
X00175Y00235D03*
X00108D03*
Y00175D03*
X00175D03*
X00975Y0054D03*
X01041D03*
X00975Y0048D03*
X01041D03*
X0171Y01315D03*
X01776D03*
X01845D03*
X01911D03*
X01708Y01385D03*
X01775D03*
X0125Y01365D03*
X01183D03*
X02215Y00095D03*
X02148D03*
X0194D03*
X02006D03*
X0041Y00355D03*
X00343D03*
X00815Y00124D03*
X00881D03*
X01085Y01205D03*
X01151D03*
X01675Y01255D03*
X01741D03*
X0133Y01375D03*
X01396D03*
X01775Y01445D03*
X01708D03*
X01906Y01385D03*
X0184D03*
X0105Y01365D03*
X01116D03*
X02185Y00775D03*
X02118D03*
X01365Y0095D03*
X01431D03*
X01895Y0145D03*
X01961D03*
G54D12*
X00855Y00369D03*
Y002D03*
G54D16*
X01924Y01194D03*
G54D17*
X02015Y0095D03*
X01924D03*
X01833D03*
G54D22*
X0212Y02295D03*
Y02228D03*
X0218Y02225D03*
Y02291D03*
X01655Y0247D03*
Y02403D03*
Y02265D03*
Y02331D03*
X01125Y02403D03*
Y0247D03*
Y02265D03*
Y02331D03*
X0042Y00925D03*
Y00991D03*
X0048D03*
Y00925D03*
X0083Y0073D03*
Y00796D03*
X00455Y0026D03*
Y00193D03*
X0089Y00795D03*
Y00728D03*
X0095Y00795D03*
Y00728D03*
X01725Y016D03*
Y01533D03*
X01555Y0134D03*
Y01406D03*
X0147Y00855D03*
Y00788D03*
X0154Y00855D03*
Y00788D03*
X01735Y0086D03*
Y00793D03*
X01495Y0134D03*
Y01406D03*
X015Y0092D03*
Y00986D03*
X0158Y0092D03*
Y00986D03*
X01665Y0092D03*
Y00986D03*
X0229Y00425D03*
Y00358D03*
X0058Y0092D03*
Y00986D03*
X00155Y00875D03*
Y00941D03*
X00045Y0031D03*
Y00376D03*
X00655Y00915D03*
Y00981D03*
X0074Y00495D03*
Y00428D03*
X00725Y00835D03*
Y00901D03*
X00645Y00105D03*
Y00038D03*
X00265Y00115D03*
Y00048D03*
X0096Y00279D03*
Y00212D03*
X01045Y0159D03*
Y01523D03*
X0136Y008D03*
Y00733D03*
X0074Y0138D03*
Y01446D03*
X00595Y01375D03*
Y01441D03*
X0227Y0082D03*
Y00886D03*
X0138Y0131D03*
Y01243D03*
X0204Y0138D03*
Y01313D03*
G54D23*
X015Y01065D03*
Y0114D03*
X01582Y01065D03*
Y0114D03*
X01665Y01065D03*
Y0114D03*
X00655Y00175D03*
Y00249D03*
X00255Y00181D03*
Y00256D03*
G54D24*
X01741Y02955D03*
X0156D03*
X00371Y01795D03*
X0019D03*
X01023Y02975D03*
X01205D03*
X01839Y00805D03*
X0202D03*
X01573Y0066D03*
X01755D03*
X02126Y00665D03*
X01945D03*
G54D30*
X0101Y02265D03*
X0096D03*
X0091D03*
X0081D03*
X0076D03*
X0071D03*
X01537D03*
X01487D03*
X01437D03*
X01337D03*
X01287D03*
X01237D03*
X02065D03*
X02015D03*
X01965D03*
X01865D03*
X01815D03*
X01765D03*
G54D31*
X0086Y02576D03*
X01387D03*
X01915D03*
G54D32*
X02175Y0218D02*
Y0222D01*
Y0218D02*
X0218Y02185D01*
X02175Y0222D02*
X0218Y02225D01*
X00835Y00015D02*
X02193D01*
X02248Y0007*
X00516Y01795D02*
X00535Y01813D01*
X01067Y02394D02*
Y02839D01*
X01203Y02975*
X01205*
X00549Y02334D02*
X00611Y02396D01*
X00648*
X00657Y02387D02*
X0106D01*
X00648Y02396D02*
X00657Y02387D01*
X02255Y0099D02*
X02295Y0103D01*
Y01484*
X02275Y01504D02*
X02295Y01484D01*
X02275Y01504D02*
Y0184D01*
X0023Y00005D02*
X0024Y00014D01*
X0001Y00005D02*
X0023D01*
X0001D02*
Y00601D01*
X02264Y00481D02*
X0229Y00455D01*
X0226Y00485D02*
X02264Y00481D01*
X01335Y00685D02*
X0152D01*
X01236D02*
X01335D01*
X01397Y00546D02*
X01411D01*
X0126Y0066D02*
X01282D01*
X01236Y00685D02*
X0126Y0066D01*
X00635Y0075D02*
X0065D01*
X00595D02*
X00635D01*
Y0073D02*
X0064Y00725D01*
X00635Y0073D02*
Y0075D01*
X01895Y0153D02*
X01964Y016D01*
X01895Y0145D02*
Y0153D01*
X01896Y01395D02*
X01906Y01385D01*
X01873Y01395D02*
X01896D01*
X01495Y0134D02*
X01555D01*
X01151Y01109D02*
X01265Y00996D01*
X0062Y00004D02*
X00669D01*
X00612Y00011D02*
X0062Y00004D01*
X00669D02*
X00676Y00011D01*
X00595Y0075D02*
X00621Y00776D01*
X01586Y01478D02*
X01618Y01446D01*
X01586Y01478D02*
Y01544D01*
X01168Y01496D02*
Y01507D01*
X01145Y01472D02*
X01168Y01496D01*
X01151Y01504D02*
Y01543D01*
X01131Y01484D02*
X01151Y01504D01*
X00386Y01025D02*
X00444D01*
X00341Y00979D02*
X00386Y01025D01*
X00341Y0096D02*
Y00979D01*
Y0096D02*
X00351Y0095D01*
Y00898D02*
Y0095D01*
X00365Y0097D02*
X00375D01*
X00396Y00991*
X01865Y01426D02*
X01873Y01418D01*
X01846Y01445D02*
X01865Y01426D01*
X01888Y0145*
X01895*
X02255Y0099D02*
X0227Y00975D01*
Y00886D02*
Y00975D01*
X01926Y0137D02*
X0194Y01356D01*
X01959*
X01983Y0138*
X0204*
X02185Y0092D02*
X02255Y0099D01*
X02185Y00775D02*
Y0092D01*
X01151Y01109D02*
Y01205D01*
X01266Y0097D02*
Y00995D01*
Y0097D02*
X013Y00936D01*
X01319*
X01333Y0095*
X01365*
X0122Y0087D02*
X01225D01*
X01151Y01284D02*
X01155Y01287D01*
X01151Y01205D02*
Y01284D01*
X01635Y0126D02*
X0167D01*
X01675Y01255*
X01611Y01193D02*
X01665Y0114D01*
X01611Y01193D02*
Y01269D01*
X01618Y01276D02*
Y01446D01*
X01611Y01269D02*
X01618Y01276D01*
X01555Y01265D02*
Y0134D01*
X0032Y00393D02*
X00345D01*
X00206Y0089D02*
X00218D01*
X00155Y00941D02*
X00206Y0089D01*
X0058Y00986D02*
X00585Y00981D01*
X00655*
X00045Y00463D02*
X0005Y00468D01*
X00045Y00376D02*
Y00463D01*
X00676Y00013D02*
X00678Y00015D01*
X00676Y00011D02*
Y00013D01*
X00835Y00015D02*
Y00035D01*
X00678Y00015D02*
X00835D01*
X00608Y0001D02*
X00609Y00011D01*
X00491Y0001D02*
X00608D01*
X00487Y00015D02*
X00491Y0001D01*
X00609Y00011D02*
X00612D01*
X0029Y00015D02*
X003D01*
X00289Y00014D02*
X0029Y00015D01*
X0024Y00014D02*
X00289D01*
X00419Y00015D02*
X00487D01*
X00418Y00013D02*
X00419Y00015D01*
X00301Y00013D02*
X00418D01*
X003Y00015D02*
X00301Y00013D01*
X0048Y00991D02*
X00485Y00986D01*
X0058*
X01735Y0086D02*
Y0107D01*
X02024Y02274D02*
X02038Y02288D01*
X02015Y02265D02*
X02024Y02274D01*
X01077Y00212D02*
X01125Y0026D01*
X0096Y00212D02*
X01077D01*
X01423Y02009D02*
X01438Y01994D01*
Y01975D02*
Y01994D01*
X01404Y01941D02*
X01438Y01975D01*
X01404Y01888D02*
Y01941D01*
X01423Y02009D02*
Y02038D01*
X01325Y019D02*
X0133Y01894D01*
X01301Y01885D02*
Y01909D01*
Y01885D02*
X01308Y01878D01*
Y01842D02*
Y01878D01*
X01174Y01768D02*
Y01838D01*
X01152Y0184D02*
X01172D01*
X01133D02*
X01152D01*
X01775Y01445D02*
X0193Y016D01*
X01262Y02065D02*
X01294Y02032D01*
X01257Y0207D02*
X01262Y02065D01*
X01294Y01985D02*
Y02032D01*
X011Y0146D02*
X01135D01*
X0108Y01484D02*
X01131D01*
X01124Y01502D02*
X01131Y01509D01*
X01095Y01502D02*
X01124D01*
X01089Y01508D02*
X01095Y01502D01*
X0107Y01508D02*
X01089D01*
X01064Y01503D02*
X0107Y01508D01*
X01064Y01503D02*
D01*
X01045Y01523D02*
X01064Y01503D01*
X01135Y0146D02*
X01145Y01469D01*
X01131Y01509D02*
Y01545D01*
X01145Y01469D02*
Y01472D01*
X00258Y00858D02*
X00311D01*
X00351Y00897*
Y00898*
X0065Y0075D02*
X00671Y0077D01*
X00621Y00789D02*
X00637Y00806D01*
Y00841*
X00671Y0077D02*
X00683D01*
X00621Y00776D02*
Y00789D01*
X00683Y0077D02*
X00686Y00773D01*
X001Y004D02*
X00105Y00395D01*
X01229Y00727D02*
X01236D01*
X00198Y00122D02*
Y00134D01*
X00196Y00138D02*
X00208Y0015D01*
X00196Y00136D02*
Y00138D01*
Y00136D02*
X00198Y00134D01*
X00195Y00206D02*
Y00215D01*
Y00206D02*
X00201D01*
X00208Y00199*
Y0015D02*
Y00199D01*
X00175Y00235D02*
X00195Y00215D01*
X00793Y00036D02*
X00881Y00124D01*
X00646Y00036D02*
X00793D01*
X00645Y00038D02*
X00646Y00036D01*
X00213Y00286D02*
X0032Y00393D01*
X00213Y00272D02*
Y00286D01*
X00176Y00235D02*
X00213Y00272D01*
X0229Y00425D02*
Y00455D01*
X02248Y0007D02*
Y00271D01*
X00024Y00615D02*
Y00767D01*
X00081Y00825*
Y01385*
X0047Y00981D02*
X0048Y00991D01*
X01833Y0095D02*
Y01258D01*
X02011Y00953D02*
Y01159D01*
Y00953D02*
X02015Y0095D01*
Y01163D02*
Y01238D01*
X02011Y01159D02*
X02015Y01163D01*
X01776Y01315D02*
X01833Y01258D01*
X0175Y01346D02*
X01803D01*
X0181Y01339*
Y01315D02*
Y01339D01*
X01353Y01243D02*
X0138D01*
X01334Y01223D02*
X01353Y01243D01*
X01278Y01223D02*
X01334D01*
X0117Y01509D02*
Y01543D01*
X01168Y01507D02*
X0117Y01509D01*
X02015Y0095D02*
X0209D01*
X02125Y00985*
X0213Y0099*
X02255*
X02125Y0124D02*
X02185Y013D01*
X02125Y01166D02*
Y0124D01*
X01151Y01543D02*
X01152Y01545D01*
X01873Y01395D02*
Y01418D01*
X01906Y01385D02*
X01911Y0138D01*
Y01315D02*
Y0138D01*
X01775Y01445D02*
X01846D01*
X00175Y00235D02*
X00176D01*
X0036Y00098D02*
X00455Y00193D01*
X0036Y00063D02*
Y00098D01*
X01236Y00635D02*
Y00659D01*
X0119D02*
X01236D01*
X01175Y00674D02*
X0119Y00659D01*
X01175Y00674D02*
Y00695D01*
X0119Y0071*
X01218*
Y00716*
X01229Y00727*
X01236D02*
Y00735D01*
Y0076D02*
Y00785D01*
Y0076D02*
X01282D01*
X01297Y00745*
Y00724D02*
Y00745D01*
X01282Y00709D02*
X01297Y00724D01*
X01236Y00709D02*
X01282D01*
X01236Y00685D02*
Y00709D01*
X00578Y00488D02*
Y0052D01*
X0048Y02155D02*
X00535Y021D01*
X0048Y02155D02*
Y02221D01*
X00469Y02231D02*
X0048Y02221D01*
X00469Y02231D02*
Y02323D01*
X0048Y02334*
X00549*
X0106Y02387D02*
X01067Y02394D01*
X01093Y02394D02*
Y02429D01*
X0099Y02321D02*
X0102D01*
X01093Y02394*
X01464Y0305D02*
X0156Y02955D01*
X01339Y0305D02*
X01464D01*
X01263Y02975D02*
X01339Y0305D01*
X01205Y02975D02*
X01263D01*
X01911Y01315D02*
X01971Y01255D01*
X01998*
X02015Y01238*
X01265Y0121D02*
X01278Y01223D01*
X01015Y02065D02*
X0102Y0207D01*
Y0216*
X001Y004D02*
Y00468D01*
X0015Y0041D02*
Y00468D01*
X00396Y00991D02*
X0042D01*
X01113Y01545D02*
Y01689D01*
X0111Y01692D02*
X01113Y01689D01*
X013Y0194D02*
X01301Y01938D01*
X012Y01896D02*
Y019D01*
Y01896D02*
X01211Y01884D01*
Y0184D02*
Y01884D01*
X02205Y00431D02*
X02211Y00425D01*
X0229*
X02015Y0081D02*
X0202Y00805D01*
X02015Y0081D02*
Y0095D01*
X0046Y00488D02*
X0048D01*
X01404Y01888D02*
X01408Y01884D01*
X01301Y01909D02*
X0131Y01918D01*
X01301Y01927D02*
X0131Y01918D01*
X01408Y0184D02*
Y01884D01*
X01301Y01927D02*
Y01938D01*
X01423Y02038D02*
X0145Y02065D01*
X0133Y0184D02*
Y01894D01*
X01308Y01842D02*
X0131Y0184D01*
X01174Y01768D02*
X01176D01*
X01172Y0184D02*
X01174Y01838D01*
X01133Y0184D02*
X01133Y0184D01*
X00983Y02314D02*
X0099Y02321D01*
X00983Y02288D02*
Y02314D01*
X0096Y02265D02*
X00983Y02288D01*
X01517Y02321D02*
X01522D01*
X0151Y02314D02*
X01517Y02321D01*
X0151Y02288D02*
Y02314D01*
X01487Y02265D02*
X0151Y02288D01*
X02038D02*
Y02314D01*
X01585Y01545D02*
X01586Y01544D01*
X01665Y0114D02*
X01735Y0107D01*
X0171Y01315D02*
X01743D01*
Y01339*
X0175Y01346*
X0181Y01315D02*
X01845D01*
X01636Y01328D02*
Y01329D01*
Y01328D02*
X0165Y01315D01*
X0171*
X0193Y016D02*
X01964D01*
X00918Y0017D02*
X0096Y00212D01*
X00918Y00157D02*
Y0017D01*
X00911Y0015D02*
X00918Y00157D01*
X00898Y0015D02*
X00911D01*
X00881Y00134D02*
X00898Y0015D01*
X00881Y00124D02*
Y00134D01*
X00855Y00369D02*
X00945Y00279D01*
X0096*
X00815Y0016D02*
X00855Y002D01*
X00815Y00124D02*
Y0016D01*
X00108Y00175D02*
Y00235D01*
X00111Y00238D02*
Y00294D01*
X00108Y00235D02*
X00111Y00238D01*
X00546Y00063D02*
X0055Y0006D01*
X0036Y00063D02*
X00546D01*
X00344Y00048D02*
X0036Y00063D01*
X00265Y00048D02*
X00344D01*
X0055Y0006D02*
X00571Y00038D01*
X00645*
X01725Y016D02*
Y01692D01*
X0117Y01543D02*
X01172Y01545D01*
X01045Y0159D02*
Y01687D01*
X0104Y01692D02*
X01045Y01687D01*
X01131Y01545D02*
X01133D01*
X01116Y01365D02*
X01183D01*
X01761Y01081D02*
Y01088D01*
X01735Y0107D02*
X01746Y01081D01*
X01761*
X01282Y0066D02*
X01314Y00629D01*
X01397Y00546*
X0202Y00805D02*
Y00806D01*
X02144D02*
X02176Y00775D01*
X02185*
X0202Y00806D02*
X02144D01*
X00155Y00941D02*
X00323D01*
X00341Y0096*
X00395Y00674D02*
Y00766D01*
X00401Y00773*
X00333Y00674D02*
X00395D01*
X00468Y00565D02*
X00578D01*
X0046Y00557D02*
X00468Y00565D01*
X00578Y00555D02*
X00585D01*
X00615Y00585D02*
Y0069D01*
X0061Y00695D02*
X00615Y0069D01*
X00578Y0052D02*
Y00555D01*
Y00565*
X0061Y00695D02*
X0064Y00725D01*
X0058Y00986D02*
Y01045D01*
X00655Y00981D02*
Y0112D01*
X0069Y01155*
X0058Y01045D02*
X00655Y0112D01*
X0048Y00991D02*
Y0104D01*
X00595Y01155*
X0069*
X00655Y00981D02*
X00838D01*
X0087Y0095*
X00135Y00395D02*
X0015Y0041D01*
X02108Y0115D02*
X02125Y01166D01*
X0204Y0115D02*
X02108D01*
X02035Y01145D02*
X0204Y0115D01*
X01833Y009D02*
Y0095D01*
Y0081D02*
Y009D01*
X01926Y00853D02*
X01955Y00825D01*
X01885Y00853D02*
X01926D01*
X01839Y00807D02*
X01885Y00853D01*
X01833Y0081D02*
X01839Y00805D01*
Y00807*
X0181Y00775D02*
X01839Y00805D01*
Y00775D02*
Y00804D01*
X01815Y0072D02*
X01839D01*
X01838Y0072D02*
X01839Y0072D01*
X0181Y00725D02*
Y00775D01*
X01838Y0072D02*
X01839D01*
X00578Y0052D02*
X00606D01*
X0061Y00516*
X00619*
X00622Y00513*
X00644*
X00468Y00565D02*
X0051Y00606D01*
X0058Y00665D02*
X0061Y00695D01*
X00585Y00555D02*
X00615Y00585D01*
X00578Y00565D02*
Y00596D01*
X00512Y00665D02*
X00535Y00688D01*
X0051Y00665D02*
X00512D01*
X0058*
X00488Y00641D02*
X0051Y00663D01*
X00511Y00664*
X00512Y00665*
X0051Y00606D02*
Y00663D01*
Y00665*
X00595Y0075*
X0051Y00665D02*
X00511Y00664D01*
X00578Y00596*
X005Y00674D02*
X0051Y00665D01*
X00395Y00674D02*
X005D01*
X00401Y00773D02*
Y00853D01*
X004Y00854D02*
X00401Y00853D01*
X00351Y00898D02*
X00366D01*
X004Y00864*
Y00854D02*
Y00864D01*
X0046Y00488D02*
Y00557D01*
X00345Y00393D02*
X00351D01*
X00418Y00459*
X00438Y00557D02*
X0046D01*
X00432Y00551D02*
X00438Y00557D01*
X00432Y00551D02*
X00433Y00549D01*
X00415D02*
X00433D01*
X01815Y00685D02*
X01816Y00686D01*
X01843*
X01839Y0069D02*
Y0072D01*
X01843Y00686D02*
X01846D01*
X01839Y0069D02*
X01843Y00686D01*
X01839Y0072D02*
X0184Y0072D01*
X01884D02*
Y0073D01*
X0188Y00716D02*
X01884Y0072D01*
X01839Y00775D02*
X01884Y0073D01*
X0186Y0069D02*
X01885D01*
X0181Y00725D02*
X01815Y0072D01*
X01815Y0072*
X01815Y00685D02*
Y0069D01*
Y0072*
X0184Y0072D02*
X01884D01*
X01846Y00686D02*
X0185Y0069D01*
X01855Y00695*
X01839Y0072D02*
Y0072D01*
X01855Y00695D02*
X0186Y0069D01*
X01839Y0072D02*
Y00775D01*
X01885Y0069D02*
Y0072D01*
X01884Y0072D02*
X01885Y0072D01*
X00401Y00773D02*
X00486Y00688D01*
X01093Y02429D02*
X01123Y0246D01*
X01125*
Y0247*
X01655Y02461D02*
Y0247D01*
X01623Y02429D02*
X01655Y02461D01*
X01522Y02321D02*
X01614Y02413D01*
Y0242*
X01623Y02429*
X0023Y00886D02*
X00258Y00858D01*
X0023Y00886D02*
Y0089D01*
X00218D02*
X0023D01*
X0047Y00981D02*
Y01D01*
X00444Y01025D02*
X0047Y01D01*
X0001Y00601D02*
X00024Y00615D01*
X00198Y00122D02*
X00261Y0006D01*
X00265*
Y00048D02*
Y0006D01*
G54D33*
X01661Y02063D02*
X01663Y02065D01*
X01598Y02063D02*
X01661D01*
X01663Y02065D02*
X01765D01*
Y02111*
X01596Y02065D02*
X01598Y02063D01*
X01593Y02065D02*
X01596D01*
X01591Y02063D02*
X01593Y02065D01*
X01451Y02063D02*
X01591D01*
X02269Y00482D02*
Y00613D01*
X02236Y0058D02*
X02269Y00613D01*
X02175Y0058D02*
X02236D01*
X02175D02*
Y00665D01*
X02264Y00481D02*
X02268D01*
X02205D02*
X02264D01*
X02268D02*
X02269Y00482D01*
X00585Y016D02*
X00812D01*
X00383D02*
X00585D01*
X01725Y01692D02*
X01964D01*
X02077*
X00812D02*
X0104D01*
X01865Y02124D02*
Y02265D01*
X01964Y02025D02*
Y02264D01*
X0136Y02065D02*
X0145D01*
X01262D02*
X0136D01*
X01437Y02077D02*
Y02265D01*
X01339Y02085D02*
Y02266D01*
Y02085D02*
X0136Y02065D01*
X01287Y02265D02*
X01337D01*
X01257D02*
X01287D01*
X01437Y02077D02*
X0145Y02065D01*
X01339Y02266D02*
X01435D01*
X01337Y02265D02*
X01339Y02266D01*
X01435D02*
X01437Y02265D01*
X0071Y02127D02*
Y02265D01*
X0076Y0222D02*
X0091Y0207D01*
Y02265*
X0033Y02545D02*
Y02685D01*
X0037Y0272*
X00198Y01785D02*
Y02022D01*
X00203Y02027*
X00198Y01785D02*
X00203Y0178D01*
X00185Y0272D02*
Y0274D01*
X00145Y027D02*
X00185Y0274D01*
X00203Y01773D02*
Y0178D01*
X01766Y02113D02*
Y02263D01*
X01765Y02111D02*
X01766Y02113D01*
X00851Y02065D02*
X01015D01*
X00214Y02039D02*
Y02131D01*
X00812Y02025D02*
X00851Y02065D01*
X0145D02*
X01451Y02063D01*
X01379Y01692D02*
X01725D01*
X0071Y02127D02*
X00812Y02025D01*
X0091Y02265D02*
X0092D01*
X0081D02*
X0091D01*
X0076D02*
X0081D01*
X0071D02*
X0076D01*
X01964Y016D02*
Y01692D01*
X00812Y016D02*
Y01692D01*
X01437Y02265D02*
X01457D01*
X01765D02*
X01815D01*
X01865*
X01965*
X01985*
X0104Y01692D02*
X0111D01*
X01125D02*
X01379D01*
X00203Y0178D02*
X00383Y016D01*
X01765Y02265D02*
X01766Y02263D01*
X0013Y02935D02*
X00155Y0291D01*
X00115Y0265D02*
X00185Y0272D01*
X00115Y0223D02*
X00214Y02131D01*
X00115Y0223D02*
Y0265D01*
X00702Y01692D02*
X00812D01*
X01257Y02216D02*
Y02265D01*
X01015Y02065D02*
X01161D01*
X01173Y02053*
X01236*
X01248Y02065*
X01262*
X01281Y02094D02*
Y02191D01*
X01257Y0207D02*
X01281Y02094D01*
X01257Y02216D02*
X01281Y02191D01*
X0033Y02405D02*
X0052D01*
Y0255*
X00555Y02585*
G54D34*
X00778Y03058D02*
X0094D01*
X00738Y03018D02*
X00778Y03058D01*
X0052Y03018D02*
X00738D01*
X02265Y02353D02*
Y024D01*
X022Y0278D02*
X02265Y02715D01*
X02196Y02783D02*
X022Y0278D01*
X0219Y02815D02*
X02196Y02808D01*
X02183Y02821D02*
X0219Y02815D01*
X02265Y024D02*
Y02715D01*
X02196Y02783D02*
Y02808D01*
X0214Y02821D02*
X02183D01*
X02105D02*
X0214D01*
X0177Y0189D02*
X0214D01*
X02245Y01995*
X0207Y02821D02*
X02105D01*
X0123Y02875D02*
X0126D01*
X012D02*
X0123D01*
X0117D02*
X012D01*
X0114D02*
X0117D01*
X02245Y02186D02*
X02314Y02255D01*
X02245Y01995D02*
Y02186D01*
X02265Y02353D02*
X02314Y02304D01*
Y02255D02*
Y02304D01*
X01595Y01825D02*
Y01914D01*
X0175Y0191D02*
X0177Y0189D01*
X0175Y0191D02*
Y01955D01*
X01735Y0197D02*
X0175Y01955D01*
X01659Y0197D02*
X01735D01*
X01604Y01914D02*
X01659Y0197D01*
X01595Y01914D02*
X01604D01*
X01595D02*
X01599Y01919D01*
X00036Y02198D02*
X00086Y02148D01*
X00036Y02198D02*
Y02988D01*
X00106Y03058*
X00086Y02085D02*
Y02148D01*
X00106Y03058D02*
X00246D01*
X00365Y0294*
X01023Y02916D02*
X01065Y02875D01*
X01023Y02916D02*
Y02975D01*
X01755Y0066D02*
X0176Y00665D01*
X01891Y00095D02*
X0194D01*
X01805Y00181D02*
X01891Y00095D01*
X01905Y00181D02*
X01955D01*
X01855D02*
X01905D01*
X02155Y00331D02*
X02205D01*
X02155Y00231D02*
X02205D01*
X01705Y00181D02*
Y00231D01*
X01755Y00181D02*
X01805D01*
X01705D02*
X01755D01*
X00081Y01385D02*
Y0208D01*
X02155Y00481D02*
X02205D01*
Y00531*
Y00431D02*
Y00481D01*
X02155Y00431D02*
X02205D01*
X02106D02*
X02155D01*
Y00531D02*
X02205D01*
X02105D02*
X02155D01*
X02105Y00481D02*
Y00531D01*
Y00431D02*
Y00481D01*
X01855D02*
Y00531D01*
Y00431D02*
Y00481D01*
X01805D02*
X01855D01*
X01755Y00431D02*
X01805D01*
X01755Y00481D02*
X01805D01*
X01755Y00431D02*
Y00481D01*
X01705D02*
Y00531D01*
Y00431D02*
Y00481D01*
Y00381D02*
Y00431D01*
X01805Y00531D02*
X01855D01*
X01755D02*
X01805D01*
X01705D02*
X01755D01*
X01805Y00381D02*
X01854D01*
X01755D02*
X01805D01*
X01705D02*
X01755D01*
X0094Y03058D02*
X01023Y02975D01*
X01945Y00665D02*
X01955Y00655D01*
G54D35*
X02176Y02295D02*
X0218Y02291D01*
X0212Y02295D02*
X02176D01*
X0209Y02265D02*
X0212Y02295D01*
X02065Y02265D02*
X0209D01*
X01585Y0284D02*
X0162D01*
X01562Y0287D02*
Y02952D01*
X0156Y02867D02*
X01562Y0287D01*
X0156Y02955D02*
X01562Y02952D01*
X0156Y02865D02*
Y02867D01*
Y02865D02*
X01585Y0284D01*
X02205Y01745D02*
X02255Y01694D01*
Y01506D02*
Y01694D01*
X02248Y01499D02*
X02255Y01506D01*
X0169Y0181D02*
X0214D01*
X017Y01927D02*
Y01935D01*
X01674Y01902D02*
X017Y01927D01*
X01668Y01902D02*
X01674D01*
X01645Y01878D02*
X01668Y01902D01*
X01655Y01925D02*
X01665D01*
X01625Y01895D02*
X01655Y01925D01*
X01566Y01921D02*
X01626Y01981D01*
X01625Y0184D02*
Y01895D01*
X01509Y01924D02*
X01566Y01981D01*
X01566Y0192D02*
Y01921D01*
Y0192D02*
X01569Y01917D01*
Y01899D02*
Y01917D01*
X01546Y0184D02*
Y01908D01*
X0165Y02185D02*
Y0226D01*
X01645Y0184D02*
Y01878D01*
X01335Y00685D02*
Y00694D01*
X01329Y007D02*
X01335Y00694D01*
X01329Y007D02*
Y00759D01*
X01335Y00765*
X0136*
Y008*
X00585Y01495D02*
Y016D01*
X00564Y01474D02*
X00585Y01495D01*
X00564Y01415D02*
Y01474D01*
Y01415D02*
X0057Y01409D01*
X00595*
Y01375D02*
Y01409D01*
X0147Y01307D02*
X01497D01*
X01464Y01313D02*
X0147Y01307D01*
X01464Y01313D02*
Y01366D01*
X0147Y01372D02*
X01577D01*
X01445Y01318D02*
Y01369D01*
X01404Y01277D02*
X01445Y01318D01*
X01429Y0135D02*
Y01409D01*
X01423Y01344D02*
X01429Y0135D01*
X0138Y01344D02*
X01423D01*
X01265Y00996D02*
X01266Y00995D01*
X01265Y00996D02*
Y0121D01*
X00901Y0066D02*
X00926Y00685D01*
X00894Y00676D02*
X0092Y00701D01*
X00799Y00692D02*
X0083Y00722D01*
Y0073*
X00798Y00676D02*
X00894D01*
X00805Y0066D02*
X00901D01*
X00757Y00612D02*
X00805Y0066D01*
X00734Y00612D02*
X00798Y00676D01*
X00792Y00692D02*
X00799D01*
X00718Y00618D02*
X00792Y00692D01*
X00805Y00762D02*
X00855D01*
X00783Y0074D02*
X00805Y00762D01*
X00718Y00674D02*
X00783Y0074D01*
X01925Y00891D02*
Y00895D01*
X01542Y00785D02*
X01727D01*
X0154Y00788D02*
X01542Y00785D01*
X01924Y0095D02*
Y01164D01*
Y01194*
X01865Y01105D02*
X01924Y01164D01*
X01805Y0116D02*
Y0117D01*
X01741Y01233D02*
X01805Y0117D01*
X01741Y01233D02*
Y01255D01*
X01467Y01453D02*
X01467Y01452D01*
X01435Y01435D02*
X01463Y01406D01*
X01435Y01435D02*
Y01467D01*
X0149Y0148D02*
Y01542D01*
X01507Y01494D02*
Y01545D01*
Y01494D02*
X01512Y01489D01*
Y01457D02*
X01515Y01455D01*
X01537Y01445D02*
Y01464D01*
X01529Y01437D02*
X01537Y01445D01*
X01529Y01432D02*
Y01437D01*
Y01432D02*
X01555Y01406D01*
X01553Y01465D02*
X01585Y01433D01*
X01553Y01465D02*
Y0147D01*
X01569Y01471D02*
Y01477D01*
Y01471D02*
X01601Y01439D01*
X01605Y01483D02*
X01635Y01453D01*
X01605Y01483D02*
Y01545D01*
X01625Y01485D02*
X01648Y01462D01*
X01625Y01485D02*
Y01545D01*
X01528Y01473D02*
X01537Y01464D01*
X01546Y01477D02*
X01553Y0147D01*
X01566Y0148D02*
X01569Y01477D01*
X01435Y01467D02*
X01451Y01484D01*
X01463Y01406D02*
X01495D01*
X01428Y01493D02*
Y01545D01*
X01345Y01455D02*
X01348Y01458D01*
X01326Y015D02*
X01332Y01494D01*
Y01475D02*
Y01494D01*
X01312Y01455D02*
X01332Y01475D01*
X0131Y01485D02*
X0131D01*
X01287Y01504D02*
Y01542D01*
X01287Y01504D02*
X01287Y01504D01*
X01287Y01465D02*
Y01504D01*
Y01465D02*
X01287Y01465D01*
Y01462D02*
Y01465D01*
X0128Y01455D02*
X01287Y01462D01*
X01255Y01475D02*
X01257D01*
X01217Y01469D02*
Y01487D01*
X012Y01452D02*
X01217Y01469D01*
X01201Y01479D02*
Y01494D01*
X01195Y01472D02*
X01201Y01479D01*
X01185Y01489D02*
Y015D01*
X01184Y01488D02*
X01185Y01489D01*
X01451Y01484D02*
Y01502D01*
X01467Y01453D02*
Y01544D01*
X02095Y01389D02*
X02171Y01313D01*
X02082Y01389D02*
X02095D01*
X02075Y01396D02*
X02082Y01389D01*
X02075Y01396D02*
Y01401D01*
X02026Y0145D02*
X02075Y01401D01*
X01961Y0145D02*
X02026D01*
X02118Y00775D02*
X02148Y00744D01*
X02211*
X02217Y0075*
X02171Y01313D02*
X02185Y013D01*
X0204Y01313D02*
X02171D01*
X01249Y00963D02*
X01293Y00919D01*
X01249Y00963D02*
Y00988D01*
X01063Y01173D02*
X01249Y00988D01*
X01063Y01173D02*
D01*
X01322Y00919D02*
X01407Y00834D01*
X01293Y00919D02*
X01322D01*
X0131Y0096D02*
X0136Y0101D01*
X01407Y008D02*
Y00834D01*
X0136Y0101D02*
X01464D01*
X01469Y01005D02*
Y01025D01*
Y00855D02*
Y01005D01*
X01464Y0101D02*
X01469Y01005D01*
X01155Y01287D02*
X01187D01*
X01137D02*
X01155D01*
X01063Y01173D02*
X01085Y01195D01*
Y01205*
X00385Y01385D02*
X00395Y01375D01*
X00595*
X00722Y01362D02*
X0074Y0138D01*
X0068Y01362D02*
X00722D01*
X00667Y01375D02*
X0068Y01362D01*
X00595Y01375D02*
X00667D01*
X0074Y01446D02*
X00758Y01465D01*
X00735Y01441D02*
X0074Y01446D01*
X00595Y01441D02*
X00735D01*
X01236Y00785D02*
X01251Y008D01*
X0136*
X01465Y00788D02*
X0147D01*
X0141Y00733D02*
X01465Y00788D01*
X0136Y00733D02*
X0141D01*
X00398Y00526D02*
X00412Y0054D01*
X00398Y00526D02*
X00412Y00512D01*
Y0051D02*
Y00512D01*
Y0051D02*
X00421Y00501D01*
X00343Y00391D02*
X00345Y00393D01*
X00343Y00355D02*
Y00391D01*
X005Y00385D02*
Y00488D01*
X0042Y00305D02*
X005Y00385D01*
X0042Y00275D02*
Y00305D01*
X00559Y00419D02*
Y00488D01*
X00455Y00315D02*
X00559Y00419D01*
X00455Y0026D02*
Y00315D01*
X00414Y00269D02*
X0042Y00275D01*
X00361Y00269D02*
X00414D01*
X0036Y00271D02*
X00361Y00269D01*
X0036Y00244D02*
Y00271D01*
X00686Y00811D02*
X0071Y00835D01*
X00725*
X00698Y00901D02*
X00725D01*
X00661Y00864D02*
X00698Y00901D01*
X00644Y00864D02*
X00661D01*
X00637Y00857D02*
X00644Y00864D01*
X0058Y0088D02*
X00655D01*
X0058Y0088D02*
X0058Y0088D01*
X00655D02*
Y00915D01*
X00637Y00841D02*
Y00857D01*
X00671Y00808D02*
X00683D01*
X00662Y00799D02*
X00671Y00808D01*
X00664Y00517D02*
X00717D01*
X0074Y00495*
X00155Y00875D02*
X00205Y00825D01*
X00078Y00319D02*
X00084Y00325D01*
X00078Y0031D02*
Y00319D01*
X00045Y0031D02*
X00078D01*
X0053Y0088D02*
X0058D01*
Y0092*
X0158D02*
X01655D01*
X01665*
X0139Y01985D02*
X01409D01*
X01404Y0199D02*
X01415Y01979D01*
X01357Y0195D02*
Y01982D01*
X0136Y01985*
X01334Y01953D02*
X01337Y01957D01*
X0147Y0198D02*
X01475D01*
X01505Y01978D02*
Y01981D01*
X01493Y01966D02*
X01505Y01978D01*
X01493Y01878D02*
Y01966D01*
X01455Y01882D02*
Y0192D01*
X01474Y01879D02*
Y01881D01*
X01477Y01885*
Y01929*
X01467Y01939D02*
X01477Y01929D01*
X01467Y01939D02*
Y01977D01*
X0147Y0198*
X01375Y01949D02*
X01384Y01958D01*
X01394*
X01375Y01927D02*
Y01949D01*
X01335Y0196D02*
X01337Y01957D01*
X0135Y0193D02*
Y01942D01*
X01357Y0195*
X01337Y01957D02*
D01*
X01334Y01923D02*
Y01953D01*
Y01923D02*
X01349Y01907D01*
Y0184D02*
Y01907D01*
X0135Y0193D02*
X01369Y0191D01*
X01375Y01927D02*
X01386Y01916D01*
X01369Y0184D02*
Y0191D01*
X01386Y01843D02*
Y01916D01*
X01284Y01878D02*
Y01922D01*
Y01878D02*
X01287Y01875D01*
Y01843D02*
Y01875D01*
X01268Y01843D02*
Y01875D01*
X01264Y01879D02*
X01268Y01875D01*
X01264Y01879D02*
Y01879D01*
X01268Y01884*
Y01915*
X01245Y01938D02*
X01268Y01915D01*
X01248Y01843D02*
Y01875D01*
X01247Y01875D02*
X01248Y01875D01*
X01247Y01875D02*
Y01885D01*
X01252Y0189*
Y01909*
X01239Y01922D02*
X01252Y01909D01*
X0123Y019D02*
X01231Y01898D01*
X01084Y0134D02*
X01137Y01287D01*
X01084Y0134D02*
Y01365D01*
X0105D02*
X01084D01*
X002Y0041D02*
Y00468D01*
X00135Y00345D02*
X002Y0041D01*
X01924Y0089D02*
Y0095D01*
X0147Y00788D02*
Y008D01*
X01463Y00806D02*
X0147Y008D01*
X01452Y00806D02*
X01463D01*
X01452Y008D02*
Y00806D01*
X01439Y00787D02*
X01452Y008D01*
X0142Y00787D02*
X01439D01*
X01407Y008D02*
X0142Y00787D01*
X00915Y01465D02*
Y0147D01*
X00928Y01483*
X00953*
X0095Y01365D02*
X0105D01*
X00812Y01503D02*
Y016D01*
X00953Y01483D02*
X01002Y01435D01*
X0112*
X01122Y01437*
X012Y0145D02*
Y01452D01*
X01727Y00785D02*
X01735Y00793D01*
X0169Y00748D02*
X01727Y00785D01*
X0169Y0074D02*
Y00748D01*
X01924Y0089D02*
X01925Y00891D01*
X01964Y016D02*
X02014Y0155D01*
X02205*
X02185Y01499D02*
X02248D01*
X02185Y0144D02*
Y01499D01*
X00629Y0053D02*
X00651D01*
X00664Y00517*
X00412Y00547D02*
X00415Y00549D01*
X00412Y0054D02*
Y00547D01*
X00379Y00539D02*
X0039Y0055D01*
X00389Y00572D02*
X00396Y0058D01*
X0038Y00572D02*
X00389D01*
X0049Y00536D02*
Y00539D01*
X00539Y00533D02*
X00545Y00539D01*
X00539Y00488D02*
Y00533D01*
X0031Y0089D02*
X0032Y009D01*
X00285Y0089D02*
X0031D01*
X00645Y0078D02*
X00655D01*
X00662Y00787*
Y00799*
X00683Y00808D02*
X00686Y00811D01*
Y00812*
X00441Y00828D02*
X00498Y00771D01*
X00441Y00828D02*
Y00841D01*
X00286Y00576D02*
X00333D01*
X0029Y0057D02*
Y00572D01*
X00286Y00576D02*
X0029Y00572D01*
X01041Y00471D02*
Y0048D01*
X00686Y00792D02*
X00742D01*
X00539Y00841D02*
Y0087D01*
X0053Y0088D02*
X00539Y0087D01*
X00855Y00762D02*
X0089Y00728D01*
X01211Y0076D02*
X01236Y00735D01*
X00997Y0076D02*
X01211D01*
X00995Y00762D02*
X00997Y0076D01*
X00855Y00762D02*
X00995D01*
X00855Y00762D02*
X00855Y00762D01*
X00686Y00674D02*
X00718D01*
X01136Y00635D02*
X01236D01*
X01041Y0054D02*
X01136Y00635D01*
X01041Y0048D02*
Y0054D01*
X00225Y0013D02*
X00234Y00139D01*
Y00141*
X0024Y00147*
X00242*
X00255Y0016*
Y00181*
X0071Y0006D02*
Y0012D01*
X00655Y00175D02*
X0071Y0012D01*
X00346Y00208D02*
X00359Y00221D01*
X00346Y00196D02*
Y00208D01*
X00265Y00115D02*
X00346Y00196D01*
X00178Y00294D02*
X00293Y0041D01*
X00757Y00584D02*
Y00612D01*
X00734Y006D02*
Y00612D01*
X0071Y00576D02*
X00734Y006D01*
X00686Y00576D02*
X0071D01*
X00718Y00606D02*
Y00618D01*
X00706Y00595D02*
X00718Y00606D01*
X00687Y00595D02*
X00706D01*
X00757Y00584D02*
X00771Y0057D01*
Y00561D02*
Y0057D01*
X00766Y00556D02*
X00958D01*
X00686Y00537D02*
X00917D01*
X00766Y00556D02*
X00771Y00561D01*
X01585Y00365D02*
X0165Y00299D01*
Y00243D02*
Y00299D01*
X0161Y00202D02*
X0165Y00243D01*
X0161Y0016D02*
Y00202D01*
X01775Y01385D02*
X0184D01*
X01648Y01462D02*
X01669D01*
X01682Y01445D02*
X01708D01*
X01682D02*
Y01449D01*
X01669Y01462D02*
X01682Y01449D01*
X00075Y00514D02*
X00089Y00528D01*
X00075Y00468D02*
Y00514D01*
X0005Y00468D02*
X00075D01*
Y00615D02*
X00089Y00601D01*
X00075Y00615D02*
Y00661D01*
X0125Y01365D02*
X01268D01*
X01355Y01277*
X01404*
X01445Y01369D02*
X01464Y01388D01*
X01476*
X01495Y01406*
X01405Y01432D02*
X01429Y01409D01*
X01464Y01366D02*
X0147Y01372D01*
X0158Y01301D02*
X01601Y01323D01*
X0158Y01301D02*
X01582Y01299D01*
Y0123D02*
Y01299D01*
X0123Y0145D02*
X01235D01*
X01203Y015D02*
X01211Y01508D01*
X01203Y01496D02*
Y015D01*
X01201Y01494D02*
X01203Y01496D01*
X01191Y01472D02*
X01195D01*
X01177Y01459D02*
X01191Y01472D01*
X01189Y01508D02*
Y01542D01*
X01187Y01506D02*
X01189Y01508D01*
X01187Y01502D02*
Y01506D01*
X01185Y015D02*
X01187Y01502D01*
X01184Y01488D02*
D01*
X01161Y01465D02*
X01184Y01488D01*
X01161Y01439D02*
Y01465D01*
X01219Y01489D02*
Y01493D01*
X01217Y01487D02*
X01219Y01489D01*
X01211Y01508D02*
Y01545D01*
X01177Y0144D02*
Y01459D01*
X01326Y015D02*
Y01508D01*
X01369Y01447D02*
Y01545D01*
X01354Y01432D02*
X01369Y01447D01*
X01342Y01432D02*
X01354D01*
X0134Y0143D02*
X01342Y01432D01*
X0134Y01375D02*
Y0143D01*
X01405Y01432D02*
Y01502D01*
X01235Y01462D02*
Y01482D01*
Y01484*
X01251Y015*
X01255Y01475D02*
X01268Y01487D01*
Y01542*
X01251Y015D02*
Y01545D01*
X01345Y01508D02*
X01346Y01509D01*
X01345Y01504D02*
Y01508D01*
Y01504D02*
X01348Y015D01*
Y01458D02*
Y015D01*
X0123Y0145D02*
X01237Y01457D01*
Y0146*
X01235Y01462D02*
X01237Y0146D01*
X01177Y0144D02*
X01191Y01427D01*
X01209*
X01159Y01437D02*
X01161Y01439D01*
X01122Y01437D02*
X01159D01*
X01231Y01506D02*
Y01545D01*
X01219Y01493D02*
X01231Y01506D01*
X01346Y01509D02*
Y01542D01*
X0131Y01455D02*
X01312D01*
X0131Y01479D02*
X0131Y01479D01*
X0131Y01479D02*
X0131Y01478D01*
Y01479*
Y01485D02*
Y01545D01*
X01187Y01287D02*
X01265Y0121D01*
X01327Y01509D02*
Y01542D01*
X01326Y01508D02*
X01327Y01509D01*
X0214Y0181D02*
X02205Y01745D01*
X01448Y01505D02*
Y01545D01*
Y01505D02*
X01451Y01502D01*
X01635Y01329D02*
Y01453D01*
X01209Y01427D02*
D01*
X01211*
Y01365D02*
Y01427D01*
X00214Y02039D02*
X0026Y02085D01*
X00203Y02027D02*
X00214Y02039D01*
X0026Y02085D02*
X0039D01*
X01502Y01259D02*
Y01302D01*
X01497Y01254D02*
X01502Y01259D01*
X01497Y01142D02*
Y01254D01*
Y01142D02*
X015Y0114D01*
X01741Y02946D02*
Y02955D01*
X00519Y00488D02*
Y00506D01*
X0049Y00536D02*
X00519Y00506D01*
X0046Y00841D02*
Y00876D01*
X0045Y00887D02*
X0046Y00876D01*
X0048Y00841D02*
Y00925D01*
X00764Y00298D02*
X00855Y00207D01*
Y002D02*
Y00207D01*
X00333Y00753D02*
X00366D01*
X0039Y00585D02*
X00391D01*
X00396Y0058*
X01497Y01307D02*
X01502Y01302D01*
X01601Y01323D02*
Y01439D01*
X01566Y0148D02*
Y01545D01*
X01512Y01457D02*
Y01489D01*
X01528Y01473D02*
Y01543D01*
X01546Y01477D02*
Y01545D01*
X01408Y01505D02*
Y01545D01*
X01405Y01502D02*
X01408Y01505D01*
X01252Y01954D02*
X01284Y01922D01*
X01167Y019D02*
X0119Y01922D01*
X01182Y01881D02*
X01191Y01873D01*
X01073Y01881D02*
X01182D01*
X01191Y01841D02*
Y01873D01*
X0119Y01922D02*
X01239D01*
X01186Y01938D02*
X01245D01*
X0042Y00925D02*
X0048D01*
Y00841D02*
X0048Y00841D01*
X0095Y00795D02*
X01033D01*
X01043Y00785*
X0036Y00221D02*
Y00244D01*
X00359Y00221D02*
X0036D01*
X00175Y00125D02*
Y00175D01*
X0112Y0226D02*
X01125Y02265D01*
X01229Y01954D02*
X01252D01*
X01428Y0184D02*
Y01898D01*
X0149Y01875D02*
X01493Y01878D01*
X0149Y01843D02*
Y01875D01*
X01509Y01842D02*
Y01924D01*
X01394Y01958D02*
X01415Y01979D01*
X01566Y01895D02*
X01569Y01899D01*
X01566Y0184D02*
Y01895D01*
X01526Y0184D02*
X01546D01*
X01507D02*
X01509Y01842D01*
X0147Y01875D02*
X01474Y01879D01*
X01487Y0184D02*
X0149Y01843D01*
X0147D02*
Y01875D01*
X01467Y0184D02*
X0147Y01843D01*
X01451D02*
Y01878D01*
X01455Y01882*
X01448Y0184D02*
X01451Y01843D01*
X01386D02*
X01389Y0184D01*
X01085Y019D02*
X01167D01*
X01268Y01843D02*
X0127Y0184D01*
X01287Y01843D02*
X0129Y0184D01*
X01082Y01902D02*
X01085Y019D01*
X01248Y01843D02*
X01251Y0184D01*
X01231D02*
Y01898D01*
X01191Y01841D02*
X01192Y0184D01*
X01022Y01932D02*
X01073Y01881D01*
X01022Y01932D02*
Y01981D01*
X0101Y02265D02*
X01076Y02331D01*
X01125*
X01537Y02265D02*
X01604Y02331D01*
X01655*
Y02403*
X01183Y01365D02*
X01211D01*
X0131Y01479D02*
Y01485D01*
Y01479D02*
X01315Y01484D01*
X0131Y01485D02*
X01314D01*
X01125Y02331D02*
Y02403D01*
X0147Y00788D02*
X0154D01*
X01469Y00855D02*
X0147Y00855D01*
X0158Y01062D02*
X01582Y01065D01*
X0158Y00986D02*
Y01062D01*
X01665Y00986D02*
Y01065D01*
X0157Y01127D02*
X01582Y0114D01*
X0157Y01101D02*
Y01127D01*
X01548Y01101D02*
X0157D01*
X01542Y01095D02*
X01548Y01101D01*
X01459Y01099D02*
X015Y0114D01*
X01459Y01035D02*
Y01099D01*
Y01035D02*
X01469Y01025D01*
X01577Y01372D02*
X01585Y0138D01*
Y01433*
X01526Y01545D02*
X01528Y01543D01*
X01487Y01545D02*
X0149Y01542D01*
X01467Y01544D02*
X01467Y01545D01*
X0138Y0131D02*
Y01343D01*
X0138Y01344*
X01346Y01542D02*
X01349Y01545D01*
X01327Y01542D02*
X0133Y01545D01*
X01314Y01485D02*
X01315Y01484D01*
X01287Y01542D02*
X0129Y01545D01*
X01268Y01542D02*
X0127Y01545D01*
X00255Y00256D02*
X00266Y00244D01*
X0036*
X0055Y00241D02*
X00614Y00176D01*
Y00144D02*
Y00176D01*
Y00144D02*
X0062Y00138D01*
X00645*
Y00105D02*
Y00138D01*
X0055Y00241D02*
X00558Y00249D01*
X00655*
X00598Y00428D02*
Y00488D01*
X0055Y0038D02*
X00598Y00428D01*
X0055Y00241D02*
Y0038D01*
X00293Y0041D02*
X00345D01*
X00095Y00725D02*
Y0078D01*
Y00666D02*
Y00725D01*
X0012*
X00125Y0073*
X01043Y00604D02*
Y00635D01*
X01009Y0057D02*
X01043Y00604D01*
X01009Y00514D02*
Y0057D01*
X00975Y0048D02*
X01009Y00514D01*
X00917Y00537D02*
X00975Y0048D01*
X00686Y00556D02*
X00766D01*
X00958D02*
X00975Y0054D01*
X00926Y00685D02*
X01043D01*
X0092Y00701D02*
Y00728D01*
X0095*
X00161Y0078D02*
X0022D01*
X00236Y00796*
X01036Y00728D02*
X01043Y00735D01*
X0095Y00728D02*
X01036D01*
X0089Y00795D02*
X0095D01*
X00329Y0071D02*
X00333Y00714D01*
X002Y00661D02*
X00259D01*
X00089Y00601D02*
X00221D01*
X0005Y00661D02*
X00075D01*
X00161Y00673D02*
Y0078D01*
X0015Y00661D02*
X00161Y00673D01*
X00095Y00666D02*
X001Y00661D01*
X01189Y01542D02*
X01192Y01545D01*
X01708Y01385D02*
X01708Y01385D01*
X01708Y01385D02*
Y01445D01*
X01645Y01545D02*
X01656Y01533D01*
X01725*
X00535Y01995D02*
Y021D01*
X0039Y02085D02*
X0052D01*
X00535Y021*
X0154Y00855D02*
X01542Y00857D01*
Y01095*
X015Y00986D02*
Y01065D01*
X01555Y0123D02*
X01582D01*
Y0114D02*
Y0123D01*
X01367Y0016D02*
X0138D01*
X00758Y01465D02*
X00805D01*
X00827Y01442*
X00812Y01503D02*
X0095Y01365D01*
X00827Y0141D02*
Y01442D01*
Y0141D02*
X01063Y01173D01*
X00412Y00547D02*
Y00657D01*
X00655Y00915D02*
X00674Y00934D01*
X00749*
X00755Y00928*
X00786Y00796D02*
X0083D01*
X0075Y00773D02*
X00783Y0074D01*
X00755Y00805D02*
Y00928D01*
X0075Y00773D02*
Y008D01*
X00755Y00805*
X00084Y00325D02*
X0011D01*
X0013Y00345*
X00135*
X00221Y00601D02*
X00314Y00694D01*
X00333*
X00259Y00661D02*
X00307Y0071D01*
X00329*
X00205Y00825D02*
X0028D01*
X00312Y00792*
X00333*
X0112Y0217D02*
Y0226D01*
X01208Y01975D02*
X01229Y01954D01*
X012Y01975D02*
X01208D01*
X01149D02*
X01186Y01938D01*
X01135Y01975D02*
X01149D01*
X02068Y00774D02*
X02069Y00775D01*
X02118*
X02068Y00747D02*
Y00774D01*
X01902Y0074D02*
X02062D01*
X01833Y009D02*
X0187D01*
X01839Y00804D02*
Y00805D01*
X02062Y0074D02*
X02068Y00747D01*
X01839Y00804D02*
X01902Y0074D01*
X0162Y00955D02*
X01655Y0092D01*
X015D02*
X01524Y00895D01*
X0158Y00857D02*
Y0092D01*
X01515Y00887D02*
X01524Y00895D01*
X0157Y00847D02*
X0158Y00857D01*
X01509Y00881D02*
X01515Y00887D01*
X01515*
X0157Y00828D02*
Y00847D01*
X01564Y00822D02*
X0157Y00828D01*
X01515Y00822D02*
X01564D01*
X01509Y00828D02*
Y00881D01*
Y00828D02*
X01515Y00822D01*
X01442D02*
X01515D01*
X01431Y00811D02*
X01442Y00822D01*
X01431Y00811D02*
Y0095D01*
X0143Y0081D02*
X01431Y00811D01*
X00398Y00524D02*
Y00526D01*
X00382Y00508D02*
X00398Y00524D01*
X00363Y00534D02*
Y00556D01*
X0038Y00572*
X00379Y00528D02*
Y00539D01*
X00333Y00517D02*
X00346D01*
X00363Y00534*
X00362Y00488D02*
Y0051D01*
X00379Y00528*
X0074Y00428D02*
Y00437D01*
X00645Y00512D02*
X00646D01*
X00655Y00503*
Y00502D02*
Y00503D01*
Y00502D02*
X00657Y005D01*
X0062Y0054D02*
X00629Y0053D01*
X00644Y00513D02*
X00645Y00512D01*
X00657Y00489D02*
Y005D01*
Y00489D02*
X00665Y00497D01*
X00694D02*
X00707Y00484D01*
Y00469D02*
Y00484D01*
Y00469D02*
X0074Y00437D01*
X00665Y00497D02*
X00694D01*
X00089Y00528D02*
X00292D01*
X00323Y00497*
X00331*
X0037Y00465D02*
X00382Y00476D01*
Y00508*
X00357Y00465D02*
X0037D01*
X00346Y00476D02*
X00357Y00465D01*
X00346Y00476D02*
Y00482D01*
X00331Y00497D02*
X00346Y00482D01*
X01Y0044D02*
X0101D01*
X01041Y00471*
X00792Y00369D02*
X00855D01*
X00785Y00362D02*
X00792Y00369D01*
X00638Y00438D02*
X00639Y00439D01*
Y00488*
X00638Y00438D02*
X00687Y0039D01*
Y0038D02*
Y0039D01*
X00618Y00427D02*
X00747Y00298D01*
X00687Y0038D02*
X00705Y00362D01*
X00785*
X00618Y00427D02*
Y00488D01*
X00747Y00298D02*
X00764D01*
X00507Y0078D02*
X0056D01*
X00498Y00771D02*
X00507Y0078D01*
X00395Y00674D02*
X00412Y00657D01*
X0041Y00355D02*
X00441Y00386D01*
X00418Y00459D02*
X00421Y00462D01*
Y00501*
X00403Y00468D02*
Y00488D01*
X00345Y0041D02*
X00403Y00468D01*
X00435Y00525D02*
X00441Y00518D01*
Y00386D02*
Y00518D01*
X01082Y01902D02*
Y01981D01*
X02217Y0075D02*
Y00767D01*
X0227Y0082*
G54D36*
X0085Y02566D02*
Y0293D01*
X01915Y02576D02*
Y02925D01*
Y02546D02*
Y02576D01*
X00365Y0294D02*
X0037Y0272D01*
X00155D02*
Y0291D01*
X01385Y02579D02*
X01387Y02576D01*
X01385Y02579D02*
Y0294D01*
G54D38*
X02105Y00531D02*
X02126Y00552D01*
Y00665*
G54D45*
X004Y0111D03*
X0221Y0302D03*
X00095Y00085D03*
G54D46*
X0037Y0272D03*
Y0294D03*
X00155D03*
Y0272D03*
X0085Y0294D03*
X01385D03*
X01915D03*
G54D47*
X02265Y02833D03*
Y024D03*
X00555Y03018D03*
Y02585D03*
G54D48*
X01125Y0006D03*
X01246D03*
X01367D03*
X01488D03*
X0161D03*
G54D49*
X01125Y0016D03*
Y0026D03*
X01246Y0016D03*
Y0026D03*
X01367Y0016D03*
Y0026D03*
X01488Y0016D03*
Y0026D03*
X0161Y0016D03*
Y0026D03*
G54D50*
X02255Y0228D03*
G54D51*
X022Y0278D03*
X0219Y02815D03*
X0214Y02821D03*
X02175Y0218D03*
X0045Y01825D03*
X0162Y0284D03*
X01586Y0288D03*
X0154D03*
X0162Y02887D03*
X0165Y0288D03*
X00605Y02281D03*
X00635Y02365D03*
Y0233D03*
X0207Y02821D03*
X02105D03*
X0126Y02875D03*
X0123D03*
X012D03*
X0117D03*
X0114D03*
X01665Y01925D03*
X01626Y01981D03*
X017Y01935D03*
X0156Y0214D03*
X0158Y0219D03*
X01566Y01981D03*
X01546Y01908D03*
X0169Y02145D03*
X0165Y02185D03*
X0226Y00485D03*
X02315Y00585D03*
Y00615D03*
X0229Y006D03*
Y0057D03*
Y0048D03*
X02315Y00495D03*
X0229Y0051D03*
Y0054D03*
X02315Y00525D03*
Y00555D03*
X0148Y0127D03*
X0079Y00714D03*
X0064Y00725D03*
X0069Y01155D03*
X01772Y00811D03*
X01894Y00781D03*
X01925Y00895D03*
X01582Y00808D03*
X01456Y00746D03*
X01865Y01105D03*
X01805Y0116D03*
X01467Y01452D03*
X0149Y0148D03*
X01515Y01455D03*
X01428Y01493D03*
X01345Y01455D03*
X0131Y01485D03*
X01257Y01475D03*
X0116Y0087D03*
X0107D03*
X0111D03*
X011Y0071D03*
X00365Y0097D03*
X0131Y0096D03*
X01335Y0087D03*
X0129Y0099D03*
X01225Y00975D03*
X01329Y0105D03*
X01315Y00894D03*
X01275Y0086D03*
X01249Y00876D03*
X0122Y0087D03*
X0119D03*
X01185Y0131D03*
X01635Y0126D03*
X01545Y0219D03*
X02045Y02775D03*
X0139Y01985D03*
X0136D03*
X01475Y0198D03*
X01505Y01981D03*
X01455Y0192D03*
X01335Y0196D03*
X01325Y019D03*
X0123D03*
X0162Y0218D03*
X01615Y02625D03*
X0113Y0259D03*
X0116Y02675D03*
X0156Y02775D03*
X0111Y02655D03*
X01294Y01985D03*
X00295Y0048D03*
X00915Y01465D03*
X0101D03*
X01039Y01458D03*
X011Y0146D03*
X0108Y01484D03*
X012Y0145D03*
X0169Y0074D03*
X01875Y00935D03*
X0039Y0055D03*
X0049Y00539D03*
X00545D03*
X0032Y009D03*
X00645Y0078D03*
X00985Y01905D03*
X00105Y00395D03*
X0029Y0057D03*
X00225Y0013D03*
X0071Y0006D03*
X00835Y00035D03*
X0078Y00595D03*
X02248Y00271D03*
X0177Y0161D03*
X02Y0185D03*
X0166Y0144D03*
X01205Y00945D03*
X0095Y01205D03*
X01075Y00975D03*
X00275Y0185D03*
X00295Y019D03*
X01215Y0131D03*
X01245D03*
X01298Y01263D03*
X01324Y01247D03*
X0133Y012D03*
X01305Y0115D03*
X01275Y0131D03*
X01235Y0145D03*
X0128Y01455D03*
X0131D03*
X00335Y02325D03*
X00345Y0227D03*
X00315Y01818D03*
X0031Y02045D03*
X01005Y01595D03*
X0097Y0131D03*
X0103D03*
X01D03*
X00995Y00895D03*
X00955Y0087D03*
X0101Y00867D03*
X01585Y00425D03*
X0154D03*
X0085Y0143D03*
X00555Y0104D03*
X0053Y0088D03*
X02135Y00045D03*
X0167Y00225D03*
X00905Y0113D03*
X00902Y00997D03*
X0087Y0115D03*
Y0095D03*
X01665Y01405D03*
X02005Y01425D03*
X0195Y0138D03*
X0197Y0108D03*
X0173Y0119D03*
X0063Y023D03*
X01265Y0121D03*
X01555Y01265D03*
X01065Y02875D03*
X01945Y01785D03*
X0168Y02885D03*
X0102Y0216D03*
X0045Y00887D03*
X00755Y00275D03*
X00366Y00753D03*
X00815Y0028D03*
X0039Y00585D03*
X0169Y0181D03*
X019Y01785D03*
X01849Y01784D03*
X013Y0194D03*
X012Y019D03*
X00715Y01025D03*
X0073Y01055D03*
X00295Y0225D03*
X0069Y01385D03*
X00175Y00125D03*
X0036Y0015D03*
X01428Y01898D03*
X01022Y01981D03*
X0106Y0131D03*
X00125Y0073D03*
X00236Y00796D03*
X01761Y01088D03*
X01555Y0123D03*
X01325Y011D03*
X01799Y01786D03*
X0079Y01415D03*
X00805Y01465D03*
X00786Y00796D03*
X00135Y00395D03*
X0013Y00345D03*
X0028Y00825D03*
X00295Y0073D03*
X0012Y0082D03*
X0112Y0217D03*
X0118Y02185D03*
X01185Y02155D03*
X01205Y0213D03*
X012Y01975D03*
X01135D03*
X02035Y01145D03*
X0187Y009D03*
X01955Y00825D03*
X01925Y0083D03*
X0185Y0072D03*
X0228Y0069D03*
X01735Y0074D03*
X0162Y00955D03*
X0143Y0081D03*
X01445Y0066D03*
X01115Y0053D03*
X01329Y01615D03*
X01534D03*
X01125Y01666D03*
Y01615D03*
X01176D03*
X01227D03*
X01278D03*
X01381D03*
X01432D03*
X01483D03*
X01585D03*
X01637D03*
X01176Y01666D03*
X01227D03*
X01278D03*
X01329D03*
X01381D03*
X01432D03*
X01483D03*
X01534D03*
X01585D03*
X01637D03*
X01125Y01717D03*
X01176D03*
X01227D03*
X01278D03*
X01329D03*
X01381D03*
X01432D03*
X01483D03*
X01534D03*
X01585D03*
X01637D03*
X01125Y01768D03*
X01176D03*
X01227D03*
X01278D03*
X01329D03*
X01381D03*
X01432D03*
X01483D03*
X01534D03*
X01585D03*
X01637D03*
X0052Y0193D03*
X0062Y0054D03*
X02085Y009D03*
X0033Y0046D03*
X01Y0044D03*
X00725Y00385D03*
X0056Y0078D03*
X00435Y00525D03*
X01082Y01981D03*
X01815Y0069D03*
X0185D03*
X01885Y0072D03*
Y0069D03*
X01815Y0072D03*
G54D52*
X00582Y00594D03*
Y00641D03*
Y00688D03*
Y00735D03*
X00535Y00594D03*
Y00641D03*
Y00688D03*
Y00735D03*
X00488Y00594D03*
Y00641D03*
Y00688D03*
Y00735D03*
X00441Y00594D03*
Y00641D03*
Y00688D03*
Y00735D03*
G54D53*
X02196Y02901D02*
X02265Y02833D01*
X02128Y02901D02*
X02196D01*
X01966Y03064D02*
X02128Y02901D01*
X01955Y03064D02*
X01966D01*
X01955Y03065D02*
X01955Y03064D01*
X01851Y03065D02*
X01955D01*
X0212Y0218D02*
Y02228D01*
X02015Y02075D02*
X0212Y0218D01*
X01964Y02025D02*
X02015Y02075D01*
Y02265*
X01741Y02955D02*
X01851Y03065D01*
X01585Y0037D02*
X01694D01*
X01585Y00365D02*
Y0037D01*
X01527Y00307D02*
X01549Y00329D01*
X0143Y0016D02*
X01488D01*
X0138D02*
X0143D01*
X01518Y00307D02*
X01527D01*
X01511Y00315D02*
X01518Y00307D01*
X01465Y00315D02*
X01511D01*
X01433Y00282D02*
X01465Y00315D01*
X01433Y00163D02*
Y00282D01*
X0143Y0016D02*
X01433Y00163D01*
X01549Y0016D02*
X0161D01*
X01488D02*
X01549D01*
Y00329D02*
X01585Y00365D01*
X01549Y0016D02*
Y00329D01*
X01246Y0016D02*
X01367D01*
X01125D02*
X01246D01*
X00434Y01787D02*
X00508D01*
X00516Y01795*
X00426D02*
X00434Y01787D01*
X00371Y01795D02*
X00426D01*
X00635Y02309D02*
Y02365D01*
X00625Y023D02*
X00635Y02309D01*
X00625Y02295D02*
Y023D01*
X00611Y02281D02*
X00625Y02295D01*
X00535Y02281D02*
X00611D01*
X01087Y01825D02*
X01101Y0184D01*
X01087Y01813D02*
Y01825D01*
X00535Y01813D02*
X01087D01*
X00598Y02163D02*
X00614Y02147D01*
Y01912D02*
Y02147D01*
X00535Y02206D02*
X00577Y02163D01*
X00598*
X00614Y01912D02*
X00615Y01911D01*
Y01893D02*
Y01911D01*
X00535Y01813D02*
X00615Y01893D01*
X01715Y02173D02*
Y02305D01*
Y02173D02*
X01727Y0216D01*
X01715Y02305D02*
X02024D01*
X01727Y02129D02*
Y0216D01*
X02024Y02274D02*
Y02305D01*
X0168Y02885D02*
X01741Y02946D01*
X00535Y02206D02*
Y02281D01*
X00385Y01385D02*
Y01598D01*
X00081Y0208D02*
X00086Y02085D01*
G54D54*
X00535Y02281D03*
Y021D03*
X0055Y00241D03*
Y0006D03*
X0036Y00244D03*
Y00063D03*
X02125Y01166D03*
Y00985D03*
X02275Y02021D03*
Y0184D03*
X00535Y01813D03*
Y01995D03*
X01585Y00365D03*
Y00546D03*
G54D55*
X00812Y02025D03*
Y016D03*
X01964Y02025D03*
Y016D03*
G54D56*
X0005Y00661D03*
X001D03*
X0015D03*
X002D03*
X0005Y00468D03*
X001D03*
X0015D03*
X002D03*
G54D57*
X01705Y00331D03*
Y00281D03*
Y00231D03*
Y00181D03*
Y00531D03*
X01755D03*
X01805D03*
X01855D03*
X01905D03*
X01955D03*
X02005D03*
X02105D03*
X02155D03*
X02205D03*
Y00481D03*
X02155D03*
X02105D03*
X02005D03*
X01955D03*
X01905D03*
X01855D03*
X01805D03*
X01755D03*
X01705D03*
X02205Y00431D03*
X02155D03*
X02105D03*
X02005D03*
X01955D03*
X01905D03*
X01855D03*
X01805D03*
X01755D03*
X01705D03*
X02005Y00381D03*
X01955D03*
X01905D03*
X01855D03*
X01805D03*
X01755D03*
X01705D03*
X02205Y00331D03*
X02155D03*
X02105D03*
X02055D03*
X02005D03*
X01955D03*
X01905D03*
X01855D03*
X01805D03*
X01755D03*
X02205Y00281D03*
X02155D03*
X02105D03*
X02055D03*
X02005D03*
X01955D03*
X01905D03*
X01855D03*
X01805D03*
X01755D03*
X02205Y00231D03*
X02155D03*
X02105D03*
X02055D03*
X02005D03*
X01955D03*
X01905D03*
X01855D03*
X01805D03*
X01755D03*
X02205Y00181D03*
X02155D03*
X02105D03*
X02055D03*
X02005D03*
X01955D03*
X01905D03*
X01855D03*
X01805D03*
X01755D03*
G54D58*
X02185Y0144D03*
Y013D03*
X0033Y02545D03*
Y02405D03*
G54D59*
X00086Y02085D03*
X0039D03*
X00081Y01385D03*
X00385D03*
G54D60*
X01236Y00785D03*
Y00735D03*
Y00685D03*
Y00635D03*
X01043Y00785D03*
Y00735D03*
Y00685D03*
Y00635D03*
G54D61*
X01379Y01692D03*
G54D62*
X01645Y0184D03*
X01625D03*
X01605D03*
X01585D03*
X01566D03*
X01546D03*
X01526D03*
X01507D03*
X01487D03*
X01467D03*
X01448D03*
X01428D03*
X01408D03*
X01389D03*
X01369D03*
X01349D03*
X0133D03*
X0131D03*
X0129D03*
X0127D03*
X01251D03*
X01231D03*
X01211D03*
X01192D03*
X01172D03*
X01152D03*
X01133Y0184D03*
X01113Y0184D03*
Y01545D03*
X01133D03*
X01152D03*
X01172D03*
X01192D03*
X01211D03*
X01231D03*
X01251D03*
X0127D03*
X0129D03*
X0131D03*
X0133D03*
X01349D03*
X01369D03*
X01389D03*
X01408D03*
X01428D03*
X01448D03*
X01467D03*
X01487D03*
X01507D03*
X01526D03*
X01546D03*
X01566D03*
X01585D03*
X01605D03*
X01625D03*
X01645D03*
G54D63*
X02205Y0155D03*
Y01745D03*
G54D64*
X00659Y00488D03*
X00639D03*
X0062D03*
X006D03*
X0058D03*
X00561D03*
X00541D03*
X00521D03*
X00502D03*
X00482D03*
X00462D03*
X00443D03*
X00423D03*
X00403D03*
X00384D03*
X00364D03*
Y00841D03*
X00384D03*
X00403D03*
X00423D03*
X00443D03*
X00462D03*
X00482D03*
X00502D03*
X00521D03*
X00541D03*
X00561D03*
X0058D03*
X006D03*
X0062D03*
X00639D03*
X00659D03*
G54D65*
X00335Y00517D03*
Y00537D03*
Y00556D03*
Y00576D03*
Y00596D03*
Y00615D03*
Y00635D03*
Y00655D03*
Y00674D03*
Y00694D03*
Y00714D03*
Y00733D03*
Y00753D03*
Y00773D03*
Y00792D03*
Y00812D03*
X00688D03*
Y00792D03*
Y00773D03*
Y00753D03*
Y00733D03*
Y00714D03*
Y00694D03*
Y00674D03*
Y00655D03*
Y00635D03*
Y00615D03*
Y00596D03*
Y00576D03*
Y00556D03*
Y00537D03*
Y00517D03*
G54D66*
X00512Y00665D03*
G54D67*
X01694Y0037D02*
X01705Y00381D01*
X01689Y00365D02*
X01694Y0037D01*
X01411Y00546D02*
X01585D01*
X01529Y00728D02*
X01661D01*
X0152Y00719D02*
X01529Y00728D01*
X01661D02*
X01678Y00712D01*
X01702*
X01755Y0066*
X0152Y00685D02*
Y00719D01*
Y006D02*
Y00685D01*
X01529Y00591D02*
X01585D01*
X0152Y006D02*
X01529Y00591D01*
X01585Y00546D02*
Y00591D01*
X02205Y00181D02*
Y00231D01*
Y00181D02*
X02215Y00171D01*
Y00095D02*
Y00171D01*
X02205Y00281D02*
X02212D01*
X0229Y00358*
X01705Y00531D02*
Y00539D01*
X01584Y0066D02*
X01705Y00539D01*
X01573Y0066D02*
X01584D01*
X01585Y00365D02*
X01689D01*
X02005Y00181D02*
X02006Y00179D01*
Y00095D02*
Y00179D01*
X02148Y00174D02*
X02155Y00181D01*
X02148Y00095D02*
Y00174D01*
X01955Y00531D02*
Y00655D01*
X0131Y00445D02*
Y00625D01*
X01314Y00629*
X01125Y0026D02*
X0131Y00445D01*
X01411Y00546*
X01084Y0026D02*
X01125D01*
X00922Y00422D02*
X01084Y0026D01*
X00745Y00422D02*
X00922D01*
X0074Y00428D02*
X00745Y00422D01*
X0176Y00665D02*
X018D01*
X01865D02*
X01868Y00662D01*
X01942D02*
X01945Y00665D01*
X01868Y00662D02*
X01942D01*
X018Y00665D02*
X01803Y00662D01*
X01826*
X01829Y00665*
X01835*
X01838Y00662*
X01861*
X01864Y00665*
X01865*
G54D68*
X01389Y01392D02*
Y01545D01*
Y01392D02*
X01406Y01375D01*
G54D69*
X01777Y00455D03*
G54D70*
X02157Y00482D03*
G54D71*
X01955Y00445D03*
G54D72*
X01762Y00192D03*
G54D73*
X01932Y0028D03*
M02*