%FSTAX23Y23*%
%MOIN*%
%SFA1B1*%

%IPPOS*%
%ADD32C,0.011810*%
%ADD34C,0.027560*%
%ADD35C,0.009840*%
%ADD38C,0.015750*%
%ADD46C,0.196850*%
%ADD48R,0.059060X0.059060*%
%ADD49C,0.059060*%
%ADD51C,0.023620*%
%ADD52C,0.027170*%
%LNninja_3_2_pcb-1*%
%LPD*%
G36*
X02322Y02864D02*
X02317Y02863D01*
X02315Y02867*
X02308Y02876*
X02299Y02884*
X02288Y02889*
X02276Y02893*
X02265Y02894*
X02253Y02893*
X02241Y02889*
X0223Y02884*
X02221Y02876*
X02214Y02867*
X02208Y02856*
X02204Y02845*
X02204Y02843*
X02199Y02841*
X02196Y02844*
X02189Y02846*
X02183Y02847*
X01984*
X01982Y02852*
X01993Y02861*
X02004Y02875*
X02013Y02889*
X0202Y02905*
X02024Y02922*
X02025Y0294*
X02024Y02957*
X0202Y02974*
X02013Y0299*
X02004Y03005*
X01993Y03018*
X0198Y03029*
X01965Y03038*
X01949Y03045*
X01932Y03049*
X01915Y0305*
X01897Y03049*
X0188Y03045*
X01864Y03038*
X0185Y03029*
X01836Y03018*
X01825Y03005*
X01816Y0299*
X01809Y02974*
X01805Y02957*
X01804Y0294*
X01805Y02922*
X01809Y02905*
X01816Y02889*
X01825Y02875*
X01836Y02861*
X01847Y02852*
X01845Y02847*
X01671*
X01665Y02846*
X01658Y02844*
X01653Y0284*
X01647Y02834*
X0143*
X01429Y02839*
X01435Y02841*
X0145Y0285*
X01463Y02861*
X01474Y02875*
X01483Y02889*
X0149Y02905*
X01494Y02922*
X01495Y0294*
X01494Y02957*
X0149Y02974*
X01483Y0299*
X01474Y03005*
X01463Y03018*
X0145Y03029*
X01435Y03038*
X01419Y03045*
X01402Y03049*
X01385Y0305*
X01367Y03049*
X0135Y03045*
X01334Y03038*
X0132Y03029*
X01306Y03018*
X01295Y03005*
X01286Y0299*
X01279Y02974*
X01275Y02957*
X01274Y0294*
X01275Y02922*
X01279Y02905*
X0128Y02903*
X01276Y02899*
X01276Y02899*
X0127Y029*
X01065*
X01058Y02899*
X01052Y02897*
X01046Y02893*
X01042Y02887*
X0104Y02881*
X01039Y02875*
X0104Y02868*
X01042Y02862*
X01046Y02856*
X01052Y02852*
X01058Y0285*
X01065Y02849*
X01259*
X01318Y0279*
X01323Y02786*
X01329Y02783*
X01336Y02782*
X01533*
X01536Y02778*
X01535Y02775*
X01537Y02765*
X01542Y02757*
X0155Y02752*
X0156Y0275*
X01569Y02752*
X01577Y02757*
X01582Y02765*
X01584Y02775*
X01583Y02778*
X01586Y02782*
X01658*
X01665Y02783*
X01671Y02786*
X01676Y0279*
X01682Y02795*
X02025*
X02027Y0279*
X02022Y02784*
X0202Y02775*
X02022Y02765*
X02027Y02758*
Y02752*
X01582Y02307*
X01579Y02301*
X01577Y02295*
Y02287*
X01567Y02277*
X01564Y02271*
X01562Y02265*
Y02212*
X01557Y02209*
X01554Y02212*
X01545Y02214*
X01535Y02212*
X01527Y02207*
X01522Y02199*
X0152Y0219*
X01522Y0218*
X01527Y02172*
X01535Y02167*
X01544Y02165*
X01546Y02164*
X01546Y02159*
X01544Y02158*
X01411*
X01377Y02191*
X01371Y02195*
X01364Y02196*
X01257*
X01164Y02289*
Y02565*
X01166Y02567*
X0117Y02573*
X01171Y0258*
Y02611*
X0117Y02618*
X01166Y02624*
X01133Y02656*
X01132Y02664*
X01127Y02672*
X01119Y02677*
X0111Y02679*
X011Y02677*
X01092Y02672*
X01087Y02664*
X01085Y02655*
X01087Y02645*
X01092Y02637*
X011Y02632*
X01108Y02631*
X01122Y02617*
X01121Y02613*
X0112Y02611*
X01112Y02607*
X01107Y02599*
X01105Y0259*
X01107Y0258*
X01112Y02573*
Y02275*
X01114Y02268*
X01117Y02262*
X01169Y02211*
X01168Y02205*
X01162Y02202*
X01157Y02194*
X01155Y02185*
X01157Y02175*
X01162Y02167*
X01164Y02166*
X01162Y02164*
X0116Y02155*
X01162Y02145*
X01167Y02137*
X01175Y02132*
X01181Y02131*
X0118Y0213*
X01182Y0212*
X01187Y02112*
X01195Y02107*
X01205Y02105*
X01214Y02107*
X01222Y02112*
X01227Y0212*
X01229Y0213*
X01227Y02139*
X01222Y02147*
X01214Y02152*
X01208Y02153*
X01209Y02155*
X01207Y02164*
X01203Y0217*
X01203Y0217*
X0121Y0217*
X01232Y02147*
X01238Y02144*
X01245Y02142*
X01342*
X01342*
X01348Y02139*
X01355Y02137*
X01357*
X0139Y02105*
X01395Y02101*
X01402Y021*
X01522*
X01524Y02095*
X0143Y02001*
X01426Y01995*
X01425Y01989*
Y01987*
X01418Y0198*
X01413Y01982*
X01414Y01985*
X01412Y01994*
X01407Y02002*
X01399Y02007*
X0139Y02009*
X0138Y02007*
X01375Y02003*
X01369Y02007*
X0136Y02009*
X0135Y02007*
X01342Y02002*
X01337Y01994*
X01335Y01985*
X01335Y01984*
X01325Y01982*
X01323Y0198*
X01318Y01983*
X01319Y01985*
X01317Y01994*
X01311Y02002*
X01304Y02007*
X01294Y02009*
X01285Y02007*
X01277Y02002*
X01272Y01994*
X0127Y01985*
X01272Y01976*
X01277Y01968*
X01284Y01964*
X01285Y01958*
X01282Y01957*
X01277Y01949*
X01275Y0194*
X01277Y0193*
X01282Y01922*
X01284Y01922*
X01282Y01917*
X01246*
X01239Y01922*
X0123Y01924*
X0122Y01922*
X01215Y01918*
X01209Y01922*
X012Y01924*
X0119Y01922*
X01182Y01917*
X01182Y01916*
X01177Y01916*
X01145Y01948*
X01146Y01954*
X01152Y01957*
X01157Y01965*
X01159Y01975*
X01157Y01984*
X01152Y01992*
X01144Y01997*
X01137Y01998*
Y02153*
X01142Y0216*
X01144Y0217*
X01142Y02179*
X01137Y02187*
X01129Y02192*
X0112Y02194*
X0111Y02192*
X01102Y02187*
X01097Y02179*
X01095Y0217*
X01097Y0216*
X01102Y02153*
Y02002*
X01097Y01999*
X01092Y02003*
X01082Y02005*
X01073Y02003*
X01065Y01998*
X0106Y0199*
X01058Y01981*
X0106Y01972*
X01065Y01964*
X01073Y01959*
X01082Y01957*
X0109Y01959*
X01093Y01958*
X01095Y01955*
X01096Y01951*
X011Y01945*
X01161Y01884*
X01161Y01884*
X01165Y01878*
X01178Y01865*
X01184Y01861*
X0119Y0186*
X01334*
X0134Y01861*
X01346Y01865*
X01362Y01881*
X01411*
X01419Y01876*
X01428Y01874*
X01437Y01876*
X01445Y01881*
X0145Y01889*
X01452Y01896*
X01455Y01895*
X01464Y01897*
X01472Y01902*
X01477Y0191*
X01479Y0192*
X01477Y01929*
X01472Y01937*
X01464Y01942*
X01455Y01944*
X01445Y01942*
X01437Y01937*
X01432Y01929*
X01431Y01921*
X01428Y01922*
X01419Y0192*
X01412Y01916*
X0141Y01917*
X01408Y01922*
X0145Y01964*
X01457Y01963*
X01457Y01962*
X01465Y01957*
X01475Y01955*
X01484Y01957*
X01491Y01962*
X01496Y01959*
X01505Y01957*
X01515Y01959*
X01522Y01964*
X01528Y01972*
X01529Y01981*
X01528Y0199*
X01522Y01998*
X01515Y02003*
X01505Y02005*
X01496Y02003*
X01489Y01999*
X01485Y02001*
X01483Y02007*
X01561Y02084*
X01575*
X01582Y02085*
X01588Y02089*
X0161Y02111*
X01614Y02117*
X01615Y02124*
Y02138*
X01617Y0214*
X01629*
X01635Y02141*
X0164Y02144*
X01641Y02144*
X01647Y02145*
X01653Y02149*
X01662Y02157*
X01665Y02163*
X01666Y02167*
X01667Y02167*
X01672Y02175*
X01674Y02185*
X01672Y02194*
X01667Y02202*
X01659Y02207*
X0165Y02209*
X0164Y02207*
X01632Y02202*
X01627Y02194*
X01625Y02185*
X01627Y02177*
X01622Y02174*
X01622Y02174*
X0161*
X01603Y02173*
X01602Y02172*
X01599Y02176*
X01602Y0218*
X01604Y0219*
X01602Y02199*
X01597Y02206*
Y02257*
X01607Y02267*
X0161Y02273*
X01612Y0228*
Y02287*
X02057Y02732*
X0206Y02738*
X02062Y02745*
Y02758*
X02067Y02765*
X02069Y02775*
X02067Y02784*
X02062Y0279*
X02064Y02795*
X02171*
X02173Y02791*
X02174Y0279*
X02174Y0279*
Y0278*
X02175Y02773*
X02177Y02767*
X02181Y02761*
X02187Y02757*
X02193Y02755*
X022Y02754*
X02206Y02755*
X02212Y02757*
X02218Y02761*
X02222Y02767*
X02224Y02773*
X02225Y02779*
X02227Y02781*
X0223Y02781*
X02232Y02781*
X02241Y02776*
X02253Y02772*
X02265Y02771*
X02276Y02772*
X02288Y02776*
X02299Y02782*
X02308Y02789*
X02315Y02799*
X02317Y02802*
X02322Y02801*
Y02431*
X02317Y0243*
X02315Y02434*
X02308Y02443*
X02299Y0245*
X02288Y02456*
X02276Y0246*
X02265Y02461*
X02253Y0246*
X02241Y02456*
X0223Y0245*
X02221Y02443*
X02214Y02434*
X02208Y02423*
X02204Y02411*
X02203Y024*
X02204Y02388*
X02208Y02376*
X02214Y02365*
X02221Y02356*
X0223Y02349*
X02241Y02343*
X02253Y02339*
X02265Y02338*
X02276Y02339*
X02288Y02343*
X02299Y02349*
X02308Y02356*
X02315Y02365*
X02317Y02369*
X02322Y02368*
Y00641*
X02318Y00638*
X02315Y00639*
X02305Y00637*
X02297Y00632*
X02292Y00624*
X02292Y00623*
X0229Y00624*
X0228Y00622*
X02272Y00617*
X02267Y00609*
X02265Y006*
X02267Y0059*
X02271Y00585*
X02267Y00579*
X02265Y0057*
X02267Y0056*
X02271Y00555*
X02267Y00549*
X02265Y0054*
X02267Y0053*
X02271Y00525*
X02267Y00519*
X02266Y00512*
X02261Y00508*
X0226Y00509*
X0225Y00507*
X02242Y00502*
X02237Y00494*
X02235Y00485*
X02237Y00475*
X02242Y00467*
X0225Y00462*
X0226Y0046*
X02269Y00462*
X02271Y00464*
X02272Y00462*
X0228Y00457*
X0229Y00455*
X02299Y00457*
X02307Y00462*
X02312Y0047*
X02312Y00471*
X02315Y0047*
X02318Y00471*
X02322Y00468*
Y00002*
X00002*
Y03095*
X02197*
X02197Y0309*
X02196Y03089*
X02182Y03085*
X0217Y03079*
X02159Y0307*
X0215Y03059*
X02144Y03047*
X0214Y03033*
X02138Y0302*
X0214Y03006*
X02144Y02992*
X0215Y0298*
X02159Y02969*
X0217Y0296*
X02182Y02954*
X02196Y0295*
X0221Y02948*
X02223Y0295*
X02237Y02954*
X02249Y0296*
X0226Y02969*
X02269Y0298*
X02275Y02992*
X02279Y03006*
X02281Y0302*
X02279Y03033*
X02275Y03047*
X02269Y03059*
X0226Y0307*
X02249Y03079*
X02237Y03085*
X02223Y03089*
X02222Y0309*
X02222Y03095*
X02322*
Y02864*
G37*
%LNninja_3_2_pcb-2*%
%LPC*%
G36*
X0032Y00924D02*
X0031Y00922D01*
X00302Y00917*
X00297Y00909*
X00295Y009*
X00297Y0089*
X00302Y00882*
X0031Y00877*
X0032Y00875*
X00329Y00877*
X00337Y00882*
X00342Y0089*
X00344Y009*
X00342Y00909*
X00337Y00917*
X00329Y00922*
X0032Y00924*
G37*
G36*
X004Y01181D02*
X00386Y01179D01*
X00372Y01175*
X0036Y01169*
X00349Y0116*
X0034Y01149*
X00334Y01137*
X0033Y01123*
X00328Y0111*
X0033Y01096*
X00334Y01082*
X0034Y0107*
X00349Y01059*
X0036Y0105*
X00372Y01044*
X00386Y0104*
X004Y01038*
X00413Y0104*
X00427Y01044*
X00439Y0105*
X0045Y01059*
X00459Y0107*
X00465Y01082*
X00469Y01096*
X00471Y0111*
X00469Y01123*
X00465Y01137*
X00459Y01149*
X0045Y0116*
X00439Y01169*
X00427Y01175*
X00413Y01179*
X004Y01181*
G37*
G36*
X01925Y00919D02*
X01915Y00917D01*
X01907Y00912*
X01902Y00904*
X019Y00895*
X01902Y00885*
X01907Y00877*
X01915Y00872*
X01925Y0087*
X01934Y00872*
X01942Y00877*
X01947Y00885*
X01949Y00895*
X01947Y00904*
X01942Y00912*
X01934Y00917*
X01925Y00919*
G37*
G36*
X01125Y00201D02*
X01114Y002D01*
X01104Y00196*
X01095Y00189*
X01088Y0018*
X01084Y0017*
X01083Y0016*
X01084Y00149*
X01088Y00139*
X01095Y0013*
X01104Y00123*
X01114Y00119*
X01125Y00118*
X01135Y00119*
X01145Y00123*
X01154Y0013*
X01161Y00139*
X01165Y00149*
X01166Y0016*
X01165Y0017*
X01161Y0018*
X01154Y00189*
X01145Y00196*
X01135Y002*
X01125Y00201*
G37*
G36*
X0012Y00844D02*
X0011Y00842D01*
X00102Y00837*
X00097Y00829*
X00095Y0082*
X00097Y0081*
X00102Y00802*
X0011Y00797*
X0012Y00795*
X00129Y00797*
X00137Y00802*
X00142Y0081*
X00144Y0082*
X00142Y00829*
X00137Y00837*
X00129Y00842*
X0012Y00844*
G37*
G36*
X01555Y01254D02*
X01545Y01252D01*
X01537Y01247*
X01532Y01239*
X0153Y0123*
X01532Y0122*
X01537Y01212*
X01545Y01207*
X01555Y01205*
X01564Y01207*
X01572Y01212*
X01577Y0122*
X01579Y0123*
X01577Y01239*
X01572Y01247*
X01564Y01252*
X01555Y01254*
G37*
G36*
X0071Y00084D02*
X007Y00082D01*
X00692Y00077*
X00687Y00069*
X00685Y0006*
X00687Y0005*
X00692Y00042*
X007Y00037*
X0071Y00035*
X00719Y00037*
X00727Y00042*
X00732Y0005*
X00734Y0006*
X00732Y00069*
X00727Y00077*
X00719Y00082*
X0071Y00084*
G37*
G36*
X01805Y01184D02*
X01795Y01182D01*
X01787Y01177*
X01782Y01169*
X0178Y0116*
X01782Y0115*
X01787Y01142*
X01795Y01137*
X01805Y01135*
X01814Y01137*
X01822Y01142*
X01827Y0115*
X01829Y0116*
X01827Y01169*
X01822Y01177*
X01814Y01182*
X01805Y01184*
G37*
G36*
X01761Y01112D02*
X01752Y0111D01*
X01744Y01105*
X01739Y01097*
X01737Y01088*
X01739Y01078*
X01744Y01071*
X01752Y01065*
X01761Y01063*
X0177Y01065*
X01778Y01071*
X01783Y01078*
X01785Y01088*
X01783Y01097*
X01778Y01105*
X0177Y0111*
X01761Y01112*
G37*
G36*
X01865Y01129D02*
X01855Y01127D01*
X01847Y01122*
X01842Y01114*
X0184Y01105*
X01842Y01095*
X01847Y01087*
X01855Y01082*
X01865Y0108*
X01874Y01082*
X01882Y01087*
X01887Y01095*
X01889Y01105*
X01887Y01114*
X01882Y01122*
X01874Y01127*
X01865Y01129*
G37*
G36*
X0161Y00201D02*
X01599Y002D01*
X01589Y00196*
X0158Y00189*
X01573Y0018*
X01569Y0017*
X01568Y0016*
X01569Y00149*
X01573Y00139*
X0158Y0013*
X01589Y00123*
X01599Y00119*
X0161Y00118*
X0162Y00119*
X0163Y00123*
X01639Y0013*
X01646Y00139*
X0165Y00149*
X01651Y0016*
X0165Y0017*
X01646Y0018*
X01639Y00189*
X0163Y00196*
X0162Y002*
X0161Y00201*
G37*
G36*
X0036Y00174D02*
X0035Y00172D01*
X00347Y00169*
X00212*
X00206Y00168*
X002Y00164*
X00183Y00147*
X00175Y00149*
X00165Y00147*
X00157Y00142*
X00152Y00134*
X00152Y00133*
X00147Y00132*
X00145Y00135*
X00134Y00144*
X00122Y0015*
X00108Y00154*
X00095Y00156*
X00081Y00154*
X00067Y0015*
X00055Y00144*
X00044Y00135*
X00035Y00124*
X00029Y00112*
X00025Y00098*
X00023Y00085*
X00025Y00071*
X00029Y00057*
X00035Y00045*
X00044Y00034*
X00055Y00025*
X00067Y00019*
X00081Y00015*
X00095Y00013*
X00108Y00015*
X00122Y00019*
X00134Y00025*
X00145Y00034*
X00154Y00045*
X0016Y00057*
X00164Y00071*
X00166Y00085*
X00164Y00097*
X00166Y001*
X00169Y00102*
X00175Y001*
X00184Y00102*
X00186Y00104*
X00186Y00104*
X00192Y00107*
X002Y00116*
X00205Y00116*
X00207Y00112*
X00215Y00107*
X00225Y00105*
X00234Y00107*
X00242Y00112*
X00247Y0012*
X00249Y0013*
X00248Y00131*
X00251Y00135*
X00341*
X00342Y00132*
X0035Y00127*
X0036Y00125*
X00369Y00127*
X00377Y00132*
X00382Y0014*
X00384Y0015*
X00382Y00159*
X00377Y00167*
X00369Y00172*
X0036Y00174*
G37*
G36*
X01488Y00201D02*
X01477Y002D01*
X01467Y00196*
X01459Y00189*
X01452Y0018*
X01448Y0017*
X01447Y0016*
X01448Y00149*
X01452Y00139*
X01459Y0013*
X01467Y00123*
X01477Y00119*
X01488Y00118*
X01499Y00119*
X01509Y00123*
X01518Y0013*
X01524Y00139*
X01529Y00149*
X0153Y0016*
X01529Y0017*
X01524Y0018*
X01518Y00189*
X01509Y00196*
X01499Y002*
X01488Y00201*
G37*
G36*
X01246D02*
X01235Y002D01*
X01225Y00196*
X01216Y00189*
X0121Y0018*
X01205Y0017*
X01204Y0016*
X01205Y00149*
X0121Y00139*
X01216Y0013*
X01225Y00123*
X01235Y00119*
X01246Y00118*
X01257Y00119*
X01267Y00123*
X01275Y0013*
X01282Y00139*
X01286Y00149*
X01287Y0016*
X01286Y0017*
X01282Y0018*
X01275Y00189*
X01267Y00196*
X01257Y002*
X01246Y00201*
G37*
G36*
X01367D02*
X01356Y002D01*
X01346Y00196*
X01338Y00189*
X01331Y0018*
X01327Y0017*
X01325Y0016*
X01327Y00149*
X01331Y00139*
X01338Y0013*
X01346Y00123*
X01356Y00119*
X01367Y00118*
X01378Y00119*
X01388Y00123*
X01396Y0013*
X01403Y00139*
X01407Y00149*
X01409Y0016*
X01407Y0017*
X01403Y0018*
X01396Y00189*
X01388Y00196*
X01378Y002*
X01367Y00201*
G37*
G36*
X02085Y00924D02*
X02075Y00922D01*
X02067Y00917*
X02062Y00909*
X0206Y009*
X02062Y0089*
X02067Y00884*
X02068Y00878*
X02072Y00872*
X02256Y00688*
X02257Y0068*
X02262Y00672*
X0227Y00667*
X0228Y00665*
X02289Y00667*
X02297Y00672*
X02302Y0068*
X02304Y0069*
X02302Y00699*
X02297Y00707*
X02289Y00712*
X02281Y00713*
X02106Y00889*
X02107Y0089*
X02109Y009*
X02107Y00909*
X02102Y00917*
X02094Y00922*
X02085Y00924*
G37*
G36*
X00125Y00754D02*
X00115Y00752D01*
X00107Y00747*
X00102Y00739*
X001Y0073*
X00102Y0072*
X00107Y00712*
X00115Y00707*
X00125Y00705*
X00134Y00707*
X00142Y00712*
X00147Y0072*
X00149Y0073*
X00147Y00739*
X00142Y00747*
X00134Y00752*
X00125Y00754*
G37*
G36*
X01445Y00684D02*
X01435Y00682D01*
X01427Y00677*
X01422Y00669*
X0142Y0066*
X01307Y00547*
X01131*
X01124Y00552*
X01115Y00554*
X01105Y00552*
X01097Y00547*
X01092Y00539*
X0109Y0053*
X01092Y0052*
X01097Y00512*
X01105Y00507*
X01115Y00505*
X01124Y00507*
X01131Y00512*
X01315*
X01321Y00514*
X01327Y00517*
X01445Y00635*
X01454Y00637*
X01462Y00642*
X01467Y0065*
X01469Y0066*
X01467Y00669*
X01462Y00677*
X01454Y00682*
X01445Y00684*
G37*
G36*
X02248Y00295D02*
X02239Y00293D01*
X02231Y00288*
X02226Y0028*
X02224Y00271*
X02226Y00262*
X02231Y00254*
X02239Y00249*
X02248Y00247*
X02257Y00249*
X02265Y00254*
X0227Y00262*
X02272Y00271*
X0227Y0028*
X02265Y00288*
X02257Y00293*
X02248Y00295*
G37*
G36*
X01Y00464D02*
X0099Y00462D01*
X00982Y00457*
X00977Y00449*
X00975Y0044*
X00977Y0043*
X00982Y00422*
X0099Y00417*
X01Y00415*
X01009Y00417*
X01017Y00422*
X01022Y0043*
X01024Y0044*
X01022Y00449*
X01017Y00457*
X01009Y00462*
X01Y00464*
G37*
G36*
X00555Y02646D02*
X00543Y02645D01*
X00531Y02641*
X0052Y02635*
X00511Y02628*
X00504Y02619*
X00498Y02608*
X00494Y02596*
X00493Y02585*
X00494Y02573*
X00498Y02561*
X00504Y0255*
X00511Y02541*
X0052Y02534*
X00531Y02528*
X00543Y02524*
X00555Y02523*
X00566Y02524*
X00578Y02528*
X00589Y02534*
X00598Y02541*
X00605Y0255*
X00611Y02561*
X00615Y02573*
X00616Y02585*
X00615Y02596*
X00611Y02608*
X00605Y02619*
X00598Y02628*
X00589Y02635*
X00578Y02641*
X00566Y02645*
X00555Y02646*
G37*
G36*
X01615Y02649D02*
X01605Y02647D01*
X01597Y02642*
X01592Y02634*
X0159Y02625*
X01592Y02615*
X01597Y02607*
X01605Y02602*
X01615Y026*
X01624Y02602*
X01632Y02607*
X01637Y02615*
X01639Y02625*
X01637Y02634*
X01632Y02642*
X01624Y02647*
X01615Y02649*
G37*
G36*
X00635Y02389D02*
X00625Y02387D01*
X00617Y02382*
X00612Y02374*
X0061Y02365*
X00612Y02355*
X00615Y02351*
X00617Y02347*
X00615Y02343*
X00612Y02339*
X0061Y0233*
X00612Y0232*
X00614Y02318*
X00612Y02317*
X00607Y02309*
X00606Y02304*
X00605Y02305*
X00595Y02303*
X00587Y02298*
X00582Y0229*
X0058Y02281*
X00582Y02271*
X00587Y02264*
X00595Y02258*
X00605Y02257*
X00614Y02258*
X00622Y02264*
X00627Y02271*
X00628Y02276*
X0063Y02275*
X00639Y02277*
X00647Y02282*
X00652Y0229*
X00654Y023*
X00652Y02309*
X0065Y02311*
X00652Y02312*
X00657Y0232*
X00659Y0233*
X00657Y02339*
X00654Y02343*
X00652Y02347*
X00654Y02351*
X00657Y02355*
X00659Y02365*
X00657Y02374*
X00652Y02382*
X00644Y02387*
X00635Y02389*
G37*
G36*
X02175Y02204D02*
X02165Y02202D01*
X02157Y02197*
X02152Y02189*
X0215Y0218*
X02152Y0217*
X02157Y02162*
X02165Y02157*
X02175Y02155*
X02184Y02157*
X02192Y02162*
X02197Y0217*
X02199Y0218*
X02197Y02189*
X02192Y02197*
X02184Y02202*
X02175Y02204*
G37*
G36*
X02255Y02331D02*
X02241Y02329D01*
X02229Y02324*
X02218Y02316*
X0221Y02305*
X02205Y02293*
X02203Y0228*
X02205Y02266*
X0221Y02254*
X02218Y02243*
X02229Y02235*
X02241Y0223*
X02255Y02228*
X02268Y0223*
X0228Y02235*
X02291Y02243*
X02299Y02254*
X02304Y02266*
X02306Y0228*
X02304Y02293*
X02299Y02305*
X02291Y02316*
X0228Y02324*
X02268Y02329*
X02255Y02331*
G37*
G36*
X0162Y02911D02*
X0161Y02909D01*
X01602Y02904*
X01599Y02899*
X01596Y02902*
X01586Y02904*
X01577Y02902*
X01569Y02897*
X01566Y02891*
X0156*
X01557Y02897*
X01549Y02902*
X0154Y02904*
X0153Y02902*
X01522Y02897*
X01517Y02889*
X01515Y0288*
X01517Y0287*
X01522Y02862*
X0153Y02857*
X0154Y02855*
X01549Y02857*
X01557Y02862*
X0156Y02868*
X01566*
X01569Y02862*
X01577Y02857*
X01586Y02855*
X01596Y02857*
X01604Y02862*
X01607Y02867*
X0161Y02865*
X0162Y02863*
X01629Y02865*
X0163Y02866*
X01632Y02862*
X0164Y02857*
X0165Y02855*
X01659Y02857*
X01667Y02862*
X01668Y02864*
X0167Y02862*
X0168Y0286*
X01689Y02862*
X01697Y02867*
X01702Y02875*
X01704Y02885*
X01702Y02894*
X01697Y02902*
X01689Y02907*
X0168Y02909*
X0167Y02907*
X01662Y02902*
X01661Y029*
X01659Y02902*
X0165Y02904*
X0164Y02902*
X01639Y02901*
X01637Y02904*
X01629Y02909*
X0162Y02911*
G37*
G36*
X00555Y03079D02*
X00543Y03078D01*
X00531Y03074*
X0052Y03069*
X00511Y03061*
X00504Y03052*
X00498Y03041*
X00494Y0303*
X00493Y03018*
X00494Y03006*
X00498Y02994*
X00504Y02984*
X00511Y02974*
X0052Y02967*
X00531Y02961*
X00543Y02957*
X00555Y02956*
X00566Y02957*
X00578Y02961*
X00589Y02967*
X00598Y02974*
X00605Y02984*
X00611Y02994*
X00615Y03006*
X00616Y03018*
X00615Y0303*
X00611Y03041*
X00605Y03052*
X00598Y03061*
X00589Y03069*
X00578Y03074*
X00566Y03078*
X00555Y03079*
G37*
G36*
X0085Y0305D02*
X00832Y03049D01*
X00815Y03045*
X00799Y03038*
X00785Y03029*
X00771Y03018*
X0076Y03005*
X00751Y0299*
X00744Y02974*
X0074Y02957*
X00739Y0294*
X0074Y02922*
X00744Y02905*
X00751Y02889*
X0076Y02875*
X00771Y02861*
X00785Y0285*
X00799Y02841*
X00815Y02834*
X00832Y0283*
X0085Y02829*
X00867Y0283*
X00884Y02834*
X009Y02841*
X00915Y0285*
X00928Y02861*
X00939Y02875*
X00948Y02889*
X00955Y02905*
X00959Y02922*
X0096Y0294*
X00959Y02957*
X00955Y02974*
X00948Y0299*
X00939Y03005*
X00928Y03018*
X00915Y03029*
X009Y03038*
X00884Y03045*
X00867Y03049*
X0085Y0305*
G37*
G36*
X0037D02*
X00352Y03049D01*
X00335Y03045*
X00319Y03038*
X00305Y03029*
X00291Y03018*
X0028Y03005*
X00271Y0299*
X00264Y02974*
X0026Y02957*
X00259Y0294*
X0026Y02922*
X00264Y02905*
X00271Y02889*
X0028Y02875*
X00291Y02861*
X00305Y0285*
X00319Y02841*
X00335Y02834*
X00345Y02832*
Y02827*
X00335Y02825*
X00319Y02818*
X00305Y02809*
X00291Y02798*
X0028Y02785*
X00271Y0277*
X00264Y02754*
X0026Y02737*
X00259Y0272*
X0026Y02702*
X00264Y02685*
X00271Y02669*
X0028Y02655*
X00291Y02641*
X00305Y0263*
X00319Y02621*
X00335Y02614*
X00352Y0261*
X0037Y02609*
X00387Y0261*
X00404Y02614*
X0042Y02621*
X00435Y0263*
X00448Y02641*
X00459Y02655*
X00468Y02669*
X00475Y02685*
X00479Y02702*
X0048Y0272*
X00479Y02737*
X00475Y02754*
X00468Y0277*
X00459Y02785*
X00448Y02798*
X00435Y02809*
X0042Y02818*
X00404Y02825*
X00394Y02827*
Y02832*
X00404Y02834*
X0042Y02841*
X00435Y0285*
X00448Y02861*
X00459Y02875*
X00468Y02889*
X00475Y02905*
X00479Y02922*
X0048Y0294*
X00479Y02957*
X00475Y02974*
X00468Y0299*
X00459Y03005*
X00448Y03018*
X00435Y03029*
X0042Y03038*
X00404Y03045*
X00387Y03049*
X0037Y0305*
G37*
G36*
X0116Y02699D02*
X0115Y02697D01*
X01142Y02692*
X01137Y02684*
X01135Y02675*
X01137Y02665*
X01142Y02657*
X0115Y02652*
X0116Y0265*
X01169Y02652*
X01177Y02657*
X01182Y02665*
X01184Y02675*
X01182Y02684*
X01177Y02692*
X01169Y02697*
X0116Y02699*
G37*
G36*
X012Y01999D02*
X0119Y01997D01*
X01182Y01992*
X01177Y01984*
X01175Y01975*
X01177Y01965*
X01182Y01957*
X0119Y01952*
X012Y0195*
X01209Y01952*
X01217Y01957*
X01222Y01965*
X01224Y01975*
X01222Y01984*
X01217Y01992*
X01209Y01997*
X012Y01999*
G37*
G36*
X01022Y02005D02*
X01013Y02003D01*
X01005Y01998*
X01Y0199*
X00998Y01981*
X01Y01972*
X01005Y01964*
X01013Y01959*
X01022Y01957*
X01031Y01959*
X01039Y01964*
X01044Y01972*
X01046Y01981*
X01044Y0199*
X01039Y01998*
X01031Y02003*
X01022Y02005*
G37*
G36*
X017Y01959D02*
X0169Y01957D01*
X01682Y01952*
X01678Y01944*
X01674Y01947*
X01665Y01949*
X01655Y01947*
X01647Y01942*
X01642Y01934*
X0164Y01925*
X01642Y01915*
X01647Y01907*
X01655Y01902*
X01665Y019*
X01674Y01902*
X01682Y01907*
X01686Y01915*
X0169Y01912*
X017Y0191*
X01709Y01912*
X01717Y01917*
X01722Y01925*
X01724Y01935*
X01722Y01944*
X01717Y01952*
X01709Y01957*
X017Y01959*
G37*
G36*
X00835Y00059D02*
X00825Y00057D01*
X00817Y00052*
X00812Y00044*
X0081Y00035*
X00812Y00025*
X00817Y00017*
X00825Y00012*
X00835Y0001*
X00844Y00012*
X00852Y00017*
X00857Y00025*
X00859Y00035*
X00857Y00044*
X00852Y00052*
X00844Y00057*
X00835Y00059*
G37*
G36*
X00985Y01929D02*
X00975Y01927D01*
X00967Y01922*
X00962Y01914*
X0096Y01905*
X00962Y01895*
X00967Y01887*
X00975Y01882*
X00985Y0188*
X00994Y01882*
X01002Y01887*
X01007Y01895*
X01009Y01905*
X01007Y01914*
X01002Y01922*
X00994Y01927*
X00985Y01929*
G37*
G36*
X0169Y02169D02*
X0168Y02167D01*
X01672Y02162*
X01667Y02154*
X01665Y02145*
X01667Y02135*
X01672Y02127*
X0168Y02122*
X0169Y0212*
X01699Y02122*
X01707Y02127*
X01712Y02135*
X01714Y02145*
X01712Y02154*
X01707Y02162*
X01699Y02167*
X0169Y02169*
G37*
G36*
X0102Y02184D02*
X0101Y02182D01*
X01002Y02177*
X00997Y02169*
X00995Y0216*
X00997Y0215*
X01002Y02142*
X0101Y02137*
X0102Y02135*
X01029Y02137*
X01037Y02142*
X01042Y0215*
X01044Y0216*
X01042Y02169*
X01037Y02177*
X01029Y02182*
X0102Y02184*
G37*
G36*
X00335Y02349D02*
X00325Y02347D01*
X00317Y02342*
X00312Y02334*
X0031Y02325*
X00312Y02315*
X00317Y02307*
X00325Y02302*
X00333Y02301*
X00337Y02297*
X00336Y02293*
X00335Y02291*
X00327Y02287*
X00322Y02279*
X0032Y0227*
X00322Y0226*
X00327Y02252*
X00335Y02247*
X00343Y02246*
X00945Y01644*
Y01577*
X00946Y0157*
X00949Y01567*
Y01488*
X00939Y01478*
X00934Y01479*
X00932Y01482*
X00924Y01487*
X00915Y01489*
X00905Y01487*
X00897Y01482*
X00892Y01474*
X0089Y01465*
X00892Y01455*
X00895Y01452*
X00894Y01449*
X00892Y01447*
X00891Y01447*
X00872Y01466*
X00866Y0147*
X00859Y01471*
X0084*
X00833Y0147*
X00832Y01469*
X00827Y01471*
X00827Y01474*
X00822Y01482*
X00814Y01487*
X00805Y01489*
X00795Y01487*
X00787Y01482*
X00782Y01474*
X0078Y01465*
X00782Y01455*
X00787Y01447*
X00795Y01442*
X00794Y01438*
X0079Y01439*
X0078Y01437*
X00772Y01432*
X00767Y01424*
X00765Y01415*
X00767Y01405*
X00772Y01397*
X0078Y01392*
X0079Y0139*
X00799Y01392*
X00807Y01397*
X00807Y01398*
X00808Y01398*
X00814Y01402*
X00826Y01414*
X00831Y01414*
X00832Y01413*
Y0123*
X00834Y01223*
X00837Y01217*
X00887Y01167*
Y01146*
X00882Y01139*
X0088Y0113*
X00882Y0112*
X00887Y01113*
Y01016*
X00885Y01014*
X0088Y01006*
X00878Y00997*
X0088Y00988*
X00884Y00981*
Y00956*
X00872Y00944*
X00867*
X00797Y01014*
X00792Y01017*
X00785Y01019*
X00741*
X00738Y01023*
X00739Y01025*
X00737Y01032*
X00739Y01032*
X00747Y01037*
X00752Y01045*
X00754Y01055*
X00752Y01064*
X00747Y01072*
X00739Y01077*
X0073Y01079*
X0072Y01077*
X00714Y01073*
X00683*
Y01358*
X00686Y01361*
X0069Y0136*
X00699Y01362*
X00707Y01367*
X00712Y01375*
X00714Y01385*
X00712Y01394*
X00708Y014*
Y01585*
X00706Y01591*
X00702Y01597*
X00473Y01826*
X00472Y01834*
X00468Y0184*
Y01862*
X00512Y01907*
X0052Y01905*
X00529Y01907*
X00537Y01912*
X00542Y0192*
X00544Y0193*
X00542Y01939*
X00537Y01947*
X00529Y01952*
X0052Y01954*
X0051Y01952*
X00502Y01947*
X00502Y01946*
X00497Y01942*
X00437Y01882*
X00433Y01876*
X00431Y0187*
Y0184*
X0043Y01839*
X00426Y01839*
X00304Y01961*
Y02018*
X00308Y02021*
X0031Y0202*
X00319Y02022*
X00327Y02027*
X00332Y02035*
X00334Y02045*
X00332Y02054*
X00327Y02062*
X00319Y02067*
X00313Y02068*
Y02234*
X00317Y0224*
X00319Y0225*
X00317Y02259*
X00312Y02267*
X00304Y02272*
X00295Y02274*
X00285Y02272*
X00277Y02267*
X00272Y02259*
X0027Y0225*
X00272Y0224*
X00276Y02234*
Y02071*
X00273Y02067*
X00269Y02061*
X00268Y02054*
Y01953*
X00269Y01946*
X00273Y0194*
X00287Y01927*
X00286Y01923*
X00285Y01921*
X00277Y01917*
X00272Y01909*
X0027Y019*
X00272Y0189*
X00277Y01882*
X00278Y01877*
X00275Y01874*
X00265Y01872*
X00257Y01867*
X00252Y01859*
X0025Y0185*
X00252Y0184*
X00257Y01832*
X00265Y01827*
X00275Y01825*
X00284Y01827*
X0029Y01831*
X00293Y01828*
X00291Y01818*
X00293Y01809*
X00298Y01801*
X00306Y01796*
X00315Y01794*
X00325Y01796*
X00332Y01801*
X00338Y01809*
X00339Y01818*
X00338Y01828*
X00332Y01835*
X00326Y01839*
X00328Y01844*
X00338*
X00625Y01558*
Y01058*
X00624Y01058*
X0057*
X00564Y01062*
X00555Y01064*
X00545Y01062*
X00537Y01057*
X00532Y01049*
X00531Y01041*
X00522Y01032*
X00518Y01026*
X00516Y0102*
Y00899*
X00512Y00897*
X00507Y00889*
X00505Y0088*
X00507Y0087*
X00512Y00862*
X0052Y00857*
X0053Y00855*
X00539Y00857*
X00539Y00857*
X00541Y00858*
X00547Y00862*
X00551Y00868*
X00552Y0087*
X00552Y0087*
X00554Y0088*
X00553Y00885*
Y01012*
X00556Y01016*
X00564Y01017*
X0057Y01021*
X00616*
X0065Y00988*
X00655Y00984*
X00662Y00983*
X00777*
X00847Y00913*
X00853Y00909*
X0086Y00908*
X00879*
X00886Y00909*
X00892Y00913*
X00915Y00935*
X00918Y00941*
X0092Y00948*
Y00979*
X00936*
X00992Y00923*
X0099Y00918*
X00985Y00917*
X00977Y00912*
X00972Y00904*
X0097Y00895*
Y00894*
X0097Y00894*
X00968Y00892*
X00965Y00891*
X00964Y00892*
X00955Y00894*
X00945Y00892*
X00937Y00887*
X00932Y00879*
X0093Y0087*
X00932Y0086*
X00937Y00852*
X00945Y00847*
X00955Y00845*
X00964Y00847*
X00965Y00848*
X00972Y00847*
X00972Y00847*
Y00838*
X00666*
X00662Y00839*
X00464*
X00457Y00838*
X00451Y00834*
X00387Y0077*
X00383Y0077*
X00375Y00775*
X00366Y00777*
X00357Y00775*
X00349Y0077*
X00344Y00762*
X00342Y00753*
X00342Y00751*
X00337Y00748*
X00337Y00747*
X0031*
X00307Y00749*
X00306Y00756*
X00417Y00866*
X00438*
X0044Y00865*
X0045Y00863*
X00459Y00865*
X00467Y0087*
X00472Y00878*
X00474Y00887*
X00472Y00896*
X00467Y00904*
X00459Y00909*
X0045Y00911*
X0044Y00909*
X00432Y00904*
X00431Y00903*
X0041*
X00403Y00901*
X004Y00899*
X00395Y00902*
Y00967*
X00394Y00974*
X0039Y0098*
X00387Y00982*
X00382Y00986*
X00382Y00987*
X00374Y00992*
X00365Y00994*
X00355Y00992*
X00347Y00987*
X00342Y00979*
X0034Y0097*
X00342Y0096*
X00347Y00952*
X00355Y00947*
X00359Y00947*
Y00885*
X00307Y00832*
X00303Y00833*
X00301Y00834*
X00297Y00842*
X00289Y00847*
X0028Y00849*
X0027Y00847*
X00262Y00842*
X00257Y00834*
X00255Y00825*
X00257Y00817*
X00256Y00816*
X00252Y00814*
X00246Y00819*
X00236Y00821*
X00227Y00819*
X00219Y00813*
X00214Y00806*
X00212Y00796*
X00214Y00787*
X00219Y00779*
X00227Y00774*
X00236Y00772*
X0024Y00773*
X00243Y00769*
X0023Y00756*
X00226Y0075*
X00225Y00743*
Y00437*
X00226Y0043*
X0023Y00425*
X00237Y00418*
X00235Y00413*
X00149*
X00144Y00417*
X00135Y00419*
X00125Y00417*
X0012Y00413*
X00114Y00417*
X00105Y00419*
X00095Y00417*
X00087Y00412*
X00082Y00404*
X0008Y00395*
X00082Y00385*
X00086Y00379*
Y00377*
X00088Y0037*
X00092Y00365*
X00098Y00358*
X00104Y00354*
X00107Y00353*
X00105Y00345*
X00107Y00335*
X00112Y00327*
X0012Y00322*
X0013Y0032*
X00139Y00322*
X00147Y00327*
X00152Y00335*
X00154Y00345*
X00152Y00354*
X00152Y00355*
X00157Y00358*
X00158Y00359*
X00586*
X00725Y00221*
X0073Y00217*
X00737Y00216*
X00827*
X00834Y00217*
X0084Y00221*
X00869Y0025*
X00873Y00255*
X00874Y00262*
Y0028*
X00877Y00283*
X01206*
X01209Y00278*
X01205Y0027*
X01204Y0026*
X01205Y00249*
X0121Y00239*
X01216Y0023*
X01225Y00223*
X01235Y00219*
X01246Y00218*
X01257Y00219*
X01267Y00223*
X01275Y0023*
X01282Y00239*
X01286Y00249*
X01287Y0026*
X01286Y0027*
X01283Y00278*
X01286Y00283*
X01327*
X0133Y00278*
X01327Y0027*
X01325Y0026*
X01327Y00249*
X01331Y00239*
X01338Y0023*
X01346Y00223*
X01356Y00219*
X01367Y00218*
X01378Y00219*
X01388Y00223*
X01396Y0023*
X01403Y00239*
X01407Y00249*
X01409Y0026*
X01407Y0027*
X01404Y00278*
X01407Y00283*
X01448*
X01451Y00278*
X01448Y0027*
X01447Y0026*
X01448Y00249*
X01452Y00239*
X01459Y0023*
X01467Y00223*
X01477Y00219*
X01488Y00218*
X01499Y00219*
X01509Y00223*
X01518Y0023*
X01524Y00239*
X01529Y00249*
X0153Y0026*
X01529Y0027*
X01524Y0028*
X01518Y00289*
X01509Y00296*
X01499Y003*
X01493Y00301*
X01491Y00306*
X01586Y00401*
X01594Y00402*
X01602Y00407*
X01607Y00415*
X01609Y00425*
X01607Y00434*
X01602Y00442*
X01594Y00447*
X01585Y00449*
X01575Y00447*
X01567Y00442*
X01565Y00438*
X01559*
X01557Y00442*
X01549Y00447*
X0154Y00449*
X0153Y00447*
X01522Y00442*
X01517Y00434*
X01516Y00426*
X01426Y00337*
X00862*
X00855Y00335*
X00849Y00332*
X00825Y00308*
X00822Y00302*
X00815Y00304*
X00805Y00302*
X00799Y00298*
X00793*
X00734Y00358*
X00735Y00363*
X00742Y00367*
X00747Y00375*
X00749Y00385*
X00747Y00394*
X00742Y00402*
X00734Y00407*
X00725Y00409*
X00715Y00407*
X00707Y00402*
X00707Y00401*
X00702Y00402*
X00699Y00406*
X00661Y00444*
X00655Y00447*
X00648Y00449*
X00356*
X00352Y00454*
X00354Y0046*
X00352Y00466*
X00356Y00472*
X00358Y00479*
X00356Y00486*
X00352Y00492*
X0035Y00494*
X00364Y00508*
X00367Y00514*
X00369Y00521*
Y0053*
X00374Y00532*
X0038Y00527*
X0039Y00525*
X00399Y00527*
X00406Y00532*
X00408*
X00411Y00529*
X0041Y00525*
X00412Y00515*
X00417Y00507*
X00425Y00502*
X00435Y005*
X00444Y00502*
X00452Y00507*
X00454Y00512*
X00459Y00512*
X00468Y00504*
X00474Y005*
X0048Y00499*
X00686*
X00692Y005*
X00698Y00504*
X00762Y00568*
X00766Y00573*
X00768Y00574*
X0077Y00572*
X0078Y0057*
X00789Y00572*
X00797Y00577*
X00802Y00585*
X00804Y00595*
X00802Y00604*
X00797Y00612*
X00795Y00613*
X00795Y00618*
X00894Y00717*
X01073*
X01076Y00714*
X01075Y0071*
X01077Y007*
X01082Y00692*
X0109Y00687*
X011Y00685*
X01109Y00687*
X01117Y00692*
X01122Y007*
X01124Y0071*
X01123Y00714*
X01126Y00717*
X0131*
X01316Y00719*
X01322Y00722*
X01342Y00742*
X01345Y00748*
X01347Y00755*
X01345Y00761*
X01342Y00767*
X01329Y00779*
Y00811*
X01333Y00813*
X01652Y00494*
Y00277*
X01647Y00276*
X01646Y0028*
X01639Y00289*
X0163Y00296*
X0162Y003*
X0161Y00301*
X01599Y003*
X01589Y00296*
X0158Y00289*
X01573Y0028*
X01569Y0027*
X01568Y0026*
X01569Y00249*
X01573Y00239*
X0158Y0023*
X01589Y00223*
X01599Y00219*
X0161Y00218*
X0162Y00219*
X0163Y00223*
X01639Y0023*
X01642Y00234*
X01647Y00232*
X01645Y00225*
X01647Y00215*
X01652Y00207*
X0166Y00202*
X0167Y002*
X01679Y00202*
X01686Y00207*
X01947*
X0211Y00044*
X02112Y00035*
X02117Y00027*
X02125Y00022*
X02135Y0002*
X02144Y00022*
X02152Y00027*
X02157Y00035*
X02159Y00045*
X02157Y00054*
X02152Y00062*
X02144Y00067*
X02135Y00069*
X01967Y00237*
X01961Y0024*
X01955Y00242*
X01687*
Y00484*
X01728*
X01735Y00485*
X0174Y00489*
X02017Y00765*
X0202Y00771*
X02022Y00777*
Y01119*
X02027Y01122*
X02035Y0112*
X02044Y01122*
X02052Y01127*
X02057Y01135*
X02059Y01145*
X02057Y01154*
X02052Y01162*
X02044Y01167*
X02035Y01169*
X02027Y01167*
X02022Y0117*
Y01408*
X02027Y01415*
X02029Y01425*
X02027Y01434*
X02022Y01441*
Y0184*
X02022Y0184*
X02024Y0185*
X02022Y01859*
X02017Y01867*
X02009Y01872*
X02Y01874*
X0199Y01872*
X01982Y01867*
X01977Y01859*
X01975Y0185*
X01977Y0184*
X01982Y01832*
X01987Y01829*
Y01441*
X01982Y01434*
X0198Y01425*
X01977Y01422*
X01681*
X01674Y01427*
X01665Y01429*
X01655Y01427*
X01647Y01422*
X01642Y01414*
X0164Y01405*
X01642Y01395*
X01647Y01387*
X01655Y01382*
X01665Y0138*
X01674Y01382*
X01681Y01387*
X01923*
X01926Y01384*
X01925Y0138*
X01927Y0137*
X01932Y01362*
X0194Y01357*
X0195Y01355*
X01959Y01357*
X01967Y01362*
X01972Y0137*
X01974Y0138*
X01973Y01384*
X01976Y01387*
X01985*
X01987Y01385*
Y00784*
X01911Y00708*
X01907Y00711*
X01907Y00711*
X01909Y0072*
X01907Y00729*
X01905Y00732*
X01931Y00758*
X01935Y00764*
X01936Y00771*
Y00802*
X01941Y00805*
X01945Y00802*
X01955Y008*
X01964Y00802*
X01972Y00807*
X01977Y00815*
X01979Y00825*
X01977Y00834*
X01972Y00842*
X01964Y00847*
X01955Y00849*
X01945Y00847*
X01943Y00845*
X01942Y00847*
X01934Y00852*
X01925Y00854*
X01915Y00852*
X01907Y00847*
X01903Y00846*
X01877Y00872*
X01878Y00876*
X01879Y00878*
X01887Y00882*
X01892Y0089*
X01894Y009*
X01892Y00909*
X01887Y00917*
X01879Y00922*
X0187Y00924*
X0186Y00922*
X01852Y00917*
X01848Y00909*
X01846Y00908*
X01842Y00907*
X01837Y00912*
X01831Y00916*
X01825Y00918*
X01823*
X01495Y01246*
X01495Y01251*
X01497Y01252*
X01502Y0126*
X01504Y0127*
X01502Y01279*
X01498Y01285*
Y01286*
X01657Y01445*
X01673*
X0168Y01447*
X01686Y0145*
X01957Y01722*
X01961Y01728*
X01963Y01735*
Y01769*
X01967Y01775*
X01969Y01785*
X01967Y01794*
X01962Y01802*
X01954Y01807*
X01945Y01809*
X01935Y01807*
X01927Y01802*
X01925Y01798*
X01919*
X01917Y01802*
X01909Y01807*
X019Y01809*
X0189Y01807*
X01882Y01802*
X01877Y01794*
X01876Y0179*
X01871*
X01871Y01793*
X01866Y01801*
X01858Y01806*
X01849Y01808*
X01839Y01806*
X01831Y01801*
X01826Y01793*
Y01793*
X01821*
X01821Y01795*
X01816Y01803*
X01808Y01808*
X01799Y0181*
X01789Y01808*
X01781Y01803*
X01776Y01795*
X01774Y01786*
X01775Y01784*
X01772Y0178*
X01711*
X01705Y01786*
X01705Y01791*
X01707Y01792*
X01712Y018*
X01714Y0181*
X01712Y01819*
X01707Y01827*
X01699Y01832*
X0169Y01834*
X0168Y01832*
X01673Y01827*
X01652*
X0157Y01908*
X01568Y01917*
X01563Y01925*
X01555Y0193*
X01546Y01932*
X01537Y0193*
X01529Y01925*
X01524Y01917*
X01522Y01908*
X01524Y01899*
X01529Y01891*
X01537Y01886*
X01546Y01884*
X01615Y01814*
X01614Y0181*
X01115*
X01108Y01808*
X01102Y01805*
X00992Y01694*
X00991Y01694*
X00358Y02326*
X00357Y02334*
X00352Y02342*
X00344Y02347*
X00335Y02349*
G37*
G36*
X01566Y02005D02*
X01557Y02003D01*
X01549Y01998*
X01544Y0199*
X01542Y01981*
X01544Y01972*
X01549Y01964*
X01557Y01959*
X01566Y01957*
X01575Y01959*
X01583Y01964*
X01588Y01972*
X0159Y01981*
X01588Y0199*
X01583Y01998*
X01575Y02003*
X01566Y02005*
G37*
G36*
X01626D02*
X01617Y02003D01*
X01609Y01998*
X01604Y0199*
X01602Y01981*
X01604Y01972*
X01609Y01964*
X01617Y01959*
X01626Y01957*
X01635Y01959*
X01643Y01964*
X01649Y01972*
X0165Y01981*
X01649Y0199*
X01643Y01998*
X01635Y02003*
X01626Y02005*
G37*
%LNninja_3_2_pcb-3*%
%LPD*%
G36*
X01691Y01749D02*
X01697Y01745D01*
X01704Y01744*
X01826*
X01827Y01742*
X01828Y01739*
X01543Y01454*
X01538Y01456*
X01537Y01464*
X01532Y01472*
X01524Y01477*
X01515Y01479*
X01514Y0148*
X01512Y01489*
X01507Y01497*
X01499Y01502*
X0149Y01504*
X0148Y01502*
X01472Y01497*
X01467Y01489*
X01465Y0148*
X01466Y01476*
X01458Y01475*
X0145Y01469*
X01445Y01462*
X01443Y01452*
X01445Y01443*
X0145Y01435*
X01458Y0143*
X01467Y01428*
X01477Y0143*
X01484Y01435*
X01489Y01442*
X01493Y01442*
X01494Y01442*
X01497Y01437*
X01505Y01432*
X01513Y01431*
X01515Y01426*
X01349Y01259*
X01344Y0126*
X01341Y01264*
X01333Y01269*
X01324Y01271*
X01321Y0127*
X0132Y01272*
X01315Y0128*
X01312Y01283*
Y01289*
X01314Y0129*
X01318Y01295*
X01319Y01302*
Y01327*
X01322Y01329*
X01325Y01335*
X01327Y01341*
Y01432*
X01332Y01435*
X01335Y01432*
X01345Y0143*
X01354Y01432*
X01362Y01437*
X01367Y01445*
X01369Y01455*
X01367Y01464*
X01362Y01472*
X01354Y01477*
X01345Y01479*
X01337Y01477*
X01333Y0148*
X01333Y01481*
X01334Y01485*
X01332Y01494*
X01327Y01502*
X01319Y01507*
X0131Y01509*
X013Y01507*
X01292Y01502*
X01287Y01494*
X01286Y01486*
X01282Y01483*
X01281Y01482*
X0128Y01482*
X0128Y01484*
X01274Y01492*
X01266Y01497*
X01257Y01499*
X01248Y01497*
X0124Y01492*
X01235Y01484*
X01233Y01475*
X01233Y01473*
X01225Y01472*
X01217Y01467*
X01213Y01469*
X01209Y01472*
X012Y01474*
X01191Y01472*
X01183Y01467*
X01178Y01459*
X01176Y0145*
X01178Y0144*
X01183Y01432*
X01191Y01427*
X012Y01425*
X01209Y01427*
X01213Y0143*
X01217Y01432*
X01221Y0143*
X01225Y01427*
X01235Y01425*
X01244Y01427*
X01252Y01432*
X01256Y01439*
X01261Y01439*
X01262Y01437*
X0127Y01432*
X0128Y0143*
X01287Y01432*
X01292Y01429*
Y01348*
X0129Y01346*
X01286Y0134*
X01285Y01336*
X01284Y01333*
X0128Y01333*
X01275Y01334*
X01265Y01332*
X0126Y01328*
X01254Y01332*
X01245Y01334*
X01235Y01332*
X0123Y01328*
X01224Y01332*
X01215Y01334*
X01205Y01332*
X012Y01328*
X01194Y01332*
X01185Y01334*
X01175Y01332*
X01167Y01327*
X01162Y01319*
X0116Y0131*
X01162Y013*
X01167Y01292*
X01175Y01287*
X01185Y01285*
X01194Y01287*
X012Y01291*
X01205Y01287*
X01215Y01285*
X01224Y01287*
X0123Y01291*
X01235Y01287*
X01245Y01285*
X01254Y01287*
X01257Y01289*
X0126Y01286*
X0126Y01285*
X01258Y01278*
Y01254*
X0126Y01247*
X01263Y01242*
X0127Y01235*
Y01207*
X01266Y01203*
X01262Y01197*
X01261Y0119*
Y01127*
X01126Y00992*
X01091*
X01084Y00997*
X01075Y00999*
X01065Y00997*
X01057Y00992*
X01056Y0099*
X01051Y0099*
X01003Y01038*
Y01173*
X01004Y01175*
X01008Y0118*
X01009Y01187*
Y01254*
X01008Y01261*
X01004Y01267*
X0099Y01281*
X0099Y01282*
X00996Y01286*
X01Y01285*
X01009Y01287*
X01015Y01291*
X0102Y01287*
X0103Y01285*
X01039Y01287*
X01045Y01291*
X0105Y01287*
X0106Y01285*
X01069Y01287*
X01077Y01292*
X01082Y013*
X01084Y0131*
X01082Y01319*
X01077Y01327*
X01069Y01332*
X01062Y01333*
X01056Y01339*
Y01441*
X01061Y01448*
X01063Y01458*
X01062Y01461*
X01067Y01464*
X0107Y01462*
X01076Y01461*
X01075Y0146*
X01077Y0145*
X01082Y01442*
X0109Y01437*
X011Y01435*
X01109Y01437*
X01117Y01442*
X01122Y0145*
X01124Y0146*
X01122Y01469*
X01117Y01477*
X01109Y01482*
X01103Y01483*
X01104Y01484*
X01102Y01493*
X01097Y01501*
X01089Y01507*
X0108Y01508*
X0107Y01507*
X01062Y01501*
X01057Y01493*
X01055Y01484*
X01056Y01481*
X01052Y01478*
X01048Y0148*
X01039Y01482*
X0103Y0148*
X01028Y01479*
X01027Y01482*
X01019Y01487*
X0101Y01489*
X01006Y01488*
X01003Y01491*
Y01569*
X01005Y0157*
X01014Y01572*
X01022Y01577*
X01027Y01585*
X01029Y01595*
X01027Y01604*
X01023Y0161*
Y01674*
X01122Y01774*
X01666*
X01691Y01749*
G37*
G36*
X00621Y00781D02*
X0062Y0078D01*
X00622Y0077*
X00627Y00762*
X00635Y00757*
X00645Y00755*
X00654Y00757*
X00662Y00762*
X00667Y0077*
X00669Y0078*
X00668Y0078*
X00672Y00784*
X0074*
X00764Y0076*
X0077Y00756*
X00777Y00755*
X00796*
X00803Y00756*
X00809Y0076*
X00822Y00772*
X00833Y00784*
X00842*
X00844Y0078*
X00801Y00736*
X00797Y0073*
X00795Y00723*
Y00712*
X00665Y00581*
X00463*
X0046Y00583*
X00453Y00584*
X00438*
X00425Y00597*
X00419Y00601*
X00413Y00603*
X00405*
X00399Y00607*
X0039Y00609*
X0038Y00607*
X00377Y00605*
X00373Y00607*
Y00693*
X00383*
X0039Y00695*
X00396Y00699*
X00427Y00729*
X0043Y00735*
X00431Y00737*
X00479Y00785*
X00533*
X00536Y00781*
X00535Y0078*
X00537Y0077*
X00542Y00762*
X0055Y00757*
X0056Y00755*
X00569Y00757*
X00577Y00762*
X00582Y0077*
X00584Y0078*
X00583Y00781*
X00586Y00785*
X00618*
X00621Y00781*
G37*
%LNninja_3_2_pcb-4*%
%LPC*%
G36*
X01428Y01517D02*
X01419Y01515D01*
X01411Y0151*
X01406Y01502*
X01404Y01493*
X01406Y01484*
X01411Y01476*
X01419Y01471*
X01428Y01469*
X01437Y01471*
X01445Y01476*
X0145Y01484*
X01452Y01493*
X0145Y01502*
X01445Y0151*
X01437Y01515*
X01428Y01517*
G37*
%LNninja_3_2_pcb-5*%
%LPD*%
G54D32*
X0045Y01825D02*
Y0187D01*
Y01825D02*
X0069Y01585D01*
X01403Y0214D02*
X0156D01*
X0148Y0127D02*
Y01293D01*
X01456Y0126D02*
X01816Y009D01*
X01456Y0126D02*
Y01293D01*
X00813Y00723D02*
X0087Y0078D01*
X00813Y00704D02*
Y00723D01*
X00663Y0082D02*
X0099D01*
X00655Y00802D02*
X00747D01*
X0069Y01155D02*
X00695Y0115D01*
X0087*
X017Y00835D02*
X01723Y00811D01*
X01772*
X01894Y00781D02*
Y0083D01*
X01825Y009D02*
X01894Y0083D01*
X01582Y00808D02*
Y00822D01*
X01592Y00784D02*
X01606Y00798D01*
X01572Y00784D02*
X01592D01*
X01558Y00798D02*
X01572Y00784D01*
X01558Y00798D02*
Y00816D01*
X01365Y01009D02*
X01558Y00816D01*
X01582Y00822D02*
X016Y0084D01*
X01606Y00817D02*
X01623Y00835D01*
X01606Y00798D02*
Y00817D01*
X01623Y00835D02*
X017D01*
X01353Y00849D02*
X01456Y00746D01*
X01323Y01245D02*
X01326Y01241D01*
X0104Y00901D02*
X01276D01*
X00365Y0097D02*
X00375D01*
X00377Y00967*
X01319Y00936D02*
X01328Y00945D01*
X01358*
X013Y00936D02*
X01319D01*
X01358Y0086D02*
Y00945D01*
X0133Y00918D02*
X01338Y00909D01*
Y00873D02*
Y00909D01*
X01335Y0087D02*
X01338Y00873D01*
X01293Y00918D02*
X0133D01*
X0129Y0099D02*
X01295D01*
X01225Y00975D02*
X01271D01*
X01253Y00993D02*
X01283Y01023D01*
X0121Y01029D02*
X01263D01*
X01276Y01041*
X01283Y01023D02*
X01297D01*
X01312Y01009*
X01365*
X01276Y01041D02*
X01304D01*
X01319Y01026*
X01339*
X01348Y01036*
X01403*
X01275Y00785D02*
Y0086D01*
X01276Y00901D02*
X01293Y00918D01*
X01291Y00945D02*
X013Y00936D01*
X01364Y02178D02*
X01403Y0214D01*
X0125Y02178D02*
X01364D01*
X01146Y02281D02*
Y02573D01*
X01153Y0258D02*
Y02611D01*
X01146Y02573D02*
X01153Y0258D01*
X0111Y02655D02*
X01153Y02611D01*
X00151Y00377D02*
X00594D01*
X00135Y00395D02*
X00601D01*
X00267Y00413D02*
X00617D01*
X00535Y00875D02*
Y0102D01*
X00859Y01453D02*
X0091Y01402D01*
Y01285D02*
Y01402D01*
X00928Y01442D02*
X00967Y01481D01*
X00928Y01292D02*
Y01442D01*
X00946Y01435D02*
X00985Y01473D01*
X00946Y013D02*
Y01435D01*
X00967Y01481D02*
Y01574D01*
X00985Y01473D02*
Y01581D01*
X01816Y009D02*
X01825D01*
X00396Y00753D02*
X00464Y00821D01*
X00414Y00746D02*
X00471Y00803D01*
X00654*
X00464Y00821D02*
X00662D01*
X00663Y0082*
X00654Y00803D02*
X00655Y00802D01*
X00414Y00742D02*
Y00746D01*
X00396Y0075D02*
Y00753D01*
X00105Y00377D02*
Y00395D01*
Y00377D02*
X00111Y00371D01*
X01455Y01295D02*
X01456Y01293D01*
X01455Y01295D02*
X0177Y0161D01*
X0166Y01433D02*
Y0144D01*
X0148Y01293D02*
X0165Y01463D01*
X01673*
X01945Y01735*
X01403Y01036D02*
X016Y0084D01*
X01295Y0099D02*
X01298Y00993D01*
X01275Y00785D02*
X0128Y0078D01*
X01205Y00945D02*
X01291D01*
X0129Y00993D02*
X01298D01*
X01271Y00975D02*
X0129Y00993D01*
X01239Y00993D02*
X01253D01*
X01234Y00998D02*
X01239Y00993D01*
X01205Y00998D02*
X01234D01*
X01169Y00962D02*
X01205Y00998D01*
X00949Y01205D02*
Y01246D01*
Y01205D02*
X0095D01*
X00946Y013D02*
X00991Y01254D01*
X00928Y01292D02*
X00973Y01247D01*
Y01195D02*
Y01247D01*
X00991Y01187D02*
Y01254D01*
X00985Y01181D02*
X00991Y01187D01*
X00985Y01031D02*
Y01181D01*
X00967Y01188D02*
X00973Y01195D01*
X00967Y01024D02*
Y01188D01*
X01169Y0096D02*
Y00962D01*
X01142Y00933D02*
X01169Y0096D01*
X01057Y00933D02*
X01142D01*
X00967Y01024D02*
X01057Y00933D01*
X01151Y00969D02*
X0121Y01029D01*
X01151Y00968D02*
Y00969D01*
X01141Y00958D02*
X01151Y00968D01*
X01091Y00958D02*
X01141D01*
X01084Y00951D02*
X01091Y00958D01*
X01065Y00951D02*
X01084D01*
X00985Y01031D02*
X01065Y00951D01*
X0091Y01285D02*
X00949Y01246D01*
X00963Y01577D02*
X00967Y01574D01*
X00963Y01577D02*
Y01651D01*
X00345Y0227D02*
X00963Y01651D01*
X01324Y01246D02*
Y01247D01*
X01326Y01196D02*
X0133Y012D01*
X01326Y01211D02*
X019Y01785D01*
X01326Y01196D02*
Y01211D01*
X00981Y01585D02*
X00985Y01581D01*
X00981Y01585D02*
Y01678D01*
X00335Y02325D02*
X00981Y01678D01*
X00286Y01953D02*
Y02054D01*
X00295Y02063*
Y0225*
X01005Y01595D02*
Y01681D01*
X01353Y00855D02*
X01358Y0086D01*
X01353Y00849D02*
Y00855D01*
X00944Y00997D02*
X0104Y00901D01*
X00902Y00997D02*
X00944D01*
X00986Y00886D02*
X00995Y00895D01*
X00986Y00858D02*
Y00886D01*
X0101Y0081D02*
Y00867D01*
X00986Y00858D02*
X0099Y00854D01*
Y0082D02*
Y00854D01*
X01461Y00301D02*
X01585Y00425D01*
X01434Y00319D02*
X0154Y00425D01*
X00902Y00948D02*
Y00997D01*
X00879Y00926D02*
X00902Y00948D01*
X0086Y00926D02*
X00879D01*
X00785Y01001D02*
X0086Y00926D01*
X00662Y01001D02*
X00785D01*
X00624Y0104D02*
X00662Y01001D01*
X00555Y0104D02*
X00624D01*
X00665Y01055D02*
X0073D01*
X00665D02*
Y01575D01*
X00535Y0102D02*
X00555Y0104D01*
X0053Y0088D02*
X00535Y00875D01*
X0087Y0095D02*
Y0115D01*
X01323Y01245D02*
X01324Y01246D01*
X01945Y01735D02*
Y01785D01*
X0087Y0078D02*
X0128D01*
X00601Y00395D02*
X00745Y00251D01*
X00764*
X00769Y00256*
X00827Y00234D02*
X00856Y00262D01*
X00737Y00234D02*
X00827D01*
X00594Y00377D02*
X00737Y00234D01*
X00769Y00256D02*
X00824D01*
X00838Y0027*
Y00295*
X00862Y00319*
X01434*
X00856Y00287D02*
X00869Y00301D01*
X00856Y00262D02*
Y00287D01*
X00261Y00445D02*
Y00736D01*
X00243Y00437D02*
Y00743D01*
X00261Y00445D02*
X00275Y00431D01*
X00243Y00437D02*
X00267Y00413D01*
X00617D02*
X00755Y00275D01*
X00869Y00301D02*
X01461D01*
X00377Y00877D02*
Y00967D01*
X0041Y00885D02*
X0045D01*
Y00887*
X00355Y00712D02*
X00383D01*
X00355Y00572D02*
Y00712D01*
X00351Y00568D02*
X00355Y00572D01*
X00383Y00712D02*
X00414Y00742D01*
X00351Y00521D02*
Y00568D01*
X00376Y00729D02*
X00396Y0075D01*
X00826Y00802D02*
X01017D01*
X0101Y0081D02*
X01017Y00802D01*
X0069Y01385D02*
Y01585D01*
X00356Y00729D02*
X00376D01*
X0035Y00735D02*
X00356Y00729D01*
X00295D02*
X00344D01*
X0035Y00735*
X01005Y01681D02*
X01115Y01792D01*
X01674*
X01704Y01762*
X01827D02*
X01849Y01784D01*
X01704Y01762D02*
X01827D01*
X0079Y01415D02*
X00801D01*
X0084Y01453*
X00859*
X00747Y00802D02*
X00777Y00773D01*
X00796*
X00809Y00785*
X00826Y00802*
X00135Y00395D02*
Y00395D01*
X00111Y00371D02*
X00144D01*
X00151Y00377*
X00243Y00743D02*
X00377Y00877D01*
X00261Y00736D02*
X0041Y00885D01*
X00295Y0073D02*
X00295Y00729D01*
X00286Y01953D02*
X00665Y01575D01*
X01146Y02281D02*
X0125Y02178D01*
X01918Y00823D02*
X01925Y0083D01*
X01918Y00771D02*
Y00823D01*
X01642Y0081D02*
X01665D01*
X01887Y0074D02*
X01918Y00771D01*
X02085Y00885D02*
X0228Y0069D01*
X01811Y0074D02*
X01887D01*
X01839Y0072D02*
X0184Y0072D01*
X01811Y00723D02*
Y0074D01*
X01735D02*
X01811D01*
X01665Y0081D02*
X01735Y0074D01*
X01599Y00767D02*
X01642Y0081D01*
X01522D02*
X01565Y00767D01*
X01599*
X0143Y0081D02*
X01522D01*
X0045Y0187D02*
X0051Y0193D01*
X0052*
X00672Y00563D02*
X00813Y00704D01*
X00275Y00431D02*
X00648D01*
X02085Y00885D02*
Y009D01*
X00324Y00494D02*
X00351Y00521D01*
X00324Y00494D02*
X0034Y00479D01*
X0033Y00469D02*
X0034Y00479D01*
X0033Y0046D02*
Y00469D01*
X00648Y00431D02*
X00686Y00393D01*
Y0038D02*
Y00393D01*
Y0038D02*
X00786Y0028D01*
X00815*
X0039Y00585D02*
X00413D01*
X00431Y00566*
X00453*
X00457Y00563*
X00672*
X01843Y00713D02*
X01845Y00715D01*
X01815Y00685D02*
X01816Y00686D01*
X01843*
X01853D02*
X01855Y00685D01*
X0184Y0072D02*
X0184Y0072D01*
X0188Y00716D02*
X01884Y0072D01*
X0186Y0069D02*
X01885D01*
X01811Y00723D02*
X01815Y0072D01*
Y00685D02*
Y0069D01*
Y0072*
X0184Y0072D02*
X01884D01*
X01815Y0072D02*
X0184D01*
X01843Y00686D02*
Y00713D01*
Y00686D02*
X01853D01*
X0184Y0072D02*
X01845Y00715D01*
X01855Y00685D02*
X0186Y0069D01*
X01885D02*
Y0072D01*
X01884Y0072D02*
X01885Y0072D01*
G54D34*
X0219Y02815D02*
X02196Y02808D01*
X02183Y02821D02*
X0219Y02815D01*
X022Y0278D02*
Y0279D01*
X02205Y02795*
X02196Y02804D02*
X02205Y02795D01*
X02196Y02804D02*
Y02808D01*
X0214Y02821D02*
X02183D01*
X02105D02*
X0214D01*
X0207D02*
X02105D01*
X01671D02*
X0207D01*
X0126Y02875D02*
X0127D01*
X0123D02*
X0126D01*
X0114D02*
X0117D01*
X01065D02*
X0114D01*
X012D02*
X0123D01*
X0117D02*
X012D01*
X01336Y02808D02*
X01658D01*
X0127Y02875D02*
X01336Y02808D01*
X01658D02*
X01671Y02821D01*
G54D35*
X0158Y02152D02*
X01582Y02149D01*
X0158Y02152D02*
Y02155D01*
X01545Y0219D02*
X0158Y02155D01*
Y0219D02*
Y02265D01*
X01582Y0213D02*
Y02149D01*
X01546Y01908D02*
X01645Y0181D01*
X0165Y0217D02*
Y02185D01*
X0079Y00714D02*
D01*
X0078Y00725D02*
X0079Y00714D01*
X0064Y00725D02*
X0078D01*
X01278Y0112D02*
Y0119D01*
X01134Y00975D02*
X01278Y0112D01*
X01335Y0087D02*
X01336Y00868D01*
X01312Y00772D02*
Y00897D01*
X01314Y00894D02*
X01315D01*
X01642Y01422D02*
X0166Y0144D01*
X01642Y01395D02*
Y01422D01*
Y01395D02*
X01655Y01382D01*
Y01265D02*
Y01382D01*
X01569Y02117D02*
X01582Y0213D01*
X01402Y02117D02*
X01569D01*
X01364Y02155D02*
X01402Y02117D01*
X01355Y02155D02*
X01364D01*
X01598Y02145D02*
X0161Y02157D01*
X01598Y02124D02*
Y02145D01*
X01575Y02101D02*
X01598Y02124D01*
X01554Y02101D02*
X01575D01*
X01442Y01989D02*
X01554Y02101D01*
X0158Y02265D02*
X01595Y0228D01*
Y02295*
X0135Y0216D02*
X01355Y02155D01*
X01595Y02295D02*
X02045Y02745D01*
Y02775*
X01442Y0198D02*
Y01989D01*
X01384Y01922D02*
X01442Y0198D01*
X0119Y01877D02*
X01334D01*
X0123Y019D02*
X01292D01*
X0162Y0218D02*
Y02187D01*
X0113Y02275D02*
Y0259D01*
X01245Y0216D02*
X0135D01*
X0097Y01435D02*
X0098D01*
X0097Y0131D02*
Y01435D01*
X0098D02*
X0101Y01465D01*
X01039Y01332D02*
Y01458D01*
X01875Y00935D02*
X0197Y0103D01*
X0048Y00516D02*
X00686D01*
X0018Y0012D02*
X00212Y00152D01*
X00357*
X0036Y0015*
X00887Y00735D02*
X0131D01*
X0075Y00597D02*
X00887Y00735D01*
X0075Y0058D02*
Y00597D01*
X00686Y00516D02*
X0075Y0058D01*
X02005Y01425D02*
Y01845D01*
X02Y0185D02*
X02005Y01845D01*
X01312Y00897D02*
X01314Y00894D01*
X01134Y00975D02*
X01135Y00975D01*
X01075D02*
X01135D01*
X01275Y01278D02*
X01299Y01302D01*
X01275Y01254D02*
Y01278D01*
Y01254D02*
X01287Y01242D01*
Y012D02*
Y01242D01*
X01302Y01302D02*
Y01334D01*
X01299Y01302D02*
X01302D01*
X01278Y0119D02*
X01287Y012D01*
X0131Y01341D02*
Y01455D01*
X01302Y01334D02*
X0131Y01341D01*
X0167Y00225D02*
Y00501D01*
X01336Y00834D02*
X0167Y00501D01*
X01336Y00834D02*
Y00868D01*
X01312Y00772D02*
X0133Y00755D01*
X00905Y0113D02*
Y01175D01*
X0085Y0123D02*
X00905Y01175D01*
X0085Y0123D02*
Y0143D01*
X01955Y00225D02*
X02135Y00045D01*
X0167Y00225D02*
X01955D01*
X00905Y01D02*
Y0113D01*
X00902Y00997D02*
X00905Y01D01*
X01985Y01405D02*
X02005Y01425D01*
X01665Y01405D02*
X01985D01*
X0173Y0119D02*
X0184Y0108D01*
X0197*
Y0103D02*
Y0108D01*
X01655Y01265D02*
X0173Y0119D01*
X01641Y02161D02*
X0165Y0217D01*
X01641Y02161D02*
D01*
X01639Y02162D02*
X01641Y02161D01*
X01634Y02162D02*
X01639D01*
X01629Y02157D02*
X01634Y02162D01*
X0161Y02157D02*
X01629D01*
X0131Y00735D02*
X0133Y00755D01*
X01645Y0181D02*
X0169D01*
X01039Y01332D02*
X0106Y01312D01*
X01177Y0189D02*
X0119Y01877D01*
X01177Y0189D02*
Y01892D01*
X00175Y00125D02*
X0018Y0012D01*
X01334Y01877D02*
X01355Y01898D01*
X01428*
X01315Y01922D02*
X01384D01*
X01292Y019D02*
X01315Y01922D01*
X0106Y0131D02*
Y01312D01*
X0113Y02275D02*
X01245Y0216D01*
X01112Y01984D02*
X0112Y01992D01*
Y0217*
X01112Y01957D02*
Y01984D01*
Y01957D02*
X01177Y01892D01*
X01315Y0053D02*
X01445Y0066D01*
X01115Y0053D02*
X01315D01*
X0039Y0055D02*
X00446D01*
X0048Y00516*
X01728Y00501D02*
X02005Y00777D01*
X0167Y00501D02*
X01728D01*
X02005Y00777D02*
Y01425D01*
G54D38*
X00275Y0185D02*
X0028D01*
X00295Y01865*
X00347*
X00645Y01046D02*
Y01566D01*
Y01046D02*
X00656Y01035D01*
X00713*
X00715Y01033*
Y01025D02*
Y01033D01*
X00347Y01865D02*
X00645Y01566D01*
G54D46*
X00155Y0294D03*
Y0272D03*
G54D48*
X01125Y0006D03*
X01246D03*
X01367D03*
X01488D03*
X0161D03*
G54D49*
X01125Y0026D03*
G54D51*
X022Y0278D03*
X0219Y02815D03*
X0214Y02821D03*
X0045Y01825D03*
X0162Y0284D03*
X0207Y02821D03*
X02105D03*
X0126Y02875D03*
X0123D03*
X012D03*
X0117D03*
X0114D03*
X0156Y0214D03*
X0158Y0219D03*
X01546Y01908D03*
X0165Y02185D03*
X0148Y0127D03*
X0079Y00714D03*
X0064Y00725D03*
X0069Y01155D03*
X01772Y00811D03*
X01894Y00781D03*
X01582Y00808D03*
X01456Y00746D03*
X00365Y0097D03*
X01335Y0087D03*
X0129Y0099D03*
X01225Y00975D03*
X01315Y00894D03*
X01275Y0086D03*
X01635Y0126D03*
X01545Y0219D03*
X02045Y02775D03*
X0123Y019D03*
X0162Y0218D03*
X0113Y0259D03*
X0111Y02655D03*
X0101Y01465D03*
X01039Y01458D03*
X01875Y00935D03*
X0039Y0055D03*
X00105Y00395D03*
X0177Y0161D03*
X02Y0185D03*
X0166Y0144D03*
X01205Y00945D03*
X0095Y01205D03*
X01075Y00975D03*
X00275Y0185D03*
X01324Y01247D03*
X0133Y012D03*
X0131Y01455D03*
X00335Y02325D03*
X00345Y0227D03*
X01005Y01595D03*
X0097Y0131D03*
X00995Y00895D03*
X0101Y00867D03*
X01585Y00425D03*
X0154D03*
X0085Y0143D03*
X00555Y0104D03*
X0053Y0088D03*
X02135Y00045D03*
X0167Y00225D03*
X00905Y0113D03*
X00902Y00997D03*
X0087Y0115D03*
Y0095D03*
X01665Y01405D03*
X02005Y01425D03*
X0197Y0108D03*
X0173Y0119D03*
X01265Y0121D03*
X01555Y01265D03*
X01065Y02875D03*
X01945Y01785D03*
X0045Y00887D03*
X00755Y00275D03*
X00815Y0028D03*
X0039Y00585D03*
X0169Y0181D03*
X019Y01785D03*
X01849Y01784D03*
X00715Y01025D03*
X0073Y01055D03*
X00295Y0225D03*
X0069Y01385D03*
X00175Y00125D03*
X0036Y0015D03*
X01428Y01898D03*
X0106Y0131D03*
X0079Y01415D03*
X00135Y00395D03*
X00295Y0073D03*
X0112Y0217D03*
X01925Y0083D03*
X0185Y0072D03*
X0228Y0069D03*
X01735Y0074D03*
X0143Y0081D03*
X01445Y0066D03*
X01115Y0053D03*
X01329Y01615D03*
X01534D03*
X01125Y01666D03*
Y01615D03*
X01176D03*
X01227D03*
X01278D03*
X01381D03*
X01432D03*
X01483D03*
X01585D03*
X01637D03*
X01176Y01666D03*
X01227D03*
X01278D03*
X01329D03*
X01381D03*
X01432D03*
X01483D03*
X01534D03*
X01585D03*
X01637D03*
X01125Y01717D03*
X01176D03*
X01227D03*
X01278D03*
X01329D03*
X01381D03*
X01432D03*
X01483D03*
X01534D03*
X01585D03*
X01637D03*
X01125Y01768D03*
X01176D03*
X01227D03*
X01278D03*
X01329D03*
X01381D03*
X01432D03*
X01483D03*
X01534D03*
X01585D03*
X01637D03*
X0052Y0193D03*
X02085Y009D03*
X0033Y0046D03*
X01815Y0069D03*
X0185D03*
X01885Y0072D03*
Y0069D03*
X01815Y0072D03*
G54D52*
X00582Y00594D03*
Y00641D03*
Y00688D03*
Y00735D03*
X00535Y00594D03*
Y00641D03*
Y00688D03*
Y00735D03*
X00488Y00594D03*
Y00641D03*
Y00688D03*
Y00735D03*
X00441Y00594D03*
Y00641D03*
Y00688D03*
Y00735D03*
M02*