%FSTAX23Y23*%
%MOIN*%
%SFA1B1*%

%IPPOS*%
%ADD32C,0.011810*%
%ADD33C,0.118110*%
%ADD36C,0.196850*%
%ADD53C,0.039370*%
%ADD84R,0.051310X0.047370*%
%ADD86R,0.110360X0.082800*%
%ADD90R,0.145790X0.106420*%
%ADD91R,0.047370X0.086740*%
%ADD96R,0.047370X0.051310*%
%ADD97R,0.067060X0.059180*%
%ADD98R,0.082800X0.114300*%
%ADD104R,0.037530X0.097960*%
%ADD105R,0.399540X0.362920*%
%ADD106C,0.126110*%
%ADD107C,0.204850*%
%ADD108C,0.106420*%
%ADD109R,0.067060X0.067060*%
%ADD110C,0.067060*%
%ADD111C,0.086740*%
%ADD112C,0.031620*%
%ADD113C,0.098430*%
%ADD114R,0.250000X0.142130*%
%ADD115R,0.114300X0.082800*%
%ADD116R,0.352490X0.212720*%
%ADD117O,0.035560X0.106420*%
%ADD118C,0.032800*%
%ADD119R,0.204850X0.086740*%
%ADD120R,0.133980X0.045400*%
%ADD121O,0.106420X0.035560*%
%ADD122R,0.019810X0.069020*%
%ADD123R,0.086740X0.086740*%
%ADD124O,0.017840X0.033590*%
%ADD125O,0.033590X0.017840*%
%ADD126R,0.185170X0.185170*%
%ADD127C,0.035170*%
%LNninja_3_2_pcb-1*%
%LPD*%
G54D32*
X01423Y02009D02*
Y02038D01*
X01262Y02065D02*
X01294Y02032D01*
X01257Y0207D02*
X01262Y02065D01*
X01423Y02038D02*
X0145Y02065D01*
G54D33*
X01865Y02124D02*
Y02265D01*
X01964Y02025D02*
Y02264D01*
X0136Y02065D02*
X0145D01*
X01262D02*
X0136D01*
X01437Y02077D02*
Y02265D01*
X01339Y02085D02*
Y02266D01*
Y02085D02*
X0136Y02065D01*
X01287Y02265D02*
X01337D01*
X01257D02*
X01287D01*
X01437Y02077D02*
X0145Y02065D01*
X01339Y02266D02*
X01435D01*
X01337Y02265D02*
X01339Y02266D01*
X01435D02*
X01437Y02265D01*
X0071Y02127D02*
Y02265D01*
X0076Y0222D02*
X0091Y0207D01*
Y02265*
X01451Y02063D02*
X01591D01*
X01766Y02113D02*
Y02263D01*
X01765Y02111D02*
X01766Y02113D01*
X01765Y02065D02*
Y02111D01*
X01663Y02065D02*
X01765D01*
X01661Y02063D02*
X01663Y02065D01*
X01598Y02063D02*
X01661D01*
X01596Y02065D02*
X01598Y02063D01*
X01593Y02065D02*
X01596D01*
X01591Y02063D02*
X01593Y02065D01*
X00851D02*
X01015D01*
X00812Y02025D02*
X00851Y02065D01*
X0145D02*
X01451Y02063D01*
X0071Y02127D02*
X00812Y02025D01*
X0091Y02265D02*
X0092D01*
X0081D02*
X0091D01*
X0076D02*
X0081D01*
X0071D02*
X0076D01*
X01437D02*
X01457D01*
X01765D02*
X01815D01*
X01865*
X01965*
X01985*
X01765D02*
X01766Y02263D01*
X01257Y02216D02*
Y02265D01*
X01015Y02065D02*
X01161D01*
X01173Y02053*
X01236*
X01248Y02065*
X01262*
X01281Y02094D02*
Y02191D01*
X01257Y0207D02*
X01281Y02094D01*
X01257Y02216D02*
X01281Y02191D01*
G54D36*
X0085Y0261D02*
Y0294D01*
X01385Y0261D02*
Y0294D01*
X01915Y0261D02*
Y0294D01*
G54D53*
X01715Y02305D02*
X02024D01*
X01727Y02129D02*
Y0216D01*
X01715Y02173D02*
X01727Y0216D01*
X01715Y02173D02*
Y02305D01*
X02024Y02274D02*
Y02305D01*
X01964Y02025D02*
X02015Y02075D01*
Y02265*
G54D84*
X00285Y0089D03*
X00218D03*
X00095Y0078D03*
X00161D03*
X00178Y00294D03*
X00111D03*
X00175Y00235D03*
X00108D03*
Y00175D03*
X00175D03*
X00975Y0054D03*
X01041D03*
X00975Y0048D03*
X01041D03*
X0171Y01315D03*
X01776D03*
X01845D03*
X01911D03*
X01708Y01385D03*
X01775D03*
X0125Y01365D03*
X01183D03*
X02215Y00095D03*
X02148D03*
X0194D03*
X02006D03*
X0041Y00355D03*
X00343D03*
X00815Y00124D03*
X00881D03*
X01085Y01205D03*
X01151D03*
X01675Y01255D03*
X01741D03*
X0133Y01375D03*
X01396D03*
X01775Y01445D03*
X01708D03*
X01906Y01385D03*
X0184D03*
X0105Y01365D03*
X01116D03*
X02185Y00775D03*
X02118D03*
X01365Y0095D03*
X01431D03*
X01895Y0145D03*
X01961D03*
G54D86*
X00855Y00369D03*
Y002D03*
G54D90*
X01924Y01194D03*
G54D91*
X02015Y0095D03*
X01924D03*
X01833D03*
G54D96*
X0212Y02295D03*
Y02228D03*
X0218Y02225D03*
Y02291D03*
X01655Y0247D03*
Y02403D03*
Y02265D03*
Y02331D03*
X01125Y02403D03*
Y0247D03*
Y02265D03*
Y02331D03*
X0042Y00925D03*
Y00991D03*
X0048D03*
Y00925D03*
X0083Y0073D03*
Y00796D03*
X00455Y0026D03*
Y00193D03*
X0089Y00795D03*
Y00728D03*
X0095Y00795D03*
Y00728D03*
X01725Y016D03*
Y01533D03*
X01555Y0134D03*
Y01406D03*
X0147Y00855D03*
Y00788D03*
X0154Y00855D03*
Y00788D03*
X01735Y0086D03*
Y00793D03*
X01495Y0134D03*
Y01406D03*
X015Y0092D03*
Y00986D03*
X0158Y0092D03*
Y00986D03*
X01665Y0092D03*
Y00986D03*
X0229Y00425D03*
Y00358D03*
X0058Y0092D03*
Y00986D03*
X00155Y00875D03*
Y00941D03*
X00045Y0031D03*
Y00376D03*
X00655Y00915D03*
Y00981D03*
X0074Y00495D03*
Y00428D03*
X00725Y00835D03*
Y00901D03*
X00645Y00105D03*
Y00038D03*
X00265Y00115D03*
Y00048D03*
X0096Y00279D03*
Y00212D03*
X01045Y0159D03*
Y01523D03*
X0136Y008D03*
Y00733D03*
X0074Y0138D03*
Y01446D03*
X00595Y01375D03*
Y01441D03*
X0227Y0082D03*
Y00886D03*
X0138Y0131D03*
Y01243D03*
X0204Y0138D03*
Y01313D03*
G54D97*
X015Y01065D03*
Y0114D03*
X01582Y01065D03*
Y0114D03*
X01665Y01065D03*
Y0114D03*
X00655Y00175D03*
Y00249D03*
X00255Y00181D03*
Y00256D03*
G54D98*
X01741Y02955D03*
X0156D03*
X00371Y01795D03*
X0019D03*
X01023Y02975D03*
X01205D03*
X01839Y00805D03*
X0202D03*
X01573Y0066D03*
X01755D03*
X02126Y00665D03*
X01945D03*
G54D104*
X0101Y02265D03*
X0096D03*
X0091D03*
X0081D03*
X0076D03*
X0071D03*
X01537D03*
X01487D03*
X01437D03*
X01337D03*
X01287D03*
X01237D03*
X02065D03*
X02015D03*
X01965D03*
X01865D03*
X01815D03*
X01765D03*
G54D105*
X0086Y02576D03*
X01387D03*
X01915D03*
G54D106*
X004Y0111D03*
X0221Y0302D03*
X00095Y00085D03*
G54D107*
X0037Y0272D03*
Y0294D03*
X00155D03*
Y0272D03*
X0085Y0294D03*
X01385D03*
X01915D03*
G54D108*
X02265Y02833D03*
Y024D03*
X00555Y03018D03*
Y02585D03*
G54D109*
X01125Y0006D03*
X01246D03*
X01367D03*
X01488D03*
X0161D03*
G54D110*
X01125Y0016D03*
Y0026D03*
X01246Y0016D03*
Y0026D03*
X01367Y0016D03*
Y0026D03*
X01488Y0016D03*
Y0026D03*
X0161Y0016D03*
Y0026D03*
G54D111*
X02255Y0228D03*
G54D112*
X022Y0278D03*
X0219Y02815D03*
X0214Y02821D03*
X02175Y0218D03*
X0045Y01825D03*
X0162Y0284D03*
X01586Y0288D03*
X0154D03*
X0162Y02887D03*
X0165Y0288D03*
X00605Y02281D03*
X00635Y02365D03*
Y0233D03*
X0207Y02821D03*
X02105D03*
X0126Y02875D03*
X0123D03*
X012D03*
X0117D03*
X0114D03*
X01665Y01925D03*
X01626Y01981D03*
X017Y01935D03*
X0156Y0214D03*
X0158Y0219D03*
X01566Y01981D03*
X01546Y01908D03*
X0169Y02145D03*
X0165Y02185D03*
X0226Y00485D03*
X02315Y00585D03*
Y00615D03*
X0229Y006D03*
Y0057D03*
Y0048D03*
X02315Y00495D03*
X0229Y0051D03*
Y0054D03*
X02315Y00525D03*
Y00555D03*
X0148Y0127D03*
X0079Y00714D03*
X0064Y00725D03*
X0069Y01155D03*
X01772Y00811D03*
X01894Y00781D03*
X01925Y00895D03*
X01582Y00808D03*
X01456Y00746D03*
X01865Y01105D03*
X01805Y0116D03*
X01467Y01452D03*
X0149Y0148D03*
X01515Y01455D03*
X01428Y01493D03*
X01345Y01455D03*
X0131Y01485D03*
X01257Y01475D03*
X0116Y0087D03*
X0107D03*
X0111D03*
X011Y0071D03*
X00365Y0097D03*
X0131Y0096D03*
X01335Y0087D03*
X0129Y0099D03*
X01225Y00975D03*
X01329Y0105D03*
X01315Y00894D03*
X01275Y0086D03*
X01249Y00876D03*
X0122Y0087D03*
X0119D03*
X01185Y0131D03*
X01635Y0126D03*
X01545Y0219D03*
X02045Y02775D03*
X0139Y01985D03*
X0136D03*
X01475Y0198D03*
X01505Y01981D03*
X01455Y0192D03*
X01335Y0196D03*
X01325Y019D03*
X0123D03*
X0162Y0218D03*
X01615Y02625D03*
X0113Y0259D03*
X0116Y02675D03*
X0156Y02775D03*
X0111Y02655D03*
X01294Y01985D03*
X00295Y0048D03*
X00915Y01465D03*
X0101D03*
X01039Y01458D03*
X011Y0146D03*
X0108Y01484D03*
X012Y0145D03*
X0169Y0074D03*
X01875Y00935D03*
X0039Y0055D03*
X0049Y00539D03*
X00545D03*
X0032Y009D03*
X00645Y0078D03*
X00985Y01905D03*
X00105Y00395D03*
X0029Y0057D03*
X00225Y0013D03*
X0071Y0006D03*
X00835Y00035D03*
X0078Y00595D03*
X02248Y00271D03*
X0177Y0161D03*
X02Y0185D03*
X0166Y0144D03*
X01205Y00945D03*
X0095Y01205D03*
X01075Y00975D03*
X00275Y0185D03*
X00295Y019D03*
X01215Y0131D03*
X01245D03*
X01298Y01263D03*
X01324Y01247D03*
X0133Y012D03*
X01305Y0115D03*
X01275Y0131D03*
X01235Y0145D03*
X0128Y01455D03*
X0131D03*
X00335Y02325D03*
X00345Y0227D03*
X00315Y01818D03*
X0031Y02045D03*
X01005Y01595D03*
X0097Y0131D03*
X0103D03*
X01D03*
X00995Y00895D03*
X00955Y0087D03*
X0101Y00867D03*
X01585Y00425D03*
X0154D03*
X0085Y0143D03*
X00555Y0104D03*
X0053Y0088D03*
X02135Y00045D03*
X0167Y00225D03*
X00905Y0113D03*
X00902Y00997D03*
X0087Y0115D03*
Y0095D03*
X01665Y01405D03*
X02005Y01425D03*
X0195Y0138D03*
X0197Y0108D03*
X0173Y0119D03*
X0063Y023D03*
X01265Y0121D03*
X01555Y01265D03*
X01065Y02875D03*
X01945Y01785D03*
X0168Y02885D03*
X0102Y0216D03*
X0045Y00887D03*
X00755Y00275D03*
X00366Y00753D03*
X00815Y0028D03*
X0039Y00585D03*
X0169Y0181D03*
X019Y01785D03*
X01849Y01784D03*
X013Y0194D03*
X012Y019D03*
X00715Y01025D03*
X0073Y01055D03*
X00295Y0225D03*
X0069Y01385D03*
X00175Y00125D03*
X0036Y0015D03*
X01428Y01898D03*
X01022Y01981D03*
X0106Y0131D03*
X00125Y0073D03*
X00236Y00796D03*
X01761Y01088D03*
X01555Y0123D03*
X01325Y011D03*
X01799Y01786D03*
X0079Y01415D03*
X00805Y01465D03*
X00786Y00796D03*
X00135Y00395D03*
X0013Y00345D03*
X0028Y00825D03*
X00295Y0073D03*
X0012Y0082D03*
X0112Y0217D03*
X0118Y02185D03*
X01185Y02155D03*
X01205Y0213D03*
X012Y01975D03*
X01135D03*
X02035Y01145D03*
X0187Y009D03*
X01955Y00825D03*
X01925Y0083D03*
X0185Y0072D03*
X0228Y0069D03*
X01735Y0074D03*
X0162Y00955D03*
X0143Y0081D03*
X01445Y0066D03*
X01115Y0053D03*
X01329Y01615D03*
X01534D03*
X01125Y01666D03*
Y01615D03*
X01176D03*
X01227D03*
X01278D03*
X01381D03*
X01432D03*
X01483D03*
X01585D03*
X01637D03*
X01176Y01666D03*
X01227D03*
X01278D03*
X01329D03*
X01381D03*
X01432D03*
X01483D03*
X01534D03*
X01585D03*
X01637D03*
X01125Y01717D03*
X01176D03*
X01227D03*
X01278D03*
X01329D03*
X01381D03*
X01432D03*
X01483D03*
X01534D03*
X01585D03*
X01637D03*
X01125Y01768D03*
X01176D03*
X01227D03*
X01278D03*
X01329D03*
X01381D03*
X01432D03*
X01483D03*
X01534D03*
X01585D03*
X01637D03*
X0052Y0193D03*
X0062Y0054D03*
X02085Y009D03*
X0033Y0046D03*
X01Y0044D03*
X00725Y00385D03*
X0056Y0078D03*
X00435Y00525D03*
X01082Y01981D03*
X01815Y0069D03*
X0185D03*
X01885Y0072D03*
Y0069D03*
X01815Y0072D03*
G54D113*
X00583Y016D02*
X0081D01*
X00381D02*
X00583D01*
X00196Y01785D02*
Y02022D01*
X00201Y02027*
X00196Y01785D02*
X00201Y0178D01*
Y01773D02*
Y0178D01*
Y02027D02*
X00212Y02039D01*
Y02131*
X00201Y0178D02*
X00381Y016D01*
X00113Y0265D02*
X00183Y0272D01*
X00113Y0223D02*
X00212Y02131D01*
X00113Y0223D02*
Y0265D01*
G54D114*
X01379Y01692D03*
G54D115*
X00535Y02281D03*
Y021D03*
X0055Y00241D03*
Y0006D03*
X0036Y00244D03*
Y00063D03*
X02125Y01166D03*
Y00985D03*
X02275Y02021D03*
Y0184D03*
X00535Y01813D03*
Y01995D03*
X01585Y00365D03*
Y00546D03*
G54D116*
X00812Y02025D03*
Y016D03*
X01964Y02025D03*
Y016D03*
G54D117*
X0005Y00661D03*
X001D03*
X0015D03*
X002D03*
X0005Y00468D03*
X001D03*
X0015D03*
X002D03*
G54D118*
X01705Y00331D03*
Y00281D03*
Y00231D03*
Y00181D03*
Y00531D03*
X01755D03*
X01805D03*
X01855D03*
X01905D03*
X01955D03*
X02005D03*
X02105D03*
X02155D03*
X02205D03*
Y00481D03*
X02155D03*
X02105D03*
X02005D03*
X01955D03*
X01905D03*
X01855D03*
X01805D03*
X01755D03*
X01705D03*
X02205Y00431D03*
X02155D03*
X02105D03*
X02005D03*
X01955D03*
X01905D03*
X01855D03*
X01805D03*
X01755D03*
X01705D03*
X02005Y00381D03*
X01955D03*
X01905D03*
X01855D03*
X01805D03*
X01755D03*
X01705D03*
X02205Y00331D03*
X02155D03*
X02105D03*
X02055D03*
X02005D03*
X01955D03*
X01905D03*
X01855D03*
X01805D03*
X01755D03*
X02205Y00281D03*
X02155D03*
X02105D03*
X02055D03*
X02005D03*
X01955D03*
X01905D03*
X01855D03*
X01805D03*
X01755D03*
X02205Y00231D03*
X02155D03*
X02105D03*
X02055D03*
X02005D03*
X01955D03*
X01905D03*
X01855D03*
X01805D03*
X01755D03*
X02205Y00181D03*
X02155D03*
X02105D03*
X02055D03*
X02005D03*
X01955D03*
X01905D03*
X01855D03*
X01805D03*
X01755D03*
G54D119*
X02185Y0144D03*
Y013D03*
X0033Y02545D03*
Y02405D03*
G54D120*
X00086Y02085D03*
X0039D03*
X00081Y01385D03*
X00385D03*
G54D121*
X01236Y00785D03*
Y00735D03*
Y00685D03*
Y00635D03*
X01043Y00785D03*
Y00735D03*
Y00685D03*
Y00635D03*
G54D122*
X01645Y0184D03*
X01625D03*
X01605D03*
X01585D03*
X01566D03*
X01546D03*
X01526D03*
X01507D03*
X01487D03*
X01467D03*
X01448D03*
X01428D03*
X01408D03*
X01389D03*
X01369D03*
X01349D03*
X0133D03*
X0131D03*
X0129D03*
X0127D03*
X01251D03*
X01231D03*
X01211D03*
X01192D03*
X01172D03*
X01152D03*
X01133Y0184D03*
X01113Y0184D03*
Y01545D03*
X01133D03*
X01152D03*
X01172D03*
X01192D03*
X01211D03*
X01231D03*
X01251D03*
X0127D03*
X0129D03*
X0131D03*
X0133D03*
X01349D03*
X01369D03*
X01389D03*
X01408D03*
X01428D03*
X01448D03*
X01467D03*
X01487D03*
X01507D03*
X01526D03*
X01546D03*
X01566D03*
X01585D03*
X01605D03*
X01625D03*
X01645D03*
G54D123*
X02205Y0155D03*
Y01745D03*
G54D124*
X00659Y00488D03*
X00639D03*
X0062D03*
X006D03*
X0058D03*
X00561D03*
X00541D03*
X00521D03*
X00502D03*
X00482D03*
X00462D03*
X00443D03*
X00423D03*
X00403D03*
X00384D03*
X00364D03*
Y00841D03*
X00384D03*
X00403D03*
X00423D03*
X00443D03*
X00462D03*
X00482D03*
X00502D03*
X00521D03*
X00541D03*
X00561D03*
X0058D03*
X006D03*
X0062D03*
X00639D03*
X00659D03*
G54D125*
X00335Y00517D03*
Y00537D03*
Y00556D03*
Y00576D03*
Y00596D03*
Y00615D03*
Y00635D03*
Y00655D03*
Y00674D03*
Y00694D03*
Y00714D03*
Y00733D03*
Y00753D03*
Y00773D03*
Y00792D03*
Y00812D03*
X00688D03*
Y00792D03*
Y00773D03*
Y00753D03*
Y00733D03*
Y00714D03*
Y00694D03*
Y00674D03*
Y00655D03*
Y00635D03*
Y00615D03*
Y00596D03*
Y00576D03*
Y00556D03*
Y00537D03*
Y00517D03*
G54D126*
X00512Y00665D03*
G54D127*
X00582Y00594D03*
Y00641D03*
Y00688D03*
Y00735D03*
X00535Y00594D03*
Y00641D03*
Y00688D03*
Y00735D03*
X00488Y00594D03*
Y00641D03*
Y00688D03*
Y00735D03*
X00441Y00594D03*
Y00641D03*
Y00688D03*
Y00735D03*
M02*