%FSTAX23Y23*%
%MOIN*%
%SFA1B1*%

%IPPOS*%
%ADD32C,0.011810*%
%ADD33C,0.118110*%
%ADD34C,0.027560*%
%ADD35C,0.009840*%
%ADD46C,0.196850*%
%ADD48R,0.059060X0.059060*%
%ADD49C,0.059060*%
%ADD50C,0.078740*%
%ADD51C,0.023620*%
%ADD52C,0.027170*%
%ADD53C,0.039370*%
%LNninja_3_2_pcb-1*%
%LPD*%
G36*
X02322Y02864D02*
X02317Y02863D01*
X02315Y02867*
X02308Y02876*
X02299Y02884*
X02288Y02889*
X02276Y02893*
X02265Y02894*
X02253Y02893*
X02241Y02889*
X0223Y02884*
X02221Y02876*
X02214Y02867*
X02208Y02856*
X02204Y02845*
X02204Y02839*
X022Y02837*
X02199Y02837*
X0219Y02839*
X0218Y02837*
X02172Y02832*
X0217Y02827*
X02166Y02828*
X02164Y02828*
X02162Y02834*
X02158Y0284*
X02152Y02844*
X02146Y02846*
X0214Y02847*
X0207*
X02063Y02846*
X02057Y02844*
X02051Y0284*
X02047Y02834*
X02045Y02828*
X02044Y02821*
X02045Y02815*
X02047Y02808*
X02051Y02803*
X02052Y02802*
X0205Y02797*
X02045Y02799*
X02035Y02797*
X02027Y02792*
X02022Y02784*
X0202Y02775*
X02022Y02765*
X02027Y02757*
X02035Y02752*
X02045Y0275*
X02054Y02752*
X02062Y02757*
X02067Y02765*
X02069Y02775*
X02067Y02784*
X02062Y02791*
X02063Y02796*
X02063Y02796*
X02063Y02796*
X0207Y02795*
X0214*
X02146Y02796*
X02152Y02799*
X02158Y02803*
X02162Y02808*
X02163Y02808*
X02167Y02807*
X02167Y02805*
X02172Y02797*
X0218Y02793*
X02177Y02789*
X02175Y0278*
X02177Y0277*
X02182Y02762*
X0219Y02757*
X022Y02755*
X02209Y02757*
X02217Y02762*
X02222Y0277*
X02224Y0278*
X02223Y02781*
X02227Y02784*
X0223Y02782*
X02241Y02776*
X02253Y02772*
X02265Y02771*
X02276Y02772*
X02288Y02776*
X02299Y02782*
X02308Y02789*
X02315Y02799*
X02317Y02802*
X02322Y02801*
Y02431*
X02317Y0243*
X02315Y02434*
X02308Y02443*
X02299Y0245*
X02288Y02456*
X02276Y0246*
X02265Y02461*
X02253Y0246*
X02241Y02456*
X0223Y0245*
X02221Y02443*
X02214Y02434*
X02208Y02423*
X02204Y02411*
X02203Y024*
X02204Y02388*
X02208Y02376*
X02214Y02365*
X02221Y02356*
X02228Y02351*
X02227Y02347*
X02227Y02345*
X02215Y02339*
X02204Y0233*
X02195Y02319*
X02189Y02307*
X02185Y02293*
X02183Y0228*
Y02206*
X02179Y02203*
X02175Y02204*
X02165Y02202*
X02159Y02198*
X01885*
X01878Y02196*
X01872Y02192*
X01701Y02022*
X01697Y02023*
X01677*
X0167Y02022*
X01664Y02018*
X0165Y02004*
X0165Y02003*
X01645Y02003*
X01645Y02008*
X01702Y02064*
X01705Y0207*
X01707Y02076*
Y02128*
X01712Y02135*
X01714Y02145*
X01712Y02154*
X01707Y02162*
X01699Y02167*
X0169Y02169*
X0168Y02167*
X01672Y02162*
X01667Y02154*
X01665Y02145*
X01667Y02135*
X01672Y02128*
Y02084*
X01591Y02003*
X01589Y01998*
X01583Y01998*
X01583Y01998*
X01575Y02003*
X01566Y02005*
X01557Y02003*
X01549Y01998*
X01544Y0199*
X01542Y01981*
X01544Y01972*
X01549Y01964*
X01557Y01959*
X01564Y01957*
X01566Y01952*
X01546Y01932*
X01537Y0193*
X01529Y01925*
X01524Y01917*
X01522Y01908*
X01524Y01899*
X01525Y01897*
X01523Y01892*
X01465*
X01464Y01897*
X01472Y01902*
X01477Y0191*
X01479Y0192*
X01477Y01929*
X01472Y01936*
Y01953*
X01475Y01955*
X01484Y01957*
X01491Y01962*
X01496Y01959*
X01505Y01957*
X01515Y01959*
X01522Y01964*
X01528Y01972*
X01529Y01981*
X01528Y0199*
X01522Y01998*
X01515Y02003*
X01505Y02005*
X01496Y02003*
X01489Y01998*
X01484Y02002*
X01475Y02004*
X01465Y02002*
X01463Y02*
X01459Y02003*
Y02015*
X0156Y02115*
X01569Y02117*
X01577Y02122*
X01582Y0213*
X01584Y0214*
X01582Y02149*
X01577Y02157*
X01569Y02162*
X0156Y02164*
X01555Y02163*
X01554Y02167*
X01558Y0217*
X01562Y02172*
X01566Y0217*
X0157Y02167*
X0158Y02165*
X01589Y02167*
X01597Y02172*
X01598Y02175*
X01604Y02174*
X01604Y02173*
X01607Y02167*
X01613Y02164*
X0162Y02162*
X01626Y02164*
X01628Y02165*
X01632Y02167*
X0164Y02162*
X0165Y0216*
X01659Y02162*
X01667Y02167*
X01672Y02175*
X01674Y02185*
X01672Y02194*
X01667Y02202*
X01659Y02207*
X0165Y02209*
X01642Y02207*
X01637Y0221*
Y02359*
X01649Y02371*
X01653Y02377*
X01654Y02383*
Y02822*
X01653Y02828*
X01649Y02834*
X0164Y02843*
X01642Y02848*
X01675*
X01683Y02849*
X0169Y02852*
X01697Y02857*
X01702Y02864*
X01705Y02871*
X01706Y0288*
X01705Y02888*
X01702Y02895*
X01697Y02902*
X0169Y02907*
X01683Y0291*
X01675Y02911*
X01645*
X01641Y02915*
X01633Y02918*
X01625Y02919*
X01594*
X01586Y02918*
X01578Y02915*
X01574Y02911*
X0152*
X01511Y0291*
X01504Y02907*
X01497Y02902*
X01491Y02896*
X01487Y02899*
X0149Y02905*
X01494Y02922*
X01495Y0294*
X01494Y02957*
X0149Y02974*
X01483Y0299*
X01474Y03005*
X01463Y03018*
X0145Y03029*
X01435Y03038*
X01419Y03045*
X01402Y03049*
X01385Y0305*
X01367Y03049*
X0135Y03045*
X01334Y03038*
X0132Y03029*
X01306Y03018*
X01295Y03005*
X01286Y0299*
X01279Y02974*
X01275Y02957*
X01274Y0294*
X01275Y02922*
X01279Y02905*
X01284Y02893*
X01282Y02889*
X01281Y02889*
X01278Y02893*
X01272Y02897*
X01266Y02899*
X0126Y029*
X01065*
X01058Y02899*
X01052Y02897*
X01046Y02893*
X01042Y02887*
X0104Y02881*
X01039Y02875*
X0104Y02868*
X01042Y02862*
X01046Y02856*
X01052Y02852*
X01058Y0285*
X01065Y02849*
X0126*
X01266Y0285*
X01272Y02852*
X01278Y02856*
X01282Y02862*
X01284Y02868*
X01285Y02875*
X01285Y0288*
X01284Y02881*
X01283Y02884*
X01284Y02885*
X01289Y02885*
X01295Y02875*
X01306Y02861*
X0132Y0285*
X01326Y02846*
X01325Y02841*
X0106*
X01051Y0284*
X01044Y02837*
X01037Y02832*
X00607Y02402*
X00602Y02395*
X00599Y02388*
X00598Y0238*
Y02303*
X00595Y02303*
X00587Y02298*
X00582Y0229*
X0058Y02281*
X00582Y02271*
X00587Y02264*
X00595Y02258*
X00605Y02257*
X00614Y02258*
X00622Y02264*
X00625Y02268*
X0063Y02268*
X00638Y02269*
X00645Y02272*
X00652Y02277*
X00657Y02284*
X0066Y02291*
X00661Y023*
Y02366*
X01073Y02778*
X0145*
X01458Y02779*
X01465Y02782*
X01472Y02787*
X01533Y02848*
X01586*
X01595Y02849*
X01601Y02852*
X01604Y0285*
X01605Y02848*
X01604Y02846*
X01602Y0284*
X01604Y02833*
X01607Y02827*
X0162Y02815*
Y02651*
X01616Y02648*
X01615Y02649*
X01605Y02647*
X01597Y02642*
X01592Y02634*
X0159Y02625*
X01592Y02615*
X01596Y02609*
Y02392*
X01408Y02203*
X01404Y02197*
X01402Y02191*
Y02158*
X01403Y02153*
Y02037*
X01398Y02035*
X01267Y02167*
X01261Y0217*
X01255Y02172*
X01205*
X01204Y02173*
X01202Y02177*
X01204Y02185*
X01202Y02194*
X01198Y022*
Y02387*
X01561Y02751*
X01569Y02752*
X01577Y02757*
X01582Y02765*
X01584Y02775*
X01582Y02784*
X01577Y02792*
X01569Y02797*
X0156Y02799*
X0155Y02797*
X01542Y02792*
X01537Y02784*
X01536Y02776*
X01178Y02419*
X01174Y02421*
Y02656*
X01177Y02657*
X01182Y02665*
X01184Y02675*
X01182Y02684*
X01177Y02692*
X01169Y02697*
X0116Y02699*
X0115Y02697*
X01142Y02692*
X01137Y02684*
X01135Y02675*
X01137Y02665*
X01138Y02665*
Y02659*
X01133Y02659*
X01132Y02664*
X01127Y02672*
X01119Y02677*
X0111Y02679*
X011Y02677*
X01092Y02672*
X01087Y02664*
X01085Y02655*
X01087Y02645*
X01092Y02637*
X011Y02632*
X0111Y0263*
X01119Y02632*
X01127Y02637*
X01132Y02645*
X01133Y0265*
X01138Y0265*
Y02616*
X01134Y02613*
X0113Y02614*
X0112Y02612*
X01112Y02607*
X01107Y02599*
X01105Y0259*
X01107Y0258*
X01112Y02572*
X0112Y02567*
X0113Y02565*
X01134Y02566*
X01138Y02563*
Y02192*
X01133Y02189*
X01129Y02192*
X0112Y02194*
X0111Y02192*
X01102Y02187*
X01097Y02179*
X01095Y0217*
X01097Y0216*
X01102Y02152*
X0111Y02147*
X0112Y02145*
X01129Y02147*
X01137Y02152*
X01137Y02153*
X01141Y02151*
Y0213*
Y02066*
X0108Y02005*
X01073Y02003*
X01065Y01998*
X0106Y0199*
X01058Y01981*
X0106Y01972*
X01065Y01964*
X01073Y01959*
X01082Y01957*
X01092Y01959*
X01099Y01964*
X01105Y01972*
X01105Y01975*
X01106Y01975*
X01106Y01975*
X01111Y01972*
X01112Y01965*
X01117Y01957*
X01125Y01952*
X01135Y0195*
X01144Y01952*
X01152Y01957*
X01157Y01965*
X01159Y01975*
X01157Y01984*
X01152Y01992*
X01144Y01997*
X01135Y01999*
X01132Y01998*
X01129Y02003*
X01172Y02046*
X01176Y02051*
X01178Y02058*
Y02111*
X01189*
X01195Y02107*
X01205Y02105*
X01214Y02107*
X01222Y02112*
X01227Y0212*
X01229Y0213*
X01228Y02134*
X01231Y02137*
X01247*
X01371Y02014*
X0137Y02011*
X01365Y02007*
X0136Y02009*
X0135Y02007*
X01342Y02002*
X01337Y01994*
X01335Y01985*
X01335Y01984*
X01325Y01982*
X01323Y0198*
X01318Y01983*
X01319Y01985*
X01317Y01994*
X01311Y02002*
X01304Y02007*
X01294Y02009*
X01285Y02007*
X01277Y02002*
X01272Y01994*
X0127Y01985*
X01272Y01976*
X01277Y01968*
X01281Y01965*
Y01958*
X01236*
X01229Y01956*
X01223Y01952*
X01193Y01922*
X0119Y01922*
X01182Y01917*
X01177Y01909*
X01175Y019*
X01177Y0189*
X01182Y01882*
X0119Y01877*
X012Y01875*
X01209Y01877*
X01215Y01881*
X0122Y01877*
X0123Y01875*
X01239Y01877*
X01239Y01878*
X0124Y01877*
X01246Y01879*
X01252Y01882*
X01255Y01888*
X01257Y01895*
X01255Y01901*
X01252Y01905*
X01252Y01909*
X01247Y01917*
X01248Y01921*
X01284*
X0129Y01917*
X013Y01915*
X01301Y01916*
X01304Y01911*
X01302Y01909*
X013Y019*
X01302Y0189*
X01307Y01882*
X01315Y01877*
X01325Y01875*
X01334Y01877*
X0134Y01881*
X01382*
X01402Y01861*
X01408Y01858*
X01415Y01856*
X01553*
X0156Y01858*
X01566Y01861*
X01637Y01933*
X01642Y0193*
X0164Y01925*
X01642Y01915*
X01647Y01907*
X01655Y01902*
X01665Y019*
X01674Y01902*
X01682Y01907*
X01686Y01915*
X0169Y01912*
X017Y0191*
X01709Y01912*
X01717Y01917*
X01722Y01925*
X01724Y01935*
X01722Y01944*
X01717Y01952*
X01709Y01957*
X017Y01959*
X0169Y01957*
X01682Y01952*
X01678Y01944*
X01674Y01947*
X01665Y01949*
X01659Y01947*
X01656Y01952*
X01676Y01972*
X0168Y01977*
X01681Y01983*
X01684Y01987*
X01689*
X0169Y01985*
X01696Y01982*
X01703Y0198*
X0171Y01982*
X01716Y01985*
X01892Y02161*
X02159*
X02165Y02157*
X02175Y02155*
X02179Y02156*
X02183Y02153*
Y00803*
X02183Y00803*
X02152Y00772*
X02143Y00761*
X02137Y00749*
X02133Y00735*
X02131Y00721*
Y00658*
X02133Y00644*
X02137Y0063*
X02143Y00618*
X02152Y00607*
X02198Y00561*
Y00474*
Y0027*
X022Y00256*
X02204Y00242*
X0221Y0023*
X02219Y00219*
X0223Y0021*
X02242Y00204*
X02256Y002*
X02269Y00198*
X02283Y002*
X02297Y00204*
X02309Y0021*
X02317Y00217*
X02322Y00215*
Y00002*
X00864*
X00863Y00006*
X00874Y00017*
X00877Y00023*
X00879Y0003*
Y00422*
X00983*
X0099Y00417*
X01Y00415*
X01009Y00417*
X01017Y00422*
X01022Y0043*
X01024Y0044*
X01022Y00449*
X01017Y00457*
X01009Y00462*
X01Y00464*
X0099Y00462*
X00983Y00457*
X00871*
X00868Y00458*
X00862Y00459*
X00855Y00458*
X0085Y00454*
X00846Y00449*
X00845Y00442*
Y00062*
X0084Y00058*
X00836Y00058*
X00793Y00102*
Y00255*
X00795Y00258*
X00795Y00258*
X008Y00261*
X00805Y00257*
X00815Y00255*
X00824Y00257*
X00832Y00262*
X00837Y0027*
X00839Y0028*
X00837Y00289*
X00832Y00297*
X00824Y00302*
X00815Y00304*
X00805Y00302*
X00798Y00297*
X00797Y00297*
X00793Y00298*
Y00575*
X00797Y00577*
X00802Y00585*
X00804Y00595*
X00802Y00604*
X00797Y00612*
X00789Y00617*
X0078Y00619*
X0077Y00617*
X00762Y00612*
X00757Y00604*
X00755Y00595*
X00756Y00589*
Y00301*
X00755Y00299*
X00745Y00297*
X00737Y00292*
X00732Y00284*
X0073Y00275*
X00732Y00266*
X00737Y00258*
X00745Y00253*
X00755Y00251*
X00756Y00249*
Y00095*
X00758Y00088*
X00762Y00082*
X00762Y00081*
X0076Y00077*
X00726*
X00719Y00082*
X0071Y00084*
X007Y00082*
X00693Y00077*
X00242*
Y00113*
X00247Y0012*
X00249Y0013*
X00247Y00139*
X00242Y00147*
X00234Y00152*
X00225Y00154*
X00147Y00232*
Y00328*
X00152Y00335*
X00154Y00344*
X00167Y00357*
X0018*
X00186Y00359*
X00192Y00362*
X00195Y00368*
X00197Y00375*
Y00452*
X00277Y00533*
X00282Y00531*
Y00499*
X00277Y00497*
X00272Y00489*
X0027Y0048*
X00272Y0047*
X00277Y00462*
X00285Y00457*
X00295Y00455*
X00301Y00457*
X00307Y00454*
X00307Y0045*
X00312Y00442*
X0032Y00437*
X0033Y00435*
X00339Y00437*
X00347Y00442*
X00352Y0045*
X00354Y0046*
X00352Y00469*
X00349Y00472*
X00352Y00477*
X00628*
X00662Y00442*
Y0044*
X00664Y00433*
X00667Y00427*
X00702Y00393*
X007Y00385*
X00702Y00375*
X00707Y00367*
X00715Y00362*
X00725Y0036*
X00734Y00362*
X00742Y00367*
X00747Y00375*
X00749Y00385*
X00747Y00394*
X00742Y00402*
X00739Y00403*
X00737Y00407*
X00697Y00447*
Y0045*
X00695Y00456*
X00692Y00462*
X00647Y00506*
X00641Y0051*
X00635Y00511*
X00624*
X00624Y00516*
X00629Y00517*
X00637Y00522*
X00642Y0053*
X00644Y0054*
X00642Y00549*
X00637Y00557*
X00629Y00562*
X0062Y00564*
X0061Y00562*
X00603Y00557*
X00583*
X00566Y00573*
X0056Y00577*
X00554Y00578*
X00476*
X0047Y00577*
X00464Y00573*
X00439Y00548*
X00435Y00549*
X00432Y00551*
Y00759*
X00548*
X0055Y00757*
X0056Y00755*
X00569Y00757*
X00576Y00762*
X00628*
X00635Y00757*
X00645Y00755*
X00654Y00757*
X00662Y00762*
X00667Y0077*
X00669Y0078*
X00668Y00781*
X00671Y00785*
X00766*
X00769Y00779*
X00777Y00774*
X00786Y00772*
X00796Y00774*
X00803Y00779*
X00809Y00787*
X00811Y00796*
X00809Y00806*
X00803Y00813*
X00796Y00819*
X00786Y00821*
X0078Y00819*
X005*
X00498Y00824*
X0053Y00855*
X00539Y00857*
X00547Y00862*
X00552Y0087*
X00554Y0088*
X00552Y00889*
X00547Y00897*
X00539Y00902*
X0053Y00904*
X0052Y00902*
X00512Y00897*
X00507Y00889*
X00505Y0088*
X00467Y00842*
X00296*
X00293Y00844*
X00293Y00849*
X0032Y00875*
X00329Y00877*
X00337Y00882*
X00342Y0089*
X00344Y009*
X00342Y00909*
X00337Y00917*
X00329Y00922*
X0032Y00924*
X0031Y00922*
X00302Y00917*
X00297Y00909*
X00295Y009*
X00232Y00836*
X00227*
X0022Y00835*
X00215Y00831*
X00202Y00818*
X00198Y00812*
X00197Y00806*
Y00787*
X00198Y0078*
X00202Y00775*
X00201Y00773*
X002Y0077*
X00137*
Y00803*
X00142Y0081*
X00144Y0082*
X00142Y00829*
X00137Y00837*
X00129Y00842*
X0012Y00844*
X0011Y00842*
X00102Y00837*
X00097Y00829*
X00095Y0082*
X00097Y0081*
X00102Y00803*
Y00769*
X0009Y00756*
X00086Y00751*
X00085Y00744*
Y0072*
X00086Y00714*
X0009Y00708*
X00218Y0058*
X00223Y00576*
X0023Y00575*
X00263*
X00266Y00571*
X00265Y0057*
X00167Y00472*
X00164Y00466*
X00162Y0046*
Y00401*
X00157Y004*
X00157Y00404*
X00152Y00412*
X00144Y00417*
X00135Y00419*
X00125Y00417*
X0012Y00413*
X00114Y00417*
X00105Y00419*
X00095Y00417*
X00087Y00412*
X00082Y00404*
X0008Y00395*
X00082Y00385*
X00087Y00377*
X00095Y00372*
X00105Y0037*
X00114Y00372*
X0012Y00376*
X00125Y00373*
X00125Y0037*
X00124Y00368*
X0012Y00367*
X00112Y00362*
X00107Y00354*
X00105Y00345*
X00107Y00335*
X00112Y00328*
Y00225*
X00114Y00218*
X00117Y00212*
X00177Y00153*
X00175Y0015*
X00174Y00149*
X00165Y00147*
X00157Y00142*
X00152Y00134*
X00152Y00133*
X00147Y00132*
X00145Y00135*
X00134Y00144*
X00122Y0015*
X00108Y00154*
X00095Y00156*
X00081Y00154*
X00067Y0015*
X00055Y00144*
X00044Y00135*
X00035Y00124*
X00029Y00112*
X00025Y00098*
X00023Y00085*
X00025Y00071*
X00029Y00057*
X00035Y00045*
X00044Y00034*
X00055Y00025*
X00067Y00019*
X00081Y00015*
X00095Y00013*
X00108Y00015*
X00122Y00019*
X00134Y00025*
X00145Y00034*
X00154Y00045*
X0016Y00057*
X00164Y00071*
X00166Y00085*
X00164Y00097*
X00166Y001*
X00169Y00102*
X00175Y001*
X00184Y00102*
X00192Y00107*
X00197Y00115*
X00198Y00119*
X002Y0012*
X00203Y0012*
X00207Y00113*
Y0006*
X00209Y00053*
X00212Y00047*
X00218Y00044*
X00225Y00042*
X00693*
X007Y00037*
X0071Y00035*
X00719Y00037*
X00726Y00042*
X0077*
X00806Y00006*
X00805Y00002*
X00002*
Y03095*
X02197*
X02197Y0309*
X02196Y03089*
X02182Y03085*
X0217Y03079*
X02159Y0307*
X0215Y03059*
X02144Y03047*
X0214Y03033*
X02138Y0302*
X0214Y03006*
X02144Y02992*
X0215Y0298*
X02159Y02969*
X0217Y0296*
X02182Y02954*
X02196Y0295*
X0221Y02948*
X02223Y0295*
X02237Y02954*
X02249Y0296*
X0226Y02969*
X02269Y0298*
X02275Y02992*
X02279Y03006*
X02281Y0302*
X02279Y03033*
X02275Y03047*
X02269Y03059*
X0226Y0307*
X02249Y03079*
X02237Y03085*
X02223Y03089*
X02222Y0309*
X02222Y03095*
X02322*
Y02864*
G37*
%LNninja_3_2_pcb-2*%
%LPC*%
G36*
X02035Y01169D02*
X02025Y01167D01*
X02017Y01162*
X02012Y01154*
X0201Y01145*
X02012Y01135*
X02017Y01127*
X02025Y01122*
X02033Y01121*
X02066Y01087*
Y00962*
X01953Y00848*
X01945Y00847*
X01943Y00845*
X01942Y00847*
X01934Y00852*
X01925Y00854*
X01915Y00852*
X01907Y00847*
X01902Y00839*
X019Y0083*
X01902Y0082*
X01907Y00812*
X01915Y00807*
X01925Y00805*
X01934Y00807*
X01936Y00809*
X01937Y00807*
X01945Y00802*
X01955Y008*
X01964Y00802*
X01972Y00807*
X01977Y00815*
X01978Y00823*
X02056Y009*
X02061Y00898*
X02062Y0089*
X02067Y00882*
X02075Y00877*
X02085Y00875*
X02094Y00877*
X02102Y00882*
X02107Y0089*
X02109Y009*
X02107Y00909*
X02102Y00917*
X02094Y00922*
X02086Y00923*
X02084Y00928*
X02097Y00942*
X02101Y00948*
X02103Y00955*
Y01095*
X02101Y01101*
X02097Y01107*
X02058Y01146*
X02057Y01154*
X02052Y01162*
X02044Y01167*
X02035Y01169*
G37*
G36*
X00365Y00994D02*
X00355Y00992D01*
X00347Y00987*
X00342Y00979*
X0034Y0097*
X00342Y0096*
X00347Y00952*
X00355Y00947*
X00365Y00945*
X00374Y00947*
X00382Y00952*
X00387Y0096*
X00389Y0097*
X00387Y00979*
X00382Y00987*
X00374Y00992*
X00365Y00994*
G37*
G36*
X0045Y00911D02*
X0044Y00909D01*
X00432Y00904*
X00427Y00896*
X00425Y00887*
X00427Y00878*
X00432Y0087*
X0044Y00865*
X0045Y00863*
X00459Y00865*
X00467Y0087*
X00472Y00878*
X00474Y00887*
X00472Y00896*
X00467Y00904*
X00459Y00909*
X0045Y00911*
G37*
G36*
X0162Y00979D02*
X0161Y00977D01*
X01602Y00972*
X01597Y00964*
X01595Y00955*
X01597Y00945*
X01602Y00937*
X0161Y00932*
X0162Y0093*
X01629Y00932*
X01636Y00937*
X01707*
X01757Y00887*
X01763Y00884*
X0177Y00882*
X01853*
X01856Y0088*
X01856Y00875*
X01799Y00818*
X01794Y0082*
X01794Y0082*
X01789Y00828*
X01781Y00833*
X01772Y00835*
X01763Y00833*
X01755Y00828*
X0175Y0082*
X01748Y00811*
X0175Y00802*
X01755Y00794*
X01763Y00789*
X01763Y00789*
X01765Y00784*
X01755Y00775*
X0175Y00778*
X01744Y00779*
X01725*
X01719Y00778*
X01713Y00774*
X017Y00761*
X01699Y00762*
X0169Y00764*
X0168Y00762*
X01672Y00757*
X01667Y00749*
X01665Y0074*
X01667Y0073*
X01672Y00722*
X0168Y00717*
X0169Y00715*
X01699Y00717*
X01707Y00722*
X01707Y00723*
X01709Y00724*
X01714Y00727*
X01717Y00722*
X01725Y00717*
X01735Y00715*
X01744Y00717*
X01747Y0072*
X01789*
X01791Y00718*
X01792Y00711*
X01796Y00705*
X01792Y00699*
X0179Y0069*
X01792Y0068*
X01797Y00672*
X01805Y00667*
X01815Y00665*
X01824Y00667*
X01825Y00668*
X01839*
X0184Y00667*
X0185Y00665*
X01859Y00667*
X01859Y00667*
X01861Y00668*
X01867Y00671*
X01869*
X01875Y00667*
X01885Y00665*
X01894Y00667*
X01902Y00672*
X01907Y0068*
X01909Y0069*
X01907Y00699*
X01903Y00705*
X01907Y00711*
X01909Y0072*
X01907Y00729*
X01902Y00737*
X01894Y00742*
X01885Y00744*
X01875Y00742*
X01869Y00738*
X01865*
X01859Y00742*
X0185Y00744*
X0184Y00742*
X01833Y00738*
X01831*
X01824Y00742*
X01816Y00744*
X01809Y0075*
X01803Y00754*
X01796Y00756*
X01791*
X01789Y0076*
X01907Y00877*
X01908*
X01915Y00872*
X01925Y0087*
X01934Y00872*
X01942Y00877*
X01947Y00885*
X01949Y00895*
X01947Y00904*
X01942Y00912*
X01934Y00917*
X01925Y00919*
X01915Y00917*
X01908Y00912*
X019*
X01893Y0091*
X01891Y00909*
X01887Y00917*
X01879Y00922*
X0187Y00924*
X0186Y00922*
X01853Y00917*
X01777*
X01727Y00967*
X01721Y0097*
X01715Y00972*
X01636*
X01629Y00977*
X0162Y00979*
G37*
G36*
X0073Y01079D02*
X0072Y01077D01*
X00712Y01072*
X00707Y01064*
X00705Y01055*
X00707Y01047*
X00705Y01047*
X00697Y01042*
X00692Y01034*
X0069Y01025*
X00692Y01015*
X00697Y01007*
X00705Y01002*
X00715Y01*
X00724Y01002*
X00732Y01007*
X00737Y01015*
X00739Y01025*
X00737Y01032*
X00739Y01032*
X00747Y01037*
X00752Y01045*
X00754Y01055*
X00752Y01064*
X00747Y01072*
X00739Y01077*
X0073Y01079*
G37*
G36*
X01805Y01184D02*
X01795Y01182D01*
X01787Y01177*
X01782Y01169*
X0178Y0116*
X01782Y0115*
X01787Y01142*
X01795Y01137*
X01804Y01135*
X01842Y01098*
X01842Y01095*
X01847Y01087*
X01855Y01082*
X01865Y0108*
X01874Y01082*
X01882Y01087*
X01887Y01095*
X01889Y01105*
X01887Y01114*
X01882Y01122*
X01874Y01127*
X01865Y01129*
X0186Y01128*
X01829Y0116*
X01827Y01169*
X01822Y01177*
X01814Y01182*
X01805Y01184*
G37*
G36*
X01125Y00201D02*
X01114Y002D01*
X01104Y00196*
X01095Y00189*
X01088Y0018*
X01084Y0017*
X01083Y0016*
X01084Y00149*
X01088Y00139*
X01095Y0013*
X01104Y00123*
X01114Y00119*
X01125Y00118*
X01135Y00119*
X01145Y00123*
X01154Y0013*
X01161Y00139*
X01165Y00149*
X01166Y0016*
X01165Y0017*
X01161Y0018*
X01154Y00189*
X01145Y00196*
X01135Y002*
X01125Y00201*
G37*
G36*
X00555Y01064D02*
X00545Y01062D01*
X00537Y01057*
X00532Y01049*
X0053Y0104*
X00532Y0103*
X00537Y01022*
X00545Y01017*
X00555Y01015*
X00564Y01017*
X00572Y01022*
X00577Y0103*
X00579Y0104*
X00577Y01049*
X00572Y01057*
X00564Y01062*
X00555Y01064*
G37*
G36*
X004Y01181D02*
X00386Y01179D01*
X00372Y01175*
X0036Y01169*
X00349Y0116*
X0034Y01149*
X00334Y01137*
X0033Y01123*
X00328Y0111*
X0033Y01096*
X00334Y01082*
X0034Y0107*
X00349Y01059*
X0036Y0105*
X00372Y01044*
X00386Y0104*
X004Y01038*
X00413Y0104*
X00427Y01044*
X00439Y0105*
X0045Y01059*
X00459Y0107*
X00465Y01082*
X00469Y01096*
X00471Y0111*
X00469Y01123*
X00465Y01137*
X00459Y01149*
X0045Y0116*
X00439Y01169*
X00427Y01175*
X00413Y01179*
X004Y01181*
G37*
G36*
X01488Y00201D02*
X01477Y002D01*
X01467Y00196*
X01459Y00189*
X01452Y0018*
X01448Y0017*
X01447Y0016*
X01448Y00149*
X01452Y00139*
X01459Y0013*
X01467Y00123*
X01477Y00119*
X01488Y00118*
X01499Y00119*
X01509Y00123*
X01518Y0013*
X01524Y00139*
X01529Y00149*
X0153Y0016*
X01529Y0017*
X01524Y0018*
X01518Y00189*
X01509Y00196*
X01499Y002*
X01488Y00201*
G37*
G36*
X0161D02*
X01599Y002D01*
X01589Y00196*
X0158Y00189*
X01573Y0018*
X01569Y0017*
X01568Y0016*
X01569Y00149*
X01573Y00139*
X0158Y0013*
X01589Y00123*
X01599Y00119*
X0161Y00118*
X0162Y00119*
X0163Y00123*
X01639Y0013*
X01646Y00139*
X0165Y00149*
X01651Y0016*
X0165Y0017*
X01646Y0018*
X01639Y00189*
X0163Y00196*
X0162Y002*
X0161Y00201*
G37*
G36*
X01246D02*
X01235Y002D01*
X01225Y00196*
X01216Y00189*
X0121Y0018*
X01205Y0017*
X01204Y0016*
X01205Y00149*
X0121Y00139*
X01216Y0013*
X01225Y00123*
X01235Y00119*
X01246Y00118*
X01257Y00119*
X01267Y00123*
X01275Y0013*
X01282Y00139*
X01286Y00149*
X01287Y0016*
X01286Y0017*
X01282Y0018*
X01275Y00189*
X01267Y00196*
X01257Y002*
X01246Y00201*
G37*
G36*
X01367D02*
X01356Y002D01*
X01346Y00196*
X01338Y00189*
X01331Y0018*
X01327Y0017*
X01325Y0016*
X01327Y00149*
X01331Y00139*
X01338Y0013*
X01346Y00123*
X01356Y00119*
X01367Y00118*
X01378Y00119*
X01388Y00123*
X01396Y0013*
X01403Y00139*
X01407Y00149*
X01409Y0016*
X01407Y0017*
X01403Y0018*
X01396Y00189*
X01388Y00196*
X01378Y002*
X01367Y00201*
G37*
G36*
X0036Y00174D02*
X0035Y00172D01*
X00342Y00167*
X00337Y00159*
X00335Y0015*
X00337Y0014*
X00342Y00132*
X0035Y00127*
X0036Y00125*
X00369Y00127*
X00377Y00132*
X00382Y0014*
X00384Y0015*
X00382Y00159*
X00377Y00167*
X00369Y00172*
X0036Y00174*
G37*
G36*
X01894Y00805D02*
X01885Y00803D01*
X01877Y00798*
X01872Y0079*
X0187Y00781*
X01872Y00771*
X01877Y00764*
X01885Y00758*
X01894Y00756*
X01903Y00758*
X01911Y00764*
X01916Y00771*
X01918Y00781*
X01916Y0079*
X01911Y00798*
X01903Y00803*
X01894Y00805*
G37*
G36*
X01582Y00832D02*
X01573Y0083D01*
X01565Y00825*
X0156Y00817*
X01558Y00808*
X0156Y00799*
X01565Y00791*
X01573Y00786*
X01582Y00784*
X01591Y00786*
X01599Y00791*
X01604Y00799*
X01606Y00808*
X01604Y00817*
X01599Y00825*
X01591Y0083*
X01582Y00832*
G37*
G36*
X01585Y00449D02*
X01575Y00447D01*
X01567Y00442*
X01565Y00438*
X01559*
X01557Y00442*
X01549Y00447*
X0154Y00449*
X0153Y00447*
X01522Y00442*
X01517Y00434*
X01515Y00425*
X01517Y00415*
X01522Y00407*
X0153Y00402*
X0154Y004*
X01549Y00402*
X01557Y00407*
X01559Y00411*
X01565*
X01567Y00407*
X01575Y00402*
X01585Y004*
X01594Y00402*
X01602Y00407*
X01607Y00415*
X01609Y00425*
X01607Y00434*
X01602Y00442*
X01594Y00447*
X01585Y00449*
G37*
G36*
X0143Y00834D02*
X0142Y00832D01*
X01412Y00827*
X01407Y00819*
X01405Y0081*
X01407Y008*
X01412Y00792*
X01417Y0079*
Y00737*
X01418Y0073*
X01422Y00725*
X01427Y00719*
Y00676*
X01422Y00669*
X0142Y0066*
X01422Y0065*
X01427Y00642*
X01435Y00637*
X01445Y00635*
X01454Y00637*
X01462Y00642*
X01467Y0065*
X01469Y0066*
X01467Y00669*
X01462Y00676*
Y00723*
X01466Y00724*
X01473Y00729*
X01479Y00737*
X0148Y00746*
X01479Y00756*
X01473Y00763*
X01466Y00769*
X01456Y0077*
X01455Y0077*
X01451Y00773*
Y00799*
X01452Y008*
X01454Y0081*
X01452Y00819*
X01447Y00827*
X01439Y00832*
X0143Y00834*
G37*
G36*
X02135Y00069D02*
X02125Y00067D01*
X02117Y00062*
X02112Y00054*
X0211Y00045*
X02112Y00035*
X02117Y00027*
X02125Y00022*
X02135Y0002*
X02144Y00022*
X02152Y00027*
X02157Y00035*
X02159Y00045*
X02157Y00054*
X02152Y00062*
X02144Y00067*
X02135Y00069*
G37*
G36*
X00345Y02294D02*
X00335Y02292D01*
X00327Y02287*
X00322Y02279*
X0032Y0227*
X00322Y0226*
X00327Y02252*
X00335Y02247*
X00345Y02245*
X00354Y02247*
X00362Y02252*
X00367Y0226*
X00369Y0227*
X00367Y02279*
X00362Y02287*
X00354Y02292*
X00345Y02294*
G37*
G36*
X00335Y02349D02*
X00325Y02347D01*
X00317Y02342*
X00312Y02334*
X0031Y02325*
X00312Y02315*
X00317Y02307*
X00325Y02302*
X00335Y023*
X00344Y02302*
X00352Y02307*
X00357Y02315*
X00359Y02325*
X00357Y02334*
X00352Y02342*
X00344Y02347*
X00335Y02349*
G37*
G36*
X0102Y02184D02*
X0101Y02182D01*
X01002Y02177*
X00997Y02169*
X00995Y0216*
X00997Y0215*
X01002Y02142*
X0101Y02137*
X0102Y02135*
X01029Y02137*
X01037Y02142*
X01042Y0215*
X01044Y0216*
X01042Y02169*
X01037Y02177*
X01029Y02182*
X0102Y02184*
G37*
G36*
X00295Y02274D02*
X00285Y02272D01*
X00277Y02267*
X00272Y02259*
X0027Y0225*
X00272Y0224*
X00277Y02232*
X00285Y02227*
X00295Y02225*
X00304Y02227*
X00312Y02232*
X00317Y0224*
X00319Y0225*
X00317Y02259*
X00312Y02267*
X00304Y02272*
X00295Y02274*
G37*
G36*
X00555Y02646D02*
X00543Y02645D01*
X00531Y02641*
X0052Y02635*
X00511Y02628*
X00504Y02619*
X00498Y02608*
X00494Y02596*
X00493Y02585*
X00494Y02573*
X00498Y02561*
X00504Y0255*
X00511Y02541*
X0052Y02534*
X00531Y02528*
X00543Y02524*
X00555Y02523*
X00566Y02524*
X00578Y02528*
X00589Y02534*
X00598Y02541*
X00605Y0255*
X00611Y02561*
X00615Y02573*
X00616Y02585*
X00615Y02596*
X00611Y02608*
X00605Y02619*
X00598Y02628*
X00589Y02635*
X00578Y02641*
X00566Y02645*
X00555Y02646*
G37*
G36*
X01915Y0305D02*
X01897Y03049D01*
X0188Y03045*
X01864Y03038*
X0185Y03029*
X01836Y03018*
X01825Y03005*
X01816Y0299*
X01809Y02974*
X01805Y02957*
X01804Y0294*
X01805Y02922*
X01809Y02905*
X01816Y02889*
X01825Y02875*
X01836Y02861*
X0185Y0285*
X01864Y02841*
X0188Y02834*
X01897Y0283*
X01915Y02829*
X01932Y0283*
X01949Y02834*
X01965Y02841*
X0198Y0285*
X01993Y02861*
X02004Y02875*
X02013Y02889*
X0202Y02905*
X02024Y02922*
X02025Y0294*
X02024Y02957*
X0202Y02974*
X02013Y0299*
X02004Y03005*
X01993Y03018*
X0198Y03029*
X01965Y03038*
X01949Y03045*
X01932Y03049*
X01915Y0305*
G37*
G36*
X00555Y03079D02*
X00543Y03078D01*
X00531Y03074*
X0052Y03069*
X00511Y03061*
X00504Y03052*
X00498Y03041*
X00494Y0303*
X00493Y03018*
X00494Y03006*
X00498Y02994*
X00504Y02984*
X00511Y02974*
X0052Y02967*
X00531Y02961*
X00543Y02957*
X00555Y02956*
X00566Y02957*
X00578Y02961*
X00589Y02967*
X00598Y02974*
X00605Y02984*
X00611Y02994*
X00615Y03006*
X00616Y03018*
X00615Y0303*
X00611Y03041*
X00605Y03052*
X00598Y03061*
X00589Y03069*
X00578Y03074*
X00566Y03078*
X00555Y03079*
G37*
G36*
X0037Y0305D02*
X00352Y03049D01*
X00335Y03045*
X00319Y03038*
X00305Y03029*
X00291Y03018*
X0028Y03005*
X00271Y0299*
X00264Y02974*
X0026Y02957*
X00259Y0294*
X0026Y02922*
X00264Y02905*
X00271Y02889*
X0028Y02875*
X00291Y02861*
X00305Y0285*
X00319Y02841*
X00335Y02834*
X00345Y02832*
Y02827*
X00335Y02825*
X00319Y02818*
X00305Y02809*
X00291Y02798*
X0028Y02785*
X00271Y0277*
X00264Y02754*
X0026Y02737*
X00259Y0272*
X0026Y02702*
X00264Y02685*
X00271Y02669*
X0028Y02655*
X00291Y02641*
X00305Y0263*
X00319Y02621*
X00335Y02614*
X00352Y0261*
X0037Y02609*
X00387Y0261*
X00404Y02614*
X0042Y02621*
X00435Y0263*
X00448Y02641*
X00459Y02655*
X00468Y02669*
X00475Y02685*
X00479Y02702*
X0048Y0272*
X00479Y02737*
X00475Y02754*
X00468Y0277*
X00459Y02785*
X00448Y02798*
X00435Y02809*
X0042Y02818*
X00404Y02825*
X00394Y02827*
Y02832*
X00404Y02834*
X0042Y02841*
X00435Y0285*
X00448Y02861*
X00459Y02875*
X00468Y02889*
X00475Y02905*
X00479Y02922*
X0048Y0294*
X00479Y02957*
X00475Y02974*
X00468Y0299*
X00459Y03005*
X00448Y03018*
X00435Y03029*
X0042Y03038*
X00404Y03045*
X00387Y03049*
X0037Y0305*
G37*
G36*
X0085D02*
X00832Y03049D01*
X00815Y03045*
X00799Y03038*
X00785Y03029*
X00771Y03018*
X0076Y03005*
X00751Y0299*
X00744Y02974*
X0074Y02957*
X00739Y0294*
X0074Y02922*
X00744Y02905*
X00751Y02889*
X0076Y02875*
X00771Y02861*
X00785Y0285*
X00799Y02841*
X00815Y02834*
X00832Y0283*
X0085Y02829*
X00867Y0283*
X00884Y02834*
X009Y02841*
X00915Y0285*
X00928Y02861*
X00939Y02875*
X00948Y02889*
X00955Y02905*
X00959Y02922*
X0096Y0294*
X00959Y02957*
X00955Y02974*
X00948Y0299*
X00939Y03005*
X00928Y03018*
X00915Y03029*
X009Y03038*
X00884Y03045*
X00867Y03049*
X0085Y0305*
G37*
G36*
X0177Y01634D02*
X0176Y01632D01*
X01752Y01627*
X01747Y01619*
X01745Y0161*
X01747Y016*
X01752Y01592*
X0176Y01587*
X0177Y01585*
X01779Y01587*
X01787Y01592*
X01792Y016*
X01794Y0161*
X01792Y01619*
X01787Y01627*
X01779Y01632*
X0177Y01634*
G37*
G36*
X0169Y01834D02*
X0168Y01832D01*
X01672Y01827*
X01667Y01819*
X01665Y0181*
X01667Y018*
X01672Y01792*
X0168Y01787*
X0169Y01785*
X01699Y01787*
X01707Y01792*
X01712Y018*
X01714Y0181*
X01712Y01819*
X01707Y01827*
X01699Y01832*
X0169Y01834*
G37*
G36*
X02005Y01449D02*
X01995Y01447D01*
X01987Y01442*
X01982Y01434*
X0198Y01425*
X01982Y01415*
X01987Y01407*
X01995Y01402*
X02005Y014*
X02014Y01402*
X02022Y01407*
X02027Y01415*
X02029Y01425*
X02027Y01434*
X02022Y01442*
X02014Y01447*
X02005Y01449*
G37*
G36*
X01005Y01619D02*
X00995Y01617D01*
X00987Y01612*
X00982Y01604*
X0098Y01595*
X00982Y01585*
X00987Y01577*
X00995Y01572*
X01005Y0157*
X01014Y01572*
X01022Y01577*
X01027Y01585*
X01029Y01595*
X01027Y01604*
X01022Y01612*
X01014Y01617*
X01005Y01619*
G37*
G36*
X0045Y01849D02*
X0044Y01847D01*
X00432Y01842*
X00427Y01834*
X00425Y01825*
X00427Y01815*
X00432Y01807*
X0044Y01802*
X0045Y018*
X00459Y01802*
X00467Y01807*
X00472Y01815*
X00474Y01825*
X00472Y01834*
X00467Y01842*
X00459Y01847*
X0045Y01849*
G37*
G36*
X012Y01999D02*
X0119Y01997D01*
X01182Y01992*
X01177Y01984*
X01175Y01975*
X01177Y01965*
X01182Y01957*
X0119Y01952*
X012Y0195*
X01209Y01952*
X01217Y01957*
X01222Y01965*
X01224Y01975*
X01222Y01984*
X01217Y01992*
X01209Y01997*
X012Y01999*
G37*
G36*
X01022Y02005D02*
X01013Y02003D01*
X01005Y01998*
X01Y0199*
X00998Y01981*
X01Y01972*
X01005Y01964*
X01013Y01959*
X01022Y01957*
X01031Y01959*
X01039Y01964*
X01044Y01972*
X01046Y01981*
X01044Y0199*
X01039Y01998*
X01031Y02003*
X01022Y02005*
G37*
G36*
X02Y01874D02*
X0199Y01872D01*
X01982Y01867*
X01977Y01859*
X01975Y0185*
X01977Y0184*
X01982Y01832*
X0199Y01827*
X02Y01825*
X02009Y01827*
X02017Y01832*
X02022Y0184*
X02024Y0185*
X02022Y01859*
X02017Y01867*
X02009Y01872*
X02Y01874*
G37*
G36*
X0031Y02069D02*
X003Y02067D01*
X00292Y02062*
X00287Y02054*
X00285Y02045*
X00287Y02035*
X00292Y02027*
X003Y02022*
Y01926*
X00296Y01923*
X00295Y01924*
X00285Y01922*
X00277Y01917*
X00272Y01909*
X0027Y019*
X00272Y0189*
X00277Y01882*
X0028Y01881*
X0028Y01877*
X00276Y01873*
X00275Y01874*
X00265Y01872*
X00257Y01867*
X00252Y01859*
X0025Y0185*
X00252Y0184*
X00257Y01832*
X00265Y01827*
X00274Y01826*
Y01808*
X00275Y01802*
X00279Y01796*
X00673Y01402*
X00672Y01402*
X00667Y01394*
X00665Y01385*
X00667Y01375*
X00672Y01367*
X0068Y01362*
X0069Y0136*
X00699Y01362*
X00707Y01367*
X00712Y01375*
X00714Y01385*
X00712Y01391*
X00715Y01396*
X00774*
X0078Y01392*
X0079Y0139*
X00799Y01392*
X00807Y01397*
X00812Y01405*
X00814Y01415*
X00812Y01424*
X00807Y01432*
X00799Y01437*
X008Y01441*
X00805Y0144*
X00814Y01442*
X00821Y01447*
X00827*
X0083Y01442*
X00827Y01439*
X00825Y0143*
X00827Y0142*
X00832Y01412*
X00835Y01411*
X00835Y01406*
X00772Y01342*
X00768Y01336*
X00766Y0133*
Y00902*
X00768Y00895*
X00772Y00889*
X00854Y00807*
X0086Y00803*
X00867Y00801*
X01085*
X01087Y00796*
X01084Y00792*
X01082Y00786*
Y00726*
X01077Y00719*
X01075Y0071*
X01077Y007*
X01082Y00692*
X0109Y00687*
X011Y00685*
X01109Y00687*
X01117Y00692*
X01122Y007*
X01124Y0071*
X01122Y00719*
X01117Y00726*
Y00779*
X01137Y00799*
X01141Y00797*
Y00543*
X01141Y00542*
X01134Y00543*
X01132Y00547*
X01124Y00552*
X01115Y00554*
X01105Y00552*
X01097Y00547*
X01092Y00539*
X0109Y0053*
X01092Y0052*
X01097Y00512*
X01105Y00507*
X01115Y00505*
X01124Y00507*
X01132Y00512*
X01134Y00516*
X01141Y00517*
X01141Y00516*
Y00324*
X01137Y0032*
X01133Y00314*
X01131Y00307*
X01133Y003*
X01137Y00294*
X01184Y00247*
X0119Y00243*
X01197Y00241*
X01208*
X0121Y00239*
X01216Y0023*
X01225Y00223*
X01235Y00219*
X01246Y00218*
X01257Y00219*
X01267Y00223*
X01275Y0023*
X01282Y00239*
X01286Y00249*
X01287Y00259*
X0129Y00261*
X01292Y00262*
X01307Y00247*
X01313Y00243*
X0132Y00241*
X0133*
X01331Y00239*
X01338Y0023*
X01346Y00223*
X01356Y00219*
X01367Y00218*
X01378Y00219*
X01388Y00223*
X01396Y0023*
X01403Y00239*
X01407Y00249*
X01409Y0026*
X01407Y0027*
X01403Y0028*
X01396Y00289*
X01388Y00296*
X01378Y003*
X01367Y00301*
X01356Y003*
X01346Y00296*
X01338Y00289*
X01331Y0028*
X01331Y0028*
X01325Y00279*
X01208Y00397*
Y00508*
X01209Y00509*
X01213Y0051*
X01449Y00273*
X01448Y0027*
X01447Y0026*
X01448Y00249*
X01452Y00239*
X01459Y0023*
X01467Y00223*
X01477Y00219*
X01488Y00218*
X01499Y00219*
X01509Y00223*
X01518Y0023*
X01524Y00239*
X01529Y00249*
X0153Y0026*
X01529Y0027*
X01524Y0028*
X01518Y00289*
X01509Y00296*
X01499Y003*
X01488Y00301*
X01477Y003*
X01475Y00299*
X01243Y00531*
Y00849*
X01246Y00852*
X01249Y00852*
X01252Y00852*
X01252Y0085*
X01257Y00842*
X01265Y00837*
X01267Y00837*
X01266Y00836*
Y00585*
X01268Y00578*
X01272Y00572*
X0157Y00273*
X01569Y0027*
X01568Y0026*
X01569Y00249*
X01573Y00239*
X0158Y0023*
X01589Y00223*
X01599Y00219*
X0161Y00218*
X0162Y00219*
X0163Y00223*
X01639Y0023*
X01642Y00234*
X01647Y00232*
X01645Y00225*
X01647Y00215*
X01652Y00207*
X0166Y00202*
X0167Y002*
X01679Y00202*
X01687Y00207*
X01692Y00215*
X01694Y00225*
X01692Y00234*
X01687Y00242*
X01679Y00247*
X0167Y00249*
X0166Y00247*
X01652Y00242*
X01652Y00241*
X01647Y00243*
X0165Y00249*
X01651Y0026*
X0165Y0027*
X01646Y0028*
X01639Y00289*
X0163Y00296*
X0162Y003*
X0161Y00301*
X01599Y003*
X01596Y00299*
X01303Y00592*
Y00828*
X01316Y00842*
X01319Y00846*
X01325Y00848*
X01325Y00847*
X01335Y00845*
X01344Y00847*
X01352Y00852*
X01357Y0086*
X01359Y0087*
X01357Y00879*
X01352Y00887*
X01344Y00892*
X01338Y00893*
X01339Y00894*
X01337Y00903*
X01332Y00911*
X01324Y00917*
X01315Y00918*
X01305Y00917*
X01297Y00911*
X01296Y0091*
X01291Y00909*
X01284Y00917*
Y00946*
X01289Y00948*
X01292Y00942*
X013Y00937*
X0131Y00935*
X01319Y00937*
X01327Y00942*
X01332Y0095*
X01334Y0096*
X01332Y00969*
X01327Y00977*
X01319Y00982*
X01312Y00983*
X01314Y0099*
X01312Y00999*
X01307Y01007*
X01299Y01012*
X0129Y01014*
X01288Y01013*
X01284Y01016*
Y01067*
X01301Y01084*
X01306Y01084*
X01307Y01082*
X01315Y01077*
X01318Y01077*
Y01077*
X01318Y01072*
X01312Y01067*
X01307Y01059*
X01305Y0105*
X01307Y01041*
X01312Y01033*
X0132Y01028*
X01329Y01026*
X01338Y01028*
X01344Y01032*
X01759*
X01766Y01033*
X01772Y01037*
X01774Y0104*
X01778Y01045*
X01779Y01052*
Y01072*
X01783Y01078*
X01785Y01088*
X01783Y01097*
X01778Y01105*
X0177Y0111*
X01761Y01112*
X01752Y0111*
X01744Y01105*
X01739Y01097*
X01737Y01088*
X01739Y01078*
X01742Y01073*
X0174Y01068*
X01424*
X01423Y0107*
X01422Y01073*
X01555Y01205*
X01564Y01207*
X01572Y01212*
X01577Y0122*
X01579Y0123*
X01577Y01236*
X0158Y01241*
X01635*
X01641Y01243*
X01647Y01247*
X01651Y01253*
X01653Y0126*
X01651Y01266*
X01647Y01272*
X01641Y01276*
X01635Y01278*
X01567*
X01561Y01281*
X01555Y01283*
X01508*
X01501Y01281*
X015Y01281*
X01497Y01287*
X01495Y01288*
X01495Y01293*
X01563Y01361*
X01934*
X0194Y01357*
X0195Y01355*
X01959Y01357*
X01967Y01362*
X01972Y0137*
X01974Y0138*
X01972Y01389*
X01967Y01397*
X01959Y01402*
X0195Y01404*
X0194Y01402*
X01934Y01398*
X01691*
X01688Y01401*
X01689Y01405*
X01687Y01414*
X01682Y01422*
X01674Y01427*
X01665Y01429*
X01655Y01427*
X01647Y01422*
X01642Y01414*
X0164Y01405*
X01641Y01401*
X01638Y01398*
X01556*
X01549Y01396*
X01543Y01392*
X01443Y01292*
X01439Y01286*
X01439Y01284*
X01393Y01239*
X01351*
X01347Y01244*
X01348Y01247*
X01346Y01256*
X01342Y01262*
Y01317*
X01436*
X01443Y01318*
X01449Y01322*
X01626Y01499*
X01629Y01505*
X01631Y01512*
Y01617*
X01634Y0162*
X01651*
X01658Y01622*
X01664Y01625*
X018Y01762*
X01808Y01763*
X01816Y01768*
X01821Y01776*
Y01776*
X01826*
X01826Y01774*
X01831Y01766*
X01839Y01761*
X01849Y01759*
X01858Y01761*
X01866Y01766*
X01871Y01774*
X01872Y01778*
X01877*
X01877Y01775*
X01882Y01767*
X0189Y01762*
X019Y0176*
X01909Y01762*
X01917Y01767*
X01919Y01771*
X01925*
X01927Y01767*
X01935Y01762*
X01945Y0176*
X01954Y01762*
X01962Y01767*
X01967Y01775*
X01969Y01785*
X01967Y01794*
X01962Y01802*
X01954Y01807*
X01945Y01809*
X01935Y01807*
X01927Y01802*
X01925Y01798*
X01919*
X01917Y01802*
X01909Y01807*
X019Y01809*
X0189Y01807*
X01882Y01802*
X01877Y01794*
X01876Y0179*
X01871*
X01871Y01793*
X01866Y01801*
X01858Y01806*
X01849Y01808*
X01839Y01806*
X01831Y01801*
X01826Y01793*
Y01793*
X01821*
X01821Y01795*
X01816Y01803*
X01808Y01808*
X01799Y0181*
X01789Y01808*
X01781Y01803*
X01776Y01795*
X01775Y01787*
X01644Y01656*
X01627*
X0162Y01655*
X01614Y01651*
X016Y01637*
X01596Y01631*
X01595Y01624*
Y01519*
X01541Y01466*
X01535Y01467*
X01532Y01472*
X01524Y01477*
X01515Y01479*
X01514Y0148*
X01512Y01489*
X01507Y01497*
X01499Y01502*
X0149Y01504*
X0148Y01502*
X01472Y01497*
X01467Y01489*
X01465Y0148*
X01466Y01476*
X01458Y01475*
X0145Y01469*
X0145Y01469*
X01445Y0147*
Y01476*
X0145Y01484*
X01452Y01493*
X0145Y01502*
X01445Y0151*
X01437Y01515*
X01428Y01517*
X01419Y01515*
X01411Y0151*
X01406Y01502*
X01404Y01493*
X01406Y01484*
X01411Y01476*
Y01425*
X01402Y01417*
X01272*
X0127Y01421*
X0128Y0143*
X01289Y01432*
X01295Y01436*
X013Y01432*
X0131Y0143*
X01319Y01432*
X01323Y01435*
X01327Y01437*
X01331Y01435*
X01335Y01432*
X01345Y0143*
X01354Y01432*
X01362Y01437*
X01367Y01445*
X01369Y01455*
X01367Y01464*
X01362Y01472*
X01354Y01477*
X01349Y01478*
Y01494*
X01348Y015*
X01344Y01506*
X01325Y01525*
X0132Y01529*
X01313Y0153*
X01241*
X01235Y01529*
X01229Y01525*
X01227Y01523*
X01119*
X01108Y01535*
X01102Y01539*
X01095Y0154*
X01064*
X01057Y01539*
X01051Y01535*
X01004Y01488*
X01Y01487*
X00992Y01482*
X00987Y01474*
X00985Y01465*
X00987Y01455*
X00992Y01447*
X00993Y01447*
X00991Y01443*
X00933*
X00931Y01447*
X00932Y01447*
X00937Y01455*
X00939Y01465*
X00937Y01474*
X00932Y01482*
X00924Y01487*
X00915Y01489*
X00905Y01487*
X00898Y01482*
X00821*
X00814Y01487*
X00805Y01489*
X00795Y01487*
X00787Y01482*
X00782Y01474*
X0078Y01465*
X00782Y01455*
X00787Y01447*
X00795Y01442*
X00794Y01438*
X0079Y01439*
X0078Y01437*
X00774Y01433*
X00693*
X0033Y01795*
X00331Y018*
X00332Y01801*
X00338Y01809*
X00339Y01818*
X00409Y01887*
X00486*
X00489Y01886*
X00495Y01885*
X00972*
X00975Y01882*
X00985Y0188*
X00994Y01882*
X01002Y01887*
X01007Y01895*
X01009Y01905*
X01007Y01914*
X01002Y01922*
X00994Y01927*
X00985Y01929*
X00975Y01927*
X00967Y01922*
X00966Y01919*
X00546*
X00542Y01924*
X00544Y0193*
X00542Y01939*
X00537Y01947*
X00529Y01952*
X0052Y01954*
X0051Y01952*
X00502Y01947*
X00497Y01939*
X00495Y0193*
X00496Y01925*
X00493Y01922*
X00492Y01922*
X00402*
X00395Y0192*
X0039Y01917*
X00339Y01866*
X00334Y01868*
Y02037*
X00333Y02042*
X00334Y02045*
X00332Y02054*
X00327Y02062*
X00319Y02067*
X0031Y02069*
G37*
%LNninja_3_2_pcb-3*%
%LPD*%
G36*
X01145Y01331D02*
Y013D01*
X01146Y01294*
X0115Y01288*
X01163Y01275*
X01169Y01271*
X01175Y0127*
X01227*
Y01228*
X01226Y01225*
X01225Y01219*
Y01126*
X0122Y01124*
X01127Y01217*
X01121Y01221*
X01115Y01223*
X00965*
X00959Y01227*
X0095Y01229*
X0094Y01227*
X00932Y01222*
X00927Y01214*
X00925Y01205*
X00927Y01195*
X00932Y01187*
X0094Y01182*
X0095Y0118*
X00959Y01182*
X00965Y01186*
X01107*
X01201Y01092*
Y0098*
X012Y00975*
X01202Y00968*
X01195Y00967*
X01187Y00962*
X01182Y00954*
X0118Y00945*
X01182Y00935*
X01187Y00927*
X01195Y00922*
X01205Y0092*
X01214Y00922*
X0122Y00926*
X01225Y00924*
Y00896*
X01221Y00893*
X0122Y00894*
X0121Y00892*
X01205Y00888*
X01199Y00892*
X0119Y00894*
X0118Y00892*
X01175Y00888*
X01169Y00892*
X0116Y00894*
X0115Y00892*
X01148Y0089*
X01144Y00891*
X01087Y00948*
X01088Y00955*
X01092Y00957*
X01097Y00965*
X01099Y00975*
X01097Y00984*
X01092Y00992*
X01084Y00997*
X01075Y00999*
X01065Y00997*
X01057Y00992*
X01055Y00988*
X01048Y00987*
X01026Y01009*
X01021Y01013*
X01014Y01014*
X00919*
X00911Y01019*
X00902Y01021*
X00893Y01019*
X00885Y01014*
X0088Y01006*
X00878Y00997*
X0088Y00988*
X00885Y0098*
X00893Y00975*
X00902Y00973*
X00911Y00975*
X00919Y0098*
X01007*
X01094Y00893*
X01094Y00888*
X01092Y00887*
X01092Y00886*
X01087*
X01087Y00887*
X01079Y00892*
X0107Y00894*
X0106Y00892*
X01052Y00887*
X01047Y00879*
X01045Y0087*
X01047Y0086*
X01049Y00858*
X01047Y00853*
X01035*
X01032Y00858*
X01032Y00858*
X01034Y00867*
X01032Y00877*
X01027Y00884*
X01019Y0089*
X01018Y0089*
X01019Y00895*
X01017Y00904*
X01012Y00912*
X01004Y00917*
X00995Y00919*
X00985Y00917*
X00977Y00912*
X00974Y00906*
X0097Y00908*
X00964Y00909*
X00945*
X00939Y00908*
X00933Y00904*
X0092Y00891*
X00916Y00885*
X00915Y00879*
Y00871*
X00889*
X00839Y00921*
Y0127*
X01069*
X01076Y01271*
X01081Y01275*
X0114Y01333*
X01145Y01331*
G37*
%LNninja_3_2_pcb-4*%
%LPC*%
G36*
X00905Y01154D02*
X00895Y01152D01*
X00887Y01147*
X00882Y01139*
X0088Y0113*
X00882Y0112*
X00887Y01112*
X00895Y01107*
X00905Y01105*
X00914Y01107*
X00922Y01112*
X00927Y0112*
X00929Y0113*
X00927Y01139*
X00922Y01147*
X00914Y01152*
X00905Y01154*
G37*
%LNninja_3_2_pcb-5*%
%LPD*%
G54D32*
X01885Y0218D02*
X02175D01*
X01553Y01874D02*
X01663Y01984D01*
X0226Y00484D02*
X02269Y00474D01*
X0226Y00484D02*
Y00485D01*
X02248Y00453D02*
X02269Y00474D01*
X01419Y01176D02*
X01508Y01265D01*
X01456Y01276D02*
Y01279D01*
X01401Y01221D02*
X01456Y01276D01*
X01436Y01335D02*
X01613Y01512D01*
X01325Y01335D02*
X01436D01*
X01613Y01512D02*
Y01624D01*
X0116Y00317D02*
Y0087D01*
X0115Y00307D02*
X0116Y00317D01*
X0111Y0082D02*
Y0087D01*
X01285Y00836D02*
X01303Y00855D01*
Y00872*
X01266Y00909D02*
Y01074D01*
X0122Y0098D02*
X01225Y00975D01*
X01329Y0105D02*
X01759D01*
X01266Y00909D02*
X01303Y00872D01*
X01285Y00585D02*
Y00836D01*
X01225Y00523D02*
Y00865D01*
X0122Y0087D02*
X01225Y00865D01*
X0119Y0039D02*
Y0087D01*
X01555Y01265D02*
X0156Y0126D01*
X01635*
X01421Y02191D02*
X01615Y02385D01*
X01421Y02158D02*
Y02191D01*
X01325Y019D02*
X0139D01*
X012Y01903D02*
X01236Y0194D01*
X01615Y02385D02*
Y02625D01*
X01156Y02671D02*
X0116Y02675D01*
X0118Y02395D02*
X0156Y02775D01*
X01236Y0194D02*
X013D01*
X012Y019D02*
Y01903D01*
X01294Y01985D02*
X013Y0198D01*
Y0194D02*
Y0198D01*
X0119Y0039D02*
X0132Y0026D01*
X01097Y01457D02*
X011Y0146D01*
X01076Y01481D02*
X0108Y01484D01*
X01076Y0145D02*
Y01481D01*
Y0145D02*
X0108Y01446D01*
Y01425D02*
Y01446D01*
X01097Y01417D02*
Y01457D01*
X00775Y00289D02*
Y00595D01*
Y00095D02*
X00835Y00035D01*
X00775Y00095D02*
Y00262D01*
X00778Y00265*
Y00285*
X00775Y00289D02*
X00778Y00285D01*
X00775Y00595D02*
X0078D01*
X02248Y00271D02*
Y00453D01*
X01266Y01074D02*
X01305Y01113D01*
X0122Y0098D02*
Y011D01*
X01115Y01205D02*
X0122Y011D01*
X0095Y01205D02*
X01115D01*
X00292Y01808D02*
X00686Y01415D01*
X00292Y01808D02*
Y01828D01*
X00298Y01835*
Y01896*
X00295Y019D02*
X00298Y01896D01*
X01298Y01263D02*
X013Y01265D01*
X01298Y01235D02*
Y01263D01*
X01324Y01247D02*
Y01326D01*
X0132Y01176D02*
X01419D01*
X01302Y01193D02*
X0132Y01176D01*
X01305Y01113D02*
Y0115D01*
X01312Y01221D02*
X01317D01*
X0132Y01223*
X01339*
X01342Y01221*
X01401*
X01298Y01235D02*
X01312Y01221D01*
X01322Y01328D02*
X01324Y01326D01*
X01302Y01193D02*
Y01206D01*
X01298Y0121D02*
X01302Y01206D01*
X01265Y0121D02*
X01298D01*
X00955Y00837D02*
Y0087D01*
X00867Y0082D02*
X0111D01*
X01456Y01279D02*
X01556Y0138D01*
X0195*
X01508Y01265D02*
X01555D01*
X01663Y01984D02*
Y01991D01*
X01677Y02005*
X01285Y00585D02*
X0161Y0026D01*
X01322Y01333D02*
X01325Y01335D01*
X01322Y01333D02*
X01325Y0133D01*
X01322Y01328D02*
X01325Y0133D01*
X01613Y01624D02*
X01627Y01638D01*
X01651*
X01087Y01407D02*
X01097Y01417D01*
X01225Y00523D02*
X01488Y0026D01*
X0132D02*
X01367D01*
X01197D02*
X01246D01*
X0115Y00307D02*
X01197Y0026D01*
X00785Y00902D02*
X00867Y0082D01*
X01703Y01998D02*
X01885Y0218D01*
X01703Y01998D02*
D01*
X01697Y02005D02*
X01703Y01998D01*
X01415Y01874D02*
X01553D01*
X0139Y019D02*
X01415Y01874D01*
X00802Y0091D02*
Y01322D01*
X00785Y00902D02*
Y0133D01*
X00875Y00837D02*
X00955D01*
X00802Y0091D02*
X00875Y00837D01*
X01677Y02005D02*
X01697D01*
X01761Y01052D02*
Y01088D01*
X01759Y0105D02*
X01761Y01052D01*
X01651Y01638D02*
X01799Y01786D01*
X00686Y01415D02*
X0079D01*
X00802Y01322D02*
X00887Y01407D01*
X01087*
X00785Y0133D02*
X0088Y01425D01*
X0108*
X01156Y02175D02*
X0116Y02171D01*
X01156Y02175D02*
Y02671D01*
X0118Y02185D02*
Y02395D01*
X01205Y0213D02*
Y02134D01*
X0116Y0213D02*
X01195D01*
X0116Y02058D02*
Y0213D01*
Y02171*
X02085Y00955D02*
Y01095D01*
X02035Y01145D02*
X02085Y01095D01*
X01955Y00825D02*
X02085Y00955D01*
X01838Y0072D02*
X01839Y0072D01*
X01736Y00738D02*
X01796D01*
X01735Y0074D02*
X01736Y00738D01*
X01082Y01981D02*
X0116Y02058D01*
X01839Y0069D02*
X01843Y00686D01*
X01815Y00685D02*
X01816Y00686D01*
X01843*
X01853D02*
X01855Y00685D01*
X0188Y00716D02*
X01884Y0072D01*
X0186Y0069D02*
X01885D01*
X01815Y00685D02*
Y0069D01*
Y0072*
X01796Y00738D02*
X01815Y0072D01*
X01839Y0072D02*
X01884D01*
X01815Y0072D02*
X01838D01*
X01839Y0069D02*
Y0072D01*
X01843Y00686D02*
X01853D01*
X01855Y00685D02*
X0186Y0069D01*
X01885D02*
Y0072D01*
X01884Y0072D02*
X01885Y0072D01*
G54D33*
X02255Y00803D02*
Y0228D01*
Y00803D02*
X02269Y00788D01*
Y00474D02*
Y00591D01*
Y0027D02*
Y00474D01*
X02203Y00658D02*
X02269Y00591D01*
X02203Y00658D02*
Y00721D01*
X02269Y00788*
G54D34*
X02105Y02821D02*
X0214D01*
X0207D02*
X02105D01*
X0123Y02875D02*
X0126D01*
X012D02*
X0123D01*
X0117D02*
X012D01*
X0114D02*
X0117D01*
X01065D02*
X0114D01*
G54D35*
X0162Y0284D02*
X01637Y02822D01*
X01604Y01991D02*
X0169Y02076D01*
X01604Y01965D02*
Y01991D01*
X01442Y02022D02*
X0156Y0214D01*
X01546Y01908D02*
X01604Y01965D01*
X0169Y02076D02*
Y02145D01*
X00289Y00802D02*
X00781D01*
X019Y00895D02*
X01925D01*
X0176Y00755D02*
X019Y00895D01*
X0186Y01105D02*
X01865D01*
X01805Y0116D02*
X0186Y01105D01*
X01444Y01429D02*
X01467Y01452D01*
X01485Y01475D02*
X0149Y0148D01*
X0149Y01479*
X01506Y01446D02*
X01515Y01455D01*
X01428Y01418D02*
Y01493D01*
X01332Y01467D02*
X01345Y01455D01*
X01279Y01485D02*
X0131D01*
X01178Y01475D02*
X01257D01*
X01241Y0149D02*
X01248Y01497D01*
X01106Y0149D02*
X01241D01*
X01234Y01506D02*
X01241Y01513D01*
X01112Y01506D02*
X01234D01*
X01248Y01497D02*
X01267D01*
X01241Y01513D02*
X01313D01*
X01444Y01411D02*
Y01429D01*
X00902Y00997D02*
X01014D01*
X01132Y00879*
Y00818D02*
Y00879D01*
X011Y00786D02*
X01132Y00818D01*
X011Y0071D02*
Y00786D01*
X0107Y00836D02*
Y0087D01*
X01242Y00989D02*
Y01219D01*
Y00989D02*
X01247Y00984D01*
X01242Y01219D02*
X01245Y01222D01*
X01247Y00965D02*
Y00984D01*
X01248Y00876D02*
X01249D01*
X01185Y0131D02*
Y01353D01*
X01421Y01958D02*
Y02158D01*
X01637Y02383D02*
Y02822D01*
X0162Y02366D02*
X01637Y02383D01*
X0162Y0218D02*
Y02366D01*
X0139Y01985D02*
Y0202D01*
X01336Y01958D02*
X01421D01*
X01335Y0196D02*
X01336Y01958D01*
X01442Y01986D02*
Y02022D01*
Y01986D02*
X0145Y01978D01*
Y01962D02*
Y01978D01*
Y01962D02*
X01455Y01957D01*
Y0192D02*
Y01957D01*
X0123Y019D02*
X01235D01*
X00295Y0048D02*
X00299Y00484D01*
X00295Y0048D02*
X00295Y0048D01*
X00299Y00484D02*
Y00547D01*
X00312Y0056*
Y00579*
X00299Y00592D02*
X00312Y00579D01*
X0023Y00592D02*
X00299D01*
X00102Y0072D02*
X0023Y00592D01*
X00102Y0072D02*
Y00744D01*
X0012Y00762*
X00475Y00825D02*
X0053Y0088D01*
X0027Y00802D02*
X0027Y00802D01*
X00242Y00802D02*
X0027D01*
X0101Y01465D02*
Y01469D01*
X01039Y01474D02*
X01057Y01492D01*
X01039Y01458D02*
Y01474D01*
X01089Y01507D02*
X01106Y0149D01*
X0107Y01507D02*
X01089D01*
X01057Y01494D02*
X0107Y01507D01*
X01095Y01523D02*
X01112Y01506D01*
X01064Y01523D02*
X01095D01*
X0101Y01469D02*
X01064Y01523D01*
X01079Y01375D02*
X01178Y01475D01*
X01182Y01431D02*
X012Y0145D01*
X01171Y01431D02*
X01182D01*
X011Y0136D02*
X01171Y01431D01*
X01069Y01287D02*
X01232Y0145D01*
X01162Y01352D02*
X01225Y01415D01*
X0124*
X01231Y014D02*
X0141D01*
X01185Y01353D02*
X01231Y014D01*
X01238Y01384D02*
X01416D01*
X01215Y0136D02*
X01238Y01384D01*
X01245Y01368D02*
X01423D01*
X01245Y0131D02*
Y01368D01*
X0169Y0074D02*
X01702D01*
X01725Y00762*
X01744*
X01752Y00755*
X0176*
X00476Y00561D02*
X00554D01*
X00576Y0054*
X00415D02*
Y00776D01*
X00246Y00774D02*
X00248Y00776D01*
X00227Y00774D02*
X00246D01*
X00214Y00787D02*
X00227Y00774D01*
X00214Y00787D02*
Y00806D01*
X00227Y00819*
X00239*
X00236Y00796D02*
X00242Y00802D01*
X00317Y0182D02*
X00402Y01905D01*
X00315Y01818D02*
X00317Y0182D01*
X0016Y00375D02*
X0018D01*
Y0046*
X0029Y0057*
X00862Y0003D02*
Y00442D01*
X00844Y00012D02*
X00862Y0003D01*
X00825Y00012D02*
X00844D01*
X00777Y0006D02*
X00825Y00012D01*
X0071Y0006D02*
X00777D01*
X0013Y00225D02*
X00225Y0013D01*
Y0006D02*
Y0013D01*
Y0006D02*
X0071D01*
X01242Y00882D02*
X01248Y00876D01*
X01242Y0096D02*
X01247Y00965D01*
X01242Y00882D02*
Y0096D01*
X00317Y0182D02*
Y02037D01*
X0031Y02045D02*
X00317Y02037D01*
X01215Y0131D02*
Y0136D01*
X01175Y01287D02*
X01245D01*
Y01222D02*
Y01287D01*
X01275Y0131D02*
Y01349D01*
X01272Y01352D02*
X01429D01*
X01272D02*
X01275Y01349D01*
X01162Y013D02*
X01175Y01287D01*
X01232Y0145D02*
X01235D01*
X01267Y01497D02*
X01279Y01485D01*
X0124Y01415D02*
X0128Y01455D01*
X01332Y01467D02*
Y01494D01*
X01313Y01513D02*
X01332Y01494D01*
X01057Y01492D02*
Y01494D01*
X01162Y013D02*
Y01352D01*
X0103Y0131D02*
Y0136D01*
X00822Y01287D02*
X01069D01*
X01Y0131D02*
Y0133D01*
X01014Y01344D02*
Y01366D01*
X01Y0133D02*
X01014Y01344D01*
X00977Y0086D02*
Y00879D01*
X00964Y00892D02*
X00977Y00879D01*
X00932Y0086D02*
Y00879D01*
Y0086D02*
X00935Y00857D01*
Y00854D02*
Y00857D01*
X00881Y00854D02*
X00935D01*
X00932Y00879D02*
X00945Y00892D01*
X00964*
X00978Y00836D02*
X0107D01*
X00971Y00843D02*
X00978Y00836D01*
X00971Y00843D02*
Y00854D01*
X00977Y0086*
X01675Y0288D02*
X0168Y02885D01*
X01506Y01429D02*
Y01446D01*
X01429Y01352D02*
X01506Y01429D01*
X0149Y01435D02*
Y01479D01*
X01423Y01368D02*
X0149Y01435D01*
X0141Y014D02*
X01428Y01418D01*
X01416Y01384D02*
X01444Y01411D01*
X01235Y019D02*
X0124Y01895D01*
X0103Y0136D02*
X011D01*
X00822Y00914D02*
X00881Y00854D01*
X00822Y00914D02*
Y01287D01*
X01014Y01366D02*
X01023Y01375D01*
X01079*
X00125Y0073D02*
Y00745D01*
X00133Y00753*
X0141Y01085D02*
X01555Y0123D01*
X01395Y011D02*
X0141Y01085D01*
X01325Y011D02*
X01395D01*
X00805Y01465D02*
X00915D01*
X00781Y00802D02*
X00786Y00796D01*
X0013Y00225D02*
Y00345D01*
X0016Y00375*
X00239Y00819D02*
X0032Y009D01*
X0028Y00825D02*
X00475D01*
X0027Y00802D02*
X00289D01*
X00289Y00802*
X00133Y00753D02*
X00366D01*
X00248Y00776D02*
X00415D01*
X0012Y00762D02*
Y0082D01*
X01255Y02155D02*
X0139Y0202D01*
X01185Y02155D02*
X01255D01*
X0177Y009D02*
X0187D01*
X0162Y00955D02*
X01715D01*
X0177Y009*
X0143Y0081D02*
X01434Y00805D01*
Y00737D02*
Y00805D01*
X01445Y0066D02*
Y00726D01*
X01434Y00737D02*
X01445Y00726D01*
X00402Y01905D02*
X00492D01*
X00982Y01902D02*
X00985Y01905D01*
X00492D02*
X00495Y01902D01*
X00982*
X00576Y0054D02*
X0062D01*
X0068Y0044D02*
Y0045D01*
X00295Y0048D02*
X00301D01*
X00635Y00494D02*
X0068Y0045D01*
X00301Y0048D02*
X00315Y00494D01*
X00635*
X00862Y00442D02*
X00865Y0044D01*
X01*
X0068D02*
X00725Y00395D01*
Y00385D02*
Y00395D01*
X0056Y0078D02*
X00645D01*
X00556Y00776D02*
X0056Y0078D01*
X00415Y00776D02*
X00556D01*
X0044Y00525D02*
X00476Y00561D01*
X00435Y00525D02*
X0044D01*
X00415Y0054D02*
X0043Y00525D01*
X00435*
G54D46*
X00155Y0294D03*
Y0272D03*
G54D48*
X01125Y0006D03*
X01246D03*
X01367D03*
X01488D03*
X0161D03*
G54D49*
X01125Y0026D03*
X01246D03*
X01367D03*
X01488D03*
X0161D03*
G54D50*
X02255Y0228D03*
G54D51*
X0214Y02821D03*
X02175Y0218D03*
X0162Y0284D03*
X01586Y0288D03*
X0154D03*
X0162Y02887D03*
X0165Y0288D03*
X00605Y02281D03*
X00635Y02365D03*
Y0233D03*
X0207Y02821D03*
X02105D03*
X0126Y02875D03*
X0123D03*
X012D03*
X0117D03*
X0114D03*
X0156Y0214D03*
X01546Y01908D03*
X0169Y02145D03*
X0226Y00485D03*
X02315Y00585D03*
Y00615D03*
X0229Y006D03*
Y0057D03*
Y0048D03*
X02315Y00495D03*
X0229Y0051D03*
Y0054D03*
X02315Y00525D03*
Y00555D03*
X0079Y00714D03*
X0064Y00725D03*
X0069Y01155D03*
X01925Y00895D03*
X01865Y01105D03*
X01805Y0116D03*
X01467Y01452D03*
X0149Y0148D03*
X01515Y01455D03*
X01428Y01493D03*
X01345Y01455D03*
X0131Y01485D03*
X01257Y01475D03*
X0116Y0087D03*
X0107D03*
X0111D03*
X011Y0071D03*
X01225Y00975D03*
X01329Y0105D03*
X01249Y00876D03*
X0122Y0087D03*
X0119D03*
X01185Y0131D03*
X01635Y0126D03*
X0139Y01985D03*
X01455Y0192D03*
X01335Y0196D03*
X01325Y019D03*
X0123D03*
X0162Y0218D03*
X01615Y02625D03*
X0116Y02675D03*
X0156Y02775D03*
X01294Y01985D03*
X00295Y0048D03*
X00915Y01465D03*
X0101D03*
X01039Y01458D03*
X011Y0146D03*
X0108Y01484D03*
X012Y0145D03*
X0169Y0074D03*
X01875Y00935D03*
X0032Y009D03*
X00645Y0078D03*
X00985Y01905D03*
X0029Y0057D03*
X00225Y0013D03*
X0071Y0006D03*
X00835Y00035D03*
X0078Y00595D03*
X02248Y00271D03*
X0166Y0144D03*
X0095Y01205D03*
X00295Y019D03*
X01215Y0131D03*
X01245D03*
X01298Y01263D03*
X01324Y01247D03*
X01305Y0115D03*
X01275Y0131D03*
X01235Y0145D03*
X0128Y01455D03*
X00315Y01818D03*
X0031Y02045D03*
X0103Y0131D03*
X01D03*
X00955Y0087D03*
X0053Y0088D03*
X00902Y00997D03*
X0087Y0115D03*
Y0095D03*
X0195Y0138D03*
X0197Y0108D03*
X0173Y0119D03*
X0063Y023D03*
X01265Y0121D03*
X01555Y01265D03*
X01065Y02875D03*
X0168Y02885D03*
X00366Y00753D03*
X013Y0194D03*
X012Y019D03*
X00125Y0073D03*
X00236Y00796D03*
X01761Y01088D03*
X01555Y0123D03*
X01325Y011D03*
X01799Y01786D03*
X0079Y01415D03*
X00805Y01465D03*
X00786Y00796D03*
X0013Y00345D03*
X0028Y00825D03*
X0012Y0082D03*
X0118Y02185D03*
X01185Y02155D03*
X01205Y0213D03*
X02035Y01145D03*
X0187Y009D03*
X01955Y00825D03*
X0185Y0072D03*
X01735Y0074D03*
X0162Y00955D03*
X0143Y0081D03*
X01445Y0066D03*
X01329Y01615D03*
X01534D03*
X01125Y01666D03*
Y01615D03*
X01176D03*
X01227D03*
X01278D03*
X01381D03*
X01432D03*
X01483D03*
X01585D03*
X01637D03*
X01176Y01666D03*
X01227D03*
X01278D03*
X01329D03*
X01381D03*
X01432D03*
X01483D03*
X01534D03*
X01585D03*
X01637D03*
X01125Y01717D03*
X01176D03*
X01227D03*
X01278D03*
X01329D03*
X01381D03*
X01432D03*
X01483D03*
X01534D03*
X01585D03*
X01637D03*
X01125Y01768D03*
X01176D03*
X01227D03*
X01278D03*
X01329D03*
X01381D03*
X01432D03*
X01483D03*
X01534D03*
X01585D03*
X01637D03*
X0062Y0054D03*
X01Y0044D03*
X00725Y00385D03*
X0056Y0078D03*
X00435Y00525D03*
X01082Y01981D03*
X01815Y0069D03*
X0185D03*
X01885Y0072D03*
Y0069D03*
X01815Y0072D03*
G54D52*
X00582Y00594D03*
Y00641D03*
Y00688D03*
Y00735D03*
X00535Y00594D03*
Y00641D03*
Y00688D03*
Y00735D03*
X00488Y00594D03*
Y00641D03*
Y00688D03*
Y00735D03*
X00441Y00594D03*
Y00641D03*
Y00688D03*
Y00735D03*
G54D53*
X01633Y0288D02*
X01675D01*
X01625Y02887D02*
X01633Y0288D01*
X01594Y02887D02*
X01625D01*
X0145Y0281D02*
X0152Y0288D01*
X0106Y0281D02*
X0145D01*
X0063Y0238D02*
X0106Y0281D01*
X01586Y0288D02*
X01594Y02887D01*
X0152Y0288D02*
X01586D01*
X0063Y023D02*
Y0238D01*
M02*